<?xml version="1.0" encoding="UTF-8" standalone="no"?>
<!DOCTYPE svg PUBLIC "-//W3C//DTD SVG 1.1//EN"
 "http://www.w3.org/Graphics/SVG/1.1/DTD/svg11.dtd">
<!-- Generated by graphviz version 2.39.20160613.1334 (20160613.1334)
 -->
<!-- Title: G Pages: 1 -->
<svg width="1404pt" height="1024pt"
 viewBox="0.00 0.00 1404.14 1023.95" xmlns="http://www.w3.org/2000/svg" xmlns:xlink="http://www.w3.org/1999/xlink">
<g id="graph0" class="graph" transform="scale(1 1) rotate(0) translate(4 1019.95)">
<title>G</title>
<polygon fill="white" stroke="transparent" points="-4,4 -4,-1019.95 1400.14,-1019.95 1400.14,4 -4,4"/>
<!-- run0 -->
<g id="node1" class="node">
<title>run0</title>
<path fill="black" stroke="black" d="M735.617,-525.973C735.617,-525.973 643.72,-525.973 643.72,-525.973 637.72,-525.973 631.72,-519.973 631.72,-513.973 631.72,-513.973 631.72,-501.973 631.72,-501.973 631.72,-495.973 637.72,-489.973 643.72,-489.973 643.72,-489.973 735.617,-489.973 735.617,-489.973 741.617,-489.973 747.617,-495.973 747.617,-501.973 747.617,-501.973 747.617,-513.973 747.617,-513.973 747.617,-519.973 741.617,-525.973 735.617,-525.973"/>
<text text-anchor="middle" x="689.668" y="-503.773" font-family="Times,serif" font-size="14.00" fill="white">0: /usr/bin/python</text>
</g>
<!-- /home/ducvu/Documents/LIGO_DATAONE/GW150914_ASDs.png -->
<g id="node5" class="node">
<title>/home/ducvu/Documents/LIGO_DATAONE/GW150914_ASDs.png</title>
<path fill="#a3b4e0" stroke="black" d="M1304.26,-1011.97C1304.26,-1011.97 875.52,-1011.97 875.52,-1011.97 869.52,-1011.97 863.52,-1005.97 863.52,-999.973 863.52,-999.973 863.52,-987.973 863.52,-987.973 863.52,-981.973 869.52,-975.973 875.52,-975.973 875.52,-975.973 1304.26,-975.973 1304.26,-975.973 1310.26,-975.973 1316.26,-981.973 1316.26,-987.973 1316.26,-987.973 1316.26,-999.973 1316.26,-999.973 1316.26,-1005.97 1310.26,-1011.97 1304.26,-1011.97"/>
<text text-anchor="middle" x="1089.89" y="-996.773" font-family="Courier,monospace" font-size="14.00" fill="#131c39">GW150914_ASDs.png</text>
<text text-anchor="middle" x="1089.89" y="-982.773" font-family="Courier,monospace" font-size="14.00" fill="#131c39">/home/ducvu/Documents/LIGO_DATAONE/GW150914_ASDs.png</text>
</g>
<!-- run0&#45;&gt;/home/ducvu/Documents/LIGO_DATAONE/GW150914_ASDs.png -->
<g id="edge10" class="edge">
<title>run0&#45;&gt;/home/ducvu/Documents/LIGO_DATAONE/GW150914_ASDs.png</title>
<path fill="none" stroke="#000088" d="M690.591,-526.139C694.933,-603.798 716.038,-906.668 783.643,-966.973 839.05,-1016.4 924.67,-1020.08 991.306,-1013.14"/>
<polygon fill="#000088" stroke="#000088" points="991.871,-1016.6 1001.41,-1011.99 991.081,-1009.64 991.871,-1016.6"/>
</g>
<!-- /home/ducvu/Documents/LIGO_DATAONE/GW150914_H1_ASD_16384.png -->
<g id="node6" class="node">
<title>/home/ducvu/Documents/LIGO_DATAONE/GW150914_H1_ASD_16384.png</title>
<path fill="#a3b4e0" stroke="black" d="M1337.97,-957.973C1337.97,-957.973 841.809,-957.973 841.809,-957.973 835.809,-957.973 829.809,-951.973 829.809,-945.973 829.809,-945.973 829.809,-933.973 829.809,-933.973 829.809,-927.973 835.809,-921.973 841.809,-921.973 841.809,-921.973 1337.97,-921.973 1337.97,-921.973 1343.97,-921.973 1349.97,-927.973 1349.97,-933.973 1349.97,-933.973 1349.97,-945.973 1349.97,-945.973 1349.97,-951.973 1343.97,-957.973 1337.97,-957.973"/>
<text text-anchor="middle" x="1089.89" y="-942.773" font-family="Courier,monospace" font-size="14.00" fill="#131c39">GW150914_H1_ASD_16384.png</text>
<text text-anchor="middle" x="1089.89" y="-928.773" font-family="Courier,monospace" font-size="14.00" fill="#131c39">/home/ducvu/Documents/LIGO_DATAONE/GW150914_H1_ASD_16384.png</text>
</g>
<!-- run0&#45;&gt;/home/ducvu/Documents/LIGO_DATAONE/GW150914_H1_ASD_16384.png -->
<g id="edge26" class="edge">
<title>run0&#45;&gt;/home/ducvu/Documents/LIGO_DATAONE/GW150914_H1_ASD_16384.png</title>
<path fill="none" stroke="#000088" d="M691.123,-526.167C697.264,-598.033 723.572,-860.778 783.643,-912.973 838.731,-960.84 922.337,-965.277 988.282,-959.022"/>
<polygon fill="#000088" stroke="#000088" points="988.709,-962.497 998.292,-957.979 987.983,-955.534 988.709,-962.497"/>
</g>
<!-- /home/ducvu/Documents/LIGO_DATAONE/GW150914_H1_ASD_16384_zoom.png -->
<g id="node7" class="node">
<title>/home/ducvu/Documents/LIGO_DATAONE/GW150914_H1_ASD_16384_zoom.png</title>
<path fill="#a3b4e0" stroke="black" d="M1358.98,-903.973C1358.98,-903.973 820.802,-903.973 820.802,-903.973 814.802,-903.973 808.802,-897.973 808.802,-891.973 808.802,-891.973 808.802,-879.973 808.802,-879.973 808.802,-873.973 814.802,-867.973 820.802,-867.973 820.802,-867.973 1358.98,-867.973 1358.98,-867.973 1364.98,-867.973 1370.98,-873.973 1370.98,-879.973 1370.98,-879.973 1370.98,-891.973 1370.98,-891.973 1370.98,-897.973 1364.98,-903.973 1358.98,-903.973"/>
<text text-anchor="middle" x="1089.89" y="-888.773" font-family="Courier,monospace" font-size="14.00" fill="#131c39">GW150914_H1_ASD_16384_zoom.png</text>
<text text-anchor="middle" x="1089.89" y="-874.773" font-family="Courier,monospace" font-size="14.00" fill="#131c39">/home/ducvu/Documents/LIGO_DATAONE/GW150914_H1_ASD_16384_zoom.png</text>
</g>
<!-- run0&#45;&gt;/home/ducvu/Documents/LIGO_DATAONE/GW150914_H1_ASD_16384_zoom.png -->
<g id="edge27" class="edge">
<title>run0&#45;&gt;/home/ducvu/Documents/LIGO_DATAONE/GW150914_H1_ASD_16384_zoom.png</title>
<path fill="none" stroke="#000088" d="M691.841,-526.408C700.007,-592.338 731.108,-814.853 783.643,-858.973 837.861,-904.508 918.12,-910.103 982.874,-904.923"/>
<polygon fill="#000088" stroke="#000088" points="983.48,-908.382 993.127,-904.003 982.855,-901.41 983.48,-908.382"/>
</g>
<!-- /home/ducvu/Documents/LIGO_DATAONE/GW150914_H1_ASD_4096_zoom.png -->
<g id="node8" class="node">
<title>/home/ducvu/Documents/LIGO_DATAONE/GW150914_H1_ASD_4096_zoom.png</title>
<path fill="#a3b4e0" stroke="black" d="M1354.58,-849.973C1354.58,-849.973 825.204,-849.973 825.204,-849.973 819.204,-849.973 813.204,-843.973 813.204,-837.973 813.204,-837.973 813.204,-825.973 813.204,-825.973 813.204,-819.973 819.204,-813.973 825.204,-813.973 825.204,-813.973 1354.58,-813.973 1354.58,-813.973 1360.58,-813.973 1366.58,-819.973 1366.58,-825.973 1366.58,-825.973 1366.58,-837.973 1366.58,-837.973 1366.58,-843.973 1360.58,-849.973 1354.58,-849.973"/>
<text text-anchor="middle" x="1089.89" y="-834.773" font-family="Courier,monospace" font-size="14.00" fill="#131c39">GW150914_H1_ASD_4096_zoom.png</text>
<text text-anchor="middle" x="1089.89" y="-820.773" font-family="Courier,monospace" font-size="14.00" fill="#131c39">/home/ducvu/Documents/LIGO_DATAONE/GW150914_H1_ASD_4096_zoom.png</text>
</g>
<!-- run0&#45;&gt;/home/ducvu/Documents/LIGO_DATAONE/GW150914_H1_ASD_4096_zoom.png -->
<g id="edge28" class="edge">
<title>run0&#45;&gt;/home/ducvu/Documents/LIGO_DATAONE/GW150914_H1_ASD_4096_zoom.png</title>
<path fill="none" stroke="#000088" d="M692.71,-525.996C702.999,-584.693 738.401,-768.676 783.643,-804.973 836.29,-847.213 911.654,-854.309 974.445,-850.676"/>
<polygon fill="#000088" stroke="#000088" points="975.068,-854.142 984.808,-849.974 974.595,-847.158 975.068,-854.142"/>
</g>
<!-- /home/ducvu/Documents/LIGO_DATAONE/GW150914_H1_shifted.wav -->
<g id="node9" class="node">
<title>/home/ducvu/Documents/LIGO_DATAONE/GW150914_H1_shifted.wav</title>
<path fill="#a3b4e0" stroke="black" d="M1329.67,-795.973C1329.67,-795.973 850.112,-795.973 850.112,-795.973 844.112,-795.973 838.112,-789.973 838.112,-783.973 838.112,-783.973 838.112,-771.973 838.112,-771.973 838.112,-765.973 844.112,-759.973 850.112,-759.973 850.112,-759.973 1329.67,-759.973 1329.67,-759.973 1335.67,-759.973 1341.67,-765.973 1341.67,-771.973 1341.67,-771.973 1341.67,-783.973 1341.67,-783.973 1341.67,-789.973 1335.67,-795.973 1329.67,-795.973"/>
<text text-anchor="middle" x="1089.89" y="-780.773" font-family="Courier,monospace" font-size="14.00" fill="#131c39">GW150914_H1_shifted.wav</text>
<text text-anchor="middle" x="1089.89" y="-766.773" font-family="Courier,monospace" font-size="14.00" fill="#131c39">/home/ducvu/Documents/LIGO_DATAONE/GW150914_H1_shifted.wav</text>
</g>
<!-- run0&#45;&gt;/home/ducvu/Documents/LIGO_DATAONE/GW150914_H1_shifted.wav -->
<g id="edge22" class="edge">
<title>run0&#45;&gt;/home/ducvu/Documents/LIGO_DATAONE/GW150914_H1_shifted.wav</title>
<path fill="none" stroke="#000088" d="M690.524,-526.088C693.779,-572.345 709.357,-695.101 783.643,-750.973 797.371,-761.299 812.487,-769.455 828.426,-775.824"/>
<polygon fill="#000088" stroke="#000088" points="827.309,-779.143 837.902,-779.37 829.763,-772.587 827.309,-779.143"/>
</g>
<!-- /home/ducvu/Documents/LIGO_DATAONE/GW150914_H1_spectrogram.png -->
<g id="node10" class="node">
<title>/home/ducvu/Documents/LIGO_DATAONE/GW150914_H1_spectrogram.png</title>
<path fill="#a3b4e0" stroke="black" d="M1346.28,-741.973C1346.28,-741.973 833.506,-741.973 833.506,-741.973 827.506,-741.973 821.506,-735.973 821.506,-729.973 821.506,-729.973 821.506,-717.973 821.506,-717.973 821.506,-711.973 827.506,-705.973 833.506,-705.973 833.506,-705.973 1346.28,-705.973 1346.28,-705.973 1352.28,-705.973 1358.28,-711.973 1358.28,-717.973 1358.28,-717.973 1358.28,-729.973 1358.28,-729.973 1358.28,-735.973 1352.28,-741.973 1346.28,-741.973"/>
<text text-anchor="middle" x="1089.89" y="-726.773" font-family="Courier,monospace" font-size="14.00" fill="#131c39">GW150914_H1_spectrogram.png</text>
<text text-anchor="middle" x="1089.89" y="-712.773" font-family="Courier,monospace" font-size="14.00" fill="#131c39">/home/ducvu/Documents/LIGO_DATAONE/GW150914_H1_spectrogram.png</text>
</g>
<!-- run0&#45;&gt;/home/ducvu/Documents/LIGO_DATAONE/GW150914_H1_spectrogram.png -->
<g id="edge12" class="edge">
<title>run0&#45;&gt;/home/ducvu/Documents/LIGO_DATAONE/GW150914_H1_spectrogram.png</title>
<path fill="none" stroke="#000088" d="M692.667,-526.091C700.149,-564.927 723.553,-655.982 783.643,-696.973 792.673,-703.134 802.218,-708.481 812.139,-713.106"/>
<polygon fill="#000088" stroke="#000088" points="810.788,-716.335 821.351,-717.153 813.603,-709.926 810.788,-716.335"/>
</g>
<!-- /home/ducvu/Documents/LIGO_DATAONE/GW150914_H1_spectrogram_whitened.png -->
<g id="node11" class="node">
<title>/home/ducvu/Documents/LIGO_DATAONE/GW150914_H1_spectrogram_whitened.png</title>
<path fill="#a3b4e0" stroke="black" d="M1384.39,-687.973C1384.39,-687.973 795.394,-687.973 795.394,-687.973 789.394,-687.973 783.394,-681.973 783.394,-675.973 783.394,-675.973 783.394,-663.973 783.394,-663.973 783.394,-657.973 789.394,-651.973 795.394,-651.973 795.394,-651.973 1384.39,-651.973 1384.39,-651.973 1390.39,-651.973 1396.39,-657.973 1396.39,-663.973 1396.39,-663.973 1396.39,-675.973 1396.39,-675.973 1396.39,-681.973 1390.39,-687.973 1384.39,-687.973"/>
<text text-anchor="middle" x="1089.89" y="-672.773" font-family="Courier,monospace" font-size="14.00" fill="#131c39">GW150914_H1_spectrogram_whitened.png</text>
<text text-anchor="middle" x="1089.89" y="-658.773" font-family="Courier,monospace" font-size="14.00" fill="#131c39">/home/ducvu/Documents/LIGO_DATAONE/GW150914_H1_spectrogram_whitened.png</text>
</g>
<!-- run0&#45;&gt;/home/ducvu/Documents/LIGO_DATAONE/GW150914_H1_spectrogram_whitened.png -->
<g id="edge14" class="edge">
<title>run0&#45;&gt;/home/ducvu/Documents/LIGO_DATAONE/GW150914_H1_spectrogram_whitened.png</title>
<path fill="none" stroke="#000088" d="M696.4,-526.272C708.594,-556.503 737.442,-616.194 783.643,-642.973 786.24,-644.479 788.871,-645.932 791.533,-647.332"/>
<polygon fill="#000088" stroke="#000088" points="790.189,-650.573 800.7,-651.9 793.31,-644.307 790.189,-650.573"/>
</g>
<!-- /home/ducvu/Documents/LIGO_DATAONE/GW150914_H1_strain_filtered.png -->
<g id="node12" class="node">
<title>/home/ducvu/Documents/LIGO_DATAONE/GW150914_H1_strain_filtered.png</title>
<path fill="#a3b4e0" stroke="black" d="M1363.38,-633.973C1363.38,-633.973 816.401,-633.973 816.401,-633.973 810.401,-633.973 804.401,-627.973 804.401,-621.973 804.401,-621.973 804.401,-609.973 804.401,-609.973 804.401,-603.973 810.401,-597.973 816.401,-597.973 816.401,-597.973 1363.38,-597.973 1363.38,-597.973 1369.38,-597.973 1375.38,-603.973 1375.38,-609.973 1375.38,-609.973 1375.38,-621.973 1375.38,-621.973 1375.38,-627.973 1369.38,-633.973 1363.38,-633.973"/>
<text text-anchor="middle" x="1089.89" y="-618.773" font-family="Courier,monospace" font-size="14.00" fill="#131c39">GW150914_H1_strain_filtered.png</text>
<text text-anchor="middle" x="1089.89" y="-604.773" font-family="Courier,monospace" font-size="14.00" fill="#131c39">/home/ducvu/Documents/LIGO_DATAONE/GW150914_H1_strain_filtered.png</text>
</g>
<!-- run0&#45;&gt;/home/ducvu/Documents/LIGO_DATAONE/GW150914_H1_strain_filtered.png -->
<g id="edge18" class="edge">
<title>run0&#45;&gt;/home/ducvu/Documents/LIGO_DATAONE/GW150914_H1_strain_filtered.png</title>
<path fill="none" stroke="#000088" d="M704.439,-526.16C721.329,-545.493 750.904,-575.145 783.643,-588.973 788.241,-590.916 792.911,-592.752 797.643,-594.487"/>
<polygon fill="#000088" stroke="#000088" points="796.844,-597.916 807.439,-597.91 799.153,-591.307 796.844,-597.916"/>
</g>
<!-- /home/ducvu/Documents/LIGO_DATAONE/GW150914_H1_strain_unfiltered.png -->
<g id="node13" class="node">
<title>/home/ducvu/Documents/LIGO_DATAONE/GW150914_H1_strain_unfiltered.png</title>
<path fill="#a3b4e0" stroke="black" d="M1371.68,-579.973C1371.68,-579.973 808.098,-579.973 808.098,-579.973 802.098,-579.973 796.098,-573.973 796.098,-567.973 796.098,-567.973 796.098,-555.973 796.098,-555.973 796.098,-549.973 802.098,-543.973 808.098,-543.973 808.098,-543.973 1371.68,-543.973 1371.68,-543.973 1377.68,-543.973 1383.68,-549.973 1383.68,-555.973 1383.68,-555.973 1383.68,-567.973 1383.68,-567.973 1383.68,-573.973 1377.68,-579.973 1371.68,-579.973"/>
<text text-anchor="middle" x="1089.89" y="-564.773" font-family="Courier,monospace" font-size="14.00" fill="#131c39">GW150914_H1_strain_unfiltered.png</text>
<text text-anchor="middle" x="1089.89" y="-550.773" font-family="Courier,monospace" font-size="14.00" fill="#131c39">/home/ducvu/Documents/LIGO_DATAONE/GW150914_H1_strain_unfiltered.png</text>
</g>
<!-- run0&#45;&gt;/home/ducvu/Documents/LIGO_DATAONE/GW150914_H1_strain_unfiltered.png -->
<g id="edge17" class="edge">
<title>run0&#45;&gt;/home/ducvu/Documents/LIGO_DATAONE/GW150914_H1_strain_unfiltered.png</title>
<path fill="none" stroke="#000088" d="M745.9,-526.027C758.231,-529.452 771.293,-532.677 783.643,-534.973 798.601,-537.755 814.025,-540.252 829.626,-542.493"/>
<polygon fill="#000088" stroke="#000088" points="829.513,-546.011 839.901,-543.929 830.482,-539.079 829.513,-546.011"/>
</g>
<!-- /home/ducvu/Documents/LIGO_DATAONE/GW150914_H1_whitenbp.wav -->
<g id="node14" class="node">
<title>/home/ducvu/Documents/LIGO_DATAONE/GW150914_H1_whitenbp.wav</title>
<path fill="#a3b4e0" stroke="black" d="M1333.57,-525.973C1333.57,-525.973 846.21,-525.973 846.21,-525.973 840.21,-525.973 834.21,-519.973 834.21,-513.973 834.21,-513.973 834.21,-501.973 834.21,-501.973 834.21,-495.973 840.21,-489.973 846.21,-489.973 846.21,-489.973 1333.57,-489.973 1333.57,-489.973 1339.57,-489.973 1345.57,-495.973 1345.57,-501.973 1345.57,-501.973 1345.57,-513.973 1345.57,-513.973 1345.57,-519.973 1339.57,-525.973 1333.57,-525.973"/>
<text text-anchor="middle" x="1089.89" y="-510.773" font-family="Courier,monospace" font-size="14.00" fill="#131c39">GW150914_H1_whitenbp.wav</text>
<text text-anchor="middle" x="1089.89" y="-496.773" font-family="Courier,monospace" font-size="14.00" fill="#131c39">/home/ducvu/Documents/LIGO_DATAONE/GW150914_H1_whitenbp.wav</text>
</g>
<!-- run0&#45;&gt;/home/ducvu/Documents/LIGO_DATAONE/GW150914_H1_whitenbp.wav -->
<g id="edge19" class="edge">
<title>run0&#45;&gt;/home/ducvu/Documents/LIGO_DATAONE/GW150914_H1_whitenbp.wav</title>
<path fill="none" stroke="#000088" d="M747.864,-507.973C769.488,-507.973 795.666,-507.973 823.804,-507.973"/>
<polygon fill="#000088" stroke="#000088" points="823.834,-511.474 833.834,-507.973 823.834,-504.474 823.834,-511.474"/>
</g>
<!-- /home/ducvu/Documents/LIGO_DATAONE/GW150914_L1_shifted.wav -->
<g id="node15" class="node">
<title>/home/ducvu/Documents/LIGO_DATAONE/GW150914_L1_shifted.wav</title>
<path fill="#a3b4e0" stroke="black" d="M1329.67,-471.973C1329.67,-471.973 850.112,-471.973 850.112,-471.973 844.112,-471.973 838.112,-465.973 838.112,-459.973 838.112,-459.973 838.112,-447.973 838.112,-447.973 838.112,-441.973 844.112,-435.973 850.112,-435.973 850.112,-435.973 1329.67,-435.973 1329.67,-435.973 1335.67,-435.973 1341.67,-441.973 1341.67,-447.973 1341.67,-447.973 1341.67,-459.973 1341.67,-459.973 1341.67,-465.973 1335.67,-471.973 1329.67,-471.973"/>
<text text-anchor="middle" x="1089.89" y="-456.773" font-family="Courier,monospace" font-size="14.00" fill="#131c39">GW150914_L1_shifted.wav</text>
<text text-anchor="middle" x="1089.89" y="-442.773" font-family="Courier,monospace" font-size="14.00" fill="#131c39">/home/ducvu/Documents/LIGO_DATAONE/GW150914_L1_shifted.wav</text>
</g>
<!-- run0&#45;&gt;/home/ducvu/Documents/LIGO_DATAONE/GW150914_L1_shifted.wav -->
<g id="edge23" class="edge">
<title>run0&#45;&gt;/home/ducvu/Documents/LIGO_DATAONE/GW150914_L1_shifted.wav</title>
<path fill="none" stroke="#000088" d="M745.9,-489.92C758.231,-486.495 771.293,-483.27 783.643,-480.973 798.601,-478.192 814.025,-475.695 829.626,-473.454"/>
<polygon fill="#000088" stroke="#000088" points="830.482,-476.868 839.901,-472.018 829.513,-469.936 830.482,-476.868"/>
</g>
<!-- /home/ducvu/Documents/LIGO_DATAONE/GW150914_L1_spectrogram.png -->
<g id="node16" class="node">
<title>/home/ducvu/Documents/LIGO_DATAONE/GW150914_L1_spectrogram.png</title>
<path fill="#a3b4e0" stroke="black" d="M1346.28,-417.973C1346.28,-417.973 833.506,-417.973 833.506,-417.973 827.506,-417.973 821.506,-411.973 821.506,-405.973 821.506,-405.973 821.506,-393.973 821.506,-393.973 821.506,-387.973 827.506,-381.973 833.506,-381.973 833.506,-381.973 1346.28,-381.973 1346.28,-381.973 1352.28,-381.973 1358.28,-387.973 1358.28,-393.973 1358.28,-393.973 1358.28,-405.973 1358.28,-405.973 1358.28,-411.973 1352.28,-417.973 1346.28,-417.973"/>
<text text-anchor="middle" x="1089.89" y="-402.773" font-family="Courier,monospace" font-size="14.00" fill="#131c39">GW150914_L1_spectrogram.png</text>
<text text-anchor="middle" x="1089.89" y="-388.773" font-family="Courier,monospace" font-size="14.00" fill="#131c39">/home/ducvu/Documents/LIGO_DATAONE/GW150914_L1_spectrogram.png</text>
</g>
<!-- run0&#45;&gt;/home/ducvu/Documents/LIGO_DATAONE/GW150914_L1_spectrogram.png -->
<g id="edge13" class="edge">
<title>run0&#45;&gt;/home/ducvu/Documents/LIGO_DATAONE/GW150914_L1_spectrogram.png</title>
<path fill="none" stroke="#000088" d="M704.439,-489.787C721.329,-470.454 750.904,-440.802 783.643,-426.973 792.769,-423.118 802.183,-419.68 811.793,-416.619"/>
<polygon fill="#000088" stroke="#000088" points="812.914,-419.937 821.466,-413.682 810.881,-413.239 812.914,-419.937"/>
</g>
<!-- /home/ducvu/Documents/LIGO_DATAONE/GW150914_L1_spectrogram_whitened.png -->
<g id="node17" class="node">
<title>/home/ducvu/Documents/LIGO_DATAONE/GW150914_L1_spectrogram_whitened.png</title>
<path fill="#a3b4e0" stroke="black" d="M1384.39,-363.973C1384.39,-363.973 795.394,-363.973 795.394,-363.973 789.394,-363.973 783.394,-357.973 783.394,-351.973 783.394,-351.973 783.394,-339.973 783.394,-339.973 783.394,-333.973 789.394,-327.973 795.394,-327.973 795.394,-327.973 1384.39,-327.973 1384.39,-327.973 1390.39,-327.973 1396.39,-333.973 1396.39,-339.973 1396.39,-339.973 1396.39,-351.973 1396.39,-351.973 1396.39,-357.973 1390.39,-363.973 1384.39,-363.973"/>
<text text-anchor="middle" x="1089.89" y="-348.773" font-family="Courier,monospace" font-size="14.00" fill="#131c39">GW150914_L1_spectrogram_whitened.png</text>
<text text-anchor="middle" x="1089.89" y="-334.773" font-family="Courier,monospace" font-size="14.00" fill="#131c39">/home/ducvu/Documents/LIGO_DATAONE/GW150914_L1_spectrogram_whitened.png</text>
</g>
<!-- run0&#45;&gt;/home/ducvu/Documents/LIGO_DATAONE/GW150914_L1_spectrogram_whitened.png -->
<g id="edge15" class="edge">
<title>run0&#45;&gt;/home/ducvu/Documents/LIGO_DATAONE/GW150914_L1_spectrogram_whitened.png</title>
<path fill="none" stroke="#000088" d="M696.4,-489.675C708.594,-459.443 737.442,-399.753 783.643,-372.973 786.24,-371.468 788.871,-370.015 791.533,-368.614"/>
<polygon fill="#000088" stroke="#000088" points="793.31,-371.639 800.7,-364.047 790.189,-365.374 793.31,-371.639"/>
</g>
<!-- /home/ducvu/Documents/LIGO_DATAONE/GW150914_L1_whitenbp.wav -->
<g id="node18" class="node">
<title>/home/ducvu/Documents/LIGO_DATAONE/GW150914_L1_whitenbp.wav</title>
<path fill="#a3b4e0" stroke="black" d="M1333.57,-309.973C1333.57,-309.973 846.21,-309.973 846.21,-309.973 840.21,-309.973 834.21,-303.973 834.21,-297.973 834.21,-297.973 834.21,-285.973 834.21,-285.973 834.21,-279.973 840.21,-273.973 846.21,-273.973 846.21,-273.973 1333.57,-273.973 1333.57,-273.973 1339.57,-273.973 1345.57,-279.973 1345.57,-285.973 1345.57,-285.973 1345.57,-297.973 1345.57,-297.973 1345.57,-303.973 1339.57,-309.973 1333.57,-309.973"/>
<text text-anchor="middle" x="1089.89" y="-294.773" font-family="Courier,monospace" font-size="14.00" fill="#131c39">GW150914_L1_whitenbp.wav</text>
<text text-anchor="middle" x="1089.89" y="-280.773" font-family="Courier,monospace" font-size="14.00" fill="#131c39">/home/ducvu/Documents/LIGO_DATAONE/GW150914_L1_whitenbp.wav</text>
</g>
<!-- run0&#45;&gt;/home/ducvu/Documents/LIGO_DATAONE/GW150914_L1_whitenbp.wav -->
<g id="edge20" class="edge">
<title>run0&#45;&gt;/home/ducvu/Documents/LIGO_DATAONE/GW150914_L1_whitenbp.wav</title>
<path fill="none" stroke="#000088" d="M692.667,-489.856C700.149,-451.02 723.553,-359.965 783.643,-318.973 796.392,-310.276 810.169,-303.199 824.578,-297.487"/>
<polygon fill="#000088" stroke="#000088" points="825.985,-300.698 834.134,-293.927 823.541,-294.138 825.985,-300.698"/>
</g>
<!-- /home/ducvu/Documents/LIGO_DATAONE/GW150914_NR_shifted.wav -->
<g id="node19" class="node">
<title>/home/ducvu/Documents/LIGO_DATAONE/GW150914_NR_shifted.wav</title>
<path fill="#a3b4e0" stroke="black" d="M1329.67,-255.973C1329.67,-255.973 850.112,-255.973 850.112,-255.973 844.112,-255.973 838.112,-249.973 838.112,-243.973 838.112,-243.973 838.112,-231.973 838.112,-231.973 838.112,-225.973 844.112,-219.973 850.112,-219.973 850.112,-219.973 1329.67,-219.973 1329.67,-219.973 1335.67,-219.973 1341.67,-225.973 1341.67,-231.973 1341.67,-231.973 1341.67,-243.973 1341.67,-243.973 1341.67,-249.973 1335.67,-255.973 1329.67,-255.973"/>
<text text-anchor="middle" x="1089.89" y="-240.773" font-family="Courier,monospace" font-size="14.00" fill="#131c39">GW150914_NR_shifted.wav</text>
<text text-anchor="middle" x="1089.89" y="-226.773" font-family="Courier,monospace" font-size="14.00" fill="#131c39">/home/ducvu/Documents/LIGO_DATAONE/GW150914_NR_shifted.wav</text>
</g>
<!-- run0&#45;&gt;/home/ducvu/Documents/LIGO_DATAONE/GW150914_NR_shifted.wav -->
<g id="edge24" class="edge">
<title>run0&#45;&gt;/home/ducvu/Documents/LIGO_DATAONE/GW150914_NR_shifted.wav</title>
<path fill="none" stroke="#000088" d="M690.524,-489.859C693.779,-443.602 709.357,-320.846 783.643,-264.973 797.371,-254.648 812.487,-246.492 828.426,-240.123"/>
<polygon fill="#000088" stroke="#000088" points="829.763,-243.36 837.902,-236.577 827.309,-236.804 829.763,-243.36"/>
</g>
<!-- /home/ducvu/Documents/LIGO_DATAONE/GW150914_NR_whitenbp.wav -->
<g id="node20" class="node">
<title>/home/ducvu/Documents/LIGO_DATAONE/GW150914_NR_whitenbp.wav</title>
<path fill="#a3b4e0" stroke="black" d="M1333.57,-201.973C1333.57,-201.973 846.21,-201.973 846.21,-201.973 840.21,-201.973 834.21,-195.973 834.21,-189.973 834.21,-189.973 834.21,-177.973 834.21,-177.973 834.21,-171.973 840.21,-165.973 846.21,-165.973 846.21,-165.973 1333.57,-165.973 1333.57,-165.973 1339.57,-165.973 1345.57,-171.973 1345.57,-177.973 1345.57,-177.973 1345.57,-189.973 1345.57,-189.973 1345.57,-195.973 1339.57,-201.973 1333.57,-201.973"/>
<text text-anchor="middle" x="1089.89" y="-186.773" font-family="Courier,monospace" font-size="14.00" fill="#131c39">GW150914_NR_whitenbp.wav</text>
<text text-anchor="middle" x="1089.89" y="-172.773" font-family="Courier,monospace" font-size="14.00" fill="#131c39">/home/ducvu/Documents/LIGO_DATAONE/GW150914_NR_whitenbp.wav</text>
</g>
<!-- run0&#45;&gt;/home/ducvu/Documents/LIGO_DATAONE/GW150914_NR_whitenbp.wav -->
<g id="edge21" class="edge">
<title>run0&#45;&gt;/home/ducvu/Documents/LIGO_DATAONE/GW150914_NR_whitenbp.wav</title>
<path fill="none" stroke="#000088" d="M692.71,-489.951C702.999,-431.254 738.401,-247.271 783.643,-210.973 836.29,-168.734 911.654,-161.638 974.445,-165.271"/>
<polygon fill="#000088" stroke="#000088" points="974.595,-168.789 984.808,-165.973 975.068,-161.805 974.595,-168.789"/>
</g>
<!-- /home/ducvu/Documents/LIGO_DATAONE/GW150914_filter.png -->
<g id="node21" class="node">
<title>/home/ducvu/Documents/LIGO_DATAONE/GW150914_filter.png</title>
<path fill="#a3b4e0" stroke="black" d="M1312.57,-147.973C1312.57,-147.973 867.217,-147.973 867.217,-147.973 861.217,-147.973 855.217,-141.973 855.217,-135.973 855.217,-135.973 855.217,-123.973 855.217,-123.973 855.217,-117.973 861.217,-111.973 867.217,-111.973 867.217,-111.973 1312.57,-111.973 1312.57,-111.973 1318.57,-111.973 1324.57,-117.973 1324.57,-123.973 1324.57,-123.973 1324.57,-135.973 1324.57,-135.973 1324.57,-141.973 1318.57,-147.973 1312.57,-147.973"/>
<text text-anchor="middle" x="1089.89" y="-132.773" font-family="Courier,monospace" font-size="14.00" fill="#131c39">GW150914_filter.png</text>
<text text-anchor="middle" x="1089.89" y="-118.773" font-family="Courier,monospace" font-size="14.00" fill="#131c39">/home/ducvu/Documents/LIGO_DATAONE/GW150914_filter.png</text>
</g>
<!-- run0&#45;&gt;/home/ducvu/Documents/LIGO_DATAONE/GW150914_filter.png -->
<g id="edge16" class="edge">
<title>run0&#45;&gt;/home/ducvu/Documents/LIGO_DATAONE/GW150914_filter.png</title>
<path fill="none" stroke="#000088" d="M691.841,-489.539C700.007,-423.609 731.108,-201.094 783.643,-156.973 837.861,-111.439 918.12,-105.844 982.874,-111.024"/>
<polygon fill="#000088" stroke="#000088" points="982.855,-114.537 993.127,-111.944 983.48,-107.565 982.855,-114.537"/>
</g>
<!-- /home/ducvu/Documents/LIGO_DATAONE/GW150914_strain.png -->
<g id="node22" class="node">
<title>/home/ducvu/Documents/LIGO_DATAONE/GW150914_strain.png</title>
<path fill="#a3b4e0" stroke="black" d="M1312.57,-93.9734C1312.57,-93.9734 867.217,-93.9734 867.217,-93.9734 861.217,-93.9734 855.217,-87.9734 855.217,-81.9734 855.217,-81.9734 855.217,-69.9734 855.217,-69.9734 855.217,-63.9734 861.217,-57.9734 867.217,-57.9734 867.217,-57.9734 1312.57,-57.9734 1312.57,-57.9734 1318.57,-57.9734 1324.57,-63.9734 1324.57,-69.9734 1324.57,-69.9734 1324.57,-81.9734 1324.57,-81.9734 1324.57,-87.9734 1318.57,-93.9734 1312.57,-93.9734"/>
<text text-anchor="middle" x="1089.89" y="-78.7734" font-family="Courier,monospace" font-size="14.00" fill="#131c39">GW150914_strain.png</text>
<text text-anchor="middle" x="1089.89" y="-64.7734" font-family="Courier,monospace" font-size="14.00" fill="#131c39">/home/ducvu/Documents/LIGO_DATAONE/GW150914_strain.png</text>
</g>
<!-- run0&#45;&gt;/home/ducvu/Documents/LIGO_DATAONE/GW150914_strain.png -->
<g id="edge9" class="edge">
<title>run0&#45;&gt;/home/ducvu/Documents/LIGO_DATAONE/GW150914_strain.png</title>
<path fill="none" stroke="#000088" d="M691.123,-489.78C697.264,-417.913 723.572,-155.169 783.643,-102.973 838.731,-55.1068 922.337,-50.6695 988.282,-56.9248"/>
<polygon fill="#000088" stroke="#000088" points="987.983,-60.4125 998.292,-57.9682 988.709,-53.4502 987.983,-60.4125"/>
</g>
<!-- /home/ducvu/Documents/LIGO_DATAONE/GW150914_strain_whitened.png -->
<g id="node23" class="node">
<title>/home/ducvu/Documents/LIGO_DATAONE/GW150914_strain_whitened.png</title>
<path fill="#a3b4e0" stroke="black" d="M1350.68,-39.9734C1350.68,-39.9734 829.105,-39.9734 829.105,-39.9734 823.105,-39.9734 817.105,-33.9734 817.105,-27.9734 817.105,-27.9734 817.105,-15.9734 817.105,-15.9734 817.105,-9.97344 823.105,-3.97344 829.105,-3.97344 829.105,-3.97344 1350.68,-3.97344 1350.68,-3.97344 1356.68,-3.97344 1362.68,-9.97344 1362.68,-15.9734 1362.68,-15.9734 1362.68,-27.9734 1362.68,-27.9734 1362.68,-33.9734 1356.68,-39.9734 1350.68,-39.9734"/>
<text text-anchor="middle" x="1089.89" y="-24.7734" font-family="Courier,monospace" font-size="14.00" fill="#131c39">GW150914_strain_whitened.png</text>
<text text-anchor="middle" x="1089.89" y="-10.7734" font-family="Courier,monospace" font-size="14.00" fill="#131c39">/home/ducvu/Documents/LIGO_DATAONE/GW150914_strain_whitened.png</text>
</g>
<!-- run0&#45;&gt;/home/ducvu/Documents/LIGO_DATAONE/GW150914_strain_whitened.png -->
<g id="edge11" class="edge">
<title>run0&#45;&gt;/home/ducvu/Documents/LIGO_DATAONE/GW150914_strain_whitened.png</title>
<path fill="none" stroke="#000088" d="M690.591,-489.807C694.933,-412.149 716.038,-109.279 783.643,-48.9734 839.05,0.45168 924.67,4.13465 991.306,-2.80662"/>
<polygon fill="#000088" stroke="#000088" points="991.081,-6.30342 1001.41,-3.95484 991.871,0.651829 991.081,-6.30342"/>
</g>
<!-- /home/ducvu/.Xauthority -->
<g id="node2" class="node">
<title>/home/ducvu/.Xauthority</title>
<path fill="#a3b4e0" stroke="black" d="M390.579,-741.973C390.579,-741.973 205.116,-741.973 205.116,-741.973 199.116,-741.973 193.116,-735.973 193.116,-729.973 193.116,-729.973 193.116,-717.973 193.116,-717.973 193.116,-711.973 199.116,-705.973 205.116,-705.973 205.116,-705.973 390.579,-705.973 390.579,-705.973 396.579,-705.973 402.579,-711.973 402.579,-717.973 402.579,-717.973 402.579,-729.973 402.579,-729.973 402.579,-735.973 396.579,-741.973 390.579,-741.973"/>
<text text-anchor="middle" x="297.847" y="-726.773" font-family="Courier,monospace" font-size="14.00" fill="#131c39">.Xauthority</text>
<text text-anchor="middle" x="297.847" y="-712.773" font-family="Courier,monospace" font-size="14.00" fill="#131c39">/home/ducvu/.Xauthority</text>
</g>
<!-- /home/ducvu/.Xauthority&#45;&gt;run0 -->
<g id="edge8" class="edge">
<title>/home/ducvu/.Xauthority&#45;&gt;run0</title>
<path fill="none" stroke="#8888cc" d="M402.792,-738.483C464.045,-741.447 539.982,-735.08 595.694,-696.973 651.043,-659.116 675.281,-578.81 684.603,-536.084"/>
<polygon fill="#8888cc" stroke="#8888cc" points="688.075,-536.58 686.662,-526.08 681.218,-535.169 688.075,-536.58"/>
</g>
<!-- /home/ducvu/.cache/matplotlib/fontList.cache -->
<g id="node3" class="node">
<title>/home/ducvu/.cache/matplotlib/fontList.cache</title>
<path fill="#a3b4e0" stroke="black" d="M478.507,-687.973C478.507,-687.973 117.187,-687.973 117.187,-687.973 111.187,-687.973 105.187,-681.973 105.187,-675.973 105.187,-675.973 105.187,-663.973 105.187,-663.973 105.187,-657.973 111.187,-651.973 117.187,-651.973 117.187,-651.973 478.507,-651.973 478.507,-651.973 484.507,-651.973 490.507,-657.973 490.507,-663.973 490.507,-663.973 490.507,-675.973 490.507,-675.973 490.507,-681.973 484.507,-687.973 478.507,-687.973"/>
<text text-anchor="middle" x="297.847" y="-672.773" font-family="Courier,monospace" font-size="14.00" fill="#131c39">fontList.cache</text>
<text text-anchor="middle" x="297.847" y="-658.773" font-family="Courier,monospace" font-size="14.00" fill="#131c39">/home/ducvu/.cache/matplotlib/fontList.cache</text>
</g>
<!-- /home/ducvu/.cache/matplotlib/fontList.cache&#45;&gt;run0 -->
<g id="edge2" class="edge">
<title>/home/ducvu/.cache/matplotlib/fontList.cache&#45;&gt;run0</title>
<path fill="none" stroke="#8888cc" d="M490.521,-676.965C527.243,-671.681 564.048,-661.369 595.694,-642.973 637.534,-618.653 665.161,-567.371 679.057,-535.482"/>
<polygon fill="#8888cc" stroke="#8888cc" points="682.285,-536.835 682.93,-526.26 675.831,-534.125 682.285,-536.835"/>
</g>
<!-- /home/ducvu/Documents/LIGO_DATAONE/GW150914_4_NR_waveform.txt -->
<g id="node4" class="node">
<title>/home/ducvu/Documents/LIGO_DATAONE/GW150914_4_NR_waveform.txt</title>
<path fill="#a3b4e0" stroke="black" d="M550.331,-633.973C550.331,-633.973 45.3635,-633.973 45.3635,-633.973 39.3635,-633.973 33.3635,-627.973 33.3635,-621.973 33.3635,-621.973 33.3635,-609.973 33.3635,-609.973 33.3635,-603.973 39.3635,-597.973 45.3635,-597.973 45.3635,-597.973 550.331,-597.973 550.331,-597.973 556.331,-597.973 562.331,-603.973 562.331,-609.973 562.331,-609.973 562.331,-621.973 562.331,-621.973 562.331,-627.973 556.331,-633.973 550.331,-633.973"/>
<text text-anchor="middle" x="297.847" y="-618.773" font-family="Courier,monospace" font-size="14.00" fill="#131c39">GW150914_4_NR_waveform.txt</text>
<text text-anchor="middle" x="297.847" y="-604.773" font-family="Courier,monospace" font-size="14.00" fill="#131c39">/home/ducvu/Documents/LIGO_DATAONE/GW150914_4_NR_waveform.txt</text>
</g>
<!-- /home/ducvu/Documents/LIGO_DATAONE/GW150914_4_NR_waveform.txt&#45;&gt;run0 -->
<g id="edge7" class="edge">
<title>/home/ducvu/Documents/LIGO_DATAONE/GW150914_4_NR_waveform.txt&#45;&gt;run0</title>
<path fill="none" stroke="#8888cc" d="M562.351,-600.941C573.772,-597.499 584.938,-593.532 595.694,-588.973 624.326,-576.838 650.552,-552.628 667.98,-533.822"/>
<polygon fill="#8888cc" stroke="#8888cc" points="670.802,-535.918 674.891,-526.145 665.599,-531.235 670.802,-535.918"/>
</g>
<!-- /home/ducvu/Documents/LIGO_DATAONE/GW150914_tutorial.py -->
<g id="node24" class="node">
<title>/home/ducvu/Documents/LIGO_DATAONE/GW150914_tutorial.py</title>
<path fill="#a3b4e0" stroke="black" d="M524.922,-579.973C524.922,-579.973 70.772,-579.973 70.772,-579.973 64.772,-579.973 58.772,-573.973 58.772,-567.973 58.772,-567.973 58.772,-555.973 58.772,-555.973 58.772,-549.973 64.772,-543.973 70.772,-543.973 70.772,-543.973 524.922,-543.973 524.922,-543.973 530.922,-543.973 536.922,-549.973 536.922,-555.973 536.922,-555.973 536.922,-567.973 536.922,-567.973 536.922,-573.973 530.922,-579.973 524.922,-579.973"/>
<text text-anchor="middle" x="297.847" y="-564.773" font-family="Courier,monospace" font-size="14.00" fill="#131c39">arg</text>
<text text-anchor="middle" x="297.847" y="-550.773" font-family="Courier,monospace" font-size="14.00" fill="#131c39">/home/ducvu/Documents/LIGO_DATAONE/GW150914_tutorial.py</text>
</g>
<!-- /home/ducvu/Documents/LIGO_DATAONE/GW150914_tutorial.py&#45;&gt;run0 -->
<g id="edge1" class="edge">
<title>/home/ducvu/Documents/LIGO_DATAONE/GW150914_tutorial.py&#45;&gt;run0</title>
<path fill="none" stroke="#8888cc" d="M536.969,-544.319C556.9,-541.628 576.684,-538.533 595.694,-534.973 604.858,-533.258 614.415,-531.035 623.775,-528.603"/>
<polygon fill="#8888cc" stroke="#8888cc" points="624.686,-531.982 633.433,-526.004 622.867,-525.223 624.686,-531.982"/>
</g>
<!-- /home/ducvu/Documents/LIGO_DATAONE/H&#45;H1_LOSC_16_V1&#45;1126259446&#45;32.hdf5 -->
<g id="node25" class="node">
<title>/home/ducvu/Documents/LIGO_DATAONE/H&#45;H1_LOSC_16_V1&#45;1126259446&#45;32.hdf5</title>
<path fill="#a3b4e0" stroke="black" d="M583.542,-525.973C583.542,-525.973 12.1528,-525.973 12.1528,-525.973 6.15275,-525.973 0.152754,-519.973 0.152754,-513.973 0.152754,-513.973 0.152754,-501.973 0.152754,-501.973 0.152754,-495.973 6.15275,-489.973 12.1528,-489.973 12.1528,-489.973 583.542,-489.973 583.542,-489.973 589.542,-489.973 595.542,-495.973 595.542,-501.973 595.542,-501.973 595.542,-513.973 595.542,-513.973 595.542,-519.973 589.542,-525.973 583.542,-525.973"/>
<text text-anchor="middle" x="297.847" y="-510.773" font-family="Courier,monospace" font-size="14.00" fill="#131c39">H&#45;H1_LOSC_16_V1&#45;1126259446&#45;32.hdf5</text>
<text text-anchor="middle" x="297.847" y="-496.773" font-family="Courier,monospace" font-size="14.00" fill="#131c39">/home/ducvu/Documents/LIGO_DATAONE/H&#45;H1_LOSC_16_V1&#45;1126259446&#45;32.hdf5</text>
</g>
<!-- /home/ducvu/Documents/LIGO_DATAONE/H&#45;H1_LOSC_16_V1&#45;1126259446&#45;32.hdf5&#45;&gt;run0 -->
<g id="edge25" class="edge">
<title>/home/ducvu/Documents/LIGO_DATAONE/H&#45;H1_LOSC_16_V1&#45;1126259446&#45;32.hdf5&#45;&gt;run0</title>
<path fill="none" stroke="#8888cc" d="M595.817,-507.973C604.888,-507.973 613.554,-507.973 621.695,-507.973"/>
<polygon fill="#8888cc" stroke="#8888cc" points="621.719,-511.474 631.719,-507.973 621.719,-504.474 621.719,-511.474"/>
</g>
<!-- /home/ducvu/Documents/LIGO_DATAONE/H&#45;H1_LOSC_4_V1&#45;1126259446&#45;32.hdf5 -->
<g id="node26" class="node">
<title>/home/ducvu/Documents/LIGO_DATAONE/H&#45;H1_LOSC_4_V1&#45;1126259446&#45;32.hdf5</title>
<path fill="#a3b4e0" stroke="black" d="M579.64,-471.973C579.64,-471.973 16.0541,-471.973 16.0541,-471.973 10.0541,-471.973 4.05413,-465.973 4.05413,-459.973 4.05413,-459.973 4.05413,-447.973 4.05413,-447.973 4.05413,-441.973 10.0541,-435.973 16.0541,-435.973 16.0541,-435.973 579.64,-435.973 579.64,-435.973 585.64,-435.973 591.64,-441.973 591.64,-447.973 591.64,-447.973 591.64,-459.973 591.64,-459.973 591.64,-465.973 585.64,-471.973 579.64,-471.973"/>
<text text-anchor="middle" x="297.847" y="-456.773" font-family="Courier,monospace" font-size="14.00" fill="#131c39">H&#45;H1_LOSC_4_V1&#45;1126259446&#45;32.hdf5</text>
<text text-anchor="middle" x="297.847" y="-442.773" font-family="Courier,monospace" font-size="14.00" fill="#131c39">/home/ducvu/Documents/LIGO_DATAONE/H&#45;H1_LOSC_4_V1&#45;1126259446&#45;32.hdf5</text>
</g>
<!-- /home/ducvu/Documents/LIGO_DATAONE/H&#45;H1_LOSC_4_V1&#45;1126259446&#45;32.hdf5&#45;&gt;run0 -->
<g id="edge5" class="edge">
<title>/home/ducvu/Documents/LIGO_DATAONE/H&#45;H1_LOSC_4_V1&#45;1126259446&#45;32.hdf5&#45;&gt;run0</title>
<path fill="none" stroke="#8888cc" d="M539.777,-472.01C558.757,-474.611 577.577,-477.581 595.694,-480.973 604.858,-482.689 614.415,-484.911 623.775,-487.344"/>
<polygon fill="#8888cc" stroke="#8888cc" points="622.867,-490.724 633.433,-489.943 624.686,-483.964 622.867,-490.724"/>
</g>
<!-- /home/ducvu/Documents/LIGO_DATAONE/L&#45;L1_LOSC_4_V1&#45;1126259446&#45;32.hdf5 -->
<g id="node27" class="node">
<title>/home/ducvu/Documents/LIGO_DATAONE/L&#45;L1_LOSC_4_V1&#45;1126259446&#45;32.hdf5</title>
<path fill="#a3b4e0" stroke="black" d="M579.64,-417.973C579.64,-417.973 16.0541,-417.973 16.0541,-417.973 10.0541,-417.973 4.05413,-411.973 4.05413,-405.973 4.05413,-405.973 4.05413,-393.973 4.05413,-393.973 4.05413,-387.973 10.0541,-381.973 16.0541,-381.973 16.0541,-381.973 579.64,-381.973 579.64,-381.973 585.64,-381.973 591.64,-387.973 591.64,-393.973 591.64,-393.973 591.64,-405.973 591.64,-405.973 591.64,-411.973 585.64,-417.973 579.64,-417.973"/>
<text text-anchor="middle" x="297.847" y="-402.773" font-family="Courier,monospace" font-size="14.00" fill="#131c39">L&#45;L1_LOSC_4_V1&#45;1126259446&#45;32.hdf5</text>
<text text-anchor="middle" x="297.847" y="-388.773" font-family="Courier,monospace" font-size="14.00" fill="#131c39">/home/ducvu/Documents/LIGO_DATAONE/L&#45;L1_LOSC_4_V1&#45;1126259446&#45;32.hdf5</text>
</g>
<!-- /home/ducvu/Documents/LIGO_DATAONE/L&#45;L1_LOSC_4_V1&#45;1126259446&#45;32.hdf5&#45;&gt;run0 -->
<g id="edge6" class="edge">
<title>/home/ducvu/Documents/LIGO_DATAONE/L&#45;L1_LOSC_4_V1&#45;1126259446&#45;32.hdf5&#45;&gt;run0</title>
<path fill="none" stroke="#8888cc" d="M571.806,-417.997C579.944,-420.698 587.926,-423.681 595.694,-426.973 624.326,-439.109 650.552,-463.319 667.98,-482.125"/>
<polygon fill="#8888cc" stroke="#8888cc" points="665.599,-484.712 674.891,-489.802 670.802,-480.028 665.599,-484.712"/>
</g>
<!-- /home/ducvu/Documents/LIGO_DATAONE/readligo.py -->
<g id="node28" class="node">
<title>/home/ducvu/Documents/LIGO_DATAONE/readligo.py</title>
<path fill="#a3b4e0" stroke="black" d="M487.31,-363.973C487.31,-363.973 108.384,-363.973 108.384,-363.973 102.384,-363.973 96.384,-357.973 96.384,-351.973 96.384,-351.973 96.384,-339.973 96.384,-339.973 96.384,-333.973 102.384,-327.973 108.384,-327.973 108.384,-327.973 487.31,-327.973 487.31,-327.973 493.31,-327.973 499.31,-333.973 499.31,-339.973 499.31,-339.973 499.31,-351.973 499.31,-351.973 499.31,-357.973 493.31,-363.973 487.31,-363.973"/>
<text text-anchor="middle" x="297.847" y="-348.773" font-family="Courier,monospace" font-size="14.00" fill="#131c39">readligo.py</text>
<text text-anchor="middle" x="297.847" y="-334.773" font-family="Courier,monospace" font-size="14.00" fill="#131c39">/home/ducvu/Documents/LIGO_DATAONE/readligo.py</text>
</g>
<!-- /home/ducvu/Documents/LIGO_DATAONE/readligo.py&#45;&gt;run0 -->
<g id="edge3" class="edge">
<title>/home/ducvu/Documents/LIGO_DATAONE/readligo.py&#45;&gt;run0</title>
<path fill="none" stroke="#8888cc" d="M499.114,-340.312C532.954,-345.924 566.517,-356.013 595.694,-372.973 637.534,-397.294 665.161,-448.576 679.057,-480.464"/>
<polygon fill="#8888cc" stroke="#8888cc" points="675.831,-481.822 682.93,-489.687 682.285,-479.112 675.831,-481.822"/>
</g>
<!-- /home/ducvu/Documents/LIGO_DATAONE/readligo.pyc -->
<g id="node29" class="node">
<title>/home/ducvu/Documents/LIGO_DATAONE/readligo.pyc</title>
<path fill="#a3b4e0" stroke="black" d="M491.211,-309.973C491.211,-309.973 104.483,-309.973 104.483,-309.973 98.4829,-309.973 92.4829,-303.973 92.4829,-297.973 92.4829,-297.973 92.4829,-285.973 92.4829,-285.973 92.4829,-279.973 98.4829,-273.973 104.483,-273.973 104.483,-273.973 491.211,-273.973 491.211,-273.973 497.211,-273.973 503.211,-279.973 503.211,-285.973 503.211,-285.973 503.211,-297.973 503.211,-297.973 503.211,-303.973 497.211,-309.973 491.211,-309.973"/>
<text text-anchor="middle" x="297.847" y="-294.773" font-family="Courier,monospace" font-size="14.00" fill="#131c39">readligo.pyc</text>
<text text-anchor="middle" x="297.847" y="-280.773" font-family="Courier,monospace" font-size="14.00" fill="#131c39">/home/ducvu/Documents/LIGO_DATAONE/readligo.pyc</text>
</g>
<!-- /home/ducvu/Documents/LIGO_DATAONE/readligo.pyc&#45;&gt;run0 -->
<g id="edge4" class="edge">
<title>/home/ducvu/Documents/LIGO_DATAONE/readligo.pyc&#45;&gt;run0</title>
<path fill="none" stroke="#8888cc" d="M503.259,-283.168C536.19,-289.233 568.374,-300.287 595.694,-318.973 651.043,-356.831 675.281,-437.137 684.603,-479.863"/>
<polygon fill="#8888cc" stroke="#8888cc" points="681.218,-480.778 686.662,-489.867 688.075,-479.367 681.218,-480.778"/>
</g>
</g>
</svg>
