<?xml version="1.0" encoding="UTF-8" standalone="no"?>
<!DOCTYPE svg PUBLIC "-//W3C//DTD SVG 1.1//EN"
 "http://www.w3.org/Graphics/SVG/1.1/DTD/svg11.dtd">
<!-- Generated by graphviz version 2.38.0 (20140413.2041)
 -->
<!-- Title: Workflow Pages: 1 -->
<svg width="401pt" height="893pt"
 viewBox="0.00 0.00 401.00 893.20" xmlns="http://www.w3.org/2000/svg" xmlns:xlink="http://www.w3.org/1999/xlink">
<g id="graph0" class="graph" transform="scale(1 1) rotate(0) translate(4 889.2)">
<title>Workflow</title>
<polygon fill="white" stroke="none" points="-4,4 -4,-889.2 397,-889.2 397,4 -4,4"/>
<text text-anchor="middle" x="196.5" y="-865" font-family="Courier,monospace" font-size="18.00">Sentiment_NLTK</text>
<g id="clust1" class="cluster"><title>cluster_workflow_box_outer</title>
<polygon fill="none" stroke="black" stroke-width="2" points="8,-62 8,-793.6 385,-793.6 385,-62 8,-62"/>
</g>
<g id="clust2" class="cluster"><title>cluster_workflow_box_inner</title>
<polygon fill="none" stroke="white" stroke-width="2" points="16,-70 16,-785.6 377,-785.6 377,-70 16,-70"/>
</g>
<g id="clust3" class="cluster"><title>cluster_input_ports_group_outer</title>
<polygon fill="none" stroke="white" points="175,-801.6 175,-847.6 221,-847.6 221,-801.6 175,-801.6"/>
</g>
<g id="clust4" class="cluster"><title>cluster_input_ports_group_inner</title>
<polygon fill="none" stroke="white" points="183,-809.6 183,-839.6 213,-839.6 213,-809.6 183,-809.6"/>
</g>
<g id="clust5" class="cluster"><title>cluster_output_ports_group_outer</title>
<polygon fill="none" stroke="white" points="173,-8 173,-54 219,-54 219,-8 173,-8"/>
</g>
<g id="clust6" class="cluster"><title>cluster_output_ports_group_inner</title>
<polygon fill="none" stroke="white" points="181,-16 181,-46 211,-46 211,-16 181,-16"/>
</g>
<!-- AccessTweets -->
<g id="node1" class="node"><title>AccessTweets</title>
<polygon fill="#ccffcc" stroke="black" points="30.4266,-640.9 30.4266,-690.5 365.573,-690.5 365.573,-640.9 30.4266,-640.9"/>
<text text-anchor="middle" x="198" y="-673.9" font-family="Courier,monospace" font-size="14.00">AccessTweets</text>
<polyline fill="none" stroke="black" points="30.4266,-665.7 365.573,-665.7 "/>
<text text-anchor="middle" x="198" y="-649.1" font-family="Courier,monospace" font-size="14.00">To read the tweets from tweet.csv file</text>
</g>
<!-- TweetRead -->
<g id="node7" class="node"><title>TweetRead</title>
<path fill="#ffffcc" stroke="black" d="M229.57,-604.4C229.57,-604.4 166.43,-604.4 166.43,-604.4 160.43,-604.4 154.43,-598.4 154.43,-592.4 154.43,-592.4 154.43,-580.4 154.43,-580.4 154.43,-574.4 160.43,-568.4 166.43,-568.4 166.43,-568.4 229.57,-568.4 229.57,-568.4 235.57,-568.4 241.57,-574.4 241.57,-580.4 241.57,-580.4 241.57,-592.4 241.57,-592.4 241.57,-598.4 235.57,-604.4 229.57,-604.4"/>
<text text-anchor="middle" x="198" y="-582.2" font-family="Helvetica,sans-Serif" font-size="14.00">TweetRead</text>
</g>
<!-- AccessTweets&#45;&gt;TweetRead -->
<g id="edge1" class="edge"><title>AccessTweets&#45;&gt;TweetRead</title>
<path fill="none" stroke="black" d="M198,-640.666C198,-632.439 198,-623.176 198,-614.709"/>
<polygon fill="black" stroke="black" points="201.5,-614.549 198,-604.549 194.5,-614.549 201.5,-614.549"/>
</g>
<!-- CountSentiments -->
<g id="node2" class="node"><title>CountSentiments</title>
<polygon fill="#ccffcc" stroke="black" points="64.021,-482.3 64.021,-531.9 331.979,-531.9 331.979,-482.3 64.021,-482.3"/>
<text text-anchor="middle" x="198" y="-515.3" font-family="Courier,monospace" font-size="14.00">CountSentiments</text>
<polyline fill="none" stroke="black" points="64.021,-507.1 331.979,-507.1 "/>
<text text-anchor="middle" x="198" y="-490.5" font-family="Courier,monospace" font-size="14.00">Calculate sentiments with NLTK</text>
</g>
<!-- PositiveCount -->
<g id="node8" class="node"><title>PositiveCount</title>
<path fill="#ffffcc" stroke="black" d="M114.351,-445.8C114.351,-445.8 35.6488,-445.8 35.6488,-445.8 29.6488,-445.8 23.6488,-439.8 23.6488,-433.8 23.6488,-433.8 23.6488,-421.8 23.6488,-421.8 23.6488,-415.8 29.6488,-409.8 35.6488,-409.8 35.6488,-409.8 114.351,-409.8 114.351,-409.8 120.351,-409.8 126.351,-415.8 126.351,-421.8 126.351,-421.8 126.351,-433.8 126.351,-433.8 126.351,-439.8 120.351,-445.8 114.351,-445.8"/>
<text text-anchor="middle" x="75" y="-423.6" font-family="Helvetica,sans-Serif" font-size="14.00">PositiveCount</text>
</g>
<!-- CountSentiments&#45;&gt;PositiveCount -->
<g id="edge3" class="edge"><title>CountSentiments&#45;&gt;PositiveCount</title>
<path fill="none" stroke="black" d="M160.092,-482.277C144.397,-472.413 126.285,-461.03 110.816,-451.308"/>
<polygon fill="black" stroke="black" points="112.38,-448.158 102.051,-445.8 108.656,-454.085 112.38,-448.158"/>
</g>
<!-- NegativeCount -->
<g id="node9" class="node"><title>NegativeCount</title>
<path fill="#ffffcc" stroke="black" d="M240.08,-445.8C240.08,-445.8 155.92,-445.8 155.92,-445.8 149.92,-445.8 143.92,-439.8 143.92,-433.8 143.92,-433.8 143.92,-421.8 143.92,-421.8 143.92,-415.8 149.92,-409.8 155.92,-409.8 155.92,-409.8 240.08,-409.8 240.08,-409.8 246.08,-409.8 252.08,-415.8 252.08,-421.8 252.08,-421.8 252.08,-433.8 252.08,-433.8 252.08,-439.8 246.08,-445.8 240.08,-445.8"/>
<text text-anchor="middle" x="198" y="-423.6" font-family="Helvetica,sans-Serif" font-size="14.00">NegativeCount</text>
</g>
<!-- CountSentiments&#45;&gt;NegativeCount -->
<g id="edge4" class="edge"><title>CountSentiments&#45;&gt;NegativeCount</title>
<path fill="none" stroke="black" d="M198,-482.066C198,-473.839 198,-464.576 198,-456.109"/>
<polygon fill="black" stroke="black" points="201.5,-455.949 198,-445.949 194.5,-455.949 201.5,-455.949"/>
</g>
<!-- NeutralCount -->
<g id="node10" class="node"><title>NeutralCount</title>
<path fill="#ffffcc" stroke="black" d="M357.458,-445.8C357.458,-445.8 282.542,-445.8 282.542,-445.8 276.542,-445.8 270.542,-439.8 270.542,-433.8 270.542,-433.8 270.542,-421.8 270.542,-421.8 270.542,-415.8 276.542,-409.8 282.542,-409.8 282.542,-409.8 357.458,-409.8 357.458,-409.8 363.458,-409.8 369.458,-415.8 369.458,-421.8 369.458,-421.8 369.458,-433.8 369.458,-433.8 369.458,-439.8 363.458,-445.8 357.458,-445.8"/>
<text text-anchor="middle" x="320" y="-423.6" font-family="Helvetica,sans-Serif" font-size="14.00">NeutralCount</text>
</g>
<!-- CountSentiments&#45;&gt;NeutralCount -->
<g id="edge5" class="edge"><title>CountSentiments&#45;&gt;NeutralCount</title>
<path fill="none" stroke="black" d="M235.6,-482.277C251.167,-472.413 269.132,-461.03 284.476,-451.308"/>
<polygon fill="black" stroke="black" points="286.595,-454.109 293.169,-445.8 282.848,-448.196 286.595,-454.109"/>
</g>
<!-- Measures -->
<g id="node3" class="node"><title>Measures</title>
<polygon fill="#ccffcc" stroke="black" points="110.213,-323.7 110.213,-373.3 285.787,-373.3 285.787,-323.7 110.213,-323.7"/>
<text text-anchor="middle" x="198" y="-356.7" font-family="Courier,monospace" font-size="14.00">Measures</text>
<polyline fill="none" stroke="black" points="110.213,-348.5 285.787,-348.5 "/>
<text text-anchor="middle" x="198" y="-331.9" font-family="Courier,monospace" font-size="14.00">SetPieChartMeasures</text>
</g>
<!-- Sizes -->
<g id="node11" class="node"><title>Sizes</title>
<path fill="#ffffcc" stroke="black" d="M91,-287.2C91,-287.2 61,-287.2 61,-287.2 55,-287.2 49,-281.2 49,-275.2 49,-275.2 49,-263.2 49,-263.2 49,-257.2 55,-251.2 61,-251.2 61,-251.2 91,-251.2 91,-251.2 97,-251.2 103,-257.2 103,-263.2 103,-263.2 103,-275.2 103,-275.2 103,-281.2 97,-287.2 91,-287.2"/>
<text text-anchor="middle" x="76" y="-265" font-family="Helvetica,sans-Serif" font-size="14.00">Sizes</text>
</g>
<!-- Measures&#45;&gt;Sizes -->
<g id="edge9" class="edge"><title>Measures&#45;&gt;Sizes</title>
<path fill="none" stroke="black" d="M160.4,-323.677C144.833,-313.813 126.868,-302.43 111.524,-292.708"/>
<polygon fill="black" stroke="black" points="113.152,-289.596 102.831,-287.2 109.405,-295.509 113.152,-289.596"/>
</g>
<!-- Explode -->
<g id="node12" class="node"><title>Explode</title>
<path fill="#fcfcfc" stroke="black" d="M175.075,-287.2C175.075,-287.2 132.925,-287.2 132.925,-287.2 126.925,-287.2 120.925,-281.2 120.925,-275.2 120.925,-275.2 120.925,-263.2 120.925,-263.2 120.925,-257.2 126.925,-251.2 132.925,-251.2 132.925,-251.2 175.075,-251.2 175.075,-251.2 181.075,-251.2 187.075,-257.2 187.075,-263.2 187.075,-263.2 187.075,-275.2 187.075,-275.2 187.075,-281.2 181.075,-287.2 175.075,-287.2"/>
<text text-anchor="middle" x="154" y="-265" font-family="Helvetica,sans-Serif" font-size="14.00">Explode</text>
</g>
<!-- Measures&#45;&gt;Explode -->
<g id="edge7" class="edge"><title>Measures&#45;&gt;Explode</title>
<path fill="none" stroke="black" d="M184.319,-323.466C179.376,-314.782 173.776,-304.943 168.746,-296.106"/>
<polygon fill="black" stroke="black" points="171.75,-294.309 163.762,-287.349 165.667,-297.772 171.75,-294.309"/>
</g>
<!-- Labels -->
<g id="node13" class="node"><title>Labels</title>
<path fill="#fcfcfc" stroke="black" d="M250.737,-287.2C250.737,-287.2 217.263,-287.2 217.263,-287.2 211.263,-287.2 205.263,-281.2 205.263,-275.2 205.263,-275.2 205.263,-263.2 205.263,-263.2 205.263,-257.2 211.263,-251.2 217.263,-251.2 217.263,-251.2 250.737,-251.2 250.737,-251.2 256.737,-251.2 262.737,-257.2 262.737,-263.2 262.737,-263.2 262.737,-275.2 262.737,-275.2 262.737,-281.2 256.737,-287.2 250.737,-287.2"/>
<text text-anchor="middle" x="234" y="-265" font-family="Helvetica,sans-Serif" font-size="14.00">Labels</text>
</g>
<!-- Measures&#45;&gt;Labels -->
<g id="edge8" class="edge"><title>Measures&#45;&gt;Labels</title>
<path fill="none" stroke="black" d="M209.193,-323.466C213.152,-314.964 217.627,-305.357 221.675,-296.666"/>
<polygon fill="black" stroke="black" points="224.964,-297.892 226.013,-287.349 218.619,-294.937 224.964,-297.892"/>
</g>
<!-- Colors -->
<g id="node14" class="node"><title>Colors</title>
<path fill="#fcfcfc" stroke="black" d="M325.441,-287.2C325.441,-287.2 292.559,-287.2 292.559,-287.2 286.559,-287.2 280.559,-281.2 280.559,-275.2 280.559,-275.2 280.559,-263.2 280.559,-263.2 280.559,-257.2 286.559,-251.2 292.559,-251.2 292.559,-251.2 325.441,-251.2 325.441,-251.2 331.441,-251.2 337.441,-257.2 337.441,-263.2 337.441,-263.2 337.441,-275.2 337.441,-275.2 337.441,-281.2 331.441,-287.2 325.441,-287.2"/>
<text text-anchor="middle" x="309" y="-265" font-family="Helvetica,sans-Serif" font-size="14.00">Colors</text>
</g>
<!-- Measures&#45;&gt;Colors -->
<g id="edge10" class="edge"><title>Measures&#45;&gt;Colors</title>
<path fill="none" stroke="black" d="M232.209,-323.677C246.241,-313.905 262.413,-302.643 276.287,-292.981"/>
<polygon fill="black" stroke="black" points="278.382,-295.787 284.588,-287.2 274.382,-290.043 278.382,-295.787"/>
</g>
<!-- DrawPieChart -->
<g id="node4" class="node"><title>DrawPieChart</title>
<polygon fill="#ccffcc" stroke="black" points="41.0245,-165.1 41.0245,-214.7 350.976,-214.7 350.976,-165.1 41.0245,-165.1"/>
<text text-anchor="middle" x="196" y="-198.1" font-family="Courier,monospace" font-size="14.00">DrawPieChart</text>
<polyline fill="none" stroke="black" points="41.0245,-189.9 350.976,-189.9 "/>
<text text-anchor="middle" x="196" y="-173.3" font-family="Courier,monospace" font-size="14.00">Pie chart saved in Scores_NLTK.jpeg</text>
</g>
<!-- Sentiment_Result -->
<g id="node5" class="node"><title>Sentiment_Result</title>
<path fill="#ffffcc" stroke="black" d="M134.269,-78.5C134.269,-78.5 257.731,-78.5 257.731,-78.5 263.731,-78.5 269.731,-84.5 269.731,-90.5 269.731,-90.5 269.731,-116.1 269.731,-116.1 269.731,-122.1 263.731,-128.1 257.731,-128.1 257.731,-128.1 134.269,-128.1 134.269,-128.1 128.269,-128.1 122.269,-122.1 122.269,-116.1 122.269,-116.1 122.269,-90.5 122.269,-90.5 122.269,-84.5 128.269,-78.5 134.269,-78.5"/>
<text text-anchor="middle" x="196" y="-111.5" font-family="Helvetica,sans-Serif" font-size="14.00">Sentiment_Result</text>
<polyline fill="none" stroke="black" points="122.269,-103.3 269.731,-103.3 "/>
<text text-anchor="middle" x="196" y="-86.7" font-family="Helvetica,sans-Serif" font-size="14.00">file:Scores_NLTK.jpg</text>
</g>
<!-- DrawPieChart&#45;&gt;Sentiment_Result -->
<g id="edge14" class="edge"><title>DrawPieChart&#45;&gt;Sentiment_Result</title>
<path fill="none" stroke="black" d="M196,-164.883C196,-156.667 196,-147.312 196,-138.452"/>
<polygon fill="black" stroke="black" points="199.5,-138.377 196,-128.377 192.5,-138.377 199.5,-138.377"/>
</g>
<!-- Sentiment_Result_output_port -->
<g id="node16" class="node"><title>Sentiment_Result_output_port</title>
<ellipse fill="#ffffff" stroke="black" cx="196" cy="-31" rx="7" ry="7"/>
</g>
<!-- Sentiment_Result&#45;&gt;Sentiment_Result_output_port -->
<g id="edge20" class="edge"><title>Sentiment_Result&#45;&gt;Sentiment_Result_output_port</title>
<path fill="none" stroke="black" d="M196,-78.4996C196,-68.5289 196,-57.1933 196,-48.2105"/>
<polygon fill="black" stroke="black" points="199.5,-48.0698 196,-38.0698 192.5,-48.0699 199.5,-48.0698"/>
</g>
<!-- Static_Tweets -->
<g id="node6" class="node"><title>Static_Tweets</title>
<path fill="#ffffcc" stroke="black" d="M141.713,-727.5C141.713,-727.5 254.287,-727.5 254.287,-727.5 260.287,-727.5 266.287,-733.5 266.287,-739.5 266.287,-739.5 266.287,-765.1 266.287,-765.1 266.287,-771.1 260.287,-777.1 254.287,-777.1 254.287,-777.1 141.713,-777.1 141.713,-777.1 135.713,-777.1 129.713,-771.1 129.713,-765.1 129.713,-765.1 129.713,-739.5 129.713,-739.5 129.713,-733.5 135.713,-727.5 141.713,-727.5"/>
<text text-anchor="middle" x="198" y="-760.5" font-family="Helvetica,sans-Serif" font-size="14.00">Static_Tweets</text>
<polyline fill="none" stroke="black" points="129.713,-752.3 266.287,-752.3 "/>
<text text-anchor="middle" x="198" y="-735.7" font-family="Helvetica,sans-Serif" font-size="14.00">file:static_tweet.csv</text>
</g>
<!-- Static_Tweets&#45;&gt;AccessTweets -->
<g id="edge2" class="edge"><title>Static_Tweets&#45;&gt;AccessTweets</title>
<path fill="none" stroke="black" d="M198,-727.283C198,-719.067 198,-709.712 198,-700.852"/>
<polygon fill="black" stroke="black" points="201.5,-700.777 198,-690.777 194.5,-700.777 201.5,-700.777"/>
</g>
<!-- TweetRead&#45;&gt;CountSentiments -->
<g id="edge6" class="edge"><title>TweetRead&#45;&gt;CountSentiments</title>
<path fill="none" stroke="black" d="M198,-568.245C198,-560.489 198,-551.039 198,-541.95"/>
<polygon fill="black" stroke="black" points="201.5,-541.95 198,-531.95 194.5,-541.95 201.5,-541.95"/>
</g>
<!-- PositiveCount&#45;&gt;Measures -->
<g id="edge11" class="edge"><title>PositiveCount&#45;&gt;Measures</title>
<path fill="none" stroke="black" d="M102.298,-409.645C116.762,-400.554 134.928,-389.138 151.536,-378.701"/>
<polygon fill="black" stroke="black" points="153.446,-381.634 160.05,-373.35 149.721,-375.707 153.446,-381.634"/>
</g>
<!-- NegativeCount&#45;&gt;Measures -->
<g id="edge12" class="edge"><title>NegativeCount&#45;&gt;Measures</title>
<path fill="none" stroke="black" d="M198,-409.645C198,-401.889 198,-392.439 198,-383.35"/>
<polygon fill="black" stroke="black" points="201.5,-383.35 198,-373.35 194.5,-383.35 201.5,-383.35"/>
</g>
<!-- NeutralCount&#45;&gt;Measures -->
<g id="edge13" class="edge"><title>NeutralCount&#45;&gt;Measures</title>
<path fill="none" stroke="black" d="M292.924,-409.645C278.709,-400.638 260.889,-389.347 244.54,-378.988"/>
<polygon fill="black" stroke="black" points="245.962,-375.745 235.641,-373.35 242.215,-381.658 245.962,-375.745"/>
</g>
<!-- Sizes&#45;&gt;DrawPieChart -->
<g id="edge17" class="edge"><title>Sizes&#45;&gt;DrawPieChart</title>
<path fill="none" stroke="black" d="M102.632,-251.045C116.614,-242.038 134.142,-230.747 150.223,-220.388"/>
<polygon fill="black" stroke="black" points="152.465,-223.107 158.976,-214.75 148.674,-217.223 152.465,-223.107"/>
</g>
<!-- Explode&#45;&gt;DrawPieChart -->
<g id="edge15" class="edge"><title>Explode&#45;&gt;DrawPieChart</title>
<path fill="none" stroke="black" d="M163.321,-251.045C167.717,-242.955 173.113,-233.023 178.244,-223.579"/>
<polygon fill="black" stroke="black" points="181.343,-225.207 183.042,-214.75 175.192,-221.865 181.343,-225.207"/>
</g>
<!-- Labels&#45;&gt;DrawPieChart -->
<g id="edge16" class="edge"><title>Labels&#45;&gt;DrawPieChart</title>
<path fill="none" stroke="black" d="M225.567,-251.045C221.631,-243.038 216.808,-233.228 212.208,-223.871"/>
<polygon fill="black" stroke="black" points="215.277,-222.18 207.724,-214.75 208.995,-225.268 215.277,-222.18"/>
</g>
<!-- Colors&#45;&gt;DrawPieChart -->
<g id="edge18" class="edge"><title>Colors&#45;&gt;DrawPieChart</title>
<path fill="none" stroke="black" d="M283.922,-251.045C270.877,-242.121 254.555,-230.956 239.528,-220.676"/>
<polygon fill="black" stroke="black" points="241.094,-217.507 230.864,-214.75 237.142,-223.285 241.094,-217.507"/>
</g>
<!-- Static_Tweets_input_port -->
<g id="node15" class="node"><title>Static_Tweets_input_port</title>
<ellipse fill="#ffffff" stroke="black" cx="198" cy="-824.6" rx="7" ry="7"/>
</g>
<!-- Static_Tweets_input_port&#45;&gt;Static_Tweets -->
<g id="edge19" class="edge"><title>Static_Tweets_input_port&#45;&gt;Static_Tweets</title>
<path fill="none" stroke="black" d="M198,-817.112C198,-810.242 198,-798.851 198,-787.58"/>
<polygon fill="black" stroke="black" points="201.5,-787.395 198,-777.395 194.5,-787.395 201.5,-787.395"/>
</g>
</g>
</svg>
