<?xml version="1.0" encoding="UTF-8" standalone="no"?>
<!DOCTYPE svg PUBLIC "-//W3C//DTD SVG 1.1//EN"
 "http://www.w3.org/Graphics/SVG/1.1/DTD/svg11.dtd">
<!-- Generated by graphviz version 2.38.0 (20140413.2041)
 -->
<!-- Title: yw_data_view Pages: 1 -->
<svg width="401pt" height="806pt"
 viewBox="0.00 0.00 401.00 805.60" xmlns="http://www.w3.org/2000/svg" xmlns:xlink="http://www.w3.org/1999/xlink">
<g id="graph0" class="graph" transform="scale(1 1) rotate(0) translate(4 801.6)">
<title>yw_data_view</title>
<polygon fill="white" stroke="none" points="-4,4 -4,-801.6 397,-801.6 397,4 -4,4"/>
<text text-anchor="middle" x="196.5" y="-777.4" font-family="Courier,monospace" font-size="18.00">Sentiment_NLTK</text>
<g id="clust1" class="cluster"><title>cluster_workflow</title>
<polygon fill="none" stroke="black" stroke-width="2" points="8,-62 8,-706 385,-706 385,-62 8,-62"/>
</g>
<g id="clust2" class="cluster"><title>cluster_workflow_inner</title>
<polygon fill="none" stroke="white" stroke-width="2" points="16,-70 16,-698 377,-698 377,-70 16,-70"/>
</g>
<g id="clust3" class="cluster"><title>cluster_inflows</title>
<polygon fill="none" stroke="white" stroke-width="2" points="175,-714 175,-760 221,-760 221,-714 175,-714"/>
</g>
<g id="clust4" class="cluster"><title>cluster_inflows_inner</title>
<polygon fill="none" stroke="white" stroke-width="2" points="183,-722 183,-752 213,-752 213,-722 183,-722"/>
</g>
<g id="clust5" class="cluster"><title>cluster_outflows</title>
<polygon fill="none" stroke="white" stroke-width="2" points="179,-8 179,-54 225,-54 225,-8 179,-8"/>
</g>
<g id="clust6" class="cluster"><title>cluster_outflows_inner</title>
<polygon fill="none" stroke="white" stroke-width="2" points="187,-16 187,-46 217,-46 217,-16 187,-16"/>
</g>
<!-- AccessTweets -->
<g id="node1" class="node"><title>AccessTweets</title>
<polygon fill="#ccffcc" stroke="black" points="256.283,-618 139.717,-618 139.717,-582 256.283,-582 256.283,-618"/>
<text text-anchor="middle" x="198" y="-595.8" font-family="Courier,monospace" font-size="14.00">AccessTweets</text>
</g>
<!-- TweetRead -->
<g id="node6" class="node"><title>TweetRead</title>
<path fill="#ffffcc" stroke="black" d="M229.57,-546C229.57,-546 166.43,-546 166.43,-546 160.43,-546 154.43,-540 154.43,-534 154.43,-534 154.43,-522 154.43,-522 154.43,-516 160.43,-510 166.43,-510 166.43,-510 229.57,-510 229.57,-510 235.57,-510 241.57,-516 241.57,-522 241.57,-522 241.57,-534 241.57,-534 241.57,-540 235.57,-546 229.57,-546"/>
<text text-anchor="middle" x="198" y="-523.8" font-family="Helvetica,sans-Serif" font-size="14.00">TweetRead</text>
</g>
<!-- AccessTweets&#45;&gt;TweetRead -->
<g id="edge10" class="edge"><title>AccessTweets&#45;&gt;TweetRead</title>
<path fill="none" stroke="black" d="M198,-581.697C198,-573.983 198,-564.712 198,-556.112"/>
<polygon fill="black" stroke="black" points="201.5,-556.104 198,-546.104 194.5,-556.104 201.5,-556.104"/>
</g>
<!-- CountSentiments -->
<g id="node2" class="node"><title>CountSentiments</title>
<polygon fill="#ccffcc" stroke="black" points="268.979,-474 127.021,-474 127.021,-438 268.979,-438 268.979,-474"/>
<text text-anchor="middle" x="198" y="-451.8" font-family="Courier,monospace" font-size="14.00">CountSentiments</text>
</g>
<!-- PositiveCount -->
<g id="node7" class="node"><title>PositiveCount</title>
<path fill="#ffffcc" stroke="black" d="M114.351,-402C114.351,-402 35.6488,-402 35.6488,-402 29.6488,-402 23.6488,-396 23.6488,-390 23.6488,-390 23.6488,-378 23.6488,-378 23.6488,-372 29.6488,-366 35.6488,-366 35.6488,-366 114.351,-366 114.351,-366 120.351,-366 126.351,-372 126.351,-378 126.351,-378 126.351,-390 126.351,-390 126.351,-396 120.351,-402 114.351,-402"/>
<text text-anchor="middle" x="75" y="-379.8" font-family="Helvetica,sans-Serif" font-size="14.00">PositiveCount</text>
</g>
<!-- CountSentiments&#45;&gt;PositiveCount -->
<g id="edge11" class="edge"><title>CountSentiments&#45;&gt;PositiveCount</title>
<path fill="none" stroke="black" d="M167.911,-437.876C151.68,-428.639 131.458,-417.131 114.029,-407.212"/>
<polygon fill="black" stroke="black" points="115.627,-404.094 105.205,-402.19 112.165,-410.178 115.627,-404.094"/>
</g>
<!-- NegativeCount -->
<g id="node8" class="node"><title>NegativeCount</title>
<path fill="#ffffcc" stroke="black" d="M240.08,-402C240.08,-402 155.92,-402 155.92,-402 149.92,-402 143.92,-396 143.92,-390 143.92,-390 143.92,-378 143.92,-378 143.92,-372 149.92,-366 155.92,-366 155.92,-366 240.08,-366 240.08,-366 246.08,-366 252.08,-372 252.08,-378 252.08,-378 252.08,-390 252.08,-390 252.08,-396 246.08,-402 240.08,-402"/>
<text text-anchor="middle" x="198" y="-379.8" font-family="Helvetica,sans-Serif" font-size="14.00">NegativeCount</text>
</g>
<!-- CountSentiments&#45;&gt;NegativeCount -->
<g id="edge12" class="edge"><title>CountSentiments&#45;&gt;NegativeCount</title>
<path fill="none" stroke="black" d="M198,-437.697C198,-429.983 198,-420.712 198,-412.112"/>
<polygon fill="black" stroke="black" points="201.5,-412.104 198,-402.104 194.5,-412.104 201.5,-412.104"/>
</g>
<!-- NeutralCount -->
<g id="node9" class="node"><title>NeutralCount</title>
<path fill="#ffffcc" stroke="black" d="M357.458,-402C357.458,-402 282.542,-402 282.542,-402 276.542,-402 270.542,-396 270.542,-390 270.542,-390 270.542,-378 270.542,-378 270.542,-372 276.542,-366 282.542,-366 282.542,-366 357.458,-366 357.458,-366 363.458,-366 369.458,-372 369.458,-378 369.458,-378 369.458,-390 369.458,-390 369.458,-396 363.458,-402 357.458,-402"/>
<text text-anchor="middle" x="320" y="-379.8" font-family="Helvetica,sans-Serif" font-size="14.00">NeutralCount</text>
</g>
<!-- CountSentiments&#45;&gt;NeutralCount -->
<g id="edge13" class="edge"><title>CountSentiments&#45;&gt;NeutralCount</title>
<path fill="none" stroke="black" d="M227.845,-437.876C243.944,-428.639 264.001,-417.131 281.288,-407.212"/>
<polygon fill="black" stroke="black" points="283.109,-410.202 290.041,-402.19 279.625,-404.131 283.109,-410.202"/>
</g>
<!-- Measures -->
<g id="node3" class="node"><title>Measures</title>
<polygon fill="#ccffcc" stroke="black" points="239.689,-330 156.311,-330 156.311,-294 239.689,-294 239.689,-330"/>
<text text-anchor="middle" x="198" y="-307.8" font-family="Courier,monospace" font-size="14.00">Measures</text>
</g>
<!-- Explode -->
<g id="node10" class="node"><title>Explode</title>
<path fill="#ffffcc" stroke="black" d="M106.075,-258C106.075,-258 63.925,-258 63.925,-258 57.925,-258 51.925,-252 51.925,-246 51.925,-246 51.925,-234 51.925,-234 51.925,-228 57.925,-222 63.925,-222 63.925,-222 106.075,-222 106.075,-222 112.075,-222 118.075,-228 118.075,-234 118.075,-234 118.075,-246 118.075,-246 118.075,-252 112.075,-258 106.075,-258"/>
<text text-anchor="middle" x="85" y="-235.8" font-family="Helvetica,sans-Serif" font-size="14.00">Explode</text>
</g>
<!-- Measures&#45;&gt;Explode -->
<g id="edge14" class="edge"><title>Measures&#45;&gt;Explode</title>
<path fill="none" stroke="black" d="M170.357,-293.876C155.582,-284.724 137.209,-273.342 121.297,-263.485"/>
<polygon fill="black" stroke="black" points="123.093,-260.481 112.749,-258.19 119.407,-266.431 123.093,-260.481"/>
</g>
<!-- Labels -->
<g id="node11" class="node"><title>Labels</title>
<path fill="#ffffcc" stroke="black" d="M181.737,-258C181.737,-258 148.263,-258 148.263,-258 142.263,-258 136.263,-252 136.263,-246 136.263,-246 136.263,-234 136.263,-234 136.263,-228 142.263,-222 148.263,-222 148.263,-222 181.737,-222 181.737,-222 187.737,-222 193.737,-228 193.737,-234 193.737,-234 193.737,-246 193.737,-246 193.737,-252 187.737,-258 181.737,-258"/>
<text text-anchor="middle" x="165" y="-235.8" font-family="Helvetica,sans-Serif" font-size="14.00">Labels</text>
</g>
<!-- Measures&#45;&gt;Labels -->
<g id="edge15" class="edge"><title>Measures&#45;&gt;Labels</title>
<path fill="none" stroke="black" d="M189.843,-293.697C186.086,-285.728 181.547,-276.1 177.382,-267.264"/>
<polygon fill="black" stroke="black" points="180.494,-265.657 173.063,-258.104 174.162,-268.642 180.494,-265.657"/>
</g>
<!-- Sizes -->
<g id="node12" class="node"><title>Sizes</title>
<path fill="#ffffcc" stroke="black" d="M254,-258C254,-258 224,-258 224,-258 218,-258 212,-252 212,-246 212,-246 212,-234 212,-234 212,-228 218,-222 224,-222 224,-222 254,-222 254,-222 260,-222 266,-228 266,-234 266,-234 266,-246 266,-246 266,-252 260,-258 254,-258"/>
<text text-anchor="middle" x="239" y="-235.8" font-family="Helvetica,sans-Serif" font-size="14.00">Sizes</text>
</g>
<!-- Measures&#45;&gt;Sizes -->
<g id="edge16" class="edge"><title>Measures&#45;&gt;Sizes</title>
<path fill="none" stroke="black" d="M208.135,-293.697C212.852,-285.644 218.562,-275.894 223.782,-266.982"/>
<polygon fill="black" stroke="black" points="226.948,-268.502 228.982,-258.104 220.908,-264.964 226.948,-268.502"/>
</g>
<!-- Colors -->
<g id="node13" class="node"><title>Colors</title>
<path fill="#ffffcc" stroke="black" d="M328.441,-258C328.441,-258 295.559,-258 295.559,-258 289.559,-258 283.559,-252 283.559,-246 283.559,-246 283.559,-234 283.559,-234 283.559,-228 289.559,-222 295.559,-222 295.559,-222 328.441,-222 328.441,-222 334.441,-222 340.441,-228 340.441,-234 340.441,-234 340.441,-246 340.441,-246 340.441,-252 334.441,-258 328.441,-258"/>
<text text-anchor="middle" x="312" y="-235.8" font-family="Helvetica,sans-Serif" font-size="14.00">Colors</text>
</g>
<!-- Measures&#45;&gt;Colors -->
<g id="edge17" class="edge"><title>Measures&#45;&gt;Colors</title>
<path fill="none" stroke="black" d="M225.888,-293.876C240.793,-284.724 259.329,-273.342 275.382,-263.485"/>
<polygon fill="black" stroke="black" points="277.315,-266.405 284.005,-258.19 273.652,-260.44 277.315,-266.405"/>
</g>
<!-- DrawPieChart -->
<g id="node4" class="node"><title>DrawPieChart</title>
<polygon fill="#ccffcc" stroke="black" points="260.283,-186 143.717,-186 143.717,-150 260.283,-150 260.283,-186"/>
<text text-anchor="middle" x="202" y="-163.8" font-family="Courier,monospace" font-size="14.00">DrawPieChart</text>
</g>
<!-- Sentiment_Result -->
<g id="node14" class="node"><title>Sentiment_Result</title>
<path fill="#ffffcc" stroke="black" d="M253.468,-114C253.468,-114 150.532,-114 150.532,-114 144.532,-114 138.532,-108 138.532,-102 138.532,-102 138.532,-90 138.532,-90 138.532,-84 144.532,-78 150.532,-78 150.532,-78 253.468,-78 253.468,-78 259.468,-78 265.468,-84 265.468,-90 265.468,-90 265.468,-102 265.468,-102 265.468,-108 259.468,-114 253.468,-114"/>
<text text-anchor="middle" x="202" y="-91.8" font-family="Helvetica,sans-Serif" font-size="14.00">Sentiment_Result</text>
</g>
<!-- DrawPieChart&#45;&gt;Sentiment_Result -->
<g id="edge18" class="edge"><title>DrawPieChart&#45;&gt;Sentiment_Result</title>
<path fill="none" stroke="black" d="M202,-149.697C202,-141.983 202,-132.712 202,-124.112"/>
<polygon fill="black" stroke="black" points="205.5,-124.104 202,-114.104 198.5,-124.104 205.5,-124.104"/>
</g>
<!-- Static_Tweets -->
<g id="node5" class="node"><title>Static_Tweets</title>
<path fill="#ffffcc" stroke="black" d="M237.905,-690C237.905,-690 158.095,-690 158.095,-690 152.095,-690 146.095,-684 146.095,-678 146.095,-678 146.095,-666 146.095,-666 146.095,-660 152.095,-654 158.095,-654 158.095,-654 237.905,-654 237.905,-654 243.905,-654 249.905,-660 249.905,-666 249.905,-666 249.905,-678 249.905,-678 249.905,-684 243.905,-690 237.905,-690"/>
<text text-anchor="middle" x="198" y="-667.8" font-family="Helvetica,sans-Serif" font-size="14.00">Static_Tweets</text>
</g>
<!-- Static_Tweets&#45;&gt;AccessTweets -->
<g id="edge1" class="edge"><title>Static_Tweets&#45;&gt;AccessTweets</title>
<path fill="none" stroke="black" d="M198,-653.697C198,-645.983 198,-636.712 198,-628.112"/>
<polygon fill="black" stroke="black" points="201.5,-628.104 198,-618.104 194.5,-628.104 201.5,-628.104"/>
</g>
<!-- TweetRead&#45;&gt;CountSentiments -->
<g id="edge2" class="edge"><title>TweetRead&#45;&gt;CountSentiments</title>
<path fill="none" stroke="black" d="M198,-509.697C198,-501.983 198,-492.712 198,-484.112"/>
<polygon fill="black" stroke="black" points="201.5,-484.104 198,-474.104 194.5,-484.104 201.5,-484.104"/>
</g>
<!-- PositiveCount&#45;&gt;Measures -->
<g id="edge3" class="edge"><title>PositiveCount&#45;&gt;Measures</title>
<path fill="none" stroke="black" d="M105.089,-365.876C121.32,-356.639 141.542,-345.131 158.971,-335.212"/>
<polygon fill="black" stroke="black" points="160.835,-338.178 167.795,-330.19 157.373,-332.094 160.835,-338.178"/>
</g>
<!-- NegativeCount&#45;&gt;Measures -->
<g id="edge4" class="edge"><title>NegativeCount&#45;&gt;Measures</title>
<path fill="none" stroke="black" d="M198,-365.697C198,-357.983 198,-348.712 198,-340.112"/>
<polygon fill="black" stroke="black" points="201.5,-340.104 198,-330.104 194.5,-340.104 201.5,-340.104"/>
</g>
<!-- NeutralCount&#45;&gt;Measures -->
<g id="edge5" class="edge"><title>NeutralCount&#45;&gt;Measures</title>
<path fill="none" stroke="black" d="M290.155,-365.876C274.056,-356.639 253.999,-345.131 236.712,-335.212"/>
<polygon fill="black" stroke="black" points="238.375,-332.131 227.959,-330.19 234.891,-338.202 238.375,-332.131"/>
</g>
<!-- Explode&#45;&gt;DrawPieChart -->
<g id="edge6" class="edge"><title>Explode&#45;&gt;DrawPieChart</title>
<path fill="none" stroke="black" d="M113.621,-221.876C128.919,-212.724 147.943,-201.342 164.418,-191.485"/>
<polygon fill="black" stroke="black" points="166.484,-194.327 173.269,-186.19 162.89,-188.32 166.484,-194.327"/>
</g>
<!-- Labels&#45;&gt;DrawPieChart -->
<g id="edge7" class="edge"><title>Labels&#45;&gt;DrawPieChart</title>
<path fill="none" stroke="black" d="M174.146,-221.697C178.403,-213.644 183.556,-203.894 188.266,-194.982"/>
<polygon fill="black" stroke="black" points="191.38,-196.581 192.959,-186.104 185.192,-193.31 191.38,-196.581"/>
</g>
<!-- Sizes&#45;&gt;DrawPieChart -->
<g id="edge8" class="edge"><title>Sizes&#45;&gt;DrawPieChart</title>
<path fill="none" stroke="black" d="M229.854,-221.697C225.597,-213.644 220.444,-203.894 215.734,-194.982"/>
<polygon fill="black" stroke="black" points="218.808,-193.31 211.041,-186.104 212.62,-196.581 218.808,-193.31"/>
</g>
<!-- Colors&#45;&gt;DrawPieChart -->
<g id="edge9" class="edge"><title>Colors&#45;&gt;DrawPieChart</title>
<path fill="none" stroke="black" d="M285.091,-221.876C270.842,-212.808 253.154,-201.552 237.764,-191.759"/>
<polygon fill="black" stroke="black" points="239.328,-188.606 229.012,-186.19 235.57,-194.511 239.328,-188.606"/>
</g>
<!-- Sentiment_Result_outflow -->
<g id="node16" class="node"><title>Sentiment_Result_outflow</title>
<ellipse fill="none" stroke="black" cx="202" cy="-31" rx="7" ry="7"/>
</g>
<!-- Sentiment_Result&#45;&gt;Sentiment_Result_outflow -->
<g id="edge20" class="edge"><title>Sentiment_Result&#45;&gt;Sentiment_Result_outflow</title>
<path fill="none" stroke="black" d="M202,-77.785C202,-68.6656 202,-57.5197 202,-48.5085"/>
<polygon fill="black" stroke="black" points="205.5,-48.242 202,-38.242 198.5,-48.2421 205.5,-48.242"/>
</g>
<!-- Static_Tweets_inflow -->
<g id="node15" class="node"><title>Static_Tweets_inflow</title>
<ellipse fill="none" stroke="black" cx="198" cy="-737" rx="7" ry="7"/>
</g>
<!-- Static_Tweets_inflow&#45;&gt;Static_Tweets -->
<g id="edge19" class="edge"><title>Static_Tweets_inflow&#45;&gt;Static_Tweets</title>
<path fill="none" stroke="black" d="M198,-729.729C198,-722.795 198,-711.154 198,-700.215"/>
<polygon fill="black" stroke="black" points="201.5,-700.119 198,-690.119 194.5,-700.119 201.5,-700.119"/>
</g>
</g>
</svg>
