<?xml version="1.0" encoding="UTF-8" standalone="no"?>
<!DOCTYPE svg PUBLIC "-//W3C//DTD SVG 1.1//EN"
 "http://www.w3.org/Graphics/SVG/1.1/DTD/svg11.dtd">
<!-- Generated by graphviz version 2.38.0 (20140413.2041)
 -->
<!-- Title: yw_data_view Pages: 1 -->
<svg width="344pt" height="464pt"
 viewBox="0.00 0.00 344.00 463.60" xmlns="http://www.w3.org/2000/svg" xmlns:xlink="http://www.w3.org/1999/xlink">
<g id="graph0" class="graph" transform="scale(1 1) rotate(0) translate(4 459.6)">
<title>yw_data_view</title>
<polygon fill="white" stroke="none" points="-4,4 -4,-459.6 340,-459.6 340,4 -4,4"/>
<text text-anchor="middle" x="168" y="-435.4" font-family="Courier,monospace" font-size="18.00">Sentiment_NLTK</text>
<g id="clust1" class="cluster"><title>cluster_workflow</title>
<polygon fill="none" stroke="black" stroke-width="2" points="8,-62 8,-418 328,-418 328,-62 8,-62"/>
</g>
<g id="clust2" class="cluster"><title>cluster_workflow_inner</title>
<polygon fill="none" stroke="white" stroke-width="2" points="16,-70 16,-410 320,-410 320,-70 16,-70"/>
</g>
<g id="clust5" class="cluster"><title>cluster_outflows</title>
<polygon fill="none" stroke="white" stroke-width="2" points="151,-8 151,-54 197,-54 197,-8 151,-8"/>
</g>
<g id="clust6" class="cluster"><title>cluster_outflows_inner</title>
<polygon fill="none" stroke="white" stroke-width="2" points="159,-16 159,-46 189,-46 189,-16 159,-16"/>
</g>
<!-- DrawPieChart -->
<g id="node1" class="node"><title>DrawPieChart</title>
<polygon fill="#ccffcc" stroke="black" points="232.283,-186 115.717,-186 115.717,-150 232.283,-150 232.283,-186"/>
<text text-anchor="middle" x="174" y="-163.8" font-family="Courier,monospace" font-size="14.00">DrawPieChart</text>
</g>
<!-- Sentiment_Result -->
<g id="node8" class="node"><title>Sentiment_Result</title>
<path fill="#ffffcc" stroke="black" d="M225.468,-114C225.468,-114 122.532,-114 122.532,-114 116.532,-114 110.532,-108 110.532,-102 110.532,-102 110.532,-90 110.532,-90 110.532,-84 116.532,-78 122.532,-78 122.532,-78 225.468,-78 225.468,-78 231.468,-78 237.468,-84 237.468,-90 237.468,-90 237.468,-102 237.468,-102 237.468,-108 231.468,-114 225.468,-114"/>
<text text-anchor="middle" x="174" y="-91.8" font-family="Helvetica,sans-Serif" font-size="14.00">Sentiment_Result</text>
</g>
<!-- DrawPieChart&#45;&gt;Sentiment_Result -->
<g id="edge1" class="edge"><title>DrawPieChart&#45;&gt;Sentiment_Result</title>
<path fill="none" stroke="black" d="M174,-149.697C174,-141.983 174,-132.712 174,-124.112"/>
<polygon fill="black" stroke="black" points="177.5,-124.104 174,-114.104 170.5,-124.104 177.5,-124.104"/>
</g>
<!-- Measures -->
<g id="node2" class="node"><title>Measures</title>
<polygon fill="#ccffcc" stroke="black" points="215.689,-330 132.311,-330 132.311,-294 215.689,-294 215.689,-330"/>
<text text-anchor="middle" x="174" y="-307.8" font-family="Courier,monospace" font-size="14.00">Measures</text>
</g>
<!-- Explode -->
<g id="node4" class="node"><title>Explode</title>
<path fill="#ffffcc" stroke="black" d="M78.075,-258C78.075,-258 35.925,-258 35.925,-258 29.925,-258 23.925,-252 23.925,-246 23.925,-246 23.925,-234 23.925,-234 23.925,-228 29.925,-222 35.925,-222 35.925,-222 78.075,-222 78.075,-222 84.075,-222 90.075,-228 90.075,-234 90.075,-234 90.075,-246 90.075,-246 90.075,-252 84.075,-258 78.075,-258"/>
<text text-anchor="middle" x="57" y="-235.8" font-family="Helvetica,sans-Serif" font-size="14.00">Explode</text>
</g>
<!-- Measures&#45;&gt;Explode -->
<g id="edge5" class="edge"><title>Measures&#45;&gt;Explode</title>
<path fill="none" stroke="black" d="M145.379,-293.876C130.081,-284.724 111.057,-273.342 94.582,-263.485"/>
<polygon fill="black" stroke="black" points="96.1098,-260.32 85.7314,-258.19 92.5159,-266.327 96.1098,-260.32"/>
</g>
<!-- Labels -->
<g id="node5" class="node"><title>Labels</title>
<path fill="#ffffcc" stroke="black" d="M153.737,-258C153.737,-258 120.263,-258 120.263,-258 114.263,-258 108.263,-252 108.263,-246 108.263,-246 108.263,-234 108.263,-234 108.263,-228 114.263,-222 120.263,-222 120.263,-222 153.737,-222 153.737,-222 159.737,-222 165.737,-228 165.737,-234 165.737,-234 165.737,-246 165.737,-246 165.737,-252 159.737,-258 153.737,-258"/>
<text text-anchor="middle" x="137" y="-235.8" font-family="Helvetica,sans-Serif" font-size="14.00">Labels</text>
</g>
<!-- Measures&#45;&gt;Labels -->
<g id="edge4" class="edge"><title>Measures&#45;&gt;Labels</title>
<path fill="none" stroke="black" d="M164.854,-293.697C160.597,-285.644 155.444,-275.894 150.734,-266.982"/>
<polygon fill="black" stroke="black" points="153.808,-265.31 146.041,-258.104 147.62,-268.581 153.808,-265.31"/>
</g>
<!-- Sizes -->
<g id="node6" class="node"><title>Sizes</title>
<path fill="#ffffcc" stroke="black" d="M226,-258C226,-258 196,-258 196,-258 190,-258 184,-252 184,-246 184,-246 184,-234 184,-234 184,-228 190,-222 196,-222 196,-222 226,-222 226,-222 232,-222 238,-228 238,-234 238,-234 238,-246 238,-246 238,-252 232,-258 226,-258"/>
<text text-anchor="middle" x="211" y="-235.8" font-family="Helvetica,sans-Serif" font-size="14.00">Sizes</text>
</g>
<!-- Measures&#45;&gt;Sizes -->
<g id="edge3" class="edge"><title>Measures&#45;&gt;Sizes</title>
<path fill="none" stroke="black" d="M183.146,-293.697C187.403,-285.644 192.556,-275.894 197.266,-266.982"/>
<polygon fill="black" stroke="black" points="200.38,-268.581 201.959,-258.104 194.192,-265.31 200.38,-268.581"/>
</g>
<!-- Colors -->
<g id="node7" class="node"><title>Colors</title>
<path fill="#ffffcc" stroke="black" d="M300.441,-258C300.441,-258 267.559,-258 267.559,-258 261.559,-258 255.559,-252 255.559,-246 255.559,-246 255.559,-234 255.559,-234 255.559,-228 261.559,-222 267.559,-222 267.559,-222 300.441,-222 300.441,-222 306.441,-222 312.441,-228 312.441,-234 312.441,-234 312.441,-246 312.441,-246 312.441,-252 306.441,-258 300.441,-258"/>
<text text-anchor="middle" x="284" y="-235.8" font-family="Helvetica,sans-Serif" font-size="14.00">Colors</text>
</g>
<!-- Measures&#45;&gt;Colors -->
<g id="edge2" class="edge"><title>Measures&#45;&gt;Colors</title>
<path fill="none" stroke="black" d="M200.909,-293.876C215.158,-284.808 232.846,-273.552 248.236,-263.759"/>
<polygon fill="black" stroke="black" points="250.43,-266.511 256.988,-258.19 246.672,-260.606 250.43,-266.511"/>
</g>
<!-- PositiveCount -->
<g id="node3" class="node"><title>PositiveCount</title>
<path fill="#ffffcc" stroke="black" d="M213.351,-402C213.351,-402 134.649,-402 134.649,-402 128.649,-402 122.649,-396 122.649,-390 122.649,-390 122.649,-378 122.649,-378 122.649,-372 128.649,-366 134.649,-366 134.649,-366 213.351,-366 213.351,-366 219.351,-366 225.351,-372 225.351,-378 225.351,-378 225.351,-390 225.351,-390 225.351,-396 219.351,-402 213.351,-402"/>
<text text-anchor="middle" x="174" y="-379.8" font-family="Helvetica,sans-Serif" font-size="14.00">PositiveCount</text>
</g>
<!-- PositiveCount&#45;&gt;Measures -->
<g id="edge6" class="edge"><title>PositiveCount&#45;&gt;Measures</title>
<path fill="none" stroke="black" d="M174,-365.697C174,-357.983 174,-348.712 174,-340.112"/>
<polygon fill="black" stroke="black" points="177.5,-340.104 174,-330.104 170.5,-340.104 177.5,-340.104"/>
</g>
<!-- Explode&#45;&gt;DrawPieChart -->
<g id="edge7" class="edge"><title>Explode&#45;&gt;DrawPieChart</title>
<path fill="none" stroke="black" d="M85.6214,-221.876C100.919,-212.724 119.943,-201.342 136.418,-191.485"/>
<polygon fill="black" stroke="black" points="138.484,-194.327 145.269,-186.19 134.89,-188.32 138.484,-194.327"/>
</g>
<!-- Labels&#45;&gt;DrawPieChart -->
<g id="edge8" class="edge"><title>Labels&#45;&gt;DrawPieChart</title>
<path fill="none" stroke="black" d="M146.146,-221.697C150.403,-213.644 155.556,-203.894 160.266,-194.982"/>
<polygon fill="black" stroke="black" points="163.38,-196.581 164.959,-186.104 157.192,-193.31 163.38,-196.581"/>
</g>
<!-- Sizes&#45;&gt;DrawPieChart -->
<g id="edge9" class="edge"><title>Sizes&#45;&gt;DrawPieChart</title>
<path fill="none" stroke="black" d="M201.854,-221.697C197.597,-213.644 192.444,-203.894 187.734,-194.982"/>
<polygon fill="black" stroke="black" points="190.808,-193.31 183.041,-186.104 184.62,-196.581 190.808,-193.31"/>
</g>
<!-- Colors&#45;&gt;DrawPieChart -->
<g id="edge10" class="edge"><title>Colors&#45;&gt;DrawPieChart</title>
<path fill="none" stroke="black" d="M257.091,-221.876C242.842,-212.808 225.154,-201.552 209.764,-191.759"/>
<polygon fill="black" stroke="black" points="211.328,-188.606 201.012,-186.19 207.57,-194.511 211.328,-188.606"/>
</g>
<!-- Sentiment_Result_outflow -->
<g id="node9" class="node"><title>Sentiment_Result_outflow</title>
<ellipse fill="none" stroke="black" cx="174" cy="-31" rx="7" ry="7"/>
</g>
<!-- Sentiment_Result&#45;&gt;Sentiment_Result_outflow -->
<g id="edge11" class="edge"><title>Sentiment_Result&#45;&gt;Sentiment_Result_outflow</title>
<path fill="none" stroke="black" d="M174,-77.785C174,-68.6656 174,-57.5197 174,-48.5085"/>
<polygon fill="black" stroke="black" points="177.5,-48.242 174,-38.242 170.5,-48.2421 177.5,-48.242"/>
</g>
</g>
</svg>
