<?xml version="1.0" encoding="UTF-8" standalone="no"?>
<!DOCTYPE svg PUBLIC "-//W3C//DTD SVG 1.1//EN"
 "http://www.w3.org/Graphics/SVG/1.1/DTD/svg11.dtd">
<!-- Generated by graphviz version 2.38.0 (20140413.2041)
 -->
<!-- Title: yw_data_view Pages: 1 -->
<svg width="182pt" height="320pt"
 viewBox="0.00 0.00 182.00 319.60" xmlns="http://www.w3.org/2000/svg" xmlns:xlink="http://www.w3.org/1999/xlink">
<g id="graph0" class="graph" transform="scale(1 1) rotate(0) translate(4 315.6)">
<title>yw_data_view</title>
<polygon fill="white" stroke="none" points="-4,4 -4,-315.6 178,-315.6 178,4 -4,4"/>
<text text-anchor="middle" x="87" y="-291.4" font-family="Courier,monospace" font-size="18.00">Sentiment_NLTK</text>
<g id="clust1" class="cluster"><title>cluster_workflow</title>
<polygon fill="none" stroke="black" stroke-width="2" points="8,-62 8,-274 166,-274 166,-62 8,-62"/>
</g>
<g id="clust2" class="cluster"><title>cluster_workflow_inner</title>
<polygon fill="none" stroke="white" stroke-width="2" points="16,-70 16,-266 158,-266 158,-70 16,-70"/>
</g>
<g id="clust5" class="cluster"><title>cluster_outflows</title>
<polygon fill="none" stroke="white" stroke-width="2" points="64,-8 64,-54 110,-54 110,-8 64,-8"/>
</g>
<g id="clust6" class="cluster"><title>cluster_outflows_inner</title>
<polygon fill="none" stroke="white" stroke-width="2" points="72,-16 72,-46 102,-46 102,-16 72,-16"/>
</g>
<!-- DrawPieChart -->
<g id="node1" class="node"><title>DrawPieChart</title>
<polygon fill="#ccffcc" stroke="black" points="145.283,-186 28.7166,-186 28.7166,-150 145.283,-150 145.283,-186"/>
<text text-anchor="middle" x="87" y="-163.8" font-family="Courier,monospace" font-size="14.00">DrawPieChart</text>
</g>
<!-- Sentiment_Result -->
<g id="node3" class="node"><title>Sentiment_Result</title>
<path fill="#ffffcc" stroke="black" d="M138.468,-114C138.468,-114 35.5321,-114 35.5321,-114 29.5321,-114 23.5321,-108 23.5321,-102 23.5321,-102 23.5321,-90 23.5321,-90 23.5321,-84 29.5321,-78 35.5321,-78 35.5321,-78 138.468,-78 138.468,-78 144.468,-78 150.468,-84 150.468,-90 150.468,-90 150.468,-102 150.468,-102 150.468,-108 144.468,-114 138.468,-114"/>
<text text-anchor="middle" x="87" y="-91.8" font-family="Helvetica,sans-Serif" font-size="14.00">Sentiment_Result</text>
</g>
<!-- DrawPieChart&#45;&gt;Sentiment_Result -->
<g id="edge1" class="edge"><title>DrawPieChart&#45;&gt;Sentiment_Result</title>
<path fill="none" stroke="black" d="M87,-149.697C87,-141.983 87,-132.712 87,-124.112"/>
<polygon fill="black" stroke="black" points="90.5001,-124.104 87,-114.104 83.5001,-124.104 90.5001,-124.104"/>
</g>
<!-- Sizes -->
<g id="node2" class="node"><title>Sizes</title>
<path fill="#ffffcc" stroke="black" d="M102,-258C102,-258 72,-258 72,-258 66,-258 60,-252 60,-246 60,-246 60,-234 60,-234 60,-228 66,-222 72,-222 72,-222 102,-222 102,-222 108,-222 114,-228 114,-234 114,-234 114,-246 114,-246 114,-252 108,-258 102,-258"/>
<text text-anchor="middle" x="87" y="-235.8" font-family="Helvetica,sans-Serif" font-size="14.00">Sizes</text>
</g>
<!-- Sizes&#45;&gt;DrawPieChart -->
<g id="edge2" class="edge"><title>Sizes&#45;&gt;DrawPieChart</title>
<path fill="none" stroke="black" d="M87,-221.697C87,-213.983 87,-204.712 87,-196.112"/>
<polygon fill="black" stroke="black" points="90.5001,-196.104 87,-186.104 83.5001,-196.104 90.5001,-196.104"/>
</g>
<!-- Sentiment_Result_outflow -->
<g id="node4" class="node"><title>Sentiment_Result_outflow</title>
<ellipse fill="none" stroke="black" cx="87" cy="-31" rx="7" ry="7"/>
</g>
<!-- Sentiment_Result&#45;&gt;Sentiment_Result_outflow -->
<g id="edge3" class="edge"><title>Sentiment_Result&#45;&gt;Sentiment_Result_outflow</title>
<path fill="none" stroke="black" d="M87,-77.785C87,-68.6656 87,-57.5197 87,-48.5085"/>
<polygon fill="black" stroke="black" points="90.5001,-48.242 87,-38.242 83.5001,-48.2421 90.5001,-48.242"/>
</g>
</g>
</svg>
