<?xml version="1.0" encoding="UTF-8" standalone="no"?>
<!DOCTYPE svg PUBLIC "-//W3C//DTD SVG 1.1//EN"
 "http://www.w3.org/Graphics/SVG/1.1/DTD/svg11.dtd">
<!-- Generated by graphviz version 2.38.0 (20140413.2041)
 -->
<!-- Title: yw_data_view Pages: 1 -->
<svg width="401pt" height="811pt"
 viewBox="0.00 0.00 401.00 810.80" xmlns="http://www.w3.org/2000/svg" xmlns:xlink="http://www.w3.org/1999/xlink">
<g id="graph0" class="graph" transform="scale(1 1) rotate(0) translate(4 806.8)">
<title>yw_data_view</title>
<polygon fill="white" stroke="none" points="-4,4 -4,-806.8 397,-806.8 397,4 -4,4"/>
<text text-anchor="middle" x="196.5" y="-782.6" font-family="Courier,monospace" font-size="18.00">Sentiment_NLTK</text>
<g id="clust1" class="cluster"><title>cluster_workflow</title>
<polygon fill="none" stroke="black" stroke-width="2" points="8,-62 8,-711.2 385,-711.2 385,-62 8,-62"/>
</g>
<g id="clust2" class="cluster"><title>cluster_workflow_inner</title>
<polygon fill="none" stroke="white" stroke-width="2" points="16,-70 16,-703.2 377,-703.2 377,-70 16,-70"/>
</g>
<g id="clust3" class="cluster"><title>cluster_inflows</title>
<polygon fill="none" stroke="white" stroke-width="2" points="175,-719.2 175,-765.2 221,-765.2 221,-719.2 175,-719.2"/>
</g>
<g id="clust4" class="cluster"><title>cluster_inflows_inner</title>
<polygon fill="none" stroke="white" stroke-width="2" points="183,-727.2 183,-757.2 213,-757.2 213,-727.2 183,-727.2"/>
</g>
<g id="clust5" class="cluster"><title>cluster_outflows</title>
<polygon fill="none" stroke="white" stroke-width="2" points="179,-8 179,-54 225,-54 225,-8 179,-8"/>
</g>
<g id="clust6" class="cluster"><title>cluster_outflows_inner</title>
<polygon fill="none" stroke="white" stroke-width="2" points="187,-16 187,-46 217,-46 217,-16 187,-16"/>
</g>
<!-- Measures -->
<g id="node1" class="node"><title>Measures</title>
<polygon fill="#ccffcc" stroke="black" points="239.689,-332.6 156.311,-332.6 156.311,-296.6 239.689,-296.6 239.689,-332.6"/>
<text text-anchor="middle" x="198" y="-310.4" font-family="Courier,monospace" font-size="14.00">Measures</text>
</g>
<!-- Explode -->
<g id="node9" class="node"><title>Explode</title>
<path fill="#ffffcc" stroke="black" d="M106.075,-260.6C106.075,-260.6 63.925,-260.6 63.925,-260.6 57.925,-260.6 51.925,-254.6 51.925,-248.6 51.925,-248.6 51.925,-236.6 51.925,-236.6 51.925,-230.6 57.925,-224.6 63.925,-224.6 63.925,-224.6 106.075,-224.6 106.075,-224.6 112.075,-224.6 118.075,-230.6 118.075,-236.6 118.075,-236.6 118.075,-248.6 118.075,-248.6 118.075,-254.6 112.075,-260.6 106.075,-260.6"/>
<text text-anchor="middle" x="85" y="-238.4" font-family="Helvetica,sans-Serif" font-size="14.00">Explode</text>
</g>
<!-- Measures&#45;&gt;Explode -->
<g id="edge14" class="edge"><title>Measures&#45;&gt;Explode</title>
<path fill="none" stroke="black" d="M170.357,-296.476C155.582,-287.324 137.209,-275.942 121.297,-266.085"/>
<polygon fill="black" stroke="black" points="123.093,-263.081 112.749,-260.79 119.407,-269.031 123.093,-263.081"/>
</g>
<!-- Labels -->
<g id="node10" class="node"><title>Labels</title>
<path fill="#ffffcc" stroke="black" d="M181.737,-260.6C181.737,-260.6 148.263,-260.6 148.263,-260.6 142.263,-260.6 136.263,-254.6 136.263,-248.6 136.263,-248.6 136.263,-236.6 136.263,-236.6 136.263,-230.6 142.263,-224.6 148.263,-224.6 148.263,-224.6 181.737,-224.6 181.737,-224.6 187.737,-224.6 193.737,-230.6 193.737,-236.6 193.737,-236.6 193.737,-248.6 193.737,-248.6 193.737,-254.6 187.737,-260.6 181.737,-260.6"/>
<text text-anchor="middle" x="165" y="-238.4" font-family="Helvetica,sans-Serif" font-size="14.00">Labels</text>
</g>
<!-- Measures&#45;&gt;Labels -->
<g id="edge15" class="edge"><title>Measures&#45;&gt;Labels</title>
<path fill="none" stroke="black" d="M189.843,-296.297C186.086,-288.328 181.547,-278.7 177.382,-269.864"/>
<polygon fill="black" stroke="black" points="180.494,-268.257 173.063,-260.704 174.162,-271.242 180.494,-268.257"/>
</g>
<!-- Sizes -->
<g id="node11" class="node"><title>Sizes</title>
<path fill="#ffffcc" stroke="black" d="M254,-260.6C254,-260.6 224,-260.6 224,-260.6 218,-260.6 212,-254.6 212,-248.6 212,-248.6 212,-236.6 212,-236.6 212,-230.6 218,-224.6 224,-224.6 224,-224.6 254,-224.6 254,-224.6 260,-224.6 266,-230.6 266,-236.6 266,-236.6 266,-248.6 266,-248.6 266,-254.6 260,-260.6 254,-260.6"/>
<text text-anchor="middle" x="239" y="-238.4" font-family="Helvetica,sans-Serif" font-size="14.00">Sizes</text>
</g>
<!-- Measures&#45;&gt;Sizes -->
<g id="edge16" class="edge"><title>Measures&#45;&gt;Sizes</title>
<path fill="none" stroke="black" d="M208.135,-296.297C212.852,-288.244 218.562,-278.494 223.782,-269.582"/>
<polygon fill="black" stroke="black" points="226.948,-271.102 228.982,-260.704 220.908,-267.564 226.948,-271.102"/>
</g>
<!-- Colors -->
<g id="node12" class="node"><title>Colors</title>
<path fill="#ffffcc" stroke="black" d="M328.441,-260.6C328.441,-260.6 295.559,-260.6 295.559,-260.6 289.559,-260.6 283.559,-254.6 283.559,-248.6 283.559,-248.6 283.559,-236.6 283.559,-236.6 283.559,-230.6 289.559,-224.6 295.559,-224.6 295.559,-224.6 328.441,-224.6 328.441,-224.6 334.441,-224.6 340.441,-230.6 340.441,-236.6 340.441,-236.6 340.441,-248.6 340.441,-248.6 340.441,-254.6 334.441,-260.6 328.441,-260.6"/>
<text text-anchor="middle" x="312" y="-238.4" font-family="Helvetica,sans-Serif" font-size="14.00">Colors</text>
</g>
<!-- Measures&#45;&gt;Colors -->
<g id="edge17" class="edge"><title>Measures&#45;&gt;Colors</title>
<path fill="none" stroke="black" d="M225.888,-296.476C240.793,-287.324 259.329,-275.942 275.382,-266.085"/>
<polygon fill="black" stroke="black" points="277.315,-269.005 284.005,-260.79 273.652,-263.04 277.315,-269.005"/>
</g>
<!-- CountSentiments -->
<g id="node2" class="node"><title>CountSentiments</title>
<polygon fill="#ccffcc" stroke="black" points="268.979,-476.6 127.021,-476.6 127.021,-440.6 268.979,-440.6 268.979,-476.6"/>
<text text-anchor="middle" x="198" y="-454.4" font-family="Courier,monospace" font-size="14.00">CountSentiments</text>
</g>
<!-- PositiveCount -->
<g id="node6" class="node"><title>PositiveCount</title>
<path fill="#ffffcc" stroke="black" d="M114.351,-404.6C114.351,-404.6 35.6488,-404.6 35.6488,-404.6 29.6488,-404.6 23.6488,-398.6 23.6488,-392.6 23.6488,-392.6 23.6488,-380.6 23.6488,-380.6 23.6488,-374.6 29.6488,-368.6 35.6488,-368.6 35.6488,-368.6 114.351,-368.6 114.351,-368.6 120.351,-368.6 126.351,-374.6 126.351,-380.6 126.351,-380.6 126.351,-392.6 126.351,-392.6 126.351,-398.6 120.351,-404.6 114.351,-404.6"/>
<text text-anchor="middle" x="75" y="-382.4" font-family="Helvetica,sans-Serif" font-size="14.00">PositiveCount</text>
</g>
<!-- CountSentiments&#45;&gt;PositiveCount -->
<g id="edge11" class="edge"><title>CountSentiments&#45;&gt;PositiveCount</title>
<path fill="none" stroke="black" d="M167.911,-440.476C151.68,-431.239 131.458,-419.731 114.029,-409.812"/>
<polygon fill="black" stroke="black" points="115.627,-406.694 105.205,-404.79 112.165,-412.778 115.627,-406.694"/>
</g>
<!-- NegativeCount -->
<g id="node7" class="node"><title>NegativeCount</title>
<path fill="#ffffcc" stroke="black" d="M240.08,-404.6C240.08,-404.6 155.92,-404.6 155.92,-404.6 149.92,-404.6 143.92,-398.6 143.92,-392.6 143.92,-392.6 143.92,-380.6 143.92,-380.6 143.92,-374.6 149.92,-368.6 155.92,-368.6 155.92,-368.6 240.08,-368.6 240.08,-368.6 246.08,-368.6 252.08,-374.6 252.08,-380.6 252.08,-380.6 252.08,-392.6 252.08,-392.6 252.08,-398.6 246.08,-404.6 240.08,-404.6"/>
<text text-anchor="middle" x="198" y="-382.4" font-family="Helvetica,sans-Serif" font-size="14.00">NegativeCount</text>
</g>
<!-- CountSentiments&#45;&gt;NegativeCount -->
<g id="edge12" class="edge"><title>CountSentiments&#45;&gt;NegativeCount</title>
<path fill="none" stroke="black" d="M198,-440.297C198,-432.583 198,-423.312 198,-414.712"/>
<polygon fill="black" stroke="black" points="201.5,-414.704 198,-404.704 194.5,-414.704 201.5,-414.704"/>
</g>
<!-- NeutralCount -->
<g id="node8" class="node"><title>NeutralCount</title>
<path fill="#ffffcc" stroke="black" d="M357.458,-404.6C357.458,-404.6 282.542,-404.6 282.542,-404.6 276.542,-404.6 270.542,-398.6 270.542,-392.6 270.542,-392.6 270.542,-380.6 270.542,-380.6 270.542,-374.6 276.542,-368.6 282.542,-368.6 282.542,-368.6 357.458,-368.6 357.458,-368.6 363.458,-368.6 369.458,-374.6 369.458,-380.6 369.458,-380.6 369.458,-392.6 369.458,-392.6 369.458,-398.6 363.458,-404.6 357.458,-404.6"/>
<text text-anchor="middle" x="320" y="-382.4" font-family="Helvetica,sans-Serif" font-size="14.00">NeutralCount</text>
</g>
<!-- CountSentiments&#45;&gt;NeutralCount -->
<g id="edge13" class="edge"><title>CountSentiments&#45;&gt;NeutralCount</title>
<path fill="none" stroke="black" d="M227.845,-440.476C243.944,-431.239 264.001,-419.731 281.288,-409.812"/>
<polygon fill="black" stroke="black" points="283.109,-412.802 290.041,-404.79 279.625,-406.731 283.109,-412.802"/>
</g>
<!-- AccessTweets -->
<g id="node3" class="node"><title>AccessTweets</title>
<polygon fill="#ccffcc" stroke="black" points="256.283,-620.6 139.717,-620.6 139.717,-584.6 256.283,-584.6 256.283,-620.6"/>
<text text-anchor="middle" x="198" y="-598.4" font-family="Courier,monospace" font-size="14.00">AccessTweets</text>
</g>
<!-- TweetRead -->
<g id="node5" class="node"><title>TweetRead</title>
<path fill="#ffffcc" stroke="black" d="M229.57,-548.6C229.57,-548.6 166.43,-548.6 166.43,-548.6 160.43,-548.6 154.43,-542.6 154.43,-536.6 154.43,-536.6 154.43,-524.6 154.43,-524.6 154.43,-518.6 160.43,-512.6 166.43,-512.6 166.43,-512.6 229.57,-512.6 229.57,-512.6 235.57,-512.6 241.57,-518.6 241.57,-524.6 241.57,-524.6 241.57,-536.6 241.57,-536.6 241.57,-542.6 235.57,-548.6 229.57,-548.6"/>
<text text-anchor="middle" x="198" y="-526.4" font-family="Helvetica,sans-Serif" font-size="14.00">TweetRead</text>
</g>
<!-- AccessTweets&#45;&gt;TweetRead -->
<g id="edge10" class="edge"><title>AccessTweets&#45;&gt;TweetRead</title>
<path fill="none" stroke="black" d="M198,-584.297C198,-576.583 198,-567.312 198,-558.712"/>
<polygon fill="black" stroke="black" points="201.5,-558.704 198,-548.704 194.5,-558.704 201.5,-558.704"/>
</g>
<!-- DrawPieChart -->
<g id="node4" class="node"><title>DrawPieChart</title>
<polygon fill="#ccffcc" stroke="black" points="260.283,-188.6 143.717,-188.6 143.717,-152.6 260.283,-152.6 260.283,-188.6"/>
<text text-anchor="middle" x="202" y="-166.4" font-family="Courier,monospace" font-size="14.00">DrawPieChart</text>
</g>
<!-- Sentiment_Result -->
<g id="node14" class="node"><title>Sentiment_Result</title>
<path fill="#ffe4b5" stroke="black" d="M138.511,-78.5C138.511,-78.5 265.489,-78.5 265.489,-78.5 271.489,-78.5 277.489,-84.5 277.489,-90.5 277.489,-90.5 277.489,-104.1 277.489,-104.1 277.489,-110.1 271.489,-116.1 265.489,-116.1 265.489,-116.1 138.511,-116.1 138.511,-116.1 132.511,-116.1 126.511,-110.1 126.511,-104.1 126.511,-104.1 126.511,-90.5 126.511,-90.5 126.511,-84.5 132.511,-78.5 138.511,-78.5"/>
<text text-anchor="middle" x="202" y="-104" font-family="Courier,monospace" font-weight="bold" font-size="9.00">[data12] Sentiment_Result</text>
<polyline fill="none" stroke="black" points="126.511,-97.3 277.489,-97.3 "/>
<text text-anchor="start" x="134.511" y="-85.2" font-family="Courier,monospace" font-weight="bold" font-size="9.00">Scores_NLTK.jpg</text>
</g>
<!-- DrawPieChart&#45;&gt;Sentiment_Result -->
<g id="edge18" class="edge"><title>DrawPieChart&#45;&gt;Sentiment_Result</title>
<path fill="none" stroke="black" d="M202,-152.34C202,-144.605 202,-135.279 202,-126.568"/>
<polygon fill="black" stroke="black" points="205.5,-126.396 202,-116.396 198.5,-126.396 205.5,-126.396"/>
</g>
<!-- TweetRead&#45;&gt;CountSentiments -->
<g id="edge6" class="edge"><title>TweetRead&#45;&gt;CountSentiments</title>
<path fill="none" stroke="black" d="M198,-512.297C198,-504.583 198,-495.312 198,-486.712"/>
<polygon fill="black" stroke="black" points="201.5,-486.704 198,-476.704 194.5,-486.704 201.5,-486.704"/>
</g>
<!-- PositiveCount&#45;&gt;Measures -->
<g id="edge8" class="edge"><title>PositiveCount&#45;&gt;Measures</title>
<path fill="none" stroke="black" d="M105.089,-368.476C121.32,-359.239 141.542,-347.731 158.971,-337.812"/>
<polygon fill="black" stroke="black" points="160.835,-340.778 167.795,-332.79 157.373,-334.694 160.835,-340.778"/>
</g>
<!-- NegativeCount&#45;&gt;Measures -->
<g id="edge1" class="edge"><title>NegativeCount&#45;&gt;Measures</title>
<path fill="none" stroke="black" d="M198,-368.297C198,-360.583 198,-351.312 198,-342.712"/>
<polygon fill="black" stroke="black" points="201.5,-342.704 198,-332.704 194.5,-342.704 201.5,-342.704"/>
</g>
<!-- NeutralCount&#45;&gt;Measures -->
<g id="edge2" class="edge"><title>NeutralCount&#45;&gt;Measures</title>
<path fill="none" stroke="black" d="M290.155,-368.476C274.056,-359.239 253.999,-347.731 236.712,-337.812"/>
<polygon fill="black" stroke="black" points="238.375,-334.731 227.959,-332.79 234.891,-340.802 238.375,-334.731"/>
</g>
<!-- Explode&#45;&gt;DrawPieChart -->
<g id="edge4" class="edge"><title>Explode&#45;&gt;DrawPieChart</title>
<path fill="none" stroke="black" d="M113.621,-224.476C128.919,-215.324 147.943,-203.942 164.418,-194.085"/>
<polygon fill="black" stroke="black" points="166.484,-196.927 173.269,-188.79 162.89,-190.92 166.484,-196.927"/>
</g>
<!-- Labels&#45;&gt;DrawPieChart -->
<g id="edge5" class="edge"><title>Labels&#45;&gt;DrawPieChart</title>
<path fill="none" stroke="black" d="M174.146,-224.297C178.403,-216.244 183.556,-206.494 188.266,-197.582"/>
<polygon fill="black" stroke="black" points="191.38,-199.181 192.959,-188.704 185.192,-195.91 191.38,-199.181"/>
</g>
<!-- Sizes&#45;&gt;DrawPieChart -->
<g id="edge7" class="edge"><title>Sizes&#45;&gt;DrawPieChart</title>
<path fill="none" stroke="black" d="M229.854,-224.297C225.597,-216.244 220.444,-206.494 215.734,-197.582"/>
<polygon fill="black" stroke="black" points="218.808,-195.91 211.041,-188.704 212.62,-199.181 218.808,-195.91"/>
</g>
<!-- Colors&#45;&gt;DrawPieChart -->
<g id="edge9" class="edge"><title>Colors&#45;&gt;DrawPieChart</title>
<path fill="none" stroke="black" d="M285.091,-224.476C270.842,-215.408 253.154,-204.152 237.764,-194.359"/>
<polygon fill="black" stroke="black" points="239.328,-191.206 229.012,-188.79 235.57,-197.111 239.328,-191.206"/>
</g>
<!-- Static_Tweets -->
<g id="node13" class="node"><title>Static_Tweets</title>
<path fill="#ffe4b5" stroke="black" d="M145.309,-657.1C145.309,-657.1 250.691,-657.1 250.691,-657.1 256.691,-657.1 262.691,-663.1 262.691,-669.1 262.691,-669.1 262.691,-682.7 262.691,-682.7 262.691,-688.7 256.691,-694.7 250.691,-694.7 250.691,-694.7 145.309,-694.7 145.309,-694.7 139.309,-694.7 133.309,-688.7 133.309,-682.7 133.309,-682.7 133.309,-669.1 133.309,-669.1 133.309,-663.1 139.309,-657.1 145.309,-657.1"/>
<text text-anchor="middle" x="198" y="-682.6" font-family="Courier,monospace" font-weight="bold" font-size="9.00">[data3] Static_Tweets</text>
<polyline fill="none" stroke="black" points="133.309,-675.9 262.691,-675.9 "/>
<text text-anchor="start" x="141.309" y="-663.8" font-family="Courier,monospace" font-weight="bold" font-size="9.00">static_tweet.csv</text>
</g>
<!-- Static_Tweets&#45;&gt;AccessTweets -->
<g id="edge3" class="edge"><title>Static_Tweets&#45;&gt;AccessTweets</title>
<path fill="none" stroke="black" d="M198,-656.908C198,-649.048 198,-639.656 198,-630.96"/>
<polygon fill="black" stroke="black" points="201.5,-630.848 198,-620.848 194.5,-630.848 201.5,-630.848"/>
</g>
<!-- Sentiment_Result_outflow -->
<g id="node16" class="node"><title>Sentiment_Result_outflow</title>
<ellipse fill="none" stroke="black" cx="202" cy="-31" rx="7" ry="7"/>
</g>
<!-- Sentiment_Result&#45;&gt;Sentiment_Result_outflow -->
<g id="edge20" class="edge"><title>Sentiment_Result&#45;&gt;Sentiment_Result_outflow</title>
<path fill="none" stroke="black" d="M202,-78.3889C202,-68.9828 202,-57.5389 202,-48.3712"/>
<polygon fill="black" stroke="black" points="205.5,-48.3008 202,-38.3008 198.5,-48.3008 205.5,-48.3008"/>
</g>
<!-- Static_Tweets_inflow -->
<g id="node15" class="node"><title>Static_Tweets_inflow</title>
<ellipse fill="none" stroke="black" cx="198" cy="-742.2" rx="7" ry="7"/>
</g>
<!-- Static_Tweets_inflow&#45;&gt;Static_Tweets -->
<g id="edge19" class="edge"><title>Static_Tweets_inflow&#45;&gt;Static_Tweets</title>
<path fill="none" stroke="black" d="M198,-734.8C198,-727.819 198,-716.163 198,-705.132"/>
<polygon fill="black" stroke="black" points="201.5,-704.921 198,-694.921 194.5,-704.921 201.5,-704.921"/>
</g>
</g>
</svg>
