<?xml version="1.0" encoding="UTF-8" standalone="no"?>
<!DOCTYPE svg PUBLIC "-//W3C//DTD SVG 1.1//EN"
 "http://www.w3.org/Graphics/SVG/1.1/DTD/svg11.dtd">
<!-- Generated by graphviz version 2.38.0 (20140413.2041)
 -->
<!-- Title: yw_data_view Pages: 1 -->
<svg width="326pt" height="811pt"
 viewBox="0.00 0.00 326.00 810.80" xmlns="http://www.w3.org/2000/svg" xmlns:xlink="http://www.w3.org/1999/xlink">
<g id="graph0" class="graph" transform="scale(1 1) rotate(0) translate(4 806.8)">
<title>yw_data_view</title>
<polygon fill="white" stroke="none" points="-4,4 -4,-806.8 322,-806.8 322,4 -4,4"/>
<text text-anchor="middle" x="159" y="-782.6" font-family="Courier,monospace" font-size="18.00">Sentiment_NLTK</text>
<g id="clust1" class="cluster"><title>cluster_workflow</title>
<polygon fill="none" stroke="black" stroke-width="2" points="8,-62 8,-711.2 310,-711.2 310,-62 8,-62"/>
</g>
<g id="clust2" class="cluster"><title>cluster_workflow_inner</title>
<polygon fill="none" stroke="white" stroke-width="2" points="16,-70 16,-703.2 302,-703.2 302,-70 16,-70"/>
</g>
<g id="clust3" class="cluster"><title>cluster_inflows</title>
<polygon fill="none" stroke="white" stroke-width="2" points="137,-719.2 137,-765.2 183,-765.2 183,-719.2 137,-719.2"/>
</g>
<g id="clust4" class="cluster"><title>cluster_inflows_inner</title>
<polygon fill="none" stroke="white" stroke-width="2" points="145,-727.2 145,-757.2 175,-757.2 175,-727.2 145,-727.2"/>
</g>
<g id="clust5" class="cluster"><title>cluster_outflows</title>
<polygon fill="none" stroke="white" stroke-width="2" points="136,-8 136,-54 182,-54 182,-8 136,-8"/>
</g>
<g id="clust6" class="cluster"><title>cluster_outflows_inner</title>
<polygon fill="none" stroke="white" stroke-width="2" points="144,-16 144,-46 174,-46 174,-16 144,-16"/>
</g>
<!-- AccessTweets -->
<g id="node1" class="node"><title>AccessTweets</title>
<polygon fill="#ccffcc" stroke="black" points="218.283,-620.6 101.717,-620.6 101.717,-584.6 218.283,-584.6 218.283,-620.6"/>
<text text-anchor="middle" x="160" y="-598.4" font-family="Courier,monospace" font-size="14.00">AccessTweets</text>
</g>
<!-- TweetRead -->
<g id="node6" class="node"><title>TweetRead</title>
<path fill="#ffffcc" stroke="black" d="M179.009,-548.6C179.009,-548.6 140.991,-548.6 140.991,-548.6 134.991,-548.6 128.991,-542.6 128.991,-536.6 128.991,-536.6 128.991,-524.6 128.991,-524.6 128.991,-518.6 134.991,-512.6 140.991,-512.6 140.991,-512.6 179.009,-512.6 179.009,-512.6 185.009,-512.6 191.009,-518.6 191.009,-524.6 191.009,-524.6 191.009,-536.6 191.009,-536.6 191.009,-542.6 185.009,-548.6 179.009,-548.6"/>
<text text-anchor="middle" x="160" y="-527.9" font-family="Helvetica,sans-Serif" font-size="9.00">TweetRead</text>
</g>
<!-- AccessTweets&#45;&gt;TweetRead -->
<g id="edge10" class="edge"><title>AccessTweets&#45;&gt;TweetRead</title>
<path fill="none" stroke="black" d="M160,-584.297C160,-576.583 160,-567.312 160,-558.712"/>
<polygon fill="black" stroke="black" points="163.5,-558.704 160,-548.704 156.5,-558.704 163.5,-558.704"/>
</g>
<!-- CountSentiments -->
<g id="node2" class="node"><title>CountSentiments</title>
<polygon fill="#ccffcc" stroke="black" points="230.979,-476.6 89.021,-476.6 89.021,-440.6 230.979,-440.6 230.979,-476.6"/>
<text text-anchor="middle" x="160" y="-454.4" font-family="Courier,monospace" font-size="14.00">CountSentiments</text>
</g>
<!-- PositiveCount -->
<g id="node7" class="node"><title>PositiveCount</title>
<path fill="#ffffcc" stroke="black" d="M91.5128,-404.6C91.5128,-404.6 44.4872,-404.6 44.4872,-404.6 38.4872,-404.6 32.4872,-398.6 32.4872,-392.6 32.4872,-392.6 32.4872,-380.6 32.4872,-380.6 32.4872,-374.6 38.4872,-368.6 44.4872,-368.6 44.4872,-368.6 91.5128,-368.6 91.5128,-368.6 97.5128,-368.6 103.513,-374.6 103.513,-380.6 103.513,-380.6 103.513,-392.6 103.513,-392.6 103.513,-398.6 97.5128,-404.6 91.5128,-404.6"/>
<text text-anchor="middle" x="68" y="-383.9" font-family="Helvetica,sans-Serif" font-size="9.00">PositiveCount</text>
</g>
<!-- CountSentiments&#45;&gt;PositiveCount -->
<g id="edge11" class="edge"><title>CountSentiments&#45;&gt;PositiveCount</title>
<path fill="none" stroke="black" d="M137.258,-440.297C125.56,-431.396 111.139,-420.423 98.4899,-410.799"/>
<polygon fill="black" stroke="black" points="100.558,-407.974 90.48,-404.704 96.3189,-413.545 100.558,-407.974"/>
</g>
<!-- NegativeCount -->
<g id="node8" class="node"><title>NegativeCount</title>
<path fill="#ffffcc" stroke="black" d="M185.517,-404.6C185.517,-404.6 134.483,-404.6 134.483,-404.6 128.483,-404.6 122.483,-398.6 122.483,-392.6 122.483,-392.6 122.483,-380.6 122.483,-380.6 122.483,-374.6 128.483,-368.6 134.483,-368.6 134.483,-368.6 185.517,-368.6 185.517,-368.6 191.517,-368.6 197.517,-374.6 197.517,-380.6 197.517,-380.6 197.517,-392.6 197.517,-392.6 197.517,-398.6 191.517,-404.6 185.517,-404.6"/>
<text text-anchor="middle" x="160" y="-383.9" font-family="Helvetica,sans-Serif" font-size="9.00">NegativeCount</text>
</g>
<!-- CountSentiments&#45;&gt;NegativeCount -->
<g id="edge12" class="edge"><title>CountSentiments&#45;&gt;NegativeCount</title>
<path fill="none" stroke="black" d="M160,-440.297C160,-432.583 160,-423.312 160,-414.712"/>
<polygon fill="black" stroke="black" points="163.5,-414.704 160,-404.704 156.5,-414.704 163.5,-414.704"/>
</g>
<!-- NeutralCount -->
<g id="node9" class="node"><title>NeutralCount</title>
<path fill="#ffffcc" stroke="black" d="M272.508,-404.6C272.508,-404.6 227.492,-404.6 227.492,-404.6 221.492,-404.6 215.492,-398.6 215.492,-392.6 215.492,-392.6 215.492,-380.6 215.492,-380.6 215.492,-374.6 221.492,-368.6 227.492,-368.6 227.492,-368.6 272.508,-368.6 272.508,-368.6 278.508,-368.6 284.508,-374.6 284.508,-380.6 284.508,-380.6 284.508,-392.6 284.508,-392.6 284.508,-398.6 278.508,-404.6 272.508,-404.6"/>
<text text-anchor="middle" x="250" y="-383.9" font-family="Helvetica,sans-Serif" font-size="9.00">NeutralCount</text>
</g>
<!-- CountSentiments&#45;&gt;NeutralCount -->
<g id="edge13" class="edge"><title>CountSentiments&#45;&gt;NeutralCount</title>
<path fill="none" stroke="black" d="M182.247,-440.297C193.582,-431.481 207.53,-420.632 219.819,-411.074"/>
<polygon fill="black" stroke="black" points="222.264,-413.607 228.009,-404.704 217.966,-408.081 222.264,-413.607"/>
</g>
<!-- Measures -->
<g id="node3" class="node"><title>Measures</title>
<polygon fill="#ccffcc" stroke="black" points="201.689,-332.6 118.311,-332.6 118.311,-296.6 201.689,-296.6 201.689,-332.6"/>
<text text-anchor="middle" x="160" y="-310.4" font-family="Courier,monospace" font-size="14.00">Measures</text>
</g>
<!-- Explode -->
<g id="node10" class="node"><title>Explode</title>
<path fill="#ffffcc" stroke="black" d="M66,-260.6C66,-260.6 36,-260.6 36,-260.6 30,-260.6 24,-254.6 24,-248.6 24,-248.6 24,-236.6 24,-236.6 24,-230.6 30,-224.6 36,-224.6 36,-224.6 66,-224.6 66,-224.6 72,-224.6 78,-230.6 78,-236.6 78,-236.6 78,-248.6 78,-248.6 78,-254.6 72,-260.6 66,-260.6"/>
<text text-anchor="middle" x="51" y="-239.9" font-family="Helvetica,sans-Serif" font-size="9.00">Explode</text>
</g>
<!-- Measures&#45;&gt;Explode -->
<g id="edge14" class="edge"><title>Measures&#45;&gt;Explode</title>
<path fill="none" stroke="black" d="M133.336,-296.476C119.216,-287.408 101.689,-276.152 86.4393,-266.359"/>
<polygon fill="black" stroke="black" points="88.0725,-263.248 77.7669,-260.79 84.2899,-269.138 88.0725,-263.248"/>
</g>
<!-- Labels -->
<g id="node11" class="node"><title>Labels</title>
<path fill="#ffffcc" stroke="black" d="M138,-260.6C138,-260.6 108,-260.6 108,-260.6 102,-260.6 96,-254.6 96,-248.6 96,-248.6 96,-236.6 96,-236.6 96,-230.6 102,-224.6 108,-224.6 108,-224.6 138,-224.6 138,-224.6 144,-224.6 150,-230.6 150,-236.6 150,-236.6 150,-248.6 150,-248.6 150,-254.6 144,-260.6 138,-260.6"/>
<text text-anchor="middle" x="123" y="-239.9" font-family="Helvetica,sans-Serif" font-size="9.00">Labels</text>
</g>
<!-- Measures&#45;&gt;Labels -->
<g id="edge15" class="edge"><title>Measures&#45;&gt;Labels</title>
<path fill="none" stroke="black" d="M150.854,-296.297C146.597,-288.244 141.444,-278.494 136.734,-269.582"/>
<polygon fill="black" stroke="black" points="139.808,-267.91 132.041,-260.704 133.62,-271.181 139.808,-267.91"/>
</g>
<!-- Sizes -->
<g id="node12" class="node"><title>Sizes</title>
<path fill="#ffffcc" stroke="black" d="M210,-260.6C210,-260.6 180,-260.6 180,-260.6 174,-260.6 168,-254.6 168,-248.6 168,-248.6 168,-236.6 168,-236.6 168,-230.6 174,-224.6 180,-224.6 180,-224.6 210,-224.6 210,-224.6 216,-224.6 222,-230.6 222,-236.6 222,-236.6 222,-248.6 222,-248.6 222,-254.6 216,-260.6 210,-260.6"/>
<text text-anchor="middle" x="195" y="-239.9" font-family="Helvetica,sans-Serif" font-size="9.00">Sizes</text>
</g>
<!-- Measures&#45;&gt;Sizes -->
<g id="edge16" class="edge"><title>Measures&#45;&gt;Sizes</title>
<path fill="none" stroke="black" d="M168.652,-296.297C172.636,-288.328 177.45,-278.7 181.868,-269.864"/>
<polygon fill="black" stroke="black" points="185.106,-271.214 186.448,-260.704 178.845,-268.083 185.106,-271.214"/>
</g>
<!-- Colors -->
<g id="node13" class="node"><title>Colors</title>
<path fill="#ffffcc" stroke="black" d="M282,-260.6C282,-260.6 252,-260.6 252,-260.6 246,-260.6 240,-254.6 240,-248.6 240,-248.6 240,-236.6 240,-236.6 240,-230.6 246,-224.6 252,-224.6 252,-224.6 282,-224.6 282,-224.6 288,-224.6 294,-230.6 294,-236.6 294,-236.6 294,-248.6 294,-248.6 294,-254.6 288,-260.6 282,-260.6"/>
<text text-anchor="middle" x="267" y="-239.9" font-family="Helvetica,sans-Serif" font-size="9.00">Colors</text>
</g>
<!-- Measures&#45;&gt;Colors -->
<g id="edge17" class="edge"><title>Measures&#45;&gt;Colors</title>
<path fill="none" stroke="black" d="M186.175,-296.476C200.036,-287.408 217.241,-276.152 232.211,-266.359"/>
<polygon fill="black" stroke="black" points="234.272,-269.193 240.724,-260.79 230.44,-263.335 234.272,-269.193"/>
</g>
<!-- DrawPieChart -->
<g id="node4" class="node"><title>DrawPieChart</title>
<polygon fill="#ccffcc" stroke="black" points="217.283,-188.6 100.717,-188.6 100.717,-152.6 217.283,-152.6 217.283,-188.6"/>
<text text-anchor="middle" x="159" y="-166.4" font-family="Courier,monospace" font-size="14.00">DrawPieChart</text>
</g>
<!-- Sentiment_Result -->
<g id="node14" class="node"><title>Sentiment_Result</title>
<path fill="#ffe4b5" stroke="black" d="M95.5113,-78.5C95.5113,-78.5 222.489,-78.5 222.489,-78.5 228.489,-78.5 234.489,-84.5 234.489,-90.5 234.489,-90.5 234.489,-104.1 234.489,-104.1 234.489,-110.1 228.489,-116.1 222.489,-116.1 222.489,-116.1 95.5113,-116.1 95.5113,-116.1 89.5113,-116.1 83.5113,-110.1 83.5113,-104.1 83.5113,-104.1 83.5113,-90.5 83.5113,-90.5 83.5113,-84.5 89.5113,-78.5 95.5113,-78.5"/>
<text text-anchor="middle" x="159" y="-104" font-family="Courier,monospace" font-weight="bold" font-size="9.00">[data12] Sentiment_Result</text>
<polyline fill="none" stroke="black" points="83.5113,-97.3 234.489,-97.3 "/>
<text text-anchor="start" x="91.5113" y="-85.2" font-family="Courier,monospace" font-weight="bold" font-size="9.00">Scores_NLTK.jpg</text>
</g>
<!-- DrawPieChart&#45;&gt;Sentiment_Result -->
<g id="edge18" class="edge"><title>DrawPieChart&#45;&gt;Sentiment_Result</title>
<path fill="none" stroke="black" d="M159,-152.34C159,-144.605 159,-135.279 159,-126.568"/>
<polygon fill="black" stroke="black" points="162.5,-126.396 159,-116.396 155.5,-126.396 162.5,-126.396"/>
</g>
<!-- Static_Tweets -->
<g id="node5" class="node"><title>Static_Tweets</title>
<path fill="#ffe4b5" stroke="black" d="M107.309,-657.1C107.309,-657.1 212.691,-657.1 212.691,-657.1 218.691,-657.1 224.691,-663.1 224.691,-669.1 224.691,-669.1 224.691,-682.7 224.691,-682.7 224.691,-688.7 218.691,-694.7 212.691,-694.7 212.691,-694.7 107.309,-694.7 107.309,-694.7 101.309,-694.7 95.3094,-688.7 95.3094,-682.7 95.3094,-682.7 95.3094,-669.1 95.3094,-669.1 95.3094,-663.1 101.309,-657.1 107.309,-657.1"/>
<text text-anchor="middle" x="160" y="-682.6" font-family="Courier,monospace" font-weight="bold" font-size="9.00">[data3] Static_Tweets</text>
<polyline fill="none" stroke="black" points="95.3094,-675.9 224.691,-675.9 "/>
<text text-anchor="start" x="103.309" y="-663.8" font-family="Courier,monospace" font-weight="bold" font-size="9.00">static_tweet.csv</text>
</g>
<!-- Static_Tweets&#45;&gt;AccessTweets -->
<g id="edge1" class="edge"><title>Static_Tweets&#45;&gt;AccessTweets</title>
<path fill="none" stroke="black" d="M160,-656.908C160,-649.048 160,-639.656 160,-630.96"/>
<polygon fill="black" stroke="black" points="163.5,-630.848 160,-620.848 156.5,-630.848 163.5,-630.848"/>
</g>
<!-- TweetRead&#45;&gt;CountSentiments -->
<g id="edge2" class="edge"><title>TweetRead&#45;&gt;CountSentiments</title>
<path fill="none" stroke="black" d="M160,-512.297C160,-504.583 160,-495.312 160,-486.712"/>
<polygon fill="black" stroke="black" points="163.5,-486.704 160,-476.704 156.5,-486.704 163.5,-486.704"/>
</g>
<!-- PositiveCount&#45;&gt;Measures -->
<g id="edge3" class="edge"><title>PositiveCount&#45;&gt;Measures</title>
<path fill="none" stroke="black" d="M90.7416,-368.297C102.44,-359.396 116.861,-348.423 129.51,-338.799"/>
<polygon fill="black" stroke="black" points="131.681,-341.545 137.52,-332.704 127.442,-335.974 131.681,-341.545"/>
</g>
<!-- NegativeCount&#45;&gt;Measures -->
<g id="edge4" class="edge"><title>NegativeCount&#45;&gt;Measures</title>
<path fill="none" stroke="black" d="M160,-368.297C160,-360.583 160,-351.312 160,-342.712"/>
<polygon fill="black" stroke="black" points="163.5,-342.704 160,-332.704 156.5,-342.704 163.5,-342.704"/>
</g>
<!-- NeutralCount&#45;&gt;Measures -->
<g id="edge5" class="edge"><title>NeutralCount&#45;&gt;Measures</title>
<path fill="none" stroke="black" d="M227.753,-368.297C216.418,-359.481 202.47,-348.632 190.181,-339.074"/>
<polygon fill="black" stroke="black" points="192.034,-336.081 181.991,-332.704 187.736,-341.607 192.034,-336.081"/>
</g>
<!-- Explode&#45;&gt;DrawPieChart -->
<g id="edge6" class="edge"><title>Explode&#45;&gt;DrawPieChart</title>
<path fill="none" stroke="black" d="M77.4198,-224.476C91.41,-215.408 108.776,-204.152 123.886,-194.359"/>
<polygon fill="black" stroke="black" points="125.991,-197.166 132.479,-188.79 122.183,-191.292 125.991,-197.166"/>
</g>
<!-- Labels&#45;&gt;DrawPieChart -->
<g id="edge7" class="edge"><title>Labels&#45;&gt;DrawPieChart</title>
<path fill="none" stroke="black" d="M131.899,-224.297C135.997,-216.328 140.949,-206.7 145.493,-197.864"/>
<polygon fill="black" stroke="black" points="148.742,-199.198 150.203,-188.704 142.517,-195.996 148.742,-199.198"/>
</g>
<!-- Sizes&#45;&gt;DrawPieChart -->
<g id="edge8" class="edge"><title>Sizes&#45;&gt;DrawPieChart</title>
<path fill="none" stroke="black" d="M186.101,-224.297C182.003,-216.328 177.051,-206.7 172.507,-197.864"/>
<polygon fill="black" stroke="black" points="175.483,-195.996 167.797,-188.704 169.258,-199.198 175.483,-195.996"/>
</g>
<!-- Colors&#45;&gt;DrawPieChart -->
<g id="edge9" class="edge"><title>Colors&#45;&gt;DrawPieChart</title>
<path fill="none" stroke="black" d="M240.58,-224.476C226.59,-215.408 209.224,-204.152 194.114,-194.359"/>
<polygon fill="black" stroke="black" points="195.817,-191.292 185.521,-188.79 192.009,-197.166 195.817,-191.292"/>
</g>
<!-- Sentiment_Result_outflow -->
<g id="node16" class="node"><title>Sentiment_Result_outflow</title>
<ellipse fill="none" stroke="black" cx="159" cy="-31" rx="7" ry="7"/>
</g>
<!-- Sentiment_Result&#45;&gt;Sentiment_Result_outflow -->
<g id="edge20" class="edge"><title>Sentiment_Result&#45;&gt;Sentiment_Result_outflow</title>
<path fill="none" stroke="black" d="M159,-78.3889C159,-68.9828 159,-57.5389 159,-48.3712"/>
<polygon fill="black" stroke="black" points="162.5,-48.3008 159,-38.3008 155.5,-48.3008 162.5,-48.3008"/>
</g>
<!-- Static_Tweets_inflow -->
<g id="node15" class="node"><title>Static_Tweets_inflow</title>
<ellipse fill="none" stroke="black" cx="160" cy="-742.2" rx="7" ry="7"/>
</g>
<!-- Static_Tweets_inflow&#45;&gt;Static_Tweets -->
<g id="edge19" class="edge"><title>Static_Tweets_inflow&#45;&gt;Static_Tweets</title>
<path fill="none" stroke="black" d="M160,-734.8C160,-727.819 160,-716.163 160,-705.132"/>
<polygon fill="black" stroke="black" points="163.5,-704.921 160,-694.921 156.5,-704.921 163.5,-704.921"/>
</g>
</g>
</svg>
