<?xml version="1.0" encoding="UTF-8" standalone="no"?>
<!DOCTYPE svg PUBLIC "-//W3C//DTD SVG 1.1//EN"
 "http://www.w3.org/Graphics/SVG/1.1/DTD/svg11.dtd">
<!-- Generated by graphviz version 2.38.0 (20140413.2041)
 -->
<!-- Title: yw_data_view Pages: 1 -->
<svg width="198pt" height="464pt"
 viewBox="0.00 0.00 198.00 463.60" xmlns="http://www.w3.org/2000/svg" xmlns:xlink="http://www.w3.org/1999/xlink">
<g id="graph0" class="graph" transform="scale(1 1) rotate(0) translate(4 459.6)">
<title>yw_data_view</title>
<polygon fill="white" stroke="none" points="-4,4 -4,-459.6 194,-459.6 194,4 -4,4"/>
<text text-anchor="middle" x="95" y="-435.4" font-family="Courier,monospace" font-size="18.00">Sentiment_NLTK</text>
<g id="clust1" class="cluster"><title>cluster_workflow</title>
<polygon fill="none" stroke="black" stroke-width="2" points="8,-8 8,-364 182,-364 182,-8 8,-8"/>
</g>
<g id="clust2" class="cluster"><title>cluster_workflow_inner</title>
<polygon fill="none" stroke="white" stroke-width="2" points="16,-16 16,-356 174,-356 174,-16 16,-16"/>
</g>
<g id="clust3" class="cluster"><title>cluster_inflows</title>
<polygon fill="none" stroke="white" stroke-width="2" points="72,-372 72,-418 118,-418 118,-372 72,-372"/>
</g>
<g id="clust4" class="cluster"><title>cluster_inflows_inner</title>
<polygon fill="none" stroke="white" stroke-width="2" points="80,-380 80,-410 110,-410 110,-380 80,-380"/>
</g>
<!-- AccessTweets -->
<g id="node1" class="node"><title>AccessTweets</title>
<polygon fill="#ccffcc" stroke="black" points="153.283,-276 36.7166,-276 36.7166,-240 153.283,-240 153.283,-276"/>
<text text-anchor="middle" x="95" y="-253.8" font-family="Courier,monospace" font-size="14.00">AccessTweets</text>
</g>
<!-- TweetRead -->
<g id="node4" class="node"><title>TweetRead</title>
<path fill="#ffffcc" stroke="black" d="M126.57,-204C126.57,-204 63.4295,-204 63.4295,-204 57.4295,-204 51.4295,-198 51.4295,-192 51.4295,-192 51.4295,-180 51.4295,-180 51.4295,-174 57.4295,-168 63.4295,-168 63.4295,-168 126.57,-168 126.57,-168 132.57,-168 138.57,-174 138.57,-180 138.57,-180 138.57,-192 138.57,-192 138.57,-198 132.57,-204 126.57,-204"/>
<text text-anchor="middle" x="95" y="-181.8" font-family="Helvetica,sans-Serif" font-size="14.00">TweetRead</text>
</g>
<!-- AccessTweets&#45;&gt;TweetRead -->
<g id="edge3" class="edge"><title>AccessTweets&#45;&gt;TweetRead</title>
<path fill="none" stroke="black" d="M95,-239.697C95,-231.983 95,-222.712 95,-214.112"/>
<polygon fill="black" stroke="black" points="98.5001,-214.104 95,-204.104 91.5001,-214.104 98.5001,-214.104"/>
</g>
<!-- CountSentiments -->
<g id="node2" class="node"><title>CountSentiments</title>
<polygon fill="#ccffcc" stroke="black" points="165.979,-132 24.021,-132 24.021,-96 165.979,-96 165.979,-132"/>
<text text-anchor="middle" x="95" y="-109.8" font-family="Courier,monospace" font-size="14.00">CountSentiments</text>
</g>
<!-- NegativeCount -->
<g id="node5" class="node"><title>NegativeCount</title>
<path fill="#ffffcc" stroke="black" d="M137.08,-60C137.08,-60 52.92,-60 52.92,-60 46.92,-60 40.92,-54 40.92,-48 40.92,-48 40.92,-36 40.92,-36 40.92,-30 46.92,-24 52.92,-24 52.92,-24 137.08,-24 137.08,-24 143.08,-24 149.08,-30 149.08,-36 149.08,-36 149.08,-48 149.08,-48 149.08,-54 143.08,-60 137.08,-60"/>
<text text-anchor="middle" x="95" y="-37.8" font-family="Helvetica,sans-Serif" font-size="14.00">NegativeCount</text>
</g>
<!-- CountSentiments&#45;&gt;NegativeCount -->
<g id="edge4" class="edge"><title>CountSentiments&#45;&gt;NegativeCount</title>
<path fill="none" stroke="black" d="M95,-95.6966C95,-87.9827 95,-78.7125 95,-70.1124"/>
<polygon fill="black" stroke="black" points="98.5001,-70.1043 95,-60.1043 91.5001,-70.1044 98.5001,-70.1043"/>
</g>
<!-- Static_Tweets -->
<g id="node3" class="node"><title>Static_Tweets</title>
<path fill="#ffffcc" stroke="black" d="M134.905,-348C134.905,-348 55.0954,-348 55.0954,-348 49.0954,-348 43.0954,-342 43.0954,-336 43.0954,-336 43.0954,-324 43.0954,-324 43.0954,-318 49.0954,-312 55.0954,-312 55.0954,-312 134.905,-312 134.905,-312 140.905,-312 146.905,-318 146.905,-324 146.905,-324 146.905,-336 146.905,-336 146.905,-342 140.905,-348 134.905,-348"/>
<text text-anchor="middle" x="95" y="-325.8" font-family="Helvetica,sans-Serif" font-size="14.00">Static_Tweets</text>
</g>
<!-- Static_Tweets&#45;&gt;AccessTweets -->
<g id="edge2" class="edge"><title>Static_Tweets&#45;&gt;AccessTweets</title>
<path fill="none" stroke="black" d="M95,-311.697C95,-303.983 95,-294.712 95,-286.112"/>
<polygon fill="black" stroke="black" points="98.5001,-286.104 95,-276.104 91.5001,-286.104 98.5001,-286.104"/>
</g>
<!-- TweetRead&#45;&gt;CountSentiments -->
<g id="edge1" class="edge"><title>TweetRead&#45;&gt;CountSentiments</title>
<path fill="none" stroke="black" d="M95,-167.697C95,-159.983 95,-150.712 95,-142.112"/>
<polygon fill="black" stroke="black" points="98.5001,-142.104 95,-132.104 91.5001,-142.104 98.5001,-142.104"/>
</g>
<!-- Static_Tweets_inflow -->
<g id="node6" class="node"><title>Static_Tweets_inflow</title>
<ellipse fill="none" stroke="black" cx="95" cy="-395" rx="7" ry="7"/>
</g>
<!-- Static_Tweets_inflow&#45;&gt;Static_Tweets -->
<g id="edge5" class="edge"><title>Static_Tweets_inflow&#45;&gt;Static_Tweets</title>
<path fill="none" stroke="black" d="M95,-387.729C95,-380.795 95,-369.154 95,-358.215"/>
<polygon fill="black" stroke="black" points="98.5001,-358.119 95,-348.119 91.5001,-358.119 98.5001,-358.119"/>
</g>
</g>
</svg>
