<?xml version="1.0" encoding="UTF-8" standalone="no"?>
<!DOCTYPE svg PUBLIC "-//W3C//DTD SVG 1.1//EN"
 "http://www.w3.org/Graphics/SVG/1.1/DTD/svg11.dtd">
<!-- Generated by graphviz version 2.38.0 (20140413.2041)
 -->
<!-- Title: yw_data_view Pages: 1 -->
<svg width="401pt" height="608pt"
 viewBox="0.00 0.00 401.00 607.60" xmlns="http://www.w3.org/2000/svg" xmlns:xlink="http://www.w3.org/1999/xlink">
<g id="graph0" class="graph" transform="scale(1 1) rotate(0) translate(4 603.6)">
<title>yw_data_view</title>
<polygon fill="white" stroke="none" points="-4,4 -4,-603.6 397,-603.6 397,4 -4,4"/>
<text text-anchor="middle" x="196.5" y="-579.4" font-family="Courier,monospace" font-size="18.00">Sentiment_NLTK</text>
<g id="clust1" class="cluster"><title>cluster_workflow</title>
<polygon fill="none" stroke="black" stroke-width="2" points="8,-8 8,-508 385,-508 385,-8 8,-8"/>
</g>
<g id="clust2" class="cluster"><title>cluster_workflow_inner</title>
<polygon fill="none" stroke="white" stroke-width="2" points="16,-16 16,-500 377,-500 377,-16 16,-16"/>
</g>
<g id="clust3" class="cluster"><title>cluster_inflows</title>
<polygon fill="none" stroke="white" stroke-width="2" points="175,-516 175,-562 221,-562 221,-516 175,-516"/>
</g>
<g id="clust4" class="cluster"><title>cluster_inflows_inner</title>
<polygon fill="none" stroke="white" stroke-width="2" points="183,-524 183,-554 213,-554 213,-524 183,-524"/>
</g>
<!-- CountSentiments -->
<g id="node1" class="node"><title>CountSentiments</title>
<polygon fill="#ccffcc" stroke="black" points="268.979,-276 127.021,-276 127.021,-240 268.979,-240 268.979,-276"/>
<text text-anchor="middle" x="198" y="-253.8" font-family="Courier,monospace" font-size="14.00">CountSentiments</text>
</g>
<!-- PositiveCount -->
<g id="node6" class="node"><title>PositiveCount</title>
<path fill="#ffffcc" stroke="black" d="M114.351,-204C114.351,-204 35.6488,-204 35.6488,-204 29.6488,-204 23.6488,-198 23.6488,-192 23.6488,-192 23.6488,-180 23.6488,-180 23.6488,-174 29.6488,-168 35.6488,-168 35.6488,-168 114.351,-168 114.351,-168 120.351,-168 126.351,-174 126.351,-180 126.351,-180 126.351,-192 126.351,-192 126.351,-198 120.351,-204 114.351,-204"/>
<text text-anchor="middle" x="75" y="-181.8" font-family="Helvetica,sans-Serif" font-size="14.00">PositiveCount</text>
</g>
<!-- CountSentiments&#45;&gt;PositiveCount -->
<g id="edge7" class="edge"><title>CountSentiments&#45;&gt;PositiveCount</title>
<path fill="none" stroke="black" d="M167.911,-239.876C151.68,-230.639 131.458,-219.131 114.029,-209.212"/>
<polygon fill="black" stroke="black" points="115.627,-206.094 105.205,-204.19 112.165,-212.178 115.627,-206.094"/>
</g>
<!-- NegativeCount -->
<g id="node7" class="node"><title>NegativeCount</title>
<path fill="#ffffcc" stroke="black" d="M240.08,-204C240.08,-204 155.92,-204 155.92,-204 149.92,-204 143.92,-198 143.92,-192 143.92,-192 143.92,-180 143.92,-180 143.92,-174 149.92,-168 155.92,-168 155.92,-168 240.08,-168 240.08,-168 246.08,-168 252.08,-174 252.08,-180 252.08,-180 252.08,-192 252.08,-192 252.08,-198 246.08,-204 240.08,-204"/>
<text text-anchor="middle" x="198" y="-181.8" font-family="Helvetica,sans-Serif" font-size="14.00">NegativeCount</text>
</g>
<!-- CountSentiments&#45;&gt;NegativeCount -->
<g id="edge8" class="edge"><title>CountSentiments&#45;&gt;NegativeCount</title>
<path fill="none" stroke="black" d="M198,-239.697C198,-231.983 198,-222.712 198,-214.112"/>
<polygon fill="black" stroke="black" points="201.5,-214.104 198,-204.104 194.5,-214.104 201.5,-214.104"/>
</g>
<!-- NeutralCount -->
<g id="node8" class="node"><title>NeutralCount</title>
<path fill="#ffffcc" stroke="black" d="M357.458,-204C357.458,-204 282.542,-204 282.542,-204 276.542,-204 270.542,-198 270.542,-192 270.542,-192 270.542,-180 270.542,-180 270.542,-174 276.542,-168 282.542,-168 282.542,-168 357.458,-168 357.458,-168 363.458,-168 369.458,-174 369.458,-180 369.458,-180 369.458,-192 369.458,-192 369.458,-198 363.458,-204 357.458,-204"/>
<text text-anchor="middle" x="320" y="-181.8" font-family="Helvetica,sans-Serif" font-size="14.00">NeutralCount</text>
</g>
<!-- CountSentiments&#45;&gt;NeutralCount -->
<g id="edge9" class="edge"><title>CountSentiments&#45;&gt;NeutralCount</title>
<path fill="none" stroke="black" d="M227.845,-239.876C243.944,-230.639 264.001,-219.131 281.288,-209.212"/>
<polygon fill="black" stroke="black" points="283.109,-212.202 290.041,-204.19 279.625,-206.131 283.109,-212.202"/>
</g>
<!-- AccessTweets -->
<g id="node2" class="node"><title>AccessTweets</title>
<polygon fill="#ccffcc" stroke="black" points="256.283,-420 139.717,-420 139.717,-384 256.283,-384 256.283,-420"/>
<text text-anchor="middle" x="198" y="-397.8" font-family="Courier,monospace" font-size="14.00">AccessTweets</text>
</g>
<!-- TweetRead -->
<g id="node5" class="node"><title>TweetRead</title>
<path fill="#ffffcc" stroke="black" d="M229.57,-348C229.57,-348 166.43,-348 166.43,-348 160.43,-348 154.43,-342 154.43,-336 154.43,-336 154.43,-324 154.43,-324 154.43,-318 160.43,-312 166.43,-312 166.43,-312 229.57,-312 229.57,-312 235.57,-312 241.57,-318 241.57,-324 241.57,-324 241.57,-336 241.57,-336 241.57,-342 235.57,-348 229.57,-348"/>
<text text-anchor="middle" x="198" y="-325.8" font-family="Helvetica,sans-Serif" font-size="14.00">TweetRead</text>
</g>
<!-- AccessTweets&#45;&gt;TweetRead -->
<g id="edge6" class="edge"><title>AccessTweets&#45;&gt;TweetRead</title>
<path fill="none" stroke="black" d="M198,-383.697C198,-375.983 198,-366.712 198,-358.112"/>
<polygon fill="black" stroke="black" points="201.5,-358.104 198,-348.104 194.5,-358.104 201.5,-358.104"/>
</g>
<!-- Measures -->
<g id="node3" class="node"><title>Measures</title>
<polygon fill="#ccffcc" stroke="black" points="239.689,-132 156.311,-132 156.311,-96 239.689,-96 239.689,-132"/>
<text text-anchor="middle" x="198" y="-109.8" font-family="Courier,monospace" font-size="14.00">Measures</text>
</g>
<!-- Sizes -->
<g id="node9" class="node"><title>Sizes</title>
<path fill="#ffffcc" stroke="black" d="M213,-60C213,-60 183,-60 183,-60 177,-60 171,-54 171,-48 171,-48 171,-36 171,-36 171,-30 177,-24 183,-24 183,-24 213,-24 213,-24 219,-24 225,-30 225,-36 225,-36 225,-48 225,-48 225,-54 219,-60 213,-60"/>
<text text-anchor="middle" x="198" y="-37.8" font-family="Helvetica,sans-Serif" font-size="14.00">Sizes</text>
</g>
<!-- Measures&#45;&gt;Sizes -->
<g id="edge10" class="edge"><title>Measures&#45;&gt;Sizes</title>
<path fill="none" stroke="black" d="M198,-95.6966C198,-87.9827 198,-78.7125 198,-70.1124"/>
<polygon fill="black" stroke="black" points="201.5,-70.1043 198,-60.1043 194.5,-70.1044 201.5,-70.1043"/>
</g>
<!-- Static_Tweets -->
<g id="node4" class="node"><title>Static_Tweets</title>
<path fill="#ffffcc" stroke="black" d="M237.905,-492C237.905,-492 158.095,-492 158.095,-492 152.095,-492 146.095,-486 146.095,-480 146.095,-480 146.095,-468 146.095,-468 146.095,-462 152.095,-456 158.095,-456 158.095,-456 237.905,-456 237.905,-456 243.905,-456 249.905,-462 249.905,-468 249.905,-468 249.905,-480 249.905,-480 249.905,-486 243.905,-492 237.905,-492"/>
<text text-anchor="middle" x="198" y="-469.8" font-family="Helvetica,sans-Serif" font-size="14.00">Static_Tweets</text>
</g>
<!-- Static_Tweets&#45;&gt;AccessTweets -->
<g id="edge5" class="edge"><title>Static_Tweets&#45;&gt;AccessTweets</title>
<path fill="none" stroke="black" d="M198,-455.697C198,-447.983 198,-438.712 198,-430.112"/>
<polygon fill="black" stroke="black" points="201.5,-430.104 198,-420.104 194.5,-430.104 201.5,-430.104"/>
</g>
<!-- TweetRead&#45;&gt;CountSentiments -->
<g id="edge4" class="edge"><title>TweetRead&#45;&gt;CountSentiments</title>
<path fill="none" stroke="black" d="M198,-311.697C198,-303.983 198,-294.712 198,-286.112"/>
<polygon fill="black" stroke="black" points="201.5,-286.104 198,-276.104 194.5,-286.104 201.5,-286.104"/>
</g>
<!-- PositiveCount&#45;&gt;Measures -->
<g id="edge3" class="edge"><title>PositiveCount&#45;&gt;Measures</title>
<path fill="none" stroke="black" d="M105.089,-167.876C121.32,-158.639 141.542,-147.131 158.971,-137.212"/>
<polygon fill="black" stroke="black" points="160.835,-140.178 167.795,-132.19 157.373,-134.094 160.835,-140.178"/>
</g>
<!-- NegativeCount&#45;&gt;Measures -->
<g id="edge2" class="edge"><title>NegativeCount&#45;&gt;Measures</title>
<path fill="none" stroke="black" d="M198,-167.697C198,-159.983 198,-150.712 198,-142.112"/>
<polygon fill="black" stroke="black" points="201.5,-142.104 198,-132.104 194.5,-142.104 201.5,-142.104"/>
</g>
<!-- NeutralCount&#45;&gt;Measures -->
<g id="edge1" class="edge"><title>NeutralCount&#45;&gt;Measures</title>
<path fill="none" stroke="black" d="M290.155,-167.876C274.056,-158.639 253.999,-147.131 236.712,-137.212"/>
<polygon fill="black" stroke="black" points="238.375,-134.131 227.959,-132.19 234.891,-140.202 238.375,-134.131"/>
</g>
<!-- Static_Tweets_inflow -->
<g id="node10" class="node"><title>Static_Tweets_inflow</title>
<ellipse fill="none" stroke="black" cx="198" cy="-539" rx="7" ry="7"/>
</g>
<!-- Static_Tweets_inflow&#45;&gt;Static_Tweets -->
<g id="edge11" class="edge"><title>Static_Tweets_inflow&#45;&gt;Static_Tweets</title>
<path fill="none" stroke="black" d="M198,-531.729C198,-524.795 198,-513.154 198,-502.215"/>
<polygon fill="black" stroke="black" points="201.5,-502.119 198,-492.119 194.5,-502.119 201.5,-502.119"/>
</g>
</g>
</svg>
