<?xml version="1.0" encoding="UTF-8" standalone="no"?>
<!DOCTYPE svg PUBLIC "-//W3C//DTD SVG 1.1//EN"
 "http://www.w3.org/Graphics/SVG/1.1/DTD/svg11.dtd">
<!-- Generated by graphviz version 2.38.0 (20140413.2041)
 -->
<!-- Title: yw_data_view Pages: 1 -->
<svg width="175pt" height="320pt"
 viewBox="0.00 0.00 175.17 319.60" xmlns="http://www.w3.org/2000/svg" xmlns:xlink="http://www.w3.org/1999/xlink">
<g id="graph0" class="graph" transform="scale(1 1) rotate(0) translate(4 315.6)">
<title>yw_data_view</title>
<polygon fill="white" stroke="none" points="-4,4 -4,-315.6 171.175,-315.6 171.175,4 -4,4"/>
<text text-anchor="middle" x="83.5874" y="-291.4" font-family="Courier,monospace" font-size="18.00">Sentiment_NLTK</text>
<g id="clust1" class="cluster"><title>cluster_workflow</title>
<polygon fill="none" stroke="black" stroke-width="2" points="9.5874,-8 9.5874,-220 157.587,-220 157.587,-8 9.5874,-8"/>
</g>
<g id="clust2" class="cluster"><title>cluster_workflow_inner</title>
<polygon fill="none" stroke="white" stroke-width="2" points="17.5874,-16 17.5874,-212 149.587,-212 149.587,-16 17.5874,-16"/>
</g>
<g id="clust3" class="cluster"><title>cluster_inflows</title>
<polygon fill="none" stroke="white" stroke-width="2" points="60.5874,-228 60.5874,-274 106.587,-274 106.587,-228 60.5874,-228"/>
</g>
<g id="clust4" class="cluster"><title>cluster_inflows_inner</title>
<polygon fill="none" stroke="white" stroke-width="2" points="68.5874,-236 68.5874,-266 98.5874,-266 98.5874,-236 68.5874,-236"/>
</g>
<!-- AccessTweets -->
<g id="node1" class="node"><title>AccessTweets</title>
<polygon fill="#ccffcc" stroke="black" points="141.871,-132 25.304,-132 25.304,-96 141.871,-96 141.871,-132"/>
<text text-anchor="middle" x="83.5874" y="-109.8" font-family="Courier,monospace" font-size="14.00">AccessTweets</text>
</g>
<!-- TweetRead -->
<g id="node3" class="node"><title>TweetRead</title>
<path fill="#ffffcc" stroke="black" d="M115.158,-60C115.158,-60 52.0169,-60 52.0169,-60 46.0169,-60 40.0169,-54 40.0169,-48 40.0169,-48 40.0169,-36 40.0169,-36 40.0169,-30 46.0169,-24 52.0169,-24 52.0169,-24 115.158,-24 115.158,-24 121.158,-24 127.158,-30 127.158,-36 127.158,-36 127.158,-48 127.158,-48 127.158,-54 121.158,-60 115.158,-60"/>
<text text-anchor="middle" x="83.5874" y="-37.8" font-family="Helvetica,sans-Serif" font-size="14.00">TweetRead</text>
</g>
<!-- AccessTweets&#45;&gt;TweetRead -->
<g id="edge2" class="edge"><title>AccessTweets&#45;&gt;TweetRead</title>
<path fill="none" stroke="black" d="M83.5874,-95.6966C83.5874,-87.9827 83.5874,-78.7125 83.5874,-70.1124"/>
<polygon fill="black" stroke="black" points="87.0875,-70.1043 83.5874,-60.1043 80.0875,-70.1044 87.0875,-70.1043"/>
</g>
<!-- Static_Tweets -->
<g id="node2" class="node"><title>Static_Tweets</title>
<path fill="#ffffcc" stroke="black" d="M123.492,-204C123.492,-204 43.6828,-204 43.6828,-204 37.6828,-204 31.6828,-198 31.6828,-192 31.6828,-192 31.6828,-180 31.6828,-180 31.6828,-174 37.6828,-168 43.6828,-168 43.6828,-168 123.492,-168 123.492,-168 129.492,-168 135.492,-174 135.492,-180 135.492,-180 135.492,-192 135.492,-192 135.492,-198 129.492,-204 123.492,-204"/>
<text text-anchor="middle" x="83.5874" y="-181.8" font-family="Helvetica,sans-Serif" font-size="14.00">Static_Tweets</text>
</g>
<!-- Static_Tweets&#45;&gt;AccessTweets -->
<g id="edge1" class="edge"><title>Static_Tweets&#45;&gt;AccessTweets</title>
<path fill="none" stroke="black" d="M83.5874,-167.697C83.5874,-159.983 83.5874,-150.712 83.5874,-142.112"/>
<polygon fill="black" stroke="black" points="87.0875,-142.104 83.5874,-132.104 80.0875,-142.104 87.0875,-142.104"/>
</g>
<!-- Static_Tweets_inflow -->
<g id="node4" class="node"><title>Static_Tweets_inflow</title>
<ellipse fill="none" stroke="black" cx="83.5874" cy="-251" rx="7" ry="7"/>
</g>
<!-- Static_Tweets_inflow&#45;&gt;Static_Tweets -->
<g id="edge3" class="edge"><title>Static_Tweets_inflow&#45;&gt;Static_Tweets</title>
<path fill="none" stroke="black" d="M83.5874,-243.729C83.5874,-236.795 83.5874,-225.154 83.5874,-214.215"/>
<polygon fill="black" stroke="black" points="87.0875,-214.119 83.5874,-204.119 80.0875,-214.119 87.0875,-214.119"/>
</g>
</g>
</svg>
