<?xml version="1.0" encoding="UTF-8" standalone="no"?>
<!DOCTYPE svg PUBLIC "-//W3C//DTD SVG 1.1//EN"
 "http://www.w3.org/Graphics/SVG/1.1/DTD/svg11.dtd">
<!-- Generated by graphviz version 2.36.0 (20140111.2315)
 -->
<!-- Title: Workflow Pages: 1 -->
<svg width="412pt" height="876pt"
 viewBox="0.00 0.00 412.00 876.00" xmlns="http://www.w3.org/2000/svg" xmlns:xlink="http://www.w3.org/1999/xlink">
<g id="graph0" class="graph" transform="scale(1 1) rotate(0) translate(4 872)">
<title>Workflow</title>
<polygon fill="white" stroke="none" points="-4,4 -4,-872 408,-872 408,4 -4,4"/>
<text text-anchor="middle" x="202" y="-849.6" font-family="Courier,monospace" font-size="18.00">Sentiment_DatumBox</text>
<g id="clust1" class="cluster"><title>cluster_workflow_box_outer</title>
<polygon fill="none" stroke="black" stroke-width="2" points="8,-62 8,-778 396,-778 396,-62 8,-62"/>
</g>
<g id="clust2" class="cluster"><title>cluster_workflow_box_inner</title>
<polygon fill="none" stroke="white" stroke-width="2" points="16,-70 16,-770 388,-770 388,-70 16,-70"/>
</g>
<g id="clust3" class="cluster"><title>cluster_input_ports_group_outer</title>
<polygon fill="none" stroke="white" points="178,-786 178,-832 224,-832 224,-786 178,-786"/>
</g>
<g id="clust4" class="cluster"><title>cluster_input_ports_group_inner</title>
<polygon fill="none" stroke="white" points="186,-794 186,-824 216,-824 216,-794 186,-794"/>
</g>
<g id="clust5" class="cluster"><title>cluster_output_ports_group_outer</title>
<polygon fill="none" stroke="white" points="179,-8 179,-54 225,-54 225,-8 179,-8"/>
</g>
<g id="clust6" class="cluster"><title>cluster_output_ports_group_inner</title>
<polygon fill="none" stroke="white" points="187,-16 187,-46 217,-46 217,-16 187,-16"/>
</g>
<!-- AccessTweets -->
<g id="node1" class="node"><title>AccessTweets</title>
<polygon fill="#ccffcc" stroke="black" points="36,-631 36,-677 366,-677 366,-631 36,-631"/>
<text text-anchor="middle" x="201" y="-661.8" font-family="Courier,monospace" font-size="14.00">AccessTweets</text>
<polyline fill="none" stroke="black" points="36,-654 366,-654 "/>
<text text-anchor="middle" x="201" y="-638.8" font-family="Courier,monospace" font-size="14.00">To read the tweets from tweet.csv file</text>
</g>
<!-- TweetRead -->
<g id="node7" class="node"><title>TweetRead</title>
<path fill="#ffffcc" stroke="black" d="M232,-594C232,-594 170,-594 170,-594 164,-594 158,-588 158,-582 158,-582 158,-570 158,-570 158,-564 164,-558 170,-558 170,-558 232,-558 232,-558 238,-558 244,-564 244,-570 244,-570 244,-582 244,-582 244,-588 238,-594 232,-594"/>
<text text-anchor="middle" x="201" y="-572.3" font-family="Helvetica,sans-Serif" font-size="14.00">TweetRead</text>
</g>
<!-- AccessTweets&#45;&gt;TweetRead -->
<g id="edge1" class="edge"><title>AccessTweets&#45;&gt;TweetRead</title>
<path fill="none" stroke="black" d="M201,-630.609C201,-622.481 201,-613.2 201,-604.671"/>
<polygon fill="black" stroke="black" points="204.5,-604.412 201,-594.412 197.5,-604.412 204.5,-604.412"/>
</g>
<!-- CountSentiments -->
<g id="node2" class="node"><title>CountSentiments</title>
<polygon fill="#ccffcc" stroke="black" points="52.5,-475 52.5,-521 349.5,-521 349.5,-475 52.5,-475"/>
<text text-anchor="middle" x="201" y="-505.8" font-family="Courier,monospace" font-size="14.00">CountSentiments</text>
<polyline fill="none" stroke="black" points="52.5,-498 349.5,-498 "/>
<text text-anchor="middle" x="201" y="-482.8" font-family="Courier,monospace" font-size="14.00">Calculate sentiments with DatumBox</text>
</g>
<!-- PositiveCount -->
<g id="node8" class="node"><title>PositiveCount</title>
<path fill="#ffffcc" stroke="black" d="M118,-438C118,-438 42,-438 42,-438 36,-438 30,-432 30,-426 30,-426 30,-414 30,-414 30,-408 36,-402 42,-402 42,-402 118,-402 118,-402 124,-402 130,-408 130,-414 130,-414 130,-426 130,-426 130,-432 124,-438 118,-438"/>
<text text-anchor="middle" x="80" y="-416.3" font-family="Helvetica,sans-Serif" font-size="14.00">PositiveCount</text>
</g>
<!-- CountSentiments&#45;&gt;PositiveCount -->
<g id="edge3" class="edge"><title>CountSentiments&#45;&gt;PositiveCount</title>
<path fill="none" stroke="black" d="M165.677,-474.813C150.049,-464.998 131.694,-453.469 115.99,-443.605"/>
<polygon fill="black" stroke="black" points="117.421,-440.371 107.091,-438.016 113.698,-446.299 117.421,-440.371"/>
</g>
<!-- NegativeCount -->
<g id="node9" class="node"><title>NegativeCount</title>
<path fill="#ffffcc" stroke="black" d="M241.5,-438C241.5,-438 160.5,-438 160.5,-438 154.5,-438 148.5,-432 148.5,-426 148.5,-426 148.5,-414 148.5,-414 148.5,-408 154.5,-402 160.5,-402 160.5,-402 241.5,-402 241.5,-402 247.5,-402 253.5,-408 253.5,-414 253.5,-414 253.5,-426 253.5,-426 253.5,-432 247.5,-438 241.5,-438"/>
<text text-anchor="middle" x="201" y="-416.3" font-family="Helvetica,sans-Serif" font-size="14.00">NegativeCount</text>
</g>
<!-- CountSentiments&#45;&gt;NegativeCount -->
<g id="edge4" class="edge"><title>CountSentiments&#45;&gt;NegativeCount</title>
<path fill="none" stroke="black" d="M201,-474.609C201,-466.481 201,-457.2 201,-448.671"/>
<polygon fill="black" stroke="black" points="204.5,-448.412 201,-438.412 197.5,-448.412 204.5,-448.412"/>
</g>
<!-- NeutralCount -->
<g id="node10" class="node"><title>NeutralCount</title>
<path fill="#ffffcc" stroke="black" d="M356,-438C356,-438 284,-438 284,-438 278,-438 272,-432 272,-426 272,-426 272,-414 272,-414 272,-408 278,-402 284,-402 284,-402 356,-402 356,-402 362,-402 368,-408 368,-414 368,-414 368,-426 368,-426 368,-432 362,-438 356,-438"/>
<text text-anchor="middle" x="320" y="-416.3" font-family="Helvetica,sans-Serif" font-size="14.00">NeutralCount</text>
</g>
<!-- CountSentiments&#45;&gt;NeutralCount -->
<g id="edge5" class="edge"><title>CountSentiments&#45;&gt;NeutralCount</title>
<path fill="none" stroke="black" d="M235.74,-474.813C251.109,-464.998 269.16,-453.469 284.605,-443.605"/>
<polygon fill="black" stroke="black" points="286.813,-446.348 293.357,-438.016 283.045,-440.449 286.813,-446.348"/>
</g>
<!-- Measures -->
<g id="node3" class="node"><title>Measures</title>
<polygon fill="#ccffcc" stroke="black" points="114.5,-319 114.5,-365 287.5,-365 287.5,-319 114.5,-319"/>
<text text-anchor="middle" x="201" y="-349.8" font-family="Courier,monospace" font-size="14.00">Measures</text>
<polyline fill="none" stroke="black" points="114.5,-342 287.5,-342 "/>
<text text-anchor="middle" x="201" y="-326.8" font-family="Courier,monospace" font-size="14.00">SetPieChartMeasures</text>
</g>
<!-- Sizes -->
<g id="node11" class="node"><title>Sizes</title>
<path fill="#ffffcc" stroke="black" d="M101,-282C101,-282 71,-282 71,-282 65,-282 59,-276 59,-270 59,-270 59,-258 59,-258 59,-252 65,-246 71,-246 71,-246 101,-246 101,-246 107,-246 113,-252 113,-258 113,-258 113,-270 113,-270 113,-276 107,-282 101,-282"/>
<text text-anchor="middle" x="86" y="-260.3" font-family="Helvetica,sans-Serif" font-size="14.00">Sizes</text>
</g>
<!-- Measures&#45;&gt;Sizes -->
<g id="edge9" class="edge"><title>Measures&#45;&gt;Sizes</title>
<path fill="none" stroke="black" d="M167.428,-318.813C152.576,-308.998 135.131,-297.469 120.206,-287.605"/>
<polygon fill="black" stroke="black" points="122.02,-284.61 111.748,-282.016 118.161,-290.449 122.02,-284.61"/>
</g>
<!-- Explode -->
<g id="node12" class="node"><title>Explode</title>
<path fill="#fcfcfc" stroke="black" d="M184.25,-282C184.25,-282 143.75,-282 143.75,-282 137.75,-282 131.75,-276 131.75,-270 131.75,-270 131.75,-258 131.75,-258 131.75,-252 137.75,-246 143.75,-246 143.75,-246 184.25,-246 184.25,-246 190.25,-246 196.25,-252 196.25,-258 196.25,-258 196.25,-270 196.25,-270 196.25,-276 190.25,-282 184.25,-282"/>
<text text-anchor="middle" x="164" y="-260.3" font-family="Helvetica,sans-Serif" font-size="14.00">Explode</text>
</g>
<!-- Measures&#45;&gt;Explode -->
<g id="edge7" class="edge"><title>Measures&#45;&gt;Explode</title>
<path fill="none" stroke="black" d="M190.099,-318.609C185.966,-310.12 181.221,-300.373 176.92,-291.538"/>
<polygon fill="black" stroke="black" points="180.001,-289.871 172.477,-282.412 173.707,-292.935 180.001,-289.871"/>
</g>
<!-- Labels -->
<g id="node13" class="node"><title>Labels</title>
<path fill="#fcfcfc" stroke="black" d="M258.5,-282C258.5,-282 227.5,-282 227.5,-282 221.5,-282 215.5,-276 215.5,-270 215.5,-270 215.5,-258 215.5,-258 215.5,-252 221.5,-246 227.5,-246 227.5,-246 258.5,-246 258.5,-246 264.5,-246 270.5,-252 270.5,-258 270.5,-258 270.5,-270 270.5,-270 270.5,-276 264.5,-282 258.5,-282"/>
<text text-anchor="middle" x="243" y="-260.3" font-family="Helvetica,sans-Serif" font-size="14.00">Labels</text>
</g>
<!-- Measures&#45;&gt;Labels -->
<g id="edge8" class="edge"><title>Measures&#45;&gt;Labels</title>
<path fill="none" stroke="black" d="M213.374,-318.609C218.115,-310.029 223.566,-300.165 228.49,-291.257"/>
<polygon fill="black" stroke="black" points="231.604,-292.857 233.378,-282.412 225.477,-289.472 231.604,-292.857"/>
</g>
<!-- Colors -->
<g id="node14" class="node"><title>Colors</title>
<path fill="#fcfcfc" stroke="black" d="M332.5,-282C332.5,-282 301.5,-282 301.5,-282 295.5,-282 289.5,-276 289.5,-270 289.5,-270 289.5,-258 289.5,-258 289.5,-252 295.5,-246 301.5,-246 301.5,-246 332.5,-246 332.5,-246 338.5,-246 344.5,-252 344.5,-258 344.5,-258 344.5,-270 344.5,-270 344.5,-276 338.5,-282 332.5,-282"/>
<text text-anchor="middle" x="317" y="-260.3" font-family="Helvetica,sans-Serif" font-size="14.00">Colors</text>
</g>
<!-- Measures&#45;&gt;Colors -->
<g id="edge10" class="edge"><title>Measures&#45;&gt;Colors</title>
<path fill="none" stroke="black" d="M234.864,-318.813C249.845,-308.998 267.442,-297.469 282.497,-287.605"/>
<polygon fill="black" stroke="black" points="284.582,-290.424 291.028,-282.016 280.746,-284.569 284.582,-290.424"/>
</g>
<!-- DrawPieChart -->
<g id="node4" class="node"><title>DrawPieChart</title>
<polygon fill="#ccffcc" stroke="black" points="24.5,-163 24.5,-209 379.5,-209 379.5,-163 24.5,-163"/>
<text text-anchor="middle" x="202" y="-193.8" font-family="Courier,monospace" font-size="14.00">DrawPieChart</text>
<polyline fill="none" stroke="black" points="24.5,-186 379.5,-186 "/>
<text text-anchor="middle" x="202" y="-170.8" font-family="Courier,monospace" font-size="14.00">Pie chart saved in Scores_DatumboxAPI.jpg</text>
</g>
<!-- Sentiment_Result -->
<g id="node5" class="node"><title>Sentiment_Result</title>
<path fill="#ffffcc" stroke="black" d="M128.5,-79C128.5,-79 275.5,-79 275.5,-79 281.5,-79 287.5,-85 287.5,-91 287.5,-91 287.5,-113 287.5,-113 287.5,-119 281.5,-125 275.5,-125 275.5,-125 128.5,-125 128.5,-125 122.5,-125 116.5,-119 116.5,-113 116.5,-113 116.5,-91 116.5,-91 116.5,-85 122.5,-79 128.5,-79"/>
<text text-anchor="middle" x="202" y="-109.8" font-family="Helvetica,sans-Serif" font-size="14.00">Sentiment_Result</text>
<polyline fill="none" stroke="black" points="116.5,-102 287.5,-102 "/>
<text text-anchor="middle" x="202" y="-86.8" font-family="Helvetica,sans-Serif" font-size="14.00">file:Scores_Datumbox.jpg</text>
</g>
<!-- DrawPieChart&#45;&gt;Sentiment_Result -->
<g id="edge14" class="edge"><title>DrawPieChart&#45;&gt;Sentiment_Result</title>
<path fill="none" stroke="black" d="M202,-162.593C202,-154.118 202,-144.297 202,-135.104"/>
<polygon fill="black" stroke="black" points="205.5,-135.096 202,-125.096 198.5,-135.096 205.5,-135.096"/>
</g>
<!-- Sentiment_Result_output_port -->
<g id="node16" class="node"><title>Sentiment_Result_output_port</title>
<ellipse fill="#ffffff" stroke="black" cx="202" cy="-31" rx="6.5" ry="7"/>
</g>
<!-- Sentiment_Result&#45;&gt;Sentiment_Result_output_port -->
<g id="edge20" class="edge"><title>Sentiment_Result&#45;&gt;Sentiment_Result_output_port</title>
<path fill="none" stroke="black" d="M202,-78.7882C202,-68.9268 202,-57.5246 202,-48.4452"/>
<polygon fill="black" stroke="black" points="205.5,-48.1726 202,-38.1726 198.5,-48.1726 205.5,-48.1726"/>
</g>
<!-- Static_Tweets -->
<g id="node6" class="node"><title>Static_Tweets</title>
<path fill="#ffffcc" stroke="black" d="M146.5,-715C146.5,-715 255.5,-715 255.5,-715 261.5,-715 267.5,-721 267.5,-727 267.5,-727 267.5,-749 267.5,-749 267.5,-755 261.5,-761 255.5,-761 255.5,-761 146.5,-761 146.5,-761 140.5,-761 134.5,-755 134.5,-749 134.5,-749 134.5,-727 134.5,-727 134.5,-721 140.5,-715 146.5,-715"/>
<text text-anchor="middle" x="201" y="-745.8" font-family="Helvetica,sans-Serif" font-size="14.00">Static_Tweets</text>
<polyline fill="none" stroke="black" points="134.5,-738 267.5,-738 "/>
<text text-anchor="middle" x="201" y="-722.8" font-family="Helvetica,sans-Serif" font-size="14.00">file:static_tweet.csv</text>
</g>
<!-- Static_Tweets&#45;&gt;AccessTweets -->
<g id="edge2" class="edge"><title>Static_Tweets&#45;&gt;AccessTweets</title>
<path fill="none" stroke="black" d="M201,-714.593C201,-706.118 201,-696.297 201,-687.104"/>
<polygon fill="black" stroke="black" points="204.5,-687.096 201,-677.096 197.5,-687.096 204.5,-687.096"/>
</g>
<!-- TweetRead&#45;&gt;CountSentiments -->
<g id="edge6" class="edge"><title>TweetRead&#45;&gt;CountSentiments</title>
<path fill="none" stroke="black" d="M201,-557.754C201,-549.863 201,-540.249 201,-531.102"/>
<polygon fill="black" stroke="black" points="204.5,-531.091 201,-521.091 197.5,-531.091 204.5,-531.091"/>
</g>
<!-- PositiveCount&#45;&gt;Measures -->
<g id="edge11" class="edge"><title>PositiveCount&#45;&gt;Measures</title>
<path fill="none" stroke="black" d="M107.155,-401.944C121.87,-392.702 140.412,-381.055 157.121,-370.561"/>
<polygon fill="black" stroke="black" points="159.055,-373.479 165.661,-365.196 155.331,-367.551 159.055,-373.479"/>
</g>
<!-- NegativeCount&#45;&gt;Measures -->
<g id="edge12" class="edge"><title>NegativeCount&#45;&gt;Measures</title>
<path fill="none" stroke="black" d="M201,-401.754C201,-393.863 201,-384.249 201,-375.102"/>
<polygon fill="black" stroke="black" points="204.5,-375.091 201,-365.091 197.5,-375.091 204.5,-375.091"/>
</g>
<!-- NeutralCount&#45;&gt;Measures -->
<g id="edge13" class="edge"><title>NeutralCount&#45;&gt;Measures</title>
<path fill="none" stroke="black" d="M293.294,-401.944C278.955,-392.786 260.921,-381.269 244.607,-370.85"/>
<polygon fill="black" stroke="black" points="246.066,-367.629 235.755,-365.196 242.299,-373.529 246.066,-367.629"/>
</g>
<!-- Sizes&#45;&gt;DrawPieChart -->
<g id="edge17" class="edge"><title>Sizes&#45;&gt;DrawPieChart</title>
<path fill="none" stroke="black" d="M112.033,-245.944C126.01,-236.786 143.59,-225.269 159.493,-214.85"/>
<polygon fill="black" stroke="black" points="161.675,-217.604 168.122,-209.196 157.839,-211.749 161.675,-217.604"/>
</g>
<!-- Explode&#45;&gt;DrawPieChart -->
<g id="edge15" class="edge"><title>Explode&#45;&gt;DrawPieChart</title>
<path fill="none" stroke="black" d="M172.623,-245.754C176.696,-237.609 181.686,-227.627 186.391,-218.219"/>
<polygon fill="black" stroke="black" points="189.613,-219.6 190.955,-209.091 183.352,-216.47 189.613,-219.6"/>
</g>
<!-- Labels&#45;&gt;DrawPieChart -->
<g id="edge16" class="edge"><title>Labels&#45;&gt;DrawPieChart</title>
<path fill="none" stroke="black" d="M233.696,-245.754C229.256,-237.524 223.805,-227.419 218.683,-217.925"/>
<polygon fill="black" stroke="black" points="221.746,-216.23 213.917,-209.091 215.585,-219.554 221.746,-216.23"/>
</g>
<!-- Colors&#45;&gt;DrawPieChart -->
<g id="edge18" class="edge"><title>Colors&#45;&gt;DrawPieChart</title>
<path fill="none" stroke="black" d="M291.192,-245.944C277.335,-236.786 259.907,-225.269 244.141,-214.85"/>
<polygon fill="black" stroke="black" points="245.859,-211.79 235.586,-209.196 241.999,-217.63 245.859,-211.79"/>
</g>
<!-- Static_Tweets_input_port -->
<g id="node15" class="node"><title>Static_Tweets_input_port</title>
<ellipse fill="#ffffff" stroke="black" cx="201" cy="-809" rx="6.5" ry="7"/>
</g>
<!-- Static_Tweets_input_port&#45;&gt;Static_Tweets -->
<g id="edge19" class="edge"><title>Static_Tweets_input_port&#45;&gt;Static_Tweets</title>
<path fill="none" stroke="black" d="M201,-801.632C201,-794.634 201,-782.855 201,-771.389"/>
<polygon fill="black" stroke="black" points="204.5,-771.093 201,-761.093 197.5,-771.093 204.5,-771.093"/>
</g>
</g>
</svg>
