<?xml version="1.0" encoding="UTF-8" standalone="no"?>
<!DOCTYPE svg PUBLIC "-//W3C//DTD SVG 1.1//EN"
 "http://www.w3.org/Graphics/SVG/1.1/DTD/svg11.dtd">
<!-- Generated by graphviz version 2.36.0 (20140111.2315)
 -->
<!-- Title: yw_data_view Pages: 1 -->
<svg width="618pt" height="462pt"
 viewBox="0.00 0.00 618.00 462.00" xmlns="http://www.w3.org/2000/svg" xmlns:xlink="http://www.w3.org/1999/xlink">
<g id="graph0" class="graph" transform="scale(1 1) rotate(0) translate(4 458)">
<title>yw_data_view</title>
<polygon fill="white" stroke="none" points="-4,4 -4,-458 614,-458 614,4 -4,4"/>
<text text-anchor="middle" x="305" y="-435.6" font-family="Courier,monospace" font-size="18.00">Sentiment_DatumBox</text>
<g id="clust1" class="cluster"><title>cluster_workflow</title>
<polygon fill="none" stroke="black" stroke-width="2" points="8,-8 8,-364 548,-364 548,-8 8,-8"/>
</g>
<g id="clust2" class="cluster"><title>cluster_workflow_inner</title>
<polygon fill="none" stroke="white" stroke-width="2" points="16,-16 16,-356 540,-356 540,-16 16,-16"/>
</g>
<g id="clust3" class="cluster"><title>cluster_inflows</title>
<polygon fill="none" stroke="white" stroke-width="2" points="52,-372 52,-418 98,-418 98,-372 52,-372"/>
</g>
<g id="clust4" class="cluster"><title>cluster_inflows_inner</title>
<polygon fill="none" stroke="white" stroke-width="2" points="60,-380 60,-410 90,-410 90,-380 60,-380"/>
</g>
<g id="clust5" class="cluster"><title>cluster_outflows</title>
<polygon fill="none" stroke="white" stroke-width="2" points="556,-91 556,-137 602,-137 602,-91 556,-91"/>
</g>
<g id="clust6" class="cluster"><title>cluster_outflows_inner</title>
<polygon fill="none" stroke="white" stroke-width="2" points="564,-99 564,-129 594,-129 594,-99 564,-99"/>
</g>
<!-- AccessTweets -->
<g id="node1" class="node"><title>AccessTweets</title>
<polygon fill="#ccffcc" stroke="black" points="154.5,-276 39.5,-276 39.5,-240 154.5,-240 154.5,-276"/>
<text text-anchor="middle" x="97" y="-254.3" font-family="Courier,monospace" font-size="14.00">AccessTweets</text>
</g>
<!-- TweetRead -->
<g id="node6" class="node"><title>TweetRead</title>
<path fill="#ffffcc" stroke="black" d="M142,-204C142,-204 80,-204 80,-204 74,-204 68,-198 68,-192 68,-192 68,-180 68,-180 68,-174 74,-168 80,-168 80,-168 142,-168 142,-168 148,-168 154,-174 154,-180 154,-180 154,-192 154,-192 154,-198 148,-204 142,-204"/>
<text text-anchor="middle" x="111" y="-182.3" font-family="Helvetica,sans-Serif" font-size="14.00">TweetRead</text>
</g>
<!-- AccessTweets&#45;&gt;TweetRead -->
<g id="edge7" class="edge"><title>AccessTweets&#45;&gt;TweetRead</title>
<path fill="none" stroke="black" d="M100.461,-239.697C102.003,-231.983 103.858,-222.712 105.578,-214.112"/>
<polygon fill="black" stroke="black" points="109.05,-214.597 107.579,-204.104 102.186,-213.224 109.05,-214.597"/>
</g>
<!-- CountSentiments -->
<g id="node2" class="node"><title>CountSentiments</title>
<polygon fill="#ccffcc" stroke="black" points="237,-132 97,-132 97,-96 237,-96 237,-132"/>
<text text-anchor="middle" x="167" y="-110.3" font-family="Courier,monospace" font-size="14.00">CountSentiments</text>
</g>
<!-- PositiveCount -->
<g id="node7" class="node"><title>PositiveCount</title>
<path fill="#ffffcc" stroke="black" d="M112,-60C112,-60 36,-60 36,-60 30,-60 24,-54 24,-48 24,-48 24,-36 24,-36 24,-30 30,-24 36,-24 36,-24 112,-24 112,-24 118,-24 124,-30 124,-36 124,-36 124,-48 124,-48 124,-54 118,-60 112,-60"/>
<text text-anchor="middle" x="74" y="-38.3" font-family="Helvetica,sans-Serif" font-size="14.00">PositiveCount</text>
</g>
<!-- CountSentiments&#45;&gt;PositiveCount -->
<g id="edge8" class="edge"><title>CountSentiments&#45;&gt;PositiveCount</title>
<path fill="none" stroke="black" d="M144.011,-95.6966C132.186,-86.796 117.608,-75.8232 104.821,-66.1989"/>
<polygon fill="black" stroke="black" points="106.819,-63.3217 96.7243,-60.1043 102.609,-68.9145 106.819,-63.3217"/>
</g>
<!-- NegativeCount -->
<g id="node8" class="node"><title>NegativeCount</title>
<path fill="#ffffcc" stroke="black" d="M235.5,-60C235.5,-60 154.5,-60 154.5,-60 148.5,-60 142.5,-54 142.5,-48 142.5,-48 142.5,-36 142.5,-36 142.5,-30 148.5,-24 154.5,-24 154.5,-24 235.5,-24 235.5,-24 241.5,-24 247.5,-30 247.5,-36 247.5,-36 247.5,-48 247.5,-48 247.5,-54 241.5,-60 235.5,-60"/>
<text text-anchor="middle" x="195" y="-38.3" font-family="Helvetica,sans-Serif" font-size="14.00">NegativeCount</text>
</g>
<!-- CountSentiments&#45;&gt;NegativeCount -->
<g id="edge9" class="edge"><title>CountSentiments&#45;&gt;NegativeCount</title>
<path fill="none" stroke="black" d="M173.921,-95.6966C177.075,-87.8132 180.878,-78.3042 184.381,-69.5464"/>
<polygon fill="black" stroke="black" points="187.694,-70.689 188.158,-60.1043 181.195,-68.0892 187.694,-70.689"/>
</g>
<!-- NeutralCount -->
<g id="node9" class="node"><title>NeutralCount</title>
<path fill="#ffffcc" stroke="black" d="M350,-60C350,-60 278,-60 278,-60 272,-60 266,-54 266,-48 266,-48 266,-36 266,-36 266,-30 272,-24 278,-24 278,-24 350,-24 350,-24 356,-24 362,-30 362,-36 362,-36 362,-48 362,-48 362,-54 356,-60 350,-60"/>
<text text-anchor="middle" x="314" y="-38.3" font-family="Helvetica,sans-Serif" font-size="14.00">NeutralCount</text>
</g>
<!-- CountSentiments&#45;&gt;NeutralCount -->
<g id="edge10" class="edge"><title>CountSentiments&#45;&gt;NeutralCount</title>
<path fill="none" stroke="black" d="M202.96,-95.8761C222.877,-86.3917 247.822,-74.5134 269.02,-64.419"/>
<polygon fill="black" stroke="black" points="270.633,-67.5277 278.157,-60.0683 267.623,-61.2077 270.633,-67.5277"/>
</g>
<!-- Measures -->
<g id="node3" class="node"><title>Measures</title>
<polygon fill="#ccffcc" stroke="black" points="531.25,-348 448.75,-348 448.75,-312 531.25,-312 531.25,-348"/>
<text text-anchor="middle" x="490" y="-326.3" font-family="Courier,monospace" font-size="14.00">Measures</text>
</g>
<!-- DrawPieChart -->
<g id="node4" class="node"><title>DrawPieChart</title>
<polygon fill="#ccffcc" stroke="black" points="387.5,-276 272.5,-276 272.5,-240 387.5,-240 387.5,-276"/>
<text text-anchor="middle" x="330" y="-254.3" font-family="Courier,monospace" font-size="14.00">DrawPieChart</text>
</g>
<!-- Sentiment_Result -->
<g id="node14" class="node"><title>Sentiment_Result</title>
<path fill="#ffffcc" stroke="black" d="M449.5,-204C449.5,-204 350.5,-204 350.5,-204 344.5,-204 338.5,-198 338.5,-192 338.5,-192 338.5,-180 338.5,-180 338.5,-174 344.5,-168 350.5,-168 350.5,-168 449.5,-168 449.5,-168 455.5,-168 461.5,-174 461.5,-180 461.5,-180 461.5,-192 461.5,-192 461.5,-198 455.5,-204 449.5,-204"/>
<text text-anchor="middle" x="400" y="-182.3" font-family="Helvetica,sans-Serif" font-size="14.00">Sentiment_Result</text>
</g>
<!-- DrawPieChart&#45;&gt;Sentiment_Result -->
<g id="edge11" class="edge"><title>DrawPieChart&#45;&gt;Sentiment_Result</title>
<path fill="none" stroke="black" d="M347.303,-239.697C355.865,-231.135 366.344,-220.656 375.696,-211.304"/>
<polygon fill="black" stroke="black" points="378.299,-213.65 382.896,-204.104 373.35,-208.701 378.299,-213.65"/>
</g>
<!-- Static_Tweets -->
<g id="node5" class="node"><title>Static_Tweets</title>
<path fill="#ffffcc" stroke="black" d="M113.25,-348C113.25,-348 36.75,-348 36.75,-348 30.75,-348 24.75,-342 24.75,-336 24.75,-336 24.75,-324 24.75,-324 24.75,-318 30.75,-312 36.75,-312 36.75,-312 113.25,-312 113.25,-312 119.25,-312 125.25,-318 125.25,-324 125.25,-324 125.25,-336 125.25,-336 125.25,-342 119.25,-348 113.25,-348"/>
<text text-anchor="middle" x="75" y="-326.3" font-family="Helvetica,sans-Serif" font-size="14.00">Static_Tweets</text>
</g>
<!-- Static_Tweets&#45;&gt;AccessTweets -->
<g id="edge1" class="edge"><title>Static_Tweets&#45;&gt;AccessTweets</title>
<path fill="none" stroke="black" d="M80.4382,-311.697C82.8892,-303.898 85.8402,-294.509 88.568,-285.829"/>
<polygon fill="black" stroke="black" points="91.965,-286.694 91.6244,-276.104 85.287,-284.595 91.965,-286.694"/>
</g>
<!-- TweetRead&#45;&gt;CountSentiments -->
<g id="edge2" class="edge"><title>TweetRead&#45;&gt;CountSentiments</title>
<path fill="none" stroke="black" d="M124.843,-167.697C131.489,-159.389 139.578,-149.277 146.887,-140.141"/>
<polygon fill="black" stroke="black" points="149.803,-142.099 153.317,-132.104 144.336,-137.727 149.803,-142.099"/>
</g>
<!-- Explode -->
<g id="node10" class="node"><title>Explode</title>
<path fill="#ffffcc" stroke="black" d="M271.25,-348C271.25,-348 230.75,-348 230.75,-348 224.75,-348 218.75,-342 218.75,-336 218.75,-336 218.75,-324 218.75,-324 218.75,-318 224.75,-312 230.75,-312 230.75,-312 271.25,-312 271.25,-312 277.25,-312 283.25,-318 283.25,-324 283.25,-324 283.25,-336 283.25,-336 283.25,-342 277.25,-348 271.25,-348"/>
<text text-anchor="middle" x="251" y="-326.3" font-family="Helvetica,sans-Serif" font-size="14.00">Explode</text>
</g>
<!-- Explode&#45;&gt;DrawPieChart -->
<g id="edge3" class="edge"><title>Explode&#45;&gt;DrawPieChart</title>
<path fill="none" stroke="black" d="M270.528,-311.697C280.382,-302.965 292.486,-292.24 303.196,-282.75"/>
<polygon fill="black" stroke="black" points="305.533,-285.356 310.697,-276.104 300.891,-280.117 305.533,-285.356"/>
</g>
<!-- Labels -->
<g id="node11" class="node"><title>Labels</title>
<path fill="#ffffcc" stroke="black" d="M187.5,-348C187.5,-348 156.5,-348 156.5,-348 150.5,-348 144.5,-342 144.5,-336 144.5,-336 144.5,-324 144.5,-324 144.5,-318 150.5,-312 156.5,-312 156.5,-312 187.5,-312 187.5,-312 193.5,-312 199.5,-318 199.5,-324 199.5,-324 199.5,-336 199.5,-336 199.5,-342 193.5,-348 187.5,-348"/>
<text text-anchor="middle" x="172" y="-326.3" font-family="Helvetica,sans-Serif" font-size="14.00">Labels</text>
</g>
<!-- Labels&#45;&gt;DrawPieChart -->
<g id="edge4" class="edge"><title>Labels&#45;&gt;DrawPieChart</title>
<path fill="none" stroke="black" d="M199.856,-316.137C202.938,-314.733 206.033,-313.331 209,-312 232.801,-301.321 259.34,-289.668 281.485,-280.015"/>
<polygon fill="black" stroke="black" points="282.915,-283.21 290.686,-276.009 280.12,-276.792 282.915,-283.21"/>
</g>
<!-- Sizes -->
<g id="node12" class="node"><title>Sizes</title>
<path fill="#ffffcc" stroke="black" d="M418,-348C418,-348 388,-348 388,-348 382,-348 376,-342 376,-336 376,-336 376,-324 376,-324 376,-318 382,-312 388,-312 388,-312 418,-312 418,-312 424,-312 430,-318 430,-324 430,-324 430,-336 430,-336 430,-342 424,-348 418,-348"/>
<text text-anchor="middle" x="403" y="-326.3" font-family="Helvetica,sans-Serif" font-size="14.00">Sizes</text>
</g>
<!-- Sizes&#45;&gt;DrawPieChart -->
<g id="edge5" class="edge"><title>Sizes&#45;&gt;DrawPieChart</title>
<path fill="none" stroke="black" d="M384.955,-311.697C375.938,-303.05 364.882,-292.449 355.057,-283.027"/>
<polygon fill="black" stroke="black" points="357.478,-280.499 347.837,-276.104 352.633,-285.552 357.478,-280.499"/>
</g>
<!-- Colors -->
<g id="node13" class="node"><title>Colors</title>
<path fill="#ffffcc" stroke="black" d="M345.5,-348C345.5,-348 314.5,-348 314.5,-348 308.5,-348 302.5,-342 302.5,-336 302.5,-336 302.5,-324 302.5,-324 302.5,-318 308.5,-312 314.5,-312 314.5,-312 345.5,-312 345.5,-312 351.5,-312 357.5,-318 357.5,-324 357.5,-324 357.5,-336 357.5,-336 357.5,-342 351.5,-348 345.5,-348"/>
<text text-anchor="middle" x="330" y="-326.3" font-family="Helvetica,sans-Serif" font-size="14.00">Colors</text>
</g>
<!-- Colors&#45;&gt;DrawPieChart -->
<g id="edge6" class="edge"><title>Colors&#45;&gt;DrawPieChart</title>
<path fill="none" stroke="black" d="M330,-311.697C330,-303.983 330,-294.712 330,-286.112"/>
<polygon fill="black" stroke="black" points="333.5,-286.104 330,-276.104 326.5,-286.104 333.5,-286.104"/>
</g>
<!-- Sentiment_Result_outflow -->
<g id="node16" class="node"><title>Sentiment_Result_outflow</title>
<ellipse fill="none" stroke="black" cx="579" cy="-114" rx="6.5" ry="7"/>
</g>
<!-- Sentiment_Result&#45;&gt;Sentiment_Result_outflow -->
<g id="edge13" class="edge"><title>Sentiment_Result&#45;&gt;Sentiment_Result_outflow</title>
<path fill="none" stroke="black" d="M461.514,-168.056C487.519,-159.989 517.791,-149.385 544,-137 551.324,-133.539 558.994,-128.853 565.281,-124.695"/>
<polygon fill="black" stroke="black" points="567.521,-127.402 573.773,-118.848 563.552,-121.636 567.521,-127.402"/>
</g>
<!-- Static_Tweets_inflow -->
<g id="node15" class="node"><title>Static_Tweets_inflow</title>
<ellipse fill="none" stroke="black" cx="75" cy="-395" rx="6.5" ry="7"/>
</g>
<!-- Static_Tweets_inflow&#45;&gt;Static_Tweets -->
<g id="edge12" class="edge"><title>Static_Tweets_inflow&#45;&gt;Static_Tweets</title>
<path fill="none" stroke="black" d="M75,-387.729C75,-380.795 75,-369.154 75,-358.215"/>
<polygon fill="black" stroke="black" points="78.5001,-358.119 75,-348.119 71.5001,-358.119 78.5001,-358.119"/>
</g>
</g>
</svg>
