<?xml version="1.0" encoding="UTF-8" standalone="no"?>
<!DOCTYPE svg PUBLIC "-//W3C//DTD SVG 1.1//EN"
 "http://www.w3.org/Graphics/SVG/1.1/DTD/svg11.dtd">
<!-- Generated by graphviz version 2.36.0 (20140111.2315)
 -->
<!-- Title: yw_data_view Pages: 1 -->
<svg width="214pt" height="120pt"
 viewBox="0.00 0.00 214.00 120.00" xmlns="http://www.w3.org/2000/svg" xmlns:xlink="http://www.w3.org/1999/xlink">
<g id="graph0" class="graph" transform="scale(1 1) rotate(0) translate(4 116)">
<title>yw_data_view</title>
<polygon fill="white" stroke="none" points="-4,4 -4,-116 210,-116 210,4 -4,4"/>
<text text-anchor="middle" x="103" y="-93.6" font-family="Courier,monospace" font-size="18.00">Sentiment_DatumBox</text>
<g id="clust1" class="cluster"><title>cluster_workflow</title>
<polygon fill="none" stroke="black" stroke-width="2" points="34,-8 34,-76 172,-76 172,-8 34,-8"/>
</g>
<g id="clust2" class="cluster"><title>cluster_workflow_inner</title>
<polygon fill="none" stroke="white" stroke-width="2" points="42,-16 42,-68 164,-68 164,-16 42,-16"/>
</g>
<!-- NegativeCount -->
<g id="node1" class="node"><title>NegativeCount</title>
<path fill="#ffffcc" stroke="black" d="M143.5,-60C143.5,-60 62.5,-60 62.5,-60 56.5,-60 50.5,-54 50.5,-48 50.5,-48 50.5,-36 50.5,-36 50.5,-30 56.5,-24 62.5,-24 62.5,-24 143.5,-24 143.5,-24 149.5,-24 155.5,-30 155.5,-36 155.5,-36 155.5,-48 155.5,-48 155.5,-54 149.5,-60 143.5,-60"/>
<text text-anchor="middle" x="103" y="-38.3" font-family="Helvetica,sans-Serif" font-size="14.00">NegativeCount</text>
</g>
</g>
</svg>
