<?xml version="1.0" encoding="UTF-8" standalone="no"?>
<!DOCTYPE svg PUBLIC "-//W3C//DTD SVG 1.1//EN"
 "http://www.w3.org/Graphics/SVG/1.1/DTD/svg11.dtd">
<!-- Generated by graphviz version 2.36.0 (20140111.2315)
 -->
<!-- Title: yw_data_view Pages: 1 -->
<svg width="394pt" height="264pt"
 viewBox="0.00 0.00 394.00 264.00" xmlns="http://www.w3.org/2000/svg" xmlns:xlink="http://www.w3.org/1999/xlink">
<g id="graph0" class="graph" transform="scale(1 1) rotate(0) translate(4 260)">
<title>yw_data_view</title>
<polygon fill="white" stroke="none" points="-4,4 -4,-260 390,-260 390,4 -4,4"/>
<text text-anchor="middle" x="193" y="-237.6" font-family="Courier,monospace" font-size="18.00">Sentiment_DatumBox</text>
<g id="clust1" class="cluster"><title>cluster_workflow</title>
<polygon fill="none" stroke="black" stroke-width="2" points="8,-8 8,-220 378,-220 378,-8 8,-8"/>
</g>
<g id="clust2" class="cluster"><title>cluster_workflow_inner</title>
<polygon fill="none" stroke="white" stroke-width="2" points="16,-16 16,-212 370,-212 370,-16 16,-16"/>
</g>
<!-- CountSentiments -->
<g id="node1" class="node"><title>CountSentiments</title>
<polygon fill="#ccffcc" stroke="black" points="265,-132 125,-132 125,-96 265,-96 265,-132"/>
<text text-anchor="middle" x="195" y="-110.3" font-family="Courier,monospace" font-size="14.00">CountSentiments</text>
</g>
<!-- PositiveCount -->
<g id="node3" class="node"><title>PositiveCount</title>
<path fill="#ffffcc" stroke="black" d="M112,-60C112,-60 36,-60 36,-60 30,-60 24,-54 24,-48 24,-48 24,-36 24,-36 24,-30 30,-24 36,-24 36,-24 112,-24 112,-24 118,-24 124,-30 124,-36 124,-36 124,-48 124,-48 124,-54 118,-60 112,-60"/>
<text text-anchor="middle" x="74" y="-38.3" font-family="Helvetica,sans-Serif" font-size="14.00">PositiveCount</text>
</g>
<!-- CountSentiments&#45;&gt;PositiveCount -->
<g id="edge3" class="edge"><title>CountSentiments&#45;&gt;PositiveCount</title>
<path fill="none" stroke="black" d="M165.4,-95.8761C149.433,-86.6388 129.54,-75.1308 112.394,-65.2116"/>
<polygon fill="black" stroke="black" points="114.122,-62.1678 103.714,-60.1898 110.617,-68.2269 114.122,-62.1678"/>
</g>
<!-- NegativeCount -->
<g id="node4" class="node"><title>NegativeCount</title>
<path fill="#ffffcc" stroke="black" d="M235.5,-60C235.5,-60 154.5,-60 154.5,-60 148.5,-60 142.5,-54 142.5,-48 142.5,-48 142.5,-36 142.5,-36 142.5,-30 148.5,-24 154.5,-24 154.5,-24 235.5,-24 235.5,-24 241.5,-24 247.5,-30 247.5,-36 247.5,-36 247.5,-48 247.5,-48 247.5,-54 241.5,-60 235.5,-60"/>
<text text-anchor="middle" x="195" y="-38.3" font-family="Helvetica,sans-Serif" font-size="14.00">NegativeCount</text>
</g>
<!-- CountSentiments&#45;&gt;NegativeCount -->
<g id="edge2" class="edge"><title>CountSentiments&#45;&gt;NegativeCount</title>
<path fill="none" stroke="black" d="M195,-95.6966C195,-87.9827 195,-78.7125 195,-70.1124"/>
<polygon fill="black" stroke="black" points="198.5,-70.1043 195,-60.1043 191.5,-70.1044 198.5,-70.1043"/>
</g>
<!-- NeutralCount -->
<g id="node5" class="node"><title>NeutralCount</title>
<path fill="#ffffcc" stroke="black" d="M350,-60C350,-60 278,-60 278,-60 272,-60 266,-54 266,-48 266,-48 266,-36 266,-36 266,-30 272,-24 278,-24 278,-24 350,-24 350,-24 356,-24 362,-30 362,-36 362,-36 362,-48 362,-48 362,-54 356,-60 350,-60"/>
<text text-anchor="middle" x="314" y="-38.3" font-family="Helvetica,sans-Serif" font-size="14.00">NeutralCount</text>
</g>
<!-- CountSentiments&#45;&gt;NeutralCount -->
<g id="edge1" class="edge"><title>CountSentiments&#45;&gt;NeutralCount</title>
<path fill="none" stroke="black" d="M224.111,-95.8761C239.67,-86.7236 259.019,-75.3417 275.776,-65.485"/>
<polygon fill="black" stroke="black" points="277.933,-68.2768 284.777,-60.1898 274.383,-62.2432 277.933,-68.2768"/>
</g>
<!-- TweetRead -->
<g id="node2" class="node"><title>TweetRead</title>
<path fill="#ffffcc" stroke="black" d="M226,-204C226,-204 164,-204 164,-204 158,-204 152,-198 152,-192 152,-192 152,-180 152,-180 152,-174 158,-168 164,-168 164,-168 226,-168 226,-168 232,-168 238,-174 238,-180 238,-180 238,-192 238,-192 238,-198 232,-204 226,-204"/>
<text text-anchor="middle" x="195" y="-182.3" font-family="Helvetica,sans-Serif" font-size="14.00">TweetRead</text>
</g>
<!-- TweetRead&#45;&gt;CountSentiments -->
<g id="edge4" class="edge"><title>TweetRead&#45;&gt;CountSentiments</title>
<path fill="none" stroke="black" d="M195,-167.697C195,-159.983 195,-150.712 195,-142.112"/>
<polygon fill="black" stroke="black" points="198.5,-142.104 195,-132.104 191.5,-142.104 198.5,-142.104"/>
</g>
</g>
</svg>
