<?xml version="1.0" encoding="UTF-8" standalone="no"?>
<!DOCTYPE svg PUBLIC "-//W3C//DTD SVG 1.1//EN"
 "http://www.w3.org/Graphics/SVG/1.1/DTD/svg11.dtd">
<!-- Generated by graphviz version 2.36.0 (20140111.2315)
 -->
<!-- Title: yw_data_view Pages: 1 -->
<svg width="214pt" height="120pt"
 viewBox="0.00 0.00 214.00 120.00" xmlns="http://www.w3.org/2000/svg" xmlns:xlink="http://www.w3.org/1999/xlink">
<g id="graph0" class="graph" transform="scale(1 1) rotate(0) translate(4 116)">
<title>yw_data_view</title>
<polygon fill="white" stroke="none" points="-4,4 -4,-116 210,-116 210,4 -4,4"/>
<text text-anchor="middle" x="103" y="-93.6" font-family="Courier,monospace" font-size="18.00">Sentiment_DatumBox</text>
<g id="clust1" class="cluster"><title>cluster_workflow</title>
<polygon fill="none" stroke="black" stroke-width="2" points="37,-8 37,-76 169,-76 169,-8 37,-8"/>
</g>
<g id="clust2" class="cluster"><title>cluster_workflow_inner</title>
<polygon fill="none" stroke="white" stroke-width="2" points="45,-16 45,-68 161,-68 161,-16 45,-16"/>
</g>
<!-- PositiveCount -->
<g id="node1" class="node"><title>PositiveCount</title>
<path fill="#ffffcc" stroke="black" d="M141,-60C141,-60 65,-60 65,-60 59,-60 53,-54 53,-48 53,-48 53,-36 53,-36 53,-30 59,-24 65,-24 65,-24 141,-24 141,-24 147,-24 153,-30 153,-36 153,-36 153,-48 153,-48 153,-54 147,-60 141,-60"/>
<text text-anchor="middle" x="103" y="-38.3" font-family="Helvetica,sans-Serif" font-size="14.00">PositiveCount</text>
</g>
</g>
</svg>
