<?xml version="1.0" encoding="UTF-8" standalone="no"?>
<!DOCTYPE svg PUBLIC "-//W3C//DTD SVG 1.1//EN"
 "http://www.w3.org/Graphics/SVG/1.1/DTD/svg11.dtd">
<!-- Generated by graphviz version 2.36.0 (20140111.2315)
 -->
<!-- Title: yw_data_view Pages: 1 -->
<svg width="214pt" height="120pt"
 viewBox="0.00 0.00 214.00 120.00" xmlns="http://www.w3.org/2000/svg" xmlns:xlink="http://www.w3.org/1999/xlink">
<g id="graph0" class="graph" transform="scale(1 1) rotate(0) translate(4 116)">
<title>yw_data_view</title>
<polygon fill="white" stroke="none" points="-4,4 -4,-116 210,-116 210,4 -4,4"/>
<text text-anchor="middle" x="103" y="-93.6" font-family="Courier,monospace" font-size="18.00">Sentiment_DatumBox</text>
<g id="clust1" class="cluster"><title>cluster_workflow</title>
<polygon fill="none" stroke="black" stroke-width="2" points="39,-8 39,-76 167,-76 167,-8 39,-8"/>
</g>
<g id="clust2" class="cluster"><title>cluster_workflow_inner</title>
<polygon fill="none" stroke="white" stroke-width="2" points="47,-16 47,-68 159,-68 159,-16 47,-16"/>
</g>
<!-- NeutralCount -->
<g id="node1" class="node"><title>NeutralCount</title>
<path fill="#ffffcc" stroke="black" d="M139,-60C139,-60 67,-60 67,-60 61,-60 55,-54 55,-48 55,-48 55,-36 55,-36 55,-30 61,-24 67,-24 67,-24 139,-24 139,-24 145,-24 151,-30 151,-36 151,-36 151,-48 151,-48 151,-54 145,-60 139,-60"/>
<text text-anchor="middle" x="103" y="-38.3" font-family="Helvetica,sans-Serif" font-size="14.00">NeutralCount</text>
</g>
</g>
</svg>
