<?xml version="1.0" encoding="UTF-8" standalone="no"?>
<!DOCTYPE svg PUBLIC "-//W3C//DTD SVG 1.1//EN"
 "http://www.w3.org/Graphics/SVG/1.1/DTD/svg11.dtd">
<!-- Generated by graphviz version 2.36.0 (20140111.2315)
 -->
<!-- Title: yw_data_view Pages: 1 -->
<svg width="394pt" height="462pt"
 viewBox="0.00 0.00 394.00 462.00" xmlns="http://www.w3.org/2000/svg" xmlns:xlink="http://www.w3.org/1999/xlink">
<g id="graph0" class="graph" transform="scale(1 1) rotate(0) translate(4 458)">
<title>yw_data_view</title>
<polygon fill="white" stroke="none" points="-4,4 -4,-458 390,-458 390,4 -4,4"/>
<text text-anchor="middle" x="193" y="-435.6" font-family="Courier,monospace" font-size="18.00">Sentiment_DatumBox</text>
<g id="clust1" class="cluster"><title>cluster_workflow</title>
<polygon fill="none" stroke="black" stroke-width="2" points="8,-8 8,-364 378,-364 378,-8 8,-8"/>
</g>
<g id="clust2" class="cluster"><title>cluster_workflow_inner</title>
<polygon fill="none" stroke="white" stroke-width="2" points="16,-16 16,-356 370,-356 370,-16 16,-16"/>
</g>
<g id="clust3" class="cluster"><title>cluster_inflows</title>
<polygon fill="none" stroke="white" stroke-width="2" points="172,-372 172,-418 218,-418 218,-372 172,-372"/>
</g>
<g id="clust4" class="cluster"><title>cluster_inflows_inner</title>
<polygon fill="none" stroke="white" stroke-width="2" points="180,-380 180,-410 210,-410 210,-380 180,-380"/>
</g>
<!-- CountSentiments -->
<g id="node1" class="node"><title>CountSentiments</title>
<polygon fill="#ccffcc" stroke="black" points="265,-132 125,-132 125,-96 265,-96 265,-132"/>
<text text-anchor="middle" x="195" y="-110.3" font-family="Courier,monospace" font-size="14.00">CountSentiments</text>
</g>
<!-- PositiveCount -->
<g id="node5" class="node"><title>PositiveCount</title>
<path fill="#ffffcc" stroke="black" d="M112,-60C112,-60 36,-60 36,-60 30,-60 24,-54 24,-48 24,-48 24,-36 24,-36 24,-30 30,-24 36,-24 36,-24 112,-24 112,-24 118,-24 124,-30 124,-36 124,-36 124,-48 124,-48 124,-54 118,-60 112,-60"/>
<text text-anchor="middle" x="74" y="-38.3" font-family="Helvetica,sans-Serif" font-size="14.00">PositiveCount</text>
</g>
<!-- CountSentiments&#45;&gt;PositiveCount -->
<g id="edge3" class="edge"><title>CountSentiments&#45;&gt;PositiveCount</title>
<path fill="none" stroke="black" d="M165.4,-95.8761C149.433,-86.6388 129.54,-75.1308 112.394,-65.2116"/>
<polygon fill="black" stroke="black" points="114.122,-62.1678 103.714,-60.1898 110.617,-68.2269 114.122,-62.1678"/>
</g>
<!-- NegativeCount -->
<g id="node6" class="node"><title>NegativeCount</title>
<path fill="#ffffcc" stroke="black" d="M235.5,-60C235.5,-60 154.5,-60 154.5,-60 148.5,-60 142.5,-54 142.5,-48 142.5,-48 142.5,-36 142.5,-36 142.5,-30 148.5,-24 154.5,-24 154.5,-24 235.5,-24 235.5,-24 241.5,-24 247.5,-30 247.5,-36 247.5,-36 247.5,-48 247.5,-48 247.5,-54 241.5,-60 235.5,-60"/>
<text text-anchor="middle" x="195" y="-38.3" font-family="Helvetica,sans-Serif" font-size="14.00">NegativeCount</text>
</g>
<!-- CountSentiments&#45;&gt;NegativeCount -->
<g id="edge2" class="edge"><title>CountSentiments&#45;&gt;NegativeCount</title>
<path fill="none" stroke="black" d="M195,-95.6966C195,-87.9827 195,-78.7125 195,-70.1124"/>
<polygon fill="black" stroke="black" points="198.5,-70.1043 195,-60.1043 191.5,-70.1044 198.5,-70.1043"/>
</g>
<!-- NeutralCount -->
<g id="node7" class="node"><title>NeutralCount</title>
<path fill="#ffffcc" stroke="black" d="M350,-60C350,-60 278,-60 278,-60 272,-60 266,-54 266,-48 266,-48 266,-36 266,-36 266,-30 272,-24 278,-24 278,-24 350,-24 350,-24 356,-24 362,-30 362,-36 362,-36 362,-48 362,-48 362,-54 356,-60 350,-60"/>
<text text-anchor="middle" x="314" y="-38.3" font-family="Helvetica,sans-Serif" font-size="14.00">NeutralCount</text>
</g>
<!-- CountSentiments&#45;&gt;NeutralCount -->
<g id="edge1" class="edge"><title>CountSentiments&#45;&gt;NeutralCount</title>
<path fill="none" stroke="black" d="M224.111,-95.8761C239.67,-86.7236 259.019,-75.3417 275.776,-65.485"/>
<polygon fill="black" stroke="black" points="277.933,-68.2768 284.777,-60.1898 274.383,-62.2432 277.933,-68.2768"/>
</g>
<!-- AccessTweets -->
<g id="node2" class="node"><title>AccessTweets</title>
<polygon fill="#ccffcc" stroke="black" points="252.5,-276 137.5,-276 137.5,-240 252.5,-240 252.5,-276"/>
<text text-anchor="middle" x="195" y="-254.3" font-family="Courier,monospace" font-size="14.00">AccessTweets</text>
</g>
<!-- TweetRead -->
<g id="node4" class="node"><title>TweetRead</title>
<path fill="#ffffcc" stroke="black" d="M226,-204C226,-204 164,-204 164,-204 158,-204 152,-198 152,-192 152,-192 152,-180 152,-180 152,-174 158,-168 164,-168 164,-168 226,-168 226,-168 232,-168 238,-174 238,-180 238,-180 238,-192 238,-192 238,-198 232,-204 226,-204"/>
<text text-anchor="middle" x="195" y="-182.3" font-family="Helvetica,sans-Serif" font-size="14.00">TweetRead</text>
</g>
<!-- AccessTweets&#45;&gt;TweetRead -->
<g id="edge4" class="edge"><title>AccessTweets&#45;&gt;TweetRead</title>
<path fill="none" stroke="black" d="M195,-239.697C195,-231.983 195,-222.712 195,-214.112"/>
<polygon fill="black" stroke="black" points="198.5,-214.104 195,-204.104 191.5,-214.104 198.5,-214.104"/>
</g>
<!-- Static_Tweets -->
<g id="node3" class="node"><title>Static_Tweets</title>
<path fill="#ffffcc" stroke="black" d="M233.25,-348C233.25,-348 156.75,-348 156.75,-348 150.75,-348 144.75,-342 144.75,-336 144.75,-336 144.75,-324 144.75,-324 144.75,-318 150.75,-312 156.75,-312 156.75,-312 233.25,-312 233.25,-312 239.25,-312 245.25,-318 245.25,-324 245.25,-324 245.25,-336 245.25,-336 245.25,-342 239.25,-348 233.25,-348"/>
<text text-anchor="middle" x="195" y="-326.3" font-family="Helvetica,sans-Serif" font-size="14.00">Static_Tweets</text>
</g>
<!-- Static_Tweets&#45;&gt;AccessTweets -->
<g id="edge5" class="edge"><title>Static_Tweets&#45;&gt;AccessTweets</title>
<path fill="none" stroke="black" d="M195,-311.697C195,-303.983 195,-294.712 195,-286.112"/>
<polygon fill="black" stroke="black" points="198.5,-286.104 195,-276.104 191.5,-286.104 198.5,-286.104"/>
</g>
<!-- TweetRead&#45;&gt;CountSentiments -->
<g id="edge6" class="edge"><title>TweetRead&#45;&gt;CountSentiments</title>
<path fill="none" stroke="black" d="M195,-167.697C195,-159.983 195,-150.712 195,-142.112"/>
<polygon fill="black" stroke="black" points="198.5,-142.104 195,-132.104 191.5,-142.104 198.5,-142.104"/>
</g>
<!-- Static_Tweets_inflow -->
<g id="node8" class="node"><title>Static_Tweets_inflow</title>
<ellipse fill="none" stroke="black" cx="195" cy="-395" rx="6.5" ry="7"/>
</g>
<!-- Static_Tweets_inflow&#45;&gt;Static_Tweets -->
<g id="edge7" class="edge"><title>Static_Tweets_inflow&#45;&gt;Static_Tweets</title>
<path fill="none" stroke="black" d="M195,-387.729C195,-380.795 195,-369.154 195,-358.215"/>
<polygon fill="black" stroke="black" points="198.5,-358.119 195,-348.119 191.5,-358.119 198.5,-358.119"/>
</g>
</g>
</svg>
