<?xml version="1.0" encoding="UTF-8" standalone="no"?>
<!DOCTYPE svg PUBLIC "-//W3C//DTD SVG 1.1//EN"
 "http://www.w3.org/Graphics/SVG/1.1/DTD/svg11.dtd">
<!-- Generated by graphviz version 2.36.0 (20140111.2315)
 -->
<!-- Title: yw_data_view Pages: 1 -->
<svg width="214pt" height="318pt"
 viewBox="0.00 0.00 214.00 318.00" xmlns="http://www.w3.org/2000/svg" xmlns:xlink="http://www.w3.org/1999/xlink">
<g id="graph0" class="graph" transform="scale(1 1) rotate(0) translate(4 314)">
<title>yw_data_view</title>
<polygon fill="white" stroke="none" points="-4,4 -4,-314 210,-314 210,4 -4,4"/>
<text text-anchor="middle" x="103" y="-291.6" font-family="Courier,monospace" font-size="18.00">Sentiment_DatumBox</text>
<g id="clust1" class="cluster"><title>cluster_workflow</title>
<polygon fill="none" stroke="black" stroke-width="2" points="25,-62 25,-274 181,-274 181,-62 25,-62"/>
</g>
<g id="clust2" class="cluster"><title>cluster_workflow_inner</title>
<polygon fill="none" stroke="white" stroke-width="2" points="33,-70 33,-266 173,-266 173,-70 33,-70"/>
</g>
<g id="clust5" class="cluster"><title>cluster_outflows</title>
<polygon fill="none" stroke="white" stroke-width="2" points="80,-8 80,-54 126,-54 126,-8 80,-8"/>
</g>
<g id="clust6" class="cluster"><title>cluster_outflows_inner</title>
<polygon fill="none" stroke="white" stroke-width="2" points="88,-16 88,-46 118,-46 118,-16 88,-16"/>
</g>
<!-- DrawPieChart -->
<g id="node1" class="node"><title>DrawPieChart</title>
<polygon fill="#ccffcc" stroke="black" points="160.5,-186 45.5,-186 45.5,-150 160.5,-150 160.5,-186"/>
<text text-anchor="middle" x="103" y="-164.3" font-family="Courier,monospace" font-size="14.00">DrawPieChart</text>
</g>
<!-- Sentiment_Result -->
<g id="node3" class="node"><title>Sentiment_Result</title>
<path fill="#ffffcc" stroke="black" d="M152.5,-114C152.5,-114 53.5,-114 53.5,-114 47.5,-114 41.5,-108 41.5,-102 41.5,-102 41.5,-90 41.5,-90 41.5,-84 47.5,-78 53.5,-78 53.5,-78 152.5,-78 152.5,-78 158.5,-78 164.5,-84 164.5,-90 164.5,-90 164.5,-102 164.5,-102 164.5,-108 158.5,-114 152.5,-114"/>
<text text-anchor="middle" x="103" y="-92.3" font-family="Helvetica,sans-Serif" font-size="14.00">Sentiment_Result</text>
</g>
<!-- DrawPieChart&#45;&gt;Sentiment_Result -->
<g id="edge1" class="edge"><title>DrawPieChart&#45;&gt;Sentiment_Result</title>
<path fill="none" stroke="black" d="M103,-149.697C103,-141.983 103,-132.712 103,-124.112"/>
<polygon fill="black" stroke="black" points="106.5,-124.104 103,-114.104 99.5001,-124.104 106.5,-124.104"/>
</g>
<!-- Sizes -->
<g id="node2" class="node"><title>Sizes</title>
<path fill="#ffffcc" stroke="black" d="M118,-258C118,-258 88,-258 88,-258 82,-258 76,-252 76,-246 76,-246 76,-234 76,-234 76,-228 82,-222 88,-222 88,-222 118,-222 118,-222 124,-222 130,-228 130,-234 130,-234 130,-246 130,-246 130,-252 124,-258 118,-258"/>
<text text-anchor="middle" x="103" y="-236.3" font-family="Helvetica,sans-Serif" font-size="14.00">Sizes</text>
</g>
<!-- Sizes&#45;&gt;DrawPieChart -->
<g id="edge2" class="edge"><title>Sizes&#45;&gt;DrawPieChart</title>
<path fill="none" stroke="black" d="M103,-221.697C103,-213.983 103,-204.712 103,-196.112"/>
<polygon fill="black" stroke="black" points="106.5,-196.104 103,-186.104 99.5001,-196.104 106.5,-196.104"/>
</g>
<!-- Sentiment_Result_outflow -->
<g id="node4" class="node"><title>Sentiment_Result_outflow</title>
<ellipse fill="none" stroke="black" cx="103" cy="-31" rx="6.5" ry="7"/>
</g>
<!-- Sentiment_Result&#45;&gt;Sentiment_Result_outflow -->
<g id="edge3" class="edge"><title>Sentiment_Result&#45;&gt;Sentiment_Result_outflow</title>
<path fill="none" stroke="black" d="M103,-77.785C103,-68.6656 103,-57.5197 103,-48.5085"/>
<polygon fill="black" stroke="black" points="106.5,-48.242 103,-38.242 99.5001,-48.2421 106.5,-48.242"/>
</g>
</g>
</svg>
