<?xml version="1.0" encoding="UTF-8" standalone="no"?>
<!DOCTYPE svg PUBLIC "-//W3C//DTD SVG 1.1//EN"
 "http://www.w3.org/Graphics/SVG/1.1/DTD/svg11.dtd">
<!-- Generated by graphviz version 2.36.0 (20140111.2315)
 -->
<!-- Title: yw_data_view Pages: 1 -->
<svg width="342pt" height="320pt"
 viewBox="0.00 0.00 342.00 320.00" xmlns="http://www.w3.org/2000/svg" xmlns:xlink="http://www.w3.org/1999/xlink">
<g id="graph0" class="graph" transform="scale(1 1) rotate(0) translate(4 316)">
<title>yw_data_view</title>
<polygon fill="white" stroke="none" points="-4,4 -4,-316 338,-316 338,4 -4,4"/>
<text text-anchor="middle" x="167" y="-293.6" font-family="Courier,monospace" font-size="18.00">Sentiment_DatumBox</text>
<g id="clust1" class="cluster"><title>cluster_workflow</title>
<polygon fill="none" stroke="black" stroke-width="2" points="8,-62 8,-276 326,-276 326,-62 8,-62"/>
</g>
<g id="clust2" class="cluster"><title>cluster_workflow_inner</title>
<polygon fill="none" stroke="white" stroke-width="2" points="16,-70 16,-268 318,-268 318,-70 16,-70"/>
</g>
<g id="clust5" class="cluster"><title>cluster_outflows</title>
<polygon fill="none" stroke="white" stroke-width="2" points="138,-8 138,-54 184,-54 184,-8 138,-8"/>
</g>
<g id="clust6" class="cluster"><title>cluster_outflows_inner</title>
<polygon fill="none" stroke="white" stroke-width="2" points="146,-16 146,-46 176,-46 176,-16 146,-16"/>
</g>
<!-- DrawPieChart -->
<g id="node1" class="node"><title>DrawPieChart</title>
<polygon fill="#ccffcc" stroke="black" points="218.5,-188 103.5,-188 103.5,-152 218.5,-152 218.5,-188"/>
<text text-anchor="middle" x="161" y="-166.3" font-family="Courier,monospace" font-size="14.00">DrawPieChart</text>
</g>
<!-- Sentiment_Result -->
<g id="node6" class="node"><title>Sentiment_Result</title>
<path fill="#ffe4b5" stroke="black" d="M99,-79C99,-79 223,-79 223,-79 229,-79 235,-85 235,-91 235,-91 235,-103 235,-103 235,-109 229,-115 223,-115 223,-115 99,-115 99,-115 93,-115 87,-109 87,-103 87,-103 87,-91 87,-91 87,-85 93,-79 99,-79"/>
<text text-anchor="middle" x="161" y="-103.8" font-family="Courier,monospace" font-weight="bold" font-size="9.00">[data12] Sentiment_Result</text>
<polyline fill="none" stroke="black" points="87,-97 235,-97 "/>
<text text-anchor="start" x="95" y="-85.8" font-family="Courier,monospace" font-weight="bold" font-size="9.00">Scores_NLTK.jpg</text>
</g>
<!-- DrawPieChart&#45;&gt;Sentiment_Result -->
<g id="edge5" class="edge"><title>DrawPieChart&#45;&gt;Sentiment_Result</title>
<path fill="none" stroke="black" d="M161,-151.813C161,-143.789 161,-134.047 161,-125.069"/>
<polygon fill="black" stroke="black" points="164.5,-125.029 161,-115.029 157.5,-125.029 164.5,-125.029"/>
</g>
<!-- Explode -->
<g id="node2" class="node"><title>Explode</title>
<path fill="#ffffcc" stroke="black" d="M297.25,-260C297.25,-260 256.75,-260 256.75,-260 250.75,-260 244.75,-254 244.75,-248 244.75,-248 244.75,-236 244.75,-236 244.75,-230 250.75,-224 256.75,-224 256.75,-224 297.25,-224 297.25,-224 303.25,-224 309.25,-230 309.25,-236 309.25,-236 309.25,-248 309.25,-248 309.25,-254 303.25,-260 297.25,-260"/>
<text text-anchor="middle" x="277" y="-238.3" font-family="Helvetica,sans-Serif" font-size="14.00">Explode</text>
</g>
<!-- Explode&#45;&gt;DrawPieChart -->
<g id="edge4" class="edge"><title>Explode&#45;&gt;DrawPieChart</title>
<path fill="none" stroke="black" d="M248.623,-223.876C233.456,-214.724 214.595,-203.342 198.261,-193.485"/>
<polygon fill="black" stroke="black" points="199.856,-190.36 189.486,-188.19 196.239,-196.353 199.856,-190.36"/>
</g>
<!-- Labels -->
<g id="node3" class="node"><title>Labels</title>
<path fill="#ffffcc" stroke="black" d="M213.5,-260C213.5,-260 182.5,-260 182.5,-260 176.5,-260 170.5,-254 170.5,-248 170.5,-248 170.5,-236 170.5,-236 170.5,-230 176.5,-224 182.5,-224 182.5,-224 213.5,-224 213.5,-224 219.5,-224 225.5,-230 225.5,-236 225.5,-236 225.5,-248 225.5,-248 225.5,-254 219.5,-260 213.5,-260"/>
<text text-anchor="middle" x="198" y="-238.3" font-family="Helvetica,sans-Serif" font-size="14.00">Labels</text>
</g>
<!-- Labels&#45;&gt;DrawPieChart -->
<g id="edge3" class="edge"><title>Labels&#45;&gt;DrawPieChart</title>
<path fill="none" stroke="black" d="M188.854,-223.697C184.597,-215.644 179.444,-205.894 174.734,-196.982"/>
<polygon fill="black" stroke="black" points="177.808,-195.31 170.041,-188.104 171.62,-198.581 177.808,-195.31"/>
</g>
<!-- Sizes -->
<g id="node4" class="node"><title>Sizes</title>
<path fill="#ffffcc" stroke="black" d="M140,-260C140,-260 110,-260 110,-260 104,-260 98,-254 98,-248 98,-248 98,-236 98,-236 98,-230 104,-224 110,-224 110,-224 140,-224 140,-224 146,-224 152,-230 152,-236 152,-236 152,-248 152,-248 152,-254 146,-260 140,-260"/>
<text text-anchor="middle" x="125" y="-238.3" font-family="Helvetica,sans-Serif" font-size="14.00">Sizes</text>
</g>
<!-- Sizes&#45;&gt;DrawPieChart -->
<g id="edge2" class="edge"><title>Sizes&#45;&gt;DrawPieChart</title>
<path fill="none" stroke="black" d="M133.899,-223.697C137.997,-215.728 142.949,-206.1 147.493,-197.264"/>
<polygon fill="black" stroke="black" points="150.742,-198.598 152.203,-188.104 144.517,-195.396 150.742,-198.598"/>
</g>
<!-- Colors -->
<g id="node5" class="node"><title>Colors</title>
<path fill="#ffffcc" stroke="black" d="M67.5,-260C67.5,-260 36.5,-260 36.5,-260 30.5,-260 24.5,-254 24.5,-248 24.5,-248 24.5,-236 24.5,-236 24.5,-230 30.5,-224 36.5,-224 36.5,-224 67.5,-224 67.5,-224 73.5,-224 79.5,-230 79.5,-236 79.5,-236 79.5,-248 79.5,-248 79.5,-254 73.5,-260 67.5,-260"/>
<text text-anchor="middle" x="52" y="-238.3" font-family="Helvetica,sans-Serif" font-size="14.00">Colors</text>
</g>
<!-- Colors&#45;&gt;DrawPieChart -->
<g id="edge1" class="edge"><title>Colors&#45;&gt;DrawPieChart</title>
<path fill="none" stroke="black" d="M78.6644,-223.876C92.7842,-214.808 110.311,-203.552 125.561,-193.759"/>
<polygon fill="black" stroke="black" points="127.71,-196.538 134.233,-188.19 123.927,-190.648 127.71,-196.538"/>
</g>
<!-- Sentiment_Result_outflow -->
<g id="node7" class="node"><title>Sentiment_Result_outflow</title>
<ellipse fill="none" stroke="black" cx="161" cy="-31" rx="6.5" ry="7"/>
</g>
<!-- Sentiment_Result&#45;&gt;Sentiment_Result_outflow -->
<g id="edge6" class="edge"><title>Sentiment_Result&#45;&gt;Sentiment_Result_outflow</title>
<path fill="none" stroke="black" d="M161,-78.8492C161,-69.3727 161,-57.6638 161,-48.3223"/>
<polygon fill="black" stroke="black" points="164.5,-48.1021 161,-38.1022 157.5,-48.1022 164.5,-48.1021"/>
</g>
</g>
</svg>
