<?xml version="1.0" encoding="UTF-8" standalone="no"?>
<!DOCTYPE svg PUBLIC "-//W3C//DTD SVG 1.1//EN"
 "http://www.w3.org/Graphics/SVG/1.1/DTD/svg11.dtd">
<!-- Generated by graphviz version 2.36.0 (20140111.2315)
 -->
<!-- Title: yw_data_view Pages: 1 -->
<svg width="628pt" height="466pt"
 viewBox="0.00 0.00 628.00 466.00" xmlns="http://www.w3.org/2000/svg" xmlns:xlink="http://www.w3.org/1999/xlink">
<g id="graph0" class="graph" transform="scale(1 1) rotate(0) translate(4 462)">
<title>yw_data_view</title>
<polygon fill="white" stroke="none" points="-4,4 -4,-462 624,-462 624,4 -4,4"/>
<text text-anchor="middle" x="310" y="-439.6" font-family="Courier,monospace" font-size="18.00">Sentiment_DatumBox</text>
<g id="clust1" class="cluster"><title>cluster_workflow</title>
<polygon fill="none" stroke="black" stroke-width="2" points="8,-8 8,-368 558,-368 558,-8 8,-8"/>
</g>
<g id="clust2" class="cluster"><title>cluster_workflow_inner</title>
<polygon fill="none" stroke="white" stroke-width="2" points="16,-16 16,-360 550,-360 550,-16 16,-16"/>
</g>
<g id="clust3" class="cluster"><title>cluster_inflows</title>
<polygon fill="none" stroke="white" stroke-width="2" points="65,-376 65,-422 111,-422 111,-376 65,-376"/>
</g>
<g id="clust4" class="cluster"><title>cluster_inflows_inner</title>
<polygon fill="none" stroke="white" stroke-width="2" points="73,-384 73,-414 103,-414 103,-384 73,-384"/>
</g>
<g id="clust5" class="cluster"><title>cluster_outflows</title>
<polygon fill="none" stroke="white" stroke-width="2" points="566,-91 566,-137 612,-137 612,-91 566,-91"/>
</g>
<g id="clust6" class="cluster"><title>cluster_outflows_inner</title>
<polygon fill="none" stroke="white" stroke-width="2" points="574,-99 574,-129 604,-129 604,-99 574,-99"/>
</g>
<!-- AccessTweets -->
<g id="node1" class="node"><title>AccessTweets</title>
<polygon fill="#ccffcc" stroke="black" points="155.5,-278 40.5,-278 40.5,-242 155.5,-242 155.5,-278"/>
<text text-anchor="middle" x="98" y="-256.3" font-family="Courier,monospace" font-size="14.00">AccessTweets</text>
</g>
<!-- TweetRead -->
<g id="node6" class="node"><title>TweetRead</title>
<path fill="#ffffcc" stroke="black" d="M127,-205C127,-205 87,-205 87,-205 81,-205 75,-199 75,-193 75,-193 75,-181 75,-181 75,-175 81,-169 87,-169 87,-169 127,-169 127,-169 133,-169 139,-175 139,-181 139,-181 139,-193 139,-193 139,-199 133,-205 127,-205"/>
<text text-anchor="middle" x="107" y="-184.8" font-family="Helvetica,sans-Serif" font-size="9.00">TweetRead</text>
</g>
<!-- AccessTweets&#45;&gt;TweetRead -->
<g id="edge7" class="edge"><title>AccessTweets&#45;&gt;TweetRead</title>
<path fill="none" stroke="black" d="M100.179,-241.813C101.196,-233.789 102.431,-224.047 103.569,-215.069"/>
<polygon fill="black" stroke="black" points="107.056,-215.39 104.841,-205.029 100.112,-214.509 107.056,-215.39"/>
</g>
<!-- CountSentiments -->
<g id="node2" class="node"><title>CountSentiments</title>
<polygon fill="#ccffcc" stroke="black" points="195,-132 55,-132 55,-96 195,-96 195,-132"/>
<text text-anchor="middle" x="125" y="-110.3" font-family="Courier,monospace" font-size="14.00">CountSentiments</text>
</g>
<!-- PositiveCount -->
<g id="node7" class="node"><title>PositiveCount</title>
<path fill="#ffffcc" stroke="black" d="M86,-60C86,-60 36,-60 36,-60 30,-60 24,-54 24,-48 24,-48 24,-36 24,-36 24,-30 30,-24 36,-24 36,-24 86,-24 86,-24 92,-24 98,-30 98,-36 98,-36 98,-48 98,-48 98,-54 92,-60 86,-60"/>
<text text-anchor="middle" x="61" y="-39.8" font-family="Helvetica,sans-Serif" font-size="9.00">PositiveCount</text>
</g>
<!-- CountSentiments&#45;&gt;PositiveCount -->
<g id="edge8" class="edge"><title>CountSentiments&#45;&gt;PositiveCount</title>
<path fill="none" stroke="black" d="M109.18,-95.6966C101.43,-87.2198 91.961,-76.8636 83.4755,-67.5826"/>
<polygon fill="black" stroke="black" points="85.9691,-65.1229 76.6382,-60.1043 80.8029,-69.8464 85.9691,-65.1229"/>
</g>
<!-- NegativeCount -->
<g id="node8" class="node"><title>NegativeCount</title>
<path fill="#ffffcc" stroke="black" d="M182,-60C182,-60 128,-60 128,-60 122,-60 116,-54 116,-48 116,-48 116,-36 116,-36 116,-30 122,-24 128,-24 128,-24 182,-24 182,-24 188,-24 194,-30 194,-36 194,-36 194,-48 194,-48 194,-54 188,-60 182,-60"/>
<text text-anchor="middle" x="155" y="-39.8" font-family="Helvetica,sans-Serif" font-size="9.00">NegativeCount</text>
</g>
<!-- CountSentiments&#45;&gt;NegativeCount -->
<g id="edge9" class="edge"><title>CountSentiments&#45;&gt;NegativeCount</title>
<path fill="none" stroke="black" d="M132.416,-95.6966C135.794,-87.8132 139.87,-78.3042 143.623,-69.5464"/>
<polygon fill="black" stroke="black" points="146.947,-70.6745 147.67,-60.1043 140.513,-67.9171 146.947,-70.6745"/>
</g>
<!-- NeutralCount -->
<g id="node9" class="node"><title>NeutralCount</title>
<path fill="#ffffcc" stroke="black" d="M271.25,-60C271.25,-60 224.75,-60 224.75,-60 218.75,-60 212.75,-54 212.75,-48 212.75,-48 212.75,-36 212.75,-36 212.75,-30 218.75,-24 224.75,-24 224.75,-24 271.25,-24 271.25,-24 277.25,-24 283.25,-30 283.25,-36 283.25,-36 283.25,-48 283.25,-48 283.25,-54 277.25,-60 271.25,-60"/>
<text text-anchor="middle" x="248" y="-39.8" font-family="Helvetica,sans-Serif" font-size="9.00">NeutralCount</text>
</g>
<!-- CountSentiments&#45;&gt;NeutralCount -->
<g id="edge10" class="edge"><title>CountSentiments&#45;&gt;NeutralCount</title>
<path fill="none" stroke="black" d="M155.089,-95.8761C171.32,-86.6388 191.542,-75.1308 208.971,-65.2116"/>
<polygon fill="black" stroke="black" points="210.835,-68.1779 217.795,-60.1898 207.373,-62.0941 210.835,-68.1779"/>
</g>
<!-- Measures -->
<g id="node3" class="node"><title>Measures</title>
<polygon fill="#ccffcc" stroke="black" points="541.25,-351 458.75,-351 458.75,-315 541.25,-315 541.25,-351"/>
<text text-anchor="middle" x="500" y="-329.3" font-family="Courier,monospace" font-size="14.00">Measures</text>
</g>
<!-- DrawPieChart -->
<g id="node4" class="node"><title>DrawPieChart</title>
<polygon fill="#ccffcc" stroke="black" points="398.5,-278 283.5,-278 283.5,-242 398.5,-242 398.5,-278"/>
<text text-anchor="middle" x="341" y="-256.3" font-family="Courier,monospace" font-size="14.00">DrawPieChart</text>
</g>
<!-- Sentiment_Result -->
<g id="node14" class="node"><title>Sentiment_Result</title>
<path fill="#ffe4b5" stroke="black" d="M342,-169C342,-169 466,-169 466,-169 472,-169 478,-175 478,-181 478,-181 478,-193 478,-193 478,-199 472,-205 466,-205 466,-205 342,-205 342,-205 336,-205 330,-199 330,-193 330,-193 330,-181 330,-181 330,-175 336,-169 342,-169"/>
<text text-anchor="middle" x="404" y="-193.8" font-family="Courier,monospace" font-weight="bold" font-size="9.00">[data12] Sentiment_Result</text>
<polyline fill="none" stroke="black" points="330,-187 478,-187 "/>
<text text-anchor="start" x="338" y="-175.8" font-family="Courier,monospace" font-weight="bold" font-size="9.00">Scores_NLTK.jpg</text>
</g>
<!-- DrawPieChart&#45;&gt;Sentiment_Result -->
<g id="edge11" class="edge"><title>DrawPieChart&#45;&gt;Sentiment_Result</title>
<path fill="none" stroke="black" d="M356.251,-241.813C363.989,-233.092 373.529,-222.34 382.042,-212.746"/>
<polygon fill="black" stroke="black" points="384.871,-214.832 388.89,-205.029 379.635,-210.186 384.871,-214.832"/>
</g>
<!-- Static_Tweets -->
<g id="node5" class="node"><title>Static_Tweets</title>
<path fill="#ffe4b5" stroke="black" d="M36.5,-315C36.5,-315 139.5,-315 139.5,-315 145.5,-315 151.5,-321 151.5,-327 151.5,-327 151.5,-339 151.5,-339 151.5,-345 145.5,-351 139.5,-351 139.5,-351 36.5,-351 36.5,-351 30.5,-351 24.5,-345 24.5,-339 24.5,-339 24.5,-327 24.5,-327 24.5,-321 30.5,-315 36.5,-315"/>
<text text-anchor="middle" x="88" y="-339.8" font-family="Courier,monospace" font-weight="bold" font-size="9.00">[data3] Static_Tweets</text>
<polyline fill="none" stroke="black" points="24.5,-333 151.5,-333 "/>
<text text-anchor="start" x="32.5" y="-321.8" font-family="Courier,monospace" font-weight="bold" font-size="9.00">static_tweet.csv</text>
</g>
<!-- Static_Tweets&#45;&gt;AccessTweets -->
<g id="edge1" class="edge"><title>Static_Tweets&#45;&gt;AccessTweets</title>
<path fill="none" stroke="black" d="M90.4207,-314.813C91.5508,-306.789 92.9229,-297.047 94.1874,-288.069"/>
<polygon fill="black" stroke="black" points="97.6726,-288.419 95.6016,-278.029 90.741,-287.443 97.6726,-288.419"/>
</g>
<!-- TweetRead&#45;&gt;CountSentiments -->
<g id="edge2" class="edge"><title>TweetRead&#45;&gt;CountSentiments</title>
<path fill="none" stroke="black" d="M111.357,-168.813C113.414,-160.702 115.915,-150.836 118.212,-141.777"/>
<polygon fill="black" stroke="black" points="121.618,-142.582 120.683,-132.029 114.833,-140.862 121.618,-142.582"/>
</g>
<!-- Explode -->
<g id="node10" class="node"><title>Explode</title>
<path fill="#ffffcc" stroke="black" d="M284,-351C284,-351 254,-351 254,-351 248,-351 242,-345 242,-339 242,-339 242,-327 242,-327 242,-321 248,-315 254,-315 254,-315 284,-315 284,-315 290,-315 296,-321 296,-327 296,-327 296,-339 296,-339 296,-345 290,-351 284,-351"/>
<text text-anchor="middle" x="269" y="-330.8" font-family="Helvetica,sans-Serif" font-size="9.00">Explode</text>
</g>
<!-- Explode&#45;&gt;DrawPieChart -->
<g id="edge3" class="edge"><title>Explode&#45;&gt;DrawPieChart</title>
<path fill="none" stroke="black" d="M286.429,-314.813C295.45,-305.917 306.613,-294.909 316.488,-285.172"/>
<polygon fill="black" stroke="black" points="319.068,-287.542 323.731,-278.029 314.153,-282.558 319.068,-287.542"/>
</g>
<!-- Labels -->
<g id="node11" class="node"><title>Labels</title>
<path fill="#ffffcc" stroke="black" d="M212,-351C212,-351 182,-351 182,-351 176,-351 170,-345 170,-339 170,-339 170,-327 170,-327 170,-321 176,-315 182,-315 182,-315 212,-315 212,-315 218,-315 224,-321 224,-327 224,-327 224,-339 224,-339 224,-345 218,-351 212,-351"/>
<text text-anchor="middle" x="197" y="-330.8" font-family="Helvetica,sans-Serif" font-size="9.00">Labels</text>
</g>
<!-- Labels&#45;&gt;DrawPieChart -->
<g id="edge4" class="edge"><title>Labels&#45;&gt;DrawPieChart</title>
<path fill="none" stroke="black" d="M224.116,-318.415C227.112,-316.922 230.12,-315.427 233,-314 254.004,-303.595 277.348,-292.128 296.944,-282.528"/>
<polygon fill="black" stroke="black" points="298.505,-285.661 305.948,-278.12 295.427,-279.374 298.505,-285.661"/>
</g>
<!-- Sizes -->
<g id="node12" class="node"><title>Sizes</title>
<path fill="#ffffcc" stroke="black" d="M428,-351C428,-351 398,-351 398,-351 392,-351 386,-345 386,-339 386,-339 386,-327 386,-327 386,-321 392,-315 398,-315 398,-315 428,-315 428,-315 434,-315 440,-321 440,-327 440,-327 440,-339 440,-339 440,-345 434,-351 428,-351"/>
<text text-anchor="middle" x="413" y="-330.8" font-family="Helvetica,sans-Serif" font-size="9.00">Sizes</text>
</g>
<!-- Sizes&#45;&gt;DrawPieChart -->
<g id="edge5" class="edge"><title>Sizes&#45;&gt;DrawPieChart</title>
<path fill="none" stroke="black" d="M395.571,-314.813C386.55,-305.917 375.387,-294.909 365.512,-285.172"/>
<polygon fill="black" stroke="black" points="367.847,-282.558 358.269,-278.029 362.932,-287.542 367.847,-282.558"/>
</g>
<!-- Colors -->
<g id="node13" class="node"><title>Colors</title>
<path fill="#ffffcc" stroke="black" d="M356,-351C356,-351 326,-351 326,-351 320,-351 314,-345 314,-339 314,-339 314,-327 314,-327 314,-321 320,-315 326,-315 326,-315 356,-315 356,-315 362,-315 368,-321 368,-327 368,-327 368,-339 368,-339 368,-345 362,-351 356,-351"/>
<text text-anchor="middle" x="341" y="-330.8" font-family="Helvetica,sans-Serif" font-size="9.00">Colors</text>
</g>
<!-- Colors&#45;&gt;DrawPieChart -->
<g id="edge6" class="edge"><title>Colors&#45;&gt;DrawPieChart</title>
<path fill="none" stroke="black" d="M341,-314.813C341,-306.789 341,-297.047 341,-288.069"/>
<polygon fill="black" stroke="black" points="344.5,-288.029 341,-278.029 337.5,-288.029 344.5,-288.029"/>
</g>
<!-- Sentiment_Result_outflow -->
<g id="node16" class="node"><title>Sentiment_Result_outflow</title>
<ellipse fill="none" stroke="black" cx="589" cy="-114" rx="6.5" ry="7"/>
</g>
<!-- Sentiment_Result&#45;&gt;Sentiment_Result_outflow -->
<g id="edge13" class="edge"><title>Sentiment_Result&#45;&gt;Sentiment_Result_outflow</title>
<path fill="none" stroke="black" d="M467.723,-168.962C494.897,-160.738 526.591,-149.852 554,-137 561.335,-133.561 569.006,-128.877 575.291,-124.716"/>
<polygon fill="black" stroke="black" points="577.535,-127.419 583.778,-118.859 573.56,-121.658 577.535,-127.419"/>
</g>
<!-- Static_Tweets_inflow -->
<g id="node15" class="node"><title>Static_Tweets_inflow</title>
<ellipse fill="none" stroke="black" cx="88" cy="-399" rx="6.5" ry="7"/>
</g>
<!-- Static_Tweets_inflow&#45;&gt;Static_Tweets -->
<g id="edge12" class="edge"><title>Static_Tweets_inflow&#45;&gt;Static_Tweets</title>
<path fill="none" stroke="black" d="M88,-391.629C88,-384.537 88,-372.598 88,-361.42"/>
<polygon fill="black" stroke="black" points="91.5001,-361.119 88,-351.119 84.5001,-361.119 91.5001,-361.119"/>
</g>
</g>
</svg>
