<?xml version="1.0" encoding="UTF-8" standalone="no"?>
<!DOCTYPE svg PUBLIC "-//W3C//DTD SVG 1.1//EN"
 "http://www.w3.org/Graphics/SVG/1.1/DTD/svg11.dtd">
<!-- Generated by graphviz version 2.36.0 (20140111.2315)
 -->
<!-- Title: yw_data_view Pages: 1 -->
<svg width="326pt" height="808pt"
 viewBox="0.00 0.00 326.00 808.00" xmlns="http://www.w3.org/2000/svg" xmlns:xlink="http://www.w3.org/1999/xlink">
<g id="graph0" class="graph" transform="scale(1 1) rotate(0) translate(4 804)">
<title>yw_data_view</title>
<polygon fill="white" stroke="none" points="-4,4 -4,-804 322,-804 322,4 -4,4"/>
<text text-anchor="middle" x="159" y="-781.6" font-family="Courier,monospace" font-size="18.00">Sentiment_DatumBox</text>
<g id="clust1" class="cluster"><title>cluster_workflow</title>
<polygon fill="none" stroke="black" stroke-width="2" points="8,-62 8,-710 310,-710 310,-62 8,-62"/>
</g>
<g id="clust2" class="cluster"><title>cluster_workflow_inner</title>
<polygon fill="none" stroke="white" stroke-width="2" points="16,-70 16,-702 302,-702 302,-70 16,-70"/>
</g>
<g id="clust3" class="cluster"><title>cluster_inflows</title>
<polygon fill="none" stroke="white" stroke-width="2" points="137,-718 137,-764 183,-764 183,-718 137,-718"/>
</g>
<g id="clust4" class="cluster"><title>cluster_inflows_inner</title>
<polygon fill="none" stroke="white" stroke-width="2" points="145,-726 145,-756 175,-756 175,-726 145,-726"/>
</g>
<g id="clust5" class="cluster"><title>cluster_outflows</title>
<polygon fill="none" stroke="white" stroke-width="2" points="136,-8 136,-54 182,-54 182,-8 136,-8"/>
</g>
<g id="clust6" class="cluster"><title>cluster_outflows_inner</title>
<polygon fill="none" stroke="white" stroke-width="2" points="144,-16 144,-46 174,-46 174,-16 144,-16"/>
</g>
<!-- AccessTweets -->
<g id="node1" class="node"><title>AccessTweets</title>
<polygon fill="#ccffcc" stroke="black" points="217.5,-620 102.5,-620 102.5,-584 217.5,-584 217.5,-620"/>
<text text-anchor="middle" x="160" y="-598.3" font-family="Courier,monospace" font-size="14.00">AccessTweets</text>
</g>
<!-- TweetRead -->
<g id="node6" class="node"><title>TweetRead</title>
<path fill="#ffffcc" stroke="black" d="M180,-548C180,-548 140,-548 140,-548 134,-548 128,-542 128,-536 128,-536 128,-524 128,-524 128,-518 134,-512 140,-512 140,-512 180,-512 180,-512 186,-512 192,-518 192,-524 192,-524 192,-536 192,-536 192,-542 186,-548 180,-548"/>
<text text-anchor="middle" x="160" y="-527.8" font-family="Helvetica,sans-Serif" font-size="9.00">TweetRead</text>
</g>
<!-- AccessTweets&#45;&gt;TweetRead -->
<g id="edge10" class="edge"><title>AccessTweets&#45;&gt;TweetRead</title>
<path fill="none" stroke="black" d="M160,-583.697C160,-575.983 160,-566.712 160,-558.112"/>
<polygon fill="black" stroke="black" points="163.5,-558.104 160,-548.104 156.5,-558.104 163.5,-558.104"/>
</g>
<!-- CountSentiments -->
<g id="node2" class="node"><title>CountSentiments</title>
<polygon fill="#ccffcc" stroke="black" points="230,-476 90,-476 90,-440 230,-440 230,-476"/>
<text text-anchor="middle" x="160" y="-454.3" font-family="Courier,monospace" font-size="14.00">CountSentiments</text>
</g>
<!-- PositiveCount -->
<g id="node7" class="node"><title>PositiveCount</title>
<path fill="#ffffcc" stroke="black" d="M91,-404C91,-404 41,-404 41,-404 35,-404 29,-398 29,-392 29,-392 29,-380 29,-380 29,-374 35,-368 41,-368 41,-368 91,-368 91,-368 97,-368 103,-374 103,-380 103,-380 103,-392 103,-392 103,-398 97,-404 91,-404"/>
<text text-anchor="middle" x="66" y="-383.8" font-family="Helvetica,sans-Serif" font-size="9.00">PositiveCount</text>
</g>
<!-- CountSentiments&#45;&gt;PositiveCount -->
<g id="edge11" class="edge"><title>CountSentiments&#45;&gt;PositiveCount</title>
<path fill="none" stroke="black" d="M136.764,-439.697C124.812,-430.796 110.077,-419.823 97.1528,-410.199"/>
<polygon fill="black" stroke="black" points="99.0796,-407.27 88.9687,-404.104 94.8987,-412.884 99.0796,-407.27"/>
</g>
<!-- NegativeCount -->
<g id="node8" class="node"><title>NegativeCount</title>
<path fill="#ffffcc" stroke="black" d="M187,-404C187,-404 133,-404 133,-404 127,-404 121,-398 121,-392 121,-392 121,-380 121,-380 121,-374 127,-368 133,-368 133,-368 187,-368 187,-368 193,-368 199,-374 199,-380 199,-380 199,-392 199,-392 199,-398 193,-404 187,-404"/>
<text text-anchor="middle" x="160" y="-383.8" font-family="Helvetica,sans-Serif" font-size="9.00">NegativeCount</text>
</g>
<!-- CountSentiments&#45;&gt;NegativeCount -->
<g id="edge12" class="edge"><title>CountSentiments&#45;&gt;NegativeCount</title>
<path fill="none" stroke="black" d="M160,-439.697C160,-431.983 160,-422.712 160,-414.112"/>
<polygon fill="black" stroke="black" points="163.5,-414.104 160,-404.104 156.5,-414.104 163.5,-414.104"/>
</g>
<!-- NeutralCount -->
<g id="node9" class="node"><title>NeutralCount</title>
<path fill="#ffffcc" stroke="black" d="M276.25,-404C276.25,-404 229.75,-404 229.75,-404 223.75,-404 217.75,-398 217.75,-392 217.75,-392 217.75,-380 217.75,-380 217.75,-374 223.75,-368 229.75,-368 229.75,-368 276.25,-368 276.25,-368 282.25,-368 288.25,-374 288.25,-380 288.25,-380 288.25,-392 288.25,-392 288.25,-398 282.25,-404 276.25,-404"/>
<text text-anchor="middle" x="253" y="-383.8" font-family="Helvetica,sans-Serif" font-size="9.00">NeutralCount</text>
</g>
<!-- CountSentiments&#45;&gt;NeutralCount -->
<g id="edge13" class="edge"><title>CountSentiments&#45;&gt;NeutralCount</title>
<path fill="none" stroke="black" d="M182.989,-439.697C194.814,-430.796 209.392,-419.823 222.179,-410.199"/>
<polygon fill="black" stroke="black" points="224.391,-412.915 230.276,-404.104 220.181,-407.322 224.391,-412.915"/>
</g>
<!-- Measures -->
<g id="node3" class="node"><title>Measures</title>
<polygon fill="#ccffcc" stroke="black" points="201.25,-332 118.75,-332 118.75,-296 201.25,-296 201.25,-332"/>
<text text-anchor="middle" x="160" y="-310.3" font-family="Courier,monospace" font-size="14.00">Measures</text>
</g>
<!-- Explode -->
<g id="node10" class="node"><title>Explode</title>
<path fill="#ffffcc" stroke="black" d="M66,-260C66,-260 36,-260 36,-260 30,-260 24,-254 24,-248 24,-248 24,-236 24,-236 24,-230 30,-224 36,-224 36,-224 66,-224 66,-224 72,-224 78,-230 78,-236 78,-236 78,-248 78,-248 78,-254 72,-260 66,-260"/>
<text text-anchor="middle" x="51" y="-239.8" font-family="Helvetica,sans-Serif" font-size="9.00">Explode</text>
</g>
<!-- Measures&#45;&gt;Explode -->
<g id="edge14" class="edge"><title>Measures&#45;&gt;Explode</title>
<path fill="none" stroke="black" d="M133.336,-295.876C119.216,-286.808 101.689,-275.552 86.4393,-265.759"/>
<polygon fill="black" stroke="black" points="88.0725,-262.648 77.7669,-260.19 84.2899,-268.538 88.0725,-262.648"/>
</g>
<!-- Labels -->
<g id="node11" class="node"><title>Labels</title>
<path fill="#ffffcc" stroke="black" d="M138,-260C138,-260 108,-260 108,-260 102,-260 96,-254 96,-248 96,-248 96,-236 96,-236 96,-230 102,-224 108,-224 108,-224 138,-224 138,-224 144,-224 150,-230 150,-236 150,-236 150,-248 150,-248 150,-254 144,-260 138,-260"/>
<text text-anchor="middle" x="123" y="-239.8" font-family="Helvetica,sans-Serif" font-size="9.00">Labels</text>
</g>
<!-- Measures&#45;&gt;Labels -->
<g id="edge15" class="edge"><title>Measures&#45;&gt;Labels</title>
<path fill="none" stroke="black" d="M150.854,-295.697C146.597,-287.644 141.444,-277.894 136.734,-268.982"/>
<polygon fill="black" stroke="black" points="139.808,-267.31 132.041,-260.104 133.62,-270.581 139.808,-267.31"/>
</g>
<!-- Sizes -->
<g id="node12" class="node"><title>Sizes</title>
<path fill="#ffffcc" stroke="black" d="M210,-260C210,-260 180,-260 180,-260 174,-260 168,-254 168,-248 168,-248 168,-236 168,-236 168,-230 174,-224 180,-224 180,-224 210,-224 210,-224 216,-224 222,-230 222,-236 222,-236 222,-248 222,-248 222,-254 216,-260 210,-260"/>
<text text-anchor="middle" x="195" y="-239.8" font-family="Helvetica,sans-Serif" font-size="9.00">Sizes</text>
</g>
<!-- Measures&#45;&gt;Sizes -->
<g id="edge16" class="edge"><title>Measures&#45;&gt;Sizes</title>
<path fill="none" stroke="black" d="M168.652,-295.697C172.636,-287.728 177.45,-278.1 181.868,-269.264"/>
<polygon fill="black" stroke="black" points="185.106,-270.614 186.448,-260.104 178.845,-267.483 185.106,-270.614"/>
</g>
<!-- Colors -->
<g id="node13" class="node"><title>Colors</title>
<path fill="#ffffcc" stroke="black" d="M282,-260C282,-260 252,-260 252,-260 246,-260 240,-254 240,-248 240,-248 240,-236 240,-236 240,-230 246,-224 252,-224 252,-224 282,-224 282,-224 288,-224 294,-230 294,-236 294,-236 294,-248 294,-248 294,-254 288,-260 282,-260"/>
<text text-anchor="middle" x="267" y="-239.8" font-family="Helvetica,sans-Serif" font-size="9.00">Colors</text>
</g>
<!-- Measures&#45;&gt;Colors -->
<g id="edge17" class="edge"><title>Measures&#45;&gt;Colors</title>
<path fill="none" stroke="black" d="M186.175,-295.876C200.036,-286.808 217.241,-275.552 232.211,-265.759"/>
<polygon fill="black" stroke="black" points="234.272,-268.593 240.724,-260.19 230.44,-262.735 234.272,-268.593"/>
</g>
<!-- DrawPieChart -->
<g id="node4" class="node"><title>DrawPieChart</title>
<polygon fill="#ccffcc" stroke="black" points="216.5,-188 101.5,-188 101.5,-152 216.5,-152 216.5,-188"/>
<text text-anchor="middle" x="159" y="-166.3" font-family="Courier,monospace" font-size="14.00">DrawPieChart</text>
</g>
<!-- Sentiment_Result -->
<g id="node14" class="node"><title>Sentiment_Result</title>
<path fill="#ffe4b5" stroke="black" d="M97,-79C97,-79 221,-79 221,-79 227,-79 233,-85 233,-91 233,-91 233,-103 233,-103 233,-109 227,-115 221,-115 221,-115 97,-115 97,-115 91,-115 85,-109 85,-103 85,-103 85,-91 85,-91 85,-85 91,-79 97,-79"/>
<text text-anchor="middle" x="159" y="-103.8" font-family="Courier,monospace" font-weight="bold" font-size="9.00">[data12] Sentiment_Result</text>
<polyline fill="none" stroke="black" points="85,-97 233,-97 "/>
<text text-anchor="middle" x="159" y="-85.8" font-family="Courier,monospace" font-weight="bold" font-size="9.00"> </text>
</g>
<!-- DrawPieChart&#45;&gt;Sentiment_Result -->
<g id="edge18" class="edge"><title>DrawPieChart&#45;&gt;Sentiment_Result</title>
<path fill="none" stroke="black" d="M159,-151.813C159,-143.789 159,-134.047 159,-125.069"/>
<polygon fill="black" stroke="black" points="162.5,-125.029 159,-115.029 155.5,-125.029 162.5,-125.029"/>
</g>
<!-- Static_Tweets -->
<g id="node5" class="node"><title>Static_Tweets</title>
<path fill="#ffe4b5" stroke="black" d="M108.5,-657C108.5,-657 211.5,-657 211.5,-657 217.5,-657 223.5,-663 223.5,-669 223.5,-669 223.5,-681 223.5,-681 223.5,-687 217.5,-693 211.5,-693 211.5,-693 108.5,-693 108.5,-693 102.5,-693 96.5,-687 96.5,-681 96.5,-681 96.5,-669 96.5,-669 96.5,-663 102.5,-657 108.5,-657"/>
<text text-anchor="middle" x="160" y="-681.8" font-family="Courier,monospace" font-weight="bold" font-size="9.00">[data3] Static_Tweets</text>
<polyline fill="none" stroke="black" points="96.5,-675 223.5,-675 "/>
<text text-anchor="middle" x="160" y="-663.8" font-family="Courier,monospace" font-weight="bold" font-size="9.00"> </text>
</g>
<!-- Static_Tweets&#45;&gt;AccessTweets -->
<g id="edge1" class="edge"><title>Static_Tweets&#45;&gt;AccessTweets</title>
<path fill="none" stroke="black" d="M160,-656.813C160,-648.789 160,-639.047 160,-630.069"/>
<polygon fill="black" stroke="black" points="163.5,-630.029 160,-620.029 156.5,-630.029 163.5,-630.029"/>
</g>
<!-- TweetRead&#45;&gt;CountSentiments -->
<g id="edge2" class="edge"><title>TweetRead&#45;&gt;CountSentiments</title>
<path fill="none" stroke="black" d="M160,-511.697C160,-503.983 160,-494.712 160,-486.112"/>
<polygon fill="black" stroke="black" points="163.5,-486.104 160,-476.104 156.5,-486.104 163.5,-486.104"/>
</g>
<!-- PositiveCount&#45;&gt;Measures -->
<g id="edge3" class="edge"><title>PositiveCount&#45;&gt;Measures</title>
<path fill="none" stroke="black" d="M89.236,-367.697C101.188,-358.796 115.923,-347.823 128.847,-338.199"/>
<polygon fill="black" stroke="black" points="131.101,-340.884 137.031,-332.104 126.92,-335.27 131.101,-340.884"/>
</g>
<!-- NegativeCount&#45;&gt;Measures -->
<g id="edge4" class="edge"><title>NegativeCount&#45;&gt;Measures</title>
<path fill="none" stroke="black" d="M160,-367.697C160,-359.983 160,-350.712 160,-342.112"/>
<polygon fill="black" stroke="black" points="163.5,-342.104 160,-332.104 156.5,-342.104 163.5,-342.104"/>
</g>
<!-- NeutralCount&#45;&gt;Measures -->
<g id="edge5" class="edge"><title>NeutralCount&#45;&gt;Measures</title>
<path fill="none" stroke="black" d="M230.011,-367.697C218.186,-358.796 203.608,-347.823 190.821,-338.199"/>
<polygon fill="black" stroke="black" points="192.819,-335.322 182.724,-332.104 188.609,-340.915 192.819,-335.322"/>
</g>
<!-- Explode&#45;&gt;DrawPieChart -->
<g id="edge6" class="edge"><title>Explode&#45;&gt;DrawPieChart</title>
<path fill="none" stroke="black" d="M77.4198,-223.876C91.41,-214.808 108.776,-203.552 123.886,-193.759"/>
<polygon fill="black" stroke="black" points="125.991,-196.566 132.479,-188.19 122.183,-190.692 125.991,-196.566"/>
</g>
<!-- Labels&#45;&gt;DrawPieChart -->
<g id="edge7" class="edge"><title>Labels&#45;&gt;DrawPieChart</title>
<path fill="none" stroke="black" d="M131.899,-223.697C135.997,-215.728 140.949,-206.1 145.493,-197.264"/>
<polygon fill="black" stroke="black" points="148.742,-198.598 150.203,-188.104 142.517,-195.396 148.742,-198.598"/>
</g>
<!-- Sizes&#45;&gt;DrawPieChart -->
<g id="edge8" class="edge"><title>Sizes&#45;&gt;DrawPieChart</title>
<path fill="none" stroke="black" d="M186.101,-223.697C182.003,-215.728 177.051,-206.1 172.507,-197.264"/>
<polygon fill="black" stroke="black" points="175.483,-195.396 167.797,-188.104 169.258,-198.598 175.483,-195.396"/>
</g>
<!-- Colors&#45;&gt;DrawPieChart -->
<g id="edge9" class="edge"><title>Colors&#45;&gt;DrawPieChart</title>
<path fill="none" stroke="black" d="M240.58,-223.876C226.59,-214.808 209.224,-203.552 194.114,-193.759"/>
<polygon fill="black" stroke="black" points="195.817,-190.692 185.521,-188.19 192.009,-196.566 195.817,-190.692"/>
</g>
<!-- Sentiment_Result_outflow -->
<g id="node16" class="node"><title>Sentiment_Result_outflow</title>
<ellipse fill="none" stroke="black" cx="159" cy="-31" rx="6.5" ry="7"/>
</g>
<!-- Sentiment_Result&#45;&gt;Sentiment_Result_outflow -->
<g id="edge20" class="edge"><title>Sentiment_Result&#45;&gt;Sentiment_Result_outflow</title>
<path fill="none" stroke="black" d="M159,-78.8492C159,-69.3727 159,-57.6638 159,-48.3223"/>
<polygon fill="black" stroke="black" points="162.5,-48.1021 159,-38.1022 155.5,-48.1022 162.5,-48.1021"/>
</g>
<!-- Static_Tweets_inflow -->
<g id="node15" class="node"><title>Static_Tweets_inflow</title>
<ellipse fill="none" stroke="black" cx="160" cy="-741" rx="6.5" ry="7"/>
</g>
<!-- Static_Tweets_inflow&#45;&gt;Static_Tweets -->
<g id="edge19" class="edge"><title>Static_Tweets_inflow&#45;&gt;Static_Tweets</title>
<path fill="none" stroke="black" d="M160,-733.629C160,-726.537 160,-714.598 160,-703.42"/>
<polygon fill="black" stroke="black" points="163.5,-703.119 160,-693.119 156.5,-703.119 163.5,-703.119"/>
</g>
</g>
</svg>
