<?xml version="1.0" encoding="UTF-8" standalone="no"?>
<!DOCTYPE svg PUBLIC "-//W3C//DTD SVG 1.1//EN"
 "http://www.w3.org/Graphics/SVG/1.1/DTD/svg11.dtd">
<!-- Generated by graphviz version 2.36.0 (20140111.2315)
 -->
<!-- Title: yw_data_view Pages: 1 -->
<svg width="214pt" height="462pt"
 viewBox="0.00 0.00 214.00 462.00" xmlns="http://www.w3.org/2000/svg" xmlns:xlink="http://www.w3.org/1999/xlink">
<g id="graph0" class="graph" transform="scale(1 1) rotate(0) translate(4 458)">
<title>yw_data_view</title>
<polygon fill="white" stroke="none" points="-4,4 -4,-458 210,-458 210,4 -4,4"/>
<text text-anchor="middle" x="103" y="-435.6" font-family="Courier,monospace" font-size="18.00">Sentiment_DatumBox</text>
<g id="clust1" class="cluster"><title>cluster_workflow</title>
<polygon fill="none" stroke="black" stroke-width="2" points="17,-8 17,-364 189,-364 189,-8 17,-8"/>
</g>
<g id="clust2" class="cluster"><title>cluster_workflow_inner</title>
<polygon fill="none" stroke="white" stroke-width="2" points="25,-16 25,-356 181,-356 181,-16 25,-16"/>
</g>
<g id="clust3" class="cluster"><title>cluster_inflows</title>
<polygon fill="none" stroke="white" stroke-width="2" points="80,-372 80,-418 126,-418 126,-372 80,-372"/>
</g>
<g id="clust4" class="cluster"><title>cluster_inflows_inner</title>
<polygon fill="none" stroke="white" stroke-width="2" points="88,-380 88,-410 118,-410 118,-380 88,-380"/>
</g>
<!-- AccessTweets -->
<g id="node1" class="node"><title>AccessTweets</title>
<polygon fill="#ccffcc" stroke="black" points="160.5,-276 45.5,-276 45.5,-240 160.5,-240 160.5,-276"/>
<text text-anchor="middle" x="103" y="-254.3" font-family="Courier,monospace" font-size="14.00">AccessTweets</text>
</g>
<!-- TweetRead -->
<g id="node4" class="node"><title>TweetRead</title>
<path fill="#ffffcc" stroke="black" d="M134,-204C134,-204 72,-204 72,-204 66,-204 60,-198 60,-192 60,-192 60,-180 60,-180 60,-174 66,-168 72,-168 72,-168 134,-168 134,-168 140,-168 146,-174 146,-180 146,-180 146,-192 146,-192 146,-198 140,-204 134,-204"/>
<text text-anchor="middle" x="103" y="-182.3" font-family="Helvetica,sans-Serif" font-size="14.00">TweetRead</text>
</g>
<!-- AccessTweets&#45;&gt;TweetRead -->
<g id="edge3" class="edge"><title>AccessTweets&#45;&gt;TweetRead</title>
<path fill="none" stroke="black" d="M103,-239.697C103,-231.983 103,-222.712 103,-214.112"/>
<polygon fill="black" stroke="black" points="106.5,-214.104 103,-204.104 99.5001,-214.104 106.5,-214.104"/>
</g>
<!-- CountSentiments -->
<g id="node2" class="node"><title>CountSentiments</title>
<polygon fill="#ccffcc" stroke="black" points="173,-132 33,-132 33,-96 173,-96 173,-132"/>
<text text-anchor="middle" x="103" y="-110.3" font-family="Courier,monospace" font-size="14.00">CountSentiments</text>
</g>
<!-- PositiveCount -->
<g id="node5" class="node"><title>PositiveCount</title>
<path fill="#ffffcc" stroke="black" d="M141,-60C141,-60 65,-60 65,-60 59,-60 53,-54 53,-48 53,-48 53,-36 53,-36 53,-30 59,-24 65,-24 65,-24 141,-24 141,-24 147,-24 153,-30 153,-36 153,-36 153,-48 153,-48 153,-54 147,-60 141,-60"/>
<text text-anchor="middle" x="103" y="-38.3" font-family="Helvetica,sans-Serif" font-size="14.00">PositiveCount</text>
</g>
<!-- CountSentiments&#45;&gt;PositiveCount -->
<g id="edge4" class="edge"><title>CountSentiments&#45;&gt;PositiveCount</title>
<path fill="none" stroke="black" d="M103,-95.6966C103,-87.9827 103,-78.7125 103,-70.1124"/>
<polygon fill="black" stroke="black" points="106.5,-70.1043 103,-60.1043 99.5001,-70.1044 106.5,-70.1043"/>
</g>
<!-- Static_Tweets -->
<g id="node3" class="node"><title>Static_Tweets</title>
<path fill="#ffffcc" stroke="black" d="M141.25,-348C141.25,-348 64.75,-348 64.75,-348 58.75,-348 52.75,-342 52.75,-336 52.75,-336 52.75,-324 52.75,-324 52.75,-318 58.75,-312 64.75,-312 64.75,-312 141.25,-312 141.25,-312 147.25,-312 153.25,-318 153.25,-324 153.25,-324 153.25,-336 153.25,-336 153.25,-342 147.25,-348 141.25,-348"/>
<text text-anchor="middle" x="103" y="-326.3" font-family="Helvetica,sans-Serif" font-size="14.00">Static_Tweets</text>
</g>
<!-- Static_Tweets&#45;&gt;AccessTweets -->
<g id="edge2" class="edge"><title>Static_Tweets&#45;&gt;AccessTweets</title>
<path fill="none" stroke="black" d="M103,-311.697C103,-303.983 103,-294.712 103,-286.112"/>
<polygon fill="black" stroke="black" points="106.5,-286.104 103,-276.104 99.5001,-286.104 106.5,-286.104"/>
</g>
<!-- TweetRead&#45;&gt;CountSentiments -->
<g id="edge1" class="edge"><title>TweetRead&#45;&gt;CountSentiments</title>
<path fill="none" stroke="black" d="M103,-167.697C103,-159.983 103,-150.712 103,-142.112"/>
<polygon fill="black" stroke="black" points="106.5,-142.104 103,-132.104 99.5001,-142.104 106.5,-142.104"/>
</g>
<!-- Static_Tweets_inflow -->
<g id="node6" class="node"><title>Static_Tweets_inflow</title>
<ellipse fill="none" stroke="black" cx="103" cy="-395" rx="6.5" ry="7"/>
</g>
<!-- Static_Tweets_inflow&#45;&gt;Static_Tweets -->
<g id="edge5" class="edge"><title>Static_Tweets_inflow&#45;&gt;Static_Tweets</title>
<path fill="none" stroke="black" d="M103,-387.729C103,-380.795 103,-369.154 103,-358.215"/>
<polygon fill="black" stroke="black" points="106.5,-358.119 103,-348.119 99.5001,-358.119 106.5,-358.119"/>
</g>
</g>
</svg>
