<?xml version="1.0" encoding="UTF-8" standalone="no"?>
<!DOCTYPE svg PUBLIC "-//W3C//DTD SVG 1.1//EN"
 "http://www.w3.org/Graphics/SVG/1.1/DTD/svg11.dtd">
<!-- Generated by graphviz version 2.36.0 (20140111.2315)
 -->
<!-- Title: yw_data_view Pages: 1 -->
<svg width="342pt" height="318pt"
 viewBox="0.00 0.00 342.00 318.00" xmlns="http://www.w3.org/2000/svg" xmlns:xlink="http://www.w3.org/1999/xlink">
<g id="graph0" class="graph" transform="scale(1 1) rotate(0) translate(4 314)">
<title>yw_data_view</title>
<polygon fill="white" stroke="none" points="-4,4 -4,-314 338,-314 338,4 -4,4"/>
<text text-anchor="middle" x="167" y="-291.6" font-family="Courier,monospace" font-size="18.00">Sentiment_DatumBox</text>
<g id="clust1" class="cluster"><title>cluster_workflow</title>
<polygon fill="none" stroke="black" stroke-width="2" points="8,-62 8,-274 326,-274 326,-62 8,-62"/>
</g>
<g id="clust2" class="cluster"><title>cluster_workflow_inner</title>
<polygon fill="none" stroke="white" stroke-width="2" points="16,-70 16,-266 318,-266 318,-70 16,-70"/>
</g>
<g id="clust5" class="cluster"><title>cluster_outflows</title>
<polygon fill="none" stroke="white" stroke-width="2" points="138,-8 138,-54 184,-54 184,-8 138,-8"/>
</g>
<g id="clust6" class="cluster"><title>cluster_outflows_inner</title>
<polygon fill="none" stroke="white" stroke-width="2" points="146,-16 146,-46 176,-46 176,-16 146,-16"/>
</g>
<!-- DrawPieChart -->
<g id="node1" class="node"><title>DrawPieChart</title>
<polygon fill="#ccffcc" stroke="black" points="218.5,-186 103.5,-186 103.5,-150 218.5,-150 218.5,-186"/>
<text text-anchor="middle" x="161" y="-164.3" font-family="Courier,monospace" font-size="14.00">DrawPieChart</text>
</g>
<!-- Sentiment_Result -->
<g id="node6" class="node"><title>Sentiment_Result</title>
<path fill="#ffffcc" stroke="black" d="M210.5,-114C210.5,-114 111.5,-114 111.5,-114 105.5,-114 99.5,-108 99.5,-102 99.5,-102 99.5,-90 99.5,-90 99.5,-84 105.5,-78 111.5,-78 111.5,-78 210.5,-78 210.5,-78 216.5,-78 222.5,-84 222.5,-90 222.5,-90 222.5,-102 222.5,-102 222.5,-108 216.5,-114 210.5,-114"/>
<text text-anchor="middle" x="161" y="-92.3" font-family="Helvetica,sans-Serif" font-size="14.00">Sentiment_Result</text>
</g>
<!-- DrawPieChart&#45;&gt;Sentiment_Result -->
<g id="edge5" class="edge"><title>DrawPieChart&#45;&gt;Sentiment_Result</title>
<path fill="none" stroke="black" d="M161,-149.697C161,-141.983 161,-132.712 161,-124.112"/>
<polygon fill="black" stroke="black" points="164.5,-124.104 161,-114.104 157.5,-124.104 164.5,-124.104"/>
</g>
<!-- Explode -->
<g id="node2" class="node"><title>Explode</title>
<path fill="#ffffcc" stroke="black" d="M297.25,-258C297.25,-258 256.75,-258 256.75,-258 250.75,-258 244.75,-252 244.75,-246 244.75,-246 244.75,-234 244.75,-234 244.75,-228 250.75,-222 256.75,-222 256.75,-222 297.25,-222 297.25,-222 303.25,-222 309.25,-228 309.25,-234 309.25,-234 309.25,-246 309.25,-246 309.25,-252 303.25,-258 297.25,-258"/>
<text text-anchor="middle" x="277" y="-236.3" font-family="Helvetica,sans-Serif" font-size="14.00">Explode</text>
</g>
<!-- Explode&#45;&gt;DrawPieChart -->
<g id="edge4" class="edge"><title>Explode&#45;&gt;DrawPieChart</title>
<path fill="none" stroke="black" d="M248.623,-221.876C233.456,-212.724 214.595,-201.342 198.261,-191.485"/>
<polygon fill="black" stroke="black" points="199.856,-188.36 189.486,-186.19 196.239,-194.353 199.856,-188.36"/>
</g>
<!-- Labels -->
<g id="node3" class="node"><title>Labels</title>
<path fill="#ffffcc" stroke="black" d="M213.5,-258C213.5,-258 182.5,-258 182.5,-258 176.5,-258 170.5,-252 170.5,-246 170.5,-246 170.5,-234 170.5,-234 170.5,-228 176.5,-222 182.5,-222 182.5,-222 213.5,-222 213.5,-222 219.5,-222 225.5,-228 225.5,-234 225.5,-234 225.5,-246 225.5,-246 225.5,-252 219.5,-258 213.5,-258"/>
<text text-anchor="middle" x="198" y="-236.3" font-family="Helvetica,sans-Serif" font-size="14.00">Labels</text>
</g>
<!-- Labels&#45;&gt;DrawPieChart -->
<g id="edge3" class="edge"><title>Labels&#45;&gt;DrawPieChart</title>
<path fill="none" stroke="black" d="M188.854,-221.697C184.597,-213.644 179.444,-203.894 174.734,-194.982"/>
<polygon fill="black" stroke="black" points="177.808,-193.31 170.041,-186.104 171.62,-196.581 177.808,-193.31"/>
</g>
<!-- Sizes -->
<g id="node4" class="node"><title>Sizes</title>
<path fill="#ffffcc" stroke="black" d="M140,-258C140,-258 110,-258 110,-258 104,-258 98,-252 98,-246 98,-246 98,-234 98,-234 98,-228 104,-222 110,-222 110,-222 140,-222 140,-222 146,-222 152,-228 152,-234 152,-234 152,-246 152,-246 152,-252 146,-258 140,-258"/>
<text text-anchor="middle" x="125" y="-236.3" font-family="Helvetica,sans-Serif" font-size="14.00">Sizes</text>
</g>
<!-- Sizes&#45;&gt;DrawPieChart -->
<g id="edge2" class="edge"><title>Sizes&#45;&gt;DrawPieChart</title>
<path fill="none" stroke="black" d="M133.899,-221.697C137.997,-213.728 142.949,-204.1 147.493,-195.264"/>
<polygon fill="black" stroke="black" points="150.742,-196.598 152.203,-186.104 144.517,-193.396 150.742,-196.598"/>
</g>
<!-- Colors -->
<g id="node5" class="node"><title>Colors</title>
<path fill="#ffffcc" stroke="black" d="M67.5,-258C67.5,-258 36.5,-258 36.5,-258 30.5,-258 24.5,-252 24.5,-246 24.5,-246 24.5,-234 24.5,-234 24.5,-228 30.5,-222 36.5,-222 36.5,-222 67.5,-222 67.5,-222 73.5,-222 79.5,-228 79.5,-234 79.5,-234 79.5,-246 79.5,-246 79.5,-252 73.5,-258 67.5,-258"/>
<text text-anchor="middle" x="52" y="-236.3" font-family="Helvetica,sans-Serif" font-size="14.00">Colors</text>
</g>
<!-- Colors&#45;&gt;DrawPieChart -->
<g id="edge1" class="edge"><title>Colors&#45;&gt;DrawPieChart</title>
<path fill="none" stroke="black" d="M78.6644,-221.876C92.7842,-212.808 110.311,-201.552 125.561,-191.759"/>
<polygon fill="black" stroke="black" points="127.71,-194.538 134.233,-186.19 123.927,-188.648 127.71,-194.538"/>
</g>
<!-- Sentiment_Result_outflow -->
<g id="node7" class="node"><title>Sentiment_Result_outflow</title>
<ellipse fill="none" stroke="black" cx="161" cy="-31" rx="6.5" ry="7"/>
</g>
<!-- Sentiment_Result&#45;&gt;Sentiment_Result_outflow -->
<g id="edge6" class="edge"><title>Sentiment_Result&#45;&gt;Sentiment_Result_outflow</title>
<path fill="none" stroke="black" d="M161,-77.785C161,-68.6656 161,-57.5197 161,-48.5085"/>
<polygon fill="black" stroke="black" points="164.5,-48.242 161,-38.242 157.5,-48.2421 164.5,-48.242"/>
</g>
</g>
</svg>
