<?xml version="1.0" encoding="UTF-8" standalone="no"?>
<!DOCTYPE svg PUBLIC "-//W3C//DTD SVG 1.1//EN"
 "http://www.w3.org/Graphics/SVG/1.1/DTD/svg11.dtd">
<!-- Generated by graphviz version 2.36.0 (20140111.2315)
 -->
<!-- Title: yw_data_view Pages: 1 -->
<svg width="214pt" height="318pt"
 viewBox="0.00 0.00 214.00 318.00" xmlns="http://www.w3.org/2000/svg" xmlns:xlink="http://www.w3.org/1999/xlink">
<g id="graph0" class="graph" transform="scale(1 1) rotate(0) translate(4 314)">
<title>yw_data_view</title>
<polygon fill="white" stroke="none" points="-4,4 -4,-314 210,-314 210,4 -4,4"/>
<text text-anchor="middle" x="103" y="-291.6" font-family="Courier,monospace" font-size="18.00">Sentiment_DatumBox</text>
<g id="clust1" class="cluster"><title>cluster_workflow</title>
<polygon fill="none" stroke="black" stroke-width="2" points="29,-8 29,-220 177,-220 177,-8 29,-8"/>
</g>
<g id="clust2" class="cluster"><title>cluster_workflow_inner</title>
<polygon fill="none" stroke="white" stroke-width="2" points="37,-16 37,-212 169,-212 169,-16 37,-16"/>
</g>
<g id="clust3" class="cluster"><title>cluster_inflows</title>
<polygon fill="none" stroke="white" stroke-width="2" points="80,-228 80,-274 126,-274 126,-228 80,-228"/>
</g>
<g id="clust4" class="cluster"><title>cluster_inflows_inner</title>
<polygon fill="none" stroke="white" stroke-width="2" points="88,-236 88,-266 118,-266 118,-236 88,-236"/>
</g>
<!-- AccessTweets -->
<g id="node1" class="node"><title>AccessTweets</title>
<polygon fill="#ccffcc" stroke="black" points="160.5,-132 45.5,-132 45.5,-96 160.5,-96 160.5,-132"/>
<text text-anchor="middle" x="103" y="-110.3" font-family="Courier,monospace" font-size="14.00">AccessTweets</text>
</g>
<!-- TweetRead -->
<g id="node3" class="node"><title>TweetRead</title>
<path fill="#ffffcc" stroke="black" d="M134,-60C134,-60 72,-60 72,-60 66,-60 60,-54 60,-48 60,-48 60,-36 60,-36 60,-30 66,-24 72,-24 72,-24 134,-24 134,-24 140,-24 146,-30 146,-36 146,-36 146,-48 146,-48 146,-54 140,-60 134,-60"/>
<text text-anchor="middle" x="103" y="-38.3" font-family="Helvetica,sans-Serif" font-size="14.00">TweetRead</text>
</g>
<!-- AccessTweets&#45;&gt;TweetRead -->
<g id="edge2" class="edge"><title>AccessTweets&#45;&gt;TweetRead</title>
<path fill="none" stroke="black" d="M103,-95.6966C103,-87.9827 103,-78.7125 103,-70.1124"/>
<polygon fill="black" stroke="black" points="106.5,-70.1043 103,-60.1043 99.5001,-70.1044 106.5,-70.1043"/>
</g>
<!-- Static_Tweets -->
<g id="node2" class="node"><title>Static_Tweets</title>
<path fill="#ffffcc" stroke="black" d="M141.25,-204C141.25,-204 64.75,-204 64.75,-204 58.75,-204 52.75,-198 52.75,-192 52.75,-192 52.75,-180 52.75,-180 52.75,-174 58.75,-168 64.75,-168 64.75,-168 141.25,-168 141.25,-168 147.25,-168 153.25,-174 153.25,-180 153.25,-180 153.25,-192 153.25,-192 153.25,-198 147.25,-204 141.25,-204"/>
<text text-anchor="middle" x="103" y="-182.3" font-family="Helvetica,sans-Serif" font-size="14.00">Static_Tweets</text>
</g>
<!-- Static_Tweets&#45;&gt;AccessTweets -->
<g id="edge1" class="edge"><title>Static_Tweets&#45;&gt;AccessTweets</title>
<path fill="none" stroke="black" d="M103,-167.697C103,-159.983 103,-150.712 103,-142.112"/>
<polygon fill="black" stroke="black" points="106.5,-142.104 103,-132.104 99.5001,-142.104 106.5,-142.104"/>
</g>
<!-- Static_Tweets_inflow -->
<g id="node4" class="node"><title>Static_Tweets_inflow</title>
<ellipse fill="none" stroke="black" cx="103" cy="-251" rx="6.5" ry="7"/>
</g>
<!-- Static_Tweets_inflow&#45;&gt;Static_Tweets -->
<g id="edge3" class="edge"><title>Static_Tweets_inflow&#45;&gt;Static_Tweets</title>
<path fill="none" stroke="black" d="M103,-243.729C103,-236.795 103,-225.154 103,-214.215"/>
<polygon fill="black" stroke="black" points="106.5,-214.119 103,-204.119 99.5001,-214.119 106.5,-214.119"/>
</g>
</g>
</svg>
