<?xml version="1.0" encoding="UTF-8" standalone="no"?>
<!DOCTYPE svg PUBLIC "-//W3C//DTD SVG 1.1//EN"
 "http://www.w3.org/Graphics/SVG/1.1/DTD/svg11.dtd">
<!-- Generated by graphviz version 2.36.0 (20140111.2315)
 -->
<!-- Title: yw_data_view Pages: 1 -->
<svg width="214pt" height="120pt"
 viewBox="0.00 0.00 214.00 120.00" xmlns="http://www.w3.org/2000/svg" xmlns:xlink="http://www.w3.org/1999/xlink">
<g id="graph0" class="graph" transform="scale(1 1) rotate(0) translate(4 116)">
<title>yw_data_view</title>
<polygon fill="white" stroke="none" points="-4,4 -4,-116 210,-116 210,4 -4,4"/>
<text text-anchor="middle" x="103" y="-93.6" font-family="Courier,monospace" font-size="18.00">Sentiment_DatumBox</text>
<g id="clust1" class="cluster"><title>cluster_workflow</title>
<polygon fill="none" stroke="black" stroke-width="2" points="60,-8 60,-76 146,-76 146,-8 60,-8"/>
</g>
<g id="clust2" class="cluster"><title>cluster_workflow_inner</title>
<polygon fill="none" stroke="white" stroke-width="2" points="68,-16 68,-68 138,-68 138,-16 68,-16"/>
</g>
<!-- Sizes -->
<g id="node1" class="node"><title>Sizes</title>
<path fill="#ffffcc" stroke="black" d="M118,-60C118,-60 88,-60 88,-60 82,-60 76,-54 76,-48 76,-48 76,-36 76,-36 76,-30 82,-24 88,-24 88,-24 118,-24 118,-24 124,-24 130,-30 130,-36 130,-36 130,-48 130,-48 130,-54 124,-60 118,-60"/>
<text text-anchor="middle" x="103" y="-38.3" font-family="Helvetica,sans-Serif" font-size="14.00">Sizes</text>
</g>
</g>
</svg>
