<?xml version="1.0" encoding="UTF-8" standalone="no"?>
<!DOCTYPE svg PUBLIC "-//W3C//DTD SVG 1.1//EN"
 "http://www.w3.org/Graphics/SVG/1.1/DTD/svg11.dtd">
<!-- Generated by graphviz version 2.38.0 (20140413.2041)
 -->
<!-- Title: yw_data_view Pages: 1 -->
<svg width="726pt" height="950pt"
 viewBox="0.00 0.00 726.00 949.60" xmlns="http://www.w3.org/2000/svg" xmlns:xlink="http://www.w3.org/1999/xlink">
<g id="graph0" class="graph" transform="scale(1 1) rotate(0) translate(4 945.6)">
<title>yw_data_view</title>
<polygon fill="white" stroke="none" points="-4,4 -4,-945.6 722,-945.6 722,4 -4,4"/>
<text text-anchor="middle" x="359" y="-921.4" font-family="Courier,monospace" font-size="18.00">simulate_data_collection</text>
<g id="clust1" class="cluster"><title>cluster_workflow</title>
<polygon fill="none" stroke="black" stroke-width="2" points="12,-62 12,-850 706,-850 706,-62 12,-62"/>
</g>
<g id="clust2" class="cluster"><title>cluster_workflow_inner</title>
<polygon fill="none" stroke="white" stroke-width="2" points="20,-70 20,-842 698,-842 698,-70 20,-70"/>
</g>
<g id="clust3" class="cluster"><title>cluster_inflows</title>
<polygon fill="none" stroke="white" stroke-width="2" points="377,-858 377,-904 551,-904 551,-858 377,-858"/>
</g>
<g id="clust4" class="cluster"><title>cluster_inflows_inner</title>
<polygon fill="none" stroke="white" stroke-width="2" points="385,-866 385,-896 543,-896 543,-866 385,-866"/>
</g>
<g id="clust5" class="cluster"><title>cluster_outflows</title>
<polygon fill="none" stroke="white" stroke-width="2" points="81,-8 81,-54 223,-54 223,-8 81,-8"/>
</g>
<g id="clust6" class="cluster"><title>cluster_outflows_inner</title>
<polygon fill="none" stroke="white" stroke-width="2" points="89,-16 89,-46 215,-46 215,-16 89,-16"/>
</g>
<!-- initialize_run -->
<g id="node1" class="node"><title>initialize_run</title>
<polygon fill="#ccffcc" stroke="black" points="161.581,-834 28.4189,-834 28.4189,-798 161.581,-798 161.581,-834"/>
<text text-anchor="middle" x="95" y="-811.8" font-family="Courier,monospace" font-size="14.00">initialize_run</text>
</g>
<!-- run_log -->
<g id="node8" class="node"><title>run_log</title>
<path fill="#ffffcc" stroke="black" d="M78.181,-762C78.181,-762 39.819,-762 39.819,-762 33.819,-762 27.819,-756 27.819,-750 27.819,-750 27.819,-738 27.819,-738 27.819,-732 33.819,-726 39.819,-726 39.819,-726 78.181,-726 78.181,-726 84.181,-726 90.181,-732 90.181,-738 90.181,-738 90.181,-750 90.181,-750 90.181,-756 84.181,-762 78.181,-762"/>
<text text-anchor="middle" x="59" y="-739.8" font-family="Helvetica,sans-Serif" font-size="14.00">run_log</text>
</g>
<!-- initialize_run&#45;&gt;run_log -->
<g id="edge24" class="edge"><title>initialize_run&#45;&gt;run_log</title>
<path fill="none" stroke="black" d="M86.1011,-797.697C82.0032,-789.728 77.0512,-780.1 72.5073,-771.264"/>
<polygon fill="black" stroke="black" points="75.4826,-769.396 67.7965,-762.104 69.2575,-772.598 75.4826,-769.396"/>
</g>
<!-- load_screening_results -->
<g id="node2" class="node"><title>load_screening_results</title>
<polygon fill="#ccffcc" stroke="black" points="400.269,-762 199.731,-762 199.731,-726 400.269,-726 400.269,-762"/>
<text text-anchor="middle" x="300" y="-739.8" font-family="Courier,monospace" font-size="14.00">load_screening_results</text>
</g>
<!-- sample_name -->
<g id="node10" class="node"><title>sample_name</title>
<path fill="#ffffcc" stroke="black" d="M371.906,-690C371.906,-690 292.094,-690 292.094,-690 286.094,-690 280.094,-684 280.094,-678 280.094,-678 280.094,-666 280.094,-666 280.094,-660 286.094,-654 292.094,-654 292.094,-654 371.906,-654 371.906,-654 377.906,-654 383.906,-660 383.906,-666 383.906,-666 383.906,-678 383.906,-678 383.906,-684 377.906,-690 371.906,-690"/>
<text text-anchor="middle" x="332" y="-667.8" font-family="Helvetica,sans-Serif" font-size="14.00">sample_name</text>
</g>
<!-- load_screening_results&#45;&gt;sample_name -->
<g id="edge25" class="edge"><title>load_screening_results&#45;&gt;sample_name</title>
<path fill="none" stroke="black" d="M307.91,-725.697C311.553,-717.728 315.954,-708.1 319.994,-699.264"/>
<polygon fill="black" stroke="black" points="323.206,-700.654 324.181,-690.104 316.84,-697.744 323.206,-700.654"/>
</g>
<!-- sample_quality -->
<g id="node11" class="node"><title>sample_quality</title>
<path fill="#ffffcc" stroke="black" d="M249.85,-690C249.85,-690 164.15,-690 164.15,-690 158.15,-690 152.15,-684 152.15,-678 152.15,-678 152.15,-666 152.15,-666 152.15,-660 158.15,-654 164.15,-654 164.15,-654 249.85,-654 249.85,-654 255.85,-654 261.85,-660 261.85,-666 261.85,-666 261.85,-678 261.85,-678 261.85,-684 255.85,-690 249.85,-690"/>
<text text-anchor="middle" x="207" y="-667.8" font-family="Helvetica,sans-Serif" font-size="14.00">sample_quality</text>
</g>
<!-- load_screening_results&#45;&gt;sample_quality -->
<g id="edge26" class="edge"><title>load_screening_results&#45;&gt;sample_quality</title>
<path fill="none" stroke="black" d="M277.011,-725.697C265.186,-716.796 250.608,-705.823 237.821,-696.199"/>
<polygon fill="black" stroke="black" points="239.819,-693.322 229.724,-690.104 235.609,-698.915 239.819,-693.322"/>
</g>
<!-- calculate_strategy -->
<g id="node3" class="node"><title>calculate_strategy</title>
<polygon fill="#ccffcc" stroke="black" points="468.675,-618 301.325,-618 301.325,-582 468.675,-582 468.675,-618"/>
<text text-anchor="middle" x="385" y="-595.8" font-family="Courier,monospace" font-size="14.00">calculate_strategy</text>
</g>
<!-- accepted_sample -->
<g id="node12" class="node"><title>accepted_sample</title>
<path fill="#ffffcc" stroke="black" d="M489.702,-546C489.702,-546 388.298,-546 388.298,-546 382.298,-546 376.298,-540 376.298,-534 376.298,-534 376.298,-522 376.298,-522 376.298,-516 382.298,-510 388.298,-510 388.298,-510 489.702,-510 489.702,-510 495.702,-510 501.702,-516 501.702,-522 501.702,-522 501.702,-534 501.702,-534 501.702,-540 495.702,-546 489.702,-546"/>
<text text-anchor="middle" x="439" y="-523.8" font-family="Helvetica,sans-Serif" font-size="14.00">accepted_sample</text>
</g>
<!-- calculate_strategy&#45;&gt;accepted_sample -->
<g id="edge27" class="edge"><title>calculate_strategy&#45;&gt;accepted_sample</title>
<path fill="none" stroke="black" d="M398.348,-581.697C404.757,-573.389 412.558,-563.277 419.606,-554.141"/>
<polygon fill="black" stroke="black" points="422.468,-556.16 425.805,-546.104 416.926,-551.884 422.468,-556.16"/>
</g>
<!-- rejected_sample -->
<g id="node13" class="node"><title>rejected_sample</title>
<path fill="#ffffcc" stroke="black" d="M258.186,-546C258.186,-546 163.814,-546 163.814,-546 157.814,-546 151.814,-540 151.814,-534 151.814,-534 151.814,-522 151.814,-522 151.814,-516 157.814,-510 163.814,-510 163.814,-510 258.186,-510 258.186,-510 264.186,-510 270.186,-516 270.186,-522 270.186,-522 270.186,-534 270.186,-534 270.186,-540 264.186,-546 258.186,-546"/>
<text text-anchor="middle" x="211" y="-523.8" font-family="Helvetica,sans-Serif" font-size="14.00">rejected_sample</text>
</g>
<!-- calculate_strategy&#45;&gt;rejected_sample -->
<g id="edge28" class="edge"><title>calculate_strategy&#45;&gt;rejected_sample</title>
<path fill="none" stroke="black" d="M342.435,-581.876C318.437,-572.222 288.272,-560.087 262.896,-549.878"/>
<polygon fill="black" stroke="black" points="264.011,-546.554 253.427,-546.068 261.398,-553.048 264.011,-546.554"/>
</g>
<!-- num_images -->
<g id="node14" class="node"><title>num_images</title>
<path fill="#ffffcc" stroke="black" d="M604.123,-546C604.123,-546 531.877,-546 531.877,-546 525.877,-546 519.877,-540 519.877,-534 519.877,-534 519.877,-522 519.877,-522 519.877,-516 525.877,-510 531.877,-510 531.877,-510 604.123,-510 604.123,-510 610.123,-510 616.123,-516 616.123,-522 616.123,-522 616.123,-534 616.123,-534 616.123,-540 610.123,-546 604.123,-546"/>
<text text-anchor="middle" x="568" y="-523.8" font-family="Helvetica,sans-Serif" font-size="14.00">num_images</text>
</g>
<!-- calculate_strategy&#45;&gt;num_images -->
<g id="edge29" class="edge"><title>calculate_strategy&#45;&gt;num_images</title>
<path fill="none" stroke="black" d="M429.767,-581.876C455.118,-572.179 487.011,-559.98 513.773,-549.743"/>
<polygon fill="black" stroke="black" points="515.289,-552.91 523.379,-546.068 512.788,-546.372 515.289,-552.91"/>
</g>
<!-- energies -->
<g id="node15" class="node"><title>energies</title>
<path fill="#ffffcc" stroke="black" d="M345.681,-546C345.681,-546 300.319,-546 300.319,-546 294.319,-546 288.319,-540 288.319,-534 288.319,-534 288.319,-522 288.319,-522 288.319,-516 294.319,-510 300.319,-510 300.319,-510 345.681,-510 345.681,-510 351.681,-510 357.681,-516 357.681,-522 357.681,-522 357.681,-534 357.681,-534 357.681,-540 351.681,-546 345.681,-546"/>
<text text-anchor="middle" x="323" y="-523.8" font-family="Helvetica,sans-Serif" font-size="14.00">energies</text>
</g>
<!-- calculate_strategy&#45;&gt;energies -->
<g id="edge30" class="edge"><title>calculate_strategy&#45;&gt;energies</title>
<path fill="none" stroke="black" d="M369.674,-581.697C362.241,-573.305 353.177,-563.07 345.02,-553.861"/>
<polygon fill="black" stroke="black" points="347.4,-551.27 338.15,-546.104 342.16,-555.911 347.4,-551.27"/>
</g>
<!-- log_rejected_sample -->
<g id="node4" class="node"><title>log_rejected_sample</title>
<polygon fill="#ccffcc" stroke="black" points="203.574,-474 28.4261,-474 28.4261,-438 203.574,-438 203.574,-474"/>
<text text-anchor="middle" x="116" y="-451.8" font-family="Courier,monospace" font-size="14.00">log_rejected_sample</text>
</g>
<!-- rejection_log -->
<g id="node16" class="node"><title>rejection_log</title>
<path fill="#ffffcc" stroke="black" d="M111.85,-402C111.85,-402 40.1502,-402 40.1502,-402 34.1502,-402 28.1502,-396 28.1502,-390 28.1502,-390 28.1502,-378 28.1502,-378 28.1502,-372 34.1502,-366 40.1502,-366 40.1502,-366 111.85,-366 111.85,-366 117.85,-366 123.85,-372 123.85,-378 123.85,-378 123.85,-390 123.85,-390 123.85,-396 117.85,-402 111.85,-402"/>
<text text-anchor="middle" x="76" y="-379.8" font-family="Helvetica,sans-Serif" font-size="14.00">rejection_log</text>
</g>
<!-- log_rejected_sample&#45;&gt;rejection_log -->
<g id="edge31" class="edge"><title>log_rejected_sample&#45;&gt;rejection_log</title>
<path fill="none" stroke="black" d="M106.112,-437.697C101.511,-429.644 95.9397,-419.894 90.8471,-410.982"/>
<polygon fill="black" stroke="black" points="93.7742,-409.05 85.7739,-402.104 87.6965,-412.523 93.7742,-409.05"/>
</g>
<!-- collect_data_set -->
<g id="node5" class="node"><title>collect_data_set</title>
<polygon fill="#ccffcc" stroke="black" points="445.378,-474 294.622,-474 294.622,-438 445.378,-438 445.378,-474"/>
<text text-anchor="middle" x="370" y="-451.8" font-family="Courier,monospace" font-size="14.00">collect_data_set</text>
</g>
<!-- sample_id -->
<g id="node17" class="node"><title>sample_id</title>
<path fill="#ffffcc" stroke="black" d="M354.787,-402C354.787,-402 299.213,-402 299.213,-402 293.213,-402 287.213,-396 287.213,-390 287.213,-390 287.213,-378 287.213,-378 287.213,-372 293.213,-366 299.213,-366 299.213,-366 354.787,-366 354.787,-366 360.787,-366 366.787,-372 366.787,-378 366.787,-378 366.787,-390 366.787,-390 366.787,-396 360.787,-402 354.787,-402"/>
<text text-anchor="middle" x="327" y="-379.8" font-family="Helvetica,sans-Serif" font-size="14.00">sample_id</text>
</g>
<!-- collect_data_set&#45;&gt;sample_id -->
<g id="edge32" class="edge"><title>collect_data_set&#45;&gt;sample_id</title>
<path fill="none" stroke="black" d="M359.371,-437.697C354.372,-429.559 348.309,-419.689 342.788,-410.701"/>
<polygon fill="black" stroke="black" points="345.723,-408.793 337.507,-402.104 339.759,-412.457 345.723,-408.793"/>
</g>
<!-- energy -->
<g id="node18" class="node"><title>energy</title>
<path fill="#ffffcc" stroke="black" d="M431.291,-402C431.291,-402 396.709,-402 396.709,-402 390.709,-402 384.709,-396 384.709,-390 384.709,-390 384.709,-378 384.709,-378 384.709,-372 390.709,-366 396.709,-366 396.709,-366 431.291,-366 431.291,-366 437.291,-366 443.291,-372 443.291,-378 443.291,-378 443.291,-390 443.291,-390 443.291,-396 437.291,-402 431.291,-402"/>
<text text-anchor="middle" x="414" y="-379.8" font-family="Helvetica,sans-Serif" font-size="14.00">energy</text>
</g>
<!-- collect_data_set&#45;&gt;energy -->
<g id="edge33" class="edge"><title>collect_data_set&#45;&gt;energy</title>
<path fill="none" stroke="black" d="M380.876,-437.697C385.992,-429.559 392.195,-419.689 397.845,-410.701"/>
<polygon fill="black" stroke="black" points="400.89,-412.433 403.249,-402.104 394.964,-408.708 400.89,-412.433"/>
</g>
<!-- frame_number -->
<g id="node19" class="node"><title>frame_number</title>
<path fill="#ffffcc" stroke="black" d="M257.511,-402C257.511,-402 174.489,-402 174.489,-402 168.489,-402 162.489,-396 162.489,-390 162.489,-390 162.489,-378 162.489,-378 162.489,-372 168.489,-366 174.489,-366 174.489,-366 257.511,-366 257.511,-366 263.511,-366 269.511,-372 269.511,-378 269.511,-378 269.511,-390 269.511,-390 269.511,-396 263.511,-402 257.511,-402"/>
<text text-anchor="middle" x="216" y="-379.8" font-family="Helvetica,sans-Serif" font-size="14.00">frame_number</text>
</g>
<!-- collect_data_set&#45;&gt;frame_number -->
<g id="edge34" class="edge"><title>collect_data_set&#45;&gt;frame_number</title>
<path fill="none" stroke="black" d="M332.327,-437.876C311.368,-428.349 285.095,-416.407 262.823,-406.283"/>
<polygon fill="black" stroke="black" points="264.102,-403.02 253.55,-402.068 261.206,-409.393 264.102,-403.02"/>
</g>
<!-- raw_image -->
<g id="node20" class="node"><title>raw_image</title>
<path fill="#ffffcc" stroke="black" d="M534.449,-402C534.449,-402 473.551,-402 473.551,-402 467.551,-402 461.551,-396 461.551,-390 461.551,-390 461.551,-378 461.551,-378 461.551,-372 467.551,-366 473.551,-366 473.551,-366 534.449,-366 534.449,-366 540.449,-366 546.449,-372 546.449,-378 546.449,-378 546.449,-390 546.449,-390 546.449,-396 540.449,-402 534.449,-402"/>
<text text-anchor="middle" x="504" y="-379.8" font-family="Helvetica,sans-Serif" font-size="14.00">raw_image</text>
</g>
<!-- collect_data_set&#45;&gt;raw_image -->
<g id="edge35" class="edge"><title>collect_data_set&#45;&gt;raw_image</title>
<path fill="none" stroke="black" d="M402.78,-437.876C420.625,-428.554 442.897,-416.919 462.003,-406.939"/>
<polygon fill="black" stroke="black" points="463.851,-409.922 471.094,-402.19 460.61,-403.718 463.851,-409.922"/>
</g>
<!-- transform_images -->
<g id="node6" class="node"><title>transform_images</title>
<polygon fill="#ccffcc" stroke="black" points="487.378,-330 336.622,-330 336.622,-294 487.378,-294 487.378,-330"/>
<text text-anchor="middle" x="412" y="-307.8" font-family="Courier,monospace" font-size="14.00">transform_images</text>
</g>
<!-- corrected_image -->
<g id="node22" class="node"><title>corrected_image</title>
<path fill="#ffffcc" stroke="black" d="M582.24,-258C582.24,-258 485.76,-258 485.76,-258 479.76,-258 473.76,-252 473.76,-246 473.76,-246 473.76,-234 473.76,-234 473.76,-228 479.76,-222 485.76,-222 485.76,-222 582.24,-222 582.24,-222 588.24,-222 594.24,-228 594.24,-234 594.24,-234 594.24,-246 594.24,-246 594.24,-252 588.24,-258 582.24,-258"/>
<text text-anchor="middle" x="534" y="-235.8" font-family="Helvetica,sans-Serif" font-size="14.00">corrected_image</text>
</g>
<!-- transform_images&#45;&gt;corrected_image -->
<g id="edge36" class="edge"><title>transform_images&#45;&gt;corrected_image</title>
<path fill="none" stroke="black" d="M441.845,-293.876C457.944,-284.639 478.001,-273.131 495.288,-263.212"/>
<polygon fill="black" stroke="black" points="497.109,-266.202 504.041,-258.19 493.625,-260.131 497.109,-266.202"/>
</g>
<!-- total_intensity -->
<g id="node23" class="node"><title>total_intensity</title>
<path fill="#ffffcc" stroke="black" d="M443.579,-258C443.579,-258 366.421,-258 366.421,-258 360.421,-258 354.421,-252 354.421,-246 354.421,-246 354.421,-234 354.421,-234 354.421,-228 360.421,-222 366.421,-222 366.421,-222 443.579,-222 443.579,-222 449.579,-222 455.579,-228 455.579,-234 455.579,-234 455.579,-246 455.579,-246 455.579,-252 449.579,-258 443.579,-258"/>
<text text-anchor="middle" x="405" y="-235.8" font-family="Helvetica,sans-Serif" font-size="14.00">total_intensity</text>
</g>
<!-- transform_images&#45;&gt;total_intensity -->
<g id="edge37" class="edge"><title>transform_images&#45;&gt;total_intensity</title>
<path fill="none" stroke="black" d="M410.27,-293.697C409.498,-285.983 408.571,-276.712 407.711,-268.112"/>
<polygon fill="black" stroke="black" points="411.188,-267.706 406.71,-258.104 404.223,-268.403 411.188,-267.706"/>
</g>
<!-- pixel_count -->
<g id="node24" class="node"><title>pixel_count</title>
<path fill="#ffffcc" stroke="black" d="M324.3,-258C324.3,-258 261.7,-258 261.7,-258 255.7,-258 249.7,-252 249.7,-246 249.7,-246 249.7,-234 249.7,-234 249.7,-228 255.7,-222 261.7,-222 261.7,-222 324.3,-222 324.3,-222 330.3,-222 336.3,-228 336.3,-234 336.3,-234 336.3,-246 336.3,-246 336.3,-252 330.3,-258 324.3,-258"/>
<text text-anchor="middle" x="293" y="-235.8" font-family="Helvetica,sans-Serif" font-size="14.00">pixel_count</text>
</g>
<!-- transform_images&#45;&gt;pixel_count -->
<g id="edge38" class="edge"><title>transform_images&#45;&gt;pixel_count</title>
<path fill="none" stroke="black" d="M382.889,-293.876C367.33,-284.724 347.981,-273.342 331.224,-263.485"/>
<polygon fill="black" stroke="black" points="332.617,-260.243 322.223,-258.19 329.067,-266.277 332.617,-260.243"/>
</g>
<!-- log_average_image_intensity -->
<g id="node7" class="node"><title>log_average_image_intensity</title>
<polygon fill="#ccffcc" stroke="black" points="352.262,-186 109.738,-186 109.738,-150 352.262,-150 352.262,-186"/>
<text text-anchor="middle" x="231" y="-163.8" font-family="Courier,monospace" font-size="14.00">log_average_image_intensity</text>
</g>
<!-- collection_log -->
<g id="node25" class="node"><title>collection_log</title>
<path fill="#ffffcc" stroke="black" d="M238.295,-114C238.295,-114 161.705,-114 161.705,-114 155.705,-114 149.705,-108 149.705,-102 149.705,-102 149.705,-90 149.705,-90 149.705,-84 155.705,-78 161.705,-78 161.705,-78 238.295,-78 238.295,-78 244.295,-78 250.295,-84 250.295,-90 250.295,-90 250.295,-102 250.295,-102 250.295,-108 244.295,-114 238.295,-114"/>
<text text-anchor="middle" x="200" y="-91.8" font-family="Helvetica,sans-Serif" font-size="14.00">collection_log</text>
</g>
<!-- log_average_image_intensity&#45;&gt;collection_log -->
<g id="edge39" class="edge"><title>log_average_image_intensity&#45;&gt;collection_log</title>
<path fill="none" stroke="black" d="M223.337,-149.697C219.808,-141.728 215.544,-132.1 211.631,-123.264"/>
<polygon fill="black" stroke="black" points="214.824,-121.831 207.575,-114.104 208.424,-124.665 214.824,-121.831"/>
</g>
<!-- run_log_outflow -->
<g id="node36" class="node"><title>run_log_outflow</title>
<ellipse fill="none" stroke="black" cx="104" cy="-31" rx="7" ry="7"/>
</g>
<!-- run_log&#45;&gt;run_log_outflow -->
<g id="edge47" class="edge"><title>run_log&#45;&gt;run_log_outflow</title>
<path fill="none" stroke="black" d="M46.4876,-725.591C29.1687,-699.734 0,-649.053 0,-601 0,-601 0,-601 0,-167 0,-108.776 61.4596,-60.2907 89.8862,-40.979"/>
<polygon fill="black" stroke="black" points="91.9611,-43.8039 98.4085,-35.3967 88.1255,-37.9483 91.9611,-43.8039"/>
</g>
<!-- sample_spreadsheet -->
<g id="node9" class="node"><title>sample_spreadsheet</title>
<path fill="#ffffcc" stroke="black" d="M420.927,-834C420.927,-834 299.073,-834 299.073,-834 293.073,-834 287.073,-828 287.073,-822 287.073,-822 287.073,-810 287.073,-810 287.073,-804 293.073,-798 299.073,-798 299.073,-798 420.927,-798 420.927,-798 426.927,-798 432.927,-804 432.927,-810 432.927,-810 432.927,-822 432.927,-822 432.927,-828 426.927,-834 420.927,-834"/>
<text text-anchor="middle" x="360" y="-811.8" font-family="Helvetica,sans-Serif" font-size="14.00">sample_spreadsheet</text>
</g>
<!-- sample_spreadsheet&#45;&gt;load_screening_results -->
<g id="edge5" class="edge"><title>sample_spreadsheet&#45;&gt;load_screening_results</title>
<path fill="none" stroke="black" d="M345.169,-797.697C337.975,-789.305 329.203,-779.07 321.31,-769.861"/>
<polygon fill="black" stroke="black" points="323.826,-767.419 314.661,-762.104 318.511,-771.975 323.826,-767.419"/>
</g>
<!-- sample_name&#45;&gt;calculate_strategy -->
<g id="edge6" class="edge"><title>sample_name&#45;&gt;calculate_strategy</title>
<path fill="none" stroke="black" d="M345.101,-653.697C351.391,-645.389 359.047,-635.277 365.965,-626.141"/>
<polygon fill="black" stroke="black" points="368.804,-628.19 372.05,-618.104 363.223,-623.964 368.804,-628.19"/>
</g>
<!-- sample_quality&#45;&gt;calculate_strategy -->
<g id="edge7" class="edge"><title>sample_quality&#45;&gt;calculate_strategy</title>
<path fill="none" stroke="black" d="M250.544,-653.876C275.202,-644.179 306.223,-631.98 332.254,-621.743"/>
<polygon fill="black" stroke="black" points="333.572,-624.985 341.598,-618.068 331.011,-618.471 333.572,-624.985"/>
</g>
<!-- accepted_sample&#45;&gt;collect_data_set -->
<g id="edge10" class="edge"><title>accepted_sample&#45;&gt;collect_data_set</title>
<path fill="none" stroke="black" d="M421.944,-509.697C413.505,-501.135 403.175,-490.656 393.957,-481.304"/>
<polygon fill="black" stroke="black" points="396.373,-478.769 386.86,-474.104 391.387,-483.683 396.373,-478.769"/>
</g>
<!-- rejected_sample&#45;&gt;log_rejected_sample -->
<g id="edge11" class="edge"><title>rejected_sample&#45;&gt;log_rejected_sample</title>
<path fill="none" stroke="black" d="M187.517,-509.697C175.437,-500.796 160.546,-489.823 147.484,-480.199"/>
<polygon fill="black" stroke="black" points="149.34,-477.219 139.213,-474.104 145.187,-482.854 149.34,-477.219"/>
</g>
<!-- num_images&#45;&gt;collect_data_set -->
<g id="edge12" class="edge"><title>num_images&#45;&gt;collect_data_set</title>
<path fill="none" stroke="black" d="M519.817,-509.966C492.152,-500.185 457.223,-487.836 428.052,-477.524"/>
<polygon fill="black" stroke="black" points="428.994,-474.144 418.399,-474.111 426.661,-480.744 428.994,-474.144"/>
</g>
<!-- energies&#45;&gt;collect_data_set -->
<g id="edge13" class="edge"><title>energies&#45;&gt;collect_data_set</title>
<path fill="none" stroke="black" d="M334.618,-509.697C340.139,-501.474 346.847,-491.483 352.932,-482.421"/>
<polygon fill="black" stroke="black" points="355.847,-484.358 358.516,-474.104 350.035,-480.456 355.847,-484.358"/>
</g>
<!-- rejection_log_outflow -->
<g id="node34" class="node"><title>rejection_log_outflow</title>
<ellipse fill="none" stroke="black" cx="136" cy="-31" rx="7" ry="7"/>
</g>
<!-- rejection_log&#45;&gt;rejection_log_outflow -->
<g id="edge45" class="edge"><title>rejection_log&#45;&gt;rejection_log_outflow</title>
<path fill="none" stroke="black" d="M76.3951,-365.952C76.978,-339.294 78,-286.119 78,-241 78,-241 78,-241 78,-167 78,-142.009 111.977,-76.1893 127.92,-46.6797"/>
<polygon fill="black" stroke="black" points="131.161,-48.0477 132.882,-37.5935 125.017,-44.6928 131.161,-48.0477"/>
</g>
<!-- sample_id&#45;&gt;transform_images -->
<g id="edge14" class="edge"><title>sample_id&#45;&gt;transform_images</title>
<path fill="none" stroke="black" d="M348.011,-365.697C358.716,-356.881 371.89,-346.032 383.496,-336.474"/>
<polygon fill="black" stroke="black" points="385.736,-339.163 391.23,-330.104 381.286,-333.76 385.736,-339.163"/>
</g>
<!-- sample_id&#45;&gt;log_average_image_intensity -->
<g id="edge15" class="edge"><title>sample_id&#45;&gt;log_average_image_intensity</title>
<path fill="none" stroke="black" d="M311.115,-365.958C290.998,-343.255 257.029,-300.94 241,-258 233.626,-238.244 231.258,-214.442 230.662,-196.425"/>
<polygon fill="black" stroke="black" points="234.16,-196.242 230.491,-186.302 227.161,-196.36 234.16,-196.242"/>
</g>
<!-- energy&#45;&gt;transform_images -->
<g id="edge16" class="edge"><title>energy&#45;&gt;transform_images</title>
<path fill="none" stroke="black" d="M413.506,-365.697C413.285,-357.983 413.02,-348.712 412.775,-340.112"/>
<polygon fill="black" stroke="black" points="416.273,-340 412.489,-330.104 409.276,-340.2 416.273,-340"/>
</g>
<!-- frame_number&#45;&gt;transform_images -->
<g id="edge17" class="edge"><title>frame_number&#45;&gt;transform_images</title>
<path fill="none" stroke="black" d="M263.696,-365.966C291.082,-356.185 325.658,-343.836 354.534,-333.524"/>
<polygon fill="black" stroke="black" points="355.85,-336.77 364.09,-330.111 353.495,-330.178 355.85,-336.77"/>
</g>
<!-- frame_number&#45;&gt;log_average_image_intensity -->
<g id="edge18" class="edge"><title>frame_number&#45;&gt;log_average_image_intensity</title>
<path fill="none" stroke="black" d="M216.898,-365.595C218.463,-336.052 221.917,-274.21 226,-222 226.651,-213.671 227.466,-204.617 228.248,-196.387"/>
<polygon fill="black" stroke="black" points="231.756,-196.465 229.239,-186.174 224.789,-195.789 231.756,-196.465"/>
</g>
<!-- raw_image&#45;&gt;transform_images -->
<g id="edge19" class="edge"><title>raw_image&#45;&gt;transform_images</title>
<path fill="none" stroke="black" d="M481.258,-365.697C469.56,-356.796 455.139,-345.823 442.49,-336.199"/>
<polygon fill="black" stroke="black" points="444.558,-333.374 434.48,-330.104 440.319,-338.945 444.558,-333.374"/>
</g>
<!-- calibration_image -->
<g id="node21" class="node"><title>calibration_image</title>
<path fill="#ffffcc" stroke="black" d="M677.682,-402C677.682,-402 576.318,-402 576.318,-402 570.318,-402 564.318,-396 564.318,-390 564.318,-390 564.318,-378 564.318,-378 564.318,-372 570.318,-366 576.318,-366 576.318,-366 677.682,-366 677.682,-366 683.682,-366 689.682,-372 689.682,-378 689.682,-378 689.682,-390 689.682,-390 689.682,-396 683.682,-402 677.682,-402"/>
<text text-anchor="middle" x="627" y="-379.8" font-family="Helvetica,sans-Serif" font-size="14.00">calibration_image</text>
</g>
<!-- calibration_image&#45;&gt;transform_images -->
<g id="edge20" class="edge"><title>calibration_image&#45;&gt;transform_images</title>
<path fill="none" stroke="black" d="M574.68,-365.966C544.378,-356.1 506.052,-343.622 474.212,-333.255"/>
<polygon fill="black" stroke="black" points="475.147,-329.879 464.555,-330.111 472.98,-336.535 475.147,-329.879"/>
</g>
<!-- corrected_image&#45;&gt;log_average_image_intensity -->
<g id="edge21" class="edge"><title>corrected_image&#45;&gt;log_average_image_intensity</title>
<path fill="none" stroke="black" d="M473.805,-224.099C470.829,-223.384 467.882,-222.681 465,-222 416.29,-210.484 361.753,-198.102 317.59,-188.204"/>
<polygon fill="black" stroke="black" points="318.278,-184.772 307.755,-186.002 316.749,-191.603 318.278,-184.772"/>
</g>
<!-- corrected_image_outflow -->
<g id="node37" class="node"><title>corrected_image_outflow</title>
<ellipse fill="none" stroke="black" cx="200" cy="-31" rx="7" ry="7"/>
</g>
<!-- corrected_image&#45;&gt;corrected_image_outflow -->
<g id="edge48" class="edge"><title>corrected_image&#45;&gt;corrected_image_outflow</title>
<path fill="none" stroke="black" d="M509.13,-221.776C461.518,-189.077 353.787,-116.416 259,-62 244.355,-53.5926 227.082,-44.952 215.024,-39.1163"/>
<polygon fill="black" stroke="black" points="216.499,-35.9419 205.967,-34.7864 213.479,-42.2573 216.499,-35.9419"/>
</g>
<!-- total_intensity&#45;&gt;log_average_image_intensity -->
<g id="edge22" class="edge"><title>total_intensity&#45;&gt;log_average_image_intensity</title>
<path fill="none" stroke="black" d="M362.435,-221.876C338.437,-212.222 308.272,-200.087 282.896,-189.878"/>
<polygon fill="black" stroke="black" points="284.011,-186.554 273.427,-186.068 281.398,-193.048 284.011,-186.554"/>
</g>
<!-- pixel_count&#45;&gt;log_average_image_intensity -->
<g id="edge23" class="edge"><title>pixel_count&#45;&gt;log_average_image_intensity</title>
<path fill="none" stroke="black" d="M277.674,-221.697C270.241,-213.305 261.177,-203.07 253.02,-193.861"/>
<polygon fill="black" stroke="black" points="255.4,-191.27 246.15,-186.104 250.16,-195.911 255.4,-191.27"/>
</g>
<!-- collection_log_outflow -->
<g id="node35" class="node"><title>collection_log_outflow</title>
<ellipse fill="none" stroke="black" cx="168" cy="-31" rx="7" ry="7"/>
</g>
<!-- collection_log&#45;&gt;collection_log_outflow -->
<g id="edge46" class="edge"><title>collection_log&#45;&gt;collection_log_outflow</title>
<path fill="none" stroke="black" d="M191.256,-77.785C186.308,-68.044 180.186,-55.9908 175.465,-46.6968"/>
<polygon fill="black" stroke="black" points="178.517,-44.977 170.868,-37.6463 172.276,-48.1471 178.517,-44.977"/>
</g>
<!-- sample_score_cutoff -->
<g id="node26" class="node"><title>sample_score_cutoff</title>
<path fill="#ffffff" stroke="black" d="M677.643,-690C677.643,-690 556.357,-690 556.357,-690 550.357,-690 544.357,-684 544.357,-678 544.357,-678 544.357,-666 544.357,-666 544.357,-660 550.357,-654 556.357,-654 556.357,-654 677.643,-654 677.643,-654 683.643,-654 689.643,-660 689.643,-666 689.643,-666 689.643,-678 689.643,-678 689.643,-684 683.643,-690 677.643,-690"/>
<text text-anchor="middle" x="617" y="-667.8" font-family="Helvetica,sans-Serif" font-size="14.00">sample_score_cutoff</text>
</g>
<!-- sample_score_cutoff&#45;&gt;calculate_strategy -->
<g id="edge8" class="edge"><title>sample_score_cutoff&#45;&gt;calculate_strategy</title>
<path fill="none" stroke="black" d="M560.543,-653.966C527.705,-644.057 486.132,-631.514 451.687,-621.121"/>
<polygon fill="black" stroke="black" points="452.295,-617.649 441.71,-618.111 450.273,-624.35 452.295,-617.649"/>
</g>
<!-- data_redundancy -->
<g id="node27" class="node"><title>data_redundancy</title>
<path fill="#ffffff" stroke="black" d="M514.16,-690C514.16,-690 413.84,-690 413.84,-690 407.84,-690 401.84,-684 401.84,-678 401.84,-678 401.84,-666 401.84,-666 401.84,-660 407.84,-654 413.84,-654 413.84,-654 514.16,-654 514.16,-654 520.16,-654 526.16,-660 526.16,-666 526.16,-666 526.16,-678 526.16,-678 526.16,-684 520.16,-690 514.16,-690"/>
<text text-anchor="middle" x="464" y="-667.8" font-family="Helvetica,sans-Serif" font-size="14.00">data_redundancy</text>
</g>
<!-- data_redundancy&#45;&gt;calculate_strategy -->
<g id="edge9" class="edge"><title>data_redundancy&#45;&gt;calculate_strategy</title>
<path fill="none" stroke="black" d="M444.472,-653.697C434.618,-644.965 422.514,-634.24 411.804,-624.75"/>
<polygon fill="black" stroke="black" points="414.109,-622.117 404.303,-618.104 409.467,-627.356 414.109,-622.117"/>
</g>
<!-- cassette_id -->
<g id="node28" class="node"><title>cassette_id</title>
<path fill="#ffffff" stroke="black" d="M254.301,-834C254.301,-834 191.699,-834 191.699,-834 185.699,-834 179.699,-828 179.699,-822 179.699,-822 179.699,-810 179.699,-810 179.699,-804 185.699,-798 191.699,-798 191.699,-798 254.301,-798 254.301,-798 260.301,-798 266.301,-804 266.301,-810 266.301,-810 266.301,-822 266.301,-822 266.301,-828 260.301,-834 254.301,-834"/>
<text text-anchor="middle" x="223" y="-811.8" font-family="Helvetica,sans-Serif" font-size="14.00">cassette_id</text>
</g>
<!-- cassette_id&#45;&gt;load_screening_results -->
<g id="edge1" class="edge"><title>cassette_id&#45;&gt;load_screening_results</title>
<path fill="none" stroke="black" d="M242.034,-797.697C251.545,-789.05 263.207,-778.449 273.57,-769.027"/>
<polygon fill="black" stroke="black" points="276.14,-771.421 281.185,-762.104 271.431,-766.241 276.14,-771.421"/>
</g>
<!-- cassette_id&#45;&gt;log_rejected_sample -->
<g id="edge2" class="edge"><title>cassette_id&#45;&gt;log_rejected_sample</title>
<path fill="none" stroke="black" d="M179.579,-801.272C159.836,-792.913 137.844,-780.25 124,-762 60.5612,-678.371 90.5429,-541.455 107.327,-483.861"/>
<polygon fill="black" stroke="black" points="110.746,-484.646 110.282,-474.061 104.044,-482.625 110.746,-484.646"/>
</g>
<!-- cassette_id&#45;&gt;collect_data_set -->
<g id="edge3" class="edge"><title>cassette_id&#45;&gt;collect_data_set</title>
<path fill="none" stroke="black" d="M207.509,-797.985C188.023,-775.311 155.59,-733.028 143,-690 131.767,-651.61 118.138,-541.335 143,-510 160.737,-487.644 227.826,-473.835 284.506,-465.94"/>
<polygon fill="black" stroke="black" points="285.147,-469.386 294.59,-464.582 284.212,-462.448 285.147,-469.386"/>
</g>
<!-- cassette_id&#45;&gt;log_average_image_intensity -->
<g id="edge4" class="edge"><title>cassette_id&#45;&gt;log_average_image_intensity</title>
<path fill="none" stroke="black" d="M193.488,-797.797C180.082,-788.669 165.017,-776.364 155,-762 117.656,-708.451 128.713,-683.229 126,-618 124.005,-570.033 100.933,-549.651 128,-510 151.13,-476.116 190.342,-508.202 213,-474 221.836,-460.661 220.883,-451.923 213,-438 197.678,-410.938 168.322,-429.062 153,-402 145.117,-388.077 150.002,-381.717 153,-366 165.212,-301.984 197.879,-232.221 216.84,-195.326"/>
<polygon fill="black" stroke="black" points="220.052,-196.735 221.571,-186.25 213.845,-193.5 220.052,-196.735"/>
</g>
<!-- sample_spreadsheet_inflow -->
<g id="node29" class="node"><title>sample_spreadsheet_inflow</title>
<ellipse fill="none" stroke="black" cx="432" cy="-881" rx="7" ry="7"/>
</g>
<!-- sample_spreadsheet_inflow&#45;&gt;sample_spreadsheet -->
<g id="edge40" class="edge"><title>sample_spreadsheet_inflow&#45;&gt;sample_spreadsheet</title>
<path fill="none" stroke="black" d="M428.733,-874.575C425.758,-869.887 421.068,-863.084 416,-858 409.702,-851.682 402.364,-845.59 395.113,-840.121"/>
<polygon fill="black" stroke="black" points="396.856,-837.061 386.71,-834.011 392.74,-842.722 396.856,-837.061"/>
</g>
<!-- calibration_image_inflow -->
<g id="node30" class="node"><title>calibration_image_inflow</title>
<ellipse fill="none" stroke="black" cx="528" cy="-881" rx="7" ry="7"/>
</g>
<!-- calibration_image_inflow&#45;&gt;calibration_image -->
<g id="edge41" class="edge"><title>calibration_image_inflow&#45;&gt;calibration_image</title>
<path fill="none" stroke="black" d="M534.762,-878.732C568.609,-871.957 718,-836.855 718,-745 718,-745 718,-745 718,-527 718,-479.83 681.964,-435.794 655.246,-409.628"/>
<polygon fill="black" stroke="black" points="657.311,-406.763 647.649,-402.416 652.491,-411.839 657.311,-406.763"/>
</g>
<!-- sample_score_cutoff_inflow -->
<g id="node31" class="node"><title>sample_score_cutoff_inflow</title>
<ellipse fill="none" stroke="black" cx="496" cy="-881" rx="7" ry="7"/>
</g>
<!-- sample_score_cutoff_inflow&#45;&gt;sample_score_cutoff -->
<g id="edge42" class="edge"><title>sample_score_cutoff_inflow&#45;&gt;sample_score_cutoff</title>
<path fill="none" stroke="black" d="M499.236,-874.463C513.783,-849.578 573.636,-747.184 601.982,-698.691"/>
<polygon fill="black" stroke="black" points="605.025,-700.422 607.05,-690.022 598.982,-696.889 605.025,-700.422"/>
</g>
<!-- data_redundancy_inflow -->
<g id="node32" class="node"><title>data_redundancy_inflow</title>
<ellipse fill="none" stroke="black" cx="464" cy="-881" rx="7" ry="7"/>
</g>
<!-- data_redundancy_inflow&#45;&gt;data_redundancy -->
<g id="edge43" class="edge"><title>data_redundancy_inflow&#45;&gt;data_redundancy</title>
<path fill="none" stroke="black" d="M464,-873.578C464,-847.503 464,-748.635 464,-700.146"/>
<polygon fill="black" stroke="black" points="467.5,-700.062 464,-690.062 460.5,-700.062 467.5,-700.062"/>
</g>
<!-- cassette_id_inflow -->
<g id="node33" class="node"><title>cassette_id_inflow</title>
<ellipse fill="none" stroke="black" cx="400" cy="-881" rx="7" ry="7"/>
</g>
<!-- cassette_id_inflow&#45;&gt;cassette_id -->
<g id="edge44" class="edge"><title>cassette_id_inflow&#45;&gt;cassette_id</title>
<path fill="none" stroke="black" d="M393.165,-879.054C374.27,-876.285 319.948,-867.281 278,-850 270.921,-847.084 263.678,-843.354 256.869,-839.458"/>
<polygon fill="black" stroke="black" points="258.289,-836.229 247.91,-834.103 254.697,-842.237 258.289,-836.229"/>
</g>
</g>
</svg>
