<?xml version="1.0" encoding="UTF-8" standalone="no"?>
<!DOCTYPE svg PUBLIC "-//W3C//DTD SVG 1.1//EN"
 "http://www.w3.org/Graphics/SVG/1.1/DTD/svg11.dtd">
<!-- Generated by graphviz version 2.38.0 (20140413.2041)
 -->
<!-- Title: yw_data_view Pages: 1 -->
<svg width="401pt" height="518pt"
 viewBox="0.00 0.00 401.00 517.60" xmlns="http://www.w3.org/2000/svg" xmlns:xlink="http://www.w3.org/1999/xlink">
<g id="graph0" class="graph" transform="scale(1 1) rotate(0) translate(4 513.6)">
<title>yw_data_view</title>
<polygon fill="white" stroke="none" points="-4,4 -4,-513.6 397,-513.6 397,4 -4,4"/>
<text text-anchor="middle" x="196.5" y="-489.4" font-family="Courier,monospace" font-size="18.00">simulate_data_collection</text>
<g id="clust1" class="cluster"><title>cluster_workflow</title>
<polygon fill="none" stroke="black" stroke-width="2" points="8,-62 8,-418 385,-418 385,-62 8,-62"/>
</g>
<g id="clust2" class="cluster"><title>cluster_workflow_inner</title>
<polygon fill="none" stroke="white" stroke-width="2" points="16,-70 16,-410 377,-410 377,-70 16,-70"/>
</g>
<g id="clust3" class="cluster"><title>cluster_inflows</title>
<polygon fill="none" stroke="white" stroke-width="2" points="164,-426 164,-472 210,-472 210,-426 164,-426"/>
</g>
<g id="clust4" class="cluster"><title>cluster_inflows_inner</title>
<polygon fill="none" stroke="white" stroke-width="2" points="172,-434 172,-464 202,-464 202,-434 172,-434"/>
</g>
<g id="clust5" class="cluster"><title>cluster_outflows</title>
<polygon fill="none" stroke="white" stroke-width="2" points="226,-8 226,-54 304,-54 304,-8 226,-8"/>
</g>
<g id="clust6" class="cluster"><title>cluster_outflows_inner</title>
<polygon fill="none" stroke="white" stroke-width="2" points="234,-16 234,-46 296,-46 296,-16 234,-16"/>
</g>
<!-- log_average_image_intensity -->
<g id="node1" class="node"><title>log_average_image_intensity</title>
<polygon fill="#ccffcc" stroke="black" points="294.262,-186 51.7377,-186 51.7377,-150 294.262,-150 294.262,-186"/>
<text text-anchor="middle" x="173" y="-163.8" font-family="Courier,monospace" font-size="14.00">log_average_image_intensity</text>
</g>
<!-- collection_log -->
<g id="node7" class="node"><title>collection_log</title>
<path fill="#ffffcc" stroke="black" d="M246.295,-114C246.295,-114 169.705,-114 169.705,-114 163.705,-114 157.705,-108 157.705,-102 157.705,-102 157.705,-90 157.705,-90 157.705,-84 163.705,-78 169.705,-78 169.705,-78 246.295,-78 246.295,-78 252.295,-78 258.295,-84 258.295,-90 258.295,-90 258.295,-102 258.295,-102 258.295,-108 252.295,-114 246.295,-114"/>
<text text-anchor="middle" x="208" y="-91.8" font-family="Helvetica,sans-Serif" font-size="14.00">collection_log</text>
</g>
<!-- log_average_image_intensity&#45;&gt;collection_log -->
<g id="edge1" class="edge"><title>log_average_image_intensity&#45;&gt;collection_log</title>
<path fill="none" stroke="black" d="M181.652,-149.697C185.636,-141.728 190.45,-132.1 194.868,-123.264"/>
<polygon fill="black" stroke="black" points="198.106,-124.614 199.448,-114.104 191.845,-121.483 198.106,-124.614"/>
</g>
<!-- transform_images -->
<g id="node2" class="node"><title>transform_images</title>
<polygon fill="#ccffcc" stroke="black" points="262.378,-330 111.622,-330 111.622,-294 262.378,-294 262.378,-330"/>
<text text-anchor="middle" x="187" y="-307.8" font-family="Courier,monospace" font-size="14.00">transform_images</text>
</g>
<!-- corrected_image -->
<g id="node4" class="node"><title>corrected_image</title>
<path fill="#ffffcc" stroke="black" d="M357.24,-258C357.24,-258 260.76,-258 260.76,-258 254.76,-258 248.76,-252 248.76,-246 248.76,-246 248.76,-234 248.76,-234 248.76,-228 254.76,-222 260.76,-222 260.76,-222 357.24,-222 357.24,-222 363.24,-222 369.24,-228 369.24,-234 369.24,-234 369.24,-246 369.24,-246 369.24,-252 363.24,-258 357.24,-258"/>
<text text-anchor="middle" x="309" y="-235.8" font-family="Helvetica,sans-Serif" font-size="14.00">corrected_image</text>
</g>
<!-- transform_images&#45;&gt;corrected_image -->
<g id="edge4" class="edge"><title>transform_images&#45;&gt;corrected_image</title>
<path fill="none" stroke="black" d="M216.845,-293.876C232.944,-284.639 253.001,-273.131 270.288,-263.212"/>
<polygon fill="black" stroke="black" points="272.109,-266.202 279.041,-258.19 268.625,-260.131 272.109,-266.202"/>
</g>
<!-- total_intensity -->
<g id="node5" class="node"><title>total_intensity</title>
<path fill="#ffffcc" stroke="black" d="M113.579,-258C113.579,-258 36.4213,-258 36.4213,-258 30.4213,-258 24.4213,-252 24.4213,-246 24.4213,-246 24.4213,-234 24.4213,-234 24.4213,-228 30.4213,-222 36.4213,-222 36.4213,-222 113.579,-222 113.579,-222 119.579,-222 125.579,-228 125.579,-234 125.579,-234 125.579,-246 125.579,-246 125.579,-252 119.579,-258 113.579,-258"/>
<text text-anchor="middle" x="75" y="-235.8" font-family="Helvetica,sans-Serif" font-size="14.00">total_intensity</text>
</g>
<!-- transform_images&#45;&gt;total_intensity -->
<g id="edge3" class="edge"><title>transform_images&#45;&gt;total_intensity</title>
<path fill="none" stroke="black" d="M159.602,-293.876C145.093,-284.808 127.084,-273.552 111.415,-263.759"/>
<polygon fill="black" stroke="black" points="112.839,-260.522 102.504,-258.19 109.129,-266.458 112.839,-260.522"/>
</g>
<!-- pixel_count -->
<g id="node6" class="node"><title>pixel_count</title>
<path fill="#ffffcc" stroke="black" d="M218.3,-258C218.3,-258 155.7,-258 155.7,-258 149.7,-258 143.7,-252 143.7,-246 143.7,-246 143.7,-234 143.7,-234 143.7,-228 149.7,-222 155.7,-222 155.7,-222 218.3,-222 218.3,-222 224.3,-222 230.3,-228 230.3,-234 230.3,-234 230.3,-246 230.3,-246 230.3,-252 224.3,-258 218.3,-258"/>
<text text-anchor="middle" x="187" y="-235.8" font-family="Helvetica,sans-Serif" font-size="14.00">pixel_count</text>
</g>
<!-- transform_images&#45;&gt;pixel_count -->
<g id="edge2" class="edge"><title>transform_images&#45;&gt;pixel_count</title>
<path fill="none" stroke="black" d="M187,-293.697C187,-285.983 187,-276.712 187,-268.112"/>
<polygon fill="black" stroke="black" points="190.5,-268.104 187,-258.104 183.5,-268.104 190.5,-268.104"/>
</g>
<!-- calibration_image -->
<g id="node3" class="node"><title>calibration_image</title>
<path fill="#ffffcc" stroke="black" d="M237.682,-402C237.682,-402 136.318,-402 136.318,-402 130.318,-402 124.318,-396 124.318,-390 124.318,-390 124.318,-378 124.318,-378 124.318,-372 130.318,-366 136.318,-366 136.318,-366 237.682,-366 237.682,-366 243.682,-366 249.682,-372 249.682,-378 249.682,-378 249.682,-390 249.682,-390 249.682,-396 243.682,-402 237.682,-402"/>
<text text-anchor="middle" x="187" y="-379.8" font-family="Helvetica,sans-Serif" font-size="14.00">calibration_image</text>
</g>
<!-- calibration_image&#45;&gt;transform_images -->
<g id="edge5" class="edge"><title>calibration_image&#45;&gt;transform_images</title>
<path fill="none" stroke="black" d="M187,-365.697C187,-357.983 187,-348.712 187,-340.112"/>
<polygon fill="black" stroke="black" points="190.5,-340.104 187,-330.104 183.5,-340.104 190.5,-340.104"/>
</g>
<!-- corrected_image&#45;&gt;log_average_image_intensity -->
<g id="edge6" class="edge"><title>corrected_image&#45;&gt;log_average_image_intensity</title>
<path fill="none" stroke="black" d="M275.731,-221.876C257.537,-212.512 234.809,-200.814 215.36,-190.803"/>
<polygon fill="black" stroke="black" points="216.89,-187.654 206.397,-186.19 213.687,-193.878 216.89,-187.654"/>
</g>
<!-- corrected_image_outflow -->
<g id="node10" class="node"><title>corrected_image_outflow</title>
<ellipse fill="none" stroke="black" cx="281" cy="-31" rx="7" ry="7"/>
</g>
<!-- corrected_image&#45;&gt;corrected_image_outflow -->
<g id="edge11" class="edge"><title>corrected_image&#45;&gt;corrected_image_outflow</title>
<path fill="none" stroke="black" d="M308.441,-221.881C307.715,-203.919 306.148,-174.89 303,-150 298.368,-113.38 289.614,-70.9459 284.659,-48.2735"/>
<polygon fill="black" stroke="black" points="288.041,-47.3577 282.457,-38.3542 281.208,-48.8752 288.041,-47.3577"/>
</g>
<!-- total_intensity&#45;&gt;log_average_image_intensity -->
<g id="edge7" class="edge"><title>total_intensity&#45;&gt;log_average_image_intensity</title>
<path fill="none" stroke="black" d="M98.9735,-221.876C111.55,-212.893 127.132,-201.763 140.752,-192.034"/>
<polygon fill="black" stroke="black" points="142.831,-194.85 148.934,-186.19 138.763,-189.154 142.831,-194.85"/>
</g>
<!-- pixel_count&#45;&gt;log_average_image_intensity -->
<g id="edge8" class="edge"><title>pixel_count&#45;&gt;log_average_image_intensity</title>
<path fill="none" stroke="black" d="M183.539,-221.697C181.997,-213.983 180.142,-204.712 178.422,-196.112"/>
<polygon fill="black" stroke="black" points="181.814,-195.224 176.421,-186.104 174.95,-196.597 181.814,-195.224"/>
</g>
<!-- collection_log_outflow -->
<g id="node9" class="node"><title>collection_log_outflow</title>
<ellipse fill="none" stroke="black" cx="249" cy="-31" rx="7" ry="7"/>
</g>
<!-- collection_log&#45;&gt;collection_log_outflow -->
<g id="edge10" class="edge"><title>collection_log&#45;&gt;collection_log_outflow</title>
<path fill="none" stroke="black" d="M219.203,-77.785C225.75,-67.7264 233.9,-55.2022 240.021,-45.7966"/>
<polygon fill="black" stroke="black" points="242.992,-47.6483 245.513,-37.3577 237.125,-43.83 242.992,-47.6483"/>
</g>
<!-- calibration_image_inflow -->
<g id="node8" class="node"><title>calibration_image_inflow</title>
<ellipse fill="none" stroke="black" cx="187" cy="-449" rx="7" ry="7"/>
</g>
<!-- calibration_image_inflow&#45;&gt;calibration_image -->
<g id="edge9" class="edge"><title>calibration_image_inflow&#45;&gt;calibration_image</title>
<path fill="none" stroke="black" d="M187,-441.729C187,-434.795 187,-423.154 187,-412.215"/>
<polygon fill="black" stroke="black" points="190.5,-412.119 187,-402.119 183.5,-412.119 190.5,-412.119"/>
</g>
</g>
</svg>
