<?xml version="1.0" encoding="UTF-8" standalone="no"?>
<!DOCTYPE svg PUBLIC "-//W3C//DTD SVG 1.1//EN"
 "http://www.w3.org/Graphics/SVG/1.1/DTD/svg11.dtd">
<!-- Generated by graphviz version 2.38.0 (20140413.2041)
 -->
<!-- Title: yw_data_view Pages: 1 -->
<svg width="618pt" height="806pt"
 viewBox="0.00 0.00 618.00 805.60" xmlns="http://www.w3.org/2000/svg" xmlns:xlink="http://www.w3.org/1999/xlink">
<g id="graph0" class="graph" transform="scale(1 1) rotate(0) translate(4 801.6)">
<title>yw_data_view</title>
<polygon fill="white" stroke="none" points="-4,4 -4,-801.6 614,-801.6 614,4 -4,4"/>
<text text-anchor="middle" x="305" y="-777.4" font-family="Courier,monospace" font-size="18.00">simulate_data_collection</text>
<g id="clust1" class="cluster"><title>cluster_workflow</title>
<polygon fill="none" stroke="black" stroke-width="2" points="12,-62 12,-706 602,-706 602,-62 12,-62"/>
</g>
<g id="clust2" class="cluster"><title>cluster_workflow_inner</title>
<polygon fill="none" stroke="white" stroke-width="2" points="20,-70 20,-698 594,-698 594,-70 20,-70"/>
</g>
<g id="clust3" class="cluster"><title>cluster_inflows</title>
<polygon fill="none" stroke="white" stroke-width="2" points="142,-714 142,-760 316,-760 316,-714 142,-714"/>
</g>
<g id="clust4" class="cluster"><title>cluster_inflows_inner</title>
<polygon fill="none" stroke="white" stroke-width="2" points="150,-722 150,-752 308,-752 308,-722 150,-722"/>
</g>
<g id="clust5" class="cluster"><title>cluster_outflows</title>
<polygon fill="none" stroke="white" stroke-width="2" points="276,-8 276,-54 322,-54 322,-8 276,-8"/>
</g>
<g id="clust6" class="cluster"><title>cluster_outflows_inner</title>
<polygon fill="none" stroke="white" stroke-width="2" points="284,-16 284,-46 314,-46 314,-16 284,-16"/>
</g>
<!-- collect_data_set -->
<g id="node1" class="node"><title>collect_data_set</title>
<polygon fill="#ccffcc" stroke="black" points="469.378,-330 318.622,-330 318.622,-294 469.378,-294 469.378,-330"/>
<text text-anchor="middle" x="394" y="-307.8" font-family="Courier,monospace" font-size="14.00">collect_data_set</text>
</g>
<!-- sample_id -->
<g id="node11" class="node"><title>sample_id</title>
<path fill="#ffffcc" stroke="black" d="M239.787,-258C239.787,-258 184.213,-258 184.213,-258 178.213,-258 172.213,-252 172.213,-246 172.213,-246 172.213,-234 172.213,-234 172.213,-228 178.213,-222 184.213,-222 184.213,-222 239.787,-222 239.787,-222 245.787,-222 251.787,-228 251.787,-234 251.787,-234 251.787,-246 251.787,-246 251.787,-252 245.787,-258 239.787,-258"/>
<text text-anchor="middle" x="212" y="-235.8" font-family="Helvetica,sans-Serif" font-size="14.00">sample_id</text>
</g>
<!-- collect_data_set&#45;&gt;sample_id -->
<g id="edge21" class="edge"><title>collect_data_set&#45;&gt;sample_id</title>
<path fill="none" stroke="black" d="M349.478,-293.876C322.837,-283.63 288.932,-270.589 261.458,-260.022"/>
<polygon fill="black" stroke="black" points="262.621,-256.72 252.031,-256.397 260.108,-263.253 262.621,-256.72"/>
</g>
<!-- energy -->
<g id="node12" class="node"><title>energy</title>
<path fill="#ffffcc" stroke="black" d="M316.291,-258C316.291,-258 281.709,-258 281.709,-258 275.709,-258 269.709,-252 269.709,-246 269.709,-246 269.709,-234 269.709,-234 269.709,-228 275.709,-222 281.709,-222 281.709,-222 316.291,-222 316.291,-222 322.291,-222 328.291,-228 328.291,-234 328.291,-234 328.291,-246 328.291,-246 328.291,-252 322.291,-258 316.291,-258"/>
<text text-anchor="middle" x="299" y="-235.8" font-family="Helvetica,sans-Serif" font-size="14.00">energy</text>
</g>
<!-- collect_data_set&#45;&gt;energy -->
<g id="edge22" class="edge"><title>collect_data_set&#45;&gt;energy</title>
<path fill="none" stroke="black" d="M370.517,-293.697C358.437,-284.796 343.546,-273.823 330.484,-264.199"/>
<polygon fill="black" stroke="black" points="332.34,-261.219 322.213,-258.104 328.187,-266.854 332.34,-261.219"/>
</g>
<!-- frame_number -->
<g id="node13" class="node"><title>frame_number</title>
<path fill="#ffffcc" stroke="black" d="M441.511,-258C441.511,-258 358.489,-258 358.489,-258 352.489,-258 346.489,-252 346.489,-246 346.489,-246 346.489,-234 346.489,-234 346.489,-228 352.489,-222 358.489,-222 358.489,-222 441.511,-222 441.511,-222 447.511,-222 453.511,-228 453.511,-234 453.511,-234 453.511,-246 453.511,-246 453.511,-252 447.511,-258 441.511,-258"/>
<text text-anchor="middle" x="400" y="-235.8" font-family="Helvetica,sans-Serif" font-size="14.00">frame_number</text>
</g>
<!-- collect_data_set&#45;&gt;frame_number -->
<g id="edge23" class="edge"><title>collect_data_set&#45;&gt;frame_number</title>
<path fill="none" stroke="black" d="M395.483,-293.697C396.144,-285.983 396.939,-276.712 397.676,-268.112"/>
<polygon fill="black" stroke="black" points="401.167,-268.367 398.534,-258.104 394.193,-267.769 401.167,-268.367"/>
</g>
<!-- raw_image -->
<g id="node14" class="node"><title>raw_image</title>
<path fill="#ffffcc" stroke="black" d="M544.449,-258C544.449,-258 483.551,-258 483.551,-258 477.551,-258 471.551,-252 471.551,-246 471.551,-246 471.551,-234 471.551,-234 471.551,-228 477.551,-222 483.551,-222 483.551,-222 544.449,-222 544.449,-222 550.449,-222 556.449,-228 556.449,-234 556.449,-234 556.449,-246 556.449,-246 556.449,-252 550.449,-258 544.449,-258"/>
<text text-anchor="middle" x="514" y="-235.8" font-family="Helvetica,sans-Serif" font-size="14.00">raw_image</text>
</g>
<!-- collect_data_set&#45;&gt;raw_image -->
<g id="edge24" class="edge"><title>collect_data_set&#45;&gt;raw_image</title>
<path fill="none" stroke="black" d="M423.355,-293.876C439.045,-284.724 458.557,-273.342 475.454,-263.485"/>
<polygon fill="black" stroke="black" points="477.658,-266.252 484.532,-258.19 474.13,-260.205 477.658,-266.252"/>
</g>
<!-- calculate_strategy -->
<g id="node2" class="node"><title>calculate_strategy</title>
<polygon fill="#ccffcc" stroke="black" points="472.675,-474 305.325,-474 305.325,-438 472.675,-438 472.675,-474"/>
<text text-anchor="middle" x="389" y="-451.8" font-family="Courier,monospace" font-size="14.00">calculate_strategy</text>
</g>
<!-- accepted_sample -->
<g id="node8" class="node"><title>accepted_sample</title>
<path fill="#ffffcc" stroke="black" d="M439.702,-402C439.702,-402 338.298,-402 338.298,-402 332.298,-402 326.298,-396 326.298,-390 326.298,-390 326.298,-378 326.298,-378 326.298,-372 332.298,-366 338.298,-366 338.298,-366 439.702,-366 439.702,-366 445.702,-366 451.702,-372 451.702,-378 451.702,-378 451.702,-390 451.702,-390 451.702,-396 445.702,-402 439.702,-402"/>
<text text-anchor="middle" x="389" y="-379.8" font-family="Helvetica,sans-Serif" font-size="14.00">accepted_sample</text>
</g>
<!-- calculate_strategy&#45;&gt;accepted_sample -->
<g id="edge18" class="edge"><title>calculate_strategy&#45;&gt;accepted_sample</title>
<path fill="none" stroke="black" d="M389,-437.697C389,-429.983 389,-420.712 389,-412.112"/>
<polygon fill="black" stroke="black" points="392.5,-412.104 389,-402.104 385.5,-412.104 392.5,-412.104"/>
</g>
<!-- num_images -->
<g id="node9" class="node"><title>num_images</title>
<path fill="#ffffcc" stroke="black" d="M554.123,-402C554.123,-402 481.877,-402 481.877,-402 475.877,-402 469.877,-396 469.877,-390 469.877,-390 469.877,-378 469.877,-378 469.877,-372 475.877,-366 481.877,-366 481.877,-366 554.123,-366 554.123,-366 560.123,-366 566.123,-372 566.123,-378 566.123,-378 566.123,-390 566.123,-390 566.123,-396 560.123,-402 554.123,-402"/>
<text text-anchor="middle" x="518" y="-379.8" font-family="Helvetica,sans-Serif" font-size="14.00">num_images</text>
</g>
<!-- calculate_strategy&#45;&gt;num_images -->
<g id="edge19" class="edge"><title>calculate_strategy&#45;&gt;num_images</title>
<path fill="none" stroke="black" d="M420.557,-437.876C437.658,-428.596 458.982,-417.025 477.319,-407.075"/>
<polygon fill="black" stroke="black" points="479.202,-410.035 486.322,-402.19 475.863,-403.883 479.202,-410.035"/>
</g>
<!-- energies -->
<g id="node10" class="node"><title>energies</title>
<path fill="#ffffcc" stroke="black" d="M295.681,-402C295.681,-402 250.319,-402 250.319,-402 244.319,-402 238.319,-396 238.319,-390 238.319,-390 238.319,-378 238.319,-378 238.319,-372 244.319,-366 250.319,-366 250.319,-366 295.681,-366 295.681,-366 301.681,-366 307.681,-372 307.681,-378 307.681,-378 307.681,-390 307.681,-390 307.681,-396 301.681,-402 295.681,-402"/>
<text text-anchor="middle" x="273" y="-379.8" font-family="Helvetica,sans-Serif" font-size="14.00">energies</text>
</g>
<!-- calculate_strategy&#45;&gt;energies -->
<g id="edge20" class="edge"><title>calculate_strategy&#45;&gt;energies</title>
<path fill="none" stroke="black" d="M360.623,-437.876C345.456,-428.724 326.595,-417.342 310.261,-407.485"/>
<polygon fill="black" stroke="black" points="311.856,-404.36 301.486,-402.19 308.239,-410.353 311.856,-404.36"/>
</g>
<!-- load_screening_results -->
<g id="node3" class="node"><title>load_screening_results</title>
<polygon fill="#ccffcc" stroke="black" points="514.269,-618 313.731,-618 313.731,-582 514.269,-582 514.269,-618"/>
<text text-anchor="middle" x="414" y="-595.8" font-family="Courier,monospace" font-size="14.00">load_screening_results</text>
</g>
<!-- sample_name -->
<g id="node6" class="node"><title>sample_name</title>
<path fill="#ffffcc" stroke="black" d="M553.906,-546C553.906,-546 474.094,-546 474.094,-546 468.094,-546 462.094,-540 462.094,-534 462.094,-534 462.094,-522 462.094,-522 462.094,-516 468.094,-510 474.094,-510 474.094,-510 553.906,-510 553.906,-510 559.906,-510 565.906,-516 565.906,-522 565.906,-522 565.906,-534 565.906,-534 565.906,-540 559.906,-546 553.906,-546"/>
<text text-anchor="middle" x="514" y="-523.8" font-family="Helvetica,sans-Serif" font-size="14.00">sample_name</text>
</g>
<!-- load_screening_results&#45;&gt;sample_name -->
<g id="edge16" class="edge"><title>load_screening_results&#45;&gt;sample_name</title>
<path fill="none" stroke="black" d="M438.463,-581.876C451.296,-572.893 467.196,-561.763 481.094,-552.034"/>
<polygon fill="black" stroke="black" points="483.258,-554.792 489.443,-546.19 479.244,-549.057 483.258,-554.792"/>
</g>
<!-- sample_quality -->
<g id="node7" class="node"><title>sample_quality</title>
<path fill="#ffffcc" stroke="black" d="M431.85,-546C431.85,-546 346.15,-546 346.15,-546 340.15,-546 334.15,-540 334.15,-534 334.15,-534 334.15,-522 334.15,-522 334.15,-516 340.15,-510 346.15,-510 346.15,-510 431.85,-510 431.85,-510 437.85,-510 443.85,-516 443.85,-522 443.85,-522 443.85,-534 443.85,-534 443.85,-540 437.85,-546 431.85,-546"/>
<text text-anchor="middle" x="389" y="-523.8" font-family="Helvetica,sans-Serif" font-size="14.00">sample_quality</text>
</g>
<!-- load_screening_results&#45;&gt;sample_quality -->
<g id="edge17" class="edge"><title>load_screening_results&#45;&gt;sample_quality</title>
<path fill="none" stroke="black" d="M407.82,-581.697C405.005,-573.813 401.609,-564.304 398.481,-555.546"/>
<polygon fill="black" stroke="black" points="401.768,-554.345 395.109,-546.104 395.176,-556.699 401.768,-554.345"/>
</g>
<!-- transform_images -->
<g id="node4" class="node"><title>transform_images</title>
<polygon fill="#ccffcc" stroke="black" points="374.378,-186 223.622,-186 223.622,-150 374.378,-150 374.378,-186"/>
<text text-anchor="middle" x="299" y="-163.8" font-family="Courier,monospace" font-size="14.00">transform_images</text>
</g>
<!-- corrected_image -->
<g id="node16" class="node"><title>corrected_image</title>
<path fill="#ffffcc" stroke="black" d="M347.24,-114C347.24,-114 250.76,-114 250.76,-114 244.76,-114 238.76,-108 238.76,-102 238.76,-102 238.76,-90 238.76,-90 238.76,-84 244.76,-78 250.76,-78 250.76,-78 347.24,-78 347.24,-78 353.24,-78 359.24,-84 359.24,-90 359.24,-90 359.24,-102 359.24,-102 359.24,-108 353.24,-114 347.24,-114"/>
<text text-anchor="middle" x="299" y="-91.8" font-family="Helvetica,sans-Serif" font-size="14.00">corrected_image</text>
</g>
<!-- transform_images&#45;&gt;corrected_image -->
<g id="edge25" class="edge"><title>transform_images&#45;&gt;corrected_image</title>
<path fill="none" stroke="black" d="M299,-149.697C299,-141.983 299,-132.712 299,-124.112"/>
<polygon fill="black" stroke="black" points="302.5,-124.104 299,-114.104 295.5,-124.104 302.5,-124.104"/>
</g>
<!-- sample_spreadsheet -->
<g id="node5" class="node"><title>sample_spreadsheet</title>
<path fill="#ffffcc" stroke="black" d="M390.927,-690C390.927,-690 269.073,-690 269.073,-690 263.073,-690 257.073,-684 257.073,-678 257.073,-678 257.073,-666 257.073,-666 257.073,-660 263.073,-654 269.073,-654 269.073,-654 390.927,-654 390.927,-654 396.927,-654 402.927,-660 402.927,-666 402.927,-666 402.927,-678 402.927,-678 402.927,-684 396.927,-690 390.927,-690"/>
<text text-anchor="middle" x="330" y="-667.8" font-family="Helvetica,sans-Serif" font-size="14.00">sample_spreadsheet</text>
</g>
<!-- sample_spreadsheet&#45;&gt;load_screening_results -->
<g id="edge4" class="edge"><title>sample_spreadsheet&#45;&gt;load_screening_results</title>
<path fill="none" stroke="black" d="M350.764,-653.697C361.241,-644.965 374.111,-634.24 385.5,-624.75"/>
<polygon fill="black" stroke="black" points="388.033,-627.195 393.475,-618.104 383.552,-621.817 388.033,-627.195"/>
</g>
<!-- sample_name&#45;&gt;calculate_strategy -->
<g id="edge6" class="edge"><title>sample_name&#45;&gt;calculate_strategy</title>
<path fill="none" stroke="black" d="M483.422,-509.876C466.926,-500.639 446.376,-489.131 428.664,-479.212"/>
<polygon fill="black" stroke="black" points="430.131,-476.022 419.696,-474.19 426.711,-482.13 430.131,-476.022"/>
</g>
<!-- sample_quality&#45;&gt;calculate_strategy -->
<g id="edge9" class="edge"><title>sample_quality&#45;&gt;calculate_strategy</title>
<path fill="none" stroke="black" d="M389,-509.697C389,-501.983 389,-492.712 389,-484.112"/>
<polygon fill="black" stroke="black" points="392.5,-484.104 389,-474.104 385.5,-484.104 392.5,-484.104"/>
</g>
<!-- accepted_sample&#45;&gt;collect_data_set -->
<g id="edge13" class="edge"><title>accepted_sample&#45;&gt;collect_data_set</title>
<path fill="none" stroke="black" d="M390.236,-365.697C390.787,-357.983 391.449,-348.712 392.063,-340.112"/>
<polygon fill="black" stroke="black" points="395.557,-340.328 392.778,-330.104 388.575,-339.83 395.557,-340.328"/>
</g>
<!-- num_images&#45;&gt;collect_data_set -->
<g id="edge3" class="edge"><title>num_images&#45;&gt;collect_data_set</title>
<path fill="none" stroke="black" d="M487.666,-365.876C471.303,-356.639 450.917,-345.131 433.346,-335.212"/>
<polygon fill="black" stroke="black" points="434.879,-332.058 424.45,-330.19 431.438,-338.154 434.879,-332.058"/>
</g>
<!-- energies&#45;&gt;collect_data_set -->
<g id="edge5" class="edge"><title>energies&#45;&gt;collect_data_set</title>
<path fill="none" stroke="black" d="M302.6,-365.876C318.567,-356.639 338.46,-345.131 355.606,-335.212"/>
<polygon fill="black" stroke="black" points="357.383,-338.227 364.286,-330.19 353.878,-332.168 357.383,-338.227"/>
</g>
<!-- sample_id&#45;&gt;transform_images -->
<g id="edge8" class="edge"><title>sample_id&#45;&gt;transform_images</title>
<path fill="none" stroke="black" d="M233.506,-221.697C244.463,-212.881 257.946,-202.032 269.825,-192.474"/>
<polygon fill="black" stroke="black" points="272.145,-195.1 277.742,-186.104 267.756,-189.646 272.145,-195.1"/>
</g>
<!-- energy&#45;&gt;transform_images -->
<g id="edge10" class="edge"><title>energy&#45;&gt;transform_images</title>
<path fill="none" stroke="black" d="M299,-221.697C299,-213.983 299,-204.712 299,-196.112"/>
<polygon fill="black" stroke="black" points="302.5,-196.104 299,-186.104 295.5,-196.104 302.5,-196.104"/>
</g>
<!-- frame_number&#45;&gt;transform_images -->
<g id="edge14" class="edge"><title>frame_number&#45;&gt;transform_images</title>
<path fill="none" stroke="black" d="M375.293,-221.876C362.331,-212.893 346.272,-201.763 332.235,-192.034"/>
<polygon fill="black" stroke="black" points="334.015,-189.009 323.802,-186.19 330.028,-194.763 334.015,-189.009"/>
</g>
<!-- raw_image&#45;&gt;transform_images -->
<g id="edge1" class="edge"><title>raw_image&#45;&gt;transform_images</title>
<path fill="none" stroke="black" d="M471.709,-224.87C468.763,-223.896 465.838,-222.931 463,-222 429.651,-211.053 392.429,-199.01 361.887,-189.174"/>
<polygon fill="black" stroke="black" points="362.81,-185.795 352.219,-186.062 360.666,-192.458 362.81,-185.795"/>
</g>
<!-- calibration_image -->
<g id="node15" class="node"><title>calibration_image</title>
<path fill="#ffffcc" stroke="black" d="M141.682,-258C141.682,-258 40.318,-258 40.318,-258 34.318,-258 28.318,-252 28.318,-246 28.318,-246 28.318,-234 28.318,-234 28.318,-228 34.318,-222 40.318,-222 40.318,-222 141.682,-222 141.682,-222 147.682,-222 153.682,-228 153.682,-234 153.682,-234 153.682,-246 153.682,-246 153.682,-252 147.682,-258 141.682,-258"/>
<text text-anchor="middle" x="91" y="-235.8" font-family="Helvetica,sans-Serif" font-size="14.00">calibration_image</text>
</g>
<!-- calibration_image&#45;&gt;transform_images -->
<g id="edge7" class="edge"><title>calibration_image&#45;&gt;transform_images</title>
<path fill="none" stroke="black" d="M141.617,-221.966C170.805,-212.142 207.691,-199.729 238.415,-189.389"/>
<polygon fill="black" stroke="black" points="239.795,-192.618 248.156,-186.111 237.562,-185.983 239.795,-192.618"/>
</g>
<!-- corrected_image_outflow -->
<g id="node25" class="node"><title>corrected_image_outflow</title>
<ellipse fill="none" stroke="black" cx="299" cy="-31" rx="7" ry="7"/>
</g>
<!-- corrected_image&#45;&gt;corrected_image_outflow -->
<g id="edge31" class="edge"><title>corrected_image&#45;&gt;corrected_image_outflow</title>
<path fill="none" stroke="black" d="M299,-77.785C299,-68.6656 299,-57.5197 299,-48.5085"/>
<polygon fill="black" stroke="black" points="302.5,-48.242 299,-38.242 295.5,-48.2421 302.5,-48.242"/>
</g>
<!-- sample_score_cutoff -->
<g id="node17" class="node"><title>sample_score_cutoff</title>
<path fill="#ffffff" stroke="black" d="M161.643,-546C161.643,-546 40.3569,-546 40.3569,-546 34.3569,-546 28.3569,-540 28.3569,-534 28.3569,-534 28.3569,-522 28.3569,-522 28.3569,-516 34.3569,-510 40.3569,-510 40.3569,-510 161.643,-510 161.643,-510 167.643,-510 173.643,-516 173.643,-522 173.643,-522 173.643,-534 173.643,-534 173.643,-540 167.643,-546 161.643,-546"/>
<text text-anchor="middle" x="101" y="-523.8" font-family="Helvetica,sans-Serif" font-size="14.00">sample_score_cutoff</text>
</g>
<!-- sample_score_cutoff&#45;&gt;calculate_strategy -->
<g id="edge15" class="edge"><title>sample_score_cutoff&#45;&gt;calculate_strategy</title>
<path fill="none" stroke="black" d="M171.084,-509.966C212.637,-499.866 265.454,-487.028 308.684,-476.521"/>
<polygon fill="black" stroke="black" points="309.711,-479.874 318.601,-474.111 308.058,-473.072 309.711,-479.874"/>
</g>
<!-- data_redundancy -->
<g id="node18" class="node"><title>data_redundancy</title>
<path fill="#ffffff" stroke="black" d="M304.16,-546C304.16,-546 203.84,-546 203.84,-546 197.84,-546 191.84,-540 191.84,-534 191.84,-534 191.84,-522 191.84,-522 191.84,-516 197.84,-510 203.84,-510 203.84,-510 304.16,-510 304.16,-510 310.16,-510 316.16,-516 316.16,-522 316.16,-522 316.16,-534 316.16,-534 316.16,-540 310.16,-546 304.16,-546"/>
<text text-anchor="middle" x="254" y="-523.8" font-family="Helvetica,sans-Serif" font-size="14.00">data_redundancy</text>
</g>
<!-- data_redundancy&#45;&gt;calculate_strategy -->
<g id="edge2" class="edge"><title>data_redundancy&#45;&gt;calculate_strategy</title>
<path fill="none" stroke="black" d="M287.025,-509.876C305.085,-500.512 327.645,-488.814 346.951,-478.803"/>
<polygon fill="black" stroke="black" points="348.582,-481.9 355.848,-474.19 345.36,-475.686 348.582,-481.9"/>
</g>
<!-- cassette_id -->
<g id="node19" class="node"><title>cassette_id</title>
<path fill="#ffffff" stroke="black" d="M495.301,-690C495.301,-690 432.699,-690 432.699,-690 426.699,-690 420.699,-684 420.699,-678 420.699,-678 420.699,-666 420.699,-666 420.699,-660 426.699,-654 432.699,-654 432.699,-654 495.301,-654 495.301,-654 501.301,-654 507.301,-660 507.301,-666 507.301,-666 507.301,-678 507.301,-678 507.301,-684 501.301,-690 495.301,-690"/>
<text text-anchor="middle" x="464" y="-667.8" font-family="Helvetica,sans-Serif" font-size="14.00">cassette_id</text>
</g>
<!-- cassette_id&#45;&gt;collect_data_set -->
<g id="edge11" class="edge"><title>cassette_id&#45;&gt;collect_data_set</title>
<path fill="none" stroke="black" d="M493.291,-653.972C529.101,-630.704 585,-585.357 585,-529 585,-529 585,-529 585,-455 585,-415.196 600.61,-396.472 575,-366 551.512,-338.053 514.151,-324.396 479.456,-317.883"/>
<polygon fill="black" stroke="black" points="479.72,-314.377 469.276,-316.156 478.549,-321.279 479.72,-314.377"/>
</g>
<!-- cassette_id&#45;&gt;load_screening_results -->
<g id="edge12" class="edge"><title>cassette_id&#45;&gt;load_screening_results</title>
<path fill="none" stroke="black" d="M451.64,-653.697C445.767,-645.474 438.631,-635.483 432.158,-626.421"/>
<polygon fill="black" stroke="black" points="434.878,-624.207 426.217,-618.104 429.182,-628.276 434.878,-624.207"/>
</g>
<!-- sample_spreadsheet_inflow -->
<g id="node20" class="node"><title>sample_spreadsheet_inflow</title>
<ellipse fill="none" stroke="black" cx="261" cy="-737" rx="7" ry="7"/>
</g>
<!-- sample_spreadsheet_inflow&#45;&gt;sample_spreadsheet -->
<g id="edge26" class="edge"><title>sample_spreadsheet_inflow&#45;&gt;sample_spreadsheet</title>
<path fill="none" stroke="black" d="M264.301,-730.608C267.297,-725.941 272,-719.151 277,-714 283.057,-707.761 290.096,-701.669 297.026,-696.172"/>
<polygon fill="black" stroke="black" points="299.244,-698.881 305.047,-690.017 294.983,-693.328 299.244,-698.881"/>
</g>
<!-- calibration_image_inflow -->
<g id="node21" class="node"><title>calibration_image_inflow</title>
<ellipse fill="none" stroke="black" cx="165" cy="-737" rx="7" ry="7"/>
</g>
<!-- calibration_image_inflow&#45;&gt;calibration_image -->
<g id="edge27" class="edge"><title>calibration_image_inflow&#45;&gt;calibration_image</title>
<path fill="none" stroke="black" d="M158.327,-734.204C127.459,-725.453 0,-684.277 0,-601 0,-601 0,-601 0,-383 0,-335.83 36.0363,-291.794 62.7545,-265.628"/>
<polygon fill="black" stroke="black" points="65.5086,-267.839 70.3507,-258.416 60.6888,-262.763 65.5086,-267.839"/>
</g>
<!-- sample_score_cutoff_inflow -->
<g id="node22" class="node"><title>sample_score_cutoff_inflow</title>
<ellipse fill="none" stroke="black" cx="197" cy="-737" rx="7" ry="7"/>
</g>
<!-- sample_score_cutoff_inflow&#45;&gt;sample_score_cutoff -->
<g id="edge28" class="edge"><title>sample_score_cutoff_inflow&#45;&gt;sample_score_cutoff</title>
<path fill="none" stroke="black" d="M194.432,-730.463C182.939,-705.681 135.799,-604.034 113.197,-555.299"/>
<polygon fill="black" stroke="black" points="116.277,-553.621 108.894,-546.022 109.926,-556.567 116.277,-553.621"/>
</g>
<!-- data_redundancy_inflow -->
<g id="node23" class="node"><title>data_redundancy_inflow</title>
<ellipse fill="none" stroke="black" cx="229" cy="-737" rx="7" ry="7"/>
</g>
<!-- data_redundancy_inflow&#45;&gt;data_redundancy -->
<g id="edge29" class="edge"><title>data_redundancy_inflow&#45;&gt;data_redundancy</title>
<path fill="none" stroke="black" d="M229.721,-730.028C232.78,-704.699 244.796,-605.213 250.695,-556.362"/>
<polygon fill="black" stroke="black" points="254.198,-556.549 251.923,-546.201 247.249,-555.71 254.198,-556.549"/>
</g>
<!-- cassette_id_inflow -->
<g id="node24" class="node"><title>cassette_id_inflow</title>
<ellipse fill="none" stroke="black" cx="293" cy="-737" rx="7" ry="7"/>
</g>
<!-- cassette_id_inflow&#45;&gt;cassette_id -->
<g id="edge30" class="edge"><title>cassette_id_inflow&#45;&gt;cassette_id</title>
<path fill="none" stroke="black" d="M299.957,-735.039C318.685,-732.286 371.485,-723.427 412,-706 418.753,-703.095 425.629,-699.371 432.075,-695.476"/>
<polygon fill="black" stroke="black" points="433.964,-698.423 440.547,-690.121 430.224,-692.506 433.964,-698.423"/>
</g>
</g>
</svg>
