<?xml version="1.0" encoding="UTF-8" standalone="no"?>
<!DOCTYPE svg PUBLIC "-//W3C//DTD SVG 1.1//EN"
 "http://www.w3.org/Graphics/SVG/1.1/DTD/svg11.dtd">
<!-- Generated by graphviz version 2.38.0 (20140413.2041)
 -->
<!-- Title: yw_data_view Pages: 1 -->
<svg width="614pt" height="662pt"
 viewBox="0.00 0.00 614.00 661.60" xmlns="http://www.w3.org/2000/svg" xmlns:xlink="http://www.w3.org/1999/xlink">
<g id="graph0" class="graph" transform="scale(1 1) rotate(0) translate(4 657.6)">
<title>yw_data_view</title>
<polygon fill="white" stroke="none" points="-4,4 -4,-657.6 610,-657.6 610,4 -4,4"/>
<text text-anchor="middle" x="303" y="-633.4" font-family="Courier,monospace" font-size="18.00">simulate_data_collection</text>
<g id="clust1" class="cluster"><title>cluster_workflow</title>
<polygon fill="none" stroke="black" stroke-width="2" points="8,-62 8,-562 598,-562 598,-62 8,-62"/>
</g>
<g id="clust2" class="cluster"><title>cluster_workflow_inner</title>
<polygon fill="none" stroke="white" stroke-width="2" points="16,-70 16,-554 590,-554 590,-70 16,-70"/>
</g>
<g id="clust3" class="cluster"><title>cluster_inflows</title>
<polygon fill="none" stroke="white" stroke-width="2" points="245,-570 245,-616 387,-616 387,-570 245,-570"/>
</g>
<g id="clust4" class="cluster"><title>cluster_inflows_inner</title>
<polygon fill="none" stroke="white" stroke-width="2" points="253,-578 253,-608 379,-608 379,-578 253,-578"/>
</g>
<g id="clust5" class="cluster"><title>cluster_outflows</title>
<polygon fill="none" stroke="white" stroke-width="2" points="117,-8 117,-54 163,-54 163,-8 117,-8"/>
</g>
<g id="clust6" class="cluster"><title>cluster_outflows_inner</title>
<polygon fill="none" stroke="white" stroke-width="2" points="125,-16 125,-46 155,-46 155,-16 125,-16"/>
</g>
<!-- calculate_strategy -->
<g id="node1" class="node"><title>calculate_strategy</title>
<polygon fill="#ccffcc" stroke="black" points="307.675,-330 140.325,-330 140.325,-294 307.675,-294 307.675,-330"/>
<text text-anchor="middle" x="224" y="-307.8" font-family="Courier,monospace" font-size="14.00">calculate_strategy</text>
</g>
<!-- rejected_sample -->
<g id="node7" class="node"><title>rejected_sample</title>
<path fill="#ffffcc" stroke="black" d="M243.186,-258C243.186,-258 148.814,-258 148.814,-258 142.814,-258 136.814,-252 136.814,-246 136.814,-246 136.814,-234 136.814,-234 136.814,-228 142.814,-222 148.814,-222 148.814,-222 243.186,-222 243.186,-222 249.186,-222 255.186,-228 255.186,-234 255.186,-234 255.186,-246 255.186,-246 255.186,-252 249.186,-258 243.186,-258"/>
<text text-anchor="middle" x="196" y="-235.8" font-family="Helvetica,sans-Serif" font-size="14.00">rejected_sample</text>
</g>
<!-- calculate_strategy&#45;&gt;rejected_sample -->
<g id="edge11" class="edge"><title>calculate_strategy&#45;&gt;rejected_sample</title>
<path fill="none" stroke="black" d="M217.079,-293.697C213.925,-285.813 210.122,-276.304 206.619,-267.546"/>
<polygon fill="black" stroke="black" points="209.805,-266.089 202.842,-258.104 203.306,-268.689 209.805,-266.089"/>
</g>
<!-- load_screening_results -->
<g id="node2" class="node"><title>load_screening_results</title>
<polygon fill="#ccffcc" stroke="black" points="284.269,-474 83.7307,-474 83.7307,-438 284.269,-438 284.269,-474"/>
<text text-anchor="middle" x="184" y="-451.8" font-family="Courier,monospace" font-size="14.00">load_screening_results</text>
</g>
<!-- sample_name -->
<g id="node5" class="node"><title>sample_name</title>
<path fill="#ffffcc" stroke="black" d="M263.906,-402C263.906,-402 184.094,-402 184.094,-402 178.094,-402 172.094,-396 172.094,-390 172.094,-390 172.094,-378 172.094,-378 172.094,-372 178.094,-366 184.094,-366 184.094,-366 263.906,-366 263.906,-366 269.906,-366 275.906,-372 275.906,-378 275.906,-378 275.906,-390 275.906,-390 275.906,-396 269.906,-402 263.906,-402"/>
<text text-anchor="middle" x="224" y="-379.8" font-family="Helvetica,sans-Serif" font-size="14.00">sample_name</text>
</g>
<!-- load_screening_results&#45;&gt;sample_name -->
<g id="edge9" class="edge"><title>load_screening_results&#45;&gt;sample_name</title>
<path fill="none" stroke="black" d="M193.888,-437.697C198.489,-429.644 204.06,-419.894 209.153,-410.982"/>
<polygon fill="black" stroke="black" points="212.304,-412.523 214.226,-402.104 206.226,-409.05 212.304,-412.523"/>
</g>
<!-- sample_quality -->
<g id="node6" class="node"><title>sample_quality</title>
<path fill="#ffffcc" stroke="black" d="M141.85,-402C141.85,-402 56.1502,-402 56.1502,-402 50.1502,-402 44.1502,-396 44.1502,-390 44.1502,-390 44.1502,-378 44.1502,-378 44.1502,-372 50.1502,-366 56.1502,-366 56.1502,-366 141.85,-366 141.85,-366 147.85,-366 153.85,-372 153.85,-378 153.85,-378 153.85,-390 153.85,-390 153.85,-396 147.85,-402 141.85,-402"/>
<text text-anchor="middle" x="99" y="-379.8" font-family="Helvetica,sans-Serif" font-size="14.00">sample_quality</text>
</g>
<!-- load_screening_results&#45;&gt;sample_quality -->
<g id="edge10" class="edge"><title>load_screening_results&#45;&gt;sample_quality</title>
<path fill="none" stroke="black" d="M162.989,-437.697C152.284,-428.881 139.11,-418.032 127.504,-408.474"/>
<polygon fill="black" stroke="black" points="129.714,-405.76 119.77,-402.104 125.264,-411.163 129.714,-405.76"/>
</g>
<!-- log_rejected_sample -->
<g id="node3" class="node"><title>log_rejected_sample</title>
<polygon fill="#ccffcc" stroke="black" points="227.574,-186 52.4261,-186 52.4261,-150 227.574,-150 227.574,-186"/>
<text text-anchor="middle" x="140" y="-163.8" font-family="Courier,monospace" font-size="14.00">log_rejected_sample</text>
</g>
<!-- rejection_log -->
<g id="node8" class="node"><title>rejection_log</title>
<path fill="#ffffcc" stroke="black" d="M175.85,-114C175.85,-114 104.15,-114 104.15,-114 98.1502,-114 92.1502,-108 92.1502,-102 92.1502,-102 92.1502,-90 92.1502,-90 92.1502,-84 98.1502,-78 104.15,-78 104.15,-78 175.85,-78 175.85,-78 181.85,-78 187.85,-84 187.85,-90 187.85,-90 187.85,-102 187.85,-102 187.85,-108 181.85,-114 175.85,-114"/>
<text text-anchor="middle" x="140" y="-91.8" font-family="Helvetica,sans-Serif" font-size="14.00">rejection_log</text>
</g>
<!-- log_rejected_sample&#45;&gt;rejection_log -->
<g id="edge12" class="edge"><title>log_rejected_sample&#45;&gt;rejection_log</title>
<path fill="none" stroke="black" d="M140,-149.697C140,-141.983 140,-132.712 140,-124.112"/>
<polygon fill="black" stroke="black" points="143.5,-124.104 140,-114.104 136.5,-124.104 143.5,-124.104"/>
</g>
<!-- sample_spreadsheet -->
<g id="node4" class="node"><title>sample_spreadsheet</title>
<path fill="#ffffcc" stroke="black" d="M326.927,-546C326.927,-546 205.073,-546 205.073,-546 199.073,-546 193.073,-540 193.073,-534 193.073,-534 193.073,-522 193.073,-522 193.073,-516 199.073,-510 205.073,-510 205.073,-510 326.927,-510 326.927,-510 332.927,-510 338.927,-516 338.927,-522 338.927,-522 338.927,-534 338.927,-534 338.927,-540 332.927,-546 326.927,-546"/>
<text text-anchor="middle" x="266" y="-523.8" font-family="Helvetica,sans-Serif" font-size="14.00">sample_spreadsheet</text>
</g>
<!-- sample_spreadsheet&#45;&gt;load_screening_results -->
<g id="edge6" class="edge"><title>sample_spreadsheet&#45;&gt;load_screening_results</title>
<path fill="none" stroke="black" d="M245.73,-509.697C235.502,-500.965 222.939,-490.24 211.822,-480.75"/>
<polygon fill="black" stroke="black" points="213.915,-477.935 204.037,-474.104 209.37,-483.259 213.915,-477.935"/>
</g>
<!-- sample_name&#45;&gt;calculate_strategy -->
<g id="edge5" class="edge"><title>sample_name&#45;&gt;calculate_strategy</title>
<path fill="none" stroke="black" d="M224,-365.697C224,-357.983 224,-348.712 224,-340.112"/>
<polygon fill="black" stroke="black" points="227.5,-340.104 224,-330.104 220.5,-340.104 227.5,-340.104"/>
</g>
<!-- sample_quality&#45;&gt;calculate_strategy -->
<g id="edge4" class="edge"><title>sample_quality&#45;&gt;calculate_strategy</title>
<path fill="none" stroke="black" d="M129.578,-365.876C146.074,-356.639 166.624,-345.131 184.336,-335.212"/>
<polygon fill="black" stroke="black" points="186.289,-338.13 193.304,-330.19 182.869,-332.022 186.289,-338.13"/>
</g>
<!-- rejected_sample&#45;&gt;log_rejected_sample -->
<g id="edge1" class="edge"><title>rejected_sample&#45;&gt;log_rejected_sample</title>
<path fill="none" stroke="black" d="M182.157,-221.697C175.511,-213.389 167.422,-203.277 160.113,-194.141"/>
<polygon fill="black" stroke="black" points="162.664,-191.727 153.683,-186.104 157.197,-196.099 162.664,-191.727"/>
</g>
<!-- rejection_log_outflow -->
<g id="node16" class="node"><title>rejection_log_outflow</title>
<ellipse fill="none" stroke="black" cx="140" cy="-31" rx="7" ry="7"/>
</g>
<!-- rejection_log&#45;&gt;rejection_log_outflow -->
<g id="edge17" class="edge"><title>rejection_log&#45;&gt;rejection_log_outflow</title>
<path fill="none" stroke="black" d="M140,-77.785C140,-68.6656 140,-57.5197 140,-48.5085"/>
<polygon fill="black" stroke="black" points="143.5,-48.242 140,-38.242 136.5,-48.2421 143.5,-48.242"/>
</g>
<!-- sample_score_cutoff -->
<g id="node9" class="node"><title>sample_score_cutoff</title>
<path fill="#ffffff" stroke="black" d="M427.643,-402C427.643,-402 306.357,-402 306.357,-402 300.357,-402 294.357,-396 294.357,-390 294.357,-390 294.357,-378 294.357,-378 294.357,-372 300.357,-366 306.357,-366 306.357,-366 427.643,-366 427.643,-366 433.643,-366 439.643,-372 439.643,-378 439.643,-378 439.643,-390 439.643,-390 439.643,-396 433.643,-402 427.643,-402"/>
<text text-anchor="middle" x="367" y="-379.8" font-family="Helvetica,sans-Serif" font-size="14.00">sample_score_cutoff</text>
</g>
<!-- sample_score_cutoff&#45;&gt;calculate_strategy -->
<g id="edge3" class="edge"><title>sample_score_cutoff&#45;&gt;calculate_strategy</title>
<path fill="none" stroke="black" d="M332.018,-365.876C312.802,-356.469 288.774,-344.708 268.263,-334.667"/>
<polygon fill="black" stroke="black" points="269.637,-331.443 259.116,-330.19 266.559,-337.73 269.637,-331.443"/>
</g>
<!-- data_redundancy -->
<g id="node10" class="node"><title>data_redundancy</title>
<path fill="#ffffff" stroke="black" d="M570.16,-402C570.16,-402 469.84,-402 469.84,-402 463.84,-402 457.84,-396 457.84,-390 457.84,-390 457.84,-378 457.84,-378 457.84,-372 463.84,-366 469.84,-366 469.84,-366 570.16,-366 570.16,-366 576.16,-366 582.16,-372 582.16,-378 582.16,-378 582.16,-390 582.16,-390 582.16,-396 576.16,-402 570.16,-402"/>
<text text-anchor="middle" x="520" y="-379.8" font-family="Helvetica,sans-Serif" font-size="14.00">data_redundancy</text>
</g>
<!-- data_redundancy&#45;&gt;calculate_strategy -->
<g id="edge2" class="edge"><title>data_redundancy&#45;&gt;calculate_strategy</title>
<path fill="none" stroke="black" d="M457.665,-368.061C454.736,-367.363 451.836,-366.674 449,-366 401.818,-354.795 349.047,-342.359 306.476,-332.351"/>
<polygon fill="black" stroke="black" points="307.256,-328.939 296.721,-330.058 305.654,-335.754 307.256,-328.939"/>
</g>
<!-- cassette_id -->
<g id="node11" class="node"><title>cassette_id</title>
<path fill="#ffffff" stroke="black" d="M163.301,-546C163.301,-546 100.699,-546 100.699,-546 94.699,-546 88.699,-540 88.699,-534 88.699,-534 88.699,-522 88.699,-522 88.699,-516 94.699,-510 100.699,-510 100.699,-510 163.301,-510 163.301,-510 169.301,-510 175.301,-516 175.301,-522 175.301,-522 175.301,-534 175.301,-534 175.301,-540 169.301,-546 163.301,-546"/>
<text text-anchor="middle" x="132" y="-523.8" font-family="Helvetica,sans-Serif" font-size="14.00">cassette_id</text>
</g>
<!-- cassette_id&#45;&gt;load_screening_results -->
<g id="edge8" class="edge"><title>cassette_id&#45;&gt;load_screening_results</title>
<path fill="none" stroke="black" d="M144.854,-509.697C151.025,-501.389 158.537,-491.277 165.324,-482.141"/>
<polygon fill="black" stroke="black" points="168.14,-484.219 171.294,-474.104 162.521,-480.045 168.14,-484.219"/>
</g>
<!-- cassette_id&#45;&gt;log_rejected_sample -->
<g id="edge7" class="edge"><title>cassette_id&#45;&gt;log_rejected_sample</title>
<path fill="none" stroke="black" d="M107.183,-509.982C75.5742,-486.072 25,-439.328 25,-385 25,-385 25,-385 25,-311 25,-259.968 70.4101,-217 104.16,-192.112"/>
<polygon fill="black" stroke="black" points="106.356,-194.845 112.455,-186.181 102.285,-189.151 106.356,-194.845"/>
</g>
<!-- sample_spreadsheet_inflow -->
<g id="node12" class="node"><title>sample_spreadsheet_inflow</title>
<ellipse fill="none" stroke="black" cx="300" cy="-593" rx="7" ry="7"/>
</g>
<!-- sample_spreadsheet_inflow&#45;&gt;sample_spreadsheet -->
<g id="edge13" class="edge"><title>sample_spreadsheet_inflow&#45;&gt;sample_spreadsheet</title>
<path fill="none" stroke="black" d="M296.862,-586.186C293.023,-579.071 286.264,-566.548 280.048,-555.03"/>
<polygon fill="black" stroke="black" points="283.075,-553.27 275.246,-546.132 276.915,-556.594 283.075,-553.27"/>
</g>
<!-- sample_score_cutoff_inflow -->
<g id="node13" class="node"><title>sample_score_cutoff_inflow</title>
<ellipse fill="none" stroke="black" cx="332" cy="-593" rx="7" ry="7"/>
</g>
<!-- sample_score_cutoff_inflow&#45;&gt;sample_score_cutoff -->
<g id="edge14" class="edge"><title>sample_score_cutoff_inflow&#45;&gt;sample_score_cutoff</title>
<path fill="none" stroke="black" d="M335.611,-586.746C339.388,-580.962 345.154,-571.253 348,-562 363.812,-510.601 366.907,-447.303 367.268,-412.026"/>
<polygon fill="black" stroke="black" points="370.767,-412.034 367.303,-402.022 363.768,-412.01 370.767,-412.034"/>
</g>
<!-- data_redundancy_inflow -->
<g id="node14" class="node"><title>data_redundancy_inflow</title>
<ellipse fill="none" stroke="black" cx="364" cy="-593" rx="7" ry="7"/>
</g>
<!-- data_redundancy_inflow&#45;&gt;data_redundancy -->
<g id="edge15" class="edge"><title>data_redundancy_inflow&#45;&gt;data_redundancy</title>
<path fill="none" stroke="black" d="M367.856,-586.883C386.092,-562.686 464.314,-458.891 500.942,-410.288"/>
<polygon fill="black" stroke="black" points="503.844,-412.253 507.068,-402.16 498.254,-408.04 503.844,-412.253"/>
</g>
<!-- cassette_id_inflow -->
<g id="node15" class="node"><title>cassette_id_inflow</title>
<ellipse fill="none" stroke="black" cx="268" cy="-593" rx="7" ry="7"/>
</g>
<!-- cassette_id_inflow&#45;&gt;cassette_id -->
<g id="edge16" class="edge"><title>cassette_id_inflow&#45;&gt;cassette_id</title>
<path fill="none" stroke="black" d="M261.261,-590.15C246.734,-586.042 211.552,-575.454 184,-562 177.738,-558.942 171.295,-555.303 165.168,-551.576"/>
<polygon fill="black" stroke="black" points="166.804,-548.47 156.475,-546.11 163.078,-554.396 166.804,-548.47"/>
</g>
</g>
</svg>
