<?xml version="1.0" encoding="UTF-8" standalone="no"?>
<!DOCTYPE svg PUBLIC "-//W3C//DTD SVG 1.1//EN"
 "http://www.w3.org/Graphics/SVG/1.1/DTD/svg11.dtd">
<!-- Generated by graphviz version 2.38.0 (20140413.2041)
 -->
<!-- Title: yw_data_view Pages: 1 -->
<svg width="1072pt" height="662pt"
 viewBox="0.00 0.00 1072.00 661.60" xmlns="http://www.w3.org/2000/svg" xmlns:xlink="http://www.w3.org/1999/xlink">
<g id="graph0" class="graph" transform="scale(1 1) rotate(0) translate(4 657.6)">
<title>yw_data_view</title>
<polygon fill="white" stroke="none" points="-4,4 -4,-657.6 1068,-657.6 1068,4 -4,4"/>
<text text-anchor="middle" x="532" y="-633.4" font-family="Courier,monospace" font-size="18.00">C3_C4_map_present_NA</text>
<g id="clust1" class="cluster"><title>cluster_workflow</title>
<polygon fill="none" stroke="black" stroke-width="2" points="8,-62 8,-562 1056,-562 1056,-62 8,-62"/>
</g>
<g id="clust2" class="cluster"><title>cluster_workflow_inner</title>
<polygon fill="none" stroke="white" stroke-width="2" points="16,-70 16,-554 1048,-554 1048,-70 16,-70"/>
</g>
<g id="clust3" class="cluster"><title>cluster_inflows</title>
<polygon fill="none" stroke="white" stroke-width="2" points="485,-570 485,-616 595,-616 595,-570 485,-570"/>
</g>
<g id="clust4" class="cluster"><title>cluster_inflows_inner</title>
<polygon fill="none" stroke="white" stroke-width="2" points="493,-578 493,-608 587,-608 587,-578 493,-578"/>
</g>
<g id="clust5" class="cluster"><title>cluster_outflows</title>
<polygon fill="none" stroke="white" stroke-width="2" points="464,-8 464,-54 574,-54 574,-8 464,-8"/>
</g>
<g id="clust6" class="cluster"><title>cluster_outflows_inner</title>
<polygon fill="none" stroke="white" stroke-width="2" points="472,-16 472,-46 566,-46 566,-16 472,-16"/>
</g>
<!-- fetch_SYNMAP_land_cover_map_variable -->
<g id="node1" class="node"><title>fetch_SYNMAP_land_cover_map_variable</title>
<polygon fill="#ccffcc" stroke="black" points="800.35,-330 481.65,-330 481.65,-294 800.35,-294 800.35,-330"/>
<text text-anchor="middle" x="641" y="-307.8" font-family="Courier,monospace" font-size="14.00">fetch_SYNMAP_land_cover_map_variable</text>
</g>
<!-- lon_variable -->
<g id="node10" class="node"><title>lon_variable</title>
<path fill="#ffffcc" stroke="black" d="M439.96,-258C439.96,-258 372.04,-258 372.04,-258 366.04,-258 360.04,-252 360.04,-246 360.04,-246 360.04,-234 360.04,-234 360.04,-228 366.04,-222 372.04,-222 372.04,-222 439.96,-222 439.96,-222 445.96,-222 451.96,-228 451.96,-234 451.96,-234 451.96,-246 451.96,-246 451.96,-252 445.96,-258 439.96,-258"/>
<text text-anchor="middle" x="406" y="-235.8" font-family="Helvetica,sans-Serif" font-size="14.00">lon_variable</text>
</g>
<!-- fetch_SYNMAP_land_cover_map_variable&#45;&gt;lon_variable -->
<g id="edge21" class="edge"><title>fetch_SYNMAP_land_cover_map_variable&#45;&gt;lon_variable</title>
<path fill="none" stroke="black" d="M582.167,-293.893C549.312,-284.29 507.397,-271.956 461.707,-258.196"/>
<polygon fill="black" stroke="black" points="462.487,-254.775 451.902,-255.238 460.465,-261.477 462.487,-254.775"/>
</g>
<!-- lat_variable -->
<g id="node11" class="node"><title>lat_variable</title>
<path fill="#ffffcc" stroke="black" d="M545.568,-258C545.568,-258 482.432,-258 482.432,-258 476.432,-258 470.432,-252 470.432,-246 470.432,-246 470.432,-234 470.432,-234 470.432,-228 476.432,-222 482.432,-222 482.432,-222 545.568,-222 545.568,-222 551.568,-222 557.568,-228 557.568,-234 557.568,-234 557.568,-246 557.568,-246 557.568,-252 551.568,-258 545.568,-258"/>
<text text-anchor="middle" x="514" y="-235.8" font-family="Helvetica,sans-Serif" font-size="14.00">lat_variable</text>
</g>
<!-- fetch_SYNMAP_land_cover_map_variable&#45;&gt;lat_variable -->
<g id="edge22" class="edge"><title>fetch_SYNMAP_land_cover_map_variable&#45;&gt;lat_variable</title>
<path fill="none" stroke="black" d="M609.932,-293.876C593.173,-284.639 572.294,-273.131 554.298,-263.212"/>
<polygon fill="black" stroke="black" points="555.634,-259.952 545.187,-258.19 552.255,-266.082 555.634,-259.952"/>
</g>
<!-- lon_bnds_variable -->
<g id="node12" class="node"><title>lon_bnds_variable</title>
<path fill="#ffffcc" stroke="black" d="M693.59,-258C693.59,-258 588.41,-258 588.41,-258 582.41,-258 576.41,-252 576.41,-246 576.41,-246 576.41,-234 576.41,-234 576.41,-228 582.41,-222 588.41,-222 588.41,-222 693.59,-222 693.59,-222 699.59,-222 705.59,-228 705.59,-234 705.59,-234 705.59,-246 705.59,-246 705.59,-252 699.59,-258 693.59,-258"/>
<text text-anchor="middle" x="641" y="-235.8" font-family="Helvetica,sans-Serif" font-size="14.00">lon_bnds_variable</text>
</g>
<!-- fetch_SYNMAP_land_cover_map_variable&#45;&gt;lon_bnds_variable -->
<g id="edge23" class="edge"><title>fetch_SYNMAP_land_cover_map_variable&#45;&gt;lon_bnds_variable</title>
<path fill="none" stroke="black" d="M641,-293.697C641,-285.983 641,-276.712 641,-268.112"/>
<polygon fill="black" stroke="black" points="644.5,-268.104 641,-258.104 637.5,-268.104 644.5,-268.104"/>
</g>
<!-- lat_bnds_variable -->
<g id="node13" class="node"><title>lat_bnds_variable</title>
<path fill="#ffffcc" stroke="black" d="M837.697,-258C837.697,-258 736.303,-258 736.303,-258 730.303,-258 724.303,-252 724.303,-246 724.303,-246 724.303,-234 724.303,-234 724.303,-228 730.303,-222 736.303,-222 736.303,-222 837.697,-222 837.697,-222 843.697,-222 849.697,-228 849.697,-234 849.697,-234 849.697,-246 849.697,-246 849.697,-252 843.697,-258 837.697,-258"/>
<text text-anchor="middle" x="787" y="-235.8" font-family="Helvetica,sans-Serif" font-size="14.00">lat_bnds_variable</text>
</g>
<!-- fetch_SYNMAP_land_cover_map_variable&#45;&gt;lat_bnds_variable -->
<g id="edge24" class="edge"><title>fetch_SYNMAP_land_cover_map_variable&#45;&gt;lat_bnds_variable</title>
<path fill="none" stroke="black" d="M676.716,-293.876C696.497,-284.392 721.272,-272.513 742.326,-262.419"/>
<polygon fill="black" stroke="black" points="743.896,-265.548 751.4,-258.068 740.87,-259.236 743.896,-265.548"/>
</g>
<!-- fetch_monthly_mean_air_temperature_data -->
<g id="node2" class="node"><title>fetch_monthly_mean_air_temperature_data</title>
<polygon fill="#ccffcc" stroke="black" points="711.546,-474 368.454,-474 368.454,-438 711.546,-438 711.546,-474"/>
<text text-anchor="middle" x="540" y="-451.8" font-family="Courier,monospace" font-size="14.00">fetch_monthly_mean_air_temperature_data</text>
</g>
<!-- Tair_Matrix -->
<g id="node15" class="node"><title>Tair_Matrix</title>
<path fill="#ffffcc" stroke="black" d="M517.986,-402C517.986,-402 456.014,-402 456.014,-402 450.014,-402 444.014,-396 444.014,-390 444.014,-390 444.014,-378 444.014,-378 444.014,-372 450.014,-366 456.014,-366 456.014,-366 517.986,-366 517.986,-366 523.986,-366 529.986,-372 529.986,-378 529.986,-378 529.986,-390 529.986,-390 529.986,-396 523.986,-402 517.986,-402"/>
<text text-anchor="middle" x="487" y="-379.8" font-family="Helvetica,sans-Serif" font-size="14.00">Tair_Matrix</text>
</g>
<!-- fetch_monthly_mean_air_temperature_data&#45;&gt;Tair_Matrix -->
<g id="edge25" class="edge"><title>fetch_monthly_mean_air_temperature_data&#45;&gt;Tair_Matrix</title>
<path fill="none" stroke="black" d="M526.899,-437.697C520.609,-429.389 512.953,-419.277 506.035,-410.141"/>
<polygon fill="black" stroke="black" points="508.777,-407.964 499.95,-402.104 503.196,-412.19 508.777,-407.964"/>
</g>
<!-- fetch_monthly_mean_precipitation_data -->
<g id="node3" class="node"><title>fetch_monthly_mean_precipitation_data</title>
<polygon fill="#ccffcc" stroke="black" points="350.248,-474 23.7517,-474 23.7517,-438 350.248,-438 350.248,-474"/>
<text text-anchor="middle" x="187" y="-451.8" font-family="Courier,monospace" font-size="14.00">fetch_monthly_mean_precipitation_data</text>
</g>
<!-- Rain_Matrix -->
<g id="node17" class="node"><title>Rain_Matrix</title>
<path fill="#ffffcc" stroke="black" d="M267.163,-402C267.163,-402 200.837,-402 200.837,-402 194.837,-402 188.837,-396 188.837,-390 188.837,-390 188.837,-378 188.837,-378 188.837,-372 194.837,-366 200.837,-366 200.837,-366 267.163,-366 267.163,-366 273.163,-366 279.163,-372 279.163,-378 279.163,-378 279.163,-390 279.163,-390 279.163,-396 273.163,-402 267.163,-402"/>
<text text-anchor="middle" x="234" y="-379.8" font-family="Helvetica,sans-Serif" font-size="14.00">Rain_Matrix</text>
</g>
<!-- fetch_monthly_mean_precipitation_data&#45;&gt;Rain_Matrix -->
<g id="edge26" class="edge"><title>fetch_monthly_mean_precipitation_data&#45;&gt;Rain_Matrix</title>
<path fill="none" stroke="black" d="M198.618,-437.697C204.139,-429.474 210.847,-419.483 216.932,-410.421"/>
<polygon fill="black" stroke="black" points="219.847,-412.358 222.516,-402.104 214.035,-408.456 219.847,-412.358"/>
</g>
<!-- initialize_Grass_Matrix -->
<g id="node4" class="node"><title>initialize_Grass_Matrix</title>
<polygon fill="#ccffcc" stroke="black" points="1027.67,-330 818.332,-330 818.332,-294 1027.67,-294 1027.67,-330"/>
<text text-anchor="middle" x="923" y="-307.8" font-family="Courier,monospace" font-size="14.00">initialize_Grass_Matrix</text>
</g>
<!-- Grass_variable -->
<g id="node18" class="node"><title>Grass_variable</title>
<path fill="#ffffcc" stroke="black" d="M966.121,-258C966.121,-258 879.879,-258 879.879,-258 873.879,-258 867.879,-252 867.879,-246 867.879,-246 867.879,-234 867.879,-234 867.879,-228 873.879,-222 879.879,-222 879.879,-222 966.121,-222 966.121,-222 972.121,-222 978.121,-228 978.121,-234 978.121,-234 978.121,-246 978.121,-246 978.121,-252 972.121,-258 966.121,-258"/>
<text text-anchor="middle" x="923" y="-235.8" font-family="Helvetica,sans-Serif" font-size="14.00">Grass_variable</text>
</g>
<!-- initialize_Grass_Matrix&#45;&gt;Grass_variable -->
<g id="edge27" class="edge"><title>initialize_Grass_Matrix&#45;&gt;Grass_variable</title>
<path fill="none" stroke="black" d="M923,-293.697C923,-285.983 923,-276.712 923,-268.112"/>
<polygon fill="black" stroke="black" points="926.5,-268.104 923,-258.104 919.5,-268.104 926.5,-268.104"/>
</g>
<!-- examine_pixels_for_grass -->
<g id="node5" class="node"><title>examine_pixels_for_grass</title>
<polygon fill="#ccffcc" stroke="black" points="384.567,-330 167.433,-330 167.433,-294 384.567,-294 384.567,-330"/>
<text text-anchor="middle" x="276" y="-307.8" font-family="Courier,monospace" font-size="14.00">examine_pixels_for_grass</text>
</g>
<!-- C3_Data -->
<g id="node19" class="node"><title>C3_Data</title>
<path fill="#ffffcc" stroke="black" d="M211.735,-258C211.735,-258 164.265,-258 164.265,-258 158.265,-258 152.265,-252 152.265,-246 152.265,-246 152.265,-234 152.265,-234 152.265,-228 158.265,-222 164.265,-222 164.265,-222 211.735,-222 211.735,-222 217.735,-222 223.735,-228 223.735,-234 223.735,-234 223.735,-246 223.735,-246 223.735,-252 217.735,-258 211.735,-258"/>
<text text-anchor="middle" x="188" y="-235.8" font-family="Helvetica,sans-Serif" font-size="14.00">C3_Data</text>
</g>
<!-- examine_pixels_for_grass&#45;&gt;C3_Data -->
<g id="edge28" class="edge"><title>examine_pixels_for_grass&#45;&gt;C3_Data</title>
<path fill="none" stroke="black" d="M254.247,-293.697C243.164,-284.881 229.526,-274.032 217.51,-264.474"/>
<polygon fill="black" stroke="black" points="219.507,-261.59 209.503,-258.104 215.15,-267.069 219.507,-261.59"/>
</g>
<!-- C4_Data -->
<g id="node20" class="node"><title>C4_Data</title>
<path fill="#ffffcc" stroke="black" d="M320.735,-258C320.735,-258 273.265,-258 273.265,-258 267.265,-258 261.265,-252 261.265,-246 261.265,-246 261.265,-234 261.265,-234 261.265,-228 267.265,-222 273.265,-222 273.265,-222 320.735,-222 320.735,-222 326.735,-222 332.735,-228 332.735,-234 332.735,-234 332.735,-246 332.735,-246 332.735,-252 326.735,-258 320.735,-258"/>
<text text-anchor="middle" x="297" y="-235.8" font-family="Helvetica,sans-Serif" font-size="14.00">C4_Data</text>
</g>
<!-- examine_pixels_for_grass&#45;&gt;C4_Data -->
<g id="edge29" class="edge"><title>examine_pixels_for_grass&#45;&gt;C4_Data</title>
<path fill="none" stroke="black" d="M281.191,-293.697C283.531,-285.898 286.347,-276.509 288.951,-267.829"/>
<polygon fill="black" stroke="black" points="292.348,-268.688 291.869,-258.104 285.643,-266.677 292.348,-268.688"/>
</g>
<!-- generate_netcdf_file_for_C3_fraction -->
<g id="node6" class="node"><title>generate_netcdf_file_for_C3_fraction</title>
<polygon fill="#ccffcc" stroke="black" points="342.35,-186 23.6502,-186 23.6502,-150 342.35,-150 342.35,-186"/>
<text text-anchor="middle" x="183" y="-163.8" font-family="Courier,monospace" font-size="14.00">generate_netcdf_file_for_C3_fraction</text>
</g>
<!-- C3_fraction_data -->
<g id="node21" class="node"><title>C3_fraction_data</title>
<path fill="#ffffcc" stroke="black" d="M330.09,-114C330.09,-114 231.91,-114 231.91,-114 225.91,-114 219.91,-108 219.91,-102 219.91,-102 219.91,-90 219.91,-90 219.91,-84 225.91,-78 231.91,-78 231.91,-78 330.09,-78 330.09,-78 336.09,-78 342.09,-84 342.09,-90 342.09,-90 342.09,-102 342.09,-102 342.09,-108 336.09,-114 330.09,-114"/>
<text text-anchor="middle" x="281" y="-91.8" font-family="Helvetica,sans-Serif" font-size="14.00">C3_fraction_data</text>
</g>
<!-- generate_netcdf_file_for_C3_fraction&#45;&gt;C3_fraction_data -->
<g id="edge30" class="edge"><title>generate_netcdf_file_for_C3_fraction&#45;&gt;C3_fraction_data</title>
<path fill="none" stroke="black" d="M206.973,-149.876C219.55,-140.893 235.132,-129.763 248.752,-120.034"/>
<polygon fill="black" stroke="black" points="250.831,-122.85 256.934,-114.19 246.763,-117.154 250.831,-122.85"/>
</g>
<!-- generate_netcdf_file_for_C4_fraction -->
<g id="node7" class="node"><title>generate_netcdf_file_for_C4_fraction</title>
<polygon fill="#ccffcc" stroke="black" points="678.35,-186 359.65,-186 359.65,-150 678.35,-150 678.35,-186"/>
<text text-anchor="middle" x="519" y="-163.8" font-family="Courier,monospace" font-size="14.00">generate_netcdf_file_for_C4_fraction</text>
</g>
<!-- C4_fraction_data -->
<g id="node22" class="node"><title>C4_fraction_data</title>
<path fill="#ffffcc" stroke="black" d="M568.09,-114C568.09,-114 469.91,-114 469.91,-114 463.91,-114 457.91,-108 457.91,-102 457.91,-102 457.91,-90 457.91,-90 457.91,-84 463.91,-78 469.91,-78 469.91,-78 568.09,-78 568.09,-78 574.09,-78 580.09,-84 580.09,-90 580.09,-90 580.09,-102 580.09,-102 580.09,-108 574.09,-114 568.09,-114"/>
<text text-anchor="middle" x="519" y="-91.8" font-family="Helvetica,sans-Serif" font-size="14.00">C4_fraction_data</text>
</g>
<!-- generate_netcdf_file_for_C4_fraction&#45;&gt;C4_fraction_data -->
<g id="edge31" class="edge"><title>generate_netcdf_file_for_C4_fraction&#45;&gt;C4_fraction_data</title>
<path fill="none" stroke="black" d="M519,-149.697C519,-141.983 519,-132.712 519,-124.112"/>
<polygon fill="black" stroke="black" points="522.5,-124.104 519,-114.104 515.5,-124.104 522.5,-124.104"/>
</g>
<!-- generate_netcdf_file_for_Grass_fraction -->
<g id="node8" class="node"><title>generate_netcdf_file_for_Grass_fraction</title>
<polygon fill="#ccffcc" stroke="black" points="1039.55,-186 696.454,-186 696.454,-150 1039.55,-150 1039.55,-186"/>
<text text-anchor="middle" x="868" y="-163.8" font-family="Courier,monospace" font-size="14.00">generate_netcdf_file_for_Grass_fraction</text>
</g>
<!-- Grass_fraction_data -->
<g id="node23" class="node"><title>Grass_fraction_data</title>
<path fill="#ffffcc" stroke="black" d="M827.034,-114C827.034,-114 708.966,-114 708.966,-114 702.966,-114 696.966,-108 696.966,-102 696.966,-102 696.966,-90 696.966,-90 696.966,-84 702.966,-78 708.966,-78 708.966,-78 827.034,-78 827.034,-78 833.034,-78 839.034,-84 839.034,-90 839.034,-90 839.034,-102 839.034,-102 839.034,-108 833.034,-114 827.034,-114"/>
<text text-anchor="middle" x="768" y="-91.8" font-family="Helvetica,sans-Serif" font-size="14.00">Grass_fraction_data</text>
</g>
<!-- generate_netcdf_file_for_Grass_fraction&#45;&gt;Grass_fraction_data -->
<g id="edge32" class="edge"><title>generate_netcdf_file_for_Grass_fraction&#45;&gt;Grass_fraction_data</title>
<path fill="none" stroke="black" d="M843.537,-149.876C830.704,-140.893 814.804,-129.763 800.906,-120.034"/>
<polygon fill="black" stroke="black" points="802.756,-117.057 792.557,-114.19 798.742,-122.792 802.756,-117.057"/>
</g>
<!-- SYNMAP_land_cover_map_data -->
<g id="node9" class="node"><title>SYNMAP_land_cover_map_data</title>
<path fill="#ffffcc" stroke="black" d="M806.889,-402C806.889,-402 609.111,-402 609.111,-402 603.111,-402 597.111,-396 597.111,-390 597.111,-390 597.111,-378 597.111,-378 597.111,-372 603.111,-366 609.111,-366 609.111,-366 806.889,-366 806.889,-366 812.889,-366 818.889,-372 818.889,-378 818.889,-378 818.889,-390 818.889,-390 818.889,-396 812.889,-402 806.889,-402"/>
<text text-anchor="middle" x="708" y="-379.8" font-family="Helvetica,sans-Serif" font-size="14.00">SYNMAP_land_cover_map_data</text>
</g>
<!-- SYNMAP_land_cover_map_data&#45;&gt;fetch_SYNMAP_land_cover_map_variable -->
<g id="edge1" class="edge"><title>SYNMAP_land_cover_map_data&#45;&gt;fetch_SYNMAP_land_cover_map_variable</title>
<path fill="none" stroke="black" d="M691.438,-365.697C683.325,-357.22 673.412,-346.864 664.529,-337.583"/>
<polygon fill="black" stroke="black" points="666.814,-334.908 657.371,-330.104 661.757,-339.749 666.814,-334.908"/>
</g>
<!-- lon_variable&#45;&gt;generate_netcdf_file_for_C3_fraction -->
<g id="edge2" class="edge"><title>lon_variable&#45;&gt;generate_netcdf_file_for_C3_fraction</title>
<path fill="none" stroke="black" d="M360.065,-224.581C327.549,-214.374 283.496,-200.546 247.466,-189.236"/>
<polygon fill="black" stroke="black" points="248.122,-185.773 237.532,-186.118 246.025,-192.452 248.122,-185.773"/>
</g>
<!-- lon_variable&#45;&gt;generate_netcdf_file_for_C4_fraction -->
<g id="edge3" class="edge"><title>lon_variable&#45;&gt;generate_netcdf_file_for_C4_fraction</title>
<path fill="none" stroke="black" d="M433.643,-221.876C448.418,-212.724 466.791,-201.342 482.703,-191.485"/>
<polygon fill="black" stroke="black" points="484.593,-194.431 491.251,-186.19 480.907,-188.481 484.593,-194.431"/>
</g>
<!-- lon_variable&#45;&gt;generate_netcdf_file_for_Grass_fraction -->
<g id="edge4" class="edge"><title>lon_variable&#45;&gt;generate_netcdf_file_for_Grass_fraction</title>
<path fill="none" stroke="black" d="M451.761,-224.217C454.872,-223.409 457.973,-222.66 461,-222 506.972,-211.978 613.825,-198.192 706.511,-187.192"/>
<polygon fill="black" stroke="black" points="707.063,-190.651 716.582,-186.001 706.241,-183.7 707.063,-190.651"/>
</g>
<!-- lat_variable&#45;&gt;generate_netcdf_file_for_C3_fraction -->
<g id="edge5" class="edge"><title>lat_variable&#45;&gt;generate_netcdf_file_for_C3_fraction</title>
<path fill="none" stroke="black" d="M470.16,-224.483C467.072,-223.601 463.997,-222.763 461,-222 408.105,-208.528 348.765,-196.768 298.535,-187.77"/>
<polygon fill="black" stroke="black" points="299.074,-184.311 288.616,-186.008 297.849,-191.203 299.074,-184.311"/>
</g>
<!-- lat_variable&#45;&gt;generate_netcdf_file_for_C4_fraction -->
<g id="edge6" class="edge"><title>lat_variable&#45;&gt;generate_netcdf_file_for_C4_fraction</title>
<path fill="none" stroke="black" d="M515.236,-221.697C515.787,-213.983 516.449,-204.712 517.063,-196.112"/>
<polygon fill="black" stroke="black" points="520.557,-196.328 517.778,-186.104 513.575,-195.83 520.557,-196.328"/>
</g>
<!-- lat_variable&#45;&gt;generate_netcdf_file_for_Grass_fraction -->
<g id="edge7" class="edge"><title>lat_variable&#45;&gt;generate_netcdf_file_for_Grass_fraction</title>
<path fill="none" stroke="black" d="M557.828,-224.435C560.919,-223.564 563.998,-222.742 567,-222 623.13,-208.125 686.012,-196.459 739.728,-187.636"/>
<polygon fill="black" stroke="black" points="740.339,-191.082 749.647,-186.021 739.215,-184.173 740.339,-191.082"/>
</g>
<!-- lon_bnds_variable&#45;&gt;generate_netcdf_file_for_C3_fraction -->
<g id="edge8" class="edge"><title>lon_bnds_variable&#45;&gt;generate_netcdf_file_for_C3_fraction</title>
<path fill="none" stroke="black" d="M576.095,-223.747C573.026,-223.133 569.982,-222.547 567,-222 492.395,-208.31 409.051,-196.401 339.123,-187.359"/>
<polygon fill="black" stroke="black" points="339.27,-183.849 328.906,-186.046 338.378,-190.792 339.27,-183.849"/>
</g>
<!-- lon_bnds_variable&#45;&gt;generate_netcdf_file_for_C4_fraction -->
<g id="edge9" class="edge"><title>lon_bnds_variable&#45;&gt;generate_netcdf_file_for_C4_fraction</title>
<path fill="none" stroke="black" d="M611.155,-221.876C595.056,-212.639 574.999,-201.131 557.712,-191.212"/>
<polygon fill="black" stroke="black" points="559.375,-188.131 548.959,-186.19 555.891,-194.202 559.375,-188.131"/>
</g>
<!-- lon_bnds_variable&#45;&gt;generate_netcdf_file_for_Grass_fraction -->
<g id="edge10" class="edge"><title>lon_bnds_variable&#45;&gt;generate_netcdf_file_for_Grass_fraction</title>
<path fill="none" stroke="black" d="M696.24,-221.966C728.371,-212.057 769.048,-199.514 802.75,-189.121"/>
<polygon fill="black" stroke="black" points="803.988,-192.402 812.512,-186.111 801.925,-185.713 803.988,-192.402"/>
</g>
<!-- lat_bnds_variable&#45;&gt;generate_netcdf_file_for_C3_fraction -->
<g id="edge11" class="edge"><title>lat_bnds_variable&#45;&gt;generate_netcdf_file_for_C3_fraction</title>
<path fill="none" stroke="black" d="M724.271,-223.669C721.144,-223.068 718.041,-222.507 715,-222 557.935,-195.811 514.527,-201.914 352.923,-186.178"/>
<polygon fill="black" stroke="black" points="352.911,-182.66 342.615,-185.16 352.223,-189.626 352.911,-182.66"/>
</g>
<!-- lat_bnds_variable&#45;&gt;generate_netcdf_file_for_C4_fraction -->
<g id="edge12" class="edge"><title>lat_bnds_variable&#45;&gt;generate_netcdf_file_for_C4_fraction</title>
<path fill="none" stroke="black" d="M724.166,-222.588C685.207,-212.412 634.943,-199.284 593.917,-188.568"/>
<polygon fill="black" stroke="black" points="594.799,-185.181 584.239,-186.04 593.03,-191.954 594.799,-185.181"/>
</g>
<!-- lat_bnds_variable&#45;&gt;generate_netcdf_file_for_Grass_fraction -->
<g id="edge13" class="edge"><title>lat_bnds_variable&#45;&gt;generate_netcdf_file_for_Grass_fraction</title>
<path fill="none" stroke="black" d="M807.022,-221.697C817.126,-212.965 829.536,-202.24 840.518,-192.75"/>
<polygon fill="black" stroke="black" points="842.93,-195.291 848.208,-186.104 838.353,-189.995 842.93,-195.291"/>
</g>
<!-- mean_airtemp -->
<g id="node14" class="node"><title>mean_airtemp</title>
<path fill="#ffffcc" stroke="black" d="M580.958,-546C580.958,-546 499.042,-546 499.042,-546 493.042,-546 487.042,-540 487.042,-534 487.042,-534 487.042,-522 487.042,-522 487.042,-516 493.042,-510 499.042,-510 499.042,-510 580.958,-510 580.958,-510 586.958,-510 592.958,-516 592.958,-522 592.958,-522 592.958,-534 592.958,-534 592.958,-540 586.958,-546 580.958,-546"/>
<text text-anchor="middle" x="540" y="-523.8" font-family="Helvetica,sans-Serif" font-size="14.00">mean_airtemp</text>
</g>
<!-- mean_airtemp&#45;&gt;fetch_monthly_mean_air_temperature_data -->
<g id="edge14" class="edge"><title>mean_airtemp&#45;&gt;fetch_monthly_mean_air_temperature_data</title>
<path fill="none" stroke="black" d="M540,-509.697C540,-501.983 540,-492.712 540,-484.112"/>
<polygon fill="black" stroke="black" points="543.5,-484.104 540,-474.104 536.5,-484.104 543.5,-484.104"/>
</g>
<!-- Tair_Matrix&#45;&gt;examine_pixels_for_grass -->
<g id="edge15" class="edge"><title>Tair_Matrix&#45;&gt;examine_pixels_for_grass</title>
<path fill="none" stroke="black" d="M443.792,-368.666C413.066,-358.472 371.357,-344.635 337.211,-333.307"/>
<polygon fill="black" stroke="black" points="337.932,-329.859 327.338,-330.032 335.727,-336.502 337.932,-329.859"/>
</g>
<!-- mean_precip -->
<g id="node16" class="node"><title>mean_precip</title>
<path fill="#ffffcc" stroke="black" d="M340.406,-546C340.406,-546 267.594,-546 267.594,-546 261.594,-546 255.594,-540 255.594,-534 255.594,-534 255.594,-522 255.594,-522 255.594,-516 261.594,-510 267.594,-510 267.594,-510 340.406,-510 340.406,-510 346.406,-510 352.406,-516 352.406,-522 352.406,-522 352.406,-534 352.406,-534 352.406,-540 346.406,-546 340.406,-546"/>
<text text-anchor="middle" x="304" y="-523.8" font-family="Helvetica,sans-Serif" font-size="14.00">mean_precip</text>
</g>
<!-- mean_precip&#45;&gt;fetch_monthly_mean_precipitation_data -->
<g id="edge16" class="edge"><title>mean_precip&#45;&gt;fetch_monthly_mean_precipitation_data</title>
<path fill="none" stroke="black" d="M275.379,-509.876C260.081,-500.724 241.057,-489.342 224.582,-479.485"/>
<polygon fill="black" stroke="black" points="226.11,-476.32 215.731,-474.19 222.516,-482.327 226.11,-476.32"/>
</g>
<!-- Rain_Matrix&#45;&gt;examine_pixels_for_grass -->
<g id="edge17" class="edge"><title>Rain_Matrix&#45;&gt;examine_pixels_for_grass</title>
<path fill="none" stroke="black" d="M244.382,-365.697C249.265,-357.559 255.187,-347.689 260.579,-338.701"/>
<polygon fill="black" stroke="black" points="263.594,-340.48 265.737,-330.104 257.591,-336.879 263.594,-340.48"/>
</g>
<!-- Grass_variable&#45;&gt;generate_netcdf_file_for_Grass_fraction -->
<g id="edge18" class="edge"><title>Grass_variable&#45;&gt;generate_netcdf_file_for_Grass_fraction</title>
<path fill="none" stroke="black" d="M909.404,-221.697C902.877,-213.389 894.932,-203.277 887.753,-194.141"/>
<polygon fill="black" stroke="black" points="890.369,-191.805 881.439,-186.104 884.865,-196.13 890.369,-191.805"/>
</g>
<!-- C3_Data&#45;&gt;generate_netcdf_file_for_C3_fraction -->
<g id="edge19" class="edge"><title>C3_Data&#45;&gt;generate_netcdf_file_for_C3_fraction</title>
<path fill="none" stroke="black" d="M186.764,-221.697C186.213,-213.983 185.551,-204.712 184.937,-196.112"/>
<polygon fill="black" stroke="black" points="188.425,-195.83 184.222,-186.104 181.443,-196.328 188.425,-195.83"/>
</g>
<!-- C4_Data&#45;&gt;generate_netcdf_file_for_C4_fraction -->
<g id="edge20" class="edge"><title>C4_Data&#45;&gt;generate_netcdf_file_for_C4_fraction</title>
<path fill="none" stroke="black" d="M332.668,-227.753C365.618,-217.364 415.337,-201.686 455.131,-189.139"/>
<polygon fill="black" stroke="black" points="456.272,-192.449 464.757,-186.104 454.167,-185.773 456.272,-192.449"/>
</g>
<!-- C3_fraction_data_outflow -->
<g id="node29" class="node"><title>C3_fraction_data_outflow</title>
<ellipse fill="none" stroke="black" cx="487" cy="-31" rx="7" ry="7"/>
</g>
<!-- C3_fraction_data&#45;&gt;C3_fraction_data_outflow -->
<g id="edge38" class="edge"><title>C3_fraction_data&#45;&gt;C3_fraction_data_outflow</title>
<path fill="none" stroke="black" d="M336.747,-77.9513C381.779,-64.1792 442.197,-45.7018 470.751,-36.9693"/>
<polygon fill="black" stroke="black" points="472.076,-40.2242 480.615,-33.9526 470.029,-33.5303 472.076,-40.2242"/>
</g>
<!-- C4_fraction_data_outflow -->
<g id="node28" class="node"><title>C4_fraction_data_outflow</title>
<ellipse fill="none" stroke="black" cx="519" cy="-31" rx="7" ry="7"/>
</g>
<!-- C4_fraction_data&#45;&gt;C4_fraction_data_outflow -->
<g id="edge37" class="edge"><title>C4_fraction_data&#45;&gt;C4_fraction_data_outflow</title>
<path fill="none" stroke="black" d="M519,-77.785C519,-68.6656 519,-57.5197 519,-48.5085"/>
<polygon fill="black" stroke="black" points="522.5,-48.242 519,-38.242 515.5,-48.2421 522.5,-48.242"/>
</g>
<!-- Grass_fraction_data_outflow -->
<g id="node27" class="node"><title>Grass_fraction_data_outflow</title>
<ellipse fill="none" stroke="black" cx="551" cy="-31" rx="7" ry="7"/>
</g>
<!-- Grass_fraction_data&#45;&gt;Grass_fraction_data_outflow -->
<g id="edge36" class="edge"><title>Grass_fraction_data&#45;&gt;Grass_fraction_data_outflow</title>
<path fill="none" stroke="black" d="M709.277,-77.9513C661.407,-64.0537 597.033,-45.3645 567.302,-36.7329"/>
<polygon fill="black" stroke="black" points="567.993,-33.2889 557.413,-33.862 566.041,-40.0114 567.993,-33.2889"/>
</g>
<!-- SYNMAP_land_cover_map_data_inflow -->
<g id="node24" class="node"><title>SYNMAP_land_cover_map_data_inflow</title>
<ellipse fill="none" stroke="black" cx="572" cy="-593" rx="7" ry="7"/>
</g>
<!-- SYNMAP_land_cover_map_data_inflow&#45;&gt;SYNMAP_land_cover_map_data -->
<g id="edge33" class="edge"><title>SYNMAP_land_cover_map_data_inflow&#45;&gt;SYNMAP_land_cover_map_data</title>
<path fill="none" stroke="black" d="M578.136,-589.533C602.07,-579.526 689.392,-539.352 721,-474 730.408,-454.548 725.847,-430.122 719.67,-411.782"/>
<polygon fill="black" stroke="black" points="722.909,-410.449 716.15,-402.289 716.345,-412.882 722.909,-410.449"/>
</g>
<!-- mean_airtemp_inflow -->
<g id="node25" class="node"><title>mean_airtemp_inflow</title>
<ellipse fill="none" stroke="black" cx="540" cy="-593" rx="7" ry="7"/>
</g>
<!-- mean_airtemp_inflow&#45;&gt;mean_airtemp -->
<g id="edge34" class="edge"><title>mean_airtemp_inflow&#45;&gt;mean_airtemp</title>
<path fill="none" stroke="black" d="M540,-585.729C540,-578.795 540,-567.154 540,-556.215"/>
<polygon fill="black" stroke="black" points="543.5,-556.119 540,-546.119 536.5,-556.119 543.5,-556.119"/>
</g>
<!-- mean_precip_inflow -->
<g id="node26" class="node"><title>mean_precip_inflow</title>
<ellipse fill="none" stroke="black" cx="508" cy="-593" rx="7" ry="7"/>
</g>
<!-- mean_precip_inflow&#45;&gt;mean_precip -->
<g id="edge35" class="edge"><title>mean_precip_inflow&#45;&gt;mean_precip</title>
<path fill="none" stroke="black" d="M501.213,-589.904C479.889,-583.319 412.687,-562.565 362.621,-547.104"/>
<polygon fill="black" stroke="black" points="363.443,-543.694 352.855,-544.088 361.377,-550.383 363.443,-543.694"/>
</g>
</g>
</svg>
