<?xml version="1.0" encoding="UTF-8" standalone="no"?>
<!DOCTYPE svg PUBLIC "-//W3C//DTD SVG 1.1//EN"
 "http://www.w3.org/Graphics/SVG/1.1/DTD/svg11.dtd">
<!-- Generated by graphviz version 2.38.0 (20140413.2041)
 -->
<!-- Title: Workflow Pages: 1 -->
<svg width="1442pt" height="705pt"
 viewBox="0.00 0.00 1442.00 705.40" xmlns="http://www.w3.org/2000/svg" xmlns:xlink="http://www.w3.org/1999/xlink">
<g id="graph0" class="graph" transform="scale(1 1) rotate(0) translate(4 701.4)">
<title>Workflow</title>
<polygon fill="white" stroke="none" points="-4,4 -4,-701.4 1438,-701.4 1438,4 -4,4"/>
<text text-anchor="middle" x="717" y="-677.2" font-family="Courier,monospace" font-size="18.00">C3_C4_map_present_NA</text>
<g id="clust1" class="cluster"><title>cluster_workflow_box_outer</title>
<polygon fill="none" stroke="black" stroke-width="2" points="8,-62 8,-605.8 1426,-605.8 1426,-62 8,-62"/>
</g>
<g id="clust2" class="cluster"><title>cluster_workflow_box_inner</title>
<polygon fill="none" stroke="white" stroke-width="2" points="16,-70 16,-597.8 1418,-597.8 1418,-70 16,-70"/>
</g>
<g id="clust3" class="cluster"><title>cluster_input_ports_group_outer</title>
<polygon fill="none" stroke="white" points="893,-613.8 893,-659.8 1003,-659.8 1003,-613.8 893,-613.8"/>
</g>
<g id="clust4" class="cluster"><title>cluster_input_ports_group_inner</title>
<polygon fill="none" stroke="white" points="901,-621.8 901,-651.8 995,-651.8 995,-621.8 901,-621.8"/>
</g>
<g id="clust5" class="cluster"><title>cluster_output_ports_group_outer</title>
<polygon fill="none" stroke="white" points="674,-8 674,-54 784,-54 784,-8 674,-8"/>
</g>
<g id="clust6" class="cluster"><title>cluster_output_ports_group_inner</title>
<polygon fill="none" stroke="white" points="682,-16 682,-46 776,-46 776,-16 682,-16"/>
</g>
<!-- fetch_SYNMAP_land_cover_map_variable -->
<g id="node1" class="node"><title>fetch_SYNMAP_land_cover_map_variable</title>
<polygon fill="#ccffcc" stroke="black" points="1064.35,-344.6 745.65,-344.6 745.65,-308.6 1064.35,-308.6 1064.35,-344.6"/>
<text text-anchor="middle" x="905" y="-322.4" font-family="Courier,monospace" font-size="14.00">fetch_SYNMAP_land_cover_map_variable</text>
</g>
<!-- lon_variable -->
<g id="node17" class="node"><title>lon_variable</title>
<path fill="#ffffcc" stroke="black" d="M703.96,-272.6C703.96,-272.6 636.04,-272.6 636.04,-272.6 630.04,-272.6 624.04,-266.6 624.04,-260.6 624.04,-260.6 624.04,-248.6 624.04,-248.6 624.04,-242.6 630.04,-236.6 636.04,-236.6 636.04,-236.6 703.96,-236.6 703.96,-236.6 709.96,-236.6 715.96,-242.6 715.96,-248.6 715.96,-248.6 715.96,-260.6 715.96,-260.6 715.96,-266.6 709.96,-272.6 703.96,-272.6"/>
<text text-anchor="middle" x="670" y="-250.4" font-family="Helvetica,sans-Serif" font-size="14.00">lon_variable</text>
</g>
<!-- fetch_SYNMAP_land_cover_map_variable&#45;&gt;lon_variable -->
<g id="edge1" class="edge"><title>fetch_SYNMAP_land_cover_map_variable&#45;&gt;lon_variable</title>
<path fill="none" stroke="black" d="M846.167,-308.493C813.312,-298.89 771.397,-286.556 725.707,-272.796"/>
<polygon fill="black" stroke="black" points="726.487,-269.375 715.902,-269.838 724.465,-276.077 726.487,-269.375"/>
</g>
<!-- lat_variable -->
<g id="node18" class="node"><title>lat_variable</title>
<path fill="#ffffcc" stroke="black" d="M809.568,-272.6C809.568,-272.6 746.432,-272.6 746.432,-272.6 740.432,-272.6 734.432,-266.6 734.432,-260.6 734.432,-260.6 734.432,-248.6 734.432,-248.6 734.432,-242.6 740.432,-236.6 746.432,-236.6 746.432,-236.6 809.568,-236.6 809.568,-236.6 815.568,-236.6 821.568,-242.6 821.568,-248.6 821.568,-248.6 821.568,-260.6 821.568,-260.6 821.568,-266.6 815.568,-272.6 809.568,-272.6"/>
<text text-anchor="middle" x="778" y="-250.4" font-family="Helvetica,sans-Serif" font-size="14.00">lat_variable</text>
</g>
<!-- fetch_SYNMAP_land_cover_map_variable&#45;&gt;lat_variable -->
<g id="edge2" class="edge"><title>fetch_SYNMAP_land_cover_map_variable&#45;&gt;lat_variable</title>
<path fill="none" stroke="black" d="M873.932,-308.476C857.173,-299.239 836.294,-287.731 818.298,-277.812"/>
<polygon fill="black" stroke="black" points="819.634,-274.552 809.187,-272.79 816.255,-280.682 819.634,-274.552"/>
</g>
<!-- lon_bnds_variable -->
<g id="node19" class="node"><title>lon_bnds_variable</title>
<path fill="#ffffcc" stroke="black" d="M957.59,-272.6C957.59,-272.6 852.41,-272.6 852.41,-272.6 846.41,-272.6 840.41,-266.6 840.41,-260.6 840.41,-260.6 840.41,-248.6 840.41,-248.6 840.41,-242.6 846.41,-236.6 852.41,-236.6 852.41,-236.6 957.59,-236.6 957.59,-236.6 963.59,-236.6 969.59,-242.6 969.59,-248.6 969.59,-248.6 969.59,-260.6 969.59,-260.6 969.59,-266.6 963.59,-272.6 957.59,-272.6"/>
<text text-anchor="middle" x="905" y="-250.4" font-family="Helvetica,sans-Serif" font-size="14.00">lon_bnds_variable</text>
</g>
<!-- fetch_SYNMAP_land_cover_map_variable&#45;&gt;lon_bnds_variable -->
<g id="edge3" class="edge"><title>fetch_SYNMAP_land_cover_map_variable&#45;&gt;lon_bnds_variable</title>
<path fill="none" stroke="black" d="M905,-308.297C905,-300.583 905,-291.312 905,-282.712"/>
<polygon fill="black" stroke="black" points="908.5,-282.704 905,-272.704 901.5,-282.704 908.5,-282.704"/>
</g>
<!-- lat_bnds_variable -->
<g id="node20" class="node"><title>lat_bnds_variable</title>
<path fill="#ffffcc" stroke="black" d="M1101.7,-272.6C1101.7,-272.6 1000.3,-272.6 1000.3,-272.6 994.303,-272.6 988.303,-266.6 988.303,-260.6 988.303,-260.6 988.303,-248.6 988.303,-248.6 988.303,-242.6 994.303,-236.6 1000.3,-236.6 1000.3,-236.6 1101.7,-236.6 1101.7,-236.6 1107.7,-236.6 1113.7,-242.6 1113.7,-248.6 1113.7,-248.6 1113.7,-260.6 1113.7,-260.6 1113.7,-266.6 1107.7,-272.6 1101.7,-272.6"/>
<text text-anchor="middle" x="1051" y="-250.4" font-family="Helvetica,sans-Serif" font-size="14.00">lat_bnds_variable</text>
</g>
<!-- fetch_SYNMAP_land_cover_map_variable&#45;&gt;lat_bnds_variable -->
<g id="edge4" class="edge"><title>fetch_SYNMAP_land_cover_map_variable&#45;&gt;lat_bnds_variable</title>
<path fill="none" stroke="black" d="M940.716,-308.476C960.497,-298.992 985.272,-287.113 1006.33,-277.019"/>
<polygon fill="black" stroke="black" points="1007.9,-280.148 1015.4,-272.668 1004.87,-273.836 1007.9,-280.148"/>
</g>
<!-- fetch_monthly_mean_air_temperature_data -->
<g id="node2" class="node"><title>fetch_monthly_mean_air_temperature_data</title>
<polygon fill="#ccffcc" stroke="black" points="1063.55,-503.2 720.454,-503.2 720.454,-467.2 1063.55,-467.2 1063.55,-503.2"/>
<text text-anchor="middle" x="892" y="-481" font-family="Courier,monospace" font-size="14.00">fetch_monthly_mean_air_temperature_data</text>
</g>
<!-- Tair_Matrix -->
<g id="node15" class="node"><title>Tair_Matrix</title>
<path fill="#ffffcc" stroke="black" d="M868.986,-423.9C868.986,-423.9 807.014,-423.9 807.014,-423.9 801.014,-423.9 795.014,-417.9 795.014,-411.9 795.014,-411.9 795.014,-399.9 795.014,-399.9 795.014,-393.9 801.014,-387.9 807.014,-387.9 807.014,-387.9 868.986,-387.9 868.986,-387.9 874.986,-387.9 880.986,-393.9 880.986,-399.9 880.986,-399.9 880.986,-411.9 880.986,-411.9 880.986,-417.9 874.986,-423.9 868.986,-423.9"/>
<text text-anchor="middle" x="838" y="-401.7" font-family="Helvetica,sans-Serif" font-size="14.00">Tair_Matrix</text>
</g>
<!-- fetch_monthly_mean_air_temperature_data&#45;&gt;Tair_Matrix -->
<g id="edge6" class="edge"><title>fetch_monthly_mean_air_temperature_data&#45;&gt;Tair_Matrix</title>
<path fill="none" stroke="black" d="M880.016,-467.045C872.885,-456.837 863.705,-443.696 855.745,-432.302"/>
<polygon fill="black" stroke="black" points="858.547,-430.201 849.951,-424.007 852.808,-434.21 858.547,-430.201"/>
</g>
<!-- fetch_monthly_mean_precipitation_data -->
<g id="node3" class="node"><title>fetch_monthly_mean_precipitation_data</title>
<polygon fill="#ccffcc" stroke="black" points="594.248,-503.2 267.752,-503.2 267.752,-467.2 594.248,-467.2 594.248,-503.2"/>
<text text-anchor="middle" x="431" y="-481" font-family="Courier,monospace" font-size="14.00">fetch_monthly_mean_precipitation_data</text>
</g>
<!-- Rain_Matrix -->
<g id="node16" class="node"><title>Rain_Matrix</title>
<path fill="#ffffcc" stroke="black" d="M538.163,-423.9C538.163,-423.9 471.837,-423.9 471.837,-423.9 465.837,-423.9 459.837,-417.9 459.837,-411.9 459.837,-411.9 459.837,-399.9 459.837,-399.9 459.837,-393.9 465.837,-387.9 471.837,-387.9 471.837,-387.9 538.163,-387.9 538.163,-387.9 544.163,-387.9 550.163,-393.9 550.163,-399.9 550.163,-399.9 550.163,-411.9 550.163,-411.9 550.163,-417.9 544.163,-423.9 538.163,-423.9"/>
<text text-anchor="middle" x="505" y="-401.7" font-family="Helvetica,sans-Serif" font-size="14.00">Rain_Matrix</text>
</g>
<!-- fetch_monthly_mean_precipitation_data&#45;&gt;Rain_Matrix -->
<g id="edge8" class="edge"><title>fetch_monthly_mean_precipitation_data&#45;&gt;Rain_Matrix</title>
<path fill="none" stroke="black" d="M447.423,-467.045C457.483,-456.536 470.518,-442.92 481.64,-431.301"/>
<polygon fill="black" stroke="black" points="484.236,-433.651 488.623,-424.007 479.179,-428.811 484.236,-433.651"/>
</g>
<!-- initialize_Grass_Matrix -->
<g id="node4" class="node"><title>initialize_Grass_Matrix</title>
<polygon fill="#ccffcc" stroke="black" points="1291.67,-344.6 1082.33,-344.6 1082.33,-308.6 1291.67,-308.6 1291.67,-344.6"/>
<text text-anchor="middle" x="1187" y="-322.4" font-family="Courier,monospace" font-size="14.00">initialize_Grass_Matrix</text>
</g>
<!-- Grass_variable -->
<g id="node23" class="node"><title>Grass_variable</title>
<path fill="#ffffcc" stroke="black" d="M1230.12,-272.6C1230.12,-272.6 1143.88,-272.6 1143.88,-272.6 1137.88,-272.6 1131.88,-266.6 1131.88,-260.6 1131.88,-260.6 1131.88,-248.6 1131.88,-248.6 1131.88,-242.6 1137.88,-236.6 1143.88,-236.6 1143.88,-236.6 1230.12,-236.6 1230.12,-236.6 1236.12,-236.6 1242.12,-242.6 1242.12,-248.6 1242.12,-248.6 1242.12,-260.6 1242.12,-260.6 1242.12,-266.6 1236.12,-272.6 1230.12,-272.6"/>
<text text-anchor="middle" x="1187" y="-250.4" font-family="Helvetica,sans-Serif" font-size="14.00">Grass_variable</text>
</g>
<!-- initialize_Grass_Matrix&#45;&gt;Grass_variable -->
<g id="edge10" class="edge"><title>initialize_Grass_Matrix&#45;&gt;Grass_variable</title>
<path fill="none" stroke="black" d="M1187,-308.297C1187,-300.583 1187,-291.312 1187,-282.712"/>
<polygon fill="black" stroke="black" points="1190.5,-282.704 1187,-272.704 1183.5,-282.704 1190.5,-282.704"/>
</g>
<!-- examine_pixels_for_grass -->
<g id="node5" class="node"><title>examine_pixels_for_grass</title>
<polygon fill="#ccffcc" stroke="black" points="632.567,-344.6 415.433,-344.6 415.433,-308.6 632.567,-308.6 632.567,-344.6"/>
<text text-anchor="middle" x="524" y="-322.4" font-family="Courier,monospace" font-size="14.00">examine_pixels_for_grass</text>
</g>
<!-- C3_Data -->
<g id="node21" class="node"><title>C3_Data</title>
<path fill="#ffffcc" stroke="black" d="M475.735,-272.6C475.735,-272.6 428.265,-272.6 428.265,-272.6 422.265,-272.6 416.265,-266.6 416.265,-260.6 416.265,-260.6 416.265,-248.6 416.265,-248.6 416.265,-242.6 422.265,-236.6 428.265,-236.6 428.265,-236.6 475.735,-236.6 475.735,-236.6 481.735,-236.6 487.735,-242.6 487.735,-248.6 487.735,-248.6 487.735,-260.6 487.735,-260.6 487.735,-266.6 481.735,-272.6 475.735,-272.6"/>
<text text-anchor="middle" x="452" y="-250.4" font-family="Helvetica,sans-Serif" font-size="14.00">C3_Data</text>
</g>
<!-- examine_pixels_for_grass&#45;&gt;C3_Data -->
<g id="edge11" class="edge"><title>examine_pixels_for_grass&#45;&gt;C3_Data</title>
<path fill="none" stroke="black" d="M506.202,-308.297C497.396,-299.735 486.618,-289.256 476.999,-279.904"/>
<polygon fill="black" stroke="black" points="479.203,-277.166 469.593,-272.704 474.323,-282.185 479.203,-277.166"/>
</g>
<!-- C4_Data -->
<g id="node22" class="node"><title>C4_Data</title>
<path fill="#ffffcc" stroke="black" d="M584.735,-272.6C584.735,-272.6 537.265,-272.6 537.265,-272.6 531.265,-272.6 525.265,-266.6 525.265,-260.6 525.265,-260.6 525.265,-248.6 525.265,-248.6 525.265,-242.6 531.265,-236.6 537.265,-236.6 537.265,-236.6 584.735,-236.6 584.735,-236.6 590.735,-236.6 596.735,-242.6 596.735,-248.6 596.735,-248.6 596.735,-260.6 596.735,-260.6 596.735,-266.6 590.735,-272.6 584.735,-272.6"/>
<text text-anchor="middle" x="561" y="-250.4" font-family="Helvetica,sans-Serif" font-size="14.00">C4_Data</text>
</g>
<!-- examine_pixels_for_grass&#45;&gt;C4_Data -->
<g id="edge12" class="edge"><title>examine_pixels_for_grass&#45;&gt;C4_Data</title>
<path fill="none" stroke="black" d="M533.146,-308.297C537.403,-300.244 542.556,-290.494 547.266,-281.582"/>
<polygon fill="black" stroke="black" points="550.38,-283.181 551.959,-272.704 544.192,-279.91 550.38,-283.181"/>
</g>
<!-- generate_netcdf_file_for_C3_fraction -->
<g id="node6" class="node"><title>generate_netcdf_file_for_C3_fraction</title>
<polygon fill="#ccffcc" stroke="black" points="606.35,-200.6 287.65,-200.6 287.65,-164.6 606.35,-164.6 606.35,-200.6"/>
<text text-anchor="middle" x="447" y="-178.4" font-family="Courier,monospace" font-size="14.00">generate_netcdf_file_for_C3_fraction</text>
</g>
<!-- C3_fraction_data -->
<g id="node9" class="node"><title>C3_fraction_data</title>
<path fill="#ffffcc" stroke="black" d="M36.0744,-78.5C36.0744,-78.5 469.926,-78.5 469.926,-78.5 475.926,-78.5 481.926,-84.5 481.926,-90.5 481.926,-90.5 481.926,-116.1 481.926,-116.1 481.926,-122.1 475.926,-128.1 469.926,-128.1 469.926,-128.1 36.0744,-128.1 36.0744,-128.1 30.0744,-128.1 24.0744,-122.1 24.0744,-116.1 24.0744,-116.1 24.0744,-90.5 24.0744,-90.5 24.0744,-84.5 30.0744,-78.5 36.0744,-78.5"/>
<text text-anchor="middle" x="253" y="-111.5" font-family="Helvetica,sans-Serif" font-size="14.00">C3_fraction_data</text>
<polyline fill="none" stroke="black" points="24.0744,-103.3 481.926,-103.3 "/>
<text text-anchor="middle" x="253" y="-86.7" font-family="Helvetica,sans-Serif" font-size="14.00">file:outputs/SYNMAP_PRESENTVEG_C3Grass_RelaFrac_NA_v2.0.nc</text>
</g>
<!-- generate_netcdf_file_for_C3_fraction&#45;&gt;C3_fraction_data -->
<g id="edge15" class="edge"><title>generate_netcdf_file_for_C3_fraction&#45;&gt;C3_fraction_data</title>
<path fill="none" stroke="black" d="M403.945,-164.445C379.98,-154.896 349.573,-142.78 322.34,-131.929"/>
<polygon fill="black" stroke="black" points="323.441,-128.6 312.856,-128.15 320.85,-135.103 323.441,-128.6"/>
</g>
<!-- generate_netcdf_file_for_C4_fraction -->
<g id="node7" class="node"><title>generate_netcdf_file_for_C4_fraction</title>
<polygon fill="#ccffcc" stroke="black" points="942.35,-200.6 623.65,-200.6 623.65,-164.6 942.35,-164.6 942.35,-200.6"/>
<text text-anchor="middle" x="783" y="-178.4" font-family="Courier,monospace" font-size="14.00">generate_netcdf_file_for_C4_fraction</text>
</g>
<!-- C4_fraction_data -->
<g id="node10" class="node"><title>C4_fraction_data</title>
<path fill="#ffffcc" stroke="black" d="M512.074,-78.5C512.074,-78.5 945.926,-78.5 945.926,-78.5 951.926,-78.5 957.926,-84.5 957.926,-90.5 957.926,-90.5 957.926,-116.1 957.926,-116.1 957.926,-122.1 951.926,-128.1 945.926,-128.1 945.926,-128.1 512.074,-128.1 512.074,-128.1 506.074,-128.1 500.074,-122.1 500.074,-116.1 500.074,-116.1 500.074,-90.5 500.074,-90.5 500.074,-84.5 506.074,-78.5 512.074,-78.5"/>
<text text-anchor="middle" x="729" y="-111.5" font-family="Helvetica,sans-Serif" font-size="14.00">C4_fraction_data</text>
<polyline fill="none" stroke="black" points="500.074,-103.3 957.926,-103.3 "/>
<text text-anchor="middle" x="729" y="-86.7" font-family="Helvetica,sans-Serif" font-size="14.00">file:outputs/SYNMAP_PRESENTVEG_C4Grass_RelaFrac_NA_v2.0.nc</text>
</g>
<!-- generate_netcdf_file_for_C4_fraction&#45;&gt;C4_fraction_data -->
<g id="edge21" class="edge"><title>generate_netcdf_file_for_C4_fraction&#45;&gt;C4_fraction_data</title>
<path fill="none" stroke="black" d="M771.016,-164.445C765.248,-156.188 758.14,-146.013 751.421,-136.396"/>
<polygon fill="black" stroke="black" points="754.257,-134.343 745.661,-128.15 748.518,-138.352 754.257,-134.343"/>
</g>
<!-- generate_netcdf_file_for_Grass_fraction -->
<g id="node8" class="node"><title>generate_netcdf_file_for_Grass_fraction</title>
<polygon fill="#ccffcc" stroke="black" points="1303.55,-200.6 960.454,-200.6 960.454,-164.6 1303.55,-164.6 1303.55,-200.6"/>
<text text-anchor="middle" x="1132" y="-178.4" font-family="Courier,monospace" font-size="14.00">generate_netcdf_file_for_Grass_fraction</text>
</g>
<!-- Grass_fraction_data -->
<g id="node11" class="node"><title>Grass_fraction_data</title>
<path fill="#ffffcc" stroke="black" d="M988.127,-78.5C988.127,-78.5 1397.87,-78.5 1397.87,-78.5 1403.87,-78.5 1409.87,-84.5 1409.87,-90.5 1409.87,-90.5 1409.87,-116.1 1409.87,-116.1 1409.87,-122.1 1403.87,-128.1 1397.87,-128.1 1397.87,-128.1 988.127,-128.1 988.127,-128.1 982.127,-128.1 976.127,-122.1 976.127,-116.1 976.127,-116.1 976.127,-90.5 976.127,-90.5 976.127,-84.5 982.127,-78.5 988.127,-78.5"/>
<text text-anchor="middle" x="1193" y="-111.5" font-family="Helvetica,sans-Serif" font-size="14.00">Grass_fraction_data</text>
<polyline fill="none" stroke="black" points="976.127,-103.3 1409.87,-103.3 "/>
<text text-anchor="middle" x="1193" y="-86.7" font-family="Helvetica,sans-Serif" font-size="14.00">file:outputs/SYNMAP_PRESENTVEG_Grass_Fraction_NA_v2.0.nc</text>
</g>
<!-- generate_netcdf_file_for_Grass_fraction&#45;&gt;Grass_fraction_data -->
<g id="edge27" class="edge"><title>generate_netcdf_file_for_Grass_fraction&#45;&gt;Grass_fraction_data</title>
<path fill="none" stroke="black" d="M1145.54,-164.445C1152.12,-156.105 1160.25,-145.807 1167.9,-136.104"/>
<polygon fill="black" stroke="black" points="1170.73,-138.168 1174.18,-128.15 1165.24,-133.832 1170.73,-138.168"/>
</g>
<!-- C3_fraction_data_output_port -->
<g id="node27" class="node"><title>C3_fraction_data_output_port</title>
<ellipse fill="#ffffff" stroke="black" cx="697" cy="-31" rx="7" ry="7"/>
</g>
<!-- C3_fraction_data&#45;&gt;C3_fraction_data_output_port -->
<g id="edge36" class="edge"><title>C3_fraction_data&#45;&gt;C3_fraction_data_output_port</title>
<path fill="none" stroke="black" d="M390.406,-78.4769C423.334,-72.9218 458.399,-67.1332 491,-62 561.245,-50.9394 645.2,-39.1591 680.296,-34.2992"/>
<polygon fill="black" stroke="black" points="680.807,-37.762 690.234,-32.9274 679.849,-30.8277 680.807,-37.762"/>
</g>
<!-- C4_fraction_data_output_port -->
<g id="node28" class="node"><title>C4_fraction_data_output_port</title>
<ellipse fill="#ffffff" stroke="black" cx="729" cy="-31" rx="7" ry="7"/>
</g>
<!-- C4_fraction_data&#45;&gt;C4_fraction_data_output_port -->
<g id="edge37" class="edge"><title>C4_fraction_data&#45;&gt;C4_fraction_data_output_port</title>
<path fill="none" stroke="black" d="M729,-78.4996C729,-68.5289 729,-57.1933 729,-48.2105"/>
<polygon fill="black" stroke="black" points="732.5,-48.0698 729,-38.0698 725.5,-48.0699 732.5,-48.0698"/>
</g>
<!-- Grass_fraction_data_output_port -->
<g id="node29" class="node"><title>Grass_fraction_data_output_port</title>
<ellipse fill="#ffffff" stroke="black" cx="761" cy="-31" rx="7" ry="7"/>
</g>
<!-- Grass_fraction_data&#45;&gt;Grass_fraction_data_output_port -->
<g id="edge38" class="edge"><title>Grass_fraction_data&#45;&gt;Grass_fraction_data_output_port</title>
<path fill="none" stroke="black" d="M1063.45,-78.4683C1031.92,-72.8704 998.277,-67.0648 967,-62 896.804,-50.633 812.822,-39.0173 777.712,-34.25"/>
<polygon fill="black" stroke="black" points="778.148,-30.7771 767.769,-32.906 777.21,-37.7141 778.148,-30.7771"/>
</g>
<!-- SYNMAP_land_cover_map_data -->
<g id="node12" class="node"><title>SYNMAP_land_cover_map_data</title>
<path fill="#ffffcc" stroke="black" d="M928.309,-381.1C928.309,-381.1 1167.69,-381.1 1167.69,-381.1 1173.69,-381.1 1179.69,-387.1 1179.69,-393.1 1179.69,-393.1 1179.69,-418.7 1179.69,-418.7 1179.69,-424.7 1173.69,-430.7 1167.69,-430.7 1167.69,-430.7 928.309,-430.7 928.309,-430.7 922.309,-430.7 916.309,-424.7 916.309,-418.7 916.309,-418.7 916.309,-393.1 916.309,-393.1 916.309,-387.1 922.309,-381.1 928.309,-381.1"/>
<text text-anchor="middle" x="1048" y="-414.1" font-family="Helvetica,sans-Serif" font-size="14.00">SYNMAP_land_cover_map_data</text>
<polyline fill="none" stroke="black" points="916.309,-405.9 1179.69,-405.9 "/>
<text text-anchor="middle" x="1048" y="-389.3" font-family="Helvetica,sans-Serif" font-size="14.00">inputs/land_cover/SYNMAP_NA_QD.nc</text>
</g>
<!-- SYNMAP_land_cover_map_data&#45;&gt;fetch_SYNMAP_land_cover_map_variable -->
<g id="edge5" class="edge"><title>SYNMAP_land_cover_map_data&#45;&gt;fetch_SYNMAP_land_cover_map_variable</title>
<path fill="none" stroke="black" d="M1003.93,-381.077C985.254,-370.982 963.638,-359.297 945.384,-349.43"/>
<polygon fill="black" stroke="black" points="946.911,-346.277 936.45,-344.6 943.582,-352.435 946.911,-346.277"/>
</g>
<!-- mean_airtemp -->
<g id="node13" class="node"><title>mean_airtemp</title>
<path fill="#ffffcc" stroke="black" d="M672.314,-539.7C672.314,-539.7 1223.69,-539.7 1223.69,-539.7 1229.69,-539.7 1235.69,-545.7 1235.69,-551.7 1235.69,-551.7 1235.69,-577.3 1235.69,-577.3 1235.69,-583.3 1229.69,-589.3 1223.69,-589.3 1223.69,-589.3 672.314,-589.3 672.314,-589.3 666.314,-589.3 660.314,-583.3 660.314,-577.3 660.314,-577.3 660.314,-551.7 660.314,-551.7 660.314,-545.7 666.314,-539.7 672.314,-539.7"/>
<text text-anchor="middle" x="948" y="-572.7" font-family="Helvetica,sans-Serif" font-size="14.00">mean_airtemp</text>
<polyline fill="none" stroke="black" points="660.314,-564.5 1235.69,-564.5 "/>
<text text-anchor="middle" x="948" y="-547.9" font-family="Helvetica,sans-Serif" font-size="14.00">file:inputs/narr_air.2m_monthly/air.2m_monthly_{start_year}_{end_year}_mean.{month}.nc</text>
</g>
<!-- mean_airtemp&#45;&gt;fetch_monthly_mean_air_temperature_data -->
<g id="edge7" class="edge"><title>mean_airtemp&#45;&gt;fetch_monthly_mean_air_temperature_data</title>
<path fill="none" stroke="black" d="M930.588,-539.466C924.165,-530.599 916.869,-520.529 910.364,-511.549"/>
<polygon fill="black" stroke="black" points="913.125,-509.394 904.424,-503.349 907.456,-513.501 913.125,-509.394"/>
</g>
<!-- mean_precip -->
<g id="node14" class="node"><title>mean_precip</title>
<path fill="#ffffcc" stroke="black" d="M35.51,-539.7C35.51,-539.7 630.49,-539.7 630.49,-539.7 636.49,-539.7 642.49,-545.7 642.49,-551.7 642.49,-551.7 642.49,-577.3 642.49,-577.3 642.49,-583.3 636.49,-589.3 630.49,-589.3 630.49,-589.3 35.51,-589.3 35.51,-589.3 29.51,-589.3 23.51,-583.3 23.51,-577.3 23.51,-577.3 23.51,-551.7 23.51,-551.7 23.51,-545.7 29.51,-539.7 35.51,-539.7"/>
<text text-anchor="middle" x="333" y="-572.7" font-family="Helvetica,sans-Serif" font-size="14.00">mean_precip</text>
<polyline fill="none" stroke="black" points="23.51,-564.5 642.49,-564.5 "/>
<text text-anchor="middle" x="333" y="-547.9" font-family="Helvetica,sans-Serif" font-size="14.00">file:inputs/narr_apcp_rescaled_monthly/apcp_monthly_{start_year}_{end_year}_mean.{month}.nc</text>
</g>
<!-- mean_precip&#45;&gt;fetch_monthly_mean_precipitation_data -->
<g id="edge9" class="edge"><title>mean_precip&#45;&gt;fetch_monthly_mean_precipitation_data</title>
<path fill="none" stroke="black" d="M363.203,-539.677C375.358,-530.089 389.331,-519.067 401.423,-509.53"/>
<polygon fill="black" stroke="black" points="403.763,-512.142 409.447,-503.2 399.428,-506.645 403.763,-512.142"/>
</g>
<!-- Tair_Matrix&#45;&gt;examine_pixels_for_grass -->
<g id="edge13" class="edge"><title>Tair_Matrix&#45;&gt;examine_pixels_for_grass</title>
<path fill="none" stroke="black" d="M794.998,-394.314C745.755,-382.191 664.05,-362.077 603.205,-347.099"/>
<polygon fill="black" stroke="black" points="603.793,-343.639 593.246,-344.647 602.12,-350.436 603.793,-343.639"/>
</g>
<!-- Rain_Matrix&#45;&gt;examine_pixels_for_grass -->
<g id="edge14" class="edge"><title>Rain_Matrix&#45;&gt;examine_pixels_for_grass</title>
<path fill="none" stroke="black" d="M509.217,-387.745C511.603,-378.037 514.641,-365.677 517.341,-354.69"/>
<polygon fill="black" stroke="black" points="520.807,-355.254 519.795,-344.707 514.009,-353.583 520.807,-355.254"/>
</g>
<!-- lon_variable&#45;&gt;generate_netcdf_file_for_C3_fraction -->
<g id="edge16" class="edge"><title>lon_variable&#45;&gt;generate_netcdf_file_for_C3_fraction</title>
<path fill="none" stroke="black" d="M624.065,-239.181C591.549,-228.974 547.496,-215.146 511.466,-203.836"/>
<polygon fill="black" stroke="black" points="512.122,-200.373 501.532,-200.718 510.025,-207.052 512.122,-200.373"/>
</g>
<!-- lon_variable&#45;&gt;generate_netcdf_file_for_C4_fraction -->
<g id="edge22" class="edge"><title>lon_variable&#45;&gt;generate_netcdf_file_for_C4_fraction</title>
<path fill="none" stroke="black" d="M697.643,-236.476C712.418,-227.324 730.791,-215.942 746.703,-206.085"/>
<polygon fill="black" stroke="black" points="748.593,-209.031 755.251,-200.79 744.907,-203.081 748.593,-209.031"/>
</g>
<!-- lon_variable&#45;&gt;generate_netcdf_file_for_Grass_fraction -->
<g id="edge28" class="edge"><title>lon_variable&#45;&gt;generate_netcdf_file_for_Grass_fraction</title>
<path fill="none" stroke="black" d="M715.761,-238.817C718.872,-238.009 721.973,-237.26 725,-236.6 770.972,-226.578 877.825,-212.792 970.511,-201.792"/>
<polygon fill="black" stroke="black" points="971.063,-205.251 980.582,-200.601 970.241,-198.3 971.063,-205.251"/>
</g>
<!-- lat_variable&#45;&gt;generate_netcdf_file_for_C3_fraction -->
<g id="edge17" class="edge"><title>lat_variable&#45;&gt;generate_netcdf_file_for_C3_fraction</title>
<path fill="none" stroke="black" d="M734.16,-239.083C731.072,-238.201 727.997,-237.363 725,-236.6 672.105,-223.128 612.765,-211.368 562.535,-202.37"/>
<polygon fill="black" stroke="black" points="563.074,-198.911 552.616,-200.608 561.849,-205.803 563.074,-198.911"/>
</g>
<!-- lat_variable&#45;&gt;generate_netcdf_file_for_C4_fraction -->
<g id="edge23" class="edge"><title>lat_variable&#45;&gt;generate_netcdf_file_for_C4_fraction</title>
<path fill="none" stroke="black" d="M779.236,-236.297C779.787,-228.583 780.449,-219.312 781.063,-210.712"/>
<polygon fill="black" stroke="black" points="784.557,-210.928 781.778,-200.704 777.575,-210.43 784.557,-210.928"/>
</g>
<!-- lat_variable&#45;&gt;generate_netcdf_file_for_Grass_fraction -->
<g id="edge29" class="edge"><title>lat_variable&#45;&gt;generate_netcdf_file_for_Grass_fraction</title>
<path fill="none" stroke="black" d="M821.828,-239.035C824.919,-238.164 827.998,-237.342 831,-236.6 887.13,-222.725 950.012,-211.059 1003.73,-202.236"/>
<polygon fill="black" stroke="black" points="1004.34,-205.682 1013.65,-200.621 1003.21,-198.773 1004.34,-205.682"/>
</g>
<!-- lon_bnds_variable&#45;&gt;generate_netcdf_file_for_C3_fraction -->
<g id="edge18" class="edge"><title>lon_bnds_variable&#45;&gt;generate_netcdf_file_for_C3_fraction</title>
<path fill="none" stroke="black" d="M840.095,-238.347C837.026,-237.733 833.982,-237.147 831,-236.6 756.395,-222.91 673.051,-211.001 603.123,-201.959"/>
<polygon fill="black" stroke="black" points="603.27,-198.449 592.906,-200.646 602.378,-205.392 603.27,-198.449"/>
</g>
<!-- lon_bnds_variable&#45;&gt;generate_netcdf_file_for_C4_fraction -->
<g id="edge24" class="edge"><title>lon_bnds_variable&#45;&gt;generate_netcdf_file_for_C4_fraction</title>
<path fill="none" stroke="black" d="M875.155,-236.476C859.056,-227.239 838.999,-215.731 821.712,-205.812"/>
<polygon fill="black" stroke="black" points="823.375,-202.731 812.959,-200.79 819.891,-208.802 823.375,-202.731"/>
</g>
<!-- lon_bnds_variable&#45;&gt;generate_netcdf_file_for_Grass_fraction -->
<g id="edge30" class="edge"><title>lon_bnds_variable&#45;&gt;generate_netcdf_file_for_Grass_fraction</title>
<path fill="none" stroke="black" d="M960.24,-236.566C992.371,-226.657 1033.05,-214.114 1066.75,-203.721"/>
<polygon fill="black" stroke="black" points="1067.99,-207.002 1076.51,-200.711 1065.92,-200.313 1067.99,-207.002"/>
</g>
<!-- lat_bnds_variable&#45;&gt;generate_netcdf_file_for_C3_fraction -->
<g id="edge19" class="edge"><title>lat_bnds_variable&#45;&gt;generate_netcdf_file_for_C3_fraction</title>
<path fill="none" stroke="black" d="M988.271,-238.269C985.144,-237.668 982.041,-237.107 979,-236.6 821.935,-210.411 778.527,-216.514 616.923,-200.778"/>
<polygon fill="black" stroke="black" points="616.911,-197.26 606.615,-199.76 616.223,-204.226 616.911,-197.26"/>
</g>
<!-- lat_bnds_variable&#45;&gt;generate_netcdf_file_for_C4_fraction -->
<g id="edge25" class="edge"><title>lat_bnds_variable&#45;&gt;generate_netcdf_file_for_C4_fraction</title>
<path fill="none" stroke="black" d="M988.166,-237.188C949.207,-227.012 898.943,-213.884 857.917,-203.168"/>
<polygon fill="black" stroke="black" points="858.799,-199.781 848.239,-200.64 857.03,-206.554 858.799,-199.781"/>
</g>
<!-- lat_bnds_variable&#45;&gt;generate_netcdf_file_for_Grass_fraction -->
<g id="edge31" class="edge"><title>lat_bnds_variable&#45;&gt;generate_netcdf_file_for_Grass_fraction</title>
<path fill="none" stroke="black" d="M1071.02,-236.297C1081.13,-227.565 1093.54,-216.84 1104.52,-207.35"/>
<polygon fill="black" stroke="black" points="1106.93,-209.891 1112.21,-200.704 1102.35,-204.595 1106.93,-209.891"/>
</g>
<!-- C3_Data&#45;&gt;generate_netcdf_file_for_C3_fraction -->
<g id="edge20" class="edge"><title>C3_Data&#45;&gt;generate_netcdf_file_for_C3_fraction</title>
<path fill="none" stroke="black" d="M450.764,-236.297C450.213,-228.583 449.551,-219.312 448.937,-210.712"/>
<polygon fill="black" stroke="black" points="452.425,-210.43 448.222,-200.704 445.443,-210.928 452.425,-210.43"/>
</g>
<!-- C4_Data&#45;&gt;generate_netcdf_file_for_C4_fraction -->
<g id="edge26" class="edge"><title>C4_Data&#45;&gt;generate_netcdf_file_for_C4_fraction</title>
<path fill="none" stroke="black" d="M596.668,-242.353C629.618,-231.964 679.337,-216.286 719.131,-203.739"/>
<polygon fill="black" stroke="black" points="720.272,-207.049 728.757,-200.704 718.167,-200.373 720.272,-207.049"/>
</g>
<!-- Grass_variable&#45;&gt;generate_netcdf_file_for_Grass_fraction -->
<g id="edge32" class="edge"><title>Grass_variable&#45;&gt;generate_netcdf_file_for_Grass_fraction</title>
<path fill="none" stroke="black" d="M1173.4,-236.297C1166.88,-227.989 1158.93,-217.877 1151.75,-208.741"/>
<polygon fill="black" stroke="black" points="1154.37,-206.405 1145.44,-200.704 1148.87,-210.73 1154.37,-206.405"/>
</g>
<!-- SYNMAP_land_cover_map_data_input_port -->
<g id="node24" class="node"><title>SYNMAP_land_cover_map_data_input_port</title>
<ellipse fill="#ffffff" stroke="black" cx="980" cy="-636.8" rx="7" ry="7"/>
</g>
<!-- SYNMAP_land_cover_map_data_input_port&#45;&gt;SYNMAP_land_cover_map_data -->
<g id="edge33" class="edge"><title>SYNMAP_land_cover_map_data_input_port&#45;&gt;SYNMAP_land_cover_map_data</title>
<path fill="none" stroke="black" d="M987.096,-635.549C1027.49,-634.049 1227.27,-625.656 1245,-605.8 1301.55,-542.492 1189.25,-472.99 1112.17,-435.211"/>
<polygon fill="black" stroke="black" points="1113.48,-431.96 1102.95,-430.764 1110.44,-438.264 1113.48,-431.96"/>
</g>
<!-- mean_airtemp_input_port -->
<g id="node25" class="node"><title>mean_airtemp_input_port</title>
<ellipse fill="#ffffff" stroke="black" cx="948" cy="-636.8" rx="7" ry="7"/>
</g>
<!-- mean_airtemp_input_port&#45;&gt;mean_airtemp -->
<g id="edge34" class="edge"><title>mean_airtemp_input_port&#45;&gt;mean_airtemp</title>
<path fill="none" stroke="black" d="M948,-629.312C948,-622.442 948,-611.051 948,-599.78"/>
<polygon fill="black" stroke="black" points="951.5,-599.595 948,-589.595 944.5,-599.595 951.5,-599.595"/>
</g>
<!-- mean_precip_input_port -->
<g id="node26" class="node"><title>mean_precip_input_port</title>
<ellipse fill="#ffffff" stroke="black" cx="916" cy="-636.8" rx="7" ry="7"/>
</g>
<!-- mean_precip_input_port&#45;&gt;mean_precip -->
<g id="edge35" class="edge"><title>mean_precip_input_port&#45;&gt;mean_precip</title>
<path fill="none" stroke="black" d="M909.035,-635.046C878.513,-631.735 753.516,-618.098 651,-605.8 611.057,-601.008 568.316,-595.709 527.541,-590.572"/>
<polygon fill="black" stroke="black" points="527.857,-587.084 517.498,-589.304 526.981,-594.029 527.857,-587.084"/>
</g>
</g>
</svg>
