<?xml version="1.0" encoding="UTF-8" standalone="no"?>
<!DOCTYPE svg PUBLIC "-//W3C//DTD SVG 1.1//EN"
 "http://www.w3.org/Graphics/SVG/1.1/DTD/svg11.dtd">
<!-- Generated by graphviz version 2.38.0 (20140413.2041)
 -->
<!-- Title: yw_data_view Pages: 1 -->
<svg width="710pt" height="662pt"
 viewBox="0.00 0.00 710.00 661.60" xmlns="http://www.w3.org/2000/svg" xmlns:xlink="http://www.w3.org/1999/xlink">
<g id="graph0" class="graph" transform="scale(1 1) rotate(0) translate(4 657.6)">
<title>yw_data_view</title>
<polygon fill="white" stroke="none" points="-4,4 -4,-657.6 706,-657.6 706,4 -4,4"/>
<text text-anchor="middle" x="351" y="-633.4" font-family="Courier,monospace" font-size="18.00">C3_C4_map_present_NA</text>
<g id="clust1" class="cluster"><title>cluster_workflow</title>
<polygon fill="none" stroke="black" stroke-width="2" points="8,-62 8,-562 694,-562 694,-62 8,-62"/>
</g>
<g id="clust2" class="cluster"><title>cluster_workflow_inner</title>
<polygon fill="none" stroke="white" stroke-width="2" points="16,-70 16,-554 686,-554 686,-70 16,-70"/>
</g>
<g id="clust3" class="cluster"><title>cluster_inflows</title>
<polygon fill="none" stroke="white" stroke-width="2" points="211,-570 211,-616 257,-616 257,-570 211,-570"/>
</g>
<g id="clust4" class="cluster"><title>cluster_inflows_inner</title>
<polygon fill="none" stroke="white" stroke-width="2" points="219,-578 219,-608 249,-608 249,-578 219,-578"/>
</g>
<g id="clust5" class="cluster"><title>cluster_outflows</title>
<polygon fill="none" stroke="white" stroke-width="2" points="312,-8 312,-54 390,-54 390,-8 312,-8"/>
</g>
<g id="clust6" class="cluster"><title>cluster_outflows_inner</title>
<polygon fill="none" stroke="white" stroke-width="2" points="320,-16 320,-46 382,-46 382,-16 320,-16"/>
</g>
<!-- examine_pixels_for_grass -->
<g id="node1" class="node"><title>examine_pixels_for_grass</title>
<polygon fill="#ccffcc" stroke="black" points="342.567,-330 125.433,-330 125.433,-294 342.567,-294 342.567,-330"/>
<text text-anchor="middle" x="234" y="-307.8" font-family="Courier,monospace" font-size="14.00">examine_pixels_for_grass</text>
</g>
<!-- C3_Data -->
<g id="node7" class="node"><title>C3_Data</title>
<path fill="#ffffcc" stroke="black" d="M231.735,-258C231.735,-258 184.265,-258 184.265,-258 178.265,-258 172.265,-252 172.265,-246 172.265,-246 172.265,-234 172.265,-234 172.265,-228 178.265,-222 184.265,-222 184.265,-222 231.735,-222 231.735,-222 237.735,-222 243.735,-228 243.735,-234 243.735,-234 243.735,-246 243.735,-246 243.735,-252 237.735,-258 231.735,-258"/>
<text text-anchor="middle" x="208" y="-235.8" font-family="Helvetica,sans-Serif" font-size="14.00">C3_Data</text>
</g>
<!-- examine_pixels_for_grass&#45;&gt;C3_Data -->
<g id="edge4" class="edge"><title>examine_pixels_for_grass&#45;&gt;C3_Data</title>
<path fill="none" stroke="black" d="M227.573,-293.697C224.645,-285.813 221.113,-276.304 217.86,-267.546"/>
<polygon fill="black" stroke="black" points="221.116,-266.26 214.353,-258.104 214.554,-268.697 221.116,-266.26"/>
</g>
<!-- C4_Data -->
<g id="node8" class="node"><title>C4_Data</title>
<path fill="#ffffcc" stroke="black" d="M443.735,-258C443.735,-258 396.265,-258 396.265,-258 390.265,-258 384.265,-252 384.265,-246 384.265,-246 384.265,-234 384.265,-234 384.265,-228 390.265,-222 396.265,-222 396.265,-222 443.735,-222 443.735,-222 449.735,-222 455.735,-228 455.735,-234 455.735,-234 455.735,-246 455.735,-246 455.735,-252 449.735,-258 443.735,-258"/>
<text text-anchor="middle" x="420" y="-235.8" font-family="Helvetica,sans-Serif" font-size="14.00">C4_Data</text>
</g>
<!-- examine_pixels_for_grass&#45;&gt;C4_Data -->
<g id="edge3" class="edge"><title>examine_pixels_for_grass&#45;&gt;C4_Data</title>
<path fill="none" stroke="black" d="M279.501,-293.876C308.489,-282.967 345.892,-268.89 374.818,-258.004"/>
<polygon fill="black" stroke="black" points="376.152,-261.242 384.278,-254.444 373.686,-254.69 376.152,-261.242"/>
</g>
<!-- generate_netcdf_file_for_C3_fraction -->
<g id="node2" class="node"><title>generate_netcdf_file_for_C3_fraction</title>
<polygon fill="#ccffcc" stroke="black" points="342.35,-186 23.6502,-186 23.6502,-150 342.35,-150 342.35,-186"/>
<text text-anchor="middle" x="183" y="-163.8" font-family="Courier,monospace" font-size="14.00">generate_netcdf_file_for_C3_fraction</text>
</g>
<!-- C3_fraction_data -->
<g id="node9" class="node"><title>C3_fraction_data</title>
<path fill="#ffffcc" stroke="black" d="M281.09,-114C281.09,-114 182.91,-114 182.91,-114 176.91,-114 170.91,-108 170.91,-102 170.91,-102 170.91,-90 170.91,-90 170.91,-84 176.91,-78 182.91,-78 182.91,-78 281.09,-78 281.09,-78 287.09,-78 293.09,-84 293.09,-90 293.09,-90 293.09,-102 293.09,-102 293.09,-108 287.09,-114 281.09,-114"/>
<text text-anchor="middle" x="232" y="-91.8" font-family="Helvetica,sans-Serif" font-size="14.00">C3_fraction_data</text>
</g>
<!-- generate_netcdf_file_for_C3_fraction&#45;&gt;C3_fraction_data -->
<g id="edge2" class="edge"><title>generate_netcdf_file_for_C3_fraction&#45;&gt;C3_fraction_data</title>
<path fill="none" stroke="black" d="M195.112,-149.697C200.868,-141.474 207.862,-131.483 214.206,-122.421"/>
<polygon fill="black" stroke="black" points="217.16,-124.304 220.027,-114.104 211.425,-120.29 217.16,-124.304"/>
</g>
<!-- generate_netcdf_file_for_C4_fraction -->
<g id="node3" class="node"><title>generate_netcdf_file_for_C4_fraction</title>
<polygon fill="#ccffcc" stroke="black" points="678.35,-186 359.65,-186 359.65,-150 678.35,-150 678.35,-186"/>
<text text-anchor="middle" x="519" y="-163.8" font-family="Courier,monospace" font-size="14.00">generate_netcdf_file_for_C4_fraction</text>
</g>
<!-- C4_fraction_data -->
<g id="node10" class="node"><title>C4_fraction_data</title>
<path fill="#ffffcc" stroke="black" d="M519.09,-114C519.09,-114 420.91,-114 420.91,-114 414.91,-114 408.91,-108 408.91,-102 408.91,-102 408.91,-90 408.91,-90 408.91,-84 414.91,-78 420.91,-78 420.91,-78 519.09,-78 519.09,-78 525.09,-78 531.09,-84 531.09,-90 531.09,-90 531.09,-102 531.09,-102 531.09,-108 525.09,-114 519.09,-114"/>
<text text-anchor="middle" x="470" y="-91.8" font-family="Helvetica,sans-Serif" font-size="14.00">C4_fraction_data</text>
</g>
<!-- generate_netcdf_file_for_C4_fraction&#45;&gt;C4_fraction_data -->
<g id="edge1" class="edge"><title>generate_netcdf_file_for_C4_fraction&#45;&gt;C4_fraction_data</title>
<path fill="none" stroke="black" d="M506.888,-149.697C501.132,-141.474 494.138,-131.483 487.794,-122.421"/>
<polygon fill="black" stroke="black" points="490.575,-120.29 481.973,-114.104 484.84,-124.304 490.575,-120.29"/>
</g>
<!-- fetch_monthly_mean_air_temperature_data -->
<g id="node4" class="node"><title>fetch_monthly_mean_air_temperature_data</title>
<polygon fill="#ccffcc" stroke="black" points="405.546,-474 62.4543,-474 62.4543,-438 405.546,-438 405.546,-474"/>
<text text-anchor="middle" x="234" y="-451.8" font-family="Courier,monospace" font-size="14.00">fetch_monthly_mean_air_temperature_data</text>
</g>
<!-- Tair_Matrix -->
<g id="node6" class="node"><title>Tair_Matrix</title>
<path fill="#ffffcc" stroke="black" d="M264.986,-402C264.986,-402 203.014,-402 203.014,-402 197.014,-402 191.014,-396 191.014,-390 191.014,-390 191.014,-378 191.014,-378 191.014,-372 197.014,-366 203.014,-366 203.014,-366 264.986,-366 264.986,-366 270.986,-366 276.986,-372 276.986,-378 276.986,-378 276.986,-390 276.986,-390 276.986,-396 270.986,-402 264.986,-402"/>
<text text-anchor="middle" x="234" y="-379.8" font-family="Helvetica,sans-Serif" font-size="14.00">Tair_Matrix</text>
</g>
<!-- fetch_monthly_mean_air_temperature_data&#45;&gt;Tair_Matrix -->
<g id="edge5" class="edge"><title>fetch_monthly_mean_air_temperature_data&#45;&gt;Tair_Matrix</title>
<path fill="none" stroke="black" d="M234,-437.697C234,-429.983 234,-420.712 234,-412.112"/>
<polygon fill="black" stroke="black" points="237.5,-412.104 234,-402.104 230.5,-412.104 237.5,-412.104"/>
</g>
<!-- mean_airtemp -->
<g id="node5" class="node"><title>mean_airtemp</title>
<path fill="#ffffcc" stroke="black" d="M274.958,-546C274.958,-546 193.042,-546 193.042,-546 187.042,-546 181.042,-540 181.042,-534 181.042,-534 181.042,-522 181.042,-522 181.042,-516 187.042,-510 193.042,-510 193.042,-510 274.958,-510 274.958,-510 280.958,-510 286.958,-516 286.958,-522 286.958,-522 286.958,-534 286.958,-534 286.958,-540 280.958,-546 274.958,-546"/>
<text text-anchor="middle" x="234" y="-523.8" font-family="Helvetica,sans-Serif" font-size="14.00">mean_airtemp</text>
</g>
<!-- mean_airtemp&#45;&gt;fetch_monthly_mean_air_temperature_data -->
<g id="edge6" class="edge"><title>mean_airtemp&#45;&gt;fetch_monthly_mean_air_temperature_data</title>
<path fill="none" stroke="black" d="M234,-509.697C234,-501.983 234,-492.712 234,-484.112"/>
<polygon fill="black" stroke="black" points="237.5,-484.104 234,-474.104 230.5,-484.104 237.5,-484.104"/>
</g>
<!-- Tair_Matrix&#45;&gt;examine_pixels_for_grass -->
<g id="edge7" class="edge"><title>Tair_Matrix&#45;&gt;examine_pixels_for_grass</title>
<path fill="none" stroke="black" d="M234,-365.697C234,-357.983 234,-348.712 234,-340.112"/>
<polygon fill="black" stroke="black" points="237.5,-340.104 234,-330.104 230.5,-340.104 237.5,-340.104"/>
</g>
<!-- C3_Data&#45;&gt;generate_netcdf_file_for_C3_fraction -->
<g id="edge8" class="edge"><title>C3_Data&#45;&gt;generate_netcdf_file_for_C3_fraction</title>
<path fill="none" stroke="black" d="M201.82,-221.697C199.005,-213.813 195.609,-204.304 192.481,-195.546"/>
<polygon fill="black" stroke="black" points="195.768,-194.345 189.109,-186.104 189.176,-196.699 195.768,-194.345"/>
</g>
<!-- C4_Data&#45;&gt;generate_netcdf_file_for_C4_fraction -->
<g id="edge9" class="edge"><title>C4_Data&#45;&gt;generate_netcdf_file_for_C4_fraction</title>
<path fill="none" stroke="black" d="M444.218,-221.876C456.923,-212.893 472.664,-201.763 486.423,-192.034"/>
<polygon fill="black" stroke="black" points="488.544,-194.821 494.689,-186.19 484.503,-189.105 488.544,-194.821"/>
</g>
<!-- C3_fraction_data_outflow -->
<g id="node13" class="node"><title>C3_fraction_data_outflow</title>
<ellipse fill="none" stroke="black" cx="335" cy="-31" rx="7" ry="7"/>
</g>
<!-- C3_fraction_data&#45;&gt;C3_fraction_data_outflow -->
<g id="edge12" class="edge"><title>C3_fraction_data&#45;&gt;C3_fraction_data_outflow</title>
<path fill="none" stroke="black" d="M259.873,-77.9513C279.422,-65.9941 304.77,-50.4901 320.455,-40.8964"/>
<polygon fill="black" stroke="black" points="322.505,-43.7457 329.209,-35.542 318.852,-37.7742 322.505,-43.7457"/>
</g>
<!-- C4_fraction_data_outflow -->
<g id="node12" class="node"><title>C4_fraction_data_outflow</title>
<ellipse fill="none" stroke="black" cx="367" cy="-31" rx="7" ry="7"/>
</g>
<!-- C4_fraction_data&#45;&gt;C4_fraction_data_outflow -->
<g id="edge11" class="edge"><title>C4_fraction_data&#45;&gt;C4_fraction_data_outflow</title>
<path fill="none" stroke="black" d="M442.127,-77.9513C422.578,-65.9941 397.23,-50.4901 381.545,-40.8964"/>
<polygon fill="black" stroke="black" points="383.148,-37.7742 372.791,-35.542 379.495,-43.7457 383.148,-37.7742"/>
</g>
<!-- mean_airtemp_inflow -->
<g id="node11" class="node"><title>mean_airtemp_inflow</title>
<ellipse fill="none" stroke="black" cx="234" cy="-593" rx="7" ry="7"/>
</g>
<!-- mean_airtemp_inflow&#45;&gt;mean_airtemp -->
<g id="edge10" class="edge"><title>mean_airtemp_inflow&#45;&gt;mean_airtemp</title>
<path fill="none" stroke="black" d="M234,-585.729C234,-578.795 234,-567.154 234,-556.215"/>
<polygon fill="black" stroke="black" points="237.5,-556.119 234,-546.119 230.5,-556.119 237.5,-556.119"/>
</g>
</g>
</svg>
