<?xml version="1.0" encoding="UTF-8" standalone="no"?>
<!DOCTYPE svg PUBLIC "-//W3C//DTD SVG 1.1//EN"
 "http://www.w3.org/Graphics/SVG/1.1/DTD/svg11.dtd">
<!-- Generated by graphviz version 2.38.0 (20140413.2041)
 -->
<!-- Title: yw_data_view Pages: 1 -->
<svg width="710pt" height="662pt"
 viewBox="0.00 0.00 710.00 661.60" xmlns="http://www.w3.org/2000/svg" xmlns:xlink="http://www.w3.org/1999/xlink">
<g id="graph0" class="graph" transform="scale(1 1) rotate(0) translate(4 657.6)">
<title>yw_data_view</title>
<polygon fill="white" stroke="none" points="-4,4 -4,-657.6 706,-657.6 706,4 -4,4"/>
<text text-anchor="middle" x="351" y="-633.4" font-family="Courier,monospace" font-size="18.00">C3_C4_map_present_NA</text>
<g id="clust1" class="cluster"><title>cluster_workflow</title>
<polygon fill="none" stroke="black" stroke-width="2" points="8,-62 8,-562 694,-562 694,-62 8,-62"/>
</g>
<g id="clust2" class="cluster"><title>cluster_workflow_inner</title>
<polygon fill="none" stroke="white" stroke-width="2" points="16,-70 16,-554 686,-554 686,-70 16,-70"/>
</g>
<g id="clust3" class="cluster"><title>cluster_inflows</title>
<polygon fill="none" stroke="white" stroke-width="2" points="206,-570 206,-616 252,-616 252,-570 206,-570"/>
</g>
<g id="clust4" class="cluster"><title>cluster_inflows_inner</title>
<polygon fill="none" stroke="white" stroke-width="2" points="214,-578 214,-608 244,-608 244,-578 214,-578"/>
</g>
<g id="clust5" class="cluster"><title>cluster_outflows</title>
<polygon fill="none" stroke="white" stroke-width="2" points="312,-8 312,-54 390,-54 390,-8 312,-8"/>
</g>
<g id="clust6" class="cluster"><title>cluster_outflows_inner</title>
<polygon fill="none" stroke="white" stroke-width="2" points="320,-16 320,-46 382,-46 382,-16 320,-16"/>
</g>
<!-- examine_pixels_for_grass -->
<g id="node1" class="node"><title>examine_pixels_for_grass</title>
<polygon fill="#ccffcc" stroke="black" points="337.567,-330 120.433,-330 120.433,-294 337.567,-294 337.567,-330"/>
<text text-anchor="middle" x="229" y="-307.8" font-family="Courier,monospace" font-size="14.00">examine_pixels_for_grass</text>
</g>
<!-- C3_Data -->
<g id="node7" class="node"><title>C3_Data</title>
<path fill="#ffffcc" stroke="black" d="M229.735,-258C229.735,-258 182.265,-258 182.265,-258 176.265,-258 170.265,-252 170.265,-246 170.265,-246 170.265,-234 170.265,-234 170.265,-228 176.265,-222 182.265,-222 182.265,-222 229.735,-222 229.735,-222 235.735,-222 241.735,-228 241.735,-234 241.735,-234 241.735,-246 241.735,-246 241.735,-252 235.735,-258 229.735,-258"/>
<text text-anchor="middle" x="206" y="-235.8" font-family="Helvetica,sans-Serif" font-size="14.00">C3_Data</text>
</g>
<!-- examine_pixels_for_grass&#45;&gt;C3_Data -->
<g id="edge4" class="edge"><title>examine_pixels_for_grass&#45;&gt;C3_Data</title>
<path fill="none" stroke="black" d="M223.315,-293.697C220.752,-285.898 217.667,-276.509 214.815,-267.829"/>
<polygon fill="black" stroke="black" points="218.067,-266.512 211.62,-258.104 211.416,-268.697 218.067,-266.512"/>
</g>
<!-- C4_Data -->
<g id="node8" class="node"><title>C4_Data</title>
<path fill="#ffffcc" stroke="black" d="M441.735,-258C441.735,-258 394.265,-258 394.265,-258 388.265,-258 382.265,-252 382.265,-246 382.265,-246 382.265,-234 382.265,-234 382.265,-228 388.265,-222 394.265,-222 394.265,-222 441.735,-222 441.735,-222 447.735,-222 453.735,-228 453.735,-234 453.735,-234 453.735,-246 453.735,-246 453.735,-252 447.735,-258 441.735,-258"/>
<text text-anchor="middle" x="418" y="-235.8" font-family="Helvetica,sans-Serif" font-size="14.00">C4_Data</text>
</g>
<!-- examine_pixels_for_grass&#45;&gt;C4_Data -->
<g id="edge3" class="edge"><title>examine_pixels_for_grass&#45;&gt;C4_Data</title>
<path fill="none" stroke="black" d="M275.235,-293.876C304.886,-282.894 343.204,-268.702 372.676,-257.787"/>
<polygon fill="black" stroke="black" points="374.145,-260.975 382.307,-254.22 371.713,-254.411 374.145,-260.975"/>
</g>
<!-- generate_netcdf_file_for_C3_fraction -->
<g id="node2" class="node"><title>generate_netcdf_file_for_C3_fraction</title>
<polygon fill="#ccffcc" stroke="black" points="342.35,-186 23.6502,-186 23.6502,-150 342.35,-150 342.35,-186"/>
<text text-anchor="middle" x="183" y="-163.8" font-family="Courier,monospace" font-size="14.00">generate_netcdf_file_for_C3_fraction</text>
</g>
<!-- C3_fraction_data -->
<g id="node9" class="node"><title>C3_fraction_data</title>
<path fill="#ffffcc" stroke="black" d="M281.09,-114C281.09,-114 182.91,-114 182.91,-114 176.91,-114 170.91,-108 170.91,-102 170.91,-102 170.91,-90 170.91,-90 170.91,-84 176.91,-78 182.91,-78 182.91,-78 281.09,-78 281.09,-78 287.09,-78 293.09,-84 293.09,-90 293.09,-90 293.09,-102 293.09,-102 293.09,-108 287.09,-114 281.09,-114"/>
<text text-anchor="middle" x="232" y="-91.8" font-family="Helvetica,sans-Serif" font-size="14.00">C3_fraction_data</text>
</g>
<!-- generate_netcdf_file_for_C3_fraction&#45;&gt;C3_fraction_data -->
<g id="edge2" class="edge"><title>generate_netcdf_file_for_C3_fraction&#45;&gt;C3_fraction_data</title>
<path fill="none" stroke="black" d="M195.112,-149.697C200.868,-141.474 207.862,-131.483 214.206,-122.421"/>
<polygon fill="black" stroke="black" points="217.16,-124.304 220.027,-114.104 211.425,-120.29 217.16,-124.304"/>
</g>
<!-- generate_netcdf_file_for_C4_fraction -->
<g id="node3" class="node"><title>generate_netcdf_file_for_C4_fraction</title>
<polygon fill="#ccffcc" stroke="black" points="678.35,-186 359.65,-186 359.65,-150 678.35,-150 678.35,-186"/>
<text text-anchor="middle" x="519" y="-163.8" font-family="Courier,monospace" font-size="14.00">generate_netcdf_file_for_C4_fraction</text>
</g>
<!-- C4_fraction_data -->
<g id="node10" class="node"><title>C4_fraction_data</title>
<path fill="#ffffcc" stroke="black" d="M519.09,-114C519.09,-114 420.91,-114 420.91,-114 414.91,-114 408.91,-108 408.91,-102 408.91,-102 408.91,-90 408.91,-90 408.91,-84 414.91,-78 420.91,-78 420.91,-78 519.09,-78 519.09,-78 525.09,-78 531.09,-84 531.09,-90 531.09,-90 531.09,-102 531.09,-102 531.09,-108 525.09,-114 519.09,-114"/>
<text text-anchor="middle" x="470" y="-91.8" font-family="Helvetica,sans-Serif" font-size="14.00">C4_fraction_data</text>
</g>
<!-- generate_netcdf_file_for_C4_fraction&#45;&gt;C4_fraction_data -->
<g id="edge1" class="edge"><title>generate_netcdf_file_for_C4_fraction&#45;&gt;C4_fraction_data</title>
<path fill="none" stroke="black" d="M506.888,-149.697C501.132,-141.474 494.138,-131.483 487.794,-122.421"/>
<polygon fill="black" stroke="black" points="490.575,-120.29 481.973,-114.104 484.84,-124.304 490.575,-120.29"/>
</g>
<!-- fetch_monthly_mean_precipitation_data -->
<g id="node4" class="node"><title>fetch_monthly_mean_precipitation_data</title>
<polygon fill="#ccffcc" stroke="black" points="392.248,-474 65.7517,-474 65.7517,-438 392.248,-438 392.248,-474"/>
<text text-anchor="middle" x="229" y="-451.8" font-family="Courier,monospace" font-size="14.00">fetch_monthly_mean_precipitation_data</text>
</g>
<!-- Rain_Matrix -->
<g id="node6" class="node"><title>Rain_Matrix</title>
<path fill="#ffffcc" stroke="black" d="M262.163,-402C262.163,-402 195.837,-402 195.837,-402 189.837,-402 183.837,-396 183.837,-390 183.837,-390 183.837,-378 183.837,-378 183.837,-372 189.837,-366 195.837,-366 195.837,-366 262.163,-366 262.163,-366 268.163,-366 274.163,-372 274.163,-378 274.163,-378 274.163,-390 274.163,-390 274.163,-396 268.163,-402 262.163,-402"/>
<text text-anchor="middle" x="229" y="-379.8" font-family="Helvetica,sans-Serif" font-size="14.00">Rain_Matrix</text>
</g>
<!-- fetch_monthly_mean_precipitation_data&#45;&gt;Rain_Matrix -->
<g id="edge5" class="edge"><title>fetch_monthly_mean_precipitation_data&#45;&gt;Rain_Matrix</title>
<path fill="none" stroke="black" d="M229,-437.697C229,-429.983 229,-420.712 229,-412.112"/>
<polygon fill="black" stroke="black" points="232.5,-412.104 229,-402.104 225.5,-412.104 232.5,-412.104"/>
</g>
<!-- mean_precip -->
<g id="node5" class="node"><title>mean_precip</title>
<path fill="#ffffcc" stroke="black" d="M265.406,-546C265.406,-546 192.594,-546 192.594,-546 186.594,-546 180.594,-540 180.594,-534 180.594,-534 180.594,-522 180.594,-522 180.594,-516 186.594,-510 192.594,-510 192.594,-510 265.406,-510 265.406,-510 271.406,-510 277.406,-516 277.406,-522 277.406,-522 277.406,-534 277.406,-534 277.406,-540 271.406,-546 265.406,-546"/>
<text text-anchor="middle" x="229" y="-523.8" font-family="Helvetica,sans-Serif" font-size="14.00">mean_precip</text>
</g>
<!-- mean_precip&#45;&gt;fetch_monthly_mean_precipitation_data -->
<g id="edge6" class="edge"><title>mean_precip&#45;&gt;fetch_monthly_mean_precipitation_data</title>
<path fill="none" stroke="black" d="M229,-509.697C229,-501.983 229,-492.712 229,-484.112"/>
<polygon fill="black" stroke="black" points="232.5,-484.104 229,-474.104 225.5,-484.104 232.5,-484.104"/>
</g>
<!-- Rain_Matrix&#45;&gt;examine_pixels_for_grass -->
<g id="edge7" class="edge"><title>Rain_Matrix&#45;&gt;examine_pixels_for_grass</title>
<path fill="none" stroke="black" d="M229,-365.697C229,-357.983 229,-348.712 229,-340.112"/>
<polygon fill="black" stroke="black" points="232.5,-340.104 229,-330.104 225.5,-340.104 232.5,-340.104"/>
</g>
<!-- C3_Data&#45;&gt;generate_netcdf_file_for_C3_fraction -->
<g id="edge8" class="edge"><title>C3_Data&#45;&gt;generate_netcdf_file_for_C3_fraction</title>
<path fill="none" stroke="black" d="M200.315,-221.697C197.752,-213.898 194.667,-204.509 191.815,-195.829"/>
<polygon fill="black" stroke="black" points="195.067,-194.512 188.62,-186.104 188.416,-196.697 195.067,-194.512"/>
</g>
<!-- C4_Data&#45;&gt;generate_netcdf_file_for_C4_fraction -->
<g id="edge9" class="edge"><title>C4_Data&#45;&gt;generate_netcdf_file_for_C4_fraction</title>
<path fill="none" stroke="black" d="M442.707,-221.876C455.669,-212.893 471.728,-201.763 485.765,-192.034"/>
<polygon fill="black" stroke="black" points="487.972,-194.763 494.198,-186.19 483.985,-189.009 487.972,-194.763"/>
</g>
<!-- C3_fraction_data_outflow -->
<g id="node13" class="node"><title>C3_fraction_data_outflow</title>
<ellipse fill="none" stroke="black" cx="335" cy="-31" rx="7" ry="7"/>
</g>
<!-- C3_fraction_data&#45;&gt;C3_fraction_data_outflow -->
<g id="edge12" class="edge"><title>C3_fraction_data&#45;&gt;C3_fraction_data_outflow</title>
<path fill="none" stroke="black" d="M259.873,-77.9513C279.422,-65.9941 304.77,-50.4901 320.455,-40.8964"/>
<polygon fill="black" stroke="black" points="322.505,-43.7457 329.209,-35.542 318.852,-37.7742 322.505,-43.7457"/>
</g>
<!-- C4_fraction_data_outflow -->
<g id="node12" class="node"><title>C4_fraction_data_outflow</title>
<ellipse fill="none" stroke="black" cx="367" cy="-31" rx="7" ry="7"/>
</g>
<!-- C4_fraction_data&#45;&gt;C4_fraction_data_outflow -->
<g id="edge11" class="edge"><title>C4_fraction_data&#45;&gt;C4_fraction_data_outflow</title>
<path fill="none" stroke="black" d="M442.127,-77.9513C422.578,-65.9941 397.23,-50.4901 381.545,-40.8964"/>
<polygon fill="black" stroke="black" points="383.148,-37.7742 372.791,-35.542 379.495,-43.7457 383.148,-37.7742"/>
</g>
<!-- mean_precip_inflow -->
<g id="node11" class="node"><title>mean_precip_inflow</title>
<ellipse fill="none" stroke="black" cx="229" cy="-593" rx="7" ry="7"/>
</g>
<!-- mean_precip_inflow&#45;&gt;mean_precip -->
<g id="edge10" class="edge"><title>mean_precip_inflow&#45;&gt;mean_precip</title>
<path fill="none" stroke="black" d="M229,-585.729C229,-578.795 229,-567.154 229,-556.215"/>
<polygon fill="black" stroke="black" points="232.5,-556.119 229,-546.119 225.5,-556.119 232.5,-556.119"/>
</g>
</g>
</svg>
