<?xml version="1.0" encoding="UTF-8" standalone="no"?>
<!DOCTYPE svg PUBLIC "-//W3C//DTD SVG 1.1//EN"
 "http://www.w3.org/Graphics/SVG/1.1/DTD/svg11.dtd">
<!-- Generated by graphviz version 2.38.0 (20140413.2041)
 -->
<!-- Title: yw_data_view Pages: 1 -->
<svg width="400pt" height="320pt"
 viewBox="0.00 0.00 400.00 319.60" xmlns="http://www.w3.org/2000/svg" xmlns:xlink="http://www.w3.org/1999/xlink">
<g id="graph0" class="graph" transform="scale(1 1) rotate(0) translate(4 315.6)">
<title>yw_data_view</title>
<polygon fill="white" stroke="none" points="-4,4 -4,-315.6 396,-315.6 396,4 -4,4"/>
<text text-anchor="middle" x="196" y="-291.4" font-family="Courier,monospace" font-size="18.00">C3_C4_map_present_NA</text>
<g id="clust1" class="cluster"><title>cluster_workflow</title>
<polygon fill="none" stroke="black" stroke-width="2" points="8,-62 8,-274 384,-274 384,-62 8,-62"/>
</g>
<g id="clust2" class="cluster"><title>cluster_workflow_inner</title>
<polygon fill="none" stroke="white" stroke-width="2" points="16,-70 16,-266 376,-266 376,-70 16,-70"/>
</g>
<g id="clust5" class="cluster"><title>cluster_outflows</title>
<polygon fill="none" stroke="white" stroke-width="2" points="173,-8 173,-54 219,-54 219,-8 173,-8"/>
</g>
<g id="clust6" class="cluster"><title>cluster_outflows_inner</title>
<polygon fill="none" stroke="white" stroke-width="2" points="181,-16 181,-46 211,-46 211,-16 181,-16"/>
</g>
<!-- generate_netcdf_file_for_Grass_fraction -->
<g id="node1" class="node"><title>generate_netcdf_file_for_Grass_fraction</title>
<polygon fill="#ccffcc" stroke="black" points="367.546,-186 24.4543,-186 24.4543,-150 367.546,-150 367.546,-186"/>
<text text-anchor="middle" x="196" y="-163.8" font-family="Courier,monospace" font-size="14.00">generate_netcdf_file_for_Grass_fraction</text>
</g>
<!-- Grass_fraction_data -->
<g id="node3" class="node"><title>Grass_fraction_data</title>
<path fill="#ffffcc" stroke="black" d="M255.034,-114C255.034,-114 136.966,-114 136.966,-114 130.966,-114 124.966,-108 124.966,-102 124.966,-102 124.966,-90 124.966,-90 124.966,-84 130.966,-78 136.966,-78 136.966,-78 255.034,-78 255.034,-78 261.034,-78 267.034,-84 267.034,-90 267.034,-90 267.034,-102 267.034,-102 267.034,-108 261.034,-114 255.034,-114"/>
<text text-anchor="middle" x="196" y="-91.8" font-family="Helvetica,sans-Serif" font-size="14.00">Grass_fraction_data</text>
</g>
<!-- generate_netcdf_file_for_Grass_fraction&#45;&gt;Grass_fraction_data -->
<g id="edge1" class="edge"><title>generate_netcdf_file_for_Grass_fraction&#45;&gt;Grass_fraction_data</title>
<path fill="none" stroke="black" d="M196,-149.697C196,-141.983 196,-132.712 196,-124.112"/>
<polygon fill="black" stroke="black" points="199.5,-124.104 196,-114.104 192.5,-124.104 199.5,-124.104"/>
</g>
<!-- Grass_variable -->
<g id="node2" class="node"><title>Grass_variable</title>
<path fill="#ffffcc" stroke="black" d="M239.121,-258C239.121,-258 152.879,-258 152.879,-258 146.879,-258 140.879,-252 140.879,-246 140.879,-246 140.879,-234 140.879,-234 140.879,-228 146.879,-222 152.879,-222 152.879,-222 239.121,-222 239.121,-222 245.121,-222 251.121,-228 251.121,-234 251.121,-234 251.121,-246 251.121,-246 251.121,-252 245.121,-258 239.121,-258"/>
<text text-anchor="middle" x="196" y="-235.8" font-family="Helvetica,sans-Serif" font-size="14.00">Grass_variable</text>
</g>
<!-- Grass_variable&#45;&gt;generate_netcdf_file_for_Grass_fraction -->
<g id="edge2" class="edge"><title>Grass_variable&#45;&gt;generate_netcdf_file_for_Grass_fraction</title>
<path fill="none" stroke="black" d="M196,-221.697C196,-213.983 196,-204.712 196,-196.112"/>
<polygon fill="black" stroke="black" points="199.5,-196.104 196,-186.104 192.5,-196.104 199.5,-196.104"/>
</g>
<!-- Grass_fraction_data_outflow -->
<g id="node4" class="node"><title>Grass_fraction_data_outflow</title>
<ellipse fill="none" stroke="black" cx="196" cy="-31" rx="7" ry="7"/>
</g>
<!-- Grass_fraction_data&#45;&gt;Grass_fraction_data_outflow -->
<g id="edge3" class="edge"><title>Grass_fraction_data&#45;&gt;Grass_fraction_data_outflow</title>
<path fill="none" stroke="black" d="M196,-77.785C196,-68.6656 196,-57.5197 196,-48.5085"/>
<polygon fill="black" stroke="black" points="199.5,-48.242 196,-38.242 192.5,-48.2421 199.5,-48.242"/>
</g>
</g>
</svg>
