<?xml version="1.0" encoding="UTF-8" standalone="no"?>
<!DOCTYPE svg PUBLIC "-//W3C//DTD SVG 1.1//EN"
 "http://www.w3.org/Graphics/SVG/1.1/DTD/svg11.dtd">
<!-- Generated by graphviz version 2.38.0 (20140413.2041)
 -->
<!-- Title: yw_data_view Pages: 1 -->
<svg width="1072pt" height="518pt"
 viewBox="0.00 0.00 1072.00 517.60" xmlns="http://www.w3.org/2000/svg" xmlns:xlink="http://www.w3.org/1999/xlink">
<g id="graph0" class="graph" transform="scale(1 1) rotate(0) translate(4 513.6)">
<title>yw_data_view</title>
<polygon fill="white" stroke="none" points="-4,4 -4,-513.6 1068,-513.6 1068,4 -4,4"/>
<text text-anchor="middle" x="532" y="-489.4" font-family="Courier,monospace" font-size="18.00">C3_C4_map_present_NA</text>
<g id="clust1" class="cluster"><title>cluster_workflow</title>
<polygon fill="none" stroke="black" stroke-width="2" points="8,-62 8,-418 1056,-418 1056,-62 8,-62"/>
</g>
<g id="clust2" class="cluster"><title>cluster_workflow_inner</title>
<polygon fill="none" stroke="white" stroke-width="2" points="16,-70 16,-410 1048,-410 1048,-70 16,-70"/>
</g>
<g id="clust3" class="cluster"><title>cluster_inflows</title>
<polygon fill="none" stroke="white" stroke-width="2" points="521,-426 521,-472 567,-472 567,-426 521,-426"/>
</g>
<g id="clust4" class="cluster"><title>cluster_inflows_inner</title>
<polygon fill="none" stroke="white" stroke-width="2" points="529,-434 529,-464 559,-464 559,-434 529,-434"/>
</g>
<g id="clust5" class="cluster"><title>cluster_outflows</title>
<polygon fill="none" stroke="white" stroke-width="2" points="490,-8 490,-54 600,-54 600,-8 490,-8"/>
</g>
<g id="clust6" class="cluster"><title>cluster_outflows_inner</title>
<polygon fill="none" stroke="white" stroke-width="2" points="498,-16 498,-46 592,-46 592,-16 498,-16"/>
</g>
<!-- generate_netcdf_file_for_Grass_fraction -->
<g id="node1" class="node"><title>generate_netcdf_file_for_Grass_fraction</title>
<polygon fill="#ccffcc" stroke="black" points="367.546,-186 24.4543,-186 24.4543,-150 367.546,-150 367.546,-186"/>
<text text-anchor="middle" x="196" y="-163.8" font-family="Courier,monospace" font-size="14.00">generate_netcdf_file_for_Grass_fraction</text>
</g>
<!-- Grass_fraction_data -->
<g id="node12" class="node"><title>Grass_fraction_data</title>
<path fill="#ffffcc" stroke="black" d="M355.034,-114C355.034,-114 236.966,-114 236.966,-114 230.966,-114 224.966,-108 224.966,-102 224.966,-102 224.966,-90 224.966,-90 224.966,-84 230.966,-78 236.966,-78 236.966,-78 355.034,-78 355.034,-78 361.034,-78 367.034,-84 367.034,-90 367.034,-90 367.034,-102 367.034,-102 367.034,-108 361.034,-114 355.034,-114"/>
<text text-anchor="middle" x="296" y="-91.8" font-family="Helvetica,sans-Serif" font-size="14.00">Grass_fraction_data</text>
</g>
<!-- generate_netcdf_file_for_Grass_fraction&#45;&gt;Grass_fraction_data -->
<g id="edge1" class="edge"><title>generate_netcdf_file_for_Grass_fraction&#45;&gt;Grass_fraction_data</title>
<path fill="none" stroke="black" d="M220.463,-149.876C233.296,-140.893 249.196,-129.763 263.094,-120.034"/>
<polygon fill="black" stroke="black" points="265.258,-122.792 271.443,-114.19 261.244,-117.057 265.258,-122.792"/>
</g>
<!-- generate_netcdf_file_for_C4_fraction -->
<g id="node2" class="node"><title>generate_netcdf_file_for_C4_fraction</title>
<polygon fill="#ccffcc" stroke="black" points="704.35,-186 385.65,-186 385.65,-150 704.35,-150 704.35,-186"/>
<text text-anchor="middle" x="545" y="-163.8" font-family="Courier,monospace" font-size="14.00">generate_netcdf_file_for_C4_fraction</text>
</g>
<!-- C4_fraction_data -->
<g id="node11" class="node"><title>C4_fraction_data</title>
<path fill="#ffffcc" stroke="black" d="M594.09,-114C594.09,-114 495.91,-114 495.91,-114 489.91,-114 483.91,-108 483.91,-102 483.91,-102 483.91,-90 483.91,-90 483.91,-84 489.91,-78 495.91,-78 495.91,-78 594.09,-78 594.09,-78 600.09,-78 606.09,-84 606.09,-90 606.09,-90 606.09,-102 606.09,-102 606.09,-108 600.09,-114 594.09,-114"/>
<text text-anchor="middle" x="545" y="-91.8" font-family="Helvetica,sans-Serif" font-size="14.00">C4_fraction_data</text>
</g>
<!-- generate_netcdf_file_for_C4_fraction&#45;&gt;C4_fraction_data -->
<g id="edge2" class="edge"><title>generate_netcdf_file_for_C4_fraction&#45;&gt;C4_fraction_data</title>
<path fill="none" stroke="black" d="M545,-149.697C545,-141.983 545,-132.712 545,-124.112"/>
<polygon fill="black" stroke="black" points="548.5,-124.104 545,-114.104 541.5,-124.104 548.5,-124.104"/>
</g>
<!-- generate_netcdf_file_for_C3_fraction -->
<g id="node3" class="node"><title>generate_netcdf_file_for_C3_fraction</title>
<polygon fill="#ccffcc" stroke="black" points="1040.35,-186 721.65,-186 721.65,-150 1040.35,-150 1040.35,-186"/>
<text text-anchor="middle" x="881" y="-163.8" font-family="Courier,monospace" font-size="14.00">generate_netcdf_file_for_C3_fraction</text>
</g>
<!-- C3_fraction_data -->
<g id="node10" class="node"><title>C3_fraction_data</title>
<path fill="#ffffcc" stroke="black" d="M832.09,-114C832.09,-114 733.91,-114 733.91,-114 727.91,-114 721.91,-108 721.91,-102 721.91,-102 721.91,-90 721.91,-90 721.91,-84 727.91,-78 733.91,-78 733.91,-78 832.09,-78 832.09,-78 838.09,-78 844.09,-84 844.09,-90 844.09,-90 844.09,-102 844.09,-102 844.09,-108 838.09,-114 832.09,-114"/>
<text text-anchor="middle" x="783" y="-91.8" font-family="Helvetica,sans-Serif" font-size="14.00">C3_fraction_data</text>
</g>
<!-- generate_netcdf_file_for_C3_fraction&#45;&gt;C3_fraction_data -->
<g id="edge3" class="edge"><title>generate_netcdf_file_for_C3_fraction&#45;&gt;C3_fraction_data</title>
<path fill="none" stroke="black" d="M857.027,-149.876C844.45,-140.893 828.868,-129.763 815.248,-120.034"/>
<polygon fill="black" stroke="black" points="817.237,-117.154 807.066,-114.19 813.169,-122.85 817.237,-117.154"/>
</g>
<!-- fetch_SYNMAP_land_cover_map_variable -->
<g id="node4" class="node"><title>fetch_SYNMAP_land_cover_map_variable</title>
<polygon fill="#ccffcc" stroke="black" points="703.35,-330 384.65,-330 384.65,-294 703.35,-294 703.35,-330"/>
<text text-anchor="middle" x="544" y="-307.8" font-family="Courier,monospace" font-size="14.00">fetch_SYNMAP_land_cover_map_variable</text>
</g>
<!-- lon_variable -->
<g id="node6" class="node"><title>lon_variable</title>
<path fill="#ffffcc" stroke="black" d="M406.96,-258C406.96,-258 339.04,-258 339.04,-258 333.04,-258 327.04,-252 327.04,-246 327.04,-246 327.04,-234 327.04,-234 327.04,-228 333.04,-222 339.04,-222 339.04,-222 406.96,-222 406.96,-222 412.96,-222 418.96,-228 418.96,-234 418.96,-234 418.96,-246 418.96,-246 418.96,-252 412.96,-258 406.96,-258"/>
<text text-anchor="middle" x="373" y="-235.8" font-family="Helvetica,sans-Serif" font-size="14.00">lon_variable</text>
</g>
<!-- fetch_SYNMAP_land_cover_map_variable&#45;&gt;lon_variable -->
<g id="edge7" class="edge"><title>fetch_SYNMAP_land_cover_map_variable&#45;&gt;lon_variable</title>
<path fill="none" stroke="black" d="M502.169,-293.876C478.584,-284.222 448.94,-272.087 424.001,-261.878"/>
<polygon fill="black" stroke="black" points="425.276,-258.618 414.695,-258.068 422.624,-265.096 425.276,-258.618"/>
</g>
<!-- lat_variable -->
<g id="node7" class="node"><title>lat_variable</title>
<path fill="#ffffcc" stroke="black" d="M512.568,-258C512.568,-258 449.432,-258 449.432,-258 443.432,-258 437.432,-252 437.432,-246 437.432,-246 437.432,-234 437.432,-234 437.432,-228 443.432,-222 449.432,-222 449.432,-222 512.568,-222 512.568,-222 518.568,-222 524.568,-228 524.568,-234 524.568,-234 524.568,-246 524.568,-246 524.568,-252 518.568,-258 512.568,-258"/>
<text text-anchor="middle" x="481" y="-235.8" font-family="Helvetica,sans-Serif" font-size="14.00">lat_variable</text>
</g>
<!-- fetch_SYNMAP_land_cover_map_variable&#45;&gt;lat_variable -->
<g id="edge6" class="edge"><title>fetch_SYNMAP_land_cover_map_variable&#45;&gt;lat_variable</title>
<path fill="none" stroke="black" d="M528.427,-293.697C520.798,-285.22 511.477,-274.864 503.124,-265.583"/>
<polygon fill="black" stroke="black" points="505.685,-263.196 496.394,-258.104 500.482,-267.879 505.685,-263.196"/>
</g>
<!-- lon_bnds_variable -->
<g id="node8" class="node"><title>lon_bnds_variable</title>
<path fill="#ffffcc" stroke="black" d="M660.59,-258C660.59,-258 555.41,-258 555.41,-258 549.41,-258 543.41,-252 543.41,-246 543.41,-246 543.41,-234 543.41,-234 543.41,-228 549.41,-222 555.41,-222 555.41,-222 660.59,-222 660.59,-222 666.59,-222 672.59,-228 672.59,-234 672.59,-234 672.59,-246 672.59,-246 672.59,-252 666.59,-258 660.59,-258"/>
<text text-anchor="middle" x="608" y="-235.8" font-family="Helvetica,sans-Serif" font-size="14.00">lon_bnds_variable</text>
</g>
<!-- fetch_SYNMAP_land_cover_map_variable&#45;&gt;lon_bnds_variable -->
<g id="edge5" class="edge"><title>fetch_SYNMAP_land_cover_map_variable&#45;&gt;lon_bnds_variable</title>
<path fill="none" stroke="black" d="M559.82,-293.697C567.57,-285.22 577.039,-274.864 585.524,-265.583"/>
<polygon fill="black" stroke="black" points="588.197,-267.846 592.362,-258.104 583.031,-263.123 588.197,-267.846"/>
</g>
<!-- lat_bnds_variable -->
<g id="node9" class="node"><title>lat_bnds_variable</title>
<path fill="#ffffcc" stroke="black" d="M804.697,-258C804.697,-258 703.303,-258 703.303,-258 697.303,-258 691.303,-252 691.303,-246 691.303,-246 691.303,-234 691.303,-234 691.303,-228 697.303,-222 703.303,-222 703.303,-222 804.697,-222 804.697,-222 810.697,-222 816.697,-228 816.697,-234 816.697,-234 816.697,-246 816.697,-246 816.697,-252 810.697,-258 804.697,-258"/>
<text text-anchor="middle" x="754" y="-235.8" font-family="Helvetica,sans-Serif" font-size="14.00">lat_bnds_variable</text>
</g>
<!-- fetch_SYNMAP_land_cover_map_variable&#45;&gt;lat_bnds_variable -->
<g id="edge4" class="edge"><title>fetch_SYNMAP_land_cover_map_variable&#45;&gt;lat_bnds_variable</title>
<path fill="none" stroke="black" d="M595.103,-293.966C624.573,-284.142 661.813,-271.729 692.833,-261.389"/>
<polygon fill="black" stroke="black" points="694.288,-264.594 702.668,-258.111 692.074,-257.953 694.288,-264.594"/>
</g>
<!-- SYNMAP_land_cover_map_data -->
<g id="node5" class="node"><title>SYNMAP_land_cover_map_data</title>
<path fill="#ffffcc" stroke="black" d="M642.889,-402C642.889,-402 445.111,-402 445.111,-402 439.111,-402 433.111,-396 433.111,-390 433.111,-390 433.111,-378 433.111,-378 433.111,-372 439.111,-366 445.111,-366 445.111,-366 642.889,-366 642.889,-366 648.889,-366 654.889,-372 654.889,-378 654.889,-378 654.889,-390 654.889,-390 654.889,-396 648.889,-402 642.889,-402"/>
<text text-anchor="middle" x="544" y="-379.8" font-family="Helvetica,sans-Serif" font-size="14.00">SYNMAP_land_cover_map_data</text>
</g>
<!-- SYNMAP_land_cover_map_data&#45;&gt;fetch_SYNMAP_land_cover_map_variable -->
<g id="edge8" class="edge"><title>SYNMAP_land_cover_map_data&#45;&gt;fetch_SYNMAP_land_cover_map_variable</title>
<path fill="none" stroke="black" d="M544,-365.697C544,-357.983 544,-348.712 544,-340.112"/>
<polygon fill="black" stroke="black" points="547.5,-340.104 544,-330.104 540.5,-340.104 547.5,-340.104"/>
</g>
<!-- lon_variable&#45;&gt;generate_netcdf_file_for_Grass_fraction -->
<g id="edge17" class="edge"><title>lon_variable&#45;&gt;generate_netcdf_file_for_Grass_fraction</title>
<path fill="none" stroke="black" d="M329.701,-221.876C305.289,-212.222 274.604,-200.087 248.79,-189.878"/>
<polygon fill="black" stroke="black" points="249.745,-186.491 239.158,-186.068 247.17,-193.001 249.745,-186.491"/>
</g>
<!-- lon_variable&#45;&gt;generate_netcdf_file_for_C4_fraction -->
<g id="edge13" class="edge"><title>lon_variable&#45;&gt;generate_netcdf_file_for_C4_fraction</title>
<path fill="none" stroke="black" d="M415.076,-221.876C438.798,-212.222 468.616,-200.087 493.701,-189.878"/>
<polygon fill="black" stroke="black" points="495.118,-193.08 503.061,-186.068 492.479,-186.596 495.118,-193.08"/>
</g>
<!-- lon_variable&#45;&gt;generate_netcdf_file_for_C3_fraction -->
<g id="edge9" class="edge"><title>lon_variable&#45;&gt;generate_netcdf_file_for_C3_fraction</title>
<path fill="none" stroke="black" d="M418.751,-224.171C421.865,-223.375 424.969,-222.64 428,-222 455.924,-216.103 596.072,-200.038 713.184,-187.129"/>
<polygon fill="black" stroke="black" points="713.805,-190.581 723.362,-186.008 713.039,-183.623 713.805,-190.581"/>
</g>
<!-- lat_variable&#45;&gt;generate_netcdf_file_for_Grass_fraction -->
<g id="edge18" class="edge"><title>lat_variable&#45;&gt;generate_netcdf_file_for_Grass_fraction</title>
<path fill="none" stroke="black" d="M437.416,-224.693C434.239,-223.751 431.075,-222.843 428,-222 382.346,-209.488 331.086,-197.56 288.383,-188.198"/>
<polygon fill="black" stroke="black" points="289.083,-184.769 278.567,-186.058 287.592,-191.608 289.083,-184.769"/>
</g>
<!-- lat_variable&#45;&gt;generate_netcdf_file_for_C4_fraction -->
<g id="edge14" class="edge"><title>lat_variable&#45;&gt;generate_netcdf_file_for_C4_fraction</title>
<path fill="none" stroke="black" d="M496.82,-221.697C504.57,-213.22 514.039,-202.864 522.524,-193.583"/>
<polygon fill="black" stroke="black" points="525.197,-195.846 529.362,-186.104 520.031,-191.123 525.197,-195.846"/>
</g>
<!-- lat_variable&#45;&gt;generate_netcdf_file_for_C3_fraction -->
<g id="edge10" class="edge"><title>lat_variable&#45;&gt;generate_netcdf_file_for_C3_fraction</title>
<path fill="none" stroke="black" d="M524.809,-224.356C527.904,-223.504 530.99,-222.708 534,-222 595.955,-207.43 665.11,-195.927 725.28,-187.414"/>
<polygon fill="black" stroke="black" points="725.824,-190.872 735.243,-186.02 724.854,-183.939 725.824,-190.872"/>
</g>
<!-- lon_bnds_variable&#45;&gt;generate_netcdf_file_for_Grass_fraction -->
<g id="edge19" class="edge"><title>lon_bnds_variable&#45;&gt;generate_netcdf_file_for_Grass_fraction</title>
<path fill="none" stroke="black" d="M543.083,-223.815C540.016,-223.183 536.977,-222.575 534,-222 466.323,-208.937 390.551,-196.827 327.929,-187.489"/>
<polygon fill="black" stroke="black" points="328.4,-184.021 317.995,-186.015 327.373,-190.945 328.4,-184.021"/>
</g>
<!-- lon_bnds_variable&#45;&gt;generate_netcdf_file_for_C4_fraction -->
<g id="edge15" class="edge"><title>lon_bnds_variable&#45;&gt;generate_netcdf_file_for_C4_fraction</title>
<path fill="none" stroke="black" d="M592.427,-221.697C584.798,-213.22 575.477,-202.864 567.124,-193.583"/>
<polygon fill="black" stroke="black" points="569.685,-191.196 560.394,-186.104 564.482,-195.879 569.685,-191.196"/>
</g>
<!-- lon_bnds_variable&#45;&gt;generate_netcdf_file_for_C3_fraction -->
<g id="edge11" class="edge"><title>lon_bnds_variable&#45;&gt;generate_netcdf_file_for_C3_fraction</title>
<path fill="none" stroke="black" d="M672.697,-222.411C712.256,-212.268 763.062,-199.24 804.595,-188.591"/>
<polygon fill="black" stroke="black" points="805.577,-191.953 814.394,-186.078 803.838,-185.172 805.577,-191.953"/>
</g>
<!-- lat_bnds_variable&#45;&gt;generate_netcdf_file_for_Grass_fraction -->
<g id="edge20" class="edge"><title>lat_bnds_variable&#45;&gt;generate_netcdf_file_for_Grass_fraction</title>
<path fill="none" stroke="black" d="M691.265,-223.707C688.139,-223.096 685.038,-222.522 682,-222 624.959,-212.194 490.757,-197.794 377.8,-186.478"/>
<polygon fill="black" stroke="black" points="377.931,-182.973 367.633,-185.462 377.235,-189.939 377.931,-182.973"/>
</g>
<!-- lat_bnds_variable&#45;&gt;generate_netcdf_file_for_C4_fraction -->
<g id="edge16" class="edge"><title>lat_bnds_variable&#45;&gt;generate_netcdf_file_for_C4_fraction</title>
<path fill="none" stroke="black" d="M703.14,-221.966C673.811,-212.142 636.748,-199.729 605.876,-189.389"/>
<polygon fill="black" stroke="black" points="606.682,-185.968 596.088,-186.111 604.459,-192.606 606.682,-185.968"/>
</g>
<!-- lat_bnds_variable&#45;&gt;generate_netcdf_file_for_C3_fraction -->
<g id="edge12" class="edge"><title>lat_bnds_variable&#45;&gt;generate_netcdf_file_for_C3_fraction</title>
<path fill="none" stroke="black" d="M785.068,-221.876C801.827,-212.639 822.706,-201.131 840.702,-191.212"/>
<polygon fill="black" stroke="black" points="842.745,-194.082 849.813,-186.19 839.366,-187.952 842.745,-194.082"/>
</g>
<!-- C3_fraction_data_outflow -->
<g id="node16" class="node"><title>C3_fraction_data_outflow</title>
<ellipse fill="none" stroke="black" cx="577" cy="-31" rx="7" ry="7"/>
</g>
<!-- C3_fraction_data&#45;&gt;C3_fraction_data_outflow -->
<g id="edge24" class="edge"><title>C3_fraction_data&#45;&gt;C3_fraction_data_outflow</title>
<path fill="none" stroke="black" d="M727.253,-77.9513C682.221,-64.1792 621.803,-45.7018 593.249,-36.9693"/>
<polygon fill="black" stroke="black" points="593.971,-33.5303 583.385,-33.9526 591.924,-40.2242 593.971,-33.5303"/>
</g>
<!-- C4_fraction_data_outflow -->
<g id="node15" class="node"><title>C4_fraction_data_outflow</title>
<ellipse fill="none" stroke="black" cx="545" cy="-31" rx="7" ry="7"/>
</g>
<!-- C4_fraction_data&#45;&gt;C4_fraction_data_outflow -->
<g id="edge23" class="edge"><title>C4_fraction_data&#45;&gt;C4_fraction_data_outflow</title>
<path fill="none" stroke="black" d="M545,-77.785C545,-68.6656 545,-57.5197 545,-48.5085"/>
<polygon fill="black" stroke="black" points="548.5,-48.242 545,-38.242 541.5,-48.2421 548.5,-48.242"/>
</g>
<!-- Grass_fraction_data_outflow -->
<g id="node14" class="node"><title>Grass_fraction_data_outflow</title>
<ellipse fill="none" stroke="black" cx="513" cy="-31" rx="7" ry="7"/>
</g>
<!-- Grass_fraction_data&#45;&gt;Grass_fraction_data_outflow -->
<g id="edge22" class="edge"><title>Grass_fraction_data&#45;&gt;Grass_fraction_data_outflow</title>
<path fill="none" stroke="black" d="M354.723,-77.9513C402.593,-64.0537 466.967,-45.3645 496.698,-36.7329"/>
<polygon fill="black" stroke="black" points="497.959,-40.0114 506.587,-33.862 496.007,-33.2889 497.959,-40.0114"/>
</g>
<!-- SYNMAP_land_cover_map_data_inflow -->
<g id="node13" class="node"><title>SYNMAP_land_cover_map_data_inflow</title>
<ellipse fill="none" stroke="black" cx="544" cy="-449" rx="7" ry="7"/>
</g>
<!-- SYNMAP_land_cover_map_data_inflow&#45;&gt;SYNMAP_land_cover_map_data -->
<g id="edge21" class="edge"><title>SYNMAP_land_cover_map_data_inflow&#45;&gt;SYNMAP_land_cover_map_data</title>
<path fill="none" stroke="black" d="M544,-441.729C544,-434.795 544,-423.154 544,-412.215"/>
<polygon fill="black" stroke="black" points="547.5,-412.119 544,-402.119 540.5,-412.119 547.5,-412.119"/>
</g>
</g>
</svg>
