<?xml version="1.0" encoding="UTF-8" standalone="no"?>
<!DOCTYPE svg PUBLIC "-//W3C//DTD SVG 1.1//EN"
 "http://www.w3.org/Graphics/SVG/1.1/DTD/svg11.dtd">
<!-- Generated by graphviz version 2.38.0 (20140413.2041)
 -->
<!-- Title: yw_data_view Pages: 1 -->
<svg width="1072pt" height="320pt"
 viewBox="0.00 0.00 1072.00 319.60" xmlns="http://www.w3.org/2000/svg" xmlns:xlink="http://www.w3.org/1999/xlink">
<g id="graph0" class="graph" transform="scale(1 1) rotate(0) translate(4 315.6)">
<title>yw_data_view</title>
<polygon fill="white" stroke="none" points="-4,4 -4,-315.6 1068,-315.6 1068,4 -4,4"/>
<text text-anchor="middle" x="532" y="-291.4" font-family="Courier,monospace" font-size="18.00">C3_C4_map_present_NA</text>
<g id="clust1" class="cluster"><title>cluster_workflow</title>
<polygon fill="none" stroke="black" stroke-width="2" points="8,-62 8,-274 1056,-274 1056,-62 8,-62"/>
</g>
<g id="clust2" class="cluster"><title>cluster_workflow_inner</title>
<polygon fill="none" stroke="white" stroke-width="2" points="16,-70 16,-266 1048,-266 1048,-70 16,-70"/>
</g>
<g id="clust5" class="cluster"><title>cluster_outflows</title>
<polygon fill="none" stroke="white" stroke-width="2" points="464,-8 464,-54 574,-54 574,-8 464,-8"/>
</g>
<g id="clust6" class="cluster"><title>cluster_outflows_inner</title>
<polygon fill="none" stroke="white" stroke-width="2" points="472,-16 472,-46 566,-46 566,-16 472,-16"/>
</g>
<!-- generate_netcdf_file_for_C3_fraction -->
<g id="node1" class="node"><title>generate_netcdf_file_for_C3_fraction</title>
<polygon fill="#ccffcc" stroke="black" points="342.35,-186 23.6502,-186 23.6502,-150 342.35,-150 342.35,-186"/>
<text text-anchor="middle" x="183" y="-163.8" font-family="Courier,monospace" font-size="14.00">generate_netcdf_file_for_C3_fraction</text>
</g>
<!-- C3_fraction_data -->
<g id="node5" class="node"><title>C3_fraction_data</title>
<path fill="#ffffcc" stroke="black" d="M330.09,-114C330.09,-114 231.91,-114 231.91,-114 225.91,-114 219.91,-108 219.91,-102 219.91,-102 219.91,-90 219.91,-90 219.91,-84 225.91,-78 231.91,-78 231.91,-78 330.09,-78 330.09,-78 336.09,-78 342.09,-84 342.09,-90 342.09,-90 342.09,-102 342.09,-102 342.09,-108 336.09,-114 330.09,-114"/>
<text text-anchor="middle" x="281" y="-91.8" font-family="Helvetica,sans-Serif" font-size="14.00">C3_fraction_data</text>
</g>
<!-- generate_netcdf_file_for_C3_fraction&#45;&gt;C3_fraction_data -->
<g id="edge3" class="edge"><title>generate_netcdf_file_for_C3_fraction&#45;&gt;C3_fraction_data</title>
<path fill="none" stroke="black" d="M206.973,-149.876C219.55,-140.893 235.132,-129.763 248.752,-120.034"/>
<polygon fill="black" stroke="black" points="250.831,-122.85 256.934,-114.19 246.763,-117.154 250.831,-122.85"/>
</g>
<!-- generate_netcdf_file_for_C4_fraction -->
<g id="node2" class="node"><title>generate_netcdf_file_for_C4_fraction</title>
<polygon fill="#ccffcc" stroke="black" points="678.35,-186 359.65,-186 359.65,-150 678.35,-150 678.35,-186"/>
<text text-anchor="middle" x="519" y="-163.8" font-family="Courier,monospace" font-size="14.00">generate_netcdf_file_for_C4_fraction</text>
</g>
<!-- C4_fraction_data -->
<g id="node6" class="node"><title>C4_fraction_data</title>
<path fill="#ffffcc" stroke="black" d="M568.09,-114C568.09,-114 469.91,-114 469.91,-114 463.91,-114 457.91,-108 457.91,-102 457.91,-102 457.91,-90 457.91,-90 457.91,-84 463.91,-78 469.91,-78 469.91,-78 568.09,-78 568.09,-78 574.09,-78 580.09,-84 580.09,-90 580.09,-90 580.09,-102 580.09,-102 580.09,-108 574.09,-114 568.09,-114"/>
<text text-anchor="middle" x="519" y="-91.8" font-family="Helvetica,sans-Serif" font-size="14.00">C4_fraction_data</text>
</g>
<!-- generate_netcdf_file_for_C4_fraction&#45;&gt;C4_fraction_data -->
<g id="edge2" class="edge"><title>generate_netcdf_file_for_C4_fraction&#45;&gt;C4_fraction_data</title>
<path fill="none" stroke="black" d="M519,-149.697C519,-141.983 519,-132.712 519,-124.112"/>
<polygon fill="black" stroke="black" points="522.5,-124.104 519,-114.104 515.5,-124.104 522.5,-124.104"/>
</g>
<!-- generate_netcdf_file_for_Grass_fraction -->
<g id="node3" class="node"><title>generate_netcdf_file_for_Grass_fraction</title>
<polygon fill="#ccffcc" stroke="black" points="1039.55,-186 696.454,-186 696.454,-150 1039.55,-150 1039.55,-186"/>
<text text-anchor="middle" x="868" y="-163.8" font-family="Courier,monospace" font-size="14.00">generate_netcdf_file_for_Grass_fraction</text>
</g>
<!-- Grass_fraction_data -->
<g id="node7" class="node"><title>Grass_fraction_data</title>
<path fill="#ffffcc" stroke="black" d="M827.034,-114C827.034,-114 708.966,-114 708.966,-114 702.966,-114 696.966,-108 696.966,-102 696.966,-102 696.966,-90 696.966,-90 696.966,-84 702.966,-78 708.966,-78 708.966,-78 827.034,-78 827.034,-78 833.034,-78 839.034,-84 839.034,-90 839.034,-90 839.034,-102 839.034,-102 839.034,-108 833.034,-114 827.034,-114"/>
<text text-anchor="middle" x="768" y="-91.8" font-family="Helvetica,sans-Serif" font-size="14.00">Grass_fraction_data</text>
</g>
<!-- generate_netcdf_file_for_Grass_fraction&#45;&gt;Grass_fraction_data -->
<g id="edge1" class="edge"><title>generate_netcdf_file_for_Grass_fraction&#45;&gt;Grass_fraction_data</title>
<path fill="none" stroke="black" d="M843.537,-149.876C830.704,-140.893 814.804,-129.763 800.906,-120.034"/>
<polygon fill="black" stroke="black" points="802.756,-117.057 792.557,-114.19 798.742,-122.792 802.756,-117.057"/>
</g>
<!-- lat_variable -->
<g id="node4" class="node"><title>lat_variable</title>
<path fill="#ffffcc" stroke="black" d="M550.568,-258C550.568,-258 487.432,-258 487.432,-258 481.432,-258 475.432,-252 475.432,-246 475.432,-246 475.432,-234 475.432,-234 475.432,-228 481.432,-222 487.432,-222 487.432,-222 550.568,-222 550.568,-222 556.568,-222 562.568,-228 562.568,-234 562.568,-234 562.568,-246 562.568,-246 562.568,-252 556.568,-258 550.568,-258"/>
<text text-anchor="middle" x="519" y="-235.8" font-family="Helvetica,sans-Serif" font-size="14.00">lat_variable</text>
</g>
<!-- lat_variable&#45;&gt;generate_netcdf_file_for_C3_fraction -->
<g id="edge4" class="edge"><title>lat_variable&#45;&gt;generate_netcdf_file_for_C3_fraction</title>
<path fill="none" stroke="black" d="M475.418,-229.92C424.834,-219.382 340.013,-201.711 274.714,-188.107"/>
<polygon fill="black" stroke="black" points="275.323,-184.659 264.819,-186.046 273.895,-191.512 275.323,-184.659"/>
</g>
<!-- lat_variable&#45;&gt;generate_netcdf_file_for_C4_fraction -->
<g id="edge5" class="edge"><title>lat_variable&#45;&gt;generate_netcdf_file_for_C4_fraction</title>
<path fill="none" stroke="black" d="M519,-221.697C519,-213.983 519,-204.712 519,-196.112"/>
<polygon fill="black" stroke="black" points="522.5,-196.104 519,-186.104 515.5,-196.104 522.5,-196.104"/>
</g>
<!-- lat_variable&#45;&gt;generate_netcdf_file_for_Grass_fraction -->
<g id="edge6" class="edge"><title>lat_variable&#45;&gt;generate_netcdf_file_for_Grass_fraction</title>
<path fill="none" stroke="black" d="M562.848,-230.205C615.283,-219.688 704.545,-201.785 773.023,-188.05"/>
<polygon fill="black" stroke="black" points="773.853,-191.453 782.969,-186.055 772.476,-184.59 773.853,-191.453"/>
</g>
<!-- C3_fraction_data_outflow -->
<g id="node10" class="node"><title>C3_fraction_data_outflow</title>
<ellipse fill="none" stroke="black" cx="487" cy="-31" rx="7" ry="7"/>
</g>
<!-- C3_fraction_data&#45;&gt;C3_fraction_data_outflow -->
<g id="edge9" class="edge"><title>C3_fraction_data&#45;&gt;C3_fraction_data_outflow</title>
<path fill="none" stroke="black" d="M336.747,-77.9513C381.779,-64.1792 442.197,-45.7018 470.751,-36.9693"/>
<polygon fill="black" stroke="black" points="472.076,-40.2242 480.615,-33.9526 470.029,-33.5303 472.076,-40.2242"/>
</g>
<!-- C4_fraction_data_outflow -->
<g id="node9" class="node"><title>C4_fraction_data_outflow</title>
<ellipse fill="none" stroke="black" cx="519" cy="-31" rx="7" ry="7"/>
</g>
<!-- C4_fraction_data&#45;&gt;C4_fraction_data_outflow -->
<g id="edge8" class="edge"><title>C4_fraction_data&#45;&gt;C4_fraction_data_outflow</title>
<path fill="none" stroke="black" d="M519,-77.785C519,-68.6656 519,-57.5197 519,-48.5085"/>
<polygon fill="black" stroke="black" points="522.5,-48.242 519,-38.242 515.5,-48.2421 522.5,-48.242"/>
</g>
<!-- Grass_fraction_data_outflow -->
<g id="node8" class="node"><title>Grass_fraction_data_outflow</title>
<ellipse fill="none" stroke="black" cx="551" cy="-31" rx="7" ry="7"/>
</g>
<!-- Grass_fraction_data&#45;&gt;Grass_fraction_data_outflow -->
<g id="edge7" class="edge"><title>Grass_fraction_data&#45;&gt;Grass_fraction_data_outflow</title>
<path fill="none" stroke="black" d="M709.277,-77.9513C661.407,-64.0537 597.033,-45.3645 567.302,-36.7329"/>
<polygon fill="black" stroke="black" points="567.993,-33.2889 557.413,-33.862 566.041,-40.0114 567.993,-33.2889"/>
</g>
</g>
</svg>
