<?xml version="1.0" encoding="UTF-8" standalone="no"?>
<!DOCTYPE svg PUBLIC "-//W3C//DTD SVG 1.1//EN"
 "http://www.w3.org/Graphics/SVG/1.1/DTD/svg11.dtd">
<!-- Generated by graphviz version 2.38.0 (20140413.2041)
 -->
<!-- Title: yw_data_view Pages: 1 -->
<svg width="674pt" height="523pt"
 viewBox="0.00 0.00 674.00 522.80" xmlns="http://www.w3.org/2000/svg" xmlns:xlink="http://www.w3.org/1999/xlink">
<g id="graph0" class="graph" transform="scale(1 1) rotate(0) translate(4 518.8)">
<title>yw_data_view</title>
<polygon fill="white" stroke="none" points="-4,4 -4,-518.8 670,-518.8 670,4 -4,4"/>
<text text-anchor="middle" x="333" y="-494.6" font-family="Courier,monospace" font-size="18.00">C3_C4_map_present_NA</text>
<g id="clust1" class="cluster"><title>cluster_workflow</title>
<polygon fill="none" stroke="black" stroke-width="2" points="8,-62 8,-423.2 658,-423.2 658,-62 8,-62"/>
</g>
<g id="clust2" class="cluster"><title>cluster_workflow_inner</title>
<polygon fill="none" stroke="white" stroke-width="2" points="16,-70 16,-415.2 650,-415.2 650,-70 16,-70"/>
</g>
<g id="clust3" class="cluster"><title>cluster_inflows</title>
<polygon fill="none" stroke="white" stroke-width="2" points="196,-431.2 196,-477.2 242,-477.2 242,-431.2 196,-431.2"/>
</g>
<g id="clust4" class="cluster"><title>cluster_inflows_inner</title>
<polygon fill="none" stroke="white" stroke-width="2" points="204,-439.2 204,-469.2 234,-469.2 234,-439.2 204,-439.2"/>
</g>
<g id="clust5" class="cluster"><title>cluster_outflows</title>
<polygon fill="none" stroke="white" stroke-width="2" points="282,-8 282,-54 328,-54 328,-8 282,-8"/>
</g>
<g id="clust6" class="cluster"><title>cluster_outflows_inner</title>
<polygon fill="none" stroke="white" stroke-width="2" points="290,-16 290,-46 320,-46 320,-16 290,-16"/>
</g>
<!-- initialize_Grass_Matrix -->
<g id="node1" class="node"><title>initialize_Grass_Matrix</title>
<polygon fill="#ccffcc" stroke="black" points="641.668,-332.6 432.332,-332.6 432.332,-296.6 641.668,-296.6 641.668,-332.6"/>
<text text-anchor="middle" x="537" y="-310.4" font-family="Courier,monospace" font-size="14.00">initialize_Grass_Matrix</text>
</g>
<!-- Grass_variable -->
<g id="node8" class="node"><title>Grass_variable</title>
<path fill="#ffffcc" stroke="black" d="M630.121,-260.6C630.121,-260.6 543.879,-260.6 543.879,-260.6 537.879,-260.6 531.879,-254.6 531.879,-248.6 531.879,-248.6 531.879,-236.6 531.879,-236.6 531.879,-230.6 537.879,-224.6 543.879,-224.6 543.879,-224.6 630.121,-224.6 630.121,-224.6 636.121,-224.6 642.121,-230.6 642.121,-236.6 642.121,-236.6 642.121,-248.6 642.121,-248.6 642.121,-254.6 636.121,-260.6 630.121,-260.6"/>
<text text-anchor="middle" x="587" y="-238.4" font-family="Helvetica,sans-Serif" font-size="14.00">Grass_variable</text>
</g>
<!-- initialize_Grass_Matrix&#45;&gt;Grass_variable -->
<g id="edge11" class="edge"><title>initialize_Grass_Matrix&#45;&gt;Grass_variable</title>
<path fill="none" stroke="black" d="M549.36,-296.297C555.233,-288.074 562.369,-278.083 568.842,-269.021"/>
<polygon fill="black" stroke="black" points="571.818,-270.876 574.783,-260.704 566.122,-266.807 571.818,-270.876"/>
</g>
<!-- fetch_SYNMAP_land_cover_map_variable -->
<g id="node2" class="node"><title>fetch_SYNMAP_land_cover_map_variable</title>
<polygon fill="#ccffcc" stroke="black" points="378.35,-332.6 59.6502,-332.6 59.6502,-296.6 378.35,-296.6 378.35,-332.6"/>
<text text-anchor="middle" x="219" y="-310.4" font-family="Courier,monospace" font-size="14.00">fetch_SYNMAP_land_cover_map_variable</text>
</g>
<!-- lon_variable -->
<g id="node4" class="node"><title>lon_variable</title>
<path fill="#ffffcc" stroke="black" d="M103.96,-260.6C103.96,-260.6 36.0402,-260.6 36.0402,-260.6 30.0402,-260.6 24.0402,-254.6 24.0402,-248.6 24.0402,-248.6 24.0402,-236.6 24.0402,-236.6 24.0402,-230.6 30.0402,-224.6 36.0402,-224.6 36.0402,-224.6 103.96,-224.6 103.96,-224.6 109.96,-224.6 115.96,-230.6 115.96,-236.6 115.96,-236.6 115.96,-248.6 115.96,-248.6 115.96,-254.6 109.96,-260.6 103.96,-260.6"/>
<text text-anchor="middle" x="70" y="-238.4" font-family="Helvetica,sans-Serif" font-size="14.00">lon_variable</text>
</g>
<!-- fetch_SYNMAP_land_cover_map_variable&#45;&gt;lon_variable -->
<g id="edge7" class="edge"><title>fetch_SYNMAP_land_cover_map_variable&#45;&gt;lon_variable</title>
<path fill="none" stroke="black" d="M182.55,-296.476C162.362,-286.992 137.079,-275.113 115.592,-265.019"/>
<polygon fill="black" stroke="black" points="116.87,-261.753 106.331,-260.668 113.894,-268.088 116.87,-261.753"/>
</g>
<!-- lat_variable -->
<g id="node5" class="node"><title>lat_variable</title>
<path fill="#ffffcc" stroke="black" d="M209.568,-260.6C209.568,-260.6 146.432,-260.6 146.432,-260.6 140.432,-260.6 134.432,-254.6 134.432,-248.6 134.432,-248.6 134.432,-236.6 134.432,-236.6 134.432,-230.6 140.432,-224.6 146.432,-224.6 146.432,-224.6 209.568,-224.6 209.568,-224.6 215.568,-224.6 221.568,-230.6 221.568,-236.6 221.568,-236.6 221.568,-248.6 221.568,-248.6 221.568,-254.6 215.568,-260.6 209.568,-260.6"/>
<text text-anchor="middle" x="178" y="-238.4" font-family="Helvetica,sans-Serif" font-size="14.00">lat_variable</text>
</g>
<!-- fetch_SYNMAP_land_cover_map_variable&#45;&gt;lat_variable -->
<g id="edge8" class="edge"><title>fetch_SYNMAP_land_cover_map_variable&#45;&gt;lat_variable</title>
<path fill="none" stroke="black" d="M208.865,-296.297C204.148,-288.244 198.438,-278.494 193.218,-269.582"/>
<polygon fill="black" stroke="black" points="196.092,-267.564 188.018,-260.704 190.052,-271.102 196.092,-267.564"/>
</g>
<!-- lon_bnds_variable -->
<g id="node6" class="node"><title>lon_bnds_variable</title>
<path fill="#ffffcc" stroke="black" d="M357.59,-260.6C357.59,-260.6 252.41,-260.6 252.41,-260.6 246.41,-260.6 240.41,-254.6 240.41,-248.6 240.41,-248.6 240.41,-236.6 240.41,-236.6 240.41,-230.6 246.41,-224.6 252.41,-224.6 252.41,-224.6 357.59,-224.6 357.59,-224.6 363.59,-224.6 369.59,-230.6 369.59,-236.6 369.59,-236.6 369.59,-248.6 369.59,-248.6 369.59,-254.6 363.59,-260.6 357.59,-260.6"/>
<text text-anchor="middle" x="305" y="-238.4" font-family="Helvetica,sans-Serif" font-size="14.00">lon_bnds_variable</text>
</g>
<!-- fetch_SYNMAP_land_cover_map_variable&#45;&gt;lon_bnds_variable -->
<g id="edge9" class="edge"><title>fetch_SYNMAP_land_cover_map_variable&#45;&gt;lon_bnds_variable</title>
<path fill="none" stroke="black" d="M240.258,-296.297C251.089,-287.481 264.418,-276.632 276.16,-267.074"/>
<polygon fill="black" stroke="black" points="278.44,-269.732 283.986,-260.704 274.021,-264.303 278.44,-269.732"/>
</g>
<!-- lat_bnds_variable -->
<g id="node7" class="node"><title>lat_bnds_variable</title>
<path fill="#ffffcc" stroke="black" d="M501.697,-260.6C501.697,-260.6 400.303,-260.6 400.303,-260.6 394.303,-260.6 388.303,-254.6 388.303,-248.6 388.303,-248.6 388.303,-236.6 388.303,-236.6 388.303,-230.6 394.303,-224.6 400.303,-224.6 400.303,-224.6 501.697,-224.6 501.697,-224.6 507.697,-224.6 513.697,-230.6 513.697,-236.6 513.697,-236.6 513.697,-248.6 513.697,-248.6 513.697,-254.6 507.697,-260.6 501.697,-260.6"/>
<text text-anchor="middle" x="451" y="-238.4" font-family="Helvetica,sans-Serif" font-size="14.00">lat_bnds_variable</text>
</g>
<!-- fetch_SYNMAP_land_cover_map_variable&#45;&gt;lat_bnds_variable -->
<g id="edge10" class="edge"><title>fetch_SYNMAP_land_cover_map_variable&#45;&gt;lat_bnds_variable</title>
<path fill="none" stroke="black" d="M275.457,-296.566C308.295,-286.657 349.868,-274.114 384.313,-263.721"/>
<polygon fill="black" stroke="black" points="385.727,-266.95 394.29,-260.711 383.705,-260.249 385.727,-266.95"/>
</g>
<!-- generate_netcdf_file_for_Grass_fraction -->
<g id="node3" class="node"><title>generate_netcdf_file_for_Grass_fraction</title>
<polygon fill="#ccffcc" stroke="black" points="476.546,-188.6 133.454,-188.6 133.454,-152.6 476.546,-152.6 476.546,-188.6"/>
<text text-anchor="middle" x="305" y="-166.4" font-family="Courier,monospace" font-size="14.00">generate_netcdf_file_for_Grass_fraction</text>
</g>
<!-- Grass_fraction_data -->
<g id="node10" class="node"><title>Grass_fraction_data</title>
<path fill="#ffe4b5" stroke="black" d="M171.323,-78.5C171.323,-78.5 438.677,-78.5 438.677,-78.5 444.677,-78.5 450.677,-84.5 450.677,-90.5 450.677,-90.5 450.677,-104.1 450.677,-104.1 450.677,-110.1 444.677,-116.1 438.677,-116.1 438.677,-116.1 171.323,-116.1 171.323,-116.1 165.323,-116.1 159.323,-110.1 159.323,-104.1 159.323,-104.1 159.323,-90.5 159.323,-90.5 159.323,-84.5 165.323,-78.5 171.323,-78.5"/>
<text text-anchor="middle" x="305" y="-104" font-family="Courier,monospace" font-weight="bold" font-size="9.00">[data21] Grass_fraction_data</text>
<polyline fill="none" stroke="black" points="159.323,-97.3 450.677,-97.3 "/>
<text text-anchor="start" x="167.323" y="-85.2" font-family="Courier,monospace" font-weight="bold" font-size="9.00">outputs/SYNMAP_PRESENTVEG_Grass_Fraction_NA_v2.0.nc</text>
</g>
<!-- generate_netcdf_file_for_Grass_fraction&#45;&gt;Grass_fraction_data -->
<g id="edge12" class="edge"><title>generate_netcdf_file_for_Grass_fraction&#45;&gt;Grass_fraction_data</title>
<path fill="none" stroke="black" d="M305,-152.34C305,-144.605 305,-135.279 305,-126.568"/>
<polygon fill="black" stroke="black" points="308.5,-126.396 305,-116.396 301.5,-126.396 308.5,-126.396"/>
</g>
<!-- lon_variable&#45;&gt;generate_netcdf_file_for_Grass_fraction -->
<g id="edge5" class="edge"><title>lon_variable&#45;&gt;generate_netcdf_file_for_Grass_fraction</title>
<path fill="none" stroke="black" d="M115.902,-227.362C118.98,-226.423 122.034,-225.495 125,-224.6 161.759,-213.508 202.826,-201.395 236.441,-191.552"/>
<polygon fill="black" stroke="black" points="237.552,-194.874 246.167,-188.707 235.587,-188.155 237.552,-194.874"/>
</g>
<!-- lat_variable&#45;&gt;generate_netcdf_file_for_Grass_fraction -->
<g id="edge4" class="edge"><title>lat_variable&#45;&gt;generate_netcdf_file_for_Grass_fraction</title>
<path fill="none" stroke="black" d="M209.068,-224.476C225.827,-215.239 246.706,-203.731 264.702,-193.812"/>
<polygon fill="black" stroke="black" points="266.745,-196.682 273.813,-188.79 263.366,-190.552 266.745,-196.682"/>
</g>
<!-- lon_bnds_variable&#45;&gt;generate_netcdf_file_for_Grass_fraction -->
<g id="edge3" class="edge"><title>lon_bnds_variable&#45;&gt;generate_netcdf_file_for_Grass_fraction</title>
<path fill="none" stroke="black" d="M305,-224.297C305,-216.583 305,-207.312 305,-198.712"/>
<polygon fill="black" stroke="black" points="308.5,-198.704 305,-188.704 301.5,-198.704 308.5,-198.704"/>
</g>
<!-- lat_bnds_variable&#45;&gt;generate_netcdf_file_for_Grass_fraction -->
<g id="edge2" class="edge"><title>lat_bnds_variable&#45;&gt;generate_netcdf_file_for_Grass_fraction</title>
<path fill="none" stroke="black" d="M415.284,-224.476C395.503,-214.992 370.728,-203.113 349.674,-193.019"/>
<polygon fill="black" stroke="black" points="351.13,-189.836 340.6,-188.668 348.104,-196.148 351.13,-189.836"/>
</g>
<!-- Grass_variable&#45;&gt;generate_netcdf_file_for_Grass_fraction -->
<g id="edge1" class="edge"><title>Grass_variable&#45;&gt;generate_netcdf_file_for_Grass_fraction</title>
<path fill="none" stroke="black" d="M531.861,-226.875C528.865,-226.099 525.897,-225.337 523,-224.6 478.014,-213.158 427.669,-200.884 386.704,-191.031"/>
<polygon fill="black" stroke="black" points="387.311,-187.577 376.77,-188.645 385.676,-194.384 387.311,-187.577"/>
</g>
<!-- SYNMAP_land_cover_map_data -->
<g id="node9" class="node"><title>SYNMAP_land_cover_map_data</title>
<path fill="#ffe4b5" stroke="black" d="M131.215,-369.1C131.215,-369.1 306.785,-369.1 306.785,-369.1 312.785,-369.1 318.785,-375.1 318.785,-381.1 318.785,-381.1 318.785,-394.7 318.785,-394.7 318.785,-400.7 312.785,-406.7 306.785,-406.7 306.785,-406.7 131.215,-406.7 131.215,-406.7 125.215,-406.7 119.215,-400.7 119.215,-394.7 119.215,-394.7 119.215,-381.1 119.215,-381.1 119.215,-375.1 125.215,-369.1 131.215,-369.1"/>
<text text-anchor="middle" x="219" y="-394.6" font-family="Courier,monospace" font-weight="bold" font-size="9.00">[data7] SYNMAP_land_cover_map_data</text>
<polyline fill="none" stroke="black" points="119.215,-387.9 318.785,-387.9 "/>
<text text-anchor="start" x="127.215" y="-375.8" font-family="Courier,monospace" font-weight="bold" font-size="9.00">inputs/land_cover/SYNMAP_NA_QD.nc</text>
</g>
<!-- SYNMAP_land_cover_map_data&#45;&gt;fetch_SYNMAP_land_cover_map_variable -->
<g id="edge6" class="edge"><title>SYNMAP_land_cover_map_data&#45;&gt;fetch_SYNMAP_land_cover_map_variable</title>
<path fill="none" stroke="black" d="M219,-368.908C219,-361.048 219,-351.656 219,-342.96"/>
<polygon fill="black" stroke="black" points="222.5,-342.848 219,-332.848 215.5,-342.848 222.5,-342.848"/>
</g>
<!-- Grass_fraction_data_outflow -->
<g id="node12" class="node"><title>Grass_fraction_data_outflow</title>
<ellipse fill="none" stroke="black" cx="305" cy="-31" rx="7" ry="7"/>
</g>
<!-- Grass_fraction_data&#45;&gt;Grass_fraction_data_outflow -->
<g id="edge14" class="edge"><title>Grass_fraction_data&#45;&gt;Grass_fraction_data_outflow</title>
<path fill="none" stroke="black" d="M305,-78.3889C305,-68.9828 305,-57.5389 305,-48.3712"/>
<polygon fill="black" stroke="black" points="308.5,-48.3008 305,-38.3008 301.5,-48.3008 308.5,-48.3008"/>
</g>
<!-- SYNMAP_land_cover_map_data_inflow -->
<g id="node11" class="node"><title>SYNMAP_land_cover_map_data_inflow</title>
<ellipse fill="none" stroke="black" cx="219" cy="-454.2" rx="7" ry="7"/>
</g>
<!-- SYNMAP_land_cover_map_data_inflow&#45;&gt;SYNMAP_land_cover_map_data -->
<g id="edge13" class="edge"><title>SYNMAP_land_cover_map_data_inflow&#45;&gt;SYNMAP_land_cover_map_data</title>
<path fill="none" stroke="black" d="M219,-446.8C219,-439.819 219,-428.163 219,-417.132"/>
<polygon fill="black" stroke="black" points="222.5,-416.921 219,-406.921 215.5,-416.921 222.5,-416.921"/>
</g>
</g>
</svg>
