<?xml version="1.0" encoding="UTF-8" standalone="no"?>
<!DOCTYPE svg PUBLIC "-//W3C//DTD SVG 1.1//EN"
 "http://www.w3.org/Graphics/SVG/1.1/DTD/svg11.dtd">
<!-- Generated by graphviz version 2.38.0 (20140413.2041)
 -->
<!-- Title: yw_data_view Pages: 1 -->
<svg width="810pt" height="788pt"
 viewBox="0.00 0.00 810.17 788.20" xmlns="http://www.w3.org/2000/svg" xmlns:xlink="http://www.w3.org/1999/xlink">
<g id="graph0" class="graph" transform="scale(1 1) rotate(0) translate(4 784.2)">
<title>yw_data_view</title>
<polygon fill="white" stroke="none" points="-4,4 -4,-784.2 806.166,-784.2 806.166,4 -4,4"/>
<text text-anchor="middle" x="401.083" y="-760" font-family="Courier,monospace" font-size="18.00">C3_C4_map_present_NA</text>
<g id="clust1" class="cluster"><title>cluster_workflow</title>
<polygon fill="none" stroke="black" stroke-width="2" points="8,-62 8,-688.6 786,-688.6 786,-62 8,-62"/>
</g>
<g id="clust2" class="cluster"><title>cluster_workflow_inner</title>
<polygon fill="none" stroke="white" stroke-width="2" points="16,-70 16,-680.6 778,-680.6 778,-70 16,-70"/>
</g>
<g id="clust3" class="cluster"><title>cluster_inflows</title>
<polygon fill="none" stroke="white" stroke-width="2" points="540,-696.6 540,-742.6 650,-742.6 650,-696.6 540,-696.6"/>
</g>
<g id="clust4" class="cluster"><title>cluster_inflows_inner</title>
<polygon fill="none" stroke="white" stroke-width="2" points="548,-704.6 548,-734.6 642,-734.6 642,-704.6 548,-704.6"/>
</g>
<g id="clust5" class="cluster"><title>cluster_outflows</title>
<polygon fill="none" stroke="white" stroke-width="2" points="411,-8 411,-54 457,-54 457,-8 411,-8"/>
</g>
<g id="clust6" class="cluster"><title>cluster_outflows_inner</title>
<polygon fill="none" stroke="white" stroke-width="2" points="419,-16 419,-46 449,-46 449,-16 419,-16"/>
</g>
<!-- examine_pixels_for_grass -->
<g id="node1" class="node"><title>examine_pixels_for_grass</title>
<polygon fill="#ccffcc" stroke="black" points="335.567,-332.6 118.433,-332.6 118.433,-296.6 335.567,-296.6 335.567,-332.6"/>
<text text-anchor="middle" x="227" y="-310.4" font-family="Courier,monospace" font-size="14.00">examine_pixels_for_grass</text>
</g>
<!-- C3_Data -->
<g id="node12" class="node"><title>C3_Data</title>
<path fill="#ffffcc" stroke="black" d="M250.735,-260.6C250.735,-260.6 203.265,-260.6 203.265,-260.6 197.265,-260.6 191.265,-254.6 191.265,-248.6 191.265,-248.6 191.265,-236.6 191.265,-236.6 191.265,-230.6 197.265,-224.6 203.265,-224.6 203.265,-224.6 250.735,-224.6 250.735,-224.6 256.735,-224.6 262.735,-230.6 262.735,-236.6 262.735,-236.6 262.735,-248.6 262.735,-248.6 262.735,-254.6 256.735,-260.6 250.735,-260.6"/>
<text text-anchor="middle" x="227" y="-238.4" font-family="Helvetica,sans-Serif" font-size="14.00">C3_Data</text>
</g>
<!-- examine_pixels_for_grass&#45;&gt;C3_Data -->
<g id="edge17" class="edge"><title>examine_pixels_for_grass&#45;&gt;C3_Data</title>
<path fill="none" stroke="black" d="M227,-296.297C227,-288.583 227,-279.312 227,-270.712"/>
<polygon fill="black" stroke="black" points="230.5,-270.704 227,-260.704 223.5,-270.704 230.5,-270.704"/>
</g>
<!-- fetch_SYNMAP_land_cover_map_variable -->
<g id="node2" class="node"><title>fetch_SYNMAP_land_cover_map_variable</title>
<polygon fill="#ccffcc" stroke="black" points="720.35,-332.6 401.65,-332.6 401.65,-296.6 720.35,-296.6 720.35,-332.6"/>
<text text-anchor="middle" x="561" y="-310.4" font-family="Courier,monospace" font-size="14.00">fetch_SYNMAP_land_cover_map_variable</text>
</g>
<!-- lon_variable -->
<g id="node6" class="node"><title>lon_variable</title>
<path fill="#ffffcc" stroke="black" d="M359.96,-260.6C359.96,-260.6 292.04,-260.6 292.04,-260.6 286.04,-260.6 280.04,-254.6 280.04,-248.6 280.04,-248.6 280.04,-236.6 280.04,-236.6 280.04,-230.6 286.04,-224.6 292.04,-224.6 292.04,-224.6 359.96,-224.6 359.96,-224.6 365.96,-224.6 371.96,-230.6 371.96,-236.6 371.96,-236.6 371.96,-248.6 371.96,-248.6 371.96,-254.6 365.96,-260.6 359.96,-260.6"/>
<text text-anchor="middle" x="326" y="-238.4" font-family="Helvetica,sans-Serif" font-size="14.00">lon_variable</text>
</g>
<!-- fetch_SYNMAP_land_cover_map_variable&#45;&gt;lon_variable -->
<g id="edge11" class="edge"><title>fetch_SYNMAP_land_cover_map_variable&#45;&gt;lon_variable</title>
<path fill="none" stroke="black" d="M502.167,-296.493C469.312,-286.89 427.397,-274.556 381.707,-260.796"/>
<polygon fill="black" stroke="black" points="382.487,-257.375 371.902,-257.838 380.465,-264.077 382.487,-257.375"/>
</g>
<!-- lat_variable -->
<g id="node7" class="node"><title>lat_variable</title>
<path fill="#ffffcc" stroke="black" d="M465.568,-260.6C465.568,-260.6 402.432,-260.6 402.432,-260.6 396.432,-260.6 390.432,-254.6 390.432,-248.6 390.432,-248.6 390.432,-236.6 390.432,-236.6 390.432,-230.6 396.432,-224.6 402.432,-224.6 402.432,-224.6 465.568,-224.6 465.568,-224.6 471.568,-224.6 477.568,-230.6 477.568,-236.6 477.568,-236.6 477.568,-248.6 477.568,-248.6 477.568,-254.6 471.568,-260.6 465.568,-260.6"/>
<text text-anchor="middle" x="434" y="-238.4" font-family="Helvetica,sans-Serif" font-size="14.00">lat_variable</text>
</g>
<!-- fetch_SYNMAP_land_cover_map_variable&#45;&gt;lat_variable -->
<g id="edge12" class="edge"><title>fetch_SYNMAP_land_cover_map_variable&#45;&gt;lat_variable</title>
<path fill="none" stroke="black" d="M529.932,-296.476C513.173,-287.239 492.294,-275.731 474.298,-265.812"/>
<polygon fill="black" stroke="black" points="475.634,-262.552 465.187,-260.79 472.255,-268.682 475.634,-262.552"/>
</g>
<!-- lon_bnds_variable -->
<g id="node8" class="node"><title>lon_bnds_variable</title>
<path fill="#ffffcc" stroke="black" d="M613.59,-260.6C613.59,-260.6 508.41,-260.6 508.41,-260.6 502.41,-260.6 496.41,-254.6 496.41,-248.6 496.41,-248.6 496.41,-236.6 496.41,-236.6 496.41,-230.6 502.41,-224.6 508.41,-224.6 508.41,-224.6 613.59,-224.6 613.59,-224.6 619.59,-224.6 625.59,-230.6 625.59,-236.6 625.59,-236.6 625.59,-248.6 625.59,-248.6 625.59,-254.6 619.59,-260.6 613.59,-260.6"/>
<text text-anchor="middle" x="561" y="-238.4" font-family="Helvetica,sans-Serif" font-size="14.00">lon_bnds_variable</text>
</g>
<!-- fetch_SYNMAP_land_cover_map_variable&#45;&gt;lon_bnds_variable -->
<g id="edge13" class="edge"><title>fetch_SYNMAP_land_cover_map_variable&#45;&gt;lon_bnds_variable</title>
<path fill="none" stroke="black" d="M561,-296.297C561,-288.583 561,-279.312 561,-270.712"/>
<polygon fill="black" stroke="black" points="564.5,-270.704 561,-260.704 557.5,-270.704 564.5,-270.704"/>
</g>
<!-- lat_bnds_variable -->
<g id="node9" class="node"><title>lat_bnds_variable</title>
<path fill="#ffffcc" stroke="black" d="M757.697,-260.6C757.697,-260.6 656.303,-260.6 656.303,-260.6 650.303,-260.6 644.303,-254.6 644.303,-248.6 644.303,-248.6 644.303,-236.6 644.303,-236.6 644.303,-230.6 650.303,-224.6 656.303,-224.6 656.303,-224.6 757.697,-224.6 757.697,-224.6 763.697,-224.6 769.697,-230.6 769.697,-236.6 769.697,-236.6 769.697,-248.6 769.697,-248.6 769.697,-254.6 763.697,-260.6 757.697,-260.6"/>
<text text-anchor="middle" x="707" y="-238.4" font-family="Helvetica,sans-Serif" font-size="14.00">lat_bnds_variable</text>
</g>
<!-- fetch_SYNMAP_land_cover_map_variable&#45;&gt;lat_bnds_variable -->
<g id="edge14" class="edge"><title>fetch_SYNMAP_land_cover_map_variable&#45;&gt;lat_bnds_variable</title>
<path fill="none" stroke="black" d="M596.716,-296.476C616.497,-286.992 641.272,-275.113 662.326,-265.019"/>
<polygon fill="black" stroke="black" points="663.896,-268.148 671.4,-260.668 660.87,-261.836 663.896,-268.148"/>
</g>
<!-- fetch_monthly_mean_precipitation_data -->
<g id="node3" class="node"><title>fetch_monthly_mean_precipitation_data</title>
<polygon fill="#ccffcc" stroke="black" points="380.248,-479.2 53.7517,-479.2 53.7517,-443.2 380.248,-443.2 380.248,-479.2"/>
<text text-anchor="middle" x="217" y="-457" font-family="Courier,monospace" font-size="14.00">fetch_monthly_mean_precipitation_data</text>
</g>
<!-- Rain_Matrix -->
<g id="node11" class="node"><title>Rain_Matrix</title>
<path fill="#ffffcc" stroke="black" d="M253.163,-405.9C253.163,-405.9 186.837,-405.9 186.837,-405.9 180.837,-405.9 174.837,-399.9 174.837,-393.9 174.837,-393.9 174.837,-381.9 174.837,-381.9 174.837,-375.9 180.837,-369.9 186.837,-369.9 186.837,-369.9 253.163,-369.9 253.163,-369.9 259.163,-369.9 265.163,-375.9 265.163,-381.9 265.163,-381.9 265.163,-393.9 265.163,-393.9 265.163,-399.9 259.163,-405.9 253.163,-405.9"/>
<text text-anchor="middle" x="220" y="-383.7" font-family="Helvetica,sans-Serif" font-size="14.00">Rain_Matrix</text>
</g>
<!-- fetch_monthly_mean_precipitation_data&#45;&gt;Rain_Matrix -->
<g id="edge16" class="edge"><title>fetch_monthly_mean_precipitation_data&#45;&gt;Rain_Matrix</title>
<path fill="none" stroke="black" d="M217.726,-442.94C218.065,-434.883 218.477,-425.1 218.856,-416.084"/>
<polygon fill="black" stroke="black" points="222.357,-416.139 219.28,-406.001 215.363,-415.845 222.357,-416.139"/>
</g>
<!-- fetch_monthly_mean_air_temperature_data -->
<g id="node4" class="node"><title>fetch_monthly_mean_air_temperature_data</title>
<polygon fill="#ccffcc" stroke="black" points="759.546,-479.2 416.454,-479.2 416.454,-443.2 759.546,-443.2 759.546,-479.2"/>
<text text-anchor="middle" x="588" y="-457" font-family="Courier,monospace" font-size="14.00">fetch_monthly_mean_air_temperature_data</text>
</g>
<!-- Tair_Matrix -->
<g id="node10" class="node"><title>Tair_Matrix</title>
<path fill="#ffffcc" stroke="black" d="M447.986,-405.9C447.986,-405.9 386.014,-405.9 386.014,-405.9 380.014,-405.9 374.014,-399.9 374.014,-393.9 374.014,-393.9 374.014,-381.9 374.014,-381.9 374.014,-375.9 380.014,-369.9 386.014,-369.9 386.014,-369.9 447.986,-369.9 447.986,-369.9 453.986,-369.9 459.986,-375.9 459.986,-381.9 459.986,-381.9 459.986,-393.9 459.986,-393.9 459.986,-399.9 453.986,-405.9 447.986,-405.9"/>
<text text-anchor="middle" x="417" y="-383.7" font-family="Helvetica,sans-Serif" font-size="14.00">Tair_Matrix</text>
</g>
<!-- fetch_monthly_mean_air_temperature_data&#45;&gt;Tair_Matrix -->
<g id="edge15" class="edge"><title>fetch_monthly_mean_air_temperature_data&#45;&gt;Tair_Matrix</title>
<path fill="none" stroke="black" d="M547.041,-443.122C523.123,-433.149 492.752,-420.486 467.377,-409.905"/>
<polygon fill="black" stroke="black" points="468.497,-406.58 457.921,-405.962 465.803,-413.041 468.497,-406.58"/>
</g>
<!-- generate_netcdf_file_for_C3_fraction -->
<g id="node5" class="node"><title>generate_netcdf_file_for_C3_fraction</title>
<polygon fill="#ccffcc" stroke="black" points="593.35,-188.6 274.65,-188.6 274.65,-152.6 593.35,-152.6 593.35,-188.6"/>
<text text-anchor="middle" x="434" y="-166.4" font-family="Courier,monospace" font-size="14.00">generate_netcdf_file_for_C3_fraction</text>
</g>
<!-- C3_fraction_data -->
<g id="node16" class="node"><title>C3_fraction_data</title>
<path fill="#ffe4b5" stroke="black" d="M294.924,-78.5C294.924,-78.5 573.076,-78.5 573.076,-78.5 579.076,-78.5 585.076,-84.5 585.076,-90.5 585.076,-90.5 585.076,-104.1 585.076,-104.1 585.076,-110.1 579.076,-116.1 573.076,-116.1 573.076,-116.1 294.924,-116.1 294.924,-116.1 288.924,-116.1 282.924,-110.1 282.924,-104.1 282.924,-104.1 282.924,-90.5 282.924,-90.5 282.924,-84.5 288.924,-78.5 294.924,-78.5"/>
<text text-anchor="middle" x="434" y="-104" font-family="Courier,monospace" font-weight="bold" font-size="9.00">[data19] C3_fraction_data</text>
<polyline fill="none" stroke="black" points="282.924,-97.3 585.076,-97.3 "/>
<text text-anchor="start" x="290.924" y="-85.2" font-family="Courier,monospace" font-weight="bold" font-size="9.00">outputs/SYNMAP_PRESENTVEG_C3Grass_RelaFrac_NA_v2.0.nc</text>
</g>
<!-- generate_netcdf_file_for_C3_fraction&#45;&gt;C3_fraction_data -->
<g id="edge18" class="edge"><title>generate_netcdf_file_for_C3_fraction&#45;&gt;C3_fraction_data</title>
<path fill="none" stroke="black" d="M434,-152.34C434,-144.605 434,-135.279 434,-126.568"/>
<polygon fill="black" stroke="black" points="437.5,-126.396 434,-116.396 430.5,-126.396 437.5,-126.396"/>
</g>
<!-- lon_variable&#45;&gt;generate_netcdf_file_for_C3_fraction -->
<g id="edge4" class="edge"><title>lon_variable&#45;&gt;generate_netcdf_file_for_C3_fraction</title>
<path fill="none" stroke="black" d="M352.42,-224.476C366.41,-215.408 383.776,-204.152 398.886,-194.359"/>
<polygon fill="black" stroke="black" points="400.991,-197.166 407.479,-188.79 397.183,-191.292 400.991,-197.166"/>
</g>
<!-- lat_variable&#45;&gt;generate_netcdf_file_for_C3_fraction -->
<g id="edge6" class="edge"><title>lat_variable&#45;&gt;generate_netcdf_file_for_C3_fraction</title>
<path fill="none" stroke="black" d="M434,-224.297C434,-216.583 434,-207.312 434,-198.712"/>
<polygon fill="black" stroke="black" points="437.5,-198.704 434,-188.704 430.5,-198.704 437.5,-198.704"/>
</g>
<!-- lon_bnds_variable&#45;&gt;generate_netcdf_file_for_C3_fraction -->
<g id="edge9" class="edge"><title>lon_bnds_variable&#45;&gt;generate_netcdf_file_for_C3_fraction</title>
<path fill="none" stroke="black" d="M529.932,-224.476C513.173,-215.239 492.294,-203.731 474.298,-193.812"/>
<polygon fill="black" stroke="black" points="475.634,-190.552 465.187,-188.79 472.255,-196.682 475.634,-190.552"/>
</g>
<!-- lat_bnds_variable&#45;&gt;generate_netcdf_file_for_C3_fraction -->
<g id="edge10" class="edge"><title>lat_bnds_variable&#45;&gt;generate_netcdf_file_for_C3_fraction</title>
<path fill="none" stroke="black" d="M644.026,-225.453C604.227,-215.248 552.543,-201.996 510.406,-191.191"/>
<polygon fill="black" stroke="black" points="511.022,-187.736 500.466,-188.643 509.284,-194.517 511.022,-187.736"/>
</g>
<!-- Tair_Matrix&#45;&gt;examine_pixels_for_grass -->
<g id="edge1" class="edge"><title>Tair_Matrix&#45;&gt;examine_pixels_for_grass</title>
<path fill="none" stroke="black" d="M373.886,-370.721C346.736,-360.533 311.431,-347.284 282.238,-336.329"/>
<polygon fill="black" stroke="black" points="283.185,-332.946 272.593,-332.709 280.726,-339.5 283.185,-332.946"/>
</g>
<!-- Rain_Matrix&#45;&gt;examine_pixels_for_grass -->
<g id="edge3" class="edge"><title>Rain_Matrix&#45;&gt;examine_pixels_for_grass</title>
<path fill="none" stroke="black" d="M221.695,-369.64C222.486,-361.583 223.446,-351.8 224.331,-342.784"/>
<polygon fill="black" stroke="black" points="227.827,-342.995 225.321,-332.701 220.861,-342.311 227.827,-342.995"/>
</g>
<!-- C3_Data&#45;&gt;generate_netcdf_file_for_C3_fraction -->
<g id="edge8" class="edge"><title>C3_Data&#45;&gt;generate_netcdf_file_for_C3_fraction</title>
<path fill="none" stroke="black" d="M262.959,-227.524C265.674,-226.517 268.376,-225.533 271,-224.6 303.258,-213.134 339.442,-201.269 369.51,-191.68"/>
<polygon fill="black" stroke="black" points="370.574,-195.015 379.044,-188.65 368.454,-188.343 370.574,-195.015"/>
</g>
<!-- SYNMAP_land_cover_map_data -->
<g id="node13" class="node"><title>SYNMAP_land_cover_map_data</title>
<path fill="#ffe4b5" stroke="black" d="M527.215,-369.1C527.215,-369.1 702.785,-369.1 702.785,-369.1 708.785,-369.1 714.785,-375.1 714.785,-381.1 714.785,-381.1 714.785,-394.7 714.785,-394.7 714.785,-400.7 708.785,-406.7 702.785,-406.7 702.785,-406.7 527.215,-406.7 527.215,-406.7 521.215,-406.7 515.215,-400.7 515.215,-394.7 515.215,-394.7 515.215,-381.1 515.215,-381.1 515.215,-375.1 521.215,-369.1 527.215,-369.1"/>
<text text-anchor="middle" x="615" y="-394.6" font-family="Courier,monospace" font-weight="bold" font-size="9.00">[data7] SYNMAP_land_cover_map_data</text>
<polyline fill="none" stroke="black" points="515.215,-387.9 714.785,-387.9 "/>
<text text-anchor="start" x="523.215" y="-375.8" font-family="Courier,monospace" font-weight="bold" font-size="9.00">inputs/land_cover/SYNMAP_NA_QD.nc</text>
</g>
<!-- SYNMAP_land_cover_map_data&#45;&gt;fetch_SYNMAP_land_cover_map_variable -->
<g id="edge2" class="edge"><title>SYNMAP_land_cover_map_data&#45;&gt;fetch_SYNMAP_land_cover_map_variable</title>
<path fill="none" stroke="black" d="M601.374,-368.908C594.963,-360.443 587.206,-350.201 580.212,-340.967"/>
<polygon fill="black" stroke="black" points="582.891,-338.707 574.063,-332.848 577.311,-342.933 582.891,-338.707"/>
</g>
<!-- mean_airtemp -->
<g id="node14" class="node"><title>mean_airtemp</title>
<path fill="#ffe4b5" stroke="black" d="M431.628,-515.7C431.628,-515.7 758.372,-515.7 758.372,-515.7 764.372,-515.7 770.372,-521.7 770.372,-527.7 770.372,-527.7 770.372,-660.1 770.372,-660.1 770.372,-666.1 764.372,-672.1 758.372,-672.1 758.372,-672.1 431.628,-672.1 431.628,-672.1 425.628,-672.1 419.628,-666.1 419.628,-660.1 419.628,-660.1 419.628,-527.7 419.628,-527.7 419.628,-521.7 425.628,-515.7 431.628,-515.7"/>
<text text-anchor="middle" x="595" y="-660" font-family="Courier,monospace" font-weight="bold" font-size="9.00">[data12] mean_airtemp</text>
<polyline fill="none" stroke="black" points="419.628,-653.3 770.372,-653.3 "/>
<text text-anchor="start" x="427.628" y="-641.2" font-family="Courier,monospace" font-weight="bold" font-size="9.00">inputs/narr_air.2m_monthly/air.2m_monthly_2000_2010_mean.7.nc</text>
<text text-anchor="start" x="427.628" y="-630.4" font-family="Courier,monospace" font-weight="bold" font-size="9.00">inputs/narr_air.2m_monthly/air.2m_monthly_2000_2010_mean.1.nc</text>
<text text-anchor="start" x="427.628" y="-619.6" font-family="Courier,monospace" font-weight="bold" font-size="9.00">inputs/narr_air.2m_monthly/air.2m_monthly_2000_2010_mean.8.nc</text>
<text text-anchor="start" x="427.628" y="-608.8" font-family="Courier,monospace" font-weight="bold" font-size="9.00">inputs/narr_air.2m_monthly/air.2m_monthly_2000_2010_mean.2.nc</text>
<text text-anchor="start" x="427.628" y="-598" font-family="Courier,monospace" font-weight="bold" font-size="9.00">inputs/narr_air.2m_monthly/air.2m_monthly_2000_2010_mean.9.nc</text>
<text text-anchor="start" x="427.628" y="-587.2" font-family="Courier,monospace" font-weight="bold" font-size="9.00">inputs/narr_air.2m_monthly/air.2m_monthly_2000_2010_mean.3.nc</text>
<text text-anchor="start" x="427.628" y="-576.4" font-family="Courier,monospace" font-weight="bold" font-size="9.00">inputs/narr_air.2m_monthly/air.2m_monthly_2000_2010_mean.10.nc</text>
<text text-anchor="start" x="427.628" y="-565.6" font-family="Courier,monospace" font-weight="bold" font-size="9.00">inputs/narr_air.2m_monthly/air.2m_monthly_2000_2010_mean.4.nc</text>
<text text-anchor="start" x="427.628" y="-554.8" font-family="Courier,monospace" font-weight="bold" font-size="9.00">inputs/narr_air.2m_monthly/air.2m_monthly_2000_2010_mean.11.nc</text>
<text text-anchor="start" x="427.628" y="-544" font-family="Courier,monospace" font-weight="bold" font-size="9.00">inputs/narr_air.2m_monthly/air.2m_monthly_2000_2010_mean.5.nc</text>
<text text-anchor="start" x="427.628" y="-533.2" font-family="Courier,monospace" font-weight="bold" font-size="9.00">inputs/narr_air.2m_monthly/air.2m_monthly_2000_2010_mean.12.nc</text>
<text text-anchor="start" x="427.628" y="-522.4" font-family="Courier,monospace" font-weight="bold" font-size="9.00">inputs/narr_air.2m_monthly/air.2m_monthly_2000_2010_mean.6.nc</text>
</g>
<!-- mean_airtemp&#45;&gt;fetch_monthly_mean_air_temperature_data -->
<g id="edge5" class="edge"><title>mean_airtemp&#45;&gt;fetch_monthly_mean_air_temperature_data</title>
<path fill="none" stroke="black" d="M590.847,-515.361C590.359,-506.245 589.888,-497.456 589.475,-489.74"/>
<polygon fill="black" stroke="black" points="592.963,-489.422 588.933,-479.624 585.973,-489.796 592.963,-489.422"/>
</g>
<!-- mean_precip -->
<g id="node15" class="node"><title>mean_precip</title>
<path fill="#ffe4b5" stroke="black" d="M36.1301,-515.7C36.1301,-515.7 389.87,-515.7 389.87,-515.7 395.87,-515.7 401.87,-521.7 401.87,-527.7 401.87,-527.7 401.87,-660.1 401.87,-660.1 401.87,-666.1 395.87,-672.1 389.87,-672.1 389.87,-672.1 36.1301,-672.1 36.1301,-672.1 30.1301,-672.1 24.1301,-666.1 24.1301,-660.1 24.1301,-660.1 24.1301,-527.7 24.1301,-527.7 24.1301,-521.7 30.1301,-515.7 36.1301,-515.7"/>
<text text-anchor="middle" x="213" y="-660" font-family="Courier,monospace" font-weight="bold" font-size="9.00">[data14] mean_precip</text>
<polyline fill="none" stroke="black" points="24.1301,-653.3 401.87,-653.3 "/>
<text text-anchor="start" x="32.1301" y="-641.2" font-family="Courier,monospace" font-weight="bold" font-size="9.00">inputs/narr_apcp_rescaled_monthly/apcp_monthly_2000_2010_mean.7.nc</text>
<text text-anchor="start" x="32.1301" y="-630.4" font-family="Courier,monospace" font-weight="bold" font-size="9.00">inputs/narr_apcp_rescaled_monthly/apcp_monthly_2000_2010_mean.1.nc</text>
<text text-anchor="start" x="32.1301" y="-619.6" font-family="Courier,monospace" font-weight="bold" font-size="9.00">inputs/narr_apcp_rescaled_monthly/apcp_monthly_2000_2010_mean.8.nc</text>
<text text-anchor="start" x="32.1301" y="-608.8" font-family="Courier,monospace" font-weight="bold" font-size="9.00">inputs/narr_apcp_rescaled_monthly/apcp_monthly_2000_2010_mean.2.nc</text>
<text text-anchor="start" x="32.1301" y="-598" font-family="Courier,monospace" font-weight="bold" font-size="9.00">inputs/narr_apcp_rescaled_monthly/apcp_monthly_2000_2010_mean.9.nc</text>
<text text-anchor="start" x="32.1301" y="-587.2" font-family="Courier,monospace" font-weight="bold" font-size="9.00">inputs/narr_apcp_rescaled_monthly/apcp_monthly_2000_2010_mean.3.nc</text>
<text text-anchor="start" x="32.1301" y="-576.4" font-family="Courier,monospace" font-weight="bold" font-size="9.00">inputs/narr_apcp_rescaled_monthly/apcp_monthly_2000_2010_mean.10.nc</text>
<text text-anchor="start" x="32.1301" y="-565.6" font-family="Courier,monospace" font-weight="bold" font-size="9.00">inputs/narr_apcp_rescaled_monthly/apcp_monthly_2000_2010_mean.4.nc</text>
<text text-anchor="start" x="32.1301" y="-554.8" font-family="Courier,monospace" font-weight="bold" font-size="9.00">inputs/narr_apcp_rescaled_monthly/apcp_monthly_2000_2010_mean.11.nc</text>
<text text-anchor="start" x="32.1301" y="-544" font-family="Courier,monospace" font-weight="bold" font-size="9.00">inputs/narr_apcp_rescaled_monthly/apcp_monthly_2000_2010_mean.5.nc</text>
<text text-anchor="start" x="32.1301" y="-533.2" font-family="Courier,monospace" font-weight="bold" font-size="9.00">inputs/narr_apcp_rescaled_monthly/apcp_monthly_2000_2010_mean.12.nc</text>
<text text-anchor="start" x="32.1301" y="-522.4" font-family="Courier,monospace" font-weight="bold" font-size="9.00">inputs/narr_apcp_rescaled_monthly/apcp_monthly_2000_2010_mean.6.nc</text>
</g>
<!-- mean_precip&#45;&gt;fetch_monthly_mean_precipitation_data -->
<g id="edge7" class="edge"><title>mean_precip&#45;&gt;fetch_monthly_mean_precipitation_data</title>
<path fill="none" stroke="black" d="M215.373,-515.361C215.652,-506.245 215.921,-497.456 216.157,-489.74"/>
<polygon fill="black" stroke="black" points="219.659,-489.726 216.467,-479.624 212.662,-489.512 219.659,-489.726"/>
</g>
<!-- C3_fraction_data_outflow -->
<g id="node20" class="node"><title>C3_fraction_data_outflow</title>
<ellipse fill="none" stroke="black" cx="434" cy="-31" rx="7" ry="7"/>
</g>
<!-- C3_fraction_data&#45;&gt;C3_fraction_data_outflow -->
<g id="edge22" class="edge"><title>C3_fraction_data&#45;&gt;C3_fraction_data_outflow</title>
<path fill="none" stroke="black" d="M434,-78.3889C434,-68.9828 434,-57.5389 434,-48.3712"/>
<polygon fill="black" stroke="black" points="437.5,-48.3008 434,-38.3008 430.5,-48.3008 437.5,-48.3008"/>
</g>
<!-- SYNMAP_land_cover_map_data_inflow -->
<g id="node17" class="node"><title>SYNMAP_land_cover_map_data_inflow</title>
<ellipse fill="none" stroke="black" cx="627" cy="-719.6" rx="7" ry="7"/>
</g>
<!-- SYNMAP_land_cover_map_data_inflow&#45;&gt;SYNMAP_land_cover_map_data -->
<g id="edge19" class="edge"><title>SYNMAP_land_cover_map_data_inflow&#45;&gt;SYNMAP_land_cover_map_data</title>
<path fill="none" stroke="black" d="M634.058,-718.343C661.46,-717.184 760.213,-711.458 779,-688.6 827.935,-629.063 784.314,-592.083 779,-515.2 776.772,-482.97 789.438,-468.221 769,-443.2 757.273,-428.843 741.489,-418.277 724.486,-410.503"/>
<polygon fill="black" stroke="black" points="725.506,-407.135 714.932,-406.465 722.781,-413.582 725.506,-407.135"/>
</g>
<!-- mean_airtemp_inflow -->
<g id="node18" class="node"><title>mean_airtemp_inflow</title>
<ellipse fill="none" stroke="black" cx="595" cy="-719.6" rx="7" ry="7"/>
</g>
<!-- mean_airtemp_inflow&#45;&gt;mean_airtemp -->
<g id="edge20" class="edge"><title>mean_airtemp_inflow&#45;&gt;mean_airtemp</title>
<path fill="none" stroke="black" d="M595,-712.296C595,-705.886 595,-695.145 595,-682.69"/>
<polygon fill="black" stroke="black" points="598.5,-682.383 595,-672.383 591.5,-682.383 598.5,-682.383"/>
</g>
<!-- mean_precip_inflow -->
<g id="node19" class="node"><title>mean_precip_inflow</title>
<ellipse fill="none" stroke="black" cx="563" cy="-719.6" rx="7" ry="7"/>
</g>
<!-- mean_precip_inflow&#45;&gt;mean_precip -->
<g id="edge21" class="edge"><title>mean_precip_inflow&#45;&gt;mean_precip</title>
<path fill="none" stroke="black" d="M556.181,-717.863C534.505,-715.394 465.412,-706.537 411,-688.6 399.529,-684.819 387.857,-680.533 376.21,-675.927"/>
<polygon fill="black" stroke="black" points="377.462,-672.659 366.879,-672.168 374.846,-679.151 377.462,-672.659"/>
</g>
</g>
</svg>
