<?xml version="1.0" encoding="UTF-8" standalone="no"?>
<!DOCTYPE svg PUBLIC "-//W3C//DTD SVG 1.1//EN"
 "http://www.w3.org/Graphics/SVG/1.1/DTD/svg11.dtd">
<!-- Generated by graphviz version 2.38.0 (20140413.2041)
 -->
<!-- Title: yw_data_view Pages: 1 -->
<svg width="1072pt" height="788pt"
 viewBox="0.00 0.00 1072.00 788.20" xmlns="http://www.w3.org/2000/svg" xmlns:xlink="http://www.w3.org/1999/xlink">
<g id="graph0" class="graph" transform="scale(1 1) rotate(0) translate(4 784.2)">
<title>yw_data_view</title>
<polygon fill="white" stroke="none" points="-4,4 -4,-784.2 1068,-784.2 1068,4 -4,4"/>
<text text-anchor="middle" x="532" y="-760" font-family="Courier,monospace" font-size="18.00">C3_C4_map_present_NA</text>
<g id="clust1" class="cluster"><title>cluster_workflow</title>
<polygon fill="none" stroke="black" stroke-width="2" points="8,-62 8,-688.6 1056,-688.6 1056,-62 8,-62"/>
</g>
<g id="clust2" class="cluster"><title>cluster_workflow_inner</title>
<polygon fill="none" stroke="white" stroke-width="2" points="16,-70 16,-680.6 1048,-680.6 1048,-70 16,-70"/>
</g>
<g id="clust3" class="cluster"><title>cluster_inflows</title>
<polygon fill="none" stroke="white" stroke-width="2" points="540,-696.6 540,-742.6 650,-742.6 650,-696.6 540,-696.6"/>
</g>
<g id="clust4" class="cluster"><title>cluster_inflows_inner</title>
<polygon fill="none" stroke="white" stroke-width="2" points="548,-704.6 548,-734.6 642,-734.6 642,-704.6 548,-704.6"/>
</g>
<g id="clust5" class="cluster"><title>cluster_outflows</title>
<polygon fill="none" stroke="white" stroke-width="2" points="464,-8 464,-54 574,-54 574,-8 464,-8"/>
</g>
<g id="clust6" class="cluster"><title>cluster_outflows_inner</title>
<polygon fill="none" stroke="white" stroke-width="2" points="472,-16 472,-46 566,-46 566,-16 472,-16"/>
</g>
<!-- fetch_SYNMAP_land_cover_map_variable -->
<g id="node1" class="node"><title>fetch_SYNMAP_land_cover_map_variable</title>
<polygon fill="#ccffcc" stroke="black" points="755.35,-332.6 436.65,-332.6 436.65,-296.6 755.35,-296.6 755.35,-332.6"/>
<text text-anchor="middle" x="596" y="-310.4" font-family="Courier,monospace" font-size="14.00">fetch_SYNMAP_land_cover_map_variable</text>
</g>
<!-- lon_variable -->
<g id="node12" class="node"><title>lon_variable</title>
<path fill="#ffffcc" stroke="black" d="M445.011,-260.6C445.011,-260.6 404.989,-260.6 404.989,-260.6 398.989,-260.6 392.989,-254.6 392.989,-248.6 392.989,-248.6 392.989,-236.6 392.989,-236.6 392.989,-230.6 398.989,-224.6 404.989,-224.6 404.989,-224.6 445.011,-224.6 445.011,-224.6 451.011,-224.6 457.011,-230.6 457.011,-236.6 457.011,-236.6 457.011,-248.6 457.011,-248.6 457.011,-254.6 451.011,-260.6 445.011,-260.6"/>
<text text-anchor="middle" x="425" y="-239.9" font-family="Helvetica,sans-Serif" font-size="9.00">lon_variable</text>
</g>
<!-- fetch_SYNMAP_land_cover_map_variable&#45;&gt;lon_variable -->
<g id="edge21" class="edge"><title>fetch_SYNMAP_land_cover_map_variable&#45;&gt;lon_variable</title>
<path fill="none" stroke="black" d="M554.114,-296.597C530.716,-287.082 500.813,-274.895 466.519,-260.804"/>
<polygon fill="black" stroke="black" points="467.801,-257.547 457.221,-256.981 465.139,-264.021 467.801,-257.547"/>
</g>
<!-- lat_variable -->
<g id="node13" class="node"><title>lat_variable</title>
<path fill="#ffffcc" stroke="black" d="M525.007,-260.6C525.007,-260.6 486.993,-260.6 486.993,-260.6 480.993,-260.6 474.993,-254.6 474.993,-248.6 474.993,-248.6 474.993,-236.6 474.993,-236.6 474.993,-230.6 480.993,-224.6 486.993,-224.6 486.993,-224.6 525.007,-224.6 525.007,-224.6 531.007,-224.6 537.007,-230.6 537.007,-236.6 537.007,-236.6 537.007,-248.6 537.007,-248.6 537.007,-254.6 531.007,-260.6 525.007,-260.6"/>
<text text-anchor="middle" x="506" y="-239.9" font-family="Helvetica,sans-Serif" font-size="9.00">lat_variable</text>
</g>
<!-- fetch_SYNMAP_land_cover_map_variable&#45;&gt;lat_variable -->
<g id="edge22" class="edge"><title>fetch_SYNMAP_land_cover_map_variable&#45;&gt;lat_variable</title>
<path fill="none" stroke="black" d="M573.753,-296.297C562.418,-287.481 548.47,-276.632 536.181,-267.074"/>
<polygon fill="black" stroke="black" points="538.034,-264.081 527.991,-260.704 533.736,-269.607 538.034,-264.081"/>
</g>
<!-- lon_bnds_variable -->
<g id="node14" class="node"><title>lon_bnds_variable</title>
<path fill="#ffffcc" stroke="black" d="M632.522,-260.6C632.522,-260.6 567.478,-260.6 567.478,-260.6 561.478,-260.6 555.478,-254.6 555.478,-248.6 555.478,-248.6 555.478,-236.6 555.478,-236.6 555.478,-230.6 561.478,-224.6 567.478,-224.6 567.478,-224.6 632.522,-224.6 632.522,-224.6 638.522,-224.6 644.522,-230.6 644.522,-236.6 644.522,-236.6 644.522,-248.6 644.522,-248.6 644.522,-254.6 638.522,-260.6 632.522,-260.6"/>
<text text-anchor="middle" x="600" y="-239.9" font-family="Helvetica,sans-Serif" font-size="9.00">lon_bnds_variable</text>
</g>
<!-- fetch_SYNMAP_land_cover_map_variable&#45;&gt;lon_bnds_variable -->
<g id="edge23" class="edge"><title>fetch_SYNMAP_land_cover_map_variable&#45;&gt;lon_bnds_variable</title>
<path fill="none" stroke="black" d="M596.989,-296.297C597.43,-288.583 597.959,-279.312 598.451,-270.712"/>
<polygon fill="black" stroke="black" points="601.946,-270.888 599.023,-260.704 594.958,-270.488 601.946,-270.888"/>
</g>
<!-- lat_bnds_variable -->
<g id="node15" class="node"><title>lat_bnds_variable</title>
<path fill="#ffffcc" stroke="black" d="M737.021,-260.6C737.021,-260.6 674.979,-260.6 674.979,-260.6 668.979,-260.6 662.979,-254.6 662.979,-248.6 662.979,-248.6 662.979,-236.6 662.979,-236.6 662.979,-230.6 668.979,-224.6 674.979,-224.6 674.979,-224.6 737.021,-224.6 737.021,-224.6 743.021,-224.6 749.021,-230.6 749.021,-236.6 749.021,-236.6 749.021,-248.6 749.021,-248.6 749.021,-254.6 743.021,-260.6 737.021,-260.6"/>
<text text-anchor="middle" x="706" y="-239.9" font-family="Helvetica,sans-Serif" font-size="9.00">lat_bnds_variable</text>
</g>
<!-- fetch_SYNMAP_land_cover_map_variable&#45;&gt;lat_bnds_variable -->
<g id="edge24" class="edge"><title>fetch_SYNMAP_land_cover_map_variable&#45;&gt;lat_bnds_variable</title>
<path fill="none" stroke="black" d="M622.909,-296.476C637.158,-287.408 654.846,-276.152 670.236,-266.359"/>
<polygon fill="black" stroke="black" points="672.43,-269.111 678.988,-260.79 668.672,-263.206 672.43,-269.111"/>
</g>
<!-- fetch_monthly_mean_air_temperature_data -->
<g id="node2" class="node"><title>fetch_monthly_mean_air_temperature_data</title>
<polygon fill="#ccffcc" stroke="black" points="759.546,-479.2 416.454,-479.2 416.454,-443.2 759.546,-443.2 759.546,-479.2"/>
<text text-anchor="middle" x="588" y="-457" font-family="Courier,monospace" font-size="14.00">fetch_monthly_mean_air_temperature_data</text>
</g>
<!-- Tair_Matrix -->
<g id="node16" class="node"><title>Tair_Matrix</title>
<path fill="#ffffcc" stroke="black" d="M504.491,-405.9C504.491,-405.9 467.509,-405.9 467.509,-405.9 461.509,-405.9 455.509,-399.9 455.509,-393.9 455.509,-393.9 455.509,-381.9 455.509,-381.9 455.509,-375.9 461.509,-369.9 467.509,-369.9 467.509,-369.9 504.491,-369.9 504.491,-369.9 510.491,-369.9 516.491,-375.9 516.491,-381.9 516.491,-381.9 516.491,-393.9 516.491,-393.9 516.491,-399.9 510.491,-405.9 504.491,-405.9"/>
<text text-anchor="middle" x="486" y="-385.2" font-family="Helvetica,sans-Serif" font-size="9.00">Tair_Matrix</text>
</g>
<!-- fetch_monthly_mean_air_temperature_data&#45;&gt;Tair_Matrix -->
<g id="edge25" class="edge"><title>fetch_monthly_mean_air_temperature_data&#45;&gt;Tair_Matrix</title>
<path fill="none" stroke="black" d="M563.568,-443.122C550.168,-433.754 533.371,-422.013 518.838,-411.855"/>
<polygon fill="black" stroke="black" points="520.787,-408.947 510.586,-406.086 516.777,-414.684 520.787,-408.947"/>
</g>
<!-- fetch_monthly_mean_precipitation_data -->
<g id="node3" class="node"><title>fetch_monthly_mean_precipitation_data</title>
<polygon fill="#ccffcc" stroke="black" points="384.248,-479.2 57.7517,-479.2 57.7517,-443.2 384.248,-443.2 384.248,-479.2"/>
<text text-anchor="middle" x="221" y="-457" font-family="Courier,monospace" font-size="14.00">fetch_monthly_mean_precipitation_data</text>
</g>
<!-- Rain_Matrix -->
<g id="node17" class="node"><title>Rain_Matrix</title>
<path fill="#ffffcc" stroke="black" d="M267.997,-405.9C267.997,-405.9 228.003,-405.9 228.003,-405.9 222.003,-405.9 216.003,-399.9 216.003,-393.9 216.003,-393.9 216.003,-381.9 216.003,-381.9 216.003,-375.9 222.003,-369.9 228.003,-369.9 228.003,-369.9 267.997,-369.9 267.997,-369.9 273.997,-369.9 279.997,-375.9 279.997,-381.9 279.997,-381.9 279.997,-393.9 279.997,-393.9 279.997,-399.9 273.997,-405.9 267.997,-405.9"/>
<text text-anchor="middle" x="248" y="-385.2" font-family="Helvetica,sans-Serif" font-size="9.00">Rain_Matrix</text>
</g>
<!-- fetch_monthly_mean_precipitation_data&#45;&gt;Rain_Matrix -->
<g id="edge26" class="edge"><title>fetch_monthly_mean_precipitation_data&#45;&gt;Rain_Matrix</title>
<path fill="none" stroke="black" d="M227.536,-442.94C230.653,-434.708 234.453,-424.674 237.928,-415.497"/>
<polygon fill="black" stroke="black" points="241.256,-416.592 241.524,-406.001 234.71,-414.113 241.256,-416.592"/>
</g>
<!-- initialize_Grass_Matrix -->
<g id="node4" class="node"><title>initialize_Grass_Matrix</title>
<polygon fill="#ccffcc" stroke="black" points="982.668,-332.6 773.332,-332.6 773.332,-296.6 982.668,-296.6 982.668,-332.6"/>
<text text-anchor="middle" x="878" y="-310.4" font-family="Courier,monospace" font-size="14.00">initialize_Grass_Matrix</text>
</g>
<!-- Grass_variable -->
<g id="node18" class="node"><title>Grass_variable</title>
<path fill="#ffffcc" stroke="black" d="M897.008,-260.6C897.008,-260.6 844.992,-260.6 844.992,-260.6 838.992,-260.6 832.992,-254.6 832.992,-248.6 832.992,-248.6 832.992,-236.6 832.992,-236.6 832.992,-230.6 838.992,-224.6 844.992,-224.6 844.992,-224.6 897.008,-224.6 897.008,-224.6 903.008,-224.6 909.008,-230.6 909.008,-236.6 909.008,-236.6 909.008,-248.6 909.008,-248.6 909.008,-254.6 903.008,-260.6 897.008,-260.6"/>
<text text-anchor="middle" x="871" y="-239.9" font-family="Helvetica,sans-Serif" font-size="9.00">Grass_variable</text>
</g>
<!-- initialize_Grass_Matrix&#45;&gt;Grass_variable -->
<g id="edge27" class="edge"><title>initialize_Grass_Matrix&#45;&gt;Grass_variable</title>
<path fill="none" stroke="black" d="M876.27,-296.297C875.498,-288.583 874.571,-279.312 873.711,-270.712"/>
<polygon fill="black" stroke="black" points="877.188,-270.306 872.71,-260.704 870.223,-271.003 877.188,-270.306"/>
</g>
<!-- examine_pixels_for_grass -->
<g id="node5" class="node"><title>examine_pixels_for_grass</title>
<polygon fill="#ccffcc" stroke="black" points="390.567,-332.6 173.433,-332.6 173.433,-296.6 390.567,-296.6 390.567,-332.6"/>
<text text-anchor="middle" x="282" y="-310.4" font-family="Courier,monospace" font-size="14.00">examine_pixels_for_grass</text>
</g>
<!-- C3_Data -->
<g id="node19" class="node"><title>C3_Data</title>
<path fill="#ffffcc" stroke="black" d="M270,-260.6C270,-260.6 240,-260.6 240,-260.6 234,-260.6 228,-254.6 228,-248.6 228,-248.6 228,-236.6 228,-236.6 228,-230.6 234,-224.6 240,-224.6 240,-224.6 270,-224.6 270,-224.6 276,-224.6 282,-230.6 282,-236.6 282,-236.6 282,-248.6 282,-248.6 282,-254.6 276,-260.6 270,-260.6"/>
<text text-anchor="middle" x="255" y="-239.9" font-family="Helvetica,sans-Serif" font-size="9.00">C3_Data</text>
</g>
<!-- examine_pixels_for_grass&#45;&gt;C3_Data -->
<g id="edge28" class="edge"><title>examine_pixels_for_grass&#45;&gt;C3_Data</title>
<path fill="none" stroke="black" d="M275.326,-296.297C272.285,-288.413 268.617,-278.904 265.239,-270.146"/>
<polygon fill="black" stroke="black" points="268.462,-268.775 261.597,-260.704 261.931,-271.294 268.462,-268.775"/>
</g>
<!-- C4_Data -->
<g id="node20" class="node"><title>C4_Data</title>
<path fill="#ffffcc" stroke="black" d="M356,-260.6C356,-260.6 326,-260.6 326,-260.6 320,-260.6 314,-254.6 314,-248.6 314,-248.6 314,-236.6 314,-236.6 314,-230.6 320,-224.6 326,-224.6 326,-224.6 356,-224.6 356,-224.6 362,-224.6 368,-230.6 368,-236.6 368,-236.6 368,-248.6 368,-248.6 368,-254.6 362,-260.6 356,-260.6"/>
<text text-anchor="middle" x="341" y="-239.9" font-family="Helvetica,sans-Serif" font-size="9.00">C4_Data</text>
</g>
<!-- examine_pixels_for_grass&#45;&gt;C4_Data -->
<g id="edge29" class="edge"><title>examine_pixels_for_grass&#45;&gt;C4_Data</title>
<path fill="none" stroke="black" d="M296.584,-296.297C303.658,-287.905 312.283,-277.67 320.045,-268.461"/>
<polygon fill="black" stroke="black" points="322.815,-270.606 326.583,-260.704 317.463,-266.095 322.815,-270.606"/>
</g>
<!-- generate_netcdf_file_for_C3_fraction -->
<g id="node6" class="node"><title>generate_netcdf_file_for_C3_fraction</title>
<polygon fill="#ccffcc" stroke="black" points="342.35,-188.6 23.6502,-188.6 23.6502,-152.6 342.35,-152.6 342.35,-188.6"/>
<text text-anchor="middle" x="183" y="-166.4" font-family="Courier,monospace" font-size="14.00">generate_netcdf_file_for_C3_fraction</text>
</g>
<!-- C3_fraction_data -->
<g id="node21" class="node"><title>C3_fraction_data</title>
<path fill="#ffe4b5" stroke="black" d="M51.9238,-78.5C51.9238,-78.5 330.076,-78.5 330.076,-78.5 336.076,-78.5 342.076,-84.5 342.076,-90.5 342.076,-90.5 342.076,-104.1 342.076,-104.1 342.076,-110.1 336.076,-116.1 330.076,-116.1 330.076,-116.1 51.9238,-116.1 51.9238,-116.1 45.9238,-116.1 39.9238,-110.1 39.9238,-104.1 39.9238,-104.1 39.9238,-90.5 39.9238,-90.5 39.9238,-84.5 45.9238,-78.5 51.9238,-78.5"/>
<text text-anchor="middle" x="191" y="-104" font-family="Courier,monospace" font-weight="bold" font-size="9.00">[data19] C3_fraction_data</text>
<polyline fill="none" stroke="black" points="39.9238,-97.3 342.076,-97.3 "/>
<text text-anchor="start" x="47.9238" y="-85.2" font-family="Courier,monospace" font-weight="bold" font-size="9.00">outputs/SYNMAP_PRESENTVEG_C3Grass_RelaFrac_NA_v2.0.nc</text>
</g>
<!-- generate_netcdf_file_for_C3_fraction&#45;&gt;C3_fraction_data -->
<g id="edge30" class="edge"><title>generate_netcdf_file_for_C3_fraction&#45;&gt;C3_fraction_data</title>
<path fill="none" stroke="black" d="M184.937,-152.34C185.804,-144.605 186.851,-135.279 187.828,-126.568"/>
<polygon fill="black" stroke="black" points="191.333,-126.724 188.97,-116.396 184.376,-125.943 191.333,-126.724"/>
</g>
<!-- generate_netcdf_file_for_C4_fraction -->
<g id="node7" class="node"><title>generate_netcdf_file_for_C4_fraction</title>
<polygon fill="#ccffcc" stroke="black" points="678.35,-188.6 359.65,-188.6 359.65,-152.6 678.35,-152.6 678.35,-188.6"/>
<text text-anchor="middle" x="519" y="-166.4" font-family="Courier,monospace" font-size="14.00">generate_netcdf_file_for_C4_fraction</text>
</g>
<!-- C4_fraction_data -->
<g id="node22" class="node"><title>C4_fraction_data</title>
<path fill="#ffe4b5" stroke="black" d="M379.924,-78.5C379.924,-78.5 658.076,-78.5 658.076,-78.5 664.076,-78.5 670.076,-84.5 670.076,-90.5 670.076,-90.5 670.076,-104.1 670.076,-104.1 670.076,-110.1 664.076,-116.1 658.076,-116.1 658.076,-116.1 379.924,-116.1 379.924,-116.1 373.924,-116.1 367.924,-110.1 367.924,-104.1 367.924,-104.1 367.924,-90.5 367.924,-90.5 367.924,-84.5 373.924,-78.5 379.924,-78.5"/>
<text text-anchor="middle" x="519" y="-104" font-family="Courier,monospace" font-weight="bold" font-size="9.00">[data20] C4_fraction_data</text>
<polyline fill="none" stroke="black" points="367.924,-97.3 670.076,-97.3 "/>
<text text-anchor="start" x="375.924" y="-85.2" font-family="Courier,monospace" font-weight="bold" font-size="9.00">outputs/SYNMAP_PRESENTVEG_C4Grass_RelaFrac_NA_v2.0.nc</text>
</g>
<!-- generate_netcdf_file_for_C4_fraction&#45;&gt;C4_fraction_data -->
<g id="edge31" class="edge"><title>generate_netcdf_file_for_C4_fraction&#45;&gt;C4_fraction_data</title>
<path fill="none" stroke="black" d="M519,-152.34C519,-144.605 519,-135.279 519,-126.568"/>
<polygon fill="black" stroke="black" points="522.5,-126.396 519,-116.396 515.5,-126.396 522.5,-126.396"/>
</g>
<!-- generate_netcdf_file_for_Grass_fraction -->
<g id="node8" class="node"><title>generate_netcdf_file_for_Grass_fraction</title>
<polygon fill="#ccffcc" stroke="black" points="1039.55,-188.6 696.454,-188.6 696.454,-152.6 1039.55,-152.6 1039.55,-188.6"/>
<text text-anchor="middle" x="868" y="-166.4" font-family="Courier,monospace" font-size="14.00">generate_netcdf_file_for_Grass_fraction</text>
</g>
<!-- Grass_fraction_data -->
<g id="node23" class="node"><title>Grass_fraction_data</title>
<path fill="#ffe4b5" stroke="black" d="M717.323,-78.5C717.323,-78.5 984.677,-78.5 984.677,-78.5 990.677,-78.5 996.677,-84.5 996.677,-90.5 996.677,-90.5 996.677,-104.1 996.677,-104.1 996.677,-110.1 990.677,-116.1 984.677,-116.1 984.677,-116.1 717.323,-116.1 717.323,-116.1 711.323,-116.1 705.323,-110.1 705.323,-104.1 705.323,-104.1 705.323,-90.5 705.323,-90.5 705.323,-84.5 711.323,-78.5 717.323,-78.5"/>
<text text-anchor="middle" x="851" y="-104" font-family="Courier,monospace" font-weight="bold" font-size="9.00">[data21] Grass_fraction_data</text>
<polyline fill="none" stroke="black" points="705.323,-97.3 996.677,-97.3 "/>
<text text-anchor="start" x="713.323" y="-85.2" font-family="Courier,monospace" font-weight="bold" font-size="9.00">outputs/SYNMAP_PRESENTVEG_Grass_Fraction_NA_v2.0.nc</text>
</g>
<!-- generate_netcdf_file_for_Grass_fraction&#45;&gt;Grass_fraction_data -->
<g id="edge32" class="edge"><title>generate_netcdf_file_for_Grass_fraction&#45;&gt;Grass_fraction_data</title>
<path fill="none" stroke="black" d="M863.885,-152.34C862.02,-144.52 859.768,-135.074 857.671,-126.281"/>
<polygon fill="black" stroke="black" points="861.038,-125.311 855.315,-116.396 854.229,-126.935 861.038,-125.311"/>
</g>
<!-- SYNMAP_land_cover_map_data -->
<g id="node9" class="node"><title>SYNMAP_land_cover_map_data</title>
<path fill="#ffe4b5" stroke="black" d="M614.215,-369.1C614.215,-369.1 789.785,-369.1 789.785,-369.1 795.785,-369.1 801.785,-375.1 801.785,-381.1 801.785,-381.1 801.785,-394.7 801.785,-394.7 801.785,-400.7 795.785,-406.7 789.785,-406.7 789.785,-406.7 614.215,-406.7 614.215,-406.7 608.215,-406.7 602.215,-400.7 602.215,-394.7 602.215,-394.7 602.215,-381.1 602.215,-381.1 602.215,-375.1 608.215,-369.1 614.215,-369.1"/>
<text text-anchor="middle" x="702" y="-394.6" font-family="Courier,monospace" font-weight="bold" font-size="9.00">[data7] SYNMAP_land_cover_map_data</text>
<polyline fill="none" stroke="black" points="602.215,-387.9 801.785,-387.9 "/>
<text text-anchor="start" x="610.215" y="-375.8" font-family="Courier,monospace" font-weight="bold" font-size="9.00">inputs/land_cover/SYNMAP_NA_QD.nc</text>
</g>
<!-- SYNMAP_land_cover_map_data&#45;&gt;fetch_SYNMAP_land_cover_map_variable -->
<g id="edge1" class="edge"><title>SYNMAP_land_cover_map_data&#45;&gt;fetch_SYNMAP_land_cover_map_variable</title>
<path fill="none" stroke="black" d="M675.525,-369.092C661.685,-359.782 644.593,-348.286 629.806,-338.339"/>
<polygon fill="black" stroke="black" points="631.659,-335.367 621.408,-332.69 627.752,-341.176 631.659,-335.367"/>
</g>
<!-- mean_airtemp -->
<g id="node10" class="node"><title>mean_airtemp</title>
<path fill="#ffe4b5" stroke="black" d="M431.628,-515.7C431.628,-515.7 758.372,-515.7 758.372,-515.7 764.372,-515.7 770.372,-521.7 770.372,-527.7 770.372,-527.7 770.372,-660.1 770.372,-660.1 770.372,-666.1 764.372,-672.1 758.372,-672.1 758.372,-672.1 431.628,-672.1 431.628,-672.1 425.628,-672.1 419.628,-666.1 419.628,-660.1 419.628,-660.1 419.628,-527.7 419.628,-527.7 419.628,-521.7 425.628,-515.7 431.628,-515.7"/>
<text text-anchor="middle" x="595" y="-660" font-family="Courier,monospace" font-weight="bold" font-size="9.00">[data12] mean_airtemp</text>
<polyline fill="none" stroke="black" points="419.628,-653.3 770.372,-653.3 "/>
<text text-anchor="start" x="427.628" y="-641.2" font-family="Courier,monospace" font-weight="bold" font-size="9.00">inputs/narr_air.2m_monthly/air.2m_monthly_2000_2010_mean.6.nc</text>
<text text-anchor="start" x="427.628" y="-630.4" font-family="Courier,monospace" font-weight="bold" font-size="9.00">inputs/narr_air.2m_monthly/air.2m_monthly_2000_2010_mean.10.nc</text>
<text text-anchor="start" x="427.628" y="-619.6" font-family="Courier,monospace" font-weight="bold" font-size="9.00">inputs/narr_air.2m_monthly/air.2m_monthly_2000_2010_mean.3.nc</text>
<text text-anchor="start" x="427.628" y="-608.8" font-family="Courier,monospace" font-weight="bold" font-size="9.00">inputs/narr_air.2m_monthly/air.2m_monthly_2000_2010_mean.7.nc</text>
<text text-anchor="start" x="427.628" y="-598" font-family="Courier,monospace" font-weight="bold" font-size="9.00">inputs/narr_air.2m_monthly/air.2m_monthly_2000_2010_mean.11.nc</text>
<text text-anchor="start" x="427.628" y="-587.2" font-family="Courier,monospace" font-weight="bold" font-size="9.00">inputs/narr_air.2m_monthly/air.2m_monthly_2000_2010_mean.4.nc</text>
<text text-anchor="start" x="427.628" y="-576.4" font-family="Courier,monospace" font-weight="bold" font-size="9.00">inputs/narr_air.2m_monthly/air.2m_monthly_2000_2010_mean.8.nc</text>
<text text-anchor="start" x="427.628" y="-565.6" font-family="Courier,monospace" font-weight="bold" font-size="9.00">inputs/narr_air.2m_monthly/air.2m_monthly_2000_2010_mean.12.nc</text>
<text text-anchor="start" x="427.628" y="-554.8" font-family="Courier,monospace" font-weight="bold" font-size="9.00">inputs/narr_air.2m_monthly/air.2m_monthly_2000_2010_mean.5.nc</text>
<text text-anchor="start" x="427.628" y="-544" font-family="Courier,monospace" font-weight="bold" font-size="9.00">inputs/narr_air.2m_monthly/air.2m_monthly_2000_2010_mean.9.nc</text>
<text text-anchor="start" x="427.628" y="-533.2" font-family="Courier,monospace" font-weight="bold" font-size="9.00">inputs/narr_air.2m_monthly/air.2m_monthly_2000_2010_mean.1.nc</text>
<text text-anchor="start" x="427.628" y="-522.4" font-family="Courier,monospace" font-weight="bold" font-size="9.00">inputs/narr_air.2m_monthly/air.2m_monthly_2000_2010_mean.2.nc</text>
</g>
<!-- mean_airtemp&#45;&gt;fetch_monthly_mean_air_temperature_data -->
<g id="edge14" class="edge"><title>mean_airtemp&#45;&gt;fetch_monthly_mean_air_temperature_data</title>
<path fill="none" stroke="black" d="M590.847,-515.361C590.359,-506.245 589.888,-497.456 589.475,-489.74"/>
<polygon fill="black" stroke="black" points="592.963,-489.422 588.933,-479.624 585.973,-489.796 592.963,-489.422"/>
</g>
<!-- mean_precip -->
<g id="node11" class="node"><title>mean_precip</title>
<path fill="#ffe4b5" stroke="black" d="M36.1301,-515.7C36.1301,-515.7 389.87,-515.7 389.87,-515.7 395.87,-515.7 401.87,-521.7 401.87,-527.7 401.87,-527.7 401.87,-660.1 401.87,-660.1 401.87,-666.1 395.87,-672.1 389.87,-672.1 389.87,-672.1 36.1301,-672.1 36.1301,-672.1 30.1301,-672.1 24.1301,-666.1 24.1301,-660.1 24.1301,-660.1 24.1301,-527.7 24.1301,-527.7 24.1301,-521.7 30.1301,-515.7 36.1301,-515.7"/>
<text text-anchor="middle" x="213" y="-660" font-family="Courier,monospace" font-weight="bold" font-size="9.00">[data14] mean_precip</text>
<polyline fill="none" stroke="black" points="24.1301,-653.3 401.87,-653.3 "/>
<text text-anchor="start" x="32.1301" y="-641.2" font-family="Courier,monospace" font-weight="bold" font-size="9.00">inputs/narr_apcp_rescaled_monthly/apcp_monthly_2000_2010_mean.12.nc</text>
<text text-anchor="start" x="32.1301" y="-630.4" font-family="Courier,monospace" font-weight="bold" font-size="9.00">inputs/narr_apcp_rescaled_monthly/apcp_monthly_2000_2010_mean.5.nc</text>
<text text-anchor="start" x="32.1301" y="-619.6" font-family="Courier,monospace" font-weight="bold" font-size="9.00">inputs/narr_apcp_rescaled_monthly/apcp_monthly_2000_2010_mean.9.nc</text>
<text text-anchor="start" x="32.1301" y="-608.8" font-family="Courier,monospace" font-weight="bold" font-size="9.00">inputs/narr_apcp_rescaled_monthly/apcp_monthly_2000_2010_mean.2.nc</text>
<text text-anchor="start" x="32.1301" y="-598" font-family="Courier,monospace" font-weight="bold" font-size="9.00">inputs/narr_apcp_rescaled_monthly/apcp_monthly_2000_2010_mean.6.nc</text>
<text text-anchor="start" x="32.1301" y="-587.2" font-family="Courier,monospace" font-weight="bold" font-size="9.00">inputs/narr_apcp_rescaled_monthly/apcp_monthly_2000_2010_mean.10.nc</text>
<text text-anchor="start" x="32.1301" y="-576.4" font-family="Courier,monospace" font-weight="bold" font-size="9.00">inputs/narr_apcp_rescaled_monthly/apcp_monthly_2000_2010_mean.3.nc</text>
<text text-anchor="start" x="32.1301" y="-565.6" font-family="Courier,monospace" font-weight="bold" font-size="9.00">inputs/narr_apcp_rescaled_monthly/apcp_monthly_2000_2010_mean.7.nc</text>
<text text-anchor="start" x="32.1301" y="-554.8" font-family="Courier,monospace" font-weight="bold" font-size="9.00">inputs/narr_apcp_rescaled_monthly/apcp_monthly_2000_2010_mean.11.nc</text>
<text text-anchor="start" x="32.1301" y="-544" font-family="Courier,monospace" font-weight="bold" font-size="9.00">inputs/narr_apcp_rescaled_monthly/apcp_monthly_2000_2010_mean.4.nc</text>
<text text-anchor="start" x="32.1301" y="-533.2" font-family="Courier,monospace" font-weight="bold" font-size="9.00">inputs/narr_apcp_rescaled_monthly/apcp_monthly_2000_2010_mean.8.nc</text>
<text text-anchor="start" x="32.1301" y="-522.4" font-family="Courier,monospace" font-weight="bold" font-size="9.00">inputs/narr_apcp_rescaled_monthly/apcp_monthly_2000_2010_mean.1.nc</text>
</g>
<!-- mean_precip&#45;&gt;fetch_monthly_mean_precipitation_data -->
<g id="edge16" class="edge"><title>mean_precip&#45;&gt;fetch_monthly_mean_precipitation_data</title>
<path fill="none" stroke="black" d="M217.746,-515.361C218.304,-506.245 218.842,-497.456 219.314,-489.74"/>
<polygon fill="black" stroke="black" points="222.816,-489.819 219.934,-479.624 215.829,-489.391 222.816,-489.819"/>
</g>
<!-- lon_variable&#45;&gt;generate_netcdf_file_for_C3_fraction -->
<g id="edge2" class="edge"><title>lon_variable&#45;&gt;generate_netcdf_file_for_C3_fraction</title>
<path fill="none" stroke="black" d="M392.835,-229.841C387.565,-228.021 382.146,-226.212 377,-224.6 338.778,-212.628 295.857,-200.744 260.122,-191.272"/>
<polygon fill="black" stroke="black" points="260.805,-187.832 250.243,-188.666 259.02,-194.601 260.805,-187.832"/>
</g>
<!-- lon_variable&#45;&gt;generate_netcdf_file_for_C4_fraction -->
<g id="edge3" class="edge"><title>lon_variable&#45;&gt;generate_netcdf_file_for_C4_fraction</title>
<path fill="none" stroke="black" d="M448.236,-224.297C460.188,-215.396 474.923,-204.423 487.847,-194.799"/>
<polygon fill="black" stroke="black" points="490.101,-197.484 496.031,-188.704 485.92,-191.87 490.101,-197.484"/>
</g>
<!-- lon_variable&#45;&gt;generate_netcdf_file_for_Grass_fraction -->
<g id="edge4" class="edge"><title>lon_variable&#45;&gt;generate_netcdf_file_for_Grass_fraction</title>
<path fill="none" stroke="black" d="M457.405,-227.263C460.28,-226.267 463.172,-225.359 466,-224.6 508.882,-213.097 607.104,-200.063 695.72,-189.798"/>
<polygon fill="black" stroke="black" points="696.385,-193.245 705.919,-188.624 695.584,-186.291 696.385,-193.245"/>
</g>
<!-- lat_variable&#45;&gt;generate_netcdf_file_for_C3_fraction -->
<g id="edge5" class="edge"><title>lat_variable&#45;&gt;generate_netcdf_file_for_C3_fraction</title>
<path fill="none" stroke="black" d="M474.795,-227.58C471.852,-226.489 468.889,-225.473 466,-224.6 417.755,-210.019 363.613,-198.702 315.703,-190.34"/>
<polygon fill="black" stroke="black" points="316.027,-186.844 305.579,-188.6 314.842,-193.743 316.027,-186.844"/>
</g>
<!-- lat_variable&#45;&gt;generate_netcdf_file_for_C4_fraction -->
<g id="edge6" class="edge"><title>lat_variable&#45;&gt;generate_netcdf_file_for_C4_fraction</title>
<path fill="none" stroke="black" d="M509.213,-224.297C510.646,-216.583 512.368,-207.312 513.965,-198.712"/>
<polygon fill="black" stroke="black" points="517.439,-199.175 515.823,-188.704 510.556,-197.897 517.439,-199.175"/>
</g>
<!-- lat_variable&#45;&gt;generate_netcdf_file_for_Grass_fraction -->
<g id="edge7" class="edge"><title>lat_variable&#45;&gt;generate_netcdf_file_for_Grass_fraction</title>
<path fill="none" stroke="black" d="M537.185,-227.512C540.132,-226.435 543.101,-225.441 546,-224.6 598.009,-209.503 656.073,-198.291 708.419,-190.168"/>
<polygon fill="black" stroke="black" points="709.107,-193.603 718.465,-188.635 708.052,-186.683 709.107,-193.603"/>
</g>
<!-- lon_bnds_variable&#45;&gt;generate_netcdf_file_for_C3_fraction -->
<g id="edge8" class="edge"><title>lon_bnds_variable&#45;&gt;generate_netcdf_file_for_C3_fraction</title>
<path fill="none" stroke="black" d="M555.362,-226.942C552.209,-226.094 549.066,-225.302 546,-224.6 481.765,-209.899 410.158,-198.424 347.631,-189.968"/>
<polygon fill="black" stroke="black" points="348.052,-186.494 337.676,-188.637 347.124,-193.432 348.052,-186.494"/>
</g>
<!-- lon_bnds_variable&#45;&gt;generate_netcdf_file_for_C4_fraction -->
<g id="edge9" class="edge"><title>lon_bnds_variable&#45;&gt;generate_netcdf_file_for_C4_fraction</title>
<path fill="none" stroke="black" d="M579.978,-224.297C569.874,-215.565 557.464,-204.84 546.482,-195.35"/>
<polygon fill="black" stroke="black" points="548.647,-192.595 538.792,-188.704 544.07,-197.891 548.647,-192.595"/>
</g>
<!-- lon_bnds_variable&#45;&gt;generate_netcdf_file_for_Grass_fraction -->
<g id="edge10" class="edge"><title>lon_bnds_variable&#45;&gt;generate_netcdf_file_for_Grass_fraction</title>
<path fill="none" stroke="black" d="M644.725,-227.284C647.857,-226.354 650.972,-225.451 654,-224.6 696.802,-212.575 744.82,-200.551 784.508,-191.003"/>
<polygon fill="black" stroke="black" points="785.502,-194.364 794.411,-188.63 783.871,-187.556 785.502,-194.364"/>
</g>
<!-- lat_bnds_variable&#45;&gt;generate_netcdf_file_for_C3_fraction -->
<g id="edge11" class="edge"><title>lat_bnds_variable&#45;&gt;generate_netcdf_file_for_C3_fraction</title>
<path fill="none" stroke="black" d="M662.771,-226.737C659.82,-225.949 656.877,-225.225 654,-224.6 624.622,-218.215 475.293,-201.848 352.538,-188.976"/>
<polygon fill="black" stroke="black" points="352.562,-185.46 342.252,-187.899 351.833,-192.422 352.562,-185.46"/>
</g>
<!-- lat_bnds_variable&#45;&gt;generate_netcdf_file_for_C4_fraction -->
<g id="edge12" class="edge"><title>lat_bnds_variable&#45;&gt;generate_netcdf_file_for_C4_fraction</title>
<path fill="none" stroke="black" d="M662.628,-225.365C636.28,-215.502 602.391,-202.816 574.149,-192.244"/>
<polygon fill="black" stroke="black" points="575.009,-188.829 564.417,-188.601 572.555,-195.385 575.009,-188.829"/>
</g>
<!-- lat_bnds_variable&#45;&gt;generate_netcdf_file_for_Grass_fraction -->
<g id="edge13" class="edge"><title>lat_bnds_variable&#45;&gt;generate_netcdf_file_for_Grass_fraction</title>
<path fill="none" stroke="black" d="M745.63,-224.476C767.776,-214.907 795.563,-202.9 819.058,-192.748"/>
<polygon fill="black" stroke="black" points="820.708,-195.848 828.499,-188.668 817.931,-189.422 820.708,-195.848"/>
</g>
<!-- Tair_Matrix&#45;&gt;examine_pixels_for_grass -->
<g id="edge15" class="edge"><title>Tair_Matrix&#45;&gt;examine_pixels_for_grass</title>
<path fill="none" stroke="black" d="M455.459,-376.226C425.257,-365.67 378.258,-349.243 340.797,-336.15"/>
<polygon fill="black" stroke="black" points="341.596,-332.722 331.001,-332.726 339.286,-339.33 341.596,-332.722"/>
</g>
<!-- Rain_Matrix&#45;&gt;examine_pixels_for_grass -->
<g id="edge17" class="edge"><title>Rain_Matrix&#45;&gt;examine_pixels_for_grass</title>
<path fill="none" stroke="black" d="M256.23,-369.64C260.198,-361.32 265.043,-351.16 269.457,-341.904"/>
<polygon fill="black" stroke="black" points="272.7,-343.234 273.845,-332.701 266.382,-340.221 272.7,-343.234"/>
</g>
<!-- Grass_variable&#45;&gt;generate_netcdf_file_for_Grass_fraction -->
<g id="edge18" class="edge"><title>Grass_variable&#45;&gt;generate_netcdf_file_for_Grass_fraction</title>
<path fill="none" stroke="black" d="M870.258,-224.297C869.928,-216.583 869.531,-207.312 869.162,-198.712"/>
<polygon fill="black" stroke="black" points="872.658,-198.545 868.733,-188.704 865.665,-198.845 872.658,-198.545"/>
</g>
<!-- C3_Data&#45;&gt;generate_netcdf_file_for_C3_fraction -->
<g id="edge19" class="edge"><title>C3_Data&#45;&gt;generate_netcdf_file_for_C3_fraction</title>
<path fill="none" stroke="black" d="M237.202,-224.297C228.396,-215.735 217.618,-205.256 207.999,-195.904"/>
<polygon fill="black" stroke="black" points="210.203,-193.166 200.593,-188.704 205.323,-198.185 210.203,-193.166"/>
</g>
<!-- C4_Data&#45;&gt;generate_netcdf_file_for_C4_fraction -->
<g id="edge20" class="edge"><title>C4_Data&#45;&gt;generate_netcdf_file_for_C4_fraction</title>
<path fill="none" stroke="black" d="M368.293,-230.798C373.507,-228.738 378.921,-226.601 384,-224.6 410.989,-213.967 441.027,-202.171 465.904,-192.411"/>
<polygon fill="black" stroke="black" points="467.488,-195.55 475.519,-188.64 464.932,-189.033 467.488,-195.55"/>
</g>
<!-- C3_fraction_data_outflow -->
<g id="node29" class="node"><title>C3_fraction_data_outflow</title>
<ellipse fill="none" stroke="black" cx="487" cy="-31" rx="7" ry="7"/>
</g>
<!-- C3_fraction_data&#45;&gt;C3_fraction_data_outflow -->
<g id="edge38" class="edge"><title>C3_fraction_data&#45;&gt;C3_fraction_data_outflow</title>
<path fill="none" stroke="black" d="M273.059,-78.4743C341.297,-63.6509 433.044,-43.7209 470.267,-35.635"/>
<polygon fill="black" stroke="black" points="471.308,-38.9905 480.337,-33.4474 469.822,-32.15 471.308,-38.9905"/>
</g>
<!-- C4_fraction_data_outflow -->
<g id="node28" class="node"><title>C4_fraction_data_outflow</title>
<ellipse fill="none" stroke="black" cx="519" cy="-31" rx="7" ry="7"/>
</g>
<!-- C4_fraction_data&#45;&gt;C4_fraction_data_outflow -->
<g id="edge37" class="edge"><title>C4_fraction_data&#45;&gt;C4_fraction_data_outflow</title>
<path fill="none" stroke="black" d="M519,-78.3889C519,-68.9828 519,-57.5389 519,-48.3712"/>
<polygon fill="black" stroke="black" points="522.5,-48.3008 519,-38.3008 515.5,-48.3008 522.5,-48.3008"/>
</g>
<!-- Grass_fraction_data_outflow -->
<g id="node27" class="node"><title>Grass_fraction_data_outflow</title>
<ellipse fill="none" stroke="black" cx="551" cy="-31" rx="7" ry="7"/>
</g>
<!-- Grass_fraction_data&#45;&gt;Grass_fraction_data_outflow -->
<g id="edge36" class="edge"><title>Grass_fraction_data&#45;&gt;Grass_fraction_data_outflow</title>
<path fill="none" stroke="black" d="M767.832,-78.4743C698.671,-63.6509 605.685,-43.7209 567.959,-35.635"/>
<polygon fill="black" stroke="black" points="568.264,-32.1209 557.753,-33.4474 566.797,-38.9655 568.264,-32.1209"/>
</g>
<!-- SYNMAP_land_cover_map_data_inflow -->
<g id="node24" class="node"><title>SYNMAP_land_cover_map_data_inflow</title>
<ellipse fill="none" stroke="black" cx="627" cy="-719.6" rx="7" ry="7"/>
</g>
<!-- SYNMAP_land_cover_map_data_inflow&#45;&gt;SYNMAP_land_cover_map_data -->
<g id="edge33" class="edge"><title>SYNMAP_land_cover_map_data_inflow&#45;&gt;SYNMAP_land_cover_map_data</title>
<path fill="none" stroke="black" d="M634.058,-718.343C661.46,-717.184 760.213,-711.458 779,-688.6 848.311,-604.272 822.656,-538.26 769,-443.2 762.314,-431.355 751.937,-421.079 741.329,-412.75"/>
<polygon fill="black" stroke="black" points="743.353,-409.894 733.23,-406.766 739.193,-415.524 743.353,-409.894"/>
</g>
<!-- mean_airtemp_inflow -->
<g id="node25" class="node"><title>mean_airtemp_inflow</title>
<ellipse fill="none" stroke="black" cx="595" cy="-719.6" rx="7" ry="7"/>
</g>
<!-- mean_airtemp_inflow&#45;&gt;mean_airtemp -->
<g id="edge34" class="edge"><title>mean_airtemp_inflow&#45;&gt;mean_airtemp</title>
<path fill="none" stroke="black" d="M595,-712.296C595,-705.886 595,-695.145 595,-682.69"/>
<polygon fill="black" stroke="black" points="598.5,-682.383 595,-672.383 591.5,-682.383 598.5,-682.383"/>
</g>
<!-- mean_precip_inflow -->
<g id="node26" class="node"><title>mean_precip_inflow</title>
<ellipse fill="none" stroke="black" cx="563" cy="-719.6" rx="7" ry="7"/>
</g>
<!-- mean_precip_inflow&#45;&gt;mean_precip -->
<g id="edge35" class="edge"><title>mean_precip_inflow&#45;&gt;mean_precip</title>
<path fill="none" stroke="black" d="M556.181,-717.863C534.505,-715.394 465.412,-706.537 411,-688.6 399.529,-684.819 387.857,-680.533 376.21,-675.927"/>
<polygon fill="black" stroke="black" points="377.462,-672.659 366.879,-672.168 374.846,-679.151 377.462,-672.659"/>
</g>
</g>
</svg>
