<?xml version="1.0" encoding="UTF-8" standalone="no"?>
<!DOCTYPE svg PUBLIC "-//W3C//DTD SVG 1.1//EN"
 "http://www.w3.org/Graphics/SVG/1.1/DTD/svg11.dtd">
<!-- Generated by graphviz version 2.38.0 (20140413.2041)
 -->
<!-- Title: yw_data_view Pages: 1 -->
<svg width="744pt" height="662pt"
 viewBox="0.00 0.00 744.00 661.60" xmlns="http://www.w3.org/2000/svg" xmlns:xlink="http://www.w3.org/1999/xlink">
<g id="graph0" class="graph" transform="scale(1 1) rotate(0) translate(4 657.6)">
<title>yw_data_view</title>
<polygon fill="white" stroke="none" points="-4,4 -4,-657.6 740,-657.6 740,4 -4,4"/>
<text text-anchor="middle" x="368" y="-633.4" font-family="Courier,monospace" font-size="18.00">C3_C4_map_present_NA</text>
<g id="clust1" class="cluster"><title>cluster_workflow</title>
<polygon fill="none" stroke="black" stroke-width="2" points="8,-62 8,-562 728,-562 728,-62 8,-62"/>
</g>
<g id="clust2" class="cluster"><title>cluster_workflow_inner</title>
<polygon fill="none" stroke="white" stroke-width="2" points="16,-70 16,-554 720,-554 720,-70 16,-70"/>
</g>
<g id="clust3" class="cluster"><title>cluster_inflows</title>
<polygon fill="none" stroke="white" stroke-width="2" points="485,-570 485,-616 595,-616 595,-570 485,-570"/>
</g>
<g id="clust4" class="cluster"><title>cluster_inflows_inner</title>
<polygon fill="none" stroke="white" stroke-width="2" points="493,-578 493,-608 587,-608 587,-578 493,-578"/>
</g>
<g id="clust5" class="cluster"><title>cluster_outflows</title>
<polygon fill="none" stroke="white" stroke-width="2" points="353,-8 353,-54 399,-54 399,-8 353,-8"/>
</g>
<g id="clust6" class="cluster"><title>cluster_outflows_inner</title>
<polygon fill="none" stroke="white" stroke-width="2" points="361,-16 361,-46 391,-46 391,-16 361,-16"/>
</g>
<!-- examine_pixels_for_grass -->
<g id="node1" class="node"><title>examine_pixels_for_grass</title>
<polygon fill="#ccffcc" stroke="black" points="295.567,-330 78.4332,-330 78.4332,-294 295.567,-294 295.567,-330"/>
<text text-anchor="middle" x="187" y="-307.8" font-family="Courier,monospace" font-size="14.00">examine_pixels_for_grass</text>
</g>
<!-- C3_Data -->
<g id="node15" class="node"><title>C3_Data</title>
<path fill="#ffffcc" stroke="black" d="M192.735,-258C192.735,-258 145.265,-258 145.265,-258 139.265,-258 133.265,-252 133.265,-246 133.265,-246 133.265,-234 133.265,-234 133.265,-228 139.265,-222 145.265,-222 145.265,-222 192.735,-222 192.735,-222 198.735,-222 204.735,-228 204.735,-234 204.735,-234 204.735,-246 204.735,-246 204.735,-252 198.735,-258 192.735,-258"/>
<text text-anchor="middle" x="169" y="-235.8" font-family="Helvetica,sans-Serif" font-size="14.00">C3_Data</text>
</g>
<!-- examine_pixels_for_grass&#45;&gt;C3_Data -->
<g id="edge17" class="edge"><title>examine_pixels_for_grass&#45;&gt;C3_Data</title>
<path fill="none" stroke="black" d="M182.551,-293.697C180.545,-285.898 178.131,-276.509 175.899,-267.829"/>
<polygon fill="black" stroke="black" points="179.278,-266.918 173.398,-258.104 172.499,-268.661 179.278,-266.918"/>
</g>
<!-- fetch_SYNMAP_land_cover_map_variable -->
<g id="node2" class="node"><title>fetch_SYNMAP_land_cover_map_variable</title>
<polygon fill="#ccffcc" stroke="black" points="662.35,-330 343.65,-330 343.65,-294 662.35,-294 662.35,-330"/>
<text text-anchor="middle" x="503" y="-307.8" font-family="Courier,monospace" font-size="14.00">fetch_SYNMAP_land_cover_map_variable</text>
</g>
<!-- lon_variable -->
<g id="node7" class="node"><title>lon_variable</title>
<path fill="#ffffcc" stroke="black" d="M301.96,-258C301.96,-258 234.04,-258 234.04,-258 228.04,-258 222.04,-252 222.04,-246 222.04,-246 222.04,-234 222.04,-234 222.04,-228 228.04,-222 234.04,-222 234.04,-222 301.96,-222 301.96,-222 307.96,-222 313.96,-228 313.96,-234 313.96,-234 313.96,-246 313.96,-246 313.96,-252 307.96,-258 301.96,-258"/>
<text text-anchor="middle" x="268" y="-235.8" font-family="Helvetica,sans-Serif" font-size="14.00">lon_variable</text>
</g>
<!-- fetch_SYNMAP_land_cover_map_variable&#45;&gt;lon_variable -->
<g id="edge11" class="edge"><title>fetch_SYNMAP_land_cover_map_variable&#45;&gt;lon_variable</title>
<path fill="none" stroke="black" d="M444.167,-293.893C411.312,-284.29 369.397,-271.956 323.707,-258.196"/>
<polygon fill="black" stroke="black" points="324.487,-254.775 313.902,-255.238 322.465,-261.477 324.487,-254.775"/>
</g>
<!-- lat_variable -->
<g id="node8" class="node"><title>lat_variable</title>
<path fill="#ffffcc" stroke="black" d="M407.568,-258C407.568,-258 344.432,-258 344.432,-258 338.432,-258 332.432,-252 332.432,-246 332.432,-246 332.432,-234 332.432,-234 332.432,-228 338.432,-222 344.432,-222 344.432,-222 407.568,-222 407.568,-222 413.568,-222 419.568,-228 419.568,-234 419.568,-234 419.568,-246 419.568,-246 419.568,-252 413.568,-258 407.568,-258"/>
<text text-anchor="middle" x="376" y="-235.8" font-family="Helvetica,sans-Serif" font-size="14.00">lat_variable</text>
</g>
<!-- fetch_SYNMAP_land_cover_map_variable&#45;&gt;lat_variable -->
<g id="edge12" class="edge"><title>fetch_SYNMAP_land_cover_map_variable&#45;&gt;lat_variable</title>
<path fill="none" stroke="black" d="M471.932,-293.876C455.173,-284.639 434.294,-273.131 416.298,-263.212"/>
<polygon fill="black" stroke="black" points="417.634,-259.952 407.187,-258.19 414.255,-266.082 417.634,-259.952"/>
</g>
<!-- lon_bnds_variable -->
<g id="node9" class="node"><title>lon_bnds_variable</title>
<path fill="#ffffcc" stroke="black" d="M555.59,-258C555.59,-258 450.41,-258 450.41,-258 444.41,-258 438.41,-252 438.41,-246 438.41,-246 438.41,-234 438.41,-234 438.41,-228 444.41,-222 450.41,-222 450.41,-222 555.59,-222 555.59,-222 561.59,-222 567.59,-228 567.59,-234 567.59,-234 567.59,-246 567.59,-246 567.59,-252 561.59,-258 555.59,-258"/>
<text text-anchor="middle" x="503" y="-235.8" font-family="Helvetica,sans-Serif" font-size="14.00">lon_bnds_variable</text>
</g>
<!-- fetch_SYNMAP_land_cover_map_variable&#45;&gt;lon_bnds_variable -->
<g id="edge13" class="edge"><title>fetch_SYNMAP_land_cover_map_variable&#45;&gt;lon_bnds_variable</title>
<path fill="none" stroke="black" d="M503,-293.697C503,-285.983 503,-276.712 503,-268.112"/>
<polygon fill="black" stroke="black" points="506.5,-268.104 503,-258.104 499.5,-268.104 506.5,-268.104"/>
</g>
<!-- lat_bnds_variable -->
<g id="node10" class="node"><title>lat_bnds_variable</title>
<path fill="#ffffcc" stroke="black" d="M699.697,-258C699.697,-258 598.303,-258 598.303,-258 592.303,-258 586.303,-252 586.303,-246 586.303,-246 586.303,-234 586.303,-234 586.303,-228 592.303,-222 598.303,-222 598.303,-222 699.697,-222 699.697,-222 705.697,-222 711.697,-228 711.697,-234 711.697,-234 711.697,-246 711.697,-246 711.697,-252 705.697,-258 699.697,-258"/>
<text text-anchor="middle" x="649" y="-235.8" font-family="Helvetica,sans-Serif" font-size="14.00">lat_bnds_variable</text>
</g>
<!-- fetch_SYNMAP_land_cover_map_variable&#45;&gt;lat_bnds_variable -->
<g id="edge14" class="edge"><title>fetch_SYNMAP_land_cover_map_variable&#45;&gt;lat_bnds_variable</title>
<path fill="none" stroke="black" d="M538.716,-293.876C558.497,-284.392 583.272,-272.513 604.326,-262.419"/>
<polygon fill="black" stroke="black" points="605.896,-265.548 613.4,-258.068 602.87,-259.236 605.896,-265.548"/>
</g>
<!-- fetch_monthly_mean_precipitation_data -->
<g id="node3" class="node"><title>fetch_monthly_mean_precipitation_data</title>
<polygon fill="#ccffcc" stroke="black" points="350.248,-474 23.7517,-474 23.7517,-438 350.248,-438 350.248,-474"/>
<text text-anchor="middle" x="187" y="-451.8" font-family="Courier,monospace" font-size="14.00">fetch_monthly_mean_precipitation_data</text>
</g>
<!-- Rain_Matrix -->
<g id="node14" class="node"><title>Rain_Matrix</title>
<path fill="#ffffcc" stroke="black" d="M220.163,-402C220.163,-402 153.837,-402 153.837,-402 147.837,-402 141.837,-396 141.837,-390 141.837,-390 141.837,-378 141.837,-378 141.837,-372 147.837,-366 153.837,-366 153.837,-366 220.163,-366 220.163,-366 226.163,-366 232.163,-372 232.163,-378 232.163,-378 232.163,-390 232.163,-390 232.163,-396 226.163,-402 220.163,-402"/>
<text text-anchor="middle" x="187" y="-379.8" font-family="Helvetica,sans-Serif" font-size="14.00">Rain_Matrix</text>
</g>
<!-- fetch_monthly_mean_precipitation_data&#45;&gt;Rain_Matrix -->
<g id="edge16" class="edge"><title>fetch_monthly_mean_precipitation_data&#45;&gt;Rain_Matrix</title>
<path fill="none" stroke="black" d="M187,-437.697C187,-429.983 187,-420.712 187,-412.112"/>
<polygon fill="black" stroke="black" points="190.5,-412.104 187,-402.104 183.5,-412.104 190.5,-412.104"/>
</g>
<!-- fetch_monthly_mean_air_temperature_data -->
<g id="node4" class="node"><title>fetch_monthly_mean_air_temperature_data</title>
<polygon fill="#ccffcc" stroke="black" points="711.546,-474 368.454,-474 368.454,-438 711.546,-438 711.546,-474"/>
<text text-anchor="middle" x="540" y="-451.8" font-family="Courier,monospace" font-size="14.00">fetch_monthly_mean_air_temperature_data</text>
</g>
<!-- Tair_Matrix -->
<g id="node12" class="node"><title>Tair_Matrix</title>
<path fill="#ffffcc" stroke="black" d="M391.986,-402C391.986,-402 330.014,-402 330.014,-402 324.014,-402 318.014,-396 318.014,-390 318.014,-390 318.014,-378 318.014,-378 318.014,-372 324.014,-366 330.014,-366 330.014,-366 391.986,-366 391.986,-366 397.986,-366 403.986,-372 403.986,-378 403.986,-378 403.986,-390 403.986,-390 403.986,-396 397.986,-402 391.986,-402"/>
<text text-anchor="middle" x="361" y="-379.8" font-family="Helvetica,sans-Serif" font-size="14.00">Tair_Matrix</text>
</g>
<!-- fetch_monthly_mean_air_temperature_data&#45;&gt;Tair_Matrix -->
<g id="edge15" class="edge"><title>fetch_monthly_mean_air_temperature_data&#45;&gt;Tair_Matrix</title>
<path fill="none" stroke="black" d="M496.212,-437.876C471.231,-428.107 439.755,-415.798 413.459,-405.515"/>
<polygon fill="black" stroke="black" points="414.615,-402.209 404.027,-401.826 412.066,-408.728 414.615,-402.209"/>
</g>
<!-- generate_netcdf_file_for_C3_fraction -->
<g id="node5" class="node"><title>generate_netcdf_file_for_C3_fraction</title>
<polygon fill="#ccffcc" stroke="black" points="535.35,-186 216.65,-186 216.65,-150 535.35,-150 535.35,-186"/>
<text text-anchor="middle" x="376" y="-163.8" font-family="Courier,monospace" font-size="14.00">generate_netcdf_file_for_C3_fraction</text>
</g>
<!-- C3_fraction_data -->
<g id="node16" class="node"><title>C3_fraction_data</title>
<path fill="#ffffcc" stroke="black" d="M425.09,-114C425.09,-114 326.91,-114 326.91,-114 320.91,-114 314.91,-108 314.91,-102 314.91,-102 314.91,-90 314.91,-90 314.91,-84 320.91,-78 326.91,-78 326.91,-78 425.09,-78 425.09,-78 431.09,-78 437.09,-84 437.09,-90 437.09,-90 437.09,-102 437.09,-102 437.09,-108 431.09,-114 425.09,-114"/>
<text text-anchor="middle" x="376" y="-91.8" font-family="Helvetica,sans-Serif" font-size="14.00">C3_fraction_data</text>
</g>
<!-- generate_netcdf_file_for_C3_fraction&#45;&gt;C3_fraction_data -->
<g id="edge18" class="edge"><title>generate_netcdf_file_for_C3_fraction&#45;&gt;C3_fraction_data</title>
<path fill="none" stroke="black" d="M376,-149.697C376,-141.983 376,-132.712 376,-124.112"/>
<polygon fill="black" stroke="black" points="379.5,-124.104 376,-114.104 372.5,-124.104 379.5,-124.104"/>
</g>
<!-- SYNMAP_land_cover_map_data -->
<g id="node6" class="node"><title>SYNMAP_land_cover_map_data</title>
<path fill="#ffffcc" stroke="black" d="M650.889,-402C650.889,-402 453.111,-402 453.111,-402 447.111,-402 441.111,-396 441.111,-390 441.111,-390 441.111,-378 441.111,-378 441.111,-372 447.111,-366 453.111,-366 453.111,-366 650.889,-366 650.889,-366 656.889,-366 662.889,-372 662.889,-378 662.889,-378 662.889,-390 662.889,-390 662.889,-396 656.889,-402 650.889,-402"/>
<text text-anchor="middle" x="552" y="-379.8" font-family="Helvetica,sans-Serif" font-size="14.00">SYNMAP_land_cover_map_data</text>
</g>
<!-- SYNMAP_land_cover_map_data&#45;&gt;fetch_SYNMAP_land_cover_map_variable -->
<g id="edge9" class="edge"><title>SYNMAP_land_cover_map_data&#45;&gt;fetch_SYNMAP_land_cover_map_variable</title>
<path fill="none" stroke="black" d="M539.888,-365.697C534.132,-357.474 527.138,-347.483 520.794,-338.421"/>
<polygon fill="black" stroke="black" points="523.575,-336.29 514.973,-330.104 517.84,-340.304 523.575,-336.29"/>
</g>
<!-- lon_variable&#45;&gt;generate_netcdf_file_for_C3_fraction -->
<g id="edge1" class="edge"><title>lon_variable&#45;&gt;generate_netcdf_file_for_C3_fraction</title>
<path fill="none" stroke="black" d="M294.42,-221.876C308.41,-212.808 325.776,-201.552 340.886,-191.759"/>
<polygon fill="black" stroke="black" points="342.991,-194.566 349.479,-186.19 339.183,-188.692 342.991,-194.566"/>
</g>
<!-- lat_variable&#45;&gt;generate_netcdf_file_for_C3_fraction -->
<g id="edge3" class="edge"><title>lat_variable&#45;&gt;generate_netcdf_file_for_C3_fraction</title>
<path fill="none" stroke="black" d="M376,-221.697C376,-213.983 376,-204.712 376,-196.112"/>
<polygon fill="black" stroke="black" points="379.5,-196.104 376,-186.104 372.5,-196.104 379.5,-196.104"/>
</g>
<!-- lon_bnds_variable&#45;&gt;generate_netcdf_file_for_C3_fraction -->
<g id="edge6" class="edge"><title>lon_bnds_variable&#45;&gt;generate_netcdf_file_for_C3_fraction</title>
<path fill="none" stroke="black" d="M471.932,-221.876C455.173,-212.639 434.294,-201.131 416.298,-191.212"/>
<polygon fill="black" stroke="black" points="417.634,-187.952 407.187,-186.19 414.255,-194.082 417.634,-187.952"/>
</g>
<!-- lat_bnds_variable&#45;&gt;generate_netcdf_file_for_C3_fraction -->
<g id="edge7" class="edge"><title>lat_bnds_variable&#45;&gt;generate_netcdf_file_for_C3_fraction</title>
<path fill="none" stroke="black" d="M586.026,-222.853C546.227,-212.648 494.543,-199.396 452.406,-188.591"/>
<polygon fill="black" stroke="black" points="453.022,-185.136 442.466,-186.043 451.284,-191.917 453.022,-185.136"/>
</g>
<!-- mean_airtemp -->
<g id="node11" class="node"><title>mean_airtemp</title>
<path fill="#ffffcc" stroke="black" d="M580.958,-546C580.958,-546 499.042,-546 499.042,-546 493.042,-546 487.042,-540 487.042,-534 487.042,-534 487.042,-522 487.042,-522 487.042,-516 493.042,-510 499.042,-510 499.042,-510 580.958,-510 580.958,-510 586.958,-510 592.958,-516 592.958,-522 592.958,-522 592.958,-534 592.958,-534 592.958,-540 586.958,-546 580.958,-546"/>
<text text-anchor="middle" x="540" y="-523.8" font-family="Helvetica,sans-Serif" font-size="14.00">mean_airtemp</text>
</g>
<!-- mean_airtemp&#45;&gt;fetch_monthly_mean_air_temperature_data -->
<g id="edge2" class="edge"><title>mean_airtemp&#45;&gt;fetch_monthly_mean_air_temperature_data</title>
<path fill="none" stroke="black" d="M540,-509.697C540,-501.983 540,-492.712 540,-484.112"/>
<polygon fill="black" stroke="black" points="543.5,-484.104 540,-474.104 536.5,-484.104 543.5,-484.104"/>
</g>
<!-- Tair_Matrix&#45;&gt;examine_pixels_for_grass -->
<g id="edge8" class="edge"><title>Tair_Matrix&#45;&gt;examine_pixels_for_grass</title>
<path fill="none" stroke="black" d="M318.435,-365.876C294.437,-356.222 264.272,-344.087 238.896,-333.878"/>
<polygon fill="black" stroke="black" points="240.011,-330.554 229.427,-330.068 237.398,-337.048 240.011,-330.554"/>
</g>
<!-- mean_precip -->
<g id="node13" class="node"><title>mean_precip</title>
<path fill="#ffffcc" stroke="black" d="M340.406,-546C340.406,-546 267.594,-546 267.594,-546 261.594,-546 255.594,-540 255.594,-534 255.594,-534 255.594,-522 255.594,-522 255.594,-516 261.594,-510 267.594,-510 267.594,-510 340.406,-510 340.406,-510 346.406,-510 352.406,-516 352.406,-522 352.406,-522 352.406,-534 352.406,-534 352.406,-540 346.406,-546 340.406,-546"/>
<text text-anchor="middle" x="304" y="-523.8" font-family="Helvetica,sans-Serif" font-size="14.00">mean_precip</text>
</g>
<!-- mean_precip&#45;&gt;fetch_monthly_mean_precipitation_data -->
<g id="edge4" class="edge"><title>mean_precip&#45;&gt;fetch_monthly_mean_precipitation_data</title>
<path fill="none" stroke="black" d="M275.379,-509.876C260.081,-500.724 241.057,-489.342 224.582,-479.485"/>
<polygon fill="black" stroke="black" points="226.11,-476.32 215.731,-474.19 222.516,-482.327 226.11,-476.32"/>
</g>
<!-- Rain_Matrix&#45;&gt;examine_pixels_for_grass -->
<g id="edge10" class="edge"><title>Rain_Matrix&#45;&gt;examine_pixels_for_grass</title>
<path fill="none" stroke="black" d="M187,-365.697C187,-357.983 187,-348.712 187,-340.112"/>
<polygon fill="black" stroke="black" points="190.5,-340.104 187,-330.104 183.5,-340.104 190.5,-340.104"/>
</g>
<!-- C3_Data&#45;&gt;generate_netcdf_file_for_C3_fraction -->
<g id="edge5" class="edge"><title>C3_Data&#45;&gt;generate_netcdf_file_for_C3_fraction</title>
<path fill="none" stroke="black" d="M204.959,-224.924C207.674,-223.917 210.376,-222.933 213,-222 245.258,-210.534 281.442,-198.669 311.51,-189.08"/>
<polygon fill="black" stroke="black" points="312.574,-192.415 321.044,-186.05 310.454,-185.743 312.574,-192.415"/>
</g>
<!-- C3_fraction_data_outflow -->
<g id="node20" class="node"><title>C3_fraction_data_outflow</title>
<ellipse fill="none" stroke="black" cx="376" cy="-31" rx="7" ry="7"/>
</g>
<!-- C3_fraction_data&#45;&gt;C3_fraction_data_outflow -->
<g id="edge22" class="edge"><title>C3_fraction_data&#45;&gt;C3_fraction_data_outflow</title>
<path fill="none" stroke="black" d="M376,-77.785C376,-68.6656 376,-57.5197 376,-48.5085"/>
<polygon fill="black" stroke="black" points="379.5,-48.242 376,-38.242 372.5,-48.2421 379.5,-48.242"/>
</g>
<!-- SYNMAP_land_cover_map_data_inflow -->
<g id="node17" class="node"><title>SYNMAP_land_cover_map_data_inflow</title>
<ellipse fill="none" stroke="black" cx="572" cy="-593" rx="7" ry="7"/>
</g>
<!-- SYNMAP_land_cover_map_data_inflow&#45;&gt;SYNMAP_land_cover_map_data -->
<g id="edge19" class="edge"><title>SYNMAP_land_cover_map_data_inflow&#45;&gt;SYNMAP_land_cover_map_data</title>
<path fill="none" stroke="black" d="M578.305,-589.514C612.409,-575.712 771.428,-506.664 721,-438 708.799,-421.387 691.401,-409.841 672.364,-401.846"/>
<polygon fill="black" stroke="black" points="673.492,-398.53 662.902,-398.2 670.975,-405.062 673.492,-398.53"/>
</g>
<!-- mean_airtemp_inflow -->
<g id="node18" class="node"><title>mean_airtemp_inflow</title>
<ellipse fill="none" stroke="black" cx="540" cy="-593" rx="7" ry="7"/>
</g>
<!-- mean_airtemp_inflow&#45;&gt;mean_airtemp -->
<g id="edge20" class="edge"><title>mean_airtemp_inflow&#45;&gt;mean_airtemp</title>
<path fill="none" stroke="black" d="M540,-585.729C540,-578.795 540,-567.154 540,-556.215"/>
<polygon fill="black" stroke="black" points="543.5,-556.119 540,-546.119 536.5,-556.119 543.5,-556.119"/>
</g>
<!-- mean_precip_inflow -->
<g id="node19" class="node"><title>mean_precip_inflow</title>
<ellipse fill="none" stroke="black" cx="508" cy="-593" rx="7" ry="7"/>
</g>
<!-- mean_precip_inflow&#45;&gt;mean_precip -->
<g id="edge21" class="edge"><title>mean_precip_inflow&#45;&gt;mean_precip</title>
<path fill="none" stroke="black" d="M501.213,-589.904C479.889,-583.319 412.687,-562.565 362.621,-547.104"/>
<polygon fill="black" stroke="black" points="363.443,-543.694 352.855,-544.088 361.377,-550.383 363.443,-543.694"/>
</g>
</g>
</svg>
