<?xml version="1.0" encoding="UTF-8" standalone="no"?>
<!DOCTYPE svg PUBLIC "-//W3C//DTD SVG 1.1//EN"
 "http://www.w3.org/Graphics/SVG/1.1/DTD/svg11.dtd">
<!-- Generated by graphviz version 2.38.0 (20140413.2041)
 -->
<!-- Title: yw_data_view Pages: 1 -->
<svg width="674pt" height="518pt"
 viewBox="0.00 0.00 674.00 517.60" xmlns="http://www.w3.org/2000/svg" xmlns:xlink="http://www.w3.org/1999/xlink">
<g id="graph0" class="graph" transform="scale(1 1) rotate(0) translate(4 513.6)">
<title>yw_data_view</title>
<polygon fill="white" stroke="none" points="-4,4 -4,-513.6 670,-513.6 670,4 -4,4"/>
<text text-anchor="middle" x="333" y="-489.4" font-family="Courier,monospace" font-size="18.00">C3_C4_map_present_NA</text>
<g id="clust1" class="cluster"><title>cluster_workflow</title>
<polygon fill="none" stroke="black" stroke-width="2" points="8,-62 8,-418 658,-418 658,-62 8,-62"/>
</g>
<g id="clust2" class="cluster"><title>cluster_workflow_inner</title>
<polygon fill="none" stroke="white" stroke-width="2" points="16,-70 16,-410 650,-410 650,-70 16,-70"/>
</g>
<g id="clust3" class="cluster"><title>cluster_inflows</title>
<polygon fill="none" stroke="white" stroke-width="2" points="196,-426 196,-472 242,-472 242,-426 196,-426"/>
</g>
<g id="clust4" class="cluster"><title>cluster_inflows_inner</title>
<polygon fill="none" stroke="white" stroke-width="2" points="204,-434 204,-464 234,-464 234,-434 204,-434"/>
</g>
<g id="clust5" class="cluster"><title>cluster_outflows</title>
<polygon fill="none" stroke="white" stroke-width="2" points="282,-8 282,-54 328,-54 328,-8 282,-8"/>
</g>
<g id="clust6" class="cluster"><title>cluster_outflows_inner</title>
<polygon fill="none" stroke="white" stroke-width="2" points="290,-16 290,-46 320,-46 320,-16 290,-16"/>
</g>
<!-- initialize_Grass_Matrix -->
<g id="node1" class="node"><title>initialize_Grass_Matrix</title>
<polygon fill="#ccffcc" stroke="black" points="641.668,-330 432.332,-330 432.332,-294 641.668,-294 641.668,-330"/>
<text text-anchor="middle" x="537" y="-307.8" font-family="Courier,monospace" font-size="14.00">initialize_Grass_Matrix</text>
</g>
<!-- Grass_variable -->
<g id="node9" class="node"><title>Grass_variable</title>
<path fill="#ffffcc" stroke="black" d="M630.121,-258C630.121,-258 543.879,-258 543.879,-258 537.879,-258 531.879,-252 531.879,-246 531.879,-246 531.879,-234 531.879,-234 531.879,-228 537.879,-222 543.879,-222 543.879,-222 630.121,-222 630.121,-222 636.121,-222 642.121,-228 642.121,-234 642.121,-234 642.121,-246 642.121,-246 642.121,-252 636.121,-258 630.121,-258"/>
<text text-anchor="middle" x="587" y="-235.8" font-family="Helvetica,sans-Serif" font-size="14.00">Grass_variable</text>
</g>
<!-- initialize_Grass_Matrix&#45;&gt;Grass_variable -->
<g id="edge11" class="edge"><title>initialize_Grass_Matrix&#45;&gt;Grass_variable</title>
<path fill="none" stroke="black" d="M549.36,-293.697C555.233,-285.474 562.369,-275.483 568.842,-266.421"/>
<polygon fill="black" stroke="black" points="571.818,-268.276 574.783,-258.104 566.122,-264.207 571.818,-268.276"/>
</g>
<!-- fetch_SYNMAP_land_cover_map_variable -->
<g id="node2" class="node"><title>fetch_SYNMAP_land_cover_map_variable</title>
<polygon fill="#ccffcc" stroke="black" points="378.35,-330 59.6502,-330 59.6502,-294 378.35,-294 378.35,-330"/>
<text text-anchor="middle" x="219" y="-307.8" font-family="Courier,monospace" font-size="14.00">fetch_SYNMAP_land_cover_map_variable</text>
</g>
<!-- lon_variable -->
<g id="node5" class="node"><title>lon_variable</title>
<path fill="#ffffcc" stroke="black" d="M103.96,-258C103.96,-258 36.0402,-258 36.0402,-258 30.0402,-258 24.0402,-252 24.0402,-246 24.0402,-246 24.0402,-234 24.0402,-234 24.0402,-228 30.0402,-222 36.0402,-222 36.0402,-222 103.96,-222 103.96,-222 109.96,-222 115.96,-228 115.96,-234 115.96,-234 115.96,-246 115.96,-246 115.96,-252 109.96,-258 103.96,-258"/>
<text text-anchor="middle" x="70" y="-235.8" font-family="Helvetica,sans-Serif" font-size="14.00">lon_variable</text>
</g>
<!-- fetch_SYNMAP_land_cover_map_variable&#45;&gt;lon_variable -->
<g id="edge7" class="edge"><title>fetch_SYNMAP_land_cover_map_variable&#45;&gt;lon_variable</title>
<path fill="none" stroke="black" d="M182.55,-293.876C162.362,-284.392 137.079,-272.513 115.592,-262.419"/>
<polygon fill="black" stroke="black" points="116.87,-259.153 106.331,-258.068 113.894,-265.488 116.87,-259.153"/>
</g>
<!-- lat_variable -->
<g id="node6" class="node"><title>lat_variable</title>
<path fill="#ffffcc" stroke="black" d="M209.568,-258C209.568,-258 146.432,-258 146.432,-258 140.432,-258 134.432,-252 134.432,-246 134.432,-246 134.432,-234 134.432,-234 134.432,-228 140.432,-222 146.432,-222 146.432,-222 209.568,-222 209.568,-222 215.568,-222 221.568,-228 221.568,-234 221.568,-234 221.568,-246 221.568,-246 221.568,-252 215.568,-258 209.568,-258"/>
<text text-anchor="middle" x="178" y="-235.8" font-family="Helvetica,sans-Serif" font-size="14.00">lat_variable</text>
</g>
<!-- fetch_SYNMAP_land_cover_map_variable&#45;&gt;lat_variable -->
<g id="edge8" class="edge"><title>fetch_SYNMAP_land_cover_map_variable&#45;&gt;lat_variable</title>
<path fill="none" stroke="black" d="M208.865,-293.697C204.148,-285.644 198.438,-275.894 193.218,-266.982"/>
<polygon fill="black" stroke="black" points="196.092,-264.964 188.018,-258.104 190.052,-268.502 196.092,-264.964"/>
</g>
<!-- lon_bnds_variable -->
<g id="node7" class="node"><title>lon_bnds_variable</title>
<path fill="#ffffcc" stroke="black" d="M357.59,-258C357.59,-258 252.41,-258 252.41,-258 246.41,-258 240.41,-252 240.41,-246 240.41,-246 240.41,-234 240.41,-234 240.41,-228 246.41,-222 252.41,-222 252.41,-222 357.59,-222 357.59,-222 363.59,-222 369.59,-228 369.59,-234 369.59,-234 369.59,-246 369.59,-246 369.59,-252 363.59,-258 357.59,-258"/>
<text text-anchor="middle" x="305" y="-235.8" font-family="Helvetica,sans-Serif" font-size="14.00">lon_bnds_variable</text>
</g>
<!-- fetch_SYNMAP_land_cover_map_variable&#45;&gt;lon_bnds_variable -->
<g id="edge9" class="edge"><title>fetch_SYNMAP_land_cover_map_variable&#45;&gt;lon_bnds_variable</title>
<path fill="none" stroke="black" d="M240.258,-293.697C251.089,-284.881 264.418,-274.032 276.16,-264.474"/>
<polygon fill="black" stroke="black" points="278.44,-267.132 283.986,-258.104 274.021,-261.703 278.44,-267.132"/>
</g>
<!-- lat_bnds_variable -->
<g id="node8" class="node"><title>lat_bnds_variable</title>
<path fill="#ffffcc" stroke="black" d="M501.697,-258C501.697,-258 400.303,-258 400.303,-258 394.303,-258 388.303,-252 388.303,-246 388.303,-246 388.303,-234 388.303,-234 388.303,-228 394.303,-222 400.303,-222 400.303,-222 501.697,-222 501.697,-222 507.697,-222 513.697,-228 513.697,-234 513.697,-234 513.697,-246 513.697,-246 513.697,-252 507.697,-258 501.697,-258"/>
<text text-anchor="middle" x="451" y="-235.8" font-family="Helvetica,sans-Serif" font-size="14.00">lat_bnds_variable</text>
</g>
<!-- fetch_SYNMAP_land_cover_map_variable&#45;&gt;lat_bnds_variable -->
<g id="edge10" class="edge"><title>fetch_SYNMAP_land_cover_map_variable&#45;&gt;lat_bnds_variable</title>
<path fill="none" stroke="black" d="M275.457,-293.966C308.295,-284.057 349.868,-271.514 384.313,-261.121"/>
<polygon fill="black" stroke="black" points="385.727,-264.35 394.29,-258.111 383.705,-257.649 385.727,-264.35"/>
</g>
<!-- generate_netcdf_file_for_Grass_fraction -->
<g id="node3" class="node"><title>generate_netcdf_file_for_Grass_fraction</title>
<polygon fill="#ccffcc" stroke="black" points="476.546,-186 133.454,-186 133.454,-150 476.546,-150 476.546,-186"/>
<text text-anchor="middle" x="305" y="-163.8" font-family="Courier,monospace" font-size="14.00">generate_netcdf_file_for_Grass_fraction</text>
</g>
<!-- Grass_fraction_data -->
<g id="node10" class="node"><title>Grass_fraction_data</title>
<path fill="#ffffcc" stroke="black" d="M364.034,-114C364.034,-114 245.966,-114 245.966,-114 239.966,-114 233.966,-108 233.966,-102 233.966,-102 233.966,-90 233.966,-90 233.966,-84 239.966,-78 245.966,-78 245.966,-78 364.034,-78 364.034,-78 370.034,-78 376.034,-84 376.034,-90 376.034,-90 376.034,-102 376.034,-102 376.034,-108 370.034,-114 364.034,-114"/>
<text text-anchor="middle" x="305" y="-91.8" font-family="Helvetica,sans-Serif" font-size="14.00">Grass_fraction_data</text>
</g>
<!-- generate_netcdf_file_for_Grass_fraction&#45;&gt;Grass_fraction_data -->
<g id="edge12" class="edge"><title>generate_netcdf_file_for_Grass_fraction&#45;&gt;Grass_fraction_data</title>
<path fill="none" stroke="black" d="M305,-149.697C305,-141.983 305,-132.712 305,-124.112"/>
<polygon fill="black" stroke="black" points="308.5,-124.104 305,-114.104 301.5,-124.104 308.5,-124.104"/>
</g>
<!-- SYNMAP_land_cover_map_data -->
<g id="node4" class="node"><title>SYNMAP_land_cover_map_data</title>
<path fill="#ffffcc" stroke="black" d="M317.889,-402C317.889,-402 120.111,-402 120.111,-402 114.111,-402 108.111,-396 108.111,-390 108.111,-390 108.111,-378 108.111,-378 108.111,-372 114.111,-366 120.111,-366 120.111,-366 317.889,-366 317.889,-366 323.889,-366 329.889,-372 329.889,-378 329.889,-378 329.889,-390 329.889,-390 329.889,-396 323.889,-402 317.889,-402"/>
<text text-anchor="middle" x="219" y="-379.8" font-family="Helvetica,sans-Serif" font-size="14.00">SYNMAP_land_cover_map_data</text>
</g>
<!-- SYNMAP_land_cover_map_data&#45;&gt;fetch_SYNMAP_land_cover_map_variable -->
<g id="edge6" class="edge"><title>SYNMAP_land_cover_map_data&#45;&gt;fetch_SYNMAP_land_cover_map_variable</title>
<path fill="none" stroke="black" d="M219,-365.697C219,-357.983 219,-348.712 219,-340.112"/>
<polygon fill="black" stroke="black" points="222.5,-340.104 219,-330.104 215.5,-340.104 222.5,-340.104"/>
</g>
<!-- lon_variable&#45;&gt;generate_netcdf_file_for_Grass_fraction -->
<g id="edge5" class="edge"><title>lon_variable&#45;&gt;generate_netcdf_file_for_Grass_fraction</title>
<path fill="none" stroke="black" d="M115.902,-224.762C118.98,-223.823 122.034,-222.895 125,-222 161.759,-210.908 202.826,-198.795 236.441,-188.952"/>
<polygon fill="black" stroke="black" points="237.552,-192.274 246.167,-186.107 235.587,-185.555 237.552,-192.274"/>
</g>
<!-- lat_variable&#45;&gt;generate_netcdf_file_for_Grass_fraction -->
<g id="edge4" class="edge"><title>lat_variable&#45;&gt;generate_netcdf_file_for_Grass_fraction</title>
<path fill="none" stroke="black" d="M209.068,-221.876C225.827,-212.639 246.706,-201.131 264.702,-191.212"/>
<polygon fill="black" stroke="black" points="266.745,-194.082 273.813,-186.19 263.366,-187.952 266.745,-194.082"/>
</g>
<!-- lon_bnds_variable&#45;&gt;generate_netcdf_file_for_Grass_fraction -->
<g id="edge3" class="edge"><title>lon_bnds_variable&#45;&gt;generate_netcdf_file_for_Grass_fraction</title>
<path fill="none" stroke="black" d="M305,-221.697C305,-213.983 305,-204.712 305,-196.112"/>
<polygon fill="black" stroke="black" points="308.5,-196.104 305,-186.104 301.5,-196.104 308.5,-196.104"/>
</g>
<!-- lat_bnds_variable&#45;&gt;generate_netcdf_file_for_Grass_fraction -->
<g id="edge2" class="edge"><title>lat_bnds_variable&#45;&gt;generate_netcdf_file_for_Grass_fraction</title>
<path fill="none" stroke="black" d="M415.284,-221.876C395.503,-212.392 370.728,-200.513 349.674,-190.419"/>
<polygon fill="black" stroke="black" points="351.13,-187.236 340.6,-186.068 348.104,-193.548 351.13,-187.236"/>
</g>
<!-- Grass_variable&#45;&gt;generate_netcdf_file_for_Grass_fraction -->
<g id="edge1" class="edge"><title>Grass_variable&#45;&gt;generate_netcdf_file_for_Grass_fraction</title>
<path fill="none" stroke="black" d="M531.861,-224.275C528.865,-223.499 525.897,-222.737 523,-222 478.014,-210.558 427.669,-198.284 386.704,-188.431"/>
<polygon fill="black" stroke="black" points="387.311,-184.977 376.77,-186.045 385.676,-191.784 387.311,-184.977"/>
</g>
<!-- Grass_fraction_data_outflow -->
<g id="node12" class="node"><title>Grass_fraction_data_outflow</title>
<ellipse fill="none" stroke="black" cx="305" cy="-31" rx="7" ry="7"/>
</g>
<!-- Grass_fraction_data&#45;&gt;Grass_fraction_data_outflow -->
<g id="edge14" class="edge"><title>Grass_fraction_data&#45;&gt;Grass_fraction_data_outflow</title>
<path fill="none" stroke="black" d="M305,-77.785C305,-68.6656 305,-57.5197 305,-48.5085"/>
<polygon fill="black" stroke="black" points="308.5,-48.242 305,-38.242 301.5,-48.2421 308.5,-48.242"/>
</g>
<!-- SYNMAP_land_cover_map_data_inflow -->
<g id="node11" class="node"><title>SYNMAP_land_cover_map_data_inflow</title>
<ellipse fill="none" stroke="black" cx="219" cy="-449" rx="7" ry="7"/>
</g>
<!-- SYNMAP_land_cover_map_data_inflow&#45;&gt;SYNMAP_land_cover_map_data -->
<g id="edge13" class="edge"><title>SYNMAP_land_cover_map_data_inflow&#45;&gt;SYNMAP_land_cover_map_data</title>
<path fill="none" stroke="black" d="M219,-441.729C219,-434.795 219,-423.154 219,-412.215"/>
<polygon fill="black" stroke="black" points="222.5,-412.119 219,-402.119 215.5,-412.119 222.5,-412.119"/>
</g>
</g>
</svg>
