<?xml version="1.0" encoding="UTF-8" standalone="no"?>
<!DOCTYPE svg PUBLIC "-//W3C//DTD SVG 1.1//EN"
 "http://www.w3.org/Graphics/SVG/1.1/DTD/svg11.dtd">
<!-- Generated by graphviz version 2.38.0 (20140413.2041)
 -->
<!-- Title: yw_data_view Pages: 1 -->
<svg width="240pt" height="176pt"
 viewBox="0.00 0.00 239.96 175.60" xmlns="http://www.w3.org/2000/svg" xmlns:xlink="http://www.w3.org/1999/xlink">
<g id="graph0" class="graph" transform="scale(1 1) rotate(0) translate(4 171.6)">
<title>yw_data_view</title>
<polygon fill="white" stroke="none" points="-4,4 -4,-171.6 235.964,-171.6 235.964,4 -4,4"/>
<text text-anchor="middle" x="115.982" y="-147.4" font-family="Courier,monospace" font-size="18.00">C3_C4_map_present_NA</text>
<g id="clust1" class="cluster"><title>cluster_workflow</title>
<polygon fill="none" stroke="black" stroke-width="2" points="51.982,-8 51.982,-76 179.982,-76 179.982,-8 51.982,-8"/>
</g>
<g id="clust2" class="cluster"><title>cluster_workflow_inner</title>
<polygon fill="none" stroke="white" stroke-width="2" points="59.982,-16 59.982,-68 171.982,-68 171.982,-16 59.982,-16"/>
</g>
<g id="clust3" class="cluster"><title>cluster_inflows</title>
<polygon fill="none" stroke="white" stroke-width="2" points="92.982,-84 92.982,-130 138.982,-130 138.982,-84 92.982,-84"/>
</g>
<g id="clust4" class="cluster"><title>cluster_inflows_inner</title>
<polygon fill="none" stroke="white" stroke-width="2" points="100.982,-92 100.982,-122 130.982,-122 130.982,-92 100.982,-92"/>
</g>
<!-- mean_precip -->
<g id="node1" class="node"><title>mean_precip</title>
<path fill="#ffffcc" stroke="black" d="M152.388,-60C152.388,-60 79.576,-60 79.576,-60 73.576,-60 67.576,-54 67.576,-48 67.576,-48 67.576,-36 67.576,-36 67.576,-30 73.576,-24 79.576,-24 79.576,-24 152.388,-24 152.388,-24 158.388,-24 164.388,-30 164.388,-36 164.388,-36 164.388,-48 164.388,-48 164.388,-54 158.388,-60 152.388,-60"/>
<text text-anchor="middle" x="115.982" y="-37.8" font-family="Helvetica,sans-Serif" font-size="14.00">mean_precip</text>
</g>
<!-- mean_precip_inflow -->
<g id="node2" class="node"><title>mean_precip_inflow</title>
<ellipse fill="none" stroke="black" cx="115.982" cy="-107" rx="7" ry="7"/>
</g>
<!-- mean_precip_inflow&#45;&gt;mean_precip -->
<g id="edge1" class="edge"><title>mean_precip_inflow&#45;&gt;mean_precip</title>
<path fill="none" stroke="black" d="M115.982,-99.729C115.982,-92.7948 115.982,-81.1535 115.982,-70.2147"/>
<polygon fill="black" stroke="black" points="119.482,-70.1188 115.982,-60.1188 112.482,-70.1189 119.482,-70.1188"/>
</g>
</g>
</svg>
