<?xml version="1.0" encoding="UTF-8" standalone="no"?>
<!DOCTYPE svg PUBLIC "-//W3C//DTD SVG 1.1//EN"
 "http://www.w3.org/Graphics/SVG/1.1/DTD/svg11.dtd">
<!-- Generated by graphviz version 2.38.0 (20140413.2041)
 -->
<!-- Title: Workflow Pages: 1 -->
<svg width="1419pt" height="1269pt"
 viewBox="0.00 0.00 1419.00 1268.80" xmlns="http://www.w3.org/2000/svg" xmlns:xlink="http://www.w3.org/1999/xlink">
<g id="graph0" class="graph" transform="scale(1 1) rotate(0) translate(4 1264.8)">
<title>Workflow</title>
<polygon fill="white" stroke="none" points="-4,4 -4,-1264.8 1415,-1264.8 1415,4 -4,4"/>
<text text-anchor="middle" x="705.5" y="-1240.6" font-family="Courier,monospace" font-size="18.00">GRAVITATIONAL_WAVE_DETECTION</text>
<g id="clust1" class="cluster"><title>cluster_workflow_box_outer</title>
<polygon fill="none" stroke="black" stroke-width="2" points="8,-62 8,-1169.2 1403,-1169.2 1403,-62 8,-62"/>
</g>
<g id="clust2" class="cluster"><title>cluster_workflow_box_inner</title>
<polygon fill="none" stroke="white" stroke-width="2" points="16,-70 16,-1161.2 1395,-1161.2 1395,-70 16,-70"/>
</g>
<g id="clust3" class="cluster"><title>cluster_input_ports_group_outer</title>
<polygon fill="none" stroke="white" points="500,-1177.2 500,-1223.2 610,-1223.2 610,-1177.2 500,-1177.2"/>
</g>
<g id="clust4" class="cluster"><title>cluster_input_ports_group_inner</title>
<polygon fill="none" stroke="white" points="508,-1185.2 508,-1215.2 602,-1215.2 602,-1185.2 508,-1185.2"/>
</g>
<g id="clust5" class="cluster"><title>cluster_output_ports_group_outer</title>
<polygon fill="none" stroke="white" points="934,-8 934,-54 1268,-54 1268,-8 934,-8"/>
</g>
<g id="clust6" class="cluster"><title>cluster_output_ports_group_inner</title>
<polygon fill="none" stroke="white" points="942,-16 942,-46 1260,-46 1260,-16 942,-16"/>
</g>
<!-- LOAD_DATA -->
<g id="node1" class="node"><title>LOAD_DATA</title>
<polygon fill="#ccffcc" stroke="black" points="359.01,-1016.5 359.01,-1066.1 500.99,-1066.1 500.99,-1016.5 359.01,-1016.5"/>
<text text-anchor="middle" x="430" y="-1049.5" font-family="Courier,monospace" font-size="14.00">LOAD_DATA</text>
<polyline fill="none" stroke="black" points="359.01,-1041.3 500.99,-1041.3 "/>
<text text-anchor="middle" x="430" y="-1024.7" font-family="Courier,monospace" font-size="14.00">Load hdf5 data.</text>
</g>
<!-- strain_H1 -->
<g id="node27" class="node"><title>strain_H1</title>
<path fill="#ffffcc" stroke="black" d="M413.895,-980C413.895,-980 362.105,-980 362.105,-980 356.105,-980 350.105,-974 350.105,-968 350.105,-968 350.105,-956 350.105,-956 350.105,-950 356.105,-944 362.105,-944 362.105,-944 413.895,-944 413.895,-944 419.895,-944 425.895,-950 425.895,-956 425.895,-956 425.895,-968 425.895,-968 425.895,-974 419.895,-980 413.895,-980"/>
<text text-anchor="middle" x="388" y="-957.8" font-family="Helvetica,sans-Serif" font-size="14.00">strain_H1</text>
</g>
<!-- LOAD_DATA&#45;&gt;strain_H1 -->
<g id="edge1" class="edge"><title>LOAD_DATA&#45;&gt;strain_H1</title>
<path fill="none" stroke="black" d="M416.941,-1016.27C412.273,-1007.67 406.99,-997.95 402.228,-989.186"/>
<polygon fill="black" stroke="black" points="405.168,-987.265 397.318,-980.149 399.017,-990.607 405.168,-987.265"/>
</g>
<!-- strain_L1 -->
<g id="node28" class="node"><title>strain_L1</title>
<path fill="#ffffcc" stroke="black" d="M254.572,-980C254.572,-980 205.428,-980 205.428,-980 199.428,-980 193.428,-974 193.428,-968 193.428,-968 193.428,-956 193.428,-956 193.428,-950 199.428,-944 205.428,-944 205.428,-944 254.572,-944 254.572,-944 260.572,-944 266.572,-950 266.572,-956 266.572,-956 266.572,-968 266.572,-968 266.572,-974 260.572,-980 254.572,-980"/>
<text text-anchor="middle" x="230" y="-957.8" font-family="Helvetica,sans-Serif" font-size="14.00">strain_L1</text>
</g>
<!-- LOAD_DATA&#45;&gt;strain_L1 -->
<g id="edge2" class="edge"><title>LOAD_DATA&#45;&gt;strain_L1</title>
<path fill="none" stroke="black" d="M368.361,-1016.48C338.587,-1004.97 303.465,-991.394 276.058,-980.801"/>
<polygon fill="black" stroke="black" points="277.296,-977.528 266.707,-977.187 274.772,-984.057 277.296,-977.528"/>
</g>
<!-- strain_16 -->
<g id="node40" class="node"><title>strain_16</title>
<path fill="#ffffcc" stroke="black" d="M949.572,-980C949.572,-980 900.428,-980 900.428,-980 894.428,-980 888.428,-974 888.428,-968 888.428,-968 888.428,-956 888.428,-956 888.428,-950 894.428,-944 900.428,-944 900.428,-944 949.572,-944 949.572,-944 955.572,-944 961.572,-950 961.572,-956 961.572,-956 961.572,-968 961.572,-968 961.572,-974 955.572,-980 949.572,-980"/>
<text text-anchor="middle" x="925" y="-957.8" font-family="Helvetica,sans-Serif" font-size="14.00">strain_16</text>
</g>
<!-- LOAD_DATA&#45;&gt;strain_16 -->
<g id="edge3" class="edge"><title>LOAD_DATA&#45;&gt;strain_16</title>
<path fill="none" stroke="black" d="M501.185,-1029.18C604.018,-1013.13 791.312,-983.877 878.296,-970.293"/>
<polygon fill="black" stroke="black" points="879.054,-973.718 888.394,-968.716 877.974,-966.801 879.054,-973.718"/>
</g>
<!-- strain_4 -->
<g id="node41" class="node"><title>strain_4</title>
<path fill="#ffffcc" stroke="black" d="M1136.79,-980C1136.79,-980 1095.21,-980 1095.21,-980 1089.21,-980 1083.21,-974 1083.21,-968 1083.21,-968 1083.21,-956 1083.21,-956 1083.21,-950 1089.21,-944 1095.21,-944 1095.21,-944 1136.79,-944 1136.79,-944 1142.79,-944 1148.79,-950 1148.79,-956 1148.79,-956 1148.79,-968 1148.79,-968 1148.79,-974 1142.79,-980 1136.79,-980"/>
<text text-anchor="middle" x="1116" y="-957.8" font-family="Helvetica,sans-Serif" font-size="14.00">strain_4</text>
</g>
<!-- LOAD_DATA&#45;&gt;strain_4 -->
<g id="edge4" class="edge"><title>LOAD_DATA&#45;&gt;strain_4</title>
<path fill="none" stroke="black" d="M501.34,-1032.48C604.845,-1021.1 802.696,-999.246 971,-980 1005.31,-976.076 1044.18,-971.513 1073.03,-968.103"/>
<polygon fill="black" stroke="black" points="1073.66,-971.553 1083.18,-966.902 1072.84,-964.601 1073.66,-971.553"/>
</g>
<!-- AMPLITUDE_SPECTRAL_DENSITY -->
<g id="node2" class="node"><title>AMPLITUDE_SPECTRAL_DENSITY</title>
<polygon fill="#ccffcc" stroke="black" points="43.6189,-857.9 43.6189,-907.5 286.381,-907.5 286.381,-857.9 43.6189,-857.9"/>
<text text-anchor="middle" x="165" y="-890.9" font-family="Courier,monospace" font-size="14.00">AMPLITUDE_SPECTRAL_DENSITY</text>
<polyline fill="none" stroke="black" points="43.6189,-882.7 286.381,-882.7 "/>
<text text-anchor="middle" x="165" y="-866.1" font-family="Courier,monospace" font-size="14.00">Amplitude spectral density.</text>
</g>
<!-- ASDs -->
<g id="node23" class="node"><title>ASDs</title>
<path fill="#ffffcc" stroke="black" d="M230.311,-771.3C230.311,-771.3 385.689,-771.3 385.689,-771.3 391.689,-771.3 397.689,-777.3 397.689,-783.3 397.689,-783.3 397.689,-808.9 397.689,-808.9 397.689,-814.9 391.689,-820.9 385.689,-820.9 385.689,-820.9 230.311,-820.9 230.311,-820.9 224.311,-820.9 218.311,-814.9 218.311,-808.9 218.311,-808.9 218.311,-783.3 218.311,-783.3 218.311,-777.3 224.311,-771.3 230.311,-771.3"/>
<text text-anchor="middle" x="308" y="-804.3" font-family="Helvetica,sans-Serif" font-size="14.00">ASDs</text>
<polyline fill="none" stroke="black" points="218.311,-796.1 397.689,-796.1 "/>
<text text-anchor="middle" x="308" y="-779.5" font-family="Helvetica,sans-Serif" font-size="14.00">file:GW150914_ASDs.png</text>
</g>
<!-- AMPLITUDE_SPECTRAL_DENSITY&#45;&gt;ASDs -->
<g id="edge9" class="edge"><title>AMPLITUDE_SPECTRAL_DENSITY&#45;&gt;ASDs</title>
<path fill="none" stroke="black" d="M205.596,-857.683C222.049,-847.949 241.207,-836.615 258.472,-826.401"/>
<polygon fill="black" stroke="black" points="260.478,-829.281 267.303,-821.177 256.914,-823.256 260.478,-829.281"/>
</g>
<!-- PSD_H1 -->
<g id="node29" class="node"><title>PSD_H1</title>
<path fill="#ffffcc" stroke="black" d="M188.453,-814.1C188.453,-814.1 141.547,-814.1 141.547,-814.1 135.547,-814.1 129.547,-808.1 129.547,-802.1 129.547,-802.1 129.547,-790.1 129.547,-790.1 129.547,-784.1 135.547,-778.1 141.547,-778.1 141.547,-778.1 188.453,-778.1 188.453,-778.1 194.453,-778.1 200.453,-784.1 200.453,-790.1 200.453,-790.1 200.453,-802.1 200.453,-802.1 200.453,-808.1 194.453,-814.1 188.453,-814.1"/>
<text text-anchor="middle" x="165" y="-791.9" font-family="Helvetica,sans-Serif" font-size="14.00">PSD_H1</text>
</g>
<!-- AMPLITUDE_SPECTRAL_DENSITY&#45;&gt;PSD_H1 -->
<g id="edge7" class="edge"><title>AMPLITUDE_SPECTRAL_DENSITY&#45;&gt;PSD_H1</title>
<path fill="none" stroke="black" d="M165,-857.683C165,-847.278 165,-835.045 165,-824.306"/>
<polygon fill="black" stroke="black" points="168.5,-824.188 165,-814.188 161.5,-824.188 168.5,-824.188"/>
</g>
<!-- PSD_L1 -->
<g id="node30" class="node"><title>PSD_L1</title>
<path fill="#ffffcc" stroke="black" d="M100.128,-814.1C100.128,-814.1 55.8723,-814.1 55.8723,-814.1 49.8723,-814.1 43.8723,-808.1 43.8723,-802.1 43.8723,-802.1 43.8723,-790.1 43.8723,-790.1 43.8723,-784.1 49.8723,-778.1 55.8723,-778.1 55.8723,-778.1 100.128,-778.1 100.128,-778.1 106.128,-778.1 112.128,-784.1 112.128,-790.1 112.128,-790.1 112.128,-802.1 112.128,-802.1 112.128,-808.1 106.128,-814.1 100.128,-814.1"/>
<text text-anchor="middle" x="78" y="-791.9" font-family="Helvetica,sans-Serif" font-size="14.00">PSD_L1</text>
</g>
<!-- AMPLITUDE_SPECTRAL_DENSITY&#45;&gt;PSD_L1 -->
<g id="edge8" class="edge"><title>AMPLITUDE_SPECTRAL_DENSITY&#45;&gt;PSD_L1</title>
<path fill="none" stroke="black" d="M140.302,-857.683C128.599,-846.303 114.647,-832.736 102.915,-821.328"/>
<polygon fill="black" stroke="black" points="105.182,-818.651 95.573,-814.188 100.302,-823.669 105.182,-818.651"/>
</g>
<!-- WHITENING -->
<g id="node3" class="node"><title>WHITENING</title>
<polygon fill="#ccffcc" stroke="black" points="30.8217,-684.7 30.8217,-734.3 307.178,-734.3 307.178,-684.7 30.8217,-684.7"/>
<text text-anchor="middle" x="169" y="-717.7" font-family="Courier,monospace" font-size="14.00">WHITENING</text>
<polyline fill="none" stroke="black" points="30.8217,-709.5 307.178,-709.5 "/>
<text text-anchor="middle" x="169" y="-692.9" font-family="Courier,monospace" font-size="14.00">suppress low frequencies noise.</text>
</g>
<!-- strain_H1_whiten -->
<g id="node31" class="node"><title>strain_H1_whiten</title>
<path fill="#ffffcc" stroke="black" d="M225.129,-640.9C225.129,-640.9 124.871,-640.9 124.871,-640.9 118.871,-640.9 112.871,-634.9 112.871,-628.9 112.871,-628.9 112.871,-616.9 112.871,-616.9 112.871,-610.9 118.871,-604.9 124.871,-604.9 124.871,-604.9 225.129,-604.9 225.129,-604.9 231.129,-604.9 237.129,-610.9 237.129,-616.9 237.129,-616.9 237.129,-628.9 237.129,-628.9 237.129,-634.9 231.129,-640.9 225.129,-640.9"/>
<text text-anchor="middle" x="175" y="-618.7" font-family="Helvetica,sans-Serif" font-size="14.00">strain_H1_whiten</text>
</g>
<!-- WHITENING&#45;&gt;strain_H1_whiten -->
<g id="edge13" class="edge"><title>WHITENING&#45;&gt;strain_H1_whiten</title>
<path fill="none" stroke="black" d="M170.703,-684.483C171.441,-674.078 172.309,-661.845 173.07,-651.106"/>
<polygon fill="black" stroke="black" points="176.572,-651.211 173.788,-640.988 169.589,-650.716 176.572,-651.211"/>
</g>
<!-- strain_L1_whiten -->
<g id="node32" class="node"><title>strain_L1_whiten</title>
<path fill="#ffffcc" stroke="black" d="M364.805,-640.9C364.805,-640.9 267.195,-640.9 267.195,-640.9 261.195,-640.9 255.195,-634.9 255.195,-628.9 255.195,-628.9 255.195,-616.9 255.195,-616.9 255.195,-610.9 261.195,-604.9 267.195,-604.9 267.195,-604.9 364.805,-604.9 364.805,-604.9 370.805,-604.9 376.805,-610.9 376.805,-616.9 376.805,-616.9 376.805,-628.9 376.805,-628.9 376.805,-634.9 370.805,-640.9 364.805,-640.9"/>
<text text-anchor="middle" x="316" y="-618.7" font-family="Helvetica,sans-Serif" font-size="14.00">strain_L1_whiten</text>
</g>
<!-- WHITENING&#45;&gt;strain_L1_whiten -->
<g id="edge14" class="edge"><title>WHITENING&#45;&gt;strain_L1_whiten</title>
<path fill="none" stroke="black" d="M210.731,-684.483C231.73,-672.398 257.013,-657.847 277.538,-646.035"/>
<polygon fill="black" stroke="black" points="279.386,-649.01 286.308,-640.988 275.895,-642.943 279.386,-649.01"/>
</g>
<!-- BANDPASSING -->
<g id="node4" class="node"><title>BANDPASSING</title>
<polygon fill="#ccffcc" stroke="black" points="74.4196,-511.5 74.4196,-561.1 325.58,-561.1 325.58,-511.5 74.4196,-511.5"/>
<text text-anchor="middle" x="200" y="-544.5" font-family="Courier,monospace" font-size="14.00">BANDPASSING</text>
<polyline fill="none" stroke="black" points="74.4196,-536.3 325.58,-536.3 "/>
<text text-anchor="middle" x="200" y="-519.7" font-family="Courier,monospace" font-size="14.00">remove high frequency noise.</text>
</g>
<!-- strain_H1_whitenbp -->
<g id="node33" class="node"><title>strain_H1_whitenbp</title>
<path fill="#ffffcc" stroke="black" d="M151.695,-467.7C151.695,-467.7 36.3055,-467.7 36.3055,-467.7 30.3055,-467.7 24.3055,-461.7 24.3055,-455.7 24.3055,-455.7 24.3055,-443.7 24.3055,-443.7 24.3055,-437.7 30.3055,-431.7 36.3055,-431.7 36.3055,-431.7 151.695,-431.7 151.695,-431.7 157.695,-431.7 163.695,-437.7 163.695,-443.7 163.695,-443.7 163.695,-455.7 163.695,-455.7 163.695,-461.7 157.695,-467.7 151.695,-467.7"/>
<text text-anchor="middle" x="94" y="-445.5" font-family="Helvetica,sans-Serif" font-size="14.00">strain_H1_whitenbp</text>
</g>
<!-- BANDPASSING&#45;&gt;strain_H1_whitenbp -->
<g id="edge17" class="edge"><title>BANDPASSING&#45;&gt;strain_H1_whitenbp</title>
<path fill="none" stroke="black" d="M169.908,-511.283C155.377,-499.686 138.001,-485.818 123.543,-474.279"/>
<polygon fill="black" stroke="black" points="125.41,-471.291 115.411,-467.788 121.043,-476.762 125.41,-471.291"/>
</g>
<!-- strain_L1_whitenbp -->
<g id="node34" class="node"><title>strain_L1_whitenbp</title>
<path fill="#ffffcc" stroke="black" d="M307.871,-467.7C307.871,-467.7 194.129,-467.7 194.129,-467.7 188.129,-467.7 182.129,-461.7 182.129,-455.7 182.129,-455.7 182.129,-443.7 182.129,-443.7 182.129,-437.7 188.129,-431.7 194.129,-431.7 194.129,-431.7 307.871,-431.7 307.871,-431.7 313.871,-431.7 319.871,-437.7 319.871,-443.7 319.871,-443.7 319.871,-455.7 319.871,-455.7 319.871,-461.7 313.871,-467.7 307.871,-467.7"/>
<text text-anchor="middle" x="251" y="-445.5" font-family="Helvetica,sans-Serif" font-size="14.00">strain_L1_whitenbp</text>
</g>
<!-- BANDPASSING&#45;&gt;strain_L1_whitenbp -->
<g id="edge18" class="edge"><title>BANDPASSING&#45;&gt;strain_L1_whitenbp</title>
<path fill="none" stroke="black" d="M214.478,-511.283C221.012,-500.445 228.742,-487.623 235.403,-476.572"/>
<polygon fill="black" stroke="black" points="238.533,-478.159 240.699,-467.788 232.538,-474.545 238.533,-478.159"/>
</g>
<!-- STRAIN_WAVEFORM_FOR_WHITENED_DATA -->
<g id="node5" class="node"><title>STRAIN_WAVEFORM_FOR_WHITENED_DATA</title>
<polygon fill="#ccffcc" stroke="black" points="713.423,-338.3 713.423,-387.9 1006.58,-387.9 1006.58,-338.3 713.423,-338.3"/>
<text text-anchor="middle" x="860" y="-371.3" font-family="Courier,monospace" font-size="14.00">STRAIN_WAVEFORM_FOR_WHITENED_DATA</text>
<polyline fill="none" stroke="black" points="713.423,-363.1 1006.58,-363.1 "/>
<text text-anchor="middle" x="860" y="-346.5" font-family="Courier,monospace" font-size="14.00">plot whitened data.</text>
</g>
<!-- WHITENED_strain_data -->
<g id="node20" class="node"><title>WHITENED_strain_data</title>
<path fill="#ffffcc" stroke="black" d="M767.189,-251.7C767.189,-251.7 984.811,-251.7 984.811,-251.7 990.811,-251.7 996.811,-257.7 996.811,-263.7 996.811,-263.7 996.811,-289.3 996.811,-289.3 996.811,-295.3 990.811,-301.3 984.811,-301.3 984.811,-301.3 767.189,-301.3 767.189,-301.3 761.189,-301.3 755.189,-295.3 755.189,-289.3 755.189,-289.3 755.189,-263.7 755.189,-263.7 755.189,-257.7 761.189,-251.7 767.189,-251.7"/>
<text text-anchor="middle" x="876" y="-284.7" font-family="Helvetica,sans-Serif" font-size="14.00">WHITENED_strain_data</text>
<polyline fill="none" stroke="black" points="755.189,-276.5 996.811,-276.5 "/>
<text text-anchor="middle" x="876" y="-259.9" font-family="Helvetica,sans-Serif" font-size="14.00">file:GW150914_strain_whitened.png</text>
</g>
<!-- STRAIN_WAVEFORM_FOR_WHITENED_DATA&#45;&gt;WHITENED_strain_data -->
<g id="edge21" class="edge"><title>STRAIN_WAVEFORM_FOR_WHITENED_DATA&#45;&gt;WHITENED_strain_data</title>
<path fill="none" stroke="black" d="M864.542,-338.083C866.096,-329.867 867.865,-320.512 869.541,-311.652"/>
<polygon fill="black" stroke="black" points="873.027,-312.053 871.446,-301.577 866.149,-310.752 873.027,-312.053"/>
</g>
<!-- SPECTROGRAMS_FOR_STRAIN_DATA -->
<g id="node6" class="node"><title>SPECTROGRAMS_FOR_STRAIN_DATA</title>
<polygon fill="#ccffcc" stroke="black" points="324.423,-857.9 324.423,-907.5 617.577,-907.5 617.577,-857.9 324.423,-857.9"/>
<text text-anchor="middle" x="471" y="-890.9" font-family="Courier,monospace" font-size="14.00">SPECTROGRAMS_FOR_STRAIN_DATA</text>
<polyline fill="none" stroke="black" points="324.423,-882.7 617.577,-882.7 "/>
<text text-anchor="middle" x="471" y="-866.1" font-family="Courier,monospace" font-size="14.00">plot spectrogram for strain data.</text>
</g>
<!-- spectrogram -->
<g id="node18" class="node"><title>spectrogram</title>
<path fill="#ffffcc" stroke="black" d="M651.456,-771.3C651.456,-771.3 916.544,-771.3 916.544,-771.3 922.544,-771.3 928.544,-777.3 928.544,-783.3 928.544,-783.3 928.544,-808.9 928.544,-808.9 928.544,-814.9 922.544,-820.9 916.544,-820.9 916.544,-820.9 651.456,-820.9 651.456,-820.9 645.456,-820.9 639.456,-814.9 639.456,-808.9 639.456,-808.9 639.456,-783.3 639.456,-783.3 639.456,-777.3 645.456,-771.3 651.456,-771.3"/>
<text text-anchor="middle" x="784" y="-804.3" font-family="Helvetica,sans-Serif" font-size="14.00">spectrogram</text>
<polyline fill="none" stroke="black" points="639.456,-796.1 928.544,-796.1 "/>
<text text-anchor="middle" x="784" y="-779.5" font-family="Helvetica,sans-Serif" font-size="14.00">file:GW150914_{detector}_spectrogram.png</text>
</g>
<!-- SPECTROGRAMS_FOR_STRAIN_DATA&#45;&gt;spectrogram -->
<g id="edge24" class="edge"><title>SPECTROGRAMS_FOR_STRAIN_DATA&#45;&gt;spectrogram</title>
<path fill="none" stroke="black" d="M559.438,-857.796C598.852,-847.143 645.418,-834.557 685.899,-823.616"/>
<polygon fill="black" stroke="black" points="687.04,-826.933 695.78,-820.945 685.213,-820.175 687.04,-826.933"/>
</g>
<!-- SPECTROGRAMS_FOR_WHITEND_DATA -->
<g id="node7" class="node"><title>SPECTROGRAMS_FOR_WHITEND_DATA</title>
<polygon fill="#ccffcc" stroke="black" points="347.024,-511.5 347.024,-561.1 656.976,-561.1 656.976,-511.5 347.024,-511.5"/>
<text text-anchor="middle" x="502" y="-544.5" font-family="Courier,monospace" font-size="14.00">SPECTROGRAMS_FOR_WHITEND_DATA</text>
<polyline fill="none" stroke="black" points="347.024,-536.3 656.976,-536.3 "/>
<text text-anchor="middle" x="502" y="-519.7" font-family="Courier,monospace" font-size="14.00">plot spectrogram for whitened data.</text>
</g>
<!-- spectrogram_whitened -->
<g id="node17" class="node"><title>spectrogram_whitened</title>
<path fill="#ffffcc" stroke="black" d="M349.556,-424.9C349.556,-424.9 678.444,-424.9 678.444,-424.9 684.444,-424.9 690.444,-430.9 690.444,-436.9 690.444,-436.9 690.444,-462.5 690.444,-462.5 690.444,-468.5 684.444,-474.5 678.444,-474.5 678.444,-474.5 349.556,-474.5 349.556,-474.5 343.556,-474.5 337.556,-468.5 337.556,-462.5 337.556,-462.5 337.556,-436.9 337.556,-436.9 337.556,-430.9 343.556,-424.9 349.556,-424.9"/>
<text text-anchor="middle" x="514" y="-457.9" font-family="Helvetica,sans-Serif" font-size="14.00">spectrogram_whitened</text>
<polyline fill="none" stroke="black" points="337.556,-449.7 690.444,-449.7 "/>
<text text-anchor="middle" x="514" y="-433.1" font-family="Helvetica,sans-Serif" font-size="14.00">file:GW150914_{detector}_spectrogram_whitened.png</text>
</g>
<!-- SPECTROGRAMS_FOR_WHITEND_DATA&#45;&gt;spectrogram_whitened -->
<g id="edge28" class="edge"><title>SPECTROGRAMS_FOR_WHITEND_DATA&#45;&gt;spectrogram_whitened</title>
<path fill="none" stroke="black" d="M505.407,-511.283C506.572,-503.067 507.899,-493.712 509.156,-484.852"/>
<polygon fill="black" stroke="black" points="512.646,-485.169 510.585,-474.777 505.715,-484.186 512.646,-485.169"/>
</g>
<!-- FILTER_COEFS -->
<g id="node8" class="node"><title>FILTER_COEFS</title>
<polygon fill="#ccffcc" stroke="black" points="656.43,-857.9 656.43,-907.5 1033.57,-907.5 1033.57,-857.9 656.43,-857.9"/>
<text text-anchor="middle" x="845" y="-890.9" font-family="Courier,monospace" font-size="14.00">FILTER_COEFS</text>
<polyline fill="none" stroke="black" points="656.43,-882.7 1033.57,-882.7 "/>
<text text-anchor="middle" x="845" y="-866.1" font-family="Courier,monospace" font-size="14.00">Filter signal in time domain (bandpassing).</text>
</g>
<!-- COEFFICIENTS -->
<g id="node35" class="node"><title>COEFFICIENTS</title>
<path fill="#ffffcc" stroke="black" d="M1053.16,-814.1C1053.16,-814.1 958.84,-814.1 958.84,-814.1 952.84,-814.1 946.84,-808.1 946.84,-802.1 946.84,-802.1 946.84,-790.1 946.84,-790.1 946.84,-784.1 952.84,-778.1 958.84,-778.1 958.84,-778.1 1053.16,-778.1 1053.16,-778.1 1059.16,-778.1 1065.16,-784.1 1065.16,-790.1 1065.16,-790.1 1065.16,-802.1 1065.16,-802.1 1065.16,-808.1 1059.16,-814.1 1053.16,-814.1"/>
<text text-anchor="middle" x="1006" y="-791.9" font-family="Helvetica,sans-Serif" font-size="14.00">COEFFICIENTS</text>
</g>
<!-- FILTER_COEFS&#45;&gt;COEFFICIENTS -->
<g id="edge32" class="edge"><title>FILTER_COEFS&#45;&gt;COEFFICIENTS</title>
<path fill="none" stroke="black" d="M890.705,-857.683C913.911,-845.49 941.893,-830.786 964.478,-818.918"/>
<polygon fill="black" stroke="black" points="966.256,-821.938 973.48,-814.188 962.999,-815.742 966.256,-821.938"/>
</g>
<!-- FILTER_DATA -->
<g id="node9" class="node"><title>FILTER_DATA</title>
<polygon fill="#ccffcc" stroke="black" points="802.608,-684.7 802.608,-734.3 919.392,-734.3 919.392,-684.7 802.608,-684.7"/>
<text text-anchor="middle" x="861" y="-717.7" font-family="Courier,monospace" font-size="14.00">FILTER_DATA</text>
<polyline fill="none" stroke="black" points="802.608,-709.5 919.392,-709.5 "/>
<text text-anchor="middle" x="861" y="-692.9" font-family="Courier,monospace" font-size="14.00">filter data.</text>
</g>
<!-- filtered_white_noise_data -->
<g id="node19" class="node"><title>filtered_white_noise_data</title>
<path fill="#ffffcc" stroke="black" d="M1023.64,-598.1C1023.64,-598.1 1174.36,-598.1 1174.36,-598.1 1180.36,-598.1 1186.36,-604.1 1186.36,-610.1 1186.36,-610.1 1186.36,-635.7 1186.36,-635.7 1186.36,-641.7 1180.36,-647.7 1174.36,-647.7 1174.36,-647.7 1023.64,-647.7 1023.64,-647.7 1017.64,-647.7 1011.64,-641.7 1011.64,-635.7 1011.64,-635.7 1011.64,-610.1 1011.64,-610.1 1011.64,-604.1 1017.64,-598.1 1023.64,-598.1"/>
<text text-anchor="middle" x="1099" y="-631.1" font-family="Helvetica,sans-Serif" font-size="14.00">filtered_white_noise_data</text>
<polyline fill="none" stroke="black" points="1011.64,-622.9 1186.36,-622.9 "/>
<text text-anchor="middle" x="1099" y="-606.3" font-family="Helvetica,sans-Serif" font-size="14.00">file:GW150914_filter.png</text>
</g>
<!-- FILTER_DATA&#45;&gt;filtered_white_noise_data -->
<g id="edge36" class="edge"><title>FILTER_DATA&#45;&gt;filtered_white_noise_data</title>
<path fill="none" stroke="black" d="M919.526,-687.696C950.468,-676.698 988.839,-663.058 1022.15,-651.217"/>
<polygon fill="black" stroke="black" points="1023.6,-654.415 1031.85,-647.768 1021.26,-647.819 1023.6,-654.415"/>
</g>
<!-- strain_H1_filt -->
<g id="node36" class="node"><title>strain_H1_filt</title>
<path fill="#ffffcc" stroke="black" d="M955.672,-640.9C955.672,-640.9 882.328,-640.9 882.328,-640.9 876.328,-640.9 870.328,-634.9 870.328,-628.9 870.328,-628.9 870.328,-616.9 870.328,-616.9 870.328,-610.9 876.328,-604.9 882.328,-604.9 882.328,-604.9 955.672,-604.9 955.672,-604.9 961.672,-604.9 967.672,-610.9 967.672,-616.9 967.672,-616.9 967.672,-628.9 967.672,-628.9 967.672,-634.9 961.672,-640.9 955.672,-640.9"/>
<text text-anchor="middle" x="919" y="-618.7" font-family="Helvetica,sans-Serif" font-size="14.00">strain_H1_filt</text>
</g>
<!-- FILTER_DATA&#45;&gt;strain_H1_filt -->
<g id="edge34" class="edge"><title>FILTER_DATA&#45;&gt;strain_H1_filt</title>
<path fill="none" stroke="black" d="M877.465,-684.483C884.97,-673.536 893.862,-660.566 901.49,-649.441"/>
<polygon fill="black" stroke="black" points="904.517,-651.215 907.285,-640.988 898.743,-647.257 904.517,-651.215"/>
</g>
<!-- strain_L1_filt -->
<g id="node37" class="node"><title>strain_L1_filt</title>
<path fill="#ffffcc" stroke="black" d="M839.848,-640.9C839.848,-640.9 768.152,-640.9 768.152,-640.9 762.152,-640.9 756.152,-634.9 756.152,-628.9 756.152,-628.9 756.152,-616.9 756.152,-616.9 756.152,-610.9 762.152,-604.9 768.152,-604.9 768.152,-604.9 839.848,-604.9 839.848,-604.9 845.848,-604.9 851.848,-610.9 851.848,-616.9 851.848,-616.9 851.848,-628.9 851.848,-628.9 851.848,-634.9 845.848,-640.9 839.848,-640.9"/>
<text text-anchor="middle" x="804" y="-618.7" font-family="Helvetica,sans-Serif" font-size="14.00">strain_L1_filt</text>
</g>
<!-- FILTER_DATA&#45;&gt;strain_L1_filt -->
<g id="edge35" class="edge"><title>FILTER_DATA&#45;&gt;strain_L1_filt</title>
<path fill="none" stroke="black" d="M844.819,-684.483C837.443,-673.536 828.704,-660.566 821.208,-649.441"/>
<polygon fill="black" stroke="black" points="824.004,-647.326 815.513,-640.988 818.198,-651.237 824.004,-647.326"/>
</g>
<!-- STRAIN_WAVEFORM_FOR_FILTERED_DATA -->
<g id="node10" class="node"><title>STRAIN_WAVEFORM_FOR_FILTERED_DATA</title>
<polygon fill="#ccffcc" stroke="black" points="721.423,-511.5 721.423,-561.1 1014.58,-561.1 1014.58,-511.5 721.423,-511.5"/>
<text text-anchor="middle" x="868" y="-544.5" font-family="Courier,monospace" font-size="14.00">STRAIN_WAVEFORM_FOR_FILTERED_DATA</text>
<polyline fill="none" stroke="black" points="721.423,-536.3 1014.58,-536.3 "/>
<text text-anchor="middle" x="868" y="-519.7" font-family="Courier,monospace" font-size="14.00">plot the filtered data.</text>
</g>
<!-- H1_strain_filtered -->
<g id="node21" class="node"><title>H1_strain_filtered</title>
<path fill="#ffffcc" stroke="black" d="M1007.36,-424.9C1007.36,-424.9 1236.64,-424.9 1236.64,-424.9 1242.64,-424.9 1248.64,-430.9 1248.64,-436.9 1248.64,-436.9 1248.64,-462.5 1248.64,-462.5 1248.64,-468.5 1242.64,-474.5 1236.64,-474.5 1236.64,-474.5 1007.36,-474.5 1007.36,-474.5 1001.36,-474.5 995.361,-468.5 995.361,-462.5 995.361,-462.5 995.361,-436.9 995.361,-436.9 995.361,-430.9 1001.36,-424.9 1007.36,-424.9"/>
<text text-anchor="middle" x="1122" y="-457.9" font-family="Helvetica,sans-Serif" font-size="14.00">H1_strain_filtered</text>
<polyline fill="none" stroke="black" points="995.361,-449.7 1248.64,-449.7 "/>
<text text-anchor="middle" x="1122" y="-433.1" font-family="Helvetica,sans-Serif" font-size="14.00">file:GW150914_H1_strain_filtered.png</text>
</g>
<!-- STRAIN_WAVEFORM_FOR_FILTERED_DATA&#45;&gt;H1_strain_filtered -->
<g id="edge40" class="edge"><title>STRAIN_WAVEFORM_FOR_FILTERED_DATA&#45;&gt;H1_strain_filtered</title>
<path fill="none" stroke="black" d="M939.768,-511.396C971.143,-500.946 1008.1,-488.635 1040.51,-477.842"/>
<polygon fill="black" stroke="black" points="1042.03,-481.025 1050.41,-474.545 1039.82,-474.384 1042.03,-481.025"/>
</g>
<!-- H1_strain_unfiltered -->
<g id="node22" class="node"><title>H1_strain_unfiltered</title>
<path fill="#ffffcc" stroke="black" d="M720.578,-424.9C720.578,-424.9 965.422,-424.9 965.422,-424.9 971.422,-424.9 977.422,-430.9 977.422,-436.9 977.422,-436.9 977.422,-462.5 977.422,-462.5 977.422,-468.5 971.422,-474.5 965.422,-474.5 965.422,-474.5 720.578,-474.5 720.578,-474.5 714.578,-474.5 708.578,-468.5 708.578,-462.5 708.578,-462.5 708.578,-436.9 708.578,-436.9 708.578,-430.9 714.578,-424.9 720.578,-424.9"/>
<text text-anchor="middle" x="843" y="-457.9" font-family="Helvetica,sans-Serif" font-size="14.00">H1_strain_unfiltered</text>
<polyline fill="none" stroke="black" points="708.578,-449.7 977.422,-449.7 "/>
<text text-anchor="middle" x="843" y="-433.1" font-family="Helvetica,sans-Serif" font-size="14.00">file:GW150914_H1_strain_unfiltered.png</text>
</g>
<!-- STRAIN_WAVEFORM_FOR_FILTERED_DATA&#45;&gt;H1_strain_unfiltered -->
<g id="edge41" class="edge"><title>STRAIN_WAVEFORM_FOR_FILTERED_DATA&#45;&gt;H1_strain_unfiltered</title>
<path fill="none" stroke="black" d="M860.903,-511.283C858.449,-502.978 855.65,-493.508 853.007,-484.563"/>
<polygon fill="black" stroke="black" points="856.305,-483.375 850.115,-474.777 849.592,-485.359 856.305,-483.375"/>
</g>
<!-- WAVE_FILE_GENERATOR_FOR_WHITENED_DATA -->
<g id="node11" class="node"><title>WAVE_FILE_GENERATOR_FOR_WHITENED_DATA</title>
<polygon fill="#ccffcc" stroke="black" points="368.626,-338.3 368.626,-387.9 695.374,-387.9 695.374,-338.3 368.626,-338.3"/>
<text text-anchor="middle" x="532" y="-371.3" font-family="Courier,monospace" font-size="14.00">WAVE_FILE_GENERATOR_FOR_WHITENED_DATA</text>
<polyline fill="none" stroke="black" points="368.626,-363.1 695.374,-363.1 "/>
<text text-anchor="middle" x="532" y="-346.5" font-family="Courier,monospace" font-size="14.00">Make sound files for whitened data.</text>
</g>
<!-- whitened_bandpass_wavefile -->
<g id="node16" class="node"><title>whitened_bandpass_wavefile</title>
<path fill="#ffffcc" stroke="black" d="M443.57,-251.7C443.57,-251.7 688.43,-251.7 688.43,-251.7 694.43,-251.7 700.43,-257.7 700.43,-263.7 700.43,-263.7 700.43,-289.3 700.43,-289.3 700.43,-295.3 694.43,-301.3 688.43,-301.3 688.43,-301.3 443.57,-301.3 443.57,-301.3 437.57,-301.3 431.57,-295.3 431.57,-289.3 431.57,-289.3 431.57,-263.7 431.57,-263.7 431.57,-257.7 437.57,-251.7 443.57,-251.7"/>
<text text-anchor="middle" x="566" y="-284.7" font-family="Helvetica,sans-Serif" font-size="14.00">whitened_bandpass_wavefile</text>
<polyline fill="none" stroke="black" points="431.57,-276.5 700.43,-276.5 "/>
<text text-anchor="middle" x="566" y="-259.9" font-family="Helvetica,sans-Serif" font-size="14.00">file:GW150914_{detector}_whitenbp.wav</text>
</g>
<!-- WAVE_FILE_GENERATOR_FOR_WHITENED_DATA&#45;&gt;whitened_bandpass_wavefile -->
<g id="edge44" class="edge"><title>WAVE_FILE_GENERATOR_FOR_WHITENED_DATA&#45;&gt;whitened_bandpass_wavefile</title>
<path fill="none" stroke="black" d="M541.652,-338.083C545.026,-329.689 548.878,-320.104 552.507,-311.075"/>
<polygon fill="black" stroke="black" points="555.842,-312.161 556.324,-301.577 549.347,-309.55 555.842,-312.161"/>
</g>
<!-- SHIFT_FREQUENCY_BANDPASSED -->
<g id="node12" class="node"><title>SHIFT_FREQUENCY_BANDPASSED</title>
<polygon fill="#ccffcc" stroke="black" points="23.6259,-338.3 23.6259,-387.9 350.374,-387.9 350.374,-338.3 23.6259,-338.3"/>
<text text-anchor="middle" x="187" y="-371.3" font-family="Courier,monospace" font-size="14.00">SHIFT_FREQUENCY_BANDPASSED</text>
<polyline fill="none" stroke="black" points="23.6259,-363.1 350.374,-363.1 "/>
<text text-anchor="middle" x="187" y="-346.5" font-family="Courier,monospace" font-size="14.00">shift frequency of bandpassed signal.</text>
</g>
<!-- strain_H1_shifted -->
<g id="node38" class="node"><title>strain_H1_shifted</title>
<path fill="#ffffcc" stroke="black" d="M237.413,-294.5C237.413,-294.5 136.587,-294.5 136.587,-294.5 130.587,-294.5 124.587,-288.5 124.587,-282.5 124.587,-282.5 124.587,-270.5 124.587,-270.5 124.587,-264.5 130.587,-258.5 136.587,-258.5 136.587,-258.5 237.413,-258.5 237.413,-258.5 243.413,-258.5 249.413,-264.5 249.413,-270.5 249.413,-270.5 249.413,-282.5 249.413,-282.5 249.413,-288.5 243.413,-294.5 237.413,-294.5"/>
<text text-anchor="middle" x="187" y="-272.3" font-family="Helvetica,sans-Serif" font-size="14.00">strain_H1_shifted</text>
</g>
<!-- SHIFT_FREQUENCY_BANDPASSED&#45;&gt;strain_H1_shifted -->
<g id="edge47" class="edge"><title>SHIFT_FREQUENCY_BANDPASSED&#45;&gt;strain_H1_shifted</title>
<path fill="none" stroke="black" d="M187,-338.083C187,-327.678 187,-315.445 187,-304.706"/>
<polygon fill="black" stroke="black" points="190.5,-304.588 187,-294.588 183.5,-304.588 190.5,-304.588"/>
</g>
<!-- strain_L1_shifted -->
<g id="node39" class="node"><title>strain_L1_shifted</title>
<path fill="#ffffcc" stroke="black" d="M378.09,-294.5C378.09,-294.5 279.91,-294.5 279.91,-294.5 273.91,-294.5 267.91,-288.5 267.91,-282.5 267.91,-282.5 267.91,-270.5 267.91,-270.5 267.91,-264.5 273.91,-258.5 279.91,-258.5 279.91,-258.5 378.09,-258.5 378.09,-258.5 384.09,-258.5 390.09,-264.5 390.09,-270.5 390.09,-270.5 390.09,-282.5 390.09,-282.5 390.09,-288.5 384.09,-294.5 378.09,-294.5"/>
<text text-anchor="middle" x="329" y="-272.3" font-family="Helvetica,sans-Serif" font-size="14.00">strain_L1_shifted</text>
</g>
<!-- SHIFT_FREQUENCY_BANDPASSED&#45;&gt;strain_L1_shifted -->
<g id="edge48" class="edge"><title>SHIFT_FREQUENCY_BANDPASSED&#45;&gt;strain_L1_shifted</title>
<path fill="none" stroke="black" d="M227.312,-338.083C247.505,-326.052 271.801,-311.578 291.579,-299.794"/>
<polygon fill="black" stroke="black" points="293.518,-302.713 300.318,-294.588 289.935,-296.7 293.518,-302.713"/>
</g>
<!-- WAVE_FILE_GENERATOR_FOR_SHIFTED_DATA -->
<g id="node13" class="node"><title>WAVE_FILE_GENERATOR_FOR_SHIFTED_DATA</title>
<polygon fill="#ccffcc" stroke="black" points="169.825,-165.1 169.825,-214.7 488.175,-214.7 488.175,-165.1 169.825,-165.1"/>
<text text-anchor="middle" x="329" y="-198.1" font-family="Courier,monospace" font-size="14.00">WAVE_FILE_GENERATOR_FOR_SHIFTED_DATA</text>
<polyline fill="none" stroke="black" points="169.825,-189.9 488.175,-189.9 "/>
<text text-anchor="middle" x="329" y="-173.3" font-family="Courier,monospace" font-size="14.00">Make sound files for shifted data.</text>
</g>
<!-- shifted_wavefile -->
<g id="node15" class="node"><title>shifted_wavefile</title>
<path fill="#ffffcc" stroke="black" d="M338.96,-78.5C338.96,-78.5 569.04,-78.5 569.04,-78.5 575.04,-78.5 581.04,-84.5 581.04,-90.5 581.04,-90.5 581.04,-116.1 581.04,-116.1 581.04,-122.1 575.04,-128.1 569.04,-128.1 569.04,-128.1 338.96,-128.1 338.96,-128.1 332.96,-128.1 326.96,-122.1 326.96,-116.1 326.96,-116.1 326.96,-90.5 326.96,-90.5 326.96,-84.5 332.96,-78.5 338.96,-78.5"/>
<text text-anchor="middle" x="454" y="-111.5" font-family="Helvetica,sans-Serif" font-size="14.00">shifted_wavefile</text>
<polyline fill="none" stroke="black" points="326.96,-103.3 581.04,-103.3 "/>
<text text-anchor="middle" x="454" y="-86.7" font-family="Helvetica,sans-Serif" font-size="14.00">file:GW150914_{detector}_shifted.wav</text>
</g>
<!-- WAVE_FILE_GENERATOR_FOR_SHIFTED_DATA&#45;&gt;shifted_wavefile -->
<g id="edge51" class="edge"><title>WAVE_FILE_GENERATOR_FOR_SHIFTED_DATA&#45;&gt;shifted_wavefile</title>
<path fill="none" stroke="black" d="M364.486,-164.883C378.604,-155.328 395.001,-144.231 409.874,-134.165"/>
<polygon fill="black" stroke="black" points="412.106,-136.88 418.426,-128.377 408.182,-131.083 412.106,-136.88"/>
</g>
<!-- DOWNSAMPLING -->
<g id="node14" class="node"><title>DOWNSAMPLING</title>
<polygon fill="#ccffcc" stroke="black" points="1051.43,-857.9 1051.43,-907.5 1386.57,-907.5 1386.57,-857.9 1051.43,-857.9"/>
<text text-anchor="middle" x="1219" y="-890.9" font-family="Courier,monospace" font-size="14.00">DOWNSAMPLING</text>
<polyline fill="none" stroke="black" points="1051.43,-882.7 1386.57,-882.7 "/>
<text text-anchor="middle" x="1219" y="-866.1" font-family="Courier,monospace" font-size="14.00">Downsampling from 16384 Hz to 4096 Hz.</text>
</g>
<!-- H1_ASD_SamplingRate -->
<g id="node24" class="node"><title>H1_ASD_SamplingRate</title>
<path fill="#ffffcc" stroke="black" d="M1095.46,-771.3C1095.46,-771.3 1374.54,-771.3 1374.54,-771.3 1380.54,-771.3 1386.54,-777.3 1386.54,-783.3 1386.54,-783.3 1386.54,-808.9 1386.54,-808.9 1386.54,-814.9 1380.54,-820.9 1374.54,-820.9 1374.54,-820.9 1095.46,-820.9 1095.46,-820.9 1089.46,-820.9 1083.46,-814.9 1083.46,-808.9 1083.46,-808.9 1083.46,-783.3 1083.46,-783.3 1083.46,-777.3 1089.46,-771.3 1095.46,-771.3"/>
<text text-anchor="middle" x="1235" y="-804.3" font-family="Helvetica,sans-Serif" font-size="14.00">H1_ASD_SamplingRate</text>
<polyline fill="none" stroke="black" points="1083.46,-796.1 1386.54,-796.1 "/>
<text text-anchor="middle" x="1235" y="-779.5" font-family="Helvetica,sans-Serif" font-size="14.00">file:GW150914_H1_ASD_{SamplingRate}.png</text>
</g>
<!-- DOWNSAMPLING&#45;&gt;H1_ASD_SamplingRate -->
<g id="edge54" class="edge"><title>DOWNSAMPLING&#45;&gt;H1_ASD_SamplingRate</title>
<path fill="none" stroke="black" d="M1223.54,-857.683C1225.1,-849.467 1226.87,-840.112 1228.54,-831.252"/>
<polygon fill="black" stroke="black" points="1232.03,-831.653 1230.45,-821.177 1225.15,-830.352 1232.03,-831.653"/>
</g>
<!-- shifted_wavefile_output_port -->
<g id="node46" class="node"><title>shifted_wavefile_output_port</title>
<ellipse fill="#ffffff" stroke="black" cx="957" cy="-31" rx="7" ry="7"/>
</g>
<!-- shifted_wavefile&#45;&gt;shifted_wavefile_output_port -->
<g id="edge60" class="edge"><title>shifted_wavefile&#45;&gt;shifted_wavefile_output_port</title>
<path fill="none" stroke="black" d="M581.092,-82.3984C625.056,-75.6859 674.663,-68.3029 720,-62 802.274,-50.5622 900.874,-38.659 939.898,-34.0193"/>
<polygon fill="black" stroke="black" points="940.493,-37.4734 950.012,-32.8212 939.67,-30.522 940.493,-37.4734"/>
</g>
<!-- whitened_bandpass_wavefile_output_port -->
<g id="node47" class="node"><title>whitened_bandpass_wavefile_output_port</title>
<ellipse fill="#ffffff" stroke="black" cx="989" cy="-31" rx="7" ry="7"/>
</g>
<!-- whitened_bandpass_wavefile&#45;&gt;whitened_bandpass_wavefile_output_port -->
<g id="edge61" class="edge"><title>whitened_bandpass_wavefile&#45;&gt;whitened_bandpass_wavefile_output_port</title>
<path fill="none" stroke="black" d="M610.509,-251.609C714.521,-195.733 965.337,-60.7233 973,-54 975.614,-51.7067 978.047,-48.9129 980.188,-46.096"/>
<polygon fill="black" stroke="black" points="983.226,-47.8514 985.895,-37.5984 977.414,-43.9487 983.226,-47.8514"/>
</g>
<!-- spectrogram_whitened_output_port -->
<g id="node48" class="node"><title>spectrogram_whitened_output_port</title>
<ellipse fill="#ffffff" stroke="black" cx="1053" cy="-31" rx="7" ry="7"/>
</g>
<!-- spectrogram_whitened&#45;&gt;spectrogram_whitened_output_port -->
<g id="edge62" class="edge"><title>spectrogram_whitened&#45;&gt;spectrogram_whitened_output_port</title>
<path fill="none" stroke="black" d="M690.709,-425.542C693.83,-425.157 696.929,-424.775 700,-424.4 770.154,-415.822 963.596,-435.824 1016,-388.4 1053.39,-354.562 1040,-327.93 1040,-277.5 1040,-277.5 1040,-277.5 1040,-188.9 1040,-137.241 1047.09,-76.3398 1050.79,-48.0005"/>
<polygon fill="black" stroke="black" points="1054.28,-48.3485 1052.15,-37.9705 1047.34,-47.4131 1054.28,-48.3485"/>
</g>
<!-- spectrogram_output_port -->
<g id="node49" class="node"><title>spectrogram_output_port</title>
<ellipse fill="#ffffff" stroke="black" cx="1213" cy="-31" rx="7" ry="7"/>
</g>
<!-- spectrogram&#45;&gt;spectrogram_output_port -->
<g id="edge63" class="edge"><title>spectrogram&#45;&gt;spectrogram_output_port</title>
<path fill="none" stroke="black" d="M928.643,-771.998C931.789,-771.585 934.911,-771.185 938,-770.8 1024.58,-759.994 1263.67,-792.646 1329,-734.8 1366.76,-701.368 1353,-674.33 1353,-623.9 1353,-623.9 1353,-623.9 1353,-188.9 1353,-131.5 1371.7,-100.357 1329,-62 1312.42,-47.1025 1248.45,-64.9008 1229,-54 1225.79,-52.1987 1223.05,-49.4528 1220.79,-46.505"/>
<polygon fill="black" stroke="black" points="1223.67,-44.5114 1215.47,-37.7991 1217.7,-48.1583 1223.67,-44.5114"/>
</g>
<!-- filtered_white_noise_data_output_port -->
<g id="node50" class="node"><title>filtered_white_noise_data_output_port</title>
<ellipse fill="#ffffff" stroke="black" cx="1149" cy="-31" rx="7" ry="7"/>
</g>
<!-- filtered_white_noise_data&#45;&gt;filtered_white_noise_data_output_port -->
<g id="edge64" class="edge"><title>filtered_white_noise_data&#45;&gt;filtered_white_noise_data_output_port</title>
<path fill="none" stroke="black" d="M1152.89,-597.953C1205.28,-570.576 1277,-520.374 1277,-450.7 1277,-450.7 1277,-450.7 1277,-188.9 1277,-110.974 1212.83,-115.52 1165,-54 1162.87,-51.2549 1160.64,-48.2691 1158.54,-45.4081"/>
<polygon fill="black" stroke="black" points="1161.27,-43.2129 1152.59,-37.1366 1155.59,-47.2991 1161.27,-43.2129"/>
</g>
<!-- WHITENED_strain_data_output_port -->
<g id="node51" class="node"><title>WHITENED_strain_data_output_port</title>
<ellipse fill="#ffffff" stroke="black" cx="1021" cy="-31" rx="7" ry="7"/>
</g>
<!-- WHITENED_strain_data&#45;&gt;WHITENED_strain_data_output_port -->
<g id="edge65" class="edge"><title>WHITENED_strain_data&#45;&gt;WHITENED_strain_data_output_port</title>
<path fill="none" stroke="black" d="M890.433,-251.262C920.482,-200.801 988.937,-85.8437 1012.69,-45.9471"/>
<polygon fill="black" stroke="black" points="1015.72,-47.7094 1017.83,-37.3266 1009.7,-44.1279 1015.72,-47.7094"/>
</g>
<!-- H1_strain_filtered_output_port -->
<g id="node52" class="node"><title>H1_strain_filtered_output_port</title>
<ellipse fill="#ffffff" stroke="black" cx="1117" cy="-31" rx="7" ry="7"/>
</g>
<!-- H1_strain_filtered&#45;&gt;H1_strain_filtered_output_port -->
<g id="edge66" class="edge"><title>H1_strain_filtered&#45;&gt;H1_strain_filtered_output_port</title>
<path fill="none" stroke="black" d="M1121.77,-424.882C1121.48,-391.811 1121,-330.109 1121,-277.5 1121,-277.5 1121,-277.5 1121,-188.9 1121,-137.639 1118.84,-76.9878 1117.69,-48.4297"/>
<polygon fill="black" stroke="black" points="1121.18,-48.1233 1117.27,-38.2763 1114.19,-48.4123 1121.18,-48.1233"/>
</g>
<!-- H1_strain_unfiltered_output_port -->
<g id="node53" class="node"><title>H1_strain_unfiltered_output_port</title>
<ellipse fill="#ffffff" stroke="black" cx="1085" cy="-31" rx="7" ry="7"/>
</g>
<!-- H1_strain_unfiltered&#45;&gt;H1_strain_unfiltered_output_port -->
<g id="edge67" class="edge"><title>H1_strain_unfiltered&#45;&gt;H1_strain_unfiltered_output_port</title>
<path fill="none" stroke="black" d="M965.015,-424.843C1003.95,-414.948 1040.47,-402.477 1054,-388.4 1089.15,-351.827 1081,-328.229 1081,-277.5 1081,-277.5 1081,-277.5 1081,-188.9 1081,-137.639 1083.16,-76.9878 1084.31,-48.4297"/>
<polygon fill="black" stroke="black" points="1087.81,-48.4123 1084.73,-38.2763 1080.82,-48.1233 1087.81,-48.4123"/>
</g>
<!-- ASDs_output_port -->
<g id="node54" class="node"><title>ASDs_output_port</title>
<ellipse fill="#ffffff" stroke="black" cx="1181" cy="-31" rx="7" ry="7"/>
</g>
<!-- ASDs&#45;&gt;ASDs_output_port -->
<g id="edge68" class="edge"><title>ASDs&#45;&gt;ASDs_output_port</title>
<path fill="none" stroke="black" d="M397.807,-789.246C644.618,-771.964 1315,-716.502 1315,-623.9 1315,-623.9 1315,-623.9 1315,-188.9 1315,-120.518 1284,-101.24 1228,-62 1216.35,-53.8348 1208.77,-62.0024 1197,-54 1193.95,-51.9283 1191.28,-49.0767 1189.03,-46.1127"/>
<polygon fill="black" stroke="black" points="1191.93,-44.1402 1183.63,-37.5515 1186.01,-47.8762 1191.93,-44.1402"/>
</g>
<!-- H1_ASD_SamplingRate_output_port -->
<g id="node55" class="node"><title>H1_ASD_SamplingRate_output_port</title>
<ellipse fill="#ffffff" stroke="black" cx="1245" cy="-31" rx="7" ry="7"/>
</g>
<!-- H1_ASD_SamplingRate&#45;&gt;H1_ASD_SamplingRate_output_port -->
<g id="edge69" class="edge"><title>H1_ASD_SamplingRate&#45;&gt;H1_ASD_SamplingRate_output_port</title>
<path fill="none" stroke="black" d="M1318.12,-771.214C1336.51,-762.425 1354.28,-750.6 1367,-734.8 1398.62,-695.514 1391,-674.33 1391,-623.9 1391,-623.9 1391,-623.9 1391,-188.9 1391,-131.5 1406.47,-103.673 1367,-62 1352.7,-46.902 1292.01,-37.6511 1261.98,-33.9135"/>
<polygon fill="black" stroke="black" points="1262.16,-30.4107 1251.82,-32.7158 1261.34,-37.3626 1262.16,-30.4107"/>
</g>
<!-- FN_Detector -->
<g id="node25" class="node"><title>FN_Detector</title>
<path fill="#ffffcc" stroke="black" d="M35.8851,-1103.1C35.8851,-1103.1 332.115,-1103.1 332.115,-1103.1 338.115,-1103.1 344.115,-1109.1 344.115,-1115.1 344.115,-1115.1 344.115,-1140.7 344.115,-1140.7 344.115,-1146.7 338.115,-1152.7 332.115,-1152.7 332.115,-1152.7 35.8851,-1152.7 35.8851,-1152.7 29.8851,-1152.7 23.8851,-1146.7 23.8851,-1140.7 23.8851,-1140.7 23.8851,-1115.1 23.8851,-1115.1 23.8851,-1109.1 29.8851,-1103.1 35.8851,-1103.1"/>
<text text-anchor="middle" x="184" y="-1136.1" font-family="Helvetica,sans-Serif" font-size="14.00">FN_Detector</text>
<polyline fill="none" stroke="black" points="23.8851,-1127.9 344.115,-1127.9 "/>
<text text-anchor="middle" x="184" y="-1111.3" font-family="Helvetica,sans-Serif" font-size="14.00">file:{Detector}_LOSC_4_V1&#45;1126259446&#45;32.hdf5</text>
</g>
<!-- FN_Detector&#45;&gt;LOAD_DATA -->
<g id="edge5" class="edge"><title>FN_Detector&#45;&gt;LOAD_DATA</title>
<path fill="none" stroke="black" d="M253.507,-1103C283.895,-1092.55 319.692,-1080.24 351.077,-1069.44"/>
<polygon fill="black" stroke="black" points="352.346,-1072.71 360.664,-1066.14 350.07,-1066.09 352.346,-1072.71"/>
</g>
<!-- FN_Sampling_rate -->
<g id="node26" class="node"><title>FN_Sampling_rate</title>
<path fill="#ffffcc" stroke="black" d="M373.837,-1103.1C373.837,-1103.1 736.163,-1103.1 736.163,-1103.1 742.163,-1103.1 748.163,-1109.1 748.163,-1115.1 748.163,-1115.1 748.163,-1140.7 748.163,-1140.7 748.163,-1146.7 742.163,-1152.7 736.163,-1152.7 736.163,-1152.7 373.837,-1152.7 373.837,-1152.7 367.837,-1152.7 361.837,-1146.7 361.837,-1140.7 361.837,-1140.7 361.837,-1115.1 361.837,-1115.1 361.837,-1109.1 367.837,-1103.1 373.837,-1103.1"/>
<text text-anchor="middle" x="555" y="-1136.1" font-family="Helvetica,sans-Serif" font-size="14.00">FN_Sampling_rate</text>
<polyline fill="none" stroke="black" points="361.837,-1127.9 748.163,-1127.9 "/>
<text text-anchor="middle" x="555" y="-1111.3" font-family="Helvetica,sans-Serif" font-size="14.00">file:H&#45;H1_LOSC_{DownSampling}_V1&#45;1126259446&#45;32.hdf5</text>
</g>
<!-- FN_Sampling_rate&#45;&gt;LOAD_DATA -->
<g id="edge6" class="edge"><title>FN_Sampling_rate&#45;&gt;LOAD_DATA</title>
<path fill="none" stroke="black" d="M519.514,-1102.88C505.396,-1093.33 488.999,-1082.23 474.126,-1072.16"/>
<polygon fill="black" stroke="black" points="475.818,-1069.08 465.574,-1066.38 471.894,-1074.88 475.818,-1069.08"/>
</g>
<!-- strain_H1&#45;&gt;AMPLITUDE_SPECTRAL_DENSITY -->
<g id="edge10" class="edge"><title>strain_H1&#45;&gt;AMPLITUDE_SPECTRAL_DENSITY</title>
<path fill="none" stroke="black" d="M349.918,-947.799C320.799,-937.706 279.654,-923.443 243.565,-910.934"/>
<polygon fill="black" stroke="black" points="244.618,-907.594 234.024,-907.626 242.326,-914.208 244.618,-907.594"/>
</g>
<!-- strain_H1&#45;&gt;SPECTROGRAMS_FOR_STRAIN_DATA -->
<g id="edge25" class="edge"><title>strain_H1&#45;&gt;SPECTROGRAMS_FOR_STRAIN_DATA</title>
<path fill="none" stroke="black" d="M406.42,-943.845C415.644,-935.255 427.097,-924.588 437.786,-914.633"/>
<polygon fill="black" stroke="black" points="440.459,-916.926 445.392,-907.55 435.688,-911.804 440.459,-916.926"/>
</g>
<!-- strain_H1&#45;&gt;FILTER_DATA -->
<g id="edge37" class="edge"><title>strain_H1&#45;&gt;FILTER_DATA</title>
<path fill="none" stroke="black" d="M351.486,-943.924C337.402,-935.293 322.824,-923.349 315,-908 304.787,-887.964 301.368,-875.286 315,-857.4 329.745,-838.054 649.073,-760.579 792.414,-726.604"/>
<polygon fill="black" stroke="black" points="793.499,-729.944 802.424,-724.235 791.886,-723.133 793.499,-729.944"/>
</g>
<!-- strain_L1&#45;&gt;AMPLITUDE_SPECTRAL_DENSITY -->
<g id="edge11" class="edge"><title>strain_L1&#45;&gt;AMPLITUDE_SPECTRAL_DENSITY</title>
<path fill="none" stroke="black" d="M215.574,-943.845C208.491,-935.421 199.729,-925.001 191.499,-915.213"/>
<polygon fill="black" stroke="black" points="194.169,-912.951 185.055,-907.55 188.812,-917.456 194.169,-912.951"/>
</g>
<!-- strain_L1&#45;&gt;SPECTROGRAMS_FOR_STRAIN_DATA -->
<g id="edge26" class="edge"><title>strain_L1&#45;&gt;SPECTROGRAMS_FOR_STRAIN_DATA</title>
<path fill="none" stroke="black" d="M266.603,-949.26C298.42,-939.055 345.729,-923.88 386.822,-910.7"/>
<polygon fill="black" stroke="black" points="388.121,-913.959 396.574,-907.572 385.983,-907.293 388.121,-913.959"/>
</g>
<!-- strain_L1&#45;&gt;FILTER_DATA -->
<g id="edge38" class="edge"><title>strain_L1&#45;&gt;FILTER_DATA</title>
<path fill="none" stroke="black" d="M193.291,-956.331C142.299,-949.007 54.1229,-933.014 35,-908 -2.03415,-859.557 -6.51846,-815.46 35,-770.8 60.6677,-743.19 598.763,-720.344 792.366,-712.99"/>
<polygon fill="black" stroke="black" points="792.562,-716.485 802.423,-712.61 792.298,-709.49 792.562,-716.485"/>
</g>
<!-- PSD_H1&#45;&gt;WHITENING -->
<g id="edge15" class="edge"><title>PSD_H1&#45;&gt;WHITENING</title>
<path fill="none" stroke="black" d="M165.809,-777.98C166.264,-768.369 166.847,-756.031 167.391,-744.539"/>
<polygon fill="black" stroke="black" points="170.897,-744.48 167.873,-734.326 163.905,-744.15 170.897,-744.48"/>
</g>
<!-- PSD_L1&#45;&gt;WHITENING -->
<g id="edge16" class="edge"><title>PSD_L1&#45;&gt;WHITENING</title>
<path fill="none" stroke="black" d="M96.4152,-777.98C107.703,-767.486 122.487,-753.742 135.765,-741.397"/>
<polygon fill="black" stroke="black" points="138.431,-743.698 143.371,-734.326 133.664,-738.572 138.431,-743.698"/>
</g>
<!-- strain_H1_whiten&#45;&gt;BANDPASSING -->
<g id="edge19" class="edge"><title>strain_H1_whiten&#45;&gt;BANDPASSING</title>
<path fill="none" stroke="black" d="M180.059,-604.78C182.928,-595.071 186.62,-582.579 190.045,-570.988"/>
<polygon fill="black" stroke="black" points="193.482,-571.708 192.959,-561.126 186.769,-569.724 193.482,-571.708"/>
</g>
<!-- strain_H1_whiten&#45;&gt;SPECTROGRAMS_FOR_WHITEND_DATA -->
<g id="edge29" class="edge"><title>strain_H1_whiten&#45;&gt;SPECTROGRAMS_FOR_WHITEND_DATA</title>
<path fill="none" stroke="black" d="M222.919,-604.785C230.598,-602.249 238.489,-599.764 246,-597.6 289.453,-585.079 337.598,-573.222 380.302,-563.388"/>
<polygon fill="black" stroke="black" points="381.211,-566.771 390.178,-561.127 379.649,-559.947 381.211,-566.771"/>
</g>
<!-- strain_L1_whiten&#45;&gt;BANDPASSING -->
<g id="edge20" class="edge"><title>strain_L1_whiten&#45;&gt;BANDPASSING</title>
<path fill="none" stroke="black" d="M292.526,-604.78C277.734,-593.992 258.231,-579.768 240.946,-567.162"/>
<polygon fill="black" stroke="black" points="242.811,-564.191 232.669,-561.126 238.687,-569.847 242.811,-564.191"/>
</g>
<!-- strain_L1_whiten&#45;&gt;SPECTROGRAMS_FOR_WHITEND_DATA -->
<g id="edge30" class="edge"><title>strain_L1_whiten&#45;&gt;SPECTROGRAMS_FOR_WHITEND_DATA</title>
<path fill="none" stroke="black" d="M353.64,-604.78C378.544,-593.453 411.776,-578.337 440.474,-565.284"/>
<polygon fill="black" stroke="black" points="441.963,-568.452 449.616,-561.126 439.064,-562.081 441.963,-568.452"/>
</g>
<!-- strain_H1_whitenbp&#45;&gt;STRAIN_WAVEFORM_FOR_WHITENED_DATA -->
<g id="edge22" class="edge"><title>strain_H1_whitenbp&#45;&gt;STRAIN_WAVEFORM_FOR_WHITENED_DATA</title>
<path fill="none" stroke="black" d="M143.292,-431.629C153.038,-428.798 163.264,-426.202 173,-424.4 402.296,-381.952 467.089,-413.701 702.809,-388.473"/>
<polygon fill="black" stroke="black" points="703.513,-391.917 713.073,-387.351 702.752,-384.959 703.513,-391.917"/>
</g>
<!-- strain_H1_whitenbp&#45;&gt;WAVE_FILE_GENERATOR_FOR_WHITENED_DATA -->
<g id="edge45" class="edge"><title>strain_H1_whitenbp&#45;&gt;WAVE_FILE_GENERATOR_FOR_WHITENED_DATA</title>
<path fill="none" stroke="black" d="M146.001,-431.641C154.951,-429.011 164.203,-426.482 173,-424.4 232.881,-410.227 299.144,-398.112 358.273,-388.54"/>
<polygon fill="black" stroke="black" points="359.142,-391.945 368.46,-386.904 358.032,-385.034 359.142,-391.945"/>
</g>
<!-- strain_H1_whitenbp&#45;&gt;SHIFT_FREQUENCY_BANDPASSED -->
<g id="edge49" class="edge"><title>strain_H1_whitenbp&#45;&gt;SHIFT_FREQUENCY_BANDPASSED</title>
<path fill="none" stroke="black" d="M112.82,-431.58C124.356,-421.086 139.465,-407.342 153.035,-394.997"/>
<polygon fill="black" stroke="black" points="155.766,-397.244 160.808,-387.926 151.056,-392.066 155.766,-397.244"/>
</g>
<!-- strain_L1_whitenbp&#45;&gt;STRAIN_WAVEFORM_FOR_WHITENED_DATA -->
<g id="edge23" class="edge"><title>strain_L1_whitenbp&#45;&gt;STRAIN_WAVEFORM_FOR_WHITENED_DATA</title>
<path fill="none" stroke="black" d="M300.535,-431.592C309.902,-428.836 319.684,-426.277 329,-424.4 489.928,-391.97 536.083,-408.612 702.942,-388.483"/>
<polygon fill="black" stroke="black" points="703.563,-391.933 713.059,-387.235 702.706,-384.985 703.563,-391.933"/>
</g>
<!-- strain_L1_whitenbp&#45;&gt;WAVE_FILE_GENERATOR_FOR_WHITENED_DATA -->
<g id="edge46" class="edge"><title>strain_L1_whitenbp&#45;&gt;WAVE_FILE_GENERATOR_FOR_WHITENED_DATA</title>
<path fill="none" stroke="black" d="M305.522,-431.613C313.394,-429.176 321.401,-426.712 329,-424.4 365.651,-413.248 406.099,-401.184 441.18,-390.798"/>
<polygon fill="black" stroke="black" points="442.329,-394.108 450.925,-387.915 440.343,-387.396 442.329,-394.108"/>
</g>
<!-- strain_L1_whitenbp&#45;&gt;SHIFT_FREQUENCY_BANDPASSED -->
<g id="edge50" class="edge"><title>strain_L1_whitenbp&#45;&gt;SHIFT_FREQUENCY_BANDPASSED</title>
<path fill="none" stroke="black" d="M238.049,-431.58C230.333,-421.38 220.294,-408.11 211.162,-396.039"/>
<polygon fill="black" stroke="black" points="213.849,-393.79 205.025,-387.926 208.266,-398.013 213.849,-393.79"/>
</g>
<!-- COEFFICIENTS&#45;&gt;FILTER_DATA -->
<g id="edge39" class="edge"><title>COEFFICIENTS&#45;&gt;FILTER_DATA</title>
<path fill="none" stroke="black" d="M976.657,-777.98C957.747,-766.947 932.678,-752.32 910.714,-739.506"/>
<polygon fill="black" stroke="black" points="912.238,-736.343 901.837,-734.326 908.71,-742.389 912.238,-736.343"/>
</g>
<!-- strain_H1_filt&#45;&gt;STRAIN_WAVEFORM_FOR_FILTERED_DATA -->
<g id="edge42" class="edge"><title>strain_H1_filt&#45;&gt;STRAIN_WAVEFORM_FOR_FILTERED_DATA</title>
<path fill="none" stroke="black" d="M908.679,-604.78C902.649,-594.777 894.838,-581.819 887.675,-569.937"/>
<polygon fill="black" stroke="black" points="890.524,-567.883 882.363,-561.126 884.529,-571.497 890.524,-567.883"/>
</g>
<!-- strain_L1_filt&#45;&gt;STRAIN_WAVEFORM_FOR_FILTERED_DATA -->
<g id="edge43" class="edge"><title>strain_L1_filt&#45;&gt;STRAIN_WAVEFORM_FOR_FILTERED_DATA</title>
<path fill="none" stroke="black" d="M816.951,-604.78C824.667,-594.58 834.706,-581.31 843.838,-569.239"/>
<polygon fill="black" stroke="black" points="846.734,-571.213 849.975,-561.126 841.151,-566.99 846.734,-571.213"/>
</g>
<!-- strain_H1_shifted&#45;&gt;WAVE_FILE_GENERATOR_FOR_SHIFTED_DATA -->
<g id="edge52" class="edge"><title>strain_H1_shifted&#45;&gt;WAVE_FILE_GENERATOR_FOR_SHIFTED_DATA</title>
<path fill="none" stroke="black" d="M215.736,-258.38C234.255,-247.347 258.805,-232.72 280.315,-219.906"/>
<polygon fill="black" stroke="black" points="282.209,-222.851 289.008,-214.726 278.626,-216.838 282.209,-222.851"/>
</g>
<!-- strain_L1_shifted&#45;&gt;WAVE_FILE_GENERATOR_FOR_SHIFTED_DATA -->
<g id="edge53" class="edge"><title>strain_L1_shifted&#45;&gt;WAVE_FILE_GENERATOR_FOR_SHIFTED_DATA</title>
<path fill="none" stroke="black" d="M329,-258.38C329,-248.769 329,-236.431 329,-224.939"/>
<polygon fill="black" stroke="black" points="332.5,-224.726 329,-214.726 325.5,-224.726 332.5,-224.726"/>
</g>
<!-- strain_16&#45;&gt;DOWNSAMPLING -->
<g id="edge55" class="edge"><title>strain_16&#45;&gt;DOWNSAMPLING</title>
<path fill="none" stroke="black" d="M961.641,-951.366C1000.69,-941.098 1064.24,-924.391 1118.41,-910.148"/>
<polygon fill="black" stroke="black" points="1119.63,-913.447 1128.41,-907.519 1117.85,-906.677 1119.63,-913.447"/>
</g>
<!-- strain_4&#45;&gt;DOWNSAMPLING -->
<g id="edge56" class="edge"><title>strain_4&#45;&gt;DOWNSAMPLING</title>
<path fill="none" stroke="black" d="M1138.86,-943.845C1150.64,-935.004 1165.35,-923.965 1178.94,-913.765"/>
<polygon fill="black" stroke="black" points="1181.32,-916.352 1187.22,-907.55 1177.12,-910.753 1181.32,-916.352"/>
</g>
<!-- fs -->
<g id="node42" class="node"><title>fs</title>
<path fill="#fcfcfc" stroke="black" d="M652,-980C652,-980 622,-980 622,-980 616,-980 610,-974 610,-968 610,-968 610,-956 610,-956 610,-950 616,-944 622,-944 622,-944 652,-944 652,-944 658,-944 664,-950 664,-956 664,-956 664,-968 664,-968 664,-974 658,-980 652,-980"/>
<text text-anchor="middle" x="637" y="-957.8" font-family="Helvetica,sans-Serif" font-size="14.00">fs</text>
</g>
<!-- fs&#45;&gt;AMPLITUDE_SPECTRAL_DENSITY -->
<g id="edge12" class="edge"><title>fs&#45;&gt;AMPLITUDE_SPECTRAL_DENSITY</title>
<path fill="none" stroke="black" d="M609.928,-956.566C550.472,-946.829 405.145,-923.029 296.655,-905.261"/>
<polygon fill="black" stroke="black" points="297.04,-901.778 286.606,-903.616 295.908,-908.686 297.04,-901.778"/>
</g>
<!-- fs&#45;&gt;SPECTROGRAMS_FOR_STRAIN_DATA -->
<g id="edge27" class="edge"><title>fs&#45;&gt;SPECTROGRAMS_FOR_STRAIN_DATA</title>
<path fill="none" stroke="black" d="M609.96,-948.408C588.757,-938.535 558.434,-924.415 531.522,-911.883"/>
<polygon fill="black" stroke="black" points="532.708,-908.574 522.165,-907.526 529.753,-914.92 532.708,-908.574"/>
</g>
<!-- fs&#45;&gt;SPECTROGRAMS_FOR_WHITEND_DATA -->
<g id="edge31" class="edge"><title>fs&#45;&gt;SPECTROGRAMS_FOR_WHITEND_DATA</title>
<path fill="none" stroke="black" d="M636.787,-943.896C636.201,-923.161 634.13,-887.279 627,-857.4 601.08,-748.784 546.241,-627.88 518.627,-570.72"/>
<polygon fill="black" stroke="black" points="521.642,-568.915 514.119,-561.454 515.347,-571.977 521.642,-568.915"/>
</g>
<!-- fs&#45;&gt;FILTER_COEFS -->
<g id="edge33" class="edge"><title>fs&#45;&gt;FILTER_COEFS</title>
<path fill="none" stroke="black" d="M664.192,-950.894C691.182,-940.864 733.766,-925.039 770.828,-911.265"/>
<polygon fill="black" stroke="black" points="772.462,-914.392 780.616,-907.627 770.023,-907.83 772.462,-914.392"/>
</g>
<!-- FN_Detector_input_port -->
<g id="node43" class="node"><title>FN_Detector_input_port</title>
<ellipse fill="#ffffff" stroke="black" cx="523" cy="-1200.2" rx="7" ry="7"/>
</g>
<!-- FN_Detector_input_port&#45;&gt;FN_Detector -->
<g id="edge57" class="edge"><title>FN_Detector_input_port&#45;&gt;FN_Detector</title>
<path fill="none" stroke="black" d="M516.17,-1198.14C493.117,-1194.55 416.094,-1182.28 353,-1169.2 332.475,-1164.95 310.639,-1160.03 289.718,-1155.13"/>
<polygon fill="black" stroke="black" points="290.391,-1151.69 279.855,-1152.8 288.785,-1158.5 290.391,-1151.69"/>
</g>
<!-- FN_Sampling_rate_input_port -->
<g id="node44" class="node"><title>FN_Sampling_rate_input_port</title>
<ellipse fill="#ffffff" stroke="black" cx="555" cy="-1200.2" rx="7" ry="7"/>
</g>
<!-- FN_Sampling_rate_input_port&#45;&gt;FN_Sampling_rate -->
<g id="edge58" class="edge"><title>FN_Sampling_rate_input_port&#45;&gt;FN_Sampling_rate</title>
<path fill="none" stroke="black" d="M555,-1192.71C555,-1185.84 555,-1174.45 555,-1163.18"/>
<polygon fill="black" stroke="black" points="558.5,-1162.99 555,-1152.99 551.5,-1162.99 558.5,-1162.99"/>
</g>
<!-- fs_input_port -->
<g id="node45" class="node"><title>fs_input_port</title>
<ellipse fill="#ffffff" stroke="black" cx="587" cy="-1200.2" rx="7" ry="7"/>
</g>
<!-- fs_input_port&#45;&gt;fs -->
<g id="edge59" class="edge"><title>fs_input_port&#45;&gt;fs</title>
<path fill="none" stroke="black" d="M594.068,-1199.1C623.478,-1198.53 735.618,-1194.69 757,-1169.2 807.057,-1109.54 718.841,-1026.28 668.47,-986.27"/>
<polygon fill="black" stroke="black" points="670.477,-983.396 660.44,-980.002 666.17,-988.914 670.477,-983.396"/>
</g>
</g>
</svg>
