<?xml version="1.0" encoding="UTF-8" standalone="no"?>
<!DOCTYPE svg PUBLIC "-//W3C//DTD SVG 1.1//EN"
 "http://www.w3.org/Graphics/SVG/1.1/DTD/svg11.dtd">
<!-- Generated by graphviz version 2.38.0 (20140413.2041)
 -->
<!-- Title: yw_data_view Pages: 1 -->
<svg width="326pt" height="176pt"
 viewBox="0.00 0.00 326.35 175.60" xmlns="http://www.w3.org/2000/svg" xmlns:xlink="http://www.w3.org/1999/xlink">
<g id="graph0" class="graph" transform="scale(1 1) rotate(0) translate(4 171.6)">
<title>yw_data_view</title>
<polygon fill="white" stroke="none" points="-4,4 -4,-171.6 322.35,-171.6 322.35,4 -4,4"/>
<text text-anchor="middle" x="159.175" y="-147.4" font-family="Courier,monospace" font-size="18.00">GRAVITATIONAL_WAVE_DETECTION</text>
<g id="clust1" class="cluster"><title>cluster_workflow</title>
<polygon fill="none" stroke="black" stroke-width="2" points="85.1748,-62 85.1748,-130 233.175,-130 233.175,-62 85.1748,-62"/>
</g>
<g id="clust2" class="cluster"><title>cluster_workflow_inner</title>
<polygon fill="none" stroke="white" stroke-width="2" points="93.1748,-70 93.1748,-122 225.175,-122 225.175,-70 93.1748,-70"/>
</g>
<g id="clust5" class="cluster"><title>cluster_outflows</title>
<polygon fill="none" stroke="white" stroke-width="2" points="136.175,-8 136.175,-54 182.175,-54 182.175,-8 136.175,-8"/>
</g>
<g id="clust6" class="cluster"><title>cluster_outflows_inner</title>
<polygon fill="none" stroke="white" stroke-width="2" points="144.175,-16 144.175,-46 174.175,-46 174.175,-16 144.175,-16"/>
</g>
<!-- shifted_wavefile -->
<g id="node1" class="node"><title>shifted_wavefile</title>
<path fill="#ffffcc" stroke="black" d="M204.752,-114C204.752,-114 113.598,-114 113.598,-114 107.598,-114 101.598,-108 101.598,-102 101.598,-102 101.598,-90 101.598,-90 101.598,-84 107.598,-78 113.598,-78 113.598,-78 204.752,-78 204.752,-78 210.752,-78 216.752,-84 216.752,-90 216.752,-90 216.752,-102 216.752,-102 216.752,-108 210.752,-114 204.752,-114"/>
<text text-anchor="middle" x="159.175" y="-91.8" font-family="Helvetica,sans-Serif" font-size="14.00">shifted_wavefile</text>
</g>
<!-- shifted_wavefile_outflow -->
<g id="node2" class="node"><title>shifted_wavefile_outflow</title>
<ellipse fill="none" stroke="black" cx="159.175" cy="-31" rx="7" ry="7"/>
</g>
<!-- shifted_wavefile&#45;&gt;shifted_wavefile_outflow -->
<g id="edge1" class="edge"><title>shifted_wavefile&#45;&gt;shifted_wavefile_outflow</title>
<path fill="none" stroke="black" d="M159.175,-77.785C159.175,-68.6656 159.175,-57.5197 159.175,-48.5085"/>
<polygon fill="black" stroke="black" points="162.675,-48.242 159.175,-38.242 155.675,-48.2421 162.675,-48.242"/>
</g>
</g>
</svg>
