<?xml version="1.0" encoding="UTF-8" standalone="no"?>
<!DOCTYPE svg PUBLIC "-//W3C//DTD SVG 1.1//EN"
 "http://www.w3.org/Graphics/SVG/1.1/DTD/svg11.dtd">
<!-- Generated by graphviz version 2.38.0 (20140413.2041)
 -->
<!-- Title: yw_data_view Pages: 1 -->
<svg width="1147pt" height="950pt"
 viewBox="0.00 0.00 1147.00 949.60" xmlns="http://www.w3.org/2000/svg" xmlns:xlink="http://www.w3.org/1999/xlink">
<g id="graph0" class="graph" transform="scale(1 1) rotate(0) translate(4 945.6)">
<title>yw_data_view</title>
<polygon fill="white" stroke="none" points="-4,4 -4,-945.6 1143,-945.6 1143,4 -4,4"/>
<text text-anchor="middle" x="569.5" y="-921.4" font-family="Courier,monospace" font-size="18.00">GRAVITATIONAL_WAVE_DETECTION</text>
<g id="clust1" class="cluster"><title>cluster_workflow</title>
<polygon fill="none" stroke="black" stroke-width="2" points="8,-62 8,-850 930,-850 930,-62 8,-62"/>
</g>
<g id="clust2" class="cluster"><title>cluster_workflow_inner</title>
<polygon fill="none" stroke="white" stroke-width="2" points="16,-70 16,-842 922,-842 922,-70 16,-70"/>
</g>
<g id="clust3" class="cluster"><title>cluster_inflows</title>
<polygon fill="none" stroke="white" stroke-width="2" points="515,-858 515,-904 561,-904 561,-858 515,-858"/>
</g>
<g id="clust4" class="cluster"><title>cluster_inflows_inner</title>
<polygon fill="none" stroke="white" stroke-width="2" points="523,-866 523,-896 553,-896 553,-866 523,-866"/>
</g>
<g id="clust5" class="cluster"><title>cluster_outflows</title>
<polygon fill="none" stroke="white" stroke-width="2" points="829,-8 829,-54 1131,-54 1131,-8 829,-8"/>
</g>
<g id="clust6" class="cluster"><title>cluster_outflows_inner</title>
<polygon fill="none" stroke="white" stroke-width="2" points="837,-16 837,-46 1123,-46 1123,-16 837,-16"/>
</g>
<!-- AMPLITUDE_SPECTRAL_DENSITY -->
<g id="node1" class="node"><title>AMPLITUDE_SPECTRAL_DENSITY</title>
<polygon fill="#ccffcc" stroke="black" points="472.364,-762 237.636,-762 237.636,-726 472.364,-726 472.364,-762"/>
<text text-anchor="middle" x="355" y="-739.8" font-family="Courier,monospace" font-size="14.00">AMPLITUDE_SPECTRAL_DENSITY</text>
</g>
<!-- PSD_H1 -->
<g id="node13" class="node"><title>PSD_H1</title>
<path fill="#ffffcc" stroke="black" d="M312.453,-690C312.453,-690 265.547,-690 265.547,-690 259.547,-690 253.547,-684 253.547,-678 253.547,-678 253.547,-666 253.547,-666 253.547,-660 259.547,-654 265.547,-654 265.547,-654 312.453,-654 312.453,-654 318.453,-654 324.453,-660 324.453,-666 324.453,-666 324.453,-678 324.453,-678 324.453,-684 318.453,-690 312.453,-690"/>
<text text-anchor="middle" x="289" y="-667.8" font-family="Helvetica,sans-Serif" font-size="14.00">PSD_H1</text>
</g>
<!-- AMPLITUDE_SPECTRAL_DENSITY&#45;&gt;PSD_H1 -->
<g id="edge17" class="edge"><title>AMPLITUDE_SPECTRAL_DENSITY&#45;&gt;PSD_H1</title>
<path fill="none" stroke="black" d="M338.685,-725.697C330.693,-717.22 320.928,-706.864 312.178,-697.583"/>
<polygon fill="black" stroke="black" points="314.534,-694.979 305.127,-690.104 309.441,-699.781 314.534,-694.979"/>
</g>
<!-- PSD_L1 -->
<g id="node14" class="node"><title>PSD_L1</title>
<path fill="#ffffcc" stroke="black" d="M398.128,-690C398.128,-690 353.872,-690 353.872,-690 347.872,-690 341.872,-684 341.872,-678 341.872,-678 341.872,-666 341.872,-666 341.872,-660 347.872,-654 353.872,-654 353.872,-654 398.128,-654 398.128,-654 404.128,-654 410.128,-660 410.128,-666 410.128,-666 410.128,-678 410.128,-678 410.128,-684 404.128,-690 398.128,-690"/>
<text text-anchor="middle" x="376" y="-667.8" font-family="Helvetica,sans-Serif" font-size="14.00">PSD_L1</text>
</g>
<!-- AMPLITUDE_SPECTRAL_DENSITY&#45;&gt;PSD_L1 -->
<g id="edge20" class="edge"><title>AMPLITUDE_SPECTRAL_DENSITY&#45;&gt;PSD_L1</title>
<path fill="none" stroke="black" d="M360.191,-725.697C362.531,-717.898 365.347,-708.509 367.951,-699.829"/>
<polygon fill="black" stroke="black" points="371.348,-700.688 370.869,-690.104 364.643,-698.677 371.348,-700.688"/>
</g>
<!-- ASDs -->
<g id="node15" class="node"><title>ASDs</title>
<path fill="#ffffcc" stroke="black" d="M560,-690C560,-690 530,-690 530,-690 524,-690 518,-684 518,-678 518,-678 518,-666 518,-666 518,-660 524,-654 530,-654 530,-654 560,-654 560,-654 566,-654 572,-660 572,-666 572,-666 572,-678 572,-678 572,-684 566,-690 560,-690"/>
<text text-anchor="middle" x="545" y="-667.8" font-family="Helvetica,sans-Serif" font-size="14.00">ASDs</text>
</g>
<!-- AMPLITUDE_SPECTRAL_DENSITY&#45;&gt;ASDs -->
<g id="edge15" class="edge"><title>AMPLITUDE_SPECTRAL_DENSITY&#45;&gt;ASDs</title>
<path fill="none" stroke="black" d="M401.479,-725.876C434.391,-713.751 477.924,-697.712 508.382,-686.491"/>
<polygon fill="black" stroke="black" points="509.607,-689.769 517.781,-683.028 507.187,-683.201 509.607,-689.769"/>
</g>
<!-- WHITENING -->
<g id="node2" class="node"><title>WHITENING</title>
<polygon fill="#ccffcc" stroke="black" points="375.588,-618 284.412,-618 284.412,-582 375.588,-582 375.588,-618"/>
<text text-anchor="middle" x="330" y="-595.8" font-family="Courier,monospace" font-size="14.00">WHITENING</text>
</g>
<!-- strain_H1_whiten -->
<g id="node16" class="node"><title>strain_H1_whiten</title>
<path fill="#ffffcc" stroke="black" d="M305.129,-546C305.129,-546 204.871,-546 204.871,-546 198.871,-546 192.871,-540 192.871,-534 192.871,-534 192.871,-522 192.871,-522 192.871,-516 198.871,-510 204.871,-510 204.871,-510 305.129,-510 305.129,-510 311.129,-510 317.129,-516 317.129,-522 317.129,-522 317.129,-534 317.129,-534 317.129,-540 311.129,-546 305.129,-546"/>
<text text-anchor="middle" x="255" y="-523.8" font-family="Helvetica,sans-Serif" font-size="14.00">strain_H1_whiten</text>
</g>
<!-- WHITENING&#45;&gt;strain_H1_whiten -->
<g id="edge2" class="edge"><title>WHITENING&#45;&gt;strain_H1_whiten</title>
<path fill="none" stroke="black" d="M311.461,-581.697C302.197,-573.05 290.838,-562.449 280.743,-553.027"/>
<polygon fill="black" stroke="black" points="283.025,-550.369 273.326,-546.104 278.249,-555.486 283.025,-550.369"/>
</g>
<!-- strain_L1_whiten -->
<g id="node17" class="node"><title>strain_L1_whiten</title>
<path fill="#ffffcc" stroke="black" d="M444.805,-546C444.805,-546 347.195,-546 347.195,-546 341.195,-546 335.195,-540 335.195,-534 335.195,-534 335.195,-522 335.195,-522 335.195,-516 341.195,-510 347.195,-510 347.195,-510 444.805,-510 444.805,-510 450.805,-510 456.805,-516 456.805,-522 456.805,-522 456.805,-534 456.805,-534 456.805,-540 450.805,-546 444.805,-546"/>
<text text-anchor="middle" x="396" y="-523.8" font-family="Helvetica,sans-Serif" font-size="14.00">strain_L1_whiten</text>
</g>
<!-- WHITENING&#45;&gt;strain_L1_whiten -->
<g id="edge6" class="edge"><title>WHITENING&#45;&gt;strain_L1_whiten</title>
<path fill="none" stroke="black" d="M346.315,-581.697C354.307,-573.22 364.072,-562.864 372.822,-553.583"/>
<polygon fill="black" stroke="black" points="375.559,-555.781 379.873,-546.104 370.466,-550.979 375.559,-555.781"/>
</g>
<!-- BANDPASSING -->
<g id="node3" class="node"><title>BANDPASSING</title>
<polygon fill="#ccffcc" stroke="black" points="294.385,-474 185.615,-474 185.615,-438 294.385,-438 294.385,-474"/>
<text text-anchor="middle" x="240" y="-451.8" font-family="Courier,monospace" font-size="14.00">BANDPASSING</text>
</g>
<!-- strain_H1_whitenbp -->
<g id="node18" class="node"><title>strain_H1_whitenbp</title>
<path fill="#ffffcc" stroke="black" d="M267.695,-402C267.695,-402 152.305,-402 152.305,-402 146.305,-402 140.305,-396 140.305,-390 140.305,-390 140.305,-378 140.305,-378 140.305,-372 146.305,-366 152.305,-366 152.305,-366 267.695,-366 267.695,-366 273.695,-366 279.695,-372 279.695,-378 279.695,-378 279.695,-390 279.695,-390 279.695,-396 273.695,-402 267.695,-402"/>
<text text-anchor="middle" x="210" y="-379.8" font-family="Helvetica,sans-Serif" font-size="14.00">strain_H1_whitenbp</text>
</g>
<!-- BANDPASSING&#45;&gt;strain_H1_whitenbp -->
<g id="edge10" class="edge"><title>BANDPASSING&#45;&gt;strain_H1_whitenbp</title>
<path fill="none" stroke="black" d="M232.584,-437.697C229.206,-429.813 225.13,-420.304 221.377,-411.546"/>
<polygon fill="black" stroke="black" points="224.487,-409.917 217.33,-402.104 218.053,-412.675 224.487,-409.917"/>
</g>
<!-- strain_L1_whitenbp -->
<g id="node19" class="node"><title>strain_L1_whitenbp</title>
<path fill="#ffffcc" stroke="black" d="M423.871,-402C423.871,-402 310.129,-402 310.129,-402 304.129,-402 298.129,-396 298.129,-390 298.129,-390 298.129,-378 298.129,-378 298.129,-372 304.129,-366 310.129,-366 310.129,-366 423.871,-366 423.871,-366 429.871,-366 435.871,-372 435.871,-378 435.871,-378 435.871,-390 435.871,-390 435.871,-396 429.871,-402 423.871,-402"/>
<text text-anchor="middle" x="367" y="-379.8" font-family="Helvetica,sans-Serif" font-size="14.00">strain_L1_whitenbp</text>
</g>
<!-- BANDPASSING&#45;&gt;strain_L1_whitenbp -->
<g id="edge14" class="edge"><title>BANDPASSING&#45;&gt;strain_L1_whitenbp</title>
<path fill="none" stroke="black" d="M271.068,-437.876C287.827,-428.639 308.706,-417.131 326.702,-407.212"/>
<polygon fill="black" stroke="black" points="328.745,-410.082 335.813,-402.19 325.366,-403.952 328.745,-410.082"/>
</g>
<!-- STRAIN_WAVEFORM_FOR_WHITENED_DATA -->
<g id="node4" class="node"><title>STRAIN_WAVEFORM_FOR_WHITENED_DATA</title>
<polygon fill="#ccffcc" stroke="black" points="569.654,-330 276.346,-330 276.346,-294 569.654,-294 569.654,-330"/>
<text text-anchor="middle" x="423" y="-307.8" font-family="Courier,monospace" font-size="14.00">STRAIN_WAVEFORM_FOR_WHITENED_DATA</text>
</g>
<!-- WHITENED_strain_data -->
<g id="node20" class="node"><title>WHITENED_strain_data</title>
<path fill="#ffffcc" stroke="black" d="M585.678,-258C585.678,-258 442.322,-258 442.322,-258 436.322,-258 430.322,-252 430.322,-246 430.322,-246 430.322,-234 430.322,-234 430.322,-228 436.322,-222 442.322,-222 442.322,-222 585.678,-222 585.678,-222 591.678,-222 597.678,-228 597.678,-234 597.678,-234 597.678,-246 597.678,-246 597.678,-252 591.678,-258 585.678,-258"/>
<text text-anchor="middle" x="514" y="-235.8" font-family="Helvetica,sans-Serif" font-size="14.00">WHITENED_strain_data</text>
</g>
<!-- STRAIN_WAVEFORM_FOR_WHITENED_DATA&#45;&gt;WHITENED_strain_data -->
<g id="edge4" class="edge"><title>STRAIN_WAVEFORM_FOR_WHITENED_DATA&#45;&gt;WHITENED_strain_data</title>
<path fill="none" stroke="black" d="M445.494,-293.697C456.955,-284.881 471.058,-274.032 483.484,-264.474"/>
<polygon fill="black" stroke="black" points="485.972,-266.976 491.764,-258.104 481.704,-261.427 485.972,-266.976"/>
</g>
<!-- SPECTROGRAMS_FOR_STRAIN_DATA -->
<g id="node5" class="node"><title>SPECTROGRAMS_FOR_STRAIN_DATA</title>
<polygon fill="#ccffcc" stroke="black" points="904.661,-762 653.339,-762 653.339,-726 904.661,-726 904.661,-762"/>
<text text-anchor="middle" x="779" y="-739.8" font-family="Courier,monospace" font-size="14.00">SPECTROGRAMS_FOR_STRAIN_DATA</text>
</g>
<!-- spectrogram -->
<g id="node21" class="node"><title>spectrogram</title>
<path fill="#ffffcc" stroke="black" d="M862.786,-690C862.786,-690 793.214,-690 793.214,-690 787.214,-690 781.214,-684 781.214,-678 781.214,-678 781.214,-666 781.214,-666 781.214,-660 787.214,-654 793.214,-654 793.214,-654 862.786,-654 862.786,-654 868.786,-654 874.786,-660 874.786,-666 874.786,-666 874.786,-678 874.786,-678 874.786,-684 868.786,-690 862.786,-690"/>
<text text-anchor="middle" x="828" y="-667.8" font-family="Helvetica,sans-Serif" font-size="14.00">spectrogram</text>
</g>
<!-- SPECTROGRAMS_FOR_STRAIN_DATA&#45;&gt;spectrogram -->
<g id="edge16" class="edge"><title>SPECTROGRAMS_FOR_STRAIN_DATA&#45;&gt;spectrogram</title>
<path fill="none" stroke="black" d="M791.112,-725.697C796.868,-717.474 803.862,-707.483 810.206,-698.421"/>
<polygon fill="black" stroke="black" points="813.16,-700.304 816.027,-690.104 807.425,-696.29 813.16,-700.304"/>
</g>
<!-- SPECTROGRAMS_FOR_WHITEND_DATA -->
<g id="node6" class="node"><title>SPECTROGRAMS_FOR_WHITEND_DATA</title>
<polygon fill="#ccffcc" stroke="black" points="571.56,-474 312.44,-474 312.44,-438 571.56,-438 571.56,-474"/>
<text text-anchor="middle" x="442" y="-451.8" font-family="Courier,monospace" font-size="14.00">SPECTROGRAMS_FOR_WHITEND_DATA</text>
</g>
<!-- spectrogram_whitened -->
<g id="node22" class="node"><title>spectrogram_whitened</title>
<path fill="#ffffcc" stroke="black" d="M598.585,-402C598.585,-402 465.415,-402 465.415,-402 459.415,-402 453.415,-396 453.415,-390 453.415,-390 453.415,-378 453.415,-378 453.415,-372 459.415,-366 465.415,-366 465.415,-366 598.585,-366 598.585,-366 604.585,-366 610.585,-372 610.585,-378 610.585,-378 610.585,-390 610.585,-390 610.585,-396 604.585,-402 598.585,-402"/>
<text text-anchor="middle" x="532" y="-379.8" font-family="Helvetica,sans-Serif" font-size="14.00">spectrogram_whitened</text>
</g>
<!-- SPECTROGRAMS_FOR_WHITEND_DATA&#45;&gt;spectrogram_whitened -->
<g id="edge12" class="edge"><title>SPECTROGRAMS_FOR_WHITEND_DATA&#45;&gt;spectrogram_whitened</title>
<path fill="none" stroke="black" d="M464.247,-437.697C475.582,-428.881 489.53,-418.032 501.819,-408.474"/>
<polygon fill="black" stroke="black" points="504.264,-411.007 510.009,-402.104 499.966,-405.481 504.264,-411.007"/>
</g>
<!-- FILTER_COEFS -->
<g id="node7" class="node"><title>FILTER_COEFS</title>
<polygon fill="#ccffcc" stroke="black" points="631.283,-762 514.717,-762 514.717,-726 631.283,-726 631.283,-762"/>
<text text-anchor="middle" x="573" y="-739.8" font-family="Courier,monospace" font-size="14.00">FILTER_COEFS</text>
</g>
<!-- COEFFICIENTS -->
<g id="node23" class="node"><title>COEFFICIENTS</title>
<path fill="#ffffcc" stroke="black" d="M712.16,-690C712.16,-690 617.84,-690 617.84,-690 611.84,-690 605.84,-684 605.84,-678 605.84,-678 605.84,-666 605.84,-666 605.84,-660 611.84,-654 617.84,-654 617.84,-654 712.16,-654 712.16,-654 718.16,-654 724.16,-660 724.16,-666 724.16,-666 724.16,-678 724.16,-678 724.16,-684 718.16,-690 712.16,-690"/>
<text text-anchor="middle" x="665" y="-667.8" font-family="Helvetica,sans-Serif" font-size="14.00">COEFFICIENTS</text>
</g>
<!-- FILTER_COEFS&#45;&gt;COEFFICIENTS -->
<g id="edge18" class="edge"><title>FILTER_COEFS&#45;&gt;COEFFICIENTS</title>
<path fill="none" stroke="black" d="M595.742,-725.697C607.44,-716.796 621.861,-705.823 634.51,-696.199"/>
<polygon fill="black" stroke="black" points="636.681,-698.945 642.52,-690.104 632.442,-693.374 636.681,-698.945"/>
</g>
<!-- FILTER_DATA -->
<g id="node8" class="node"><title>FILTER_DATA</title>
<polygon fill="#ccffcc" stroke="black" points="723.385,-618 614.615,-618 614.615,-582 723.385,-582 723.385,-618"/>
<text text-anchor="middle" x="669" y="-595.8" font-family="Courier,monospace" font-size="14.00">FILTER_DATA</text>
</g>
<!-- strain_H1_filt -->
<g id="node24" class="node"><title>strain_H1_filt</title>
<path fill="#ffffcc" stroke="black" d="M595.672,-546C595.672,-546 522.328,-546 522.328,-546 516.328,-546 510.328,-540 510.328,-534 510.328,-534 510.328,-522 510.328,-522 510.328,-516 516.328,-510 522.328,-510 522.328,-510 595.672,-510 595.672,-510 601.672,-510 607.672,-516 607.672,-522 607.672,-522 607.672,-534 607.672,-534 607.672,-540 601.672,-546 595.672,-546"/>
<text text-anchor="middle" x="559" y="-523.8" font-family="Helvetica,sans-Serif" font-size="14.00">strain_H1_filt</text>
</g>
<!-- FILTER_DATA&#45;&gt;strain_H1_filt -->
<g id="edge1" class="edge"><title>FILTER_DATA&#45;&gt;strain_H1_filt</title>
<path fill="none" stroke="black" d="M642.091,-581.876C627.842,-572.808 610.154,-561.552 594.764,-551.759"/>
<polygon fill="black" stroke="black" points="596.328,-548.606 586.012,-546.19 592.57,-554.511 596.328,-548.606"/>
</g>
<!-- strain_L1_filt -->
<g id="node25" class="node"><title>strain_L1_filt</title>
<path fill="#ffffcc" stroke="black" d="M709.848,-546C709.848,-546 638.152,-546 638.152,-546 632.152,-546 626.152,-540 626.152,-534 626.152,-534 626.152,-522 626.152,-522 626.152,-516 632.152,-510 638.152,-510 638.152,-510 709.848,-510 709.848,-510 715.848,-510 721.848,-516 721.848,-522 721.848,-522 721.848,-534 721.848,-534 721.848,-540 715.848,-546 709.848,-546"/>
<text text-anchor="middle" x="674" y="-523.8" font-family="Helvetica,sans-Serif" font-size="14.00">strain_L1_filt</text>
</g>
<!-- FILTER_DATA&#45;&gt;strain_L1_filt -->
<g id="edge5" class="edge"><title>FILTER_DATA&#45;&gt;strain_L1_filt</title>
<path fill="none" stroke="black" d="M670.236,-581.697C670.787,-573.983 671.449,-564.712 672.063,-556.112"/>
<polygon fill="black" stroke="black" points="675.557,-556.328 672.778,-546.104 668.575,-555.83 675.557,-556.328"/>
</g>
<!-- filtered_white_noise_data -->
<g id="node26" class="node"><title>filtered_white_noise_data</title>
<path fill="#ffffcc" stroke="black" d="M902.213,-546C902.213,-546 751.787,-546 751.787,-546 745.787,-546 739.787,-540 739.787,-534 739.787,-534 739.787,-522 739.787,-522 739.787,-516 745.787,-510 751.787,-510 751.787,-510 902.213,-510 902.213,-510 908.213,-510 914.213,-516 914.213,-522 914.213,-522 914.213,-534 914.213,-534 914.213,-540 908.213,-546 902.213,-546"/>
<text text-anchor="middle" x="827" y="-523.8" font-family="Helvetica,sans-Serif" font-size="14.00">filtered_white_noise_data</text>
</g>
<!-- FILTER_DATA&#45;&gt;filtered_white_noise_data -->
<g id="edge19" class="edge"><title>FILTER_DATA&#45;&gt;filtered_white_noise_data</title>
<path fill="none" stroke="black" d="M707.651,-581.876C729.251,-572.307 756.351,-560.3 779.266,-550.148"/>
<polygon fill="black" stroke="black" points="780.749,-553.319 788.474,-546.068 777.914,-546.919 780.749,-553.319"/>
</g>
<!-- STRAIN_WAVEFORM_FOR_FILTERED_DATA -->
<g id="node9" class="node"><title>STRAIN_WAVEFORM_FOR_FILTERED_DATA</title>
<polygon fill="#ccffcc" stroke="black" points="882.654,-474 589.346,-474 589.346,-438 882.654,-438 882.654,-474"/>
<text text-anchor="middle" x="736" y="-451.8" font-family="Courier,monospace" font-size="14.00">STRAIN_WAVEFORM_FOR_FILTERED_DATA</text>
</g>
<!-- H1_strain_filtered -->
<g id="node27" class="node"><title>H1_strain_filtered</title>
<path fill="#ffffcc" stroke="black" d="M742.681,-402C742.681,-402 641.319,-402 641.319,-402 635.319,-402 629.319,-396 629.319,-390 629.319,-390 629.319,-378 629.319,-378 629.319,-372 635.319,-366 641.319,-366 641.319,-366 742.681,-366 742.681,-366 748.681,-366 754.681,-372 754.681,-378 754.681,-378 754.681,-390 754.681,-390 754.681,-396 748.681,-402 742.681,-402"/>
<text text-anchor="middle" x="692" y="-379.8" font-family="Helvetica,sans-Serif" font-size="14.00">H1_strain_filtered</text>
</g>
<!-- STRAIN_WAVEFORM_FOR_FILTERED_DATA&#45;&gt;H1_strain_filtered -->
<g id="edge8" class="edge"><title>STRAIN_WAVEFORM_FOR_FILTERED_DATA&#45;&gt;H1_strain_filtered</title>
<path fill="none" stroke="black" d="M725.124,-437.697C720.008,-429.559 713.805,-419.689 708.155,-410.701"/>
<polygon fill="black" stroke="black" points="711.036,-408.708 702.751,-402.104 705.11,-412.433 711.036,-408.708"/>
</g>
<!-- H1_strain_unfiltered -->
<g id="node28" class="node"><title>H1_strain_unfiltered</title>
<path fill="#ffffcc" stroke="black" d="M901.746,-402C901.746,-402 784.254,-402 784.254,-402 778.254,-402 772.254,-396 772.254,-390 772.254,-390 772.254,-378 772.254,-378 772.254,-372 778.254,-366 784.254,-366 784.254,-366 901.746,-366 901.746,-366 907.746,-366 913.746,-372 913.746,-378 913.746,-378 913.746,-390 913.746,-390 913.746,-396 907.746,-402 901.746,-402"/>
<text text-anchor="middle" x="843" y="-379.8" font-family="Helvetica,sans-Serif" font-size="14.00">H1_strain_unfiltered</text>
</g>
<!-- STRAIN_WAVEFORM_FOR_FILTERED_DATA&#45;&gt;H1_strain_unfiltered -->
<g id="edge11" class="edge"><title>STRAIN_WAVEFORM_FOR_FILTERED_DATA&#45;&gt;H1_strain_unfiltered</title>
<path fill="none" stroke="black" d="M762.175,-437.876C776.036,-428.808 793.241,-417.552 808.211,-407.759"/>
<polygon fill="black" stroke="black" points="810.272,-410.593 816.724,-402.19 806.44,-404.735 810.272,-410.593"/>
</g>
<!-- WAVE_FILE_GENERATOR_FOR_WHITENED_DATA -->
<g id="node10" class="node"><title>WAVE_FILE_GENERATOR_FOR_WHITENED_DATA</title>
<polygon fill="#ccffcc" stroke="black" points="914.248,-330 587.752,-330 587.752,-294 914.248,-294 914.248,-330"/>
<text text-anchor="middle" x="751" y="-307.8" font-family="Courier,monospace" font-size="14.00">WAVE_FILE_GENERATOR_FOR_WHITENED_DATA</text>
</g>
<!-- whitened_bandpass_wavefile -->
<g id="node29" class="node"><title>whitened_bandpass_wavefile</title>
<path fill="#ffffcc" stroke="black" d="M870.336,-258C870.336,-258 695.664,-258 695.664,-258 689.664,-258 683.664,-252 683.664,-246 683.664,-246 683.664,-234 683.664,-234 683.664,-228 689.664,-222 695.664,-222 695.664,-222 870.336,-222 870.336,-222 876.336,-222 882.336,-228 882.336,-234 882.336,-234 882.336,-246 882.336,-246 882.336,-252 876.336,-258 870.336,-258"/>
<text text-anchor="middle" x="783" y="-235.8" font-family="Helvetica,sans-Serif" font-size="14.00">whitened_bandpass_wavefile</text>
</g>
<!-- WAVE_FILE_GENERATOR_FOR_WHITENED_DATA&#45;&gt;whitened_bandpass_wavefile -->
<g id="edge7" class="edge"><title>WAVE_FILE_GENERATOR_FOR_WHITENED_DATA&#45;&gt;whitened_bandpass_wavefile</title>
<path fill="none" stroke="black" d="M758.91,-293.697C762.553,-285.728 766.954,-276.1 770.994,-267.264"/>
<polygon fill="black" stroke="black" points="774.206,-268.654 775.181,-258.104 767.84,-265.744 774.206,-268.654"/>
</g>
<!-- SHIFT_FREQUENCY_BANDPASSED -->
<g id="node11" class="node"><title>SHIFT_FREQUENCY_BANDPASSED</title>
<polygon fill="#ccffcc" stroke="black" points="258.364,-330 23.6361,-330 23.6361,-294 258.364,-294 258.364,-330"/>
<text text-anchor="middle" x="141" y="-307.8" font-family="Courier,monospace" font-size="14.00">SHIFT_FREQUENCY_BANDPASSED</text>
</g>
<!-- strain_H1_shifted -->
<g id="node30" class="node"><title>strain_H1_shifted</title>
<path fill="#ffffcc" stroke="black" d="M191.413,-258C191.413,-258 90.587,-258 90.587,-258 84.587,-258 78.587,-252 78.587,-246 78.587,-246 78.587,-234 78.587,-234 78.587,-228 84.587,-222 90.587,-222 90.587,-222 191.413,-222 191.413,-222 197.413,-222 203.413,-228 203.413,-234 203.413,-234 203.413,-246 203.413,-246 203.413,-252 197.413,-258 191.413,-258"/>
<text text-anchor="middle" x="141" y="-235.8" font-family="Helvetica,sans-Serif" font-size="14.00">strain_H1_shifted</text>
</g>
<!-- SHIFT_FREQUENCY_BANDPASSED&#45;&gt;strain_H1_shifted -->
<g id="edge9" class="edge"><title>SHIFT_FREQUENCY_BANDPASSED&#45;&gt;strain_H1_shifted</title>
<path fill="none" stroke="black" d="M141,-293.697C141,-285.983 141,-276.712 141,-268.112"/>
<polygon fill="black" stroke="black" points="144.5,-268.104 141,-258.104 137.5,-268.104 144.5,-268.104"/>
</g>
<!-- strain_L1_shifted -->
<g id="node31" class="node"><title>strain_L1_shifted</title>
<path fill="#ffffcc" stroke="black" d="M332.09,-258C332.09,-258 233.91,-258 233.91,-258 227.91,-258 221.91,-252 221.91,-246 221.91,-246 221.91,-234 221.91,-234 221.91,-228 227.91,-222 233.91,-222 233.91,-222 332.09,-222 332.09,-222 338.09,-222 344.09,-228 344.09,-234 344.09,-234 344.09,-246 344.09,-246 344.09,-252 338.09,-258 332.09,-258"/>
<text text-anchor="middle" x="283" y="-235.8" font-family="Helvetica,sans-Serif" font-size="14.00">strain_L1_shifted</text>
</g>
<!-- SHIFT_FREQUENCY_BANDPASSED&#45;&gt;strain_L1_shifted -->
<g id="edge13" class="edge"><title>SHIFT_FREQUENCY_BANDPASSED&#45;&gt;strain_L1_shifted</title>
<path fill="none" stroke="black" d="M175.737,-293.876C194.819,-284.469 218.679,-272.708 239.047,-262.667"/>
<polygon fill="black" stroke="black" points="240.708,-265.751 248.129,-258.19 237.612,-259.472 240.708,-265.751"/>
</g>
<!-- WAVE_FILE_GENERATOR_FOR_SHIFTED_DATA -->
<g id="node12" class="node"><title>WAVE_FILE_GENERATOR_FOR_SHIFTED_DATA</title>
<polygon fill="#ccffcc" stroke="black" points="442.35,-186 123.65,-186 123.65,-150 442.35,-150 442.35,-186"/>
<text text-anchor="middle" x="283" y="-163.8" font-family="Courier,monospace" font-size="14.00">WAVE_FILE_GENERATOR_FOR_SHIFTED_DATA</text>
</g>
<!-- shifted_wavefile -->
<g id="node32" class="node"><title>shifted_wavefile</title>
<path fill="#ffffcc" stroke="black" d="M484.577,-114C484.577,-114 393.423,-114 393.423,-114 387.423,-114 381.423,-108 381.423,-102 381.423,-102 381.423,-90 381.423,-90 381.423,-84 387.423,-78 393.423,-78 393.423,-78 484.577,-78 484.577,-78 490.577,-78 496.577,-84 496.577,-90 496.577,-90 496.577,-102 496.577,-102 496.577,-108 490.577,-114 484.577,-114"/>
<text text-anchor="middle" x="439" y="-91.8" font-family="Helvetica,sans-Serif" font-size="14.00">shifted_wavefile</text>
</g>
<!-- WAVE_FILE_GENERATOR_FOR_SHIFTED_DATA&#45;&gt;shifted_wavefile -->
<g id="edge3" class="edge"><title>WAVE_FILE_GENERATOR_FOR_SHIFTED_DATA&#45;&gt;shifted_wavefile</title>
<path fill="none" stroke="black" d="M321.162,-149.876C342.393,-140.349 369.008,-128.407 391.569,-118.283"/>
<polygon fill="black" stroke="black" points="393.271,-121.356 400.962,-114.068 390.406,-114.969 393.271,-121.356"/>
</g>
<!-- PSD_H1&#45;&gt;WHITENING -->
<g id="edge22" class="edge"><title>PSD_H1&#45;&gt;WHITENING</title>
<path fill="none" stroke="black" d="M299.135,-653.697C303.852,-645.644 309.562,-635.894 314.782,-626.982"/>
<polygon fill="black" stroke="black" points="317.948,-628.502 319.982,-618.104 311.908,-624.964 317.948,-628.502"/>
</g>
<!-- PSD_L1&#45;&gt;WHITENING -->
<g id="edge23" class="edge"><title>PSD_L1&#45;&gt;WHITENING</title>
<path fill="none" stroke="black" d="M364.629,-653.697C359.282,-645.559 352.796,-635.689 346.889,-626.701"/>
<polygon fill="black" stroke="black" points="349.657,-624.539 341.24,-618.104 343.807,-628.384 349.657,-624.539"/>
</g>
<!-- ASDs_outflow -->
<g id="node35" class="node"><title>ASDs_outflow</title>
<ellipse fill="none" stroke="black" cx="1076" cy="-31" rx="7" ry="7"/>
</g>
<!-- ASDs&#45;&gt;ASDs_outflow -->
<g id="edge43" class="edge"><title>ASDs&#45;&gt;ASDs_outflow</title>
<path fill="none" stroke="black" d="M572.147,-661.73C580.119,-659.115 588.879,-656.346 597,-654 706.412,-622.398 1094,-642.884 1094,-529 1094,-529 1094,-529 1094,-167 1094,-123.522 1084.71,-72.853 1079.48,-47.7546"/>
<polygon fill="black" stroke="black" points="1082.88,-46.9219 1077.35,-37.8841 1076.04,-48.3972 1082.88,-46.9219"/>
</g>
<!-- strain_H1_whiten&#45;&gt;BANDPASSING -->
<g id="edge24" class="edge"><title>strain_H1_whiten&#45;&gt;BANDPASSING</title>
<path fill="none" stroke="black" d="M251.292,-509.697C249.639,-501.983 247.653,-492.712 245.81,-484.112"/>
<polygon fill="black" stroke="black" points="249.183,-483.149 243.665,-474.104 242.338,-484.616 249.183,-483.149"/>
</g>
<!-- strain_H1_whiten&#45;&gt;SPECTROGRAMS_FOR_WHITEND_DATA -->
<g id="edge30" class="edge"><title>strain_H1_whiten&#45;&gt;SPECTROGRAMS_FOR_WHITEND_DATA</title>
<path fill="none" stroke="black" d="M300.745,-509.876C326.764,-500.137 359.526,-487.872 386.947,-477.608"/>
<polygon fill="black" stroke="black" points="388.265,-480.852 396.403,-474.068 385.811,-474.296 388.265,-480.852"/>
</g>
<!-- strain_L1_whiten&#45;&gt;BANDPASSING -->
<g id="edge25" class="edge"><title>strain_L1_whiten&#45;&gt;BANDPASSING</title>
<path fill="none" stroke="black" d="M357.838,-509.876C336.607,-500.349 309.992,-488.407 287.431,-478.283"/>
<polygon fill="black" stroke="black" points="288.594,-474.969 278.038,-474.068 285.729,-481.356 288.594,-474.969"/>
</g>
<!-- strain_L1_whiten&#45;&gt;SPECTROGRAMS_FOR_WHITEND_DATA -->
<g id="edge31" class="edge"><title>strain_L1_whiten&#45;&gt;SPECTROGRAMS_FOR_WHITEND_DATA</title>
<path fill="none" stroke="black" d="M407.371,-509.697C412.718,-501.559 419.204,-491.689 425.111,-482.701"/>
<polygon fill="black" stroke="black" points="428.193,-484.384 430.76,-474.104 422.343,-480.539 428.193,-484.384"/>
</g>
<!-- strain_H1_whitenbp&#45;&gt;STRAIN_WAVEFORM_FOR_WHITENED_DATA -->
<g id="edge26" class="edge"><title>strain_H1_whitenbp&#45;&gt;STRAIN_WAVEFORM_FOR_WHITENED_DATA</title>
<path fill="none" stroke="black" d="M261.833,-365.966C291.853,-356.1 329.823,-343.622 361.367,-333.255"/>
<polygon fill="black" stroke="black" points="362.527,-336.558 370.934,-330.111 360.341,-329.908 362.527,-336.558"/>
</g>
<!-- strain_H1_whitenbp&#45;&gt;WAVE_FILE_GENERATOR_FOR_WHITENED_DATA -->
<g id="edge36" class="edge"><title>strain_H1_whitenbp&#45;&gt;WAVE_FILE_GENERATOR_FOR_WHITENED_DATA</title>
<path fill="none" stroke="black" d="M279.716,-367.611C282.849,-367.042 285.955,-366.501 289,-366 343.269,-357.07 470.635,-342.633 577.919,-331.08"/>
<polygon fill="black" stroke="black" points="578.337,-334.556 587.905,-330.007 577.589,-327.596 578.337,-334.556"/>
</g>
<!-- strain_H1_whitenbp&#45;&gt;SHIFT_FREQUENCY_BANDPASSED -->
<g id="edge38" class="edge"><title>strain_H1_whitenbp&#45;&gt;SHIFT_FREQUENCY_BANDPASSED</title>
<path fill="none" stroke="black" d="M192.944,-365.697C184.505,-357.135 174.175,-346.656 164.957,-337.304"/>
<polygon fill="black" stroke="black" points="167.373,-334.769 157.86,-330.104 162.387,-339.683 167.373,-334.769"/>
</g>
<!-- strain_L1_whitenbp&#45;&gt;STRAIN_WAVEFORM_FOR_WHITENED_DATA -->
<g id="edge27" class="edge"><title>strain_L1_whitenbp&#45;&gt;STRAIN_WAVEFORM_FOR_WHITENED_DATA</title>
<path fill="none" stroke="black" d="M380.843,-365.697C387.489,-357.389 395.578,-347.277 402.887,-338.141"/>
<polygon fill="black" stroke="black" points="405.803,-340.099 409.317,-330.104 400.336,-335.727 405.803,-340.099"/>
</g>
<!-- strain_L1_whitenbp&#45;&gt;WAVE_FILE_GENERATOR_FOR_WHITENED_DATA -->
<g id="edge37" class="edge"><title>strain_L1_whitenbp&#45;&gt;WAVE_FILE_GENERATOR_FOR_WHITENED_DATA</title>
<path fill="none" stroke="black" d="M435.814,-367.642C438.577,-367.078 441.313,-366.528 444,-366 507.087,-353.597 577.781,-341.285 635.414,-331.653"/>
<polygon fill="black" stroke="black" points="635.992,-335.105 645.281,-330.009 634.842,-328.201 635.992,-335.105"/>
</g>
<!-- strain_L1_whitenbp&#45;&gt;SHIFT_FREQUENCY_BANDPASSED -->
<g id="edge39" class="edge"><title>strain_L1_whitenbp&#45;&gt;SHIFT_FREQUENCY_BANDPASSED</title>
<path fill="none" stroke="black" d="M312.003,-365.966C280.014,-356.057 239.516,-343.514 205.962,-333.121"/>
<polygon fill="black" stroke="black" points="206.831,-329.726 196.243,-330.111 204.76,-336.413 206.831,-329.726"/>
</g>
<!-- WHITENED_strain_data_outflow -->
<g id="node36" class="node"><title>WHITENED_strain_data_outflow</title>
<ellipse fill="none" stroke="black" cx="884" cy="-31" rx="7" ry="7"/>
</g>
<!-- WHITENED_strain_data&#45;&gt;WHITENED_strain_data_outflow -->
<g id="edge44" class="edge"><title>WHITENED_strain_data&#45;&gt;WHITENED_strain_data_outflow</title>
<path fill="none" stroke="black" d="M562.577,-221.891C634.971,-194.679 772.83,-136.097 868,-54 870.633,-51.7288 873.075,-48.9443 875.218,-46.1296"/>
<polygon fill="black" stroke="black" points="878.259,-47.8776 880.915,-37.6209 872.443,-43.983 878.259,-47.8776"/>
</g>
<!-- spectrogram_outflow -->
<g id="node37" class="node"><title>spectrogram_outflow</title>
<ellipse fill="none" stroke="black" cx="1108" cy="-31" rx="7" ry="7"/>
</g>
<!-- spectrogram&#45;&gt;spectrogram_outflow -->
<g id="edge45" class="edge"><title>spectrogram&#45;&gt;spectrogram_outflow</title>
<path fill="none" stroke="black" d="M874.928,-668.056C945.629,-662.667 1074.75,-648.807 1108,-618 1138.05,-590.157 1132,-569.969 1132,-529 1132,-529 1132,-529 1132,-167 1132,-123.228 1119.62,-72.6872 1112.64,-47.6845"/>
<polygon fill="black" stroke="black" points="1115.94,-46.4923 1109.8,-37.8553 1109.21,-48.4337 1115.94,-46.4923"/>
</g>
<!-- spectrogram_whitened_outflow -->
<g id="node38" class="node"><title>spectrogram_whitened_outflow</title>
<ellipse fill="none" stroke="black" cx="948" cy="-31" rx="7" ry="7"/>
</g>
<!-- spectrogram_whitened&#45;&gt;spectrogram_whitened_outflow -->
<g id="edge46" class="edge"><title>spectrogram_whitened&#45;&gt;spectrogram_whitened_outflow</title>
<path fill="none" stroke="black" d="M610.633,-367.516C613.793,-366.987 616.925,-366.479 620,-366 686.999,-355.562 872.898,-375.69 923,-330 952.886,-302.746 942,-281.447 942,-241 942,-241 942,-241 942,-167 942,-124.063 945.067,-73.5209 946.815,-48.192"/>
<polygon fill="black" stroke="black" points="950.308,-48.4092 947.529,-38.1854 943.326,-47.9109 950.308,-48.4092"/>
</g>
<!-- COEFFICIENTS&#45;&gt;FILTER_DATA -->
<g id="edge33" class="edge"><title>COEFFICIENTS&#45;&gt;FILTER_DATA</title>
<path fill="none" stroke="black" d="M665.989,-653.697C666.43,-645.983 666.959,-636.712 667.451,-628.112"/>
<polygon fill="black" stroke="black" points="670.946,-628.288 668.023,-618.104 663.958,-627.888 670.946,-628.288"/>
</g>
<!-- strain_H1_filt&#45;&gt;STRAIN_WAVEFORM_FOR_FILTERED_DATA -->
<g id="edge34" class="edge"><title>strain_H1_filt&#45;&gt;STRAIN_WAVEFORM_FOR_FILTERED_DATA</title>
<path fill="none" stroke="black" d="M602.299,-509.876C626.711,-500.222 657.396,-488.087 683.21,-477.878"/>
<polygon fill="black" stroke="black" points="684.83,-481.001 692.842,-474.068 682.255,-474.491 684.83,-481.001"/>
</g>
<!-- strain_L1_filt&#45;&gt;STRAIN_WAVEFORM_FOR_FILTERED_DATA -->
<g id="edge35" class="edge"><title>strain_L1_filt&#45;&gt;STRAIN_WAVEFORM_FOR_FILTERED_DATA</title>
<path fill="none" stroke="black" d="M689.326,-509.697C696.759,-501.305 705.823,-491.07 713.98,-481.861"/>
<polygon fill="black" stroke="black" points="716.84,-483.911 720.85,-474.104 711.6,-479.27 716.84,-483.911"/>
</g>
<!-- filtered_white_noise_data_outflow -->
<g id="node39" class="node"><title>filtered_white_noise_data_outflow</title>
<ellipse fill="none" stroke="black" cx="1044" cy="-31" rx="7" ry="7"/>
</g>
<!-- filtered_white_noise_data&#45;&gt;filtered_white_noise_data_outflow -->
<g id="edge47" class="edge"><title>filtered_white_noise_data&#45;&gt;filtered_white_noise_data_outflow</title>
<path fill="none" stroke="black" d="M913.249,-509.939C978.163,-491.494 1056,-454.819 1056,-385 1056,-385 1056,-385 1056,-167 1056,-123.937 1049.87,-73.4487 1046.37,-48.1611"/>
<polygon fill="black" stroke="black" points="1049.82,-47.5763 1044.94,-38.1724 1042.89,-48.5672 1049.82,-47.5763"/>
</g>
<!-- H1_strain_filtered_outflow -->
<g id="node40" class="node"><title>H1_strain_filtered_outflow</title>
<ellipse fill="none" stroke="black" cx="980" cy="-31" rx="7" ry="7"/>
</g>
<!-- H1_strain_filtered&#45;&gt;H1_strain_filtered_outflow -->
<g id="edge48" class="edge"><title>H1_strain_filtered&#45;&gt;H1_strain_filtered_outflow</title>
<path fill="none" stroke="black" d="M754.681,-367.81C757.49,-367.187 760.273,-366.58 763,-366 848.346,-347.835 891.912,-389.216 956,-330 986.09,-302.197 980,-281.969 980,-241 980,-241 980,-241 980,-167 980,-124.106 980,-73.5451 980,-48.2023"/>
<polygon fill="black" stroke="black" points="983.5,-48.1897 980,-38.1898 976.5,-48.1898 983.5,-48.1897"/>
</g>
<!-- H1_strain_unfiltered_outflow -->
<g id="node41" class="node"><title>H1_strain_unfiltered_outflow</title>
<ellipse fill="none" stroke="black" cx="1012" cy="-31" rx="7" ry="7"/>
</g>
<!-- H1_strain_unfiltered&#45;&gt;H1_strain_unfiltered_outflow -->
<g id="edge49" class="edge"><title>H1_strain_unfiltered&#45;&gt;H1_strain_unfiltered_outflow</title>
<path fill="none" stroke="black" d="M913.644,-372.902C942.122,-365.449 973.111,-352.498 994,-330 1021.88,-299.977 1018,-281.969 1018,-241 1018,-241 1018,-241 1018,-167 1018,-124.063 1014.93,-73.5209 1013.18,-48.192"/>
<polygon fill="black" stroke="black" points="1016.67,-47.9109 1012.47,-38.1854 1009.69,-48.4092 1016.67,-47.9109"/>
</g>
<!-- whitened_bandpass_wavefile_outflow -->
<g id="node42" class="node"><title>whitened_bandpass_wavefile_outflow</title>
<ellipse fill="none" stroke="black" cx="916" cy="-31" rx="7" ry="7"/>
</g>
<!-- whitened_bandpass_wavefile&#45;&gt;whitened_bandpass_wavefile_outflow -->
<g id="edge50" class="edge"><title>whitened_bandpass_wavefile&#45;&gt;whitened_bandpass_wavefile_outflow</title>
<path fill="none" stroke="black" d="M794.111,-221.707C819.905,-181.562 883.44,-82.6766 907.01,-45.9925"/>
<polygon fill="black" stroke="black" points="910.072,-47.7007 912.533,-37.3956 904.183,-43.9168 910.072,-47.7007"/>
</g>
<!-- strain_H1_shifted&#45;&gt;WAVE_FILE_GENERATOR_FOR_SHIFTED_DATA -->
<g id="edge40" class="edge"><title>strain_H1_shifted&#45;&gt;WAVE_FILE_GENERATOR_FOR_SHIFTED_DATA</title>
<path fill="none" stroke="black" d="M175.737,-221.876C194.819,-212.469 218.679,-200.708 239.047,-190.667"/>
<polygon fill="black" stroke="black" points="240.708,-193.751 248.129,-186.19 237.612,-187.472 240.708,-193.751"/>
</g>
<!-- strain_L1_shifted&#45;&gt;WAVE_FILE_GENERATOR_FOR_SHIFTED_DATA -->
<g id="edge41" class="edge"><title>strain_L1_shifted&#45;&gt;WAVE_FILE_GENERATOR_FOR_SHIFTED_DATA</title>
<path fill="none" stroke="black" d="M283,-221.697C283,-213.983 283,-204.712 283,-196.112"/>
<polygon fill="black" stroke="black" points="286.5,-196.104 283,-186.104 279.5,-196.104 286.5,-196.104"/>
</g>
<!-- shifted_wavefile_outflow -->
<g id="node43" class="node"><title>shifted_wavefile_outflow</title>
<ellipse fill="none" stroke="black" cx="852" cy="-31" rx="7" ry="7"/>
</g>
<!-- shifted_wavefile&#45;&gt;shifted_wavefile_outflow -->
<g id="edge51" class="edge"><title>shifted_wavefile&#45;&gt;shifted_wavefile_outflow</title>
<path fill="none" stroke="black" d="M496.861,-86.1738C592.406,-71.5991 778.265,-43.2478 835.089,-34.5797"/>
<polygon fill="black" stroke="black" points="835.819,-38.0088 845.177,-33.0408 834.764,-31.0889 835.819,-38.0088"/>
</g>
<!-- fs -->
<g id="node33" class="node"><title>fs</title>
<path fill="#ffffff" stroke="black" d="M553,-834C553,-834 523,-834 523,-834 517,-834 511,-828 511,-822 511,-822 511,-810 511,-810 511,-804 517,-798 523,-798 523,-798 553,-798 553,-798 559,-798 565,-804 565,-810 565,-810 565,-822 565,-822 565,-828 559,-834 553,-834"/>
<text text-anchor="middle" x="538" y="-811.8" font-family="Helvetica,sans-Serif" font-size="14.00">fs</text>
</g>
<!-- fs&#45;&gt;AMPLITUDE_SPECTRAL_DENSITY -->
<g id="edge21" class="edge"><title>fs&#45;&gt;AMPLITUDE_SPECTRAL_DENSITY</title>
<path fill="none" stroke="black" d="M510.998,-804.671C484.303,-794.46 442.706,-778.549 409.178,-765.724"/>
<polygon fill="black" stroke="black" points="410.098,-762.328 399.507,-762.025 407.597,-768.866 410.098,-762.328"/>
</g>
<!-- fs&#45;&gt;SPECTROGRAMS_FOR_STRAIN_DATA -->
<g id="edge28" class="edge"><title>fs&#45;&gt;SPECTROGRAMS_FOR_STRAIN_DATA</title>
<path fill="none" stroke="black" d="M565.177,-807.106C600.188,-796.937 662.28,-778.902 710.564,-764.878"/>
<polygon fill="black" stroke="black" points="711.707,-768.19 720.334,-762.04 709.754,-761.468 711.707,-768.19"/>
</g>
<!-- fs&#45;&gt;SPECTROGRAMS_FOR_WHITEND_DATA -->
<g id="edge29" class="edge"><title>fs&#45;&gt;SPECTROGRAMS_FOR_WHITEND_DATA</title>
<path fill="none" stroke="black" d="M525.268,-797.703C518.534,-787.736 510.708,-774.698 506,-762 492.054,-724.389 491,-713.113 491,-673 491,-673 491,-673 491,-599 491,-556.775 471.4,-511.16 456.992,-483.334"/>
<polygon fill="black" stroke="black" points="459.949,-481.442 452.153,-474.268 453.774,-484.738 459.949,-481.442"/>
</g>
<!-- fs&#45;&gt;FILTER_COEFS -->
<g id="edge32" class="edge"><title>fs&#45;&gt;FILTER_COEFS</title>
<path fill="none" stroke="black" d="M546.652,-797.697C550.636,-789.728 555.45,-780.1 559.868,-771.264"/>
<polygon fill="black" stroke="black" points="563.106,-772.614 564.448,-762.104 556.845,-769.483 563.106,-772.614"/>
</g>
<!-- fs_inflow -->
<g id="node34" class="node"><title>fs_inflow</title>
<ellipse fill="none" stroke="black" cx="538" cy="-881" rx="7" ry="7"/>
</g>
<!-- fs_inflow&#45;&gt;fs -->
<g id="edge42" class="edge"><title>fs_inflow&#45;&gt;fs</title>
<path fill="none" stroke="black" d="M538,-873.729C538,-866.795 538,-855.154 538,-844.215"/>
<polygon fill="black" stroke="black" points="541.5,-844.119 538,-834.119 534.5,-844.119 541.5,-844.119"/>
</g>
</g>
</svg>
