<?xml version="1.0" encoding="UTF-8" standalone="no"?>
<!DOCTYPE svg PUBLIC "-//W3C//DTD SVG 1.1//EN"
 "http://www.w3.org/Graphics/SVG/1.1/DTD/svg11.dtd">
<!-- Generated by graphviz version 2.38.0 (20140413.2041)
 -->
<!-- Title: yw_data_view Pages: 1 -->
<svg width="1182pt" height="1094pt"
 viewBox="0.00 0.00 1182.00 1093.60" xmlns="http://www.w3.org/2000/svg" xmlns:xlink="http://www.w3.org/1999/xlink">
<g id="graph0" class="graph" transform="scale(1 1) rotate(0) translate(4 1089.6)">
<title>yw_data_view</title>
<polygon fill="white" stroke="none" points="-4,4 -4,-1089.6 1178,-1089.6 1178,4 -4,4"/>
<text text-anchor="middle" x="587" y="-1065.4" font-family="Courier,monospace" font-size="18.00">GRAVITATIONAL_WAVE_DETECTION</text>
<g id="clust1" class="cluster"><title>cluster_workflow</title>
<polygon fill="none" stroke="black" stroke-width="2" points="8,-62 8,-994 986,-994 986,-62 8,-62"/>
</g>
<g id="clust2" class="cluster"><title>cluster_workflow_inner</title>
<polygon fill="none" stroke="white" stroke-width="2" points="16,-70 16,-986 978,-986 978,-70 16,-70"/>
</g>
<g id="clust3" class="cluster"><title>cluster_inflows</title>
<polygon fill="none" stroke="white" stroke-width="2" points="601,-1002 601,-1048 647,-1048 647,-1002 601,-1002"/>
</g>
<g id="clust4" class="cluster"><title>cluster_inflows_inner</title>
<polygon fill="none" stroke="white" stroke-width="2" points="609,-1010 609,-1040 639,-1040 639,-1010 609,-1010"/>
</g>
<g id="clust5" class="cluster"><title>cluster_outflows</title>
<polygon fill="none" stroke="white" stroke-width="2" points="832,-8 832,-54 1166,-54 1166,-8 832,-8"/>
</g>
<g id="clust6" class="cluster"><title>cluster_outflows_inner</title>
<polygon fill="none" stroke="white" stroke-width="2" points="840,-16 840,-46 1158,-46 1158,-16 840,-16"/>
</g>
<!-- LOAD_DATA -->
<g id="node1" class="node"><title>LOAD_DATA</title>
<polygon fill="#ccffcc" stroke="black" points="669.588,-906 578.412,-906 578.412,-870 669.588,-870 669.588,-906"/>
<text text-anchor="middle" x="624" y="-883.8" font-family="Courier,monospace" font-size="14.00">LOAD_DATA</text>
</g>
<!-- strain_H1 -->
<g id="node15" class="node"><title>strain_H1</title>
<path fill="#ffffcc" stroke="black" d="M603.895,-834C603.895,-834 552.105,-834 552.105,-834 546.105,-834 540.105,-828 540.105,-822 540.105,-822 540.105,-810 540.105,-810 540.105,-804 546.105,-798 552.105,-798 552.105,-798 603.895,-798 603.895,-798 609.895,-798 615.895,-804 615.895,-810 615.895,-810 615.895,-822 615.895,-822 615.895,-828 609.895,-834 603.895,-834"/>
<text text-anchor="middle" x="578" y="-811.8" font-family="Helvetica,sans-Serif" font-size="14.00">strain_H1</text>
</g>
<!-- LOAD_DATA&#45;&gt;strain_H1 -->
<g id="edge3" class="edge"><title>LOAD_DATA&#45;&gt;strain_H1</title>
<path fill="none" stroke="black" d="M612.629,-869.697C607.282,-861.559 600.796,-851.689 594.889,-842.701"/>
<polygon fill="black" stroke="black" points="597.657,-840.539 589.24,-834.104 591.807,-844.384 597.657,-840.539"/>
</g>
<!-- strain_L1 -->
<g id="node16" class="node"><title>strain_L1</title>
<path fill="#ffffcc" stroke="black" d="M457.572,-834C457.572,-834 408.428,-834 408.428,-834 402.428,-834 396.428,-828 396.428,-822 396.428,-822 396.428,-810 396.428,-810 396.428,-804 402.428,-798 408.428,-798 408.428,-798 457.572,-798 457.572,-798 463.572,-798 469.572,-804 469.572,-810 469.572,-810 469.572,-822 469.572,-822 469.572,-828 463.572,-834 457.572,-834"/>
<text text-anchor="middle" x="433" y="-811.8" font-family="Helvetica,sans-Serif" font-size="14.00">strain_L1</text>
</g>
<!-- LOAD_DATA&#45;&gt;strain_L1 -->
<g id="edge8" class="edge"><title>LOAD_DATA&#45;&gt;strain_L1</title>
<path fill="none" stroke="black" d="M578.251,-870.233C548.276,-859.248 509.228,-844.937 479.169,-833.921"/>
<polygon fill="black" stroke="black" points="480.342,-830.623 469.748,-830.468 477.933,-837.195 480.342,-830.623"/>
</g>
<!-- strain_16 -->
<g id="node17" class="node"><title>strain_16</title>
<path fill="#ffffcc" stroke="black" d="M732.572,-834C732.572,-834 683.428,-834 683.428,-834 677.428,-834 671.428,-828 671.428,-822 671.428,-822 671.428,-810 671.428,-810 671.428,-804 677.428,-798 683.428,-798 683.428,-798 732.572,-798 732.572,-798 738.572,-798 744.572,-804 744.572,-810 744.572,-810 744.572,-822 744.572,-822 744.572,-828 738.572,-834 732.572,-834"/>
<text text-anchor="middle" x="708" y="-811.8" font-family="Helvetica,sans-Serif" font-size="14.00">strain_16</text>
</g>
<!-- LOAD_DATA&#45;&gt;strain_16 -->
<g id="edge13" class="edge"><title>LOAD_DATA&#45;&gt;strain_16</title>
<path fill="none" stroke="black" d="M644.764,-869.697C655.241,-860.965 668.111,-850.24 679.5,-840.75"/>
<polygon fill="black" stroke="black" points="682.033,-843.195 687.475,-834.104 677.552,-837.817 682.033,-843.195"/>
</g>
<!-- strain_4 -->
<g id="node18" class="node"><title>strain_4</title>
<path fill="#ffffcc" stroke="black" d="M834.789,-834C834.789,-834 793.211,-834 793.211,-834 787.211,-834 781.211,-828 781.211,-822 781.211,-822 781.211,-810 781.211,-810 781.211,-804 787.211,-798 793.211,-798 793.211,-798 834.789,-798 834.789,-798 840.789,-798 846.789,-804 846.789,-810 846.789,-810 846.789,-822 846.789,-822 846.789,-828 840.789,-834 834.789,-834"/>
<text text-anchor="middle" x="814" y="-811.8" font-family="Helvetica,sans-Serif" font-size="14.00">strain_4</text>
</g>
<!-- LOAD_DATA&#45;&gt;strain_4 -->
<g id="edge18" class="edge"><title>LOAD_DATA&#45;&gt;strain_4</title>
<path fill="none" stroke="black" d="M669.994,-870.055C700.913,-858.664 741.37,-843.758 771.527,-832.648"/>
<polygon fill="black" stroke="black" points="772.758,-835.924 780.932,-829.183 770.338,-829.356 772.758,-835.924"/>
</g>
<!-- AMPLITUDE_SPECTRAL_DENSITY -->
<g id="node2" class="node"><title>AMPLITUDE_SPECTRAL_DENSITY</title>
<polygon fill="#ccffcc" stroke="black" points="352.364,-762 117.636,-762 117.636,-726 352.364,-726 352.364,-762"/>
<text text-anchor="middle" x="235" y="-739.8" font-family="Courier,monospace" font-size="14.00">AMPLITUDE_SPECTRAL_DENSITY</text>
</g>
<!-- PSD_H1 -->
<g id="node19" class="node"><title>PSD_H1</title>
<path fill="#ffffcc" stroke="black" d="M82.4531,-690C82.4531,-690 35.5469,-690 35.5469,-690 29.5469,-690 23.5469,-684 23.5469,-678 23.5469,-678 23.5469,-666 23.5469,-666 23.5469,-660 29.5469,-654 35.5469,-654 35.5469,-654 82.4531,-654 82.4531,-654 88.4531,-654 94.4531,-660 94.4531,-666 94.4531,-666 94.4531,-678 94.4531,-678 94.4531,-684 88.4531,-690 82.4531,-690"/>
<text text-anchor="middle" x="59" y="-667.8" font-family="Helvetica,sans-Serif" font-size="14.00">PSD_H1</text>
</g>
<!-- AMPLITUDE_SPECTRAL_DENSITY&#45;&gt;PSD_H1 -->
<g id="edge22" class="edge"><title>AMPLITUDE_SPECTRAL_DENSITY&#45;&gt;PSD_H1</title>
<path fill="none" stroke="black" d="M191.946,-725.876C165.299,-715.278 131.136,-701.69 104.114,-690.943"/>
<polygon fill="black" stroke="black" points="105.094,-687.566 94.5087,-687.123 102.507,-694.071 105.094,-687.566"/>
</g>
<!-- PSD_L1 -->
<g id="node20" class="node"><title>PSD_L1</title>
<path fill="#ffffcc" stroke="black" d="M168.128,-690C168.128,-690 123.872,-690 123.872,-690 117.872,-690 111.872,-684 111.872,-678 111.872,-678 111.872,-666 111.872,-666 111.872,-660 117.872,-654 123.872,-654 123.872,-654 168.128,-654 168.128,-654 174.128,-654 180.128,-660 180.128,-666 180.128,-666 180.128,-678 180.128,-678 180.128,-684 174.128,-690 168.128,-690"/>
<text text-anchor="middle" x="146" y="-667.8" font-family="Helvetica,sans-Serif" font-size="14.00">PSD_L1</text>
</g>
<!-- AMPLITUDE_SPECTRAL_DENSITY&#45;&gt;PSD_L1 -->
<g id="edge1" class="edge"><title>AMPLITUDE_SPECTRAL_DENSITY&#45;&gt;PSD_L1</title>
<path fill="none" stroke="black" d="M213,-725.697C201.791,-716.881 187.998,-706.032 175.846,-696.474"/>
<polygon fill="black" stroke="black" points="177.771,-693.535 167.747,-690.104 173.443,-699.038 177.771,-693.535"/>
</g>
<!-- ASDs -->
<g id="node21" class="node"><title>ASDs</title>
<path fill="#ffffcc" stroke="black" d="M470,-690C470,-690 440,-690 440,-690 434,-690 428,-684 428,-678 428,-678 428,-666 428,-666 428,-660 434,-654 440,-654 440,-654 470,-654 470,-654 476,-654 482,-660 482,-666 482,-666 482,-678 482,-678 482,-684 476,-690 470,-690"/>
<text text-anchor="middle" x="455" y="-667.8" font-family="Helvetica,sans-Serif" font-size="14.00">ASDs</text>
</g>
<!-- AMPLITUDE_SPECTRAL_DENSITY&#45;&gt;ASDs -->
<g id="edge20" class="edge"><title>AMPLITUDE_SPECTRAL_DENSITY&#45;&gt;ASDs</title>
<path fill="none" stroke="black" d="M304.013,-725.943C336.529,-717.247 375.867,-705.781 418.292,-690.001"/>
<polygon fill="black" stroke="black" points="419.56,-693.264 427.679,-686.457 417.087,-686.715 419.56,-693.264"/>
</g>
<!-- WHITENING -->
<g id="node3" class="node"><title>WHITENING</title>
<polygon fill="#ccffcc" stroke="black" points="221.588,-618 130.412,-618 130.412,-582 221.588,-582 221.588,-618"/>
<text text-anchor="middle" x="176" y="-595.8" font-family="Courier,monospace" font-size="14.00">WHITENING</text>
</g>
<!-- strain_H1_whiten -->
<g id="node22" class="node"><title>strain_H1_whiten</title>
<path fill="#ffffcc" stroke="black" d="M427.129,-546C427.129,-546 326.871,-546 326.871,-546 320.871,-546 314.871,-540 314.871,-534 314.871,-534 314.871,-522 314.871,-522 314.871,-516 320.871,-510 326.871,-510 326.871,-510 427.129,-510 427.129,-510 433.129,-510 439.129,-516 439.129,-522 439.129,-522 439.129,-534 439.129,-534 439.129,-540 433.129,-546 427.129,-546"/>
<text text-anchor="middle" x="377" y="-523.8" font-family="Helvetica,sans-Serif" font-size="14.00">strain_H1_whiten</text>
</g>
<!-- WHITENING&#45;&gt;strain_H1_whiten -->
<g id="edge4" class="edge"><title>WHITENING&#45;&gt;strain_H1_whiten</title>
<path fill="none" stroke="black" d="M221.61,-583.116C250.247,-573.143 287.462,-560.182 318.292,-549.445"/>
<polygon fill="black" stroke="black" points="319.766,-552.638 328.059,-546.044 317.464,-546.028 319.766,-552.638"/>
</g>
<!-- strain_L1_whiten -->
<g id="node23" class="node"><title>strain_L1_whiten</title>
<path fill="#ffffcc" stroke="black" d="M284.805,-546C284.805,-546 187.195,-546 187.195,-546 181.195,-546 175.195,-540 175.195,-534 175.195,-534 175.195,-522 175.195,-522 175.195,-516 181.195,-510 187.195,-510 187.195,-510 284.805,-510 284.805,-510 290.805,-510 296.805,-516 296.805,-522 296.805,-522 296.805,-534 296.805,-534 296.805,-540 290.805,-546 284.805,-546"/>
<text text-anchor="middle" x="236" y="-523.8" font-family="Helvetica,sans-Serif" font-size="14.00">strain_L1_whiten</text>
</g>
<!-- WHITENING&#45;&gt;strain_L1_whiten -->
<g id="edge9" class="edge"><title>WHITENING&#45;&gt;strain_L1_whiten</title>
<path fill="none" stroke="black" d="M190.831,-581.697C198.025,-573.305 206.797,-563.07 214.69,-553.861"/>
<polygon fill="black" stroke="black" points="217.489,-555.975 221.339,-546.104 212.174,-551.419 217.489,-555.975"/>
</g>
<!-- BANDPASSING -->
<g id="node4" class="node"><title>BANDPASSING</title>
<polygon fill="#ccffcc" stroke="black" points="320.385,-474 211.615,-474 211.615,-438 320.385,-438 320.385,-474"/>
<text text-anchor="middle" x="266" y="-451.8" font-family="Courier,monospace" font-size="14.00">BANDPASSING</text>
</g>
<!-- strain_H1_whitenbp -->
<g id="node24" class="node"><title>strain_H1_whitenbp</title>
<path fill="#ffffcc" stroke="black" d="M480.695,-402C480.695,-402 365.305,-402 365.305,-402 359.305,-402 353.305,-396 353.305,-390 353.305,-390 353.305,-378 353.305,-378 353.305,-372 359.305,-366 365.305,-366 365.305,-366 480.695,-366 480.695,-366 486.695,-366 492.695,-372 492.695,-378 492.695,-378 492.695,-390 492.695,-390 492.695,-396 486.695,-402 480.695,-402"/>
<text text-anchor="middle" x="423" y="-379.8" font-family="Helvetica,sans-Serif" font-size="14.00">strain_H1_whitenbp</text>
</g>
<!-- BANDPASSING&#45;&gt;strain_H1_whitenbp -->
<g id="edge14" class="edge"><title>BANDPASSING&#45;&gt;strain_H1_whitenbp</title>
<path fill="none" stroke="black" d="M304.407,-437.876C325.869,-428.307 352.798,-416.3 375.568,-406.148"/>
<polygon fill="black" stroke="black" points="377.01,-409.337 384.718,-402.068 374.16,-402.944 377.01,-409.337"/>
</g>
<!-- strain_L1_whitenbp -->
<g id="node25" class="node"><title>strain_L1_whitenbp</title>
<path fill="#ffffcc" stroke="black" d="M322.871,-402C322.871,-402 209.129,-402 209.129,-402 203.129,-402 197.129,-396 197.129,-390 197.129,-390 197.129,-378 197.129,-378 197.129,-372 203.129,-366 209.129,-366 209.129,-366 322.871,-366 322.871,-366 328.871,-366 334.871,-372 334.871,-378 334.871,-378 334.871,-390 334.871,-390 334.871,-396 328.871,-402 322.871,-402"/>
<text text-anchor="middle" x="266" y="-379.8" font-family="Helvetica,sans-Serif" font-size="14.00">strain_L1_whitenbp</text>
</g>
<!-- BANDPASSING&#45;&gt;strain_L1_whitenbp -->
<g id="edge19" class="edge"><title>BANDPASSING&#45;&gt;strain_L1_whitenbp</title>
<path fill="none" stroke="black" d="M266,-437.697C266,-429.983 266,-420.712 266,-412.112"/>
<polygon fill="black" stroke="black" points="269.5,-412.104 266,-402.104 262.5,-412.104 269.5,-412.104"/>
</g>
<!-- STRAIN_WAVEFORM_FOR_WHITENED_DATA -->
<g id="node5" class="node"><title>STRAIN_WAVEFORM_FOR_WHITENED_DATA</title>
<polygon fill="#ccffcc" stroke="black" points="569.654,-330 276.346,-330 276.346,-294 569.654,-294 569.654,-330"/>
<text text-anchor="middle" x="423" y="-307.8" font-family="Courier,monospace" font-size="14.00">STRAIN_WAVEFORM_FOR_WHITENED_DATA</text>
</g>
<!-- WHITENED_strain_data -->
<g id="node26" class="node"><title>WHITENED_strain_data</title>
<path fill="#ffffcc" stroke="black" d="M557.678,-258C557.678,-258 414.322,-258 414.322,-258 408.322,-258 402.322,-252 402.322,-246 402.322,-246 402.322,-234 402.322,-234 402.322,-228 408.322,-222 414.322,-222 414.322,-222 557.678,-222 557.678,-222 563.678,-222 569.678,-228 569.678,-234 569.678,-234 569.678,-246 569.678,-246 569.678,-252 563.678,-258 557.678,-258"/>
<text text-anchor="middle" x="486" y="-235.8" font-family="Helvetica,sans-Serif" font-size="14.00">WHITENED_strain_data</text>
</g>
<!-- STRAIN_WAVEFORM_FOR_WHITENED_DATA&#45;&gt;WHITENED_strain_data -->
<g id="edge6" class="edge"><title>STRAIN_WAVEFORM_FOR_WHITENED_DATA&#45;&gt;WHITENED_strain_data</title>
<path fill="none" stroke="black" d="M438.573,-293.697C446.202,-285.22 455.523,-274.864 463.876,-265.583"/>
<polygon fill="black" stroke="black" points="466.518,-267.879 470.606,-258.104 461.315,-263.196 466.518,-267.879"/>
</g>
<!-- SPECTROGRAMS_FOR_STRAIN_DATA -->
<g id="node6" class="node"><title>SPECTROGRAMS_FOR_STRAIN_DATA</title>
<polygon fill="#ccffcc" stroke="black" points="747.661,-762 496.339,-762 496.339,-726 747.661,-726 747.661,-762"/>
<text text-anchor="middle" x="622" y="-739.8" font-family="Courier,monospace" font-size="14.00">SPECTROGRAMS_FOR_STRAIN_DATA</text>
</g>
<!-- spectrogram -->
<g id="node27" class="node"><title>spectrogram</title>
<path fill="#ffffcc" stroke="black" d="M773.786,-690C773.786,-690 704.214,-690 704.214,-690 698.214,-690 692.214,-684 692.214,-678 692.214,-678 692.214,-666 692.214,-666 692.214,-660 698.214,-654 704.214,-654 704.214,-654 773.786,-654 773.786,-654 779.786,-654 785.786,-660 785.786,-666 785.786,-666 785.786,-678 785.786,-678 785.786,-684 779.786,-690 773.786,-690"/>
<text text-anchor="middle" x="739" y="-667.8" font-family="Helvetica,sans-Serif" font-size="14.00">spectrogram</text>
</g>
<!-- SPECTROGRAMS_FOR_STRAIN_DATA&#45;&gt;spectrogram -->
<g id="edge21" class="edge"><title>SPECTROGRAMS_FOR_STRAIN_DATA&#45;&gt;spectrogram</title>
<path fill="none" stroke="black" d="M650.621,-725.876C665.919,-716.724 684.943,-705.342 701.418,-695.485"/>
<polygon fill="black" stroke="black" points="703.484,-698.327 710.269,-690.19 699.89,-692.32 703.484,-698.327"/>
</g>
<!-- SPECTROGRAMS_FOR_WHITEND_DATA -->
<g id="node7" class="node"><title>SPECTROGRAMS_FOR_WHITEND_DATA</title>
<polygon fill="#ccffcc" stroke="black" points="597.56,-474 338.44,-474 338.44,-438 597.56,-438 597.56,-474"/>
<text text-anchor="middle" x="468" y="-451.8" font-family="Courier,monospace" font-size="14.00">SPECTROGRAMS_FOR_WHITEND_DATA</text>
</g>
<!-- spectrogram_whitened -->
<g id="node28" class="node"><title>spectrogram_whitened</title>
<path fill="#ffffcc" stroke="black" d="M798.585,-402C798.585,-402 665.415,-402 665.415,-402 659.415,-402 653.415,-396 653.415,-390 653.415,-390 653.415,-378 653.415,-378 653.415,-372 659.415,-366 665.415,-366 665.415,-366 798.585,-366 798.585,-366 804.585,-366 810.585,-372 810.585,-378 810.585,-378 810.585,-390 810.585,-390 810.585,-396 804.585,-402 798.585,-402"/>
<text text-anchor="middle" x="732" y="-379.8" font-family="Helvetica,sans-Serif" font-size="14.00">spectrogram_whitened</text>
</g>
<!-- SPECTROGRAMS_FOR_WHITEND_DATA&#45;&gt;spectrogram_whitened -->
<g id="edge16" class="edge"><title>SPECTROGRAMS_FOR_WHITEND_DATA&#45;&gt;spectrogram_whitened</title>
<path fill="none" stroke="black" d="M532.244,-437.966C570.093,-427.93 618.139,-415.19 657.625,-404.721"/>
<polygon fill="black" stroke="black" points="658.699,-408.057 667.468,-402.111 656.905,-401.291 658.699,-408.057"/>
</g>
<!-- FILTER_DATA -->
<g id="node8" class="node"><title>FILTER_DATA</title>
<polygon fill="#ccffcc" stroke="black" points="478.385,-762 369.615,-762 369.615,-726 478.385,-726 478.385,-762"/>
<text text-anchor="middle" x="424" y="-739.8" font-family="Courier,monospace" font-size="14.00">FILTER_DATA</text>
</g>
<!-- strain_H1_filt -->
<g id="node29" class="node"><title>strain_H1_filt</title>
<path fill="#ffffcc" stroke="black" d="M283.672,-690C283.672,-690 210.328,-690 210.328,-690 204.328,-690 198.328,-684 198.328,-678 198.328,-678 198.328,-666 198.328,-666 198.328,-660 204.328,-654 210.328,-654 210.328,-654 283.672,-654 283.672,-654 289.672,-654 295.672,-660 295.672,-666 295.672,-666 295.672,-678 295.672,-678 295.672,-684 289.672,-690 283.672,-690"/>
<text text-anchor="middle" x="247" y="-667.8" font-family="Helvetica,sans-Serif" font-size="14.00">strain_H1_filt</text>
</g>
<!-- FILTER_DATA&#45;&gt;strain_H1_filt -->
<g id="edge2" class="edge"><title>FILTER_DATA&#45;&gt;strain_H1_filt</title>
<path fill="none" stroke="black" d="M380.701,-725.876C356.289,-716.222 325.604,-704.087 299.79,-693.878"/>
<polygon fill="black" stroke="black" points="300.745,-690.491 290.158,-690.068 298.17,-697.001 300.745,-690.491"/>
</g>
<!-- strain_L1_filt -->
<g id="node30" class="node"><title>strain_L1_filt</title>
<path fill="#ffffcc" stroke="black" d="M397.848,-690C397.848,-690 326.152,-690 326.152,-690 320.152,-690 314.152,-684 314.152,-678 314.152,-678 314.152,-666 314.152,-666 314.152,-660 320.152,-654 326.152,-654 326.152,-654 397.848,-654 397.848,-654 403.848,-654 409.848,-660 409.848,-666 409.848,-666 409.848,-678 409.848,-678 409.848,-684 403.848,-690 397.848,-690"/>
<text text-anchor="middle" x="362" y="-667.8" font-family="Helvetica,sans-Serif" font-size="14.00">strain_L1_filt</text>
</g>
<!-- FILTER_DATA&#45;&gt;strain_L1_filt -->
<g id="edge7" class="edge"><title>FILTER_DATA&#45;&gt;strain_L1_filt</title>
<path fill="none" stroke="black" d="M408.674,-725.697C401.241,-717.305 392.177,-707.07 384.02,-697.861"/>
<polygon fill="black" stroke="black" points="386.4,-695.27 377.15,-690.104 381.16,-699.911 386.4,-695.27"/>
</g>
<!-- filtered_white_noise_data -->
<g id="node31" class="node"><title>filtered_white_noise_data</title>
<path fill="#ffffcc" stroke="black" d="M662.213,-690C662.213,-690 511.787,-690 511.787,-690 505.787,-690 499.787,-684 499.787,-678 499.787,-678 499.787,-666 499.787,-666 499.787,-660 505.787,-654 511.787,-654 511.787,-654 662.213,-654 662.213,-654 668.213,-654 674.213,-660 674.213,-666 674.213,-666 674.213,-678 674.213,-678 674.213,-684 668.213,-690 662.213,-690"/>
<text text-anchor="middle" x="587" y="-667.8" font-family="Helvetica,sans-Serif" font-size="14.00">filtered_white_noise_data</text>
</g>
<!-- FILTER_DATA&#45;&gt;filtered_white_noise_data -->
<g id="edge24" class="edge"><title>FILTER_DATA&#45;&gt;filtered_white_noise_data</title>
<path fill="none" stroke="black" d="M463.874,-725.876C486.157,-716.307 514.115,-704.3 537.756,-694.148"/>
<polygon fill="black" stroke="black" points="539.448,-697.23 547.255,-690.068 536.686,-690.798 539.448,-697.23"/>
</g>
<!-- STRAIN_WAVEFORM_FOR_FILTERED_DATA -->
<g id="node9" class="node"><title>STRAIN_WAVEFORM_FOR_FILTERED_DATA</title>
<polygon fill="#ccffcc" stroke="black" points="596.654,-618 303.346,-618 303.346,-582 596.654,-582 596.654,-618"/>
<text text-anchor="middle" x="450" y="-595.8" font-family="Courier,monospace" font-size="14.00">STRAIN_WAVEFORM_FOR_FILTERED_DATA</text>
</g>
<!-- H1_strain_filtered -->
<g id="node32" class="node"><title>H1_strain_filtered</title>
<path fill="#ffffcc" stroke="black" d="M636.681,-546C636.681,-546 535.319,-546 535.319,-546 529.319,-546 523.319,-540 523.319,-534 523.319,-534 523.319,-522 523.319,-522 523.319,-516 529.319,-510 535.319,-510 535.319,-510 636.681,-510 636.681,-510 642.681,-510 648.681,-516 648.681,-522 648.681,-522 648.681,-534 648.681,-534 648.681,-540 642.681,-546 636.681,-546"/>
<text text-anchor="middle" x="586" y="-523.8" font-family="Helvetica,sans-Serif" font-size="14.00">H1_strain_filtered</text>
</g>
<!-- STRAIN_WAVEFORM_FOR_FILTERED_DATA&#45;&gt;H1_strain_filtered -->
<g id="edge11" class="edge"><title>STRAIN_WAVEFORM_FOR_FILTERED_DATA&#45;&gt;H1_strain_filtered</title>
<path fill="none" stroke="black" d="M483.269,-581.876C501.463,-572.512 524.191,-560.814 543.64,-550.803"/>
<polygon fill="black" stroke="black" points="545.313,-553.878 552.603,-546.19 542.11,-547.654 545.313,-553.878"/>
</g>
<!-- H1_strain_unfiltered -->
<g id="node33" class="node"><title>H1_strain_unfiltered</title>
<path fill="#ffffcc" stroke="black" d="M893.746,-546C893.746,-546 776.254,-546 776.254,-546 770.254,-546 764.254,-540 764.254,-534 764.254,-534 764.254,-522 764.254,-522 764.254,-516 770.254,-510 776.254,-510 776.254,-510 893.746,-510 893.746,-510 899.746,-510 905.746,-516 905.746,-522 905.746,-522 905.746,-534 905.746,-534 905.746,-540 899.746,-546 893.746,-546"/>
<text text-anchor="middle" x="835" y="-523.8" font-family="Helvetica,sans-Serif" font-size="14.00">H1_strain_unfiltered</text>
</g>
<!-- STRAIN_WAVEFORM_FOR_FILTERED_DATA&#45;&gt;H1_strain_unfiltered -->
<g id="edge15" class="edge"><title>STRAIN_WAVEFORM_FOR_FILTERED_DATA&#45;&gt;H1_strain_unfiltered</title>
<path fill="none" stroke="black" d="M543.689,-581.966C608.102,-570.254 692.765,-554.861 754.209,-543.689"/>
<polygon fill="black" stroke="black" points="755.035,-547.097 764.247,-541.864 753.782,-540.21 755.035,-547.097"/>
</g>
<!-- WAVE_FILE_GENERATOR_FOR_WHITENED_DATA -->
<g id="node10" class="node"><title>WAVE_FILE_GENERATOR_FOR_WHITENED_DATA</title>
<polygon fill="#ccffcc" stroke="black" points="914.248,-330 587.752,-330 587.752,-294 914.248,-294 914.248,-330"/>
<text text-anchor="middle" x="751" y="-307.8" font-family="Courier,monospace" font-size="14.00">WAVE_FILE_GENERATOR_FOR_WHITENED_DATA</text>
</g>
<!-- whitened_bandpass_wavefile -->
<g id="node34" class="node"><title>whitened_bandpass_wavefile</title>
<path fill="#ffffcc" stroke="black" d="M870.336,-258C870.336,-258 695.664,-258 695.664,-258 689.664,-258 683.664,-252 683.664,-246 683.664,-246 683.664,-234 683.664,-234 683.664,-228 689.664,-222 695.664,-222 695.664,-222 870.336,-222 870.336,-222 876.336,-222 882.336,-228 882.336,-234 882.336,-234 882.336,-246 882.336,-246 882.336,-252 876.336,-258 870.336,-258"/>
<text text-anchor="middle" x="783" y="-235.8" font-family="Helvetica,sans-Serif" font-size="14.00">whitened_bandpass_wavefile</text>
</g>
<!-- WAVE_FILE_GENERATOR_FOR_WHITENED_DATA&#45;&gt;whitened_bandpass_wavefile -->
<g id="edge10" class="edge"><title>WAVE_FILE_GENERATOR_FOR_WHITENED_DATA&#45;&gt;whitened_bandpass_wavefile</title>
<path fill="none" stroke="black" d="M758.91,-293.697C762.553,-285.728 766.954,-276.1 770.994,-267.264"/>
<polygon fill="black" stroke="black" points="774.206,-268.654 775.181,-258.104 767.84,-265.744 774.206,-268.654"/>
</g>
<!-- SHIFT_FREQUENCY_BANDPASSED -->
<g id="node11" class="node"><title>SHIFT_FREQUENCY_BANDPASSED</title>
<polygon fill="#ccffcc" stroke="black" points="258.364,-330 23.6361,-330 23.6361,-294 258.364,-294 258.364,-330"/>
<text text-anchor="middle" x="141" y="-307.8" font-family="Courier,monospace" font-size="14.00">SHIFT_FREQUENCY_BANDPASSED</text>
</g>
<!-- strain_H1_shifted -->
<g id="node35" class="node"><title>strain_H1_shifted</title>
<path fill="#ffffcc" stroke="black" d="M191.413,-258C191.413,-258 90.587,-258 90.587,-258 84.587,-258 78.587,-252 78.587,-246 78.587,-246 78.587,-234 78.587,-234 78.587,-228 84.587,-222 90.587,-222 90.587,-222 191.413,-222 191.413,-222 197.413,-222 203.413,-228 203.413,-234 203.413,-234 203.413,-246 203.413,-246 203.413,-252 197.413,-258 191.413,-258"/>
<text text-anchor="middle" x="141" y="-235.8" font-family="Helvetica,sans-Serif" font-size="14.00">strain_H1_shifted</text>
</g>
<!-- SHIFT_FREQUENCY_BANDPASSED&#45;&gt;strain_H1_shifted -->
<g id="edge12" class="edge"><title>SHIFT_FREQUENCY_BANDPASSED&#45;&gt;strain_H1_shifted</title>
<path fill="none" stroke="black" d="M141,-293.697C141,-285.983 141,-276.712 141,-268.112"/>
<polygon fill="black" stroke="black" points="144.5,-268.104 141,-258.104 137.5,-268.104 144.5,-268.104"/>
</g>
<!-- strain_L1_shifted -->
<g id="node36" class="node"><title>strain_L1_shifted</title>
<path fill="#ffffcc" stroke="black" d="M332.09,-258C332.09,-258 233.91,-258 233.91,-258 227.91,-258 221.91,-252 221.91,-246 221.91,-246 221.91,-234 221.91,-234 221.91,-228 227.91,-222 233.91,-222 233.91,-222 332.09,-222 332.09,-222 338.09,-222 344.09,-228 344.09,-234 344.09,-234 344.09,-246 344.09,-246 344.09,-252 338.09,-258 332.09,-258"/>
<text text-anchor="middle" x="283" y="-235.8" font-family="Helvetica,sans-Serif" font-size="14.00">strain_L1_shifted</text>
</g>
<!-- SHIFT_FREQUENCY_BANDPASSED&#45;&gt;strain_L1_shifted -->
<g id="edge17" class="edge"><title>SHIFT_FREQUENCY_BANDPASSED&#45;&gt;strain_L1_shifted</title>
<path fill="none" stroke="black" d="M175.737,-293.876C194.819,-284.469 218.679,-272.708 239.047,-262.667"/>
<polygon fill="black" stroke="black" points="240.708,-265.751 248.129,-258.19 237.612,-259.472 240.708,-265.751"/>
</g>
<!-- WAVE_FILE_GENERATOR_FOR_SHIFTED_DATA -->
<g id="node12" class="node"><title>WAVE_FILE_GENERATOR_FOR_SHIFTED_DATA</title>
<polygon fill="#ccffcc" stroke="black" points="442.35,-186 123.65,-186 123.65,-150 442.35,-150 442.35,-186"/>
<text text-anchor="middle" x="283" y="-163.8" font-family="Courier,monospace" font-size="14.00">WAVE_FILE_GENERATOR_FOR_SHIFTED_DATA</text>
</g>
<!-- shifted_wavefile -->
<g id="node37" class="node"><title>shifted_wavefile</title>
<path fill="#ffffcc" stroke="black" d="M407.577,-114C407.577,-114 316.423,-114 316.423,-114 310.423,-114 304.423,-108 304.423,-102 304.423,-102 304.423,-90 304.423,-90 304.423,-84 310.423,-78 316.423,-78 316.423,-78 407.577,-78 407.577,-78 413.577,-78 419.577,-84 419.577,-90 419.577,-90 419.577,-102 419.577,-102 419.577,-108 413.577,-114 407.577,-114"/>
<text text-anchor="middle" x="362" y="-91.8" font-family="Helvetica,sans-Serif" font-size="14.00">shifted_wavefile</text>
</g>
<!-- WAVE_FILE_GENERATOR_FOR_SHIFTED_DATA&#45;&gt;shifted_wavefile -->
<g id="edge5" class="edge"><title>WAVE_FILE_GENERATOR_FOR_SHIFTED_DATA&#45;&gt;shifted_wavefile</title>
<path fill="none" stroke="black" d="M302.528,-149.697C312.382,-140.965 324.486,-130.24 335.196,-120.75"/>
<polygon fill="black" stroke="black" points="337.533,-123.356 342.697,-114.104 332.891,-118.117 337.533,-123.356"/>
</g>
<!-- DOWNSAMPLING -->
<g id="node13" class="node"><title>DOWNSAMPLING</title>
<polygon fill="#ccffcc" stroke="black" points="882.283,-762 765.717,-762 765.717,-726 882.283,-726 882.283,-762"/>
<text text-anchor="middle" x="824" y="-739.8" font-family="Courier,monospace" font-size="14.00">DOWNSAMPLING</text>
</g>
<!-- H1_ASD_SamplingRate -->
<g id="node38" class="node"><title>H1_ASD_SamplingRate</title>
<path fill="#ffffcc" stroke="black" d="M958.137,-690C958.137,-690 815.863,-690 815.863,-690 809.863,-690 803.863,-684 803.863,-678 803.863,-678 803.863,-666 803.863,-666 803.863,-660 809.863,-654 815.863,-654 815.863,-654 958.137,-654 958.137,-654 964.137,-654 970.137,-660 970.137,-666 970.137,-666 970.137,-678 970.137,-678 970.137,-684 964.137,-690 958.137,-690"/>
<text text-anchor="middle" x="887" y="-667.8" font-family="Helvetica,sans-Serif" font-size="14.00">H1_ASD_SamplingRate</text>
</g>
<!-- DOWNSAMPLING&#45;&gt;H1_ASD_SamplingRate -->
<g id="edge23" class="edge"><title>DOWNSAMPLING&#45;&gt;H1_ASD_SamplingRate</title>
<path fill="none" stroke="black" d="M839.573,-725.697C847.202,-717.22 856.523,-706.864 864.876,-697.583"/>
<polygon fill="black" stroke="black" points="867.518,-699.879 871.606,-690.104 862.315,-695.196 867.518,-699.879"/>
</g>
<!-- FN_Sampling_rate -->
<g id="node14" class="node"><title>FN_Sampling_rate</title>
<path fill="#ffffcc" stroke="black" d="M678.182,-978C678.182,-978 569.818,-978 569.818,-978 563.818,-978 557.818,-972 557.818,-966 557.818,-966 557.818,-954 557.818,-954 557.818,-948 563.818,-942 569.818,-942 569.818,-942 678.182,-942 678.182,-942 684.182,-942 690.182,-948 690.182,-954 690.182,-954 690.182,-966 690.182,-966 690.182,-972 684.182,-978 678.182,-978"/>
<text text-anchor="middle" x="624" y="-955.8" font-family="Helvetica,sans-Serif" font-size="14.00">FN_Sampling_rate</text>
</g>
<!-- FN_Sampling_rate&#45;&gt;LOAD_DATA -->
<g id="edge25" class="edge"><title>FN_Sampling_rate&#45;&gt;LOAD_DATA</title>
<path fill="none" stroke="black" d="M624,-941.697C624,-933.983 624,-924.712 624,-916.112"/>
<polygon fill="black" stroke="black" points="627.5,-916.104 624,-906.104 620.5,-916.104 627.5,-916.104"/>
</g>
<!-- strain_H1&#45;&gt;AMPLITUDE_SPECTRAL_DENSITY -->
<g id="edge26" class="edge"><title>strain_H1&#45;&gt;AMPLITUDE_SPECTRAL_DENSITY</title>
<path fill="none" stroke="black" d="M539.982,-807.241C489.36,-796.91 398.132,-778.292 328.599,-764.102"/>
<polygon fill="black" stroke="black" points="329.003,-760.612 318.505,-762.042 327.603,-767.471 329.003,-760.612"/>
</g>
<!-- strain_H1&#45;&gt;SPECTROGRAMS_FOR_STRAIN_DATA -->
<g id="edge34" class="edge"><title>strain_H1&#45;&gt;SPECTROGRAMS_FOR_STRAIN_DATA</title>
<path fill="none" stroke="black" d="M588.876,-797.697C593.992,-789.559 600.195,-779.689 605.845,-770.701"/>
<polygon fill="black" stroke="black" points="608.89,-772.433 611.249,-762.104 602.964,-768.708 608.89,-772.433"/>
</g>
<!-- strain_H1&#45;&gt;FILTER_DATA -->
<g id="edge38" class="edge"><title>strain_H1&#45;&gt;FILTER_DATA</title>
<path fill="none" stroke="black" d="M540.327,-797.876C519.368,-788.349 493.095,-776.407 470.823,-766.283"/>
<polygon fill="black" stroke="black" points="472.102,-763.02 461.55,-762.068 469.206,-769.393 472.102,-763.02"/>
</g>
<!-- strain_L1&#45;&gt;AMPLITUDE_SPECTRAL_DENSITY -->
<g id="edge27" class="edge"><title>strain_L1&#45;&gt;AMPLITUDE_SPECTRAL_DENSITY</title>
<path fill="none" stroke="black" d="M396.222,-801.998C367.212,-791.742 326.215,-777.248 292.824,-765.443"/>
<polygon fill="black" stroke="black" points="293.771,-762.065 283.176,-762.032 291.438,-768.665 293.771,-762.065"/>
</g>
<!-- strain_L1&#45;&gt;SPECTROGRAMS_FOR_STRAIN_DATA -->
<g id="edge35" class="edge"><title>strain_L1&#45;&gt;SPECTROGRAMS_FOR_STRAIN_DATA</title>
<path fill="none" stroke="black" d="M469.89,-801.337C497.344,-791.169 535.289,-777.115 566.411,-765.589"/>
<polygon fill="black" stroke="black" points="567.67,-768.855 575.832,-762.099 565.238,-762.291 567.67,-768.855"/>
</g>
<!-- strain_L1&#45;&gt;FILTER_DATA -->
<g id="edge39" class="edge"><title>strain_L1&#45;&gt;FILTER_DATA</title>
<path fill="none" stroke="black" d="M430.775,-797.697C429.783,-789.983 428.592,-780.712 427.486,-772.112"/>
<polygon fill="black" stroke="black" points="430.946,-771.576 426.199,-762.104 424.003,-772.469 430.946,-771.576"/>
</g>
<!-- strain_16&#45;&gt;DOWNSAMPLING -->
<g id="edge48" class="edge"><title>strain_16&#45;&gt;DOWNSAMPLING</title>
<path fill="none" stroke="black" d="M736.377,-797.876C751.544,-788.724 770.405,-777.342 786.739,-767.485"/>
<polygon fill="black" stroke="black" points="788.761,-770.353 795.514,-762.19 785.144,-764.36 788.761,-770.353"/>
</g>
<!-- strain_4&#45;&gt;DOWNSAMPLING -->
<g id="edge49" class="edge"><title>strain_4&#45;&gt;DOWNSAMPLING</title>
<path fill="none" stroke="black" d="M816.472,-797.697C817.574,-789.983 818.898,-780.712 820.127,-772.112"/>
<polygon fill="black" stroke="black" points="823.607,-772.499 821.557,-762.104 816.677,-771.509 823.607,-772.499"/>
</g>
<!-- PSD_H1&#45;&gt;WHITENING -->
<g id="edge28" class="edge"><title>PSD_H1&#45;&gt;WHITENING</title>
<path fill="none" stroke="black" d="M87.6214,-653.876C102.919,-644.724 121.943,-633.342 138.418,-623.485"/>
<polygon fill="black" stroke="black" points="140.484,-626.327 147.269,-618.19 136.89,-620.32 140.484,-626.327"/>
</g>
<!-- PSD_L1&#45;&gt;WHITENING -->
<g id="edge29" class="edge"><title>PSD_L1&#45;&gt;WHITENING</title>
<path fill="none" stroke="black" d="M153.416,-653.697C156.794,-645.813 160.87,-636.304 164.623,-627.546"/>
<polygon fill="black" stroke="black" points="167.947,-628.675 168.67,-618.104 161.513,-625.917 167.947,-628.675"/>
</g>
<!-- ASDs_outflow -->
<g id="node40" class="node"><title>ASDs_outflow</title>
<ellipse fill="none" stroke="black" cx="1047" cy="-31" rx="7" ry="7"/>
</g>
<!-- ASDs&#45;&gt;ASDs_outflow -->
<g id="edge51" class="edge"><title>ASDs&#45;&gt;ASDs_outflow</title>
<path fill="none" stroke="black" d="M482.255,-657.358C485.17,-656.132 488.122,-654.984 491,-654 612.676,-612.397 1056,-657.592 1056,-529 1056,-529 1056,-529 1056,-167 1056,-124.01 1051.4,-73.4908 1048.78,-48.1791"/>
<polygon fill="black" stroke="black" points="1052.25,-47.7502 1047.71,-38.18 1045.29,-48.496 1052.25,-47.7502"/>
</g>
<!-- strain_H1_whiten&#45;&gt;BANDPASSING -->
<g id="edge30" class="edge"><title>strain_H1_whiten&#45;&gt;BANDPASSING</title>
<path fill="none" stroke="black" d="M349.846,-509.876C335.467,-500.808 317.619,-489.552 302.09,-479.759"/>
<polygon fill="black" stroke="black" points="303.584,-476.564 293.258,-474.19 299.85,-482.484 303.584,-476.564"/>
</g>
<!-- strain_H1_whiten&#45;&gt;SPECTROGRAMS_FOR_WHITEND_DATA -->
<g id="edge36" class="edge"><title>strain_H1_whiten&#45;&gt;SPECTROGRAMS_FOR_WHITEND_DATA</title>
<path fill="none" stroke="black" d="M399.494,-509.697C410.955,-500.881 425.058,-490.032 437.484,-480.474"/>
<polygon fill="black" stroke="black" points="439.972,-482.976 445.764,-474.104 435.704,-477.427 439.972,-482.976"/>
</g>
<!-- strain_L1_whiten&#45;&gt;BANDPASSING -->
<g id="edge31" class="edge"><title>strain_L1_whiten&#45;&gt;BANDPASSING</title>
<path fill="none" stroke="black" d="M243.416,-509.697C246.794,-501.813 250.87,-492.304 254.623,-483.546"/>
<polygon fill="black" stroke="black" points="257.947,-484.675 258.67,-474.104 251.513,-481.917 257.947,-484.675"/>
</g>
<!-- strain_L1_whiten&#45;&gt;SPECTROGRAMS_FOR_WHITEND_DATA -->
<g id="edge37" class="edge"><title>strain_L1_whiten&#45;&gt;SPECTROGRAMS_FOR_WHITEND_DATA</title>
<path fill="none" stroke="black" d="M292.457,-509.966C325.295,-500.057 366.868,-487.514 401.313,-477.121"/>
<polygon fill="black" stroke="black" points="402.727,-480.35 411.29,-474.111 400.705,-473.649 402.727,-480.35"/>
</g>
<!-- strain_H1_whitenbp&#45;&gt;STRAIN_WAVEFORM_FOR_WHITENED_DATA -->
<g id="edge32" class="edge"><title>strain_H1_whitenbp&#45;&gt;STRAIN_WAVEFORM_FOR_WHITENED_DATA</title>
<path fill="none" stroke="black" d="M423,-365.697C423,-357.983 423,-348.712 423,-340.112"/>
<polygon fill="black" stroke="black" points="426.5,-340.104 423,-330.104 419.5,-340.104 426.5,-340.104"/>
</g>
<!-- strain_H1_whitenbp&#45;&gt;WAVE_FILE_GENERATOR_FOR_WHITENED_DATA -->
<g id="edge42" class="edge"><title>strain_H1_whitenbp&#45;&gt;WAVE_FILE_GENERATOR_FOR_WHITENED_DATA</title>
<path fill="none" stroke="black" d="M492.962,-368.069C542.011,-357.601 608.01,-343.516 660.981,-332.211"/>
<polygon fill="black" stroke="black" points="662.003,-335.572 671.053,-330.062 660.542,-328.726 662.003,-335.572"/>
</g>
<!-- strain_H1_whitenbp&#45;&gt;SHIFT_FREQUENCY_BANDPASSED -->
<g id="edge44" class="edge"><title>strain_H1_whitenbp&#45;&gt;SHIFT_FREQUENCY_BANDPASSED</title>
<path fill="none" stroke="black" d="M354.376,-365.966C313.689,-355.866 261.972,-343.028 219.643,-332.521"/>
<polygon fill="black" stroke="black" points="220.481,-329.123 209.932,-330.111 218.794,-335.917 220.481,-329.123"/>
</g>
<!-- strain_L1_whitenbp&#45;&gt;STRAIN_WAVEFORM_FOR_WHITENED_DATA -->
<g id="edge33" class="edge"><title>strain_L1_whitenbp&#45;&gt;STRAIN_WAVEFORM_FOR_WHITENED_DATA</title>
<path fill="none" stroke="black" d="M304.407,-365.876C325.869,-356.307 352.798,-344.3 375.568,-334.148"/>
<polygon fill="black" stroke="black" points="377.01,-337.337 384.718,-330.068 374.16,-330.944 377.01,-337.337"/>
</g>
<!-- strain_L1_whitenbp&#45;&gt;WAVE_FILE_GENERATOR_FOR_WHITENED_DATA -->
<g id="edge43" class="edge"><title>strain_L1_whitenbp&#45;&gt;WAVE_FILE_GENERATOR_FOR_WHITENED_DATA</title>
<path fill="none" stroke="black" d="M334.841,-367.663C337.932,-367.08 340.996,-366.522 344,-366 423.12,-352.252 511.456,-340.337 585.559,-331.306"/>
<polygon fill="black" stroke="black" points="586.412,-334.728 595.919,-330.051 585.57,-327.779 586.412,-334.728"/>
</g>
<!-- strain_L1_whitenbp&#45;&gt;SHIFT_FREQUENCY_BANDPASSED -->
<g id="edge45" class="edge"><title>strain_L1_whitenbp&#45;&gt;SHIFT_FREQUENCY_BANDPASSED</title>
<path fill="none" stroke="black" d="M235.422,-365.876C218.926,-356.639 198.376,-345.131 180.664,-335.212"/>
<polygon fill="black" stroke="black" points="182.131,-332.022 171.696,-330.19 178.711,-338.13 182.131,-332.022"/>
</g>
<!-- WHITENED_strain_data_outflow -->
<g id="node41" class="node"><title>WHITENED_strain_data_outflow</title>
<ellipse fill="none" stroke="black" cx="887" cy="-31" rx="7" ry="7"/>
</g>
<!-- WHITENED_strain_data&#45;&gt;WHITENED_strain_data_outflow -->
<g id="edge52" class="edge"><title>WHITENED_strain_data&#45;&gt;WHITENED_strain_data_outflow</title>
<path fill="none" stroke="black" d="M541.868,-221.928C621.439,-195.582 769.046,-139.002 871,-54 873.671,-51.7734 876.129,-49.0078 878.275,-46.1975"/>
<polygon fill="black" stroke="black" points="881.326,-47.9304 883.954,-37.6665 875.499,-44.0518 881.326,-47.9304"/>
</g>
<!-- spectrogram_outflow -->
<g id="node42" class="node"><title>spectrogram_outflow</title>
<ellipse fill="none" stroke="black" cx="1111" cy="-31" rx="7" ry="7"/>
</g>
<!-- spectrogram&#45;&gt;spectrogram_outflow -->
<g id="edge53" class="edge"><title>spectrogram&#45;&gt;spectrogram_outflow</title>
<path fill="none" stroke="black" d="M785.895,-656.094C788.961,-655.327 792.015,-654.619 795,-654 863.553,-639.773 1054.95,-663.688 1108,-618 1139.04,-591.266 1132,-569.969 1132,-529 1132,-529 1132,-529 1132,-167 1132,-123.385 1121.17,-72.7759 1115.06,-47.722"/>
<polygon fill="black" stroke="black" points="1118.42,-46.7122 1112.58,-37.8707 1111.63,-48.4229 1118.42,-46.7122"/>
</g>
<!-- spectrogram_whitened_outflow -->
<g id="node43" class="node"><title>spectrogram_whitened_outflow</title>
<ellipse fill="none" stroke="black" cx="951" cy="-31" rx="7" ry="7"/>
</g>
<!-- spectrogram_whitened&#45;&gt;spectrogram_whitened_outflow -->
<g id="edge54" class="edge"><title>spectrogram_whitened&#45;&gt;spectrogram_whitened_outflow</title>
<path fill="none" stroke="black" d="M811.035,-379.694C849.861,-373.928 894.34,-360.444 923,-330 950.724,-300.55 942,-281.447 942,-241 942,-241 942,-241 942,-167 942,-124.01 946.6,-73.4908 949.223,-48.1791"/>
<polygon fill="black" stroke="black" points="952.709,-48.496 950.294,-38.18 945.748,-47.7502 952.709,-48.496"/>
</g>
<!-- strain_H1_filt&#45;&gt;STRAIN_WAVEFORM_FOR_FILTERED_DATA -->
<g id="edge40" class="edge"><title>strain_H1_filt&#45;&gt;STRAIN_WAVEFORM_FOR_FILTERED_DATA</title>
<path fill="none" stroke="black" d="M295.882,-654.144C324.465,-644.288 360.742,-631.779 390.92,-621.373"/>
<polygon fill="black" stroke="black" points="392.173,-624.643 400.486,-618.074 389.891,-618.025 392.173,-624.643"/>
</g>
<!-- strain_L1_filt&#45;&gt;STRAIN_WAVEFORM_FOR_FILTERED_DATA -->
<g id="edge41" class="edge"><title>strain_L1_filt&#45;&gt;STRAIN_WAVEFORM_FOR_FILTERED_DATA</title>
<path fill="none" stroke="black" d="M383.753,-653.697C394.836,-644.881 408.474,-634.032 420.49,-624.474"/>
<polygon fill="black" stroke="black" points="422.85,-627.069 428.497,-618.104 418.493,-621.59 422.85,-627.069"/>
</g>
<!-- filtered_white_noise_data_outflow -->
<g id="node44" class="node"><title>filtered_white_noise_data_outflow</title>
<ellipse fill="none" stroke="black" cx="1079" cy="-31" rx="7" ry="7"/>
</g>
<!-- filtered_white_noise_data&#45;&gt;filtered_white_noise_data_outflow -->
<g id="edge55" class="edge"><title>filtered_white_noise_data&#45;&gt;filtered_white_noise_data_outflow</title>
<path fill="none" stroke="black" d="M674.33,-655.22C677.252,-654.793 680.148,-654.384 683,-654 768.597,-642.46 1003.94,-673.647 1070,-618 1101.33,-591.605 1094,-569.969 1094,-529 1094,-529 1094,-529 1094,-167 1094,-123.842 1086.33,-73.3946 1081.96,-48.138"/>
<polygon fill="black" stroke="black" points="1085.38,-47.3896 1080.18,-38.1627 1078.49,-48.6229 1085.38,-47.3896"/>
</g>
<!-- H1_strain_filtered_outflow -->
<g id="node45" class="node"><title>H1_strain_filtered_outflow</title>
<ellipse fill="none" stroke="black" cx="983" cy="-31" rx="7" ry="7"/>
</g>
<!-- H1_strain_filtered&#45;&gt;H1_strain_filtered_outflow -->
<g id="edge56" class="edge"><title>H1_strain_filtered&#45;&gt;H1_strain_filtered_outflow</title>
<path fill="none" stroke="black" d="M648.866,-517.687C760.103,-499.424 980,-454.529 980,-385 980,-385 980,-385 980,-167 980,-124.095 981.533,-73.5391 982.408,-48.1997"/>
<polygon fill="black" stroke="black" points="985.906,-48.3071 982.765,-38.1887 978.91,-48.0575 985.906,-48.3071"/>
</g>
<!-- H1_strain_unfiltered_outflow -->
<g id="node46" class="node"><title>H1_strain_unfiltered_outflow</title>
<ellipse fill="none" stroke="black" cx="1015" cy="-31" rx="7" ry="7"/>
</g>
<!-- H1_strain_unfiltered&#45;&gt;H1_strain_unfiltered_outflow -->
<g id="edge57" class="edge"><title>H1_strain_unfiltered&#45;&gt;H1_strain_unfiltered_outflow</title>
<path fill="none" stroke="black" d="M905.673,-518.629C936.621,-511.509 971.039,-498.341 994,-474 1022.11,-444.198 1018,-425.969 1018,-385 1018,-385 1018,-385 1018,-167 1018,-124.095 1016.47,-73.5391 1015.59,-48.1997"/>
<polygon fill="black" stroke="black" points="1019.09,-48.0575 1015.24,-38.1887 1012.09,-48.3071 1019.09,-48.0575"/>
</g>
<!-- whitened_bandpass_wavefile_outflow -->
<g id="node47" class="node"><title>whitened_bandpass_wavefile_outflow</title>
<ellipse fill="none" stroke="black" cx="919" cy="-31" rx="7" ry="7"/>
</g>
<!-- whitened_bandpass_wavefile&#45;&gt;whitened_bandpass_wavefile_outflow -->
<g id="edge58" class="edge"><title>whitened_bandpass_wavefile&#45;&gt;whitened_bandpass_wavefile_outflow</title>
<path fill="none" stroke="black" d="M794.361,-221.707C820.737,-181.562 885.705,-82.6766 909.807,-45.9925"/>
<polygon fill="black" stroke="black" points="912.889,-47.6751 915.455,-37.3956 907.039,-43.8314 912.889,-47.6751"/>
</g>
<!-- strain_H1_shifted&#45;&gt;WAVE_FILE_GENERATOR_FOR_SHIFTED_DATA -->
<g id="edge46" class="edge"><title>strain_H1_shifted&#45;&gt;WAVE_FILE_GENERATOR_FOR_SHIFTED_DATA</title>
<path fill="none" stroke="black" d="M175.737,-221.876C194.819,-212.469 218.679,-200.708 239.047,-190.667"/>
<polygon fill="black" stroke="black" points="240.708,-193.751 248.129,-186.19 237.612,-187.472 240.708,-193.751"/>
</g>
<!-- strain_L1_shifted&#45;&gt;WAVE_FILE_GENERATOR_FOR_SHIFTED_DATA -->
<g id="edge47" class="edge"><title>strain_L1_shifted&#45;&gt;WAVE_FILE_GENERATOR_FOR_SHIFTED_DATA</title>
<path fill="none" stroke="black" d="M283,-221.697C283,-213.983 283,-204.712 283,-196.112"/>
<polygon fill="black" stroke="black" points="286.5,-196.104 283,-186.104 279.5,-196.104 286.5,-196.104"/>
</g>
<!-- shifted_wavefile_outflow -->
<g id="node48" class="node"><title>shifted_wavefile_outflow</title>
<ellipse fill="none" stroke="black" cx="855" cy="-31" rx="7" ry="7"/>
</g>
<!-- shifted_wavefile&#45;&gt;shifted_wavefile_outflow -->
<g id="edge59" class="edge"><title>shifted_wavefile&#45;&gt;shifted_wavefile_outflow</title>
<path fill="none" stroke="black" d="M419.726,-80.4695C447.47,-73.9569 481.294,-66.7004 512,-62 636.174,-42.992 787.621,-34.975 837.885,-32.713"/>
<polygon fill="black" stroke="black" points="838.117,-36.2064 847.956,-32.2773 837.814,-29.2129 838.117,-36.2064"/>
</g>
<!-- H1_ASD_SamplingRate_outflow -->
<g id="node49" class="node"><title>H1_ASD_SamplingRate_outflow</title>
<ellipse fill="none" stroke="black" cx="1143" cy="-31" rx="7" ry="7"/>
</g>
<!-- H1_ASD_SamplingRate&#45;&gt;H1_ASD_SamplingRate_outflow -->
<g id="edge60" class="edge"><title>H1_ASD_SamplingRate&#45;&gt;H1_ASD_SamplingRate_outflow</title>
<path fill="none" stroke="black" d="M970.215,-663.431C1036.03,-655.77 1120.88,-641.619 1146,-618 1175.85,-589.936 1170,-569.969 1170,-529 1170,-529 1170,-529 1170,-167 1170,-123.05 1156.07,-72.587 1148.22,-47.6422"/>
<polygon fill="black" stroke="black" points="1151.45,-46.2631 1145.03,-37.8378 1144.8,-48.4301 1151.45,-46.2631"/>
</g>
<!-- FN_Sampling_rate_inflow -->
<g id="node39" class="node"><title>FN_Sampling_rate_inflow</title>
<ellipse fill="none" stroke="black" cx="624" cy="-1025" rx="7" ry="7"/>
</g>
<!-- FN_Sampling_rate_inflow&#45;&gt;FN_Sampling_rate -->
<g id="edge50" class="edge"><title>FN_Sampling_rate_inflow&#45;&gt;FN_Sampling_rate</title>
<path fill="none" stroke="black" d="M624,-1017.73C624,-1010.79 624,-999.154 624,-988.215"/>
<polygon fill="black" stroke="black" points="627.5,-988.119 624,-978.119 620.5,-988.119 627.5,-988.119"/>
</g>
</g>
</svg>
