<?xml version="1.0" encoding="UTF-8" standalone="no"?>
<!DOCTYPE svg PUBLIC "-//W3C//DTD SVG 1.1//EN"
 "http://www.w3.org/Graphics/SVG/1.1/DTD/svg11.dtd">
<!-- Generated by graphviz version 2.38.0 (20140413.2041)
 -->
<!-- Title: yw_data_view Pages: 1 -->
<svg width="468pt" height="1131pt"
 viewBox="0.00 0.00 468.00 1131.20" xmlns="http://www.w3.org/2000/svg" xmlns:xlink="http://www.w3.org/1999/xlink">
<g id="graph0" class="graph" transform="scale(1 1) rotate(0) translate(4 1127.2)">
<title>yw_data_view</title>
<polygon fill="white" stroke="none" points="-4,4 -4,-1127.2 464,-1127.2 464,4 -4,4"/>
<text text-anchor="middle" x="230" y="-1103" font-family="Courier,monospace" font-size="18.00">GRAVITATIONAL_WAVE_DETECTION</text>
<g id="clust1" class="cluster"><title>cluster_workflow</title>
<polygon fill="none" stroke="black" stroke-width="2" points="8,-62 8,-1031.6 452,-1031.6 452,-62 8,-62"/>
</g>
<g id="clust2" class="cluster"><title>cluster_workflow_inner</title>
<polygon fill="none" stroke="white" stroke-width="2" points="16,-70 16,-1023.6 444,-1023.6 444,-70 16,-70"/>
</g>
<g id="clust3" class="cluster"><title>cluster_inflows</title>
<polygon fill="none" stroke="white" stroke-width="2" points="284,-1039.6 284,-1085.6 394,-1085.6 394,-1039.6 284,-1039.6"/>
</g>
<g id="clust4" class="cluster"><title>cluster_inflows_inner</title>
<polygon fill="none" stroke="white" stroke-width="2" points="292,-1047.6 292,-1077.6 386,-1077.6 386,-1047.6 292,-1047.6"/>
</g>
<g id="clust5" class="cluster"><title>cluster_outflows</title>
<polygon fill="none" stroke="white" stroke-width="2" points="206,-8 206,-54 252,-54 252,-8 206,-8"/>
</g>
<g id="clust6" class="cluster"><title>cluster_outflows_inner</title>
<polygon fill="none" stroke="white" stroke-width="2" points="214,-16 214,-46 244,-46 244,-16 214,-16"/>
</g>
<!-- SHIFT_FREQUENCY_BANDPASSED -->
<g id="node1" class="node"><title>SHIFT_FREQUENCY_BANDPASSED</title>
<polygon fill="#ccffcc" stroke="black" points="301.364,-354.2 66.6361,-354.2 66.6361,-318.2 301.364,-318.2 301.364,-354.2"/>
<text text-anchor="middle" x="184" y="-332" font-family="Courier,monospace" font-size="14.00">SHIFT_FREQUENCY_BANDPASSED</text>
</g>
<!-- strain_H1_shifted -->
<g id="node15" class="node"><title>strain_H1_shifted</title>
<path fill="#ffffcc" stroke="black" d="M184.413,-282.2C184.413,-282.2 83.587,-282.2 83.587,-282.2 77.587,-282.2 71.587,-276.2 71.587,-270.2 71.587,-270.2 71.587,-258.2 71.587,-258.2 71.587,-252.2 77.587,-246.2 83.587,-246.2 83.587,-246.2 184.413,-246.2 184.413,-246.2 190.413,-246.2 196.413,-252.2 196.413,-258.2 196.413,-258.2 196.413,-270.2 196.413,-270.2 196.413,-276.2 190.413,-282.2 184.413,-282.2"/>
<text text-anchor="middle" x="134" y="-260" font-family="Helvetica,sans-Serif" font-size="14.00">strain_H1_shifted</text>
</g>
<!-- SHIFT_FREQUENCY_BANDPASSED&#45;&gt;strain_H1_shifted -->
<g id="edge22" class="edge"><title>SHIFT_FREQUENCY_BANDPASSED&#45;&gt;strain_H1_shifted</title>
<path fill="none" stroke="black" d="M171.64,-317.897C165.767,-309.674 158.631,-299.683 152.158,-290.621"/>
<polygon fill="black" stroke="black" points="154.878,-288.407 146.217,-282.304 149.182,-292.476 154.878,-288.407"/>
</g>
<!-- strain_L1_shifted -->
<g id="node16" class="node"><title>strain_L1_shifted</title>
<path fill="#ffffcc" stroke="black" d="M325.09,-282.2C325.09,-282.2 226.91,-282.2 226.91,-282.2 220.91,-282.2 214.91,-276.2 214.91,-270.2 214.91,-270.2 214.91,-258.2 214.91,-258.2 214.91,-252.2 220.91,-246.2 226.91,-246.2 226.91,-246.2 325.09,-246.2 325.09,-246.2 331.09,-246.2 337.09,-252.2 337.09,-258.2 337.09,-258.2 337.09,-270.2 337.09,-270.2 337.09,-276.2 331.09,-282.2 325.09,-282.2"/>
<text text-anchor="middle" x="276" y="-260" font-family="Helvetica,sans-Serif" font-size="14.00">strain_L1_shifted</text>
</g>
<!-- SHIFT_FREQUENCY_BANDPASSED&#45;&gt;strain_L1_shifted -->
<g id="edge23" class="edge"><title>SHIFT_FREQUENCY_BANDPASSED&#45;&gt;strain_L1_shifted</title>
<path fill="none" stroke="black" d="M206.742,-317.897C218.44,-308.996 232.861,-298.023 245.51,-288.399"/>
<polygon fill="black" stroke="black" points="247.681,-291.145 253.52,-282.304 243.442,-285.574 247.681,-291.145"/>
</g>
<!-- BANDPASSING -->
<g id="node2" class="node"><title>BANDPASSING</title>
<polygon fill="#ccffcc" stroke="black" points="241.385,-498.2 132.615,-498.2 132.615,-462.2 241.385,-462.2 241.385,-498.2"/>
<text text-anchor="middle" x="187" y="-476" font-family="Courier,monospace" font-size="14.00">BANDPASSING</text>
</g>
<!-- strain_H1_whitenbp -->
<g id="node13" class="node"><title>strain_H1_whitenbp</title>
<path fill="#ffffcc" stroke="black" d="M174.695,-426.2C174.695,-426.2 59.3055,-426.2 59.3055,-426.2 53.3055,-426.2 47.3055,-420.2 47.3055,-414.2 47.3055,-414.2 47.3055,-402.2 47.3055,-402.2 47.3055,-396.2 53.3055,-390.2 59.3055,-390.2 59.3055,-390.2 174.695,-390.2 174.695,-390.2 180.695,-390.2 186.695,-396.2 186.695,-402.2 186.695,-402.2 186.695,-414.2 186.695,-414.2 186.695,-420.2 180.695,-426.2 174.695,-426.2"/>
<text text-anchor="middle" x="117" y="-404" font-family="Helvetica,sans-Serif" font-size="14.00">strain_H1_whitenbp</text>
</g>
<!-- BANDPASSING&#45;&gt;strain_H1_whitenbp -->
<g id="edge20" class="edge"><title>BANDPASSING&#45;&gt;strain_H1_whitenbp</title>
<path fill="none" stroke="black" d="M169.697,-461.897C161.135,-453.335 150.656,-442.856 141.304,-433.504"/>
<polygon fill="black" stroke="black" points="143.65,-430.901 134.104,-426.304 138.701,-435.85 143.65,-430.901"/>
</g>
<!-- strain_L1_whitenbp -->
<g id="node14" class="node"><title>strain_L1_whitenbp</title>
<path fill="#ffffcc" stroke="black" d="M330.871,-426.2C330.871,-426.2 217.129,-426.2 217.129,-426.2 211.129,-426.2 205.129,-420.2 205.129,-414.2 205.129,-414.2 205.129,-402.2 205.129,-402.2 205.129,-396.2 211.129,-390.2 217.129,-390.2 217.129,-390.2 330.871,-390.2 330.871,-390.2 336.871,-390.2 342.871,-396.2 342.871,-402.2 342.871,-402.2 342.871,-414.2 342.871,-414.2 342.871,-420.2 336.871,-426.2 330.871,-426.2"/>
<text text-anchor="middle" x="274" y="-404" font-family="Helvetica,sans-Serif" font-size="14.00">strain_L1_whitenbp</text>
</g>
<!-- BANDPASSING&#45;&gt;strain_L1_whitenbp -->
<g id="edge21" class="edge"><title>BANDPASSING&#45;&gt;strain_L1_whitenbp</title>
<path fill="none" stroke="black" d="M208.506,-461.897C219.463,-453.081 232.946,-442.232 244.825,-432.674"/>
<polygon fill="black" stroke="black" points="247.145,-435.3 252.742,-426.304 242.756,-429.846 247.145,-435.3"/>
</g>
<!-- WHITENING -->
<g id="node3" class="node"><title>WHITENING</title>
<polygon fill="#ccffcc" stroke="black" points="279.588,-642.2 188.412,-642.2 188.412,-606.2 279.588,-606.2 279.588,-642.2"/>
<text text-anchor="middle" x="234" y="-620" font-family="Courier,monospace" font-size="14.00">WHITENING</text>
</g>
<!-- strain_H1_whiten -->
<g id="node11" class="node"><title>strain_H1_whiten</title>
<path fill="#ffffcc" stroke="black" d="M202.129,-570.2C202.129,-570.2 101.871,-570.2 101.871,-570.2 95.8709,-570.2 89.8709,-564.2 89.8709,-558.2 89.8709,-558.2 89.8709,-546.2 89.8709,-546.2 89.8709,-540.2 95.8709,-534.2 101.871,-534.2 101.871,-534.2 202.129,-534.2 202.129,-534.2 208.129,-534.2 214.129,-540.2 214.129,-546.2 214.129,-546.2 214.129,-558.2 214.129,-558.2 214.129,-564.2 208.129,-570.2 202.129,-570.2"/>
<text text-anchor="middle" x="152" y="-548" font-family="Helvetica,sans-Serif" font-size="14.00">strain_H1_whiten</text>
</g>
<!-- WHITENING&#45;&gt;strain_H1_whiten -->
<g id="edge18" class="edge"><title>WHITENING&#45;&gt;strain_H1_whiten</title>
<path fill="none" stroke="black" d="M213.73,-605.897C203.502,-597.165 190.939,-586.44 179.822,-576.95"/>
<polygon fill="black" stroke="black" points="181.915,-574.135 172.037,-570.304 177.37,-579.459 181.915,-574.135"/>
</g>
<!-- strain_L1_whiten -->
<g id="node12" class="node"><title>strain_L1_whiten</title>
<path fill="#ffffcc" stroke="black" d="M341.805,-570.2C341.805,-570.2 244.195,-570.2 244.195,-570.2 238.195,-570.2 232.195,-564.2 232.195,-558.2 232.195,-558.2 232.195,-546.2 232.195,-546.2 232.195,-540.2 238.195,-534.2 244.195,-534.2 244.195,-534.2 341.805,-534.2 341.805,-534.2 347.805,-534.2 353.805,-540.2 353.805,-546.2 353.805,-546.2 353.805,-558.2 353.805,-558.2 353.805,-564.2 347.805,-570.2 341.805,-570.2"/>
<text text-anchor="middle" x="293" y="-548" font-family="Helvetica,sans-Serif" font-size="14.00">strain_L1_whiten</text>
</g>
<!-- WHITENING&#45;&gt;strain_L1_whiten -->
<g id="edge19" class="edge"><title>WHITENING&#45;&gt;strain_L1_whiten</title>
<path fill="none" stroke="black" d="M248.584,-605.897C255.658,-597.505 264.283,-587.27 272.045,-578.061"/>
<polygon fill="black" stroke="black" points="274.815,-580.206 278.583,-570.304 269.463,-575.695 274.815,-580.206"/>
</g>
<!-- AMPLITUDE_SPECTRAL_DENSITY -->
<g id="node4" class="node"><title>AMPLITUDE_SPECTRAL_DENSITY</title>
<polygon fill="#ccffcc" stroke="black" points="436.364,-786.2 201.636,-786.2 201.636,-750.2 436.364,-750.2 436.364,-786.2"/>
<text text-anchor="middle" x="319" y="-764" font-family="Courier,monospace" font-size="14.00">AMPLITUDE_SPECTRAL_DENSITY</text>
</g>
<!-- PSD_H1 -->
<g id="node9" class="node"><title>PSD_H1</title>
<path fill="#ffffcc" stroke="black" d="M256.453,-714.2C256.453,-714.2 209.547,-714.2 209.547,-714.2 203.547,-714.2 197.547,-708.2 197.547,-702.2 197.547,-702.2 197.547,-690.2 197.547,-690.2 197.547,-684.2 203.547,-678.2 209.547,-678.2 209.547,-678.2 256.453,-678.2 256.453,-678.2 262.453,-678.2 268.453,-684.2 268.453,-690.2 268.453,-690.2 268.453,-702.2 268.453,-702.2 268.453,-708.2 262.453,-714.2 256.453,-714.2"/>
<text text-anchor="middle" x="233" y="-692" font-family="Helvetica,sans-Serif" font-size="14.00">PSD_H1</text>
</g>
<!-- AMPLITUDE_SPECTRAL_DENSITY&#45;&gt;PSD_H1 -->
<g id="edge16" class="edge"><title>AMPLITUDE_SPECTRAL_DENSITY&#45;&gt;PSD_H1</title>
<path fill="none" stroke="black" d="M297.742,-749.897C286.911,-741.081 273.582,-730.232 261.84,-720.674"/>
<polygon fill="black" stroke="black" points="263.979,-717.903 254.014,-714.304 259.56,-723.332 263.979,-717.903"/>
</g>
<!-- PSD_L1 -->
<g id="node10" class="node"><title>PSD_L1</title>
<path fill="#ffffcc" stroke="black" d="M342.128,-714.2C342.128,-714.2 297.872,-714.2 297.872,-714.2 291.872,-714.2 285.872,-708.2 285.872,-702.2 285.872,-702.2 285.872,-690.2 285.872,-690.2 285.872,-684.2 291.872,-678.2 297.872,-678.2 297.872,-678.2 342.128,-678.2 342.128,-678.2 348.128,-678.2 354.128,-684.2 354.128,-690.2 354.128,-690.2 354.128,-702.2 354.128,-702.2 354.128,-708.2 348.128,-714.2 342.128,-714.2"/>
<text text-anchor="middle" x="320" y="-692" font-family="Helvetica,sans-Serif" font-size="14.00">PSD_L1</text>
</g>
<!-- AMPLITUDE_SPECTRAL_DENSITY&#45;&gt;PSD_L1 -->
<g id="edge17" class="edge"><title>AMPLITUDE_SPECTRAL_DENSITY&#45;&gt;PSD_L1</title>
<path fill="none" stroke="black" d="M319.247,-749.897C319.357,-742.183 319.49,-732.912 319.613,-724.312"/>
<polygon fill="black" stroke="black" points="323.112,-724.353 319.756,-714.304 316.113,-724.253 323.112,-724.353"/>
</g>
<!-- LOAD_DATA -->
<g id="node5" class="node"><title>LOAD_DATA</title>
<polygon fill="#ccffcc" stroke="black" points="319.588,-930.2 228.412,-930.2 228.412,-894.2 319.588,-894.2 319.588,-930.2"/>
<text text-anchor="middle" x="274" y="-908" font-family="Courier,monospace" font-size="14.00">LOAD_DATA</text>
</g>
<!-- strain_H1 -->
<g id="node7" class="node"><title>strain_H1</title>
<path fill="#ffffcc" stroke="black" d="M253.895,-858.2C253.895,-858.2 202.105,-858.2 202.105,-858.2 196.105,-858.2 190.105,-852.2 190.105,-846.2 190.105,-846.2 190.105,-834.2 190.105,-834.2 190.105,-828.2 196.105,-822.2 202.105,-822.2 202.105,-822.2 253.895,-822.2 253.895,-822.2 259.895,-822.2 265.895,-828.2 265.895,-834.2 265.895,-834.2 265.895,-846.2 265.895,-846.2 265.895,-852.2 259.895,-858.2 253.895,-858.2"/>
<text text-anchor="middle" x="228" y="-836" font-family="Helvetica,sans-Serif" font-size="14.00">strain_H1</text>
</g>
<!-- LOAD_DATA&#45;&gt;strain_H1 -->
<g id="edge14" class="edge"><title>LOAD_DATA&#45;&gt;strain_H1</title>
<path fill="none" stroke="black" d="M262.629,-893.897C257.282,-885.759 250.796,-875.889 244.889,-866.901"/>
<polygon fill="black" stroke="black" points="247.657,-864.739 239.24,-858.304 241.807,-868.584 247.657,-864.739"/>
</g>
<!-- strain_L1 -->
<g id="node8" class="node"><title>strain_L1</title>
<path fill="#ffffcc" stroke="black" d="M345.572,-858.2C345.572,-858.2 296.428,-858.2 296.428,-858.2 290.428,-858.2 284.428,-852.2 284.428,-846.2 284.428,-846.2 284.428,-834.2 284.428,-834.2 284.428,-828.2 290.428,-822.2 296.428,-822.2 296.428,-822.2 345.572,-822.2 345.572,-822.2 351.572,-822.2 357.572,-828.2 357.572,-834.2 357.572,-834.2 357.572,-846.2 357.572,-846.2 357.572,-852.2 351.572,-858.2 345.572,-858.2"/>
<text text-anchor="middle" x="321" y="-836" font-family="Helvetica,sans-Serif" font-size="14.00">strain_L1</text>
</g>
<!-- LOAD_DATA&#45;&gt;strain_L1 -->
<g id="edge15" class="edge"><title>LOAD_DATA&#45;&gt;strain_L1</title>
<path fill="none" stroke="black" d="M285.618,-893.897C291.139,-885.674 297.847,-875.683 303.932,-866.621"/>
<polygon fill="black" stroke="black" points="306.847,-868.558 309.516,-858.304 301.035,-864.656 306.847,-868.558"/>
</g>
<!-- WAVE_FILE_GENERATOR_FOR_SHIFTED_DATA -->
<g id="node6" class="node"><title>WAVE_FILE_GENERATOR_FOR_SHIFTED_DATA</title>
<polygon fill="#ccffcc" stroke="black" points="388.35,-210.2 69.6502,-210.2 69.6502,-174.2 388.35,-174.2 388.35,-210.2"/>
<text text-anchor="middle" x="229" y="-188" font-family="Courier,monospace" font-size="14.00">WAVE_FILE_GENERATOR_FOR_SHIFTED_DATA</text>
</g>
<!-- shifted_wavefile -->
<g id="node19" class="node"><title>shifted_wavefile</title>
<path fill="#ffe4b5" stroke="black" d="M165.511,-78.5C165.511,-78.5 292.489,-78.5 292.489,-78.5 298.489,-78.5 304.489,-84.5 304.489,-90.5 304.489,-90.5 304.489,-125.7 304.489,-125.7 304.489,-131.7 298.489,-137.7 292.489,-137.7 292.489,-137.7 165.511,-137.7 165.511,-137.7 159.511,-137.7 153.511,-131.7 153.511,-125.7 153.511,-125.7 153.511,-90.5 153.511,-90.5 153.511,-84.5 159.511,-78.5 165.511,-78.5"/>
<text text-anchor="middle" x="229" y="-125.6" font-family="Courier,monospace" font-weight="bold" font-size="9.00">[data40] shifted_wavefile</text>
<polyline fill="none" stroke="black" points="153.511,-118.9 304.489,-118.9 "/>
<text text-anchor="start" x="161.511" y="-106.8" font-family="Courier,monospace" font-weight="bold" font-size="9.00">GW150914_NR_shifted.wav</text>
<text text-anchor="start" x="161.511" y="-96" font-family="Courier,monospace" font-weight="bold" font-size="9.00">GW150914_L1_shifted.wav</text>
<text text-anchor="start" x="161.511" y="-85.2" font-family="Courier,monospace" font-weight="bold" font-size="9.00">GW150914_H1_shifted.wav</text>
</g>
<!-- WAVE_FILE_GENERATOR_FOR_SHIFTED_DATA&#45;&gt;shifted_wavefile -->
<g id="edge24" class="edge"><title>WAVE_FILE_GENERATOR_FOR_SHIFTED_DATA&#45;&gt;shifted_wavefile</title>
<path fill="none" stroke="black" d="M229,-174.189C229,-166.545 229,-157.184 229,-147.969"/>
<polygon fill="black" stroke="black" points="232.5,-147.728 229,-137.728 225.5,-147.728 232.5,-147.728"/>
</g>
<!-- strain_H1&#45;&gt;AMPLITUDE_SPECTRAL_DENSITY -->
<g id="edge3" class="edge"><title>strain_H1&#45;&gt;AMPLITUDE_SPECTRAL_DENSITY</title>
<path fill="none" stroke="black" d="M250.494,-821.897C261.955,-813.081 276.058,-802.232 288.484,-792.674"/>
<polygon fill="black" stroke="black" points="290.972,-795.176 296.764,-786.304 286.704,-789.627 290.972,-795.176"/>
</g>
<!-- strain_L1&#45;&gt;AMPLITUDE_SPECTRAL_DENSITY -->
<g id="edge5" class="edge"><title>strain_L1&#45;&gt;AMPLITUDE_SPECTRAL_DENSITY</title>
<path fill="none" stroke="black" d="M320.506,-821.897C320.285,-814.183 320.02,-804.912 319.775,-796.312"/>
<polygon fill="black" stroke="black" points="323.273,-796.2 319.489,-786.304 316.276,-796.4 323.273,-796.2"/>
</g>
<!-- PSD_H1&#45;&gt;WHITENING -->
<g id="edge13" class="edge"><title>PSD_H1&#45;&gt;WHITENING</title>
<path fill="none" stroke="black" d="M233.247,-677.897C233.357,-670.183 233.49,-660.912 233.613,-652.312"/>
<polygon fill="black" stroke="black" points="237.112,-652.353 233.756,-642.304 230.113,-652.253 237.112,-652.353"/>
</g>
<!-- PSD_L1&#45;&gt;WHITENING -->
<g id="edge1" class="edge"><title>PSD_L1&#45;&gt;WHITENING</title>
<path fill="none" stroke="black" d="M298.742,-677.897C287.911,-669.081 274.582,-658.232 262.84,-648.674"/>
<polygon fill="black" stroke="black" points="264.979,-645.903 255.014,-642.304 260.56,-651.332 264.979,-645.903"/>
</g>
<!-- strain_H1_whiten&#45;&gt;BANDPASSING -->
<g id="edge4" class="edge"><title>strain_H1_whiten&#45;&gt;BANDPASSING</title>
<path fill="none" stroke="black" d="M160.652,-533.897C164.636,-525.928 169.45,-516.3 173.868,-507.464"/>
<polygon fill="black" stroke="black" points="177.106,-508.814 178.448,-498.304 170.845,-505.683 177.106,-508.814"/>
</g>
<!-- strain_L1_whiten&#45;&gt;BANDPASSING -->
<g id="edge6" class="edge"><title>strain_L1_whiten&#45;&gt;BANDPASSING</title>
<path fill="none" stroke="black" d="M267.069,-534.076C253.338,-525.008 236.294,-513.752 221.464,-503.959"/>
<polygon fill="black" stroke="black" points="223.304,-500.98 213.03,-498.39 219.446,-506.821 223.304,-500.98"/>
</g>
<!-- strain_H1_whitenbp&#45;&gt;SHIFT_FREQUENCY_BANDPASSED -->
<g id="edge8" class="edge"><title>strain_H1_whitenbp&#45;&gt;SHIFT_FREQUENCY_BANDPASSED</title>
<path fill="none" stroke="black" d="M133.562,-389.897C141.675,-381.42 151.588,-371.064 160.471,-361.783"/>
<polygon fill="black" stroke="black" points="163.243,-363.949 167.629,-354.304 158.186,-359.108 163.243,-363.949"/>
</g>
<!-- strain_L1_whitenbp&#45;&gt;SHIFT_FREQUENCY_BANDPASSED -->
<g id="edge11" class="edge"><title>strain_L1_whitenbp&#45;&gt;SHIFT_FREQUENCY_BANDPASSED</title>
<path fill="none" stroke="black" d="M251.753,-389.897C240.418,-381.081 226.47,-370.232 214.181,-360.674"/>
<polygon fill="black" stroke="black" points="216.034,-357.681 205.991,-354.304 211.736,-363.207 216.034,-357.681"/>
</g>
<!-- strain_H1_shifted&#45;&gt;WAVE_FILE_GENERATOR_FOR_SHIFTED_DATA -->
<g id="edge7" class="edge"><title>strain_H1_shifted&#45;&gt;WAVE_FILE_GENERATOR_FOR_SHIFTED_DATA</title>
<path fill="none" stroke="black" d="M157.483,-245.897C169.563,-236.996 184.454,-226.023 197.516,-216.399"/>
<polygon fill="black" stroke="black" points="199.813,-219.054 205.787,-210.304 195.66,-213.419 199.813,-219.054"/>
</g>
<!-- strain_L1_shifted&#45;&gt;WAVE_FILE_GENERATOR_FOR_SHIFTED_DATA -->
<g id="edge9" class="edge"><title>strain_L1_shifted&#45;&gt;WAVE_FILE_GENERATOR_FOR_SHIFTED_DATA</title>
<path fill="none" stroke="black" d="M264.382,-245.897C258.861,-237.674 252.153,-227.683 246.068,-218.621"/>
<polygon fill="black" stroke="black" points="248.965,-216.656 240.484,-210.304 243.153,-220.558 248.965,-216.656"/>
</g>
<!-- FN_Detector -->
<g id="node17" class="node"><title>FN_Detector</title>
<path fill="#ffe4b5" stroke="black" d="M253.915,-966.7C253.915,-966.7 424.085,-966.7 424.085,-966.7 430.085,-966.7 436.085,-972.7 436.085,-978.7 436.085,-978.7 436.085,-1003.1 436.085,-1003.1 436.085,-1009.1 430.085,-1015.1 424.085,-1015.1 424.085,-1015.1 253.915,-1015.1 253.915,-1015.1 247.915,-1015.1 241.915,-1009.1 241.915,-1003.1 241.915,-1003.1 241.915,-978.7 241.915,-978.7 241.915,-972.7 247.915,-966.7 253.915,-966.7"/>
<text text-anchor="middle" x="339" y="-1003" font-family="Courier,monospace" font-weight="bold" font-size="9.00">[data14] FN_Detector</text>
<polyline fill="none" stroke="black" points="241.915,-996.3 436.085,-996.3 "/>
<text text-anchor="start" x="249.915" y="-984.2" font-family="Courier,monospace" font-weight="bold" font-size="9.00">L&#45;L1_LOSC_4_V1&#45;1126259446&#45;32.hdf5</text>
<text text-anchor="start" x="249.915" y="-973.4" font-family="Courier,monospace" font-weight="bold" font-size="9.00">H&#45;H1_LOSC_4_V1&#45;1126259446&#45;32.hdf5</text>
</g>
<!-- FN_Detector&#45;&gt;LOAD_DATA -->
<g id="edge10" class="edge"><title>FN_Detector&#45;&gt;LOAD_DATA</title>
<path fill="none" stroke="black" d="M319.145,-966.471C311.521,-957.475 302.799,-947.182 295.065,-938.057"/>
<polygon fill="black" stroke="black" points="297.713,-935.767 288.577,-930.401 292.372,-940.293 297.713,-935.767"/>
</g>
<!-- FN_Sampling_rate -->
<g id="node18" class="node"><title>FN_Sampling_rate</title>
<path fill="#ffe4b5" stroke="black" d="M36.2153,-966.7C36.2153,-966.7 211.785,-966.7 211.785,-966.7 217.785,-966.7 223.785,-972.7 223.785,-978.7 223.785,-978.7 223.785,-1003.1 223.785,-1003.1 223.785,-1009.1 217.785,-1015.1 211.785,-1015.1 211.785,-1015.1 36.2153,-1015.1 36.2153,-1015.1 30.2153,-1015.1 24.2153,-1009.1 24.2153,-1003.1 24.2153,-1003.1 24.2153,-978.7 24.2153,-978.7 24.2153,-972.7 30.2153,-966.7 36.2153,-966.7"/>
<text text-anchor="middle" x="124" y="-1003" font-family="Courier,monospace" font-weight="bold" font-size="9.00">[data15] FN_Sampling_rate</text>
<polyline fill="none" stroke="black" points="24.2153,-996.3 223.785,-996.3 "/>
<text text-anchor="start" x="32.2153" y="-984.2" font-family="Courier,monospace" font-weight="bold" font-size="9.00">H&#45;H1_LOSC_4_V1&#45;1126259446&#45;32.hdf5</text>
<text text-anchor="start" x="32.2153" y="-973.4" font-family="Courier,monospace" font-weight="bold" font-size="9.00">H&#45;H1_LOSC_16_V1&#45;1126259446&#45;32.hdf5</text>
</g>
<!-- FN_Sampling_rate&#45;&gt;LOAD_DATA -->
<g id="edge12" class="edge"><title>FN_Sampling_rate&#45;&gt;LOAD_DATA</title>
<path fill="none" stroke="black" d="M169.412,-966.679C189.213,-956.554 212.291,-944.754 231.723,-934.818"/>
<polygon fill="black" stroke="black" points="233.343,-937.92 240.653,-930.251 230.156,-931.688 233.343,-937.92"/>
</g>
<!-- shifted_wavefile_outflow -->
<g id="node24" class="node"><title>shifted_wavefile_outflow</title>
<ellipse fill="none" stroke="black" cx="229" cy="-31" rx="7" ry="7"/>
</g>
<!-- shifted_wavefile&#45;&gt;shifted_wavefile_outflow -->
<g id="edge28" class="edge"><title>shifted_wavefile&#45;&gt;shifted_wavefile_outflow</title>
<path fill="none" stroke="black" d="M229,-78.2792C229,-68.1552 229,-57.1351 229,-48.3889"/>
<polygon fill="black" stroke="black" points="232.5,-48.1696 229,-38.1697 225.5,-48.1697 232.5,-48.1696"/>
</g>
<!-- fs -->
<g id="node20" class="node"><title>fs</title>
<path fill="#ffffff" stroke="black" d="M422,-858.2C422,-858.2 392,-858.2 392,-858.2 386,-858.2 380,-852.2 380,-846.2 380,-846.2 380,-834.2 380,-834.2 380,-828.2 386,-822.2 392,-822.2 392,-822.2 422,-822.2 422,-822.2 428,-822.2 434,-828.2 434,-834.2 434,-834.2 434,-846.2 434,-846.2 434,-852.2 428,-858.2 422,-858.2"/>
<text text-anchor="middle" x="407" y="-837.5" font-family="Helvetica,sans-Serif" font-size="9.00">fs</text>
</g>
<!-- fs&#45;&gt;AMPLITUDE_SPECTRAL_DENSITY -->
<g id="edge2" class="edge"><title>fs&#45;&gt;AMPLITUDE_SPECTRAL_DENSITY</title>
<path fill="none" stroke="black" d="M385.247,-821.897C374.164,-813.081 360.526,-802.232 348.51,-792.674"/>
<polygon fill="black" stroke="black" points="350.507,-789.79 340.503,-786.304 346.15,-795.269 350.507,-789.79"/>
</g>
<!-- fs_inflow -->
<g id="node21" class="node"><title>fs_inflow</title>
<ellipse fill="none" stroke="black" cx="371" cy="-1062.6" rx="7" ry="7"/>
</g>
<!-- fs_inflow&#45;&gt;fs -->
<g id="edge25" class="edge"><title>fs_inflow&#45;&gt;fs</title>
<path fill="none" stroke="black" d="M378.313,-1061.18C393.784,-1059.86 429.665,-1054.36 445,-1031.6 479.259,-980.744 445.64,-906.02 423.313,-867.03"/>
<polygon fill="black" stroke="black" points="426.299,-865.204 418.201,-858.373 420.271,-868.763 426.299,-865.204"/>
</g>
<!-- FN_Detector_inflow -->
<g id="node22" class="node"><title>FN_Detector_inflow</title>
<ellipse fill="none" stroke="black" cx="339" cy="-1062.6" rx="7" ry="7"/>
</g>
<!-- FN_Detector_inflow&#45;&gt;FN_Detector -->
<g id="edge26" class="edge"><title>FN_Detector_inflow&#45;&gt;FN_Detector</title>
<path fill="none" stroke="black" d="M339,-1055.17C339,-1048.25 339,-1036.72 339,-1025.38"/>
<polygon fill="black" stroke="black" points="342.5,-1025.16 339,-1015.16 335.5,-1025.16 342.5,-1025.16"/>
</g>
<!-- FN_Sampling_rate_inflow -->
<g id="node23" class="node"><title>FN_Sampling_rate_inflow</title>
<ellipse fill="none" stroke="black" cx="307" cy="-1062.6" rx="7" ry="7"/>
</g>
<!-- FN_Sampling_rate_inflow&#45;&gt;FN_Sampling_rate -->
<g id="edge27" class="edge"><title>FN_Sampling_rate_inflow&#45;&gt;FN_Sampling_rate</title>
<path fill="none" stroke="black" d="M300.487,-1059.12C283.475,-1052.64 236.156,-1034.62 194.794,-1018.86"/>
<polygon fill="black" stroke="black" points="195.845,-1015.52 185.254,-1015.23 193.354,-1022.06 195.845,-1015.52"/>
</g>
</g>
</svg>
