<?xml version="1.0" encoding="UTF-8" standalone="no"?>
<!DOCTYPE svg PUBLIC "-//W3C//DTD SVG 1.1//EN"
 "http://www.w3.org/Graphics/SVG/1.1/DTD/svg11.dtd">
<!-- Generated by graphviz version 2.38.0 (20140413.2041)
 -->
<!-- Title: yw_data_view Pages: 1 -->
<svg width="1182pt" height="1196pt"
 viewBox="0.00 0.00 1182.00 1195.60" xmlns="http://www.w3.org/2000/svg" xmlns:xlink="http://www.w3.org/1999/xlink">
<g id="graph0" class="graph" transform="scale(1 1) rotate(0) translate(4 1191.6)">
<title>yw_data_view</title>
<polygon fill="white" stroke="none" points="-4,4 -4,-1191.6 1178,-1191.6 1178,4 -4,4"/>
<text text-anchor="middle" x="587" y="-1167.4" font-family="Courier,monospace" font-size="18.00">GRAVITATIONAL_WAVE_DETECTION</text>
<g id="clust1" class="cluster"><title>cluster_workflow</title>
<polygon fill="none" stroke="black" stroke-width="2" points="8,-62 8,-1096 930,-1096 930,-62 8,-62"/>
</g>
<g id="clust2" class="cluster"><title>cluster_workflow_inner</title>
<polygon fill="none" stroke="white" stroke-width="2" points="16,-70 16,-1088 922,-1088 922,-70 16,-70"/>
</g>
<g id="clust3" class="cluster"><title>cluster_inflows</title>
<polygon fill="none" stroke="white" stroke-width="2" points="314,-1104 314,-1150 424,-1150 424,-1104 314,-1104"/>
</g>
<g id="clust4" class="cluster"><title>cluster_inflows_inner</title>
<polygon fill="none" stroke="white" stroke-width="2" points="322,-1112 322,-1142 416,-1142 416,-1112 322,-1112"/>
</g>
<g id="clust5" class="cluster"><title>cluster_outflows</title>
<polygon fill="none" stroke="white" stroke-width="2" points="832,-8 832,-54 1166,-54 1166,-8 832,-8"/>
</g>
<g id="clust6" class="cluster"><title>cluster_outflows_inner</title>
<polygon fill="none" stroke="white" stroke-width="2" points="840,-16 840,-46 1158,-46 1158,-16 840,-16"/>
</g>
<!-- LOAD_DATA -->
<g id="node1" class="node"><title>LOAD_DATA</title>
<polygon fill="#ccffcc" stroke="black" points="396.588,-994.6 305.412,-994.6 305.412,-958.6 396.588,-958.6 396.588,-994.6"/>
<text text-anchor="middle" x="351" y="-972.4" font-family="Courier,monospace" font-size="14.00">LOAD_DATA</text>
</g>
<!-- strain_H1 -->
<g id="node17" class="node"><title>strain_H1</title>
<path fill="#ffffcc" stroke="black" d="M356.006,-922.6C356.006,-922.6 325.994,-922.6 325.994,-922.6 319.994,-922.6 313.994,-916.6 313.994,-910.6 313.994,-910.6 313.994,-898.6 313.994,-898.6 313.994,-892.6 319.994,-886.6 325.994,-886.6 325.994,-886.6 356.006,-886.6 356.006,-886.6 362.006,-886.6 368.006,-892.6 368.006,-898.6 368.006,-898.6 368.006,-910.6 368.006,-910.6 368.006,-916.6 362.006,-922.6 356.006,-922.6"/>
<text text-anchor="middle" x="341" y="-901.9" font-family="Helvetica,sans-Serif" font-size="9.00">strain_H1</text>
</g>
<!-- LOAD_DATA&#45;&gt;strain_H1 -->
<g id="edge32" class="edge"><title>LOAD_DATA&#45;&gt;strain_H1</title>
<path fill="none" stroke="black" d="M348.528,-958.297C347.426,-950.583 346.102,-941.312 344.873,-932.712"/>
<polygon fill="black" stroke="black" points="348.323,-932.109 343.443,-922.704 341.393,-933.099 348.323,-932.109"/>
</g>
<!-- strain_L1 -->
<g id="node18" class="node"><title>strain_L1</title>
<path fill="#ffffcc" stroke="black" d="M247,-922.6C247,-922.6 217,-922.6 217,-922.6 211,-922.6 205,-916.6 205,-910.6 205,-910.6 205,-898.6 205,-898.6 205,-892.6 211,-886.6 217,-886.6 217,-886.6 247,-886.6 247,-886.6 253,-886.6 259,-892.6 259,-898.6 259,-898.6 259,-910.6 259,-910.6 259,-916.6 253,-922.6 247,-922.6"/>
<text text-anchor="middle" x="232" y="-901.9" font-family="Helvetica,sans-Serif" font-size="9.00">strain_L1</text>
</g>
<!-- LOAD_DATA&#45;&gt;strain_L1 -->
<g id="edge33" class="edge"><title>LOAD_DATA&#45;&gt;strain_L1</title>
<path fill="none" stroke="black" d="M321.889,-958.476C305.6,-948.894 285.157,-936.869 267.884,-926.708"/>
<polygon fill="black" stroke="black" points="269.573,-923.641 259.179,-921.587 266.023,-929.674 269.573,-923.641"/>
</g>
<!-- strain_16 -->
<g id="node19" class="node"><title>strain_16</title>
<path fill="#ffffcc" stroke="black" d="M812,-922.6C812,-922.6 782,-922.6 782,-922.6 776,-922.6 770,-916.6 770,-910.6 770,-910.6 770,-898.6 770,-898.6 770,-892.6 776,-886.6 782,-886.6 782,-886.6 812,-886.6 812,-886.6 818,-886.6 824,-892.6 824,-898.6 824,-898.6 824,-910.6 824,-910.6 824,-916.6 818,-922.6 812,-922.6"/>
<text text-anchor="middle" x="797" y="-901.9" font-family="Helvetica,sans-Serif" font-size="9.00">strain_16</text>
</g>
<!-- LOAD_DATA&#45;&gt;strain_16 -->
<g id="edge34" class="edge"><title>LOAD_DATA&#45;&gt;strain_16</title>
<path fill="none" stroke="black" d="M396.743,-969.426C464.752,-960.107 596.495,-941.518 708,-922.6 725.048,-919.708 743.865,-916.165 759.788,-913.063"/>
<polygon fill="black" stroke="black" points="760.648,-916.462 769.786,-911.1 759.299,-909.593 760.648,-916.462"/>
</g>
<!-- strain_4 -->
<g id="node20" class="node"><title>strain_4</title>
<path fill="#ffffcc" stroke="black" d="M687,-922.6C687,-922.6 657,-922.6 657,-922.6 651,-922.6 645,-916.6 645,-910.6 645,-910.6 645,-898.6 645,-898.6 645,-892.6 651,-886.6 657,-886.6 657,-886.6 687,-886.6 687,-886.6 693,-886.6 699,-892.6 699,-898.6 699,-898.6 699,-910.6 699,-910.6 699,-916.6 693,-922.6 687,-922.6"/>
<text text-anchor="middle" x="672" y="-901.9" font-family="Helvetica,sans-Serif" font-size="9.00">strain_4</text>
</g>
<!-- LOAD_DATA&#45;&gt;strain_4 -->
<g id="edge35" class="edge"><title>LOAD_DATA&#45;&gt;strain_4</title>
<path fill="none" stroke="black" d="M396.651,-965.645C460.659,-951.687 575.844,-926.568 634.89,-913.692"/>
<polygon fill="black" stroke="black" points="635.871,-917.061 644.895,-911.511 634.379,-910.222 635.871,-917.061"/>
</g>
<!-- AMPLITUDE_SPECTRAL_DENSITY -->
<g id="node2" class="node"><title>AMPLITUDE_SPECTRAL_DENSITY</title>
<polygon fill="#ccffcc" stroke="black" points="303.364,-850.6 68.6361,-850.6 68.6361,-814.6 303.364,-814.6 303.364,-850.6"/>
<text text-anchor="middle" x="186" y="-828.4" font-family="Courier,monospace" font-size="14.00">AMPLITUDE_SPECTRAL_DENSITY</text>
</g>
<!-- PSD_H1 -->
<g id="node21" class="node"><title>PSD_H1</title>
<path fill="#ffffcc" stroke="black" d="M183,-766.5C183,-766.5 153,-766.5 153,-766.5 147,-766.5 141,-760.5 141,-754.5 141,-754.5 141,-742.5 141,-742.5 141,-736.5 147,-730.5 153,-730.5 153,-730.5 183,-730.5 183,-730.5 189,-730.5 195,-736.5 195,-742.5 195,-742.5 195,-754.5 195,-754.5 195,-760.5 189,-766.5 183,-766.5"/>
<text text-anchor="middle" x="168" y="-745.8" font-family="Helvetica,sans-Serif" font-size="9.00">PSD_H1</text>
</g>
<!-- AMPLITUDE_SPECTRAL_DENSITY&#45;&gt;PSD_H1 -->
<g id="edge36" class="edge"><title>AMPLITUDE_SPECTRAL_DENSITY&#45;&gt;PSD_H1</title>
<path fill="none" stroke="black" d="M182.27,-814.589C179.873,-803.654 176.705,-789.206 173.963,-776.7"/>
<polygon fill="black" stroke="black" points="177.347,-775.79 171.787,-766.772 170.51,-777.289 177.347,-775.79"/>
</g>
<!-- PSD_L1 -->
<g id="node22" class="node"><title>PSD_L1</title>
<path fill="#ffffcc" stroke="black" d="M111,-766.5C111,-766.5 81,-766.5 81,-766.5 75,-766.5 69,-760.5 69,-754.5 69,-754.5 69,-742.5 69,-742.5 69,-736.5 75,-730.5 81,-730.5 81,-730.5 111,-730.5 111,-730.5 117,-730.5 123,-736.5 123,-742.5 123,-742.5 123,-754.5 123,-754.5 123,-760.5 117,-766.5 111,-766.5"/>
<text text-anchor="middle" x="96" y="-745.8" font-family="Helvetica,sans-Serif" font-size="9.00">PSD_L1</text>
</g>
<!-- AMPLITUDE_SPECTRAL_DENSITY&#45;&gt;PSD_L1 -->
<g id="edge37" class="edge"><title>AMPLITUDE_SPECTRAL_DENSITY&#45;&gt;PSD_L1</title>
<path fill="none" stroke="black" d="M167.352,-814.589C154.406,-802.779 136.968,-786.871 122.571,-773.739"/>
<polygon fill="black" stroke="black" points="124.681,-770.925 114.934,-766.772 119.963,-776.097 124.681,-770.925"/>
</g>
<!-- ASDs -->
<g id="node32" class="node"><title>ASDs</title>
<path fill="#ffe4b5" stroke="black" d="M225.108,-729.7C225.108,-729.7 308.892,-729.7 308.892,-729.7 314.892,-729.7 320.892,-735.7 320.892,-741.7 320.892,-741.7 320.892,-755.3 320.892,-755.3 320.892,-761.3 314.892,-767.3 308.892,-767.3 308.892,-767.3 225.108,-767.3 225.108,-767.3 219.108,-767.3 213.108,-761.3 213.108,-755.3 213.108,-755.3 213.108,-741.7 213.108,-741.7 213.108,-735.7 219.108,-729.7 225.108,-729.7"/>
<text text-anchor="middle" x="267" y="-755.2" font-family="Courier,monospace" font-weight="bold" font-size="9.00">[data23] ASDs</text>
<polyline fill="none" stroke="black" points="213.108,-748.5 320.892,-748.5 "/>
<text text-anchor="start" x="221.108" y="-736.4" font-family="Courier,monospace" font-weight="bold" font-size="9.00">GW150914_ASDs.png</text>
</g>
<!-- AMPLITUDE_SPECTRAL_DENSITY&#45;&gt;ASDs -->
<g id="edge38" class="edge"><title>AMPLITUDE_SPECTRAL_DENSITY&#45;&gt;ASDs</title>
<path fill="none" stroke="black" d="M202.783,-814.589C214.172,-803.046 229.423,-787.587 242.205,-774.632"/>
<polygon fill="black" stroke="black" points="244.866,-776.918 249.398,-767.341 239.883,-772.002 244.866,-776.918"/>
</g>
<!-- WHITENING -->
<g id="node3" class="node"><title>WHITENING</title>
<polygon fill="#ccffcc" stroke="black" points="213.588,-682.4 122.412,-682.4 122.412,-646.4 213.588,-646.4 213.588,-682.4"/>
<text text-anchor="middle" x="168" y="-660.2" font-family="Courier,monospace" font-size="14.00">WHITENING</text>
</g>
<!-- strain_H1_whiten -->
<g id="node23" class="node"><title>strain_H1_whiten</title>
<path fill="#ffffcc" stroke="black" d="M197.513,-609.1C197.513,-609.1 136.487,-609.1 136.487,-609.1 130.487,-609.1 124.487,-603.1 124.487,-597.1 124.487,-597.1 124.487,-585.1 124.487,-585.1 124.487,-579.1 130.487,-573.1 136.487,-573.1 136.487,-573.1 197.513,-573.1 197.513,-573.1 203.513,-573.1 209.513,-579.1 209.513,-585.1 209.513,-585.1 209.513,-597.1 209.513,-597.1 209.513,-603.1 203.513,-609.1 197.513,-609.1"/>
<text text-anchor="middle" x="167" y="-588.4" font-family="Helvetica,sans-Serif" font-size="9.00">strain_H1_whiten</text>
</g>
<!-- WHITENING&#45;&gt;strain_H1_whiten -->
<g id="edge39" class="edge"><title>WHITENING&#45;&gt;strain_H1_whiten</title>
<path fill="none" stroke="black" d="M167.758,-646.14C167.645,-638.083 167.508,-628.3 167.381,-619.284"/>
<polygon fill="black" stroke="black" points="170.88,-619.151 167.24,-609.201 163.881,-619.249 170.88,-619.151"/>
</g>
<!-- strain_L1_whiten -->
<g id="node24" class="node"><title>strain_L1_whiten</title>
<path fill="#ffffcc" stroke="black" d="M300.018,-609.1C300.018,-609.1 239.982,-609.1 239.982,-609.1 233.982,-609.1 227.982,-603.1 227.982,-597.1 227.982,-597.1 227.982,-585.1 227.982,-585.1 227.982,-579.1 233.982,-573.1 239.982,-573.1 239.982,-573.1 300.018,-573.1 300.018,-573.1 306.018,-573.1 312.018,-579.1 312.018,-585.1 312.018,-585.1 312.018,-597.1 312.018,-597.1 312.018,-603.1 306.018,-609.1 300.018,-609.1"/>
<text text-anchor="middle" x="270" y="-588.4" font-family="Helvetica,sans-Serif" font-size="9.00">strain_L1_whiten</text>
</g>
<!-- WHITENING&#45;&gt;strain_L1_whiten -->
<g id="edge40" class="edge"><title>WHITENING&#45;&gt;strain_L1_whiten</title>
<path fill="none" stroke="black" d="M192.432,-646.322C205.832,-636.954 222.629,-625.213 237.162,-615.055"/>
<polygon fill="black" stroke="black" points="239.223,-617.884 245.414,-609.286 235.213,-612.147 239.223,-617.884"/>
</g>
<!-- BANDPASSING -->
<g id="node4" class="node"><title>BANDPASSING</title>
<polygon fill="#ccffcc" stroke="black" points="221.385,-535.8 112.615,-535.8 112.615,-499.8 221.385,-499.8 221.385,-535.8"/>
<text text-anchor="middle" x="167" y="-513.6" font-family="Courier,monospace" font-size="14.00">BANDPASSING</text>
</g>
<!-- strain_H1_whitenbp -->
<g id="node25" class="node"><title>strain_H1_whitenbp</title>
<path fill="#ffffcc" stroke="black" d="M147.519,-457.1C147.519,-457.1 76.4811,-457.1 76.4811,-457.1 70.4811,-457.1 64.4811,-451.1 64.4811,-445.1 64.4811,-445.1 64.4811,-433.1 64.4811,-433.1 64.4811,-427.1 70.4811,-421.1 76.4811,-421.1 76.4811,-421.1 147.519,-421.1 147.519,-421.1 153.519,-421.1 159.519,-427.1 159.519,-433.1 159.519,-433.1 159.519,-445.1 159.519,-445.1 159.519,-451.1 153.519,-457.1 147.519,-457.1"/>
<text text-anchor="middle" x="112" y="-436.4" font-family="Helvetica,sans-Serif" font-size="9.00">strain_H1_whitenbp</text>
</g>
<!-- BANDPASSING&#45;&gt;strain_H1_whitenbp -->
<g id="edge41" class="edge"><title>BANDPASSING&#45;&gt;strain_H1_whitenbp</title>
<path fill="none" stroke="black" d="M154.794,-499.778C147.581,-489.719 138.31,-476.791 130.243,-465.541"/>
<polygon fill="black" stroke="black" points="133.034,-463.427 124.362,-457.34 127.345,-467.506 133.034,-463.427"/>
</g>
<!-- strain_L1_whitenbp -->
<g id="node26" class="node"><title>strain_L1_whitenbp</title>
<path fill="#ffffcc" stroke="black" d="M260.024,-457.1C260.024,-457.1 189.976,-457.1 189.976,-457.1 183.976,-457.1 177.976,-451.1 177.976,-445.1 177.976,-445.1 177.976,-433.1 177.976,-433.1 177.976,-427.1 183.976,-421.1 189.976,-421.1 189.976,-421.1 260.024,-421.1 260.024,-421.1 266.024,-421.1 272.024,-427.1 272.024,-433.1 272.024,-433.1 272.024,-445.1 272.024,-445.1 272.024,-451.1 266.024,-457.1 260.024,-457.1"/>
<text text-anchor="middle" x="225" y="-436.4" font-family="Helvetica,sans-Serif" font-size="9.00">strain_L1_whitenbp</text>
</g>
<!-- BANDPASSING&#45;&gt;strain_L1_whitenbp -->
<g id="edge42" class="edge"><title>BANDPASSING&#45;&gt;strain_L1_whitenbp</title>
<path fill="none" stroke="black" d="M179.872,-499.778C187.478,-489.719 197.254,-476.791 205.762,-465.541"/>
<polygon fill="black" stroke="black" points="208.723,-467.427 211.963,-457.34 203.14,-463.205 208.723,-467.427"/>
</g>
<!-- STRAIN_WAVEFORM_FOR_WHITENED_DATA -->
<g id="node5" class="node"><title>STRAIN_WAVEFORM_FOR_WHITENED_DATA</title>
<polygon fill="#ccffcc" stroke="black" points="569.654,-378.4 276.346,-378.4 276.346,-342.4 569.654,-342.4 569.654,-378.4"/>
<text text-anchor="middle" x="423" y="-356.2" font-family="Courier,monospace" font-size="14.00">STRAIN_WAVEFORM_FOR_WHITENED_DATA</text>
</g>
<!-- WHITENED_strain_data -->
<g id="node33" class="node"><title>WHITENED_strain_data</title>
<path fill="#ffe4b5" stroke="black" d="M424.713,-257.5C424.713,-257.5 573.287,-257.5 573.287,-257.5 579.287,-257.5 585.287,-263.5 585.287,-269.5 585.287,-269.5 585.287,-283.1 585.287,-283.1 585.287,-289.1 579.287,-295.1 573.287,-295.1 573.287,-295.1 424.713,-295.1 424.713,-295.1 418.713,-295.1 412.713,-289.1 412.713,-283.1 412.713,-283.1 412.713,-269.5 412.713,-269.5 412.713,-263.5 418.713,-257.5 424.713,-257.5"/>
<text text-anchor="middle" x="499" y="-283" font-family="Courier,monospace" font-weight="bold" font-size="9.00">[data28] WHITENED_strain_data</text>
<polyline fill="none" stroke="black" points="412.713,-276.3 585.287,-276.3 "/>
<text text-anchor="start" x="420.713" y="-264.2" font-family="Courier,monospace" font-weight="bold" font-size="9.00">GW150914_strain_whitened.png</text>
</g>
<!-- STRAIN_WAVEFORM_FOR_WHITENED_DATA&#45;&gt;WHITENED_strain_data -->
<g id="edge43" class="edge"><title>STRAIN_WAVEFORM_FOR_WHITENED_DATA&#45;&gt;WHITENED_strain_data</title>
<path fill="none" stroke="black" d="M438.747,-342.389C449.333,-330.954 463.476,-315.676 475.399,-302.795"/>
<polygon fill="black" stroke="black" points="478.259,-304.857 482.484,-295.141 473.123,-300.102 478.259,-304.857"/>
</g>
<!-- SPECTROGRAMS_FOR_STRAIN_DATA -->
<g id="node6" class="node"><title>SPECTROGRAMS_FOR_STRAIN_DATA</title>
<polygon fill="#ccffcc" stroke="black" points="592.661,-850.6 341.339,-850.6 341.339,-814.6 592.661,-814.6 592.661,-850.6"/>
<text text-anchor="middle" x="467" y="-828.4" font-family="Courier,monospace" font-size="14.00">SPECTROGRAMS_FOR_STRAIN_DATA</text>
</g>
<!-- spectrogram -->
<g id="node34" class="node"><title>spectrogram</title>
<path fill="#ffe4b5" stroke="black" d="M468.112,-724.3C468.112,-724.3 605.888,-724.3 605.888,-724.3 611.888,-724.3 617.888,-730.3 617.888,-736.3 617.888,-736.3 617.888,-760.7 617.888,-760.7 617.888,-766.7 611.888,-772.7 605.888,-772.7 605.888,-772.7 468.112,-772.7 468.112,-772.7 462.112,-772.7 456.112,-766.7 456.112,-760.7 456.112,-760.7 456.112,-736.3 456.112,-736.3 456.112,-730.3 462.112,-724.3 468.112,-724.3"/>
<text text-anchor="middle" x="537" y="-760.6" font-family="Courier,monospace" font-weight="bold" font-size="9.00">[data29] spectrogram</text>
<polyline fill="none" stroke="black" points="456.112,-753.9 617.888,-753.9 "/>
<text text-anchor="start" x="464.112" y="-741.8" font-family="Courier,monospace" font-weight="bold" font-size="9.00">GW150914_L1_spectrogram.png</text>
<text text-anchor="start" x="464.112" y="-731" font-family="Courier,monospace" font-weight="bold" font-size="9.00">GW150914_H1_spectrogram.png</text>
</g>
<!-- SPECTROGRAMS_FOR_STRAIN_DATA&#45;&gt;spectrogram -->
<g id="edge44" class="edge"><title>SPECTROGRAMS_FOR_STRAIN_DATA&#45;&gt;spectrogram</title>
<path fill="none" stroke="black" d="M481.504,-814.589C489.899,-804.743 500.722,-792.049 510.578,-780.489"/>
<polygon fill="black" stroke="black" points="513.381,-782.597 517.205,-772.716 508.054,-778.055 513.381,-782.597"/>
</g>
<!-- SPECTROGRAMS_FOR_WHITEND_DATA -->
<g id="node7" class="node"><title>SPECTROGRAMS_FOR_WHITEND_DATA</title>
<polygon fill="#ccffcc" stroke="black" points="498.56,-535.8 239.44,-535.8 239.44,-499.8 498.56,-499.8 498.56,-535.8"/>
<text text-anchor="middle" x="369" y="-513.6" font-family="Courier,monospace" font-size="14.00">SPECTROGRAMS_FOR_WHITEND_DATA</text>
</g>
<!-- spectrogram_whitened -->
<g id="node35" class="node"><title>spectrogram_whitened</title>
<path fill="#ffe4b5" stroke="black" d="M301.816,-414.9C301.816,-414.9 488.184,-414.9 488.184,-414.9 494.184,-414.9 500.184,-420.9 500.184,-426.9 500.184,-426.9 500.184,-451.3 500.184,-451.3 500.184,-457.3 494.184,-463.3 488.184,-463.3 488.184,-463.3 301.816,-463.3 301.816,-463.3 295.816,-463.3 289.816,-457.3 289.816,-451.3 289.816,-451.3 289.816,-426.9 289.816,-426.9 289.816,-420.9 295.816,-414.9 301.816,-414.9"/>
<text text-anchor="middle" x="395" y="-451.2" font-family="Courier,monospace" font-weight="bold" font-size="9.00">[data30] spectrogram_whitened</text>
<polyline fill="none" stroke="black" points="289.816,-444.5 500.184,-444.5 "/>
<text text-anchor="start" x="297.816" y="-432.4" font-family="Courier,monospace" font-weight="bold" font-size="9.00">GW150914_L1_spectrogram_whitened.png</text>
<text text-anchor="start" x="297.816" y="-421.6" font-family="Courier,monospace" font-weight="bold" font-size="9.00">GW150914_H1_spectrogram_whitened.png</text>
</g>
<!-- SPECTROGRAMS_FOR_WHITEND_DATA&#45;&gt;spectrogram_whitened -->
<g id="edge45" class="edge"><title>SPECTROGRAMS_FOR_WHITEND_DATA&#45;&gt;spectrogram_whitened</title>
<path fill="none" stroke="black" d="M374.77,-499.778C377.429,-491.934 380.679,-482.346 383.79,-473.169"/>
<polygon fill="black" stroke="black" points="387.181,-474.068 387.077,-463.474 380.551,-471.821 387.181,-474.068"/>
</g>
<!-- FILTER_COEFS -->
<g id="node8" class="node"><title>FILTER_COEFS</title>
<polygon fill="#ccffcc" stroke="black" points="747.283,-850.6 630.717,-850.6 630.717,-814.6 747.283,-814.6 747.283,-850.6"/>
<text text-anchor="middle" x="689" y="-828.4" font-family="Courier,monospace" font-size="14.00">FILTER_COEFS</text>
</g>
<!-- COEFFICIENTS -->
<g id="node27" class="node"><title>COEFFICIENTS</title>
<path fill="#ffffcc" stroke="black" d="M705.995,-766.5C705.995,-766.5 648.005,-766.5 648.005,-766.5 642.005,-766.5 636.005,-760.5 636.005,-754.5 636.005,-754.5 636.005,-742.5 636.005,-742.5 636.005,-736.5 642.005,-730.5 648.005,-730.5 648.005,-730.5 705.995,-730.5 705.995,-730.5 711.995,-730.5 717.995,-736.5 717.995,-742.5 717.995,-742.5 717.995,-754.5 717.995,-754.5 717.995,-760.5 711.995,-766.5 705.995,-766.5"/>
<text text-anchor="middle" x="677" y="-745.8" font-family="Helvetica,sans-Serif" font-size="9.00">COEFFICIENTS</text>
</g>
<!-- FILTER_COEFS&#45;&gt;COEFFICIENTS -->
<g id="edge46" class="edge"><title>FILTER_COEFS&#45;&gt;COEFFICIENTS</title>
<path fill="none" stroke="black" d="M686.514,-814.589C684.915,-803.654 682.804,-789.206 680.976,-776.7"/>
<polygon fill="black" stroke="black" points="684.434,-776.16 679.525,-766.772 677.508,-777.173 684.434,-776.16"/>
</g>
<!-- FILTER_DATA -->
<g id="node9" class="node"><title>FILTER_DATA</title>
<polygon fill="#ccffcc" stroke="black" points="674.385,-682.4 565.615,-682.4 565.615,-646.4 674.385,-646.4 674.385,-682.4"/>
<text text-anchor="middle" x="620" y="-660.2" font-family="Courier,monospace" font-size="14.00">FILTER_DATA</text>
</g>
<!-- strain_H1_filt -->
<g id="node28" class="node"><title>strain_H1_filt</title>
<path fill="#ffffcc" stroke="black" d="M599.005,-609.1C599.005,-609.1 554.995,-609.1 554.995,-609.1 548.995,-609.1 542.995,-603.1 542.995,-597.1 542.995,-597.1 542.995,-585.1 542.995,-585.1 542.995,-579.1 548.995,-573.1 554.995,-573.1 554.995,-573.1 599.005,-573.1 599.005,-573.1 605.005,-573.1 611.005,-579.1 611.005,-585.1 611.005,-585.1 611.005,-597.1 611.005,-597.1 611.005,-603.1 605.005,-609.1 599.005,-609.1"/>
<text text-anchor="middle" x="577" y="-588.4" font-family="Helvetica,sans-Serif" font-size="9.00">strain_H1_filt</text>
</g>
<!-- FILTER_DATA&#45;&gt;strain_H1_filt -->
<g id="edge47" class="edge"><title>FILTER_DATA&#45;&gt;strain_H1_filt</title>
<path fill="none" stroke="black" d="M609.591,-646.14C604.468,-637.645 598.187,-627.231 592.512,-617.821"/>
<polygon fill="black" stroke="black" points="595.475,-615.957 587.313,-609.201 589.481,-619.572 595.475,-615.957"/>
</g>
<!-- strain_L1_filt -->
<g id="node29" class="node"><title>strain_L1_filt</title>
<path fill="#ffffcc" stroke="black" d="M684.509,-609.1C684.509,-609.1 641.491,-609.1 641.491,-609.1 635.491,-609.1 629.491,-603.1 629.491,-597.1 629.491,-597.1 629.491,-585.1 629.491,-585.1 629.491,-579.1 635.491,-573.1 641.491,-573.1 641.491,-573.1 684.509,-573.1 684.509,-573.1 690.509,-573.1 696.509,-579.1 696.509,-585.1 696.509,-585.1 696.509,-597.1 696.509,-597.1 696.509,-603.1 690.509,-609.1 684.509,-609.1"/>
<text text-anchor="middle" x="663" y="-588.4" font-family="Helvetica,sans-Serif" font-size="9.00">strain_L1_filt</text>
</g>
<!-- FILTER_DATA&#45;&gt;strain_L1_filt -->
<g id="edge48" class="edge"><title>FILTER_DATA&#45;&gt;strain_L1_filt</title>
<path fill="none" stroke="black" d="M630.409,-646.14C635.532,-637.645 641.813,-627.231 647.488,-617.821"/>
<polygon fill="black" stroke="black" points="650.519,-619.572 652.687,-609.201 644.525,-615.957 650.519,-619.572"/>
</g>
<!-- filtered_white_noise_data -->
<g id="node36" class="node"><title>filtered_white_noise_data</title>
<path fill="#ffe4b5" stroke="black" d="M726.215,-572.3C726.215,-572.3 901.785,-572.3 901.785,-572.3 907.785,-572.3 913.785,-578.3 913.785,-584.3 913.785,-584.3 913.785,-597.9 913.785,-597.9 913.785,-603.9 907.785,-609.9 901.785,-609.9 901.785,-609.9 726.215,-609.9 726.215,-609.9 720.215,-609.9 714.215,-603.9 714.215,-597.9 714.215,-597.9 714.215,-584.3 714.215,-584.3 714.215,-578.3 720.215,-572.3 726.215,-572.3"/>
<text text-anchor="middle" x="814" y="-597.8" font-family="Courier,monospace" font-weight="bold" font-size="9.00">[data34] filtered_white_noise_data</text>
<polyline fill="none" stroke="black" points="714.215,-591.1 913.785,-591.1 "/>
<text text-anchor="start" x="722.215" y="-579" font-family="Courier,monospace" font-weight="bold" font-size="9.00">GW150914_filter.png</text>
</g>
<!-- FILTER_DATA&#45;&gt;filtered_white_noise_data -->
<g id="edge49" class="edge"><title>FILTER_DATA&#45;&gt;filtered_white_noise_data</title>
<path fill="none" stroke="black" d="M666.468,-646.322C693.358,-636.439 727.436,-623.915 756.064,-613.393"/>
<polygon fill="black" stroke="black" points="757.366,-616.643 765.545,-609.908 754.952,-610.073 757.366,-616.643"/>
</g>
<!-- STRAIN_WAVEFORM_FOR_FILTERED_DATA -->
<g id="node10" class="node"><title>STRAIN_WAVEFORM_FOR_FILTERED_DATA</title>
<polygon fill="#ccffcc" stroke="black" points="809.654,-535.8 516.346,-535.8 516.346,-499.8 809.654,-499.8 809.654,-535.8"/>
<text text-anchor="middle" x="663" y="-513.6" font-family="Courier,monospace" font-size="14.00">STRAIN_WAVEFORM_FOR_FILTERED_DATA</text>
</g>
<!-- H1_strain_filtered -->
<g id="node37" class="node"><title>H1_strain_filtered</title>
<path fill="#ffe4b5" stroke="black" d="M530.314,-420.3C530.314,-420.3 689.686,-420.3 689.686,-420.3 695.686,-420.3 701.686,-426.3 701.686,-432.3 701.686,-432.3 701.686,-445.9 701.686,-445.9 701.686,-451.9 695.686,-457.9 689.686,-457.9 689.686,-457.9 530.314,-457.9 530.314,-457.9 524.314,-457.9 518.314,-451.9 518.314,-445.9 518.314,-445.9 518.314,-432.3 518.314,-432.3 518.314,-426.3 524.314,-420.3 530.314,-420.3"/>
<text text-anchor="middle" x="610" y="-445.8" font-family="Courier,monospace" font-weight="bold" font-size="9.00">[data35] H1_strain_filtered</text>
<polyline fill="none" stroke="black" points="518.314,-439.1 701.686,-439.1 "/>
<text text-anchor="start" x="526.314" y="-427" font-family="Courier,monospace" font-weight="bold" font-size="9.00">GW150914_H1_strain_filtered.png</text>
</g>
<!-- STRAIN_WAVEFORM_FOR_FILTERED_DATA&#45;&gt;H1_strain_filtered -->
<g id="edge50" class="edge"><title>STRAIN_WAVEFORM_FOR_FILTERED_DATA&#45;&gt;H1_strain_filtered</title>
<path fill="none" stroke="black" d="M651.238,-499.778C644.5,-490.027 635.898,-477.579 628.296,-466.577"/>
<polygon fill="black" stroke="black" points="631.032,-464.381 622.468,-458.143 625.273,-468.36 631.032,-464.381"/>
</g>
<!-- H1_strain_unfiltered -->
<g id="node38" class="node"><title>H1_strain_unfiltered</title>
<path fill="#ffe4b5" stroke="black" d="M731.915,-420.3C731.915,-420.3 902.085,-420.3 902.085,-420.3 908.085,-420.3 914.085,-426.3 914.085,-432.3 914.085,-432.3 914.085,-445.9 914.085,-445.9 914.085,-451.9 908.085,-457.9 902.085,-457.9 902.085,-457.9 731.915,-457.9 731.915,-457.9 725.915,-457.9 719.915,-451.9 719.915,-445.9 719.915,-445.9 719.915,-432.3 719.915,-432.3 719.915,-426.3 725.915,-420.3 731.915,-420.3"/>
<text text-anchor="middle" x="817" y="-445.8" font-family="Courier,monospace" font-weight="bold" font-size="9.00">[data36] H1_strain_unfiltered</text>
<polyline fill="none" stroke="black" points="719.915,-439.1 914.085,-439.1 "/>
<text text-anchor="start" x="727.915" y="-427" font-family="Courier,monospace" font-weight="bold" font-size="9.00">GW150914_H1_strain_unfiltered.png</text>
</g>
<!-- STRAIN_WAVEFORM_FOR_FILTERED_DATA&#45;&gt;H1_strain_unfiltered -->
<g id="edge51" class="edge"><title>STRAIN_WAVEFORM_FOR_FILTERED_DATA&#45;&gt;H1_strain_unfiltered</title>
<path fill="none" stroke="black" d="M697.178,-499.778C719.16,-488.83 747.969,-474.481 771.83,-462.597"/>
<polygon fill="black" stroke="black" points="773.652,-465.6 781.043,-458.009 770.531,-459.334 773.652,-465.6"/>
</g>
<!-- WAVE_FILE_GENERATOR_FOR_WHITENED_DATA -->
<g id="node11" class="node"><title>WAVE_FILE_GENERATOR_FOR_WHITENED_DATA</title>
<polygon fill="#ccffcc" stroke="black" points="914.248,-378.4 587.752,-378.4 587.752,-342.4 914.248,-342.4 914.248,-378.4"/>
<text text-anchor="middle" x="751" y="-356.2" font-family="Courier,monospace" font-size="14.00">WAVE_FILE_GENERATOR_FOR_WHITENED_DATA</text>
</g>
<!-- whitened_bandpass_wavefile -->
<g id="node39" class="node"><title>whitened_bandpass_wavefile</title>
<path fill="#ffe4b5" stroke="black" d="M691.516,-246.7C691.516,-246.7 872.484,-246.7 872.484,-246.7 878.484,-246.7 884.484,-252.7 884.484,-258.7 884.484,-258.7 884.484,-293.9 884.484,-293.9 884.484,-299.9 878.484,-305.9 872.484,-305.9 872.484,-305.9 691.516,-305.9 691.516,-305.9 685.516,-305.9 679.516,-299.9 679.516,-293.9 679.516,-293.9 679.516,-258.7 679.516,-258.7 679.516,-252.7 685.516,-246.7 691.516,-246.7"/>
<text text-anchor="middle" x="782" y="-293.8" font-family="Courier,monospace" font-weight="bold" font-size="9.00">[data37] whitened_bandpass_wavefile</text>
<polyline fill="none" stroke="black" points="679.516,-287.1 884.484,-287.1 "/>
<text text-anchor="start" x="687.516" y="-275" font-family="Courier,monospace" font-weight="bold" font-size="9.00">GW150914_NR_whitenbp.wav</text>
<text text-anchor="start" x="687.516" y="-264.2" font-family="Courier,monospace" font-weight="bold" font-size="9.00">GW150914_L1_whitenbp.wav</text>
<text text-anchor="start" x="687.516" y="-253.4" font-family="Courier,monospace" font-weight="bold" font-size="9.00">GW150914_H1_whitenbp.wav</text>
</g>
<!-- WAVE_FILE_GENERATOR_FOR_WHITENED_DATA&#45;&gt;whitened_bandpass_wavefile -->
<g id="edge52" class="edge"><title>WAVE_FILE_GENERATOR_FOR_WHITENED_DATA&#45;&gt;whitened_bandpass_wavefile</title>
<path fill="none" stroke="black" d="M757.423,-342.389C760.372,-334.58 763.996,-324.98 767.548,-315.575"/>
<polygon fill="black" stroke="black" points="770.932,-316.52 771.19,-305.928 764.383,-314.047 770.932,-316.52"/>
</g>
<!-- SHIFT_FREQUENCY_BANDPASSED -->
<g id="node12" class="node"><title>SHIFT_FREQUENCY_BANDPASSED</title>
<polygon fill="#ccffcc" stroke="black" points="258.364,-378.4 23.6361,-378.4 23.6361,-342.4 258.364,-342.4 258.364,-378.4"/>
<text text-anchor="middle" x="141" y="-356.2" font-family="Courier,monospace" font-size="14.00">SHIFT_FREQUENCY_BANDPASSED</text>
</g>
<!-- strain_H1_shifted -->
<g id="node30" class="node"><title>strain_H1_shifted</title>
<path fill="#ffffcc" stroke="black" d="M172.016,-294.3C172.016,-294.3 109.984,-294.3 109.984,-294.3 103.984,-294.3 97.9845,-288.3 97.9845,-282.3 97.9845,-282.3 97.9845,-270.3 97.9845,-270.3 97.9845,-264.3 103.984,-258.3 109.984,-258.3 109.984,-258.3 172.016,-258.3 172.016,-258.3 178.016,-258.3 184.016,-264.3 184.016,-270.3 184.016,-270.3 184.016,-282.3 184.016,-282.3 184.016,-288.3 178.016,-294.3 172.016,-294.3"/>
<text text-anchor="middle" x="141" y="-273.6" font-family="Helvetica,sans-Serif" font-size="9.00">strain_H1_shifted</text>
</g>
<!-- SHIFT_FREQUENCY_BANDPASSED&#45;&gt;strain_H1_shifted -->
<g id="edge53" class="edge"><title>SHIFT_FREQUENCY_BANDPASSED&#45;&gt;strain_H1_shifted</title>
<path fill="none" stroke="black" d="M141,-342.389C141,-331.563 141,-317.294 141,-304.876"/>
<polygon fill="black" stroke="black" points="144.5,-304.572 141,-294.572 137.5,-304.572 144.5,-304.572"/>
</g>
<!-- strain_L1_shifted -->
<g id="node31" class="node"><title>strain_L1_shifted</title>
<path fill="#ffffcc" stroke="black" d="M274.023,-294.3C274.023,-294.3 213.977,-294.3 213.977,-294.3 207.977,-294.3 201.977,-288.3 201.977,-282.3 201.977,-282.3 201.977,-270.3 201.977,-270.3 201.977,-264.3 207.977,-258.3 213.977,-258.3 213.977,-258.3 274.023,-258.3 274.023,-258.3 280.023,-258.3 286.023,-264.3 286.023,-270.3 286.023,-270.3 286.023,-282.3 286.023,-282.3 286.023,-288.3 280.023,-294.3 274.023,-294.3"/>
<text text-anchor="middle" x="244" y="-273.6" font-family="Helvetica,sans-Serif" font-size="9.00">strain_L1_shifted</text>
</g>
<!-- SHIFT_FREQUENCY_BANDPASSED&#45;&gt;strain_L1_shifted -->
<g id="edge54" class="edge"><title>SHIFT_FREQUENCY_BANDPASSED&#45;&gt;strain_L1_shifted</title>
<path fill="none" stroke="black" d="M162.342,-342.389C177.432,-330.361 197.856,-314.081 214.503,-300.812"/>
<polygon fill="black" stroke="black" points="216.693,-303.542 222.331,-294.572 212.33,-298.068 216.693,-303.542"/>
</g>
<!-- WAVE_FILE_GENERATOR_FOR_SHIFTED_DATA -->
<g id="node13" class="node"><title>WAVE_FILE_GENERATOR_FOR_SHIFTED_DATA</title>
<polygon fill="#ccffcc" stroke="black" points="403.35,-210.2 84.6502,-210.2 84.6502,-174.2 403.35,-174.2 403.35,-210.2"/>
<text text-anchor="middle" x="244" y="-188" font-family="Courier,monospace" font-size="14.00">WAVE_FILE_GENERATOR_FOR_SHIFTED_DATA</text>
</g>
<!-- shifted_wavefile -->
<g id="node40" class="node"><title>shifted_wavefile</title>
<path fill="#ffe4b5" stroke="black" d="M301.511,-78.5C301.511,-78.5 428.489,-78.5 428.489,-78.5 434.489,-78.5 440.489,-84.5 440.489,-90.5 440.489,-90.5 440.489,-125.7 440.489,-125.7 440.489,-131.7 434.489,-137.7 428.489,-137.7 428.489,-137.7 301.511,-137.7 301.511,-137.7 295.511,-137.7 289.511,-131.7 289.511,-125.7 289.511,-125.7 289.511,-90.5 289.511,-90.5 289.511,-84.5 295.511,-78.5 301.511,-78.5"/>
<text text-anchor="middle" x="365" y="-125.6" font-family="Courier,monospace" font-weight="bold" font-size="9.00">[data40] shifted_wavefile</text>
<polyline fill="none" stroke="black" points="289.511,-118.9 440.489,-118.9 "/>
<text text-anchor="start" x="297.511" y="-106.8" font-family="Courier,monospace" font-weight="bold" font-size="9.00">GW150914_NR_shifted.wav</text>
<text text-anchor="start" x="297.511" y="-96" font-family="Courier,monospace" font-weight="bold" font-size="9.00">GW150914_L1_shifted.wav</text>
<text text-anchor="start" x="297.511" y="-85.2" font-family="Courier,monospace" font-weight="bold" font-size="9.00">GW150914_H1_shifted.wav</text>
</g>
<!-- WAVE_FILE_GENERATOR_FOR_SHIFTED_DATA&#45;&gt;shifted_wavefile -->
<g id="edge55" class="edge"><title>WAVE_FILE_GENERATOR_FOR_SHIFTED_DATA&#45;&gt;shifted_wavefile</title>
<path fill="none" stroke="black" d="M269.071,-174.189C282.154,-165.312 298.65,-154.119 314.256,-143.53"/>
<polygon fill="black" stroke="black" points="316.498,-146.239 322.807,-137.728 312.567,-140.447 316.498,-146.239"/>
</g>
<!-- DOWNSAMPLING -->
<g id="node14" class="node"><title>DOWNSAMPLING</title>
<polygon fill="#ccffcc" stroke="black" points="882.283,-850.6 765.717,-850.6 765.717,-814.6 882.283,-814.6 882.283,-850.6"/>
<text text-anchor="middle" x="824" y="-828.4" font-family="Courier,monospace" font-size="14.00">DOWNSAMPLING</text>
</g>
<!-- H1_ASD_SamplingRate -->
<g id="node41" class="node"><title>H1_ASD_SamplingRate</title>
<path fill="#ffe4b5" stroke="black" d="M748.014,-718.9C748.014,-718.9 901.986,-718.9 901.986,-718.9 907.986,-718.9 913.986,-724.9 913.986,-730.9 913.986,-730.9 913.986,-766.1 913.986,-766.1 913.986,-772.1 907.986,-778.1 901.986,-778.1 901.986,-778.1 748.014,-778.1 748.014,-778.1 742.014,-778.1 736.014,-772.1 736.014,-766.1 736.014,-766.1 736.014,-730.9 736.014,-730.9 736.014,-724.9 742.014,-718.9 748.014,-718.9"/>
<text text-anchor="middle" x="825" y="-766" font-family="Courier,monospace" font-weight="bold" font-size="9.00">[data41] H1_ASD_SamplingRate</text>
<polyline fill="none" stroke="black" points="736.014,-759.3 913.986,-759.3 "/>
<text text-anchor="start" x="744.014" y="-747.2" font-family="Courier,monospace" font-weight="bold" font-size="9.00">GW150914_H1_ASD_4096_zoom.png</text>
<text text-anchor="start" x="744.014" y="-736.4" font-family="Courier,monospace" font-weight="bold" font-size="9.00">GW150914_H1_ASD_16384_zoom.png</text>
<text text-anchor="start" x="744.014" y="-725.6" font-family="Courier,monospace" font-weight="bold" font-size="9.00">GW150914_H1_ASD_16384.png</text>
</g>
<!-- DOWNSAMPLING&#45;&gt;H1_ASD_SamplingRate -->
<g id="edge56" class="edge"><title>DOWNSAMPLING&#45;&gt;H1_ASD_SamplingRate</title>
<path fill="none" stroke="black" d="M824.207,-814.589C824.3,-806.945 824.414,-797.584 824.527,-788.369"/>
<polygon fill="black" stroke="black" points="828.029,-788.17 824.651,-778.128 821.03,-788.085 828.029,-788.17"/>
</g>
<!-- FN_Detector -->
<g id="node15" class="node"><title>FN_Detector</title>
<path fill="#ffe4b5" stroke="black" d="M283.915,-1031.1C283.915,-1031.1 454.085,-1031.1 454.085,-1031.1 460.085,-1031.1 466.085,-1037.1 466.085,-1043.1 466.085,-1043.1 466.085,-1067.5 466.085,-1067.5 466.085,-1073.5 460.085,-1079.5 454.085,-1079.5 454.085,-1079.5 283.915,-1079.5 283.915,-1079.5 277.915,-1079.5 271.915,-1073.5 271.915,-1067.5 271.915,-1067.5 271.915,-1043.1 271.915,-1043.1 271.915,-1037.1 277.915,-1031.1 283.915,-1031.1"/>
<text text-anchor="middle" x="369" y="-1067.4" font-family="Courier,monospace" font-weight="bold" font-size="9.00">[data14] FN_Detector</text>
<polyline fill="none" stroke="black" points="271.915,-1060.7 466.085,-1060.7 "/>
<text text-anchor="start" x="279.915" y="-1048.6" font-family="Courier,monospace" font-weight="bold" font-size="9.00">L&#45;L1_LOSC_4_V1&#45;1126259446&#45;32.hdf5</text>
<text text-anchor="start" x="279.915" y="-1037.8" font-family="Courier,monospace" font-weight="bold" font-size="9.00">H&#45;H1_LOSC_4_V1&#45;1126259446&#45;32.hdf5</text>
</g>
<!-- FN_Detector&#45;&gt;LOAD_DATA -->
<g id="edge1" class="edge"><title>FN_Detector&#45;&gt;LOAD_DATA</title>
<path fill="none" stroke="black" d="M363.502,-1030.87C361.561,-1022.6 359.363,-1013.24 357.358,-1004.69"/>
<polygon fill="black" stroke="black" points="360.729,-1003.74 355.037,-994.801 353.914,-1005.34 360.729,-1003.74"/>
</g>
<!-- FN_Sampling_rate -->
<g id="node16" class="node"><title>FN_Sampling_rate</title>
<path fill="#ffe4b5" stroke="black" d="M66.2153,-1031.1C66.2153,-1031.1 241.785,-1031.1 241.785,-1031.1 247.785,-1031.1 253.785,-1037.1 253.785,-1043.1 253.785,-1043.1 253.785,-1067.5 253.785,-1067.5 253.785,-1073.5 247.785,-1079.5 241.785,-1079.5 241.785,-1079.5 66.2153,-1079.5 66.2153,-1079.5 60.2153,-1079.5 54.2153,-1073.5 54.2153,-1067.5 54.2153,-1067.5 54.2153,-1043.1 54.2153,-1043.1 54.2153,-1037.1 60.2153,-1031.1 66.2153,-1031.1"/>
<text text-anchor="middle" x="154" y="-1067.4" font-family="Courier,monospace" font-weight="bold" font-size="9.00">[data15] FN_Sampling_rate</text>
<polyline fill="none" stroke="black" points="54.2153,-1060.7 253.785,-1060.7 "/>
<text text-anchor="start" x="62.2153" y="-1048.6" font-family="Courier,monospace" font-weight="bold" font-size="9.00">H&#45;H1_LOSC_4_V1&#45;1126259446&#45;32.hdf5</text>
<text text-anchor="start" x="62.2153" y="-1037.8" font-family="Courier,monospace" font-weight="bold" font-size="9.00">H&#45;H1_LOSC_16_V1&#45;1126259446&#45;32.hdf5</text>
</g>
<!-- FN_Sampling_rate&#45;&gt;LOAD_DATA -->
<g id="edge2" class="edge"><title>FN_Sampling_rate&#45;&gt;LOAD_DATA</title>
<path fill="none" stroke="black" d="M213.641,-1031.08C240.352,-1020.68 271.604,-1008.51 297.544,-998.413"/>
<polygon fill="black" stroke="black" points="299.156,-1001.54 307.205,-994.651 296.616,-995.018 299.156,-1001.54"/>
</g>
<!-- strain_H1&#45;&gt;AMPLITUDE_SPECTRAL_DENSITY -->
<g id="edge3" class="edge"><title>strain_H1&#45;&gt;AMPLITUDE_SPECTRAL_DENSITY</title>
<path fill="none" stroke="black" d="M313.646,-891.247C291.431,-881.214 259.583,-866.831 233.257,-854.942"/>
<polygon fill="black" stroke="black" points="234.39,-851.613 223.836,-850.687 231.509,-857.993 234.39,-851.613"/>
</g>
<!-- strain_H1&#45;&gt;SPECTROGRAMS_FOR_STRAIN_DATA -->
<g id="edge4" class="edge"><title>strain_H1&#45;&gt;SPECTROGRAMS_FOR_STRAIN_DATA</title>
<path fill="none" stroke="black" d="M368.03,-888.583C385.259,-879.012 407.886,-866.441 427.155,-855.736"/>
<polygon fill="black" stroke="black" points="428.981,-858.725 436.023,-850.809 425.582,-852.606 428.981,-858.725"/>
</g>
<!-- strain_H1&#45;&gt;FILTER_DATA -->
<g id="edge5" class="edge"><title>strain_H1&#45;&gt;FILTER_DATA</title>
<path fill="none" stroke="black" d="M334.171,-886.319C327.945,-867.711 321.219,-837.675 332,-814.6 360.207,-754.228 388.424,-750.168 447,-718.4 480.928,-699.999 522.141,-687.052 555.83,-678.563"/>
<polygon fill="black" stroke="black" points="556.691,-681.956 565.572,-676.178 555.027,-675.156 556.691,-681.956"/>
</g>
<!-- strain_L1&#45;&gt;AMPLITUDE_SPECTRAL_DENSITY -->
<g id="edge6" class="edge"><title>strain_L1&#45;&gt;AMPLITUDE_SPECTRAL_DENSITY</title>
<path fill="none" stroke="black" d="M220.629,-886.297C215.282,-878.159 208.796,-868.289 202.889,-859.301"/>
<polygon fill="black" stroke="black" points="205.657,-857.139 197.24,-850.704 199.807,-860.984 205.657,-857.139"/>
</g>
<!-- strain_L1&#45;&gt;SPECTROGRAMS_FOR_STRAIN_DATA -->
<g id="edge7" class="edge"><title>strain_L1&#45;&gt;SPECTROGRAMS_FOR_STRAIN_DATA</title>
<path fill="none" stroke="black" d="M259.417,-895.433C293.667,-885.231 353.436,-867.427 400.071,-853.536"/>
<polygon fill="black" stroke="black" points="401.225,-856.845 409.81,-850.635 399.226,-850.136 401.225,-856.845"/>
</g>
<!-- strain_L1&#45;&gt;FILTER_DATA -->
<g id="edge8" class="edge"><title>strain_L1&#45;&gt;FILTER_DATA</title>
<path fill="none" stroke="black" d="M204.684,-904.329C165.266,-903.712 93.4982,-895.975 60,-850.6 25.1029,-803.331 20.4593,-761.86 60,-718.4 92.8191,-682.328 415.369,-670.28 555.527,-666.727"/>
<polygon fill="black" stroke="black" points="555.789,-670.222 565.7,-666.476 555.616,-663.224 555.789,-670.222"/>
</g>
<!-- strain_16&#45;&gt;DOWNSAMPLING -->
<g id="edge9" class="edge"><title>strain_16&#45;&gt;DOWNSAMPLING</title>
<path fill="none" stroke="black" d="M803.674,-886.297C806.715,-878.413 810.383,-868.904 813.761,-860.146"/>
<polygon fill="black" stroke="black" points="817.069,-861.294 817.403,-850.704 810.538,-858.775 817.069,-861.294"/>
</g>
<!-- strain_4&#45;&gt;DOWNSAMPLING -->
<g id="edge10" class="edge"><title>strain_4&#45;&gt;DOWNSAMPLING</title>
<path fill="none" stroke="black" d="M699.175,-891.085C721.001,-881.034 752.146,-866.691 777.865,-854.847"/>
<polygon fill="black" stroke="black" points="779.448,-857.971 787.067,-850.609 776.52,-851.613 779.448,-857.971"/>
</g>
<!-- PSD_H1&#45;&gt;WHITENING -->
<g id="edge15" class="edge"><title>PSD_H1&#45;&gt;WHITENING</title>
<path fill="none" stroke="black" d="M168,-730.489C168,-719.663 168,-705.394 168,-692.976"/>
<polygon fill="black" stroke="black" points="171.5,-692.672 168,-682.672 164.5,-692.672 171.5,-692.672"/>
</g>
<!-- PSD_L1&#45;&gt;WHITENING -->
<g id="edge16" class="edge"><title>PSD_L1&#45;&gt;WHITENING</title>
<path fill="none" stroke="black" d="M110.918,-730.489C121.083,-718.898 134.711,-703.359 146.101,-690.371"/>
<polygon fill="black" stroke="black" points="148.891,-692.498 152.853,-682.672 143.628,-687.883 148.891,-692.498"/>
</g>
<!-- strain_H1_whiten&#45;&gt;BANDPASSING -->
<g id="edge17" class="edge"><title>strain_H1_whiten&#45;&gt;BANDPASSING</title>
<path fill="none" stroke="black" d="M167,-572.84C167,-564.783 167,-555 167,-545.984"/>
<polygon fill="black" stroke="black" points="170.5,-545.901 167,-535.901 163.5,-545.901 170.5,-545.901"/>
</g>
<!-- strain_H1_whiten&#45;&gt;SPECTROGRAMS_FOR_WHITEND_DATA -->
<g id="edge18" class="edge"><title>strain_H1_whiten&#45;&gt;SPECTROGRAMS_FOR_WHITEND_DATA</title>
<path fill="none" stroke="black" d="M209.839,-574.979C239.226,-564.606 278.578,-550.716 310.8,-539.343"/>
<polygon fill="black" stroke="black" points="312.287,-542.53 320.552,-535.901 309.957,-535.929 312.287,-542.53"/>
</g>
<!-- strain_L1_whiten&#45;&gt;BANDPASSING -->
<g id="edge19" class="edge"><title>strain_L1_whiten&#45;&gt;BANDPASSING</title>
<path fill="none" stroke="black" d="M245.329,-573.022C231.797,-563.654 214.836,-551.913 200.16,-541.755"/>
<polygon fill="black" stroke="black" points="202.041,-538.8 191.827,-535.986 198.057,-544.555 202.041,-538.8"/>
</g>
<!-- strain_L1_whiten&#45;&gt;SPECTROGRAMS_FOR_WHITEND_DATA -->
<g id="edge20" class="edge"><title>strain_L1_whiten&#45;&gt;SPECTROGRAMS_FOR_WHITEND_DATA</title>
<path fill="none" stroke="black" d="M293.713,-573.022C306.598,-563.742 322.718,-552.133 336.732,-542.04"/>
<polygon fill="black" stroke="black" points="339.068,-544.67 345.137,-535.986 334.977,-538.99 339.068,-544.67"/>
</g>
<!-- strain_H1_whitenbp&#45;&gt;STRAIN_WAVEFORM_FOR_WHITENED_DATA -->
<g id="edge21" class="edge"><title>strain_H1_whitenbp&#45;&gt;STRAIN_WAVEFORM_FOR_WHITENED_DATA</title>
<path fill="none" stroke="black" d="M150.271,-421.036C156.462,-418.611 162.857,-416.3 169,-414.4 214.312,-400.389 265.316,-388.938 309.666,-380.311"/>
<polygon fill="black" stroke="black" points="310.449,-383.725 319.609,-378.403 309.129,-376.851 310.449,-383.725"/>
</g>
<!-- strain_H1_whitenbp&#45;&gt;WAVE_FILE_GENERATOR_FOR_WHITENED_DATA -->
<g id="edge22" class="edge"><title>strain_H1_whitenbp&#45;&gt;WAVE_FILE_GENERATOR_FOR_WHITENED_DATA</title>
<path fill="none" stroke="black" d="M148.544,-420.982C155.23,-418.407 162.235,-416.061 169,-414.4 343.436,-371.563 395.012,-394.529 577.387,-378.519"/>
<polygon fill="black" stroke="black" points="577.944,-381.983 587.588,-377.595 577.313,-375.011 577.944,-381.983"/>
</g>
<!-- strain_H1_whitenbp&#45;&gt;SHIFT_FREQUENCY_BANDPASSED -->
<g id="edge23" class="edge"><title>strain_H1_whitenbp&#45;&gt;SHIFT_FREQUENCY_BANDPASSED</title>
<path fill="none" stroke="black" d="M118.436,-421.078C122.09,-411.414 126.746,-399.101 130.878,-388.172"/>
<polygon fill="black" stroke="black" points="134.219,-389.231 134.482,-378.64 127.671,-386.756 134.219,-389.231"/>
</g>
<!-- strain_L1_whitenbp&#45;&gt;STRAIN_WAVEFORM_FOR_WHITENED_DATA -->
<g id="edge24" class="edge"><title>strain_L1_whitenbp&#45;&gt;STRAIN_WAVEFORM_FOR_WHITENED_DATA</title>
<path fill="none" stroke="black" d="M264.683,-421.056C270.149,-418.781 275.703,-416.508 281,-414.4 308.858,-403.312 340.048,-391.595 366.085,-382.005"/>
<polygon fill="black" stroke="black" points="367.614,-385.172 375.795,-378.44 365.201,-378.602 367.614,-385.172"/>
</g>
<!-- strain_L1_whitenbp&#45;&gt;WAVE_FILE_GENERATOR_FOR_WHITENED_DATA -->
<g id="edge25" class="edge"><title>strain_L1_whitenbp&#45;&gt;WAVE_FILE_GENERATOR_FOR_WHITENED_DATA</title>
<path fill="none" stroke="black" d="M261.221,-420.994C267.696,-418.451 274.464,-416.113 281,-414.4 295.769,-410.529 452.058,-393.263 580.419,-379.474"/>
<polygon fill="black" stroke="black" points="580.822,-382.951 590.391,-378.404 580.075,-375.991 580.822,-382.951"/>
</g>
<!-- strain_L1_whitenbp&#45;&gt;SHIFT_FREQUENCY_BANDPASSED -->
<g id="edge26" class="edge"><title>strain_L1_whitenbp&#45;&gt;SHIFT_FREQUENCY_BANDPASSED</title>
<path fill="none" stroke="black" d="M206.358,-421.078C194.91,-410.625 180.068,-397.073 167.421,-385.525"/>
<polygon fill="black" stroke="black" points="169.625,-382.798 159.881,-378.64 164.905,-387.967 169.625,-382.798"/>
</g>
<!-- COEFFICIENTS&#45;&gt;FILTER_DATA -->
<g id="edge27" class="edge"><title>COEFFICIENTS&#45;&gt;FILTER_DATA</title>
<path fill="none" stroke="black" d="M665.19,-730.489C657.294,-719.117 646.76,-703.944 637.849,-691.109"/>
<polygon fill="black" stroke="black" points="640.57,-688.89 631.991,-682.672 634.819,-692.882 640.57,-688.89"/>
</g>
<!-- strain_H1_filt&#45;&gt;STRAIN_WAVEFORM_FOR_FILTERED_DATA -->
<g id="edge28" class="edge"><title>strain_H1_filt&#45;&gt;STRAIN_WAVEFORM_FOR_FILTERED_DATA</title>
<path fill="none" stroke="black" d="M597.818,-572.84C608.804,-563.732 622.451,-552.418 634.414,-542.5"/>
<polygon fill="black" stroke="black" points="636.909,-544.978 642.374,-535.901 632.441,-539.589 636.909,-544.978"/>
</g>
<!-- strain_L1_filt&#45;&gt;STRAIN_WAVEFORM_FOR_FILTERED_DATA -->
<g id="edge29" class="edge"><title>strain_L1_filt&#45;&gt;STRAIN_WAVEFORM_FOR_FILTERED_DATA</title>
<path fill="none" stroke="black" d="M663,-572.84C663,-564.783 663,-555 663,-545.984"/>
<polygon fill="black" stroke="black" points="666.5,-545.901 663,-535.901 659.5,-545.901 666.5,-545.901"/>
</g>
<!-- strain_H1_shifted&#45;&gt;WAVE_FILE_GENERATOR_FOR_SHIFTED_DATA -->
<g id="edge30" class="edge"><title>strain_H1_shifted&#45;&gt;WAVE_FILE_GENERATOR_FOR_SHIFTED_DATA</title>
<path fill="none" stroke="black" d="M162.342,-258.289C177.432,-246.261 197.856,-229.981 214.503,-216.712"/>
<polygon fill="black" stroke="black" points="216.693,-219.442 222.331,-210.472 212.33,-213.968 216.693,-219.442"/>
</g>
<!-- strain_L1_shifted&#45;&gt;WAVE_FILE_GENERATOR_FOR_SHIFTED_DATA -->
<g id="edge31" class="edge"><title>strain_L1_shifted&#45;&gt;WAVE_FILE_GENERATOR_FOR_SHIFTED_DATA</title>
<path fill="none" stroke="black" d="M244,-258.289C244,-247.463 244,-233.194 244,-220.776"/>
<polygon fill="black" stroke="black" points="247.5,-220.472 244,-210.472 240.5,-220.472 247.5,-220.472"/>
</g>
<!-- ASDs_outflow -->
<g id="node46" class="node"><title>ASDs_outflow</title>
<ellipse fill="none" stroke="black" cx="1079" cy="-31" rx="7" ry="7"/>
</g>
<!-- ASDs&#45;&gt;ASDs_outflow -->
<g id="edge60" class="edge"><title>ASDs&#45;&gt;ASDs_outflow</title>
<path fill="none" stroke="black" d="M320.934,-738.652C356.681,-732.819 404.626,-725.057 447,-718.4 591.717,-695.665 1094,-738.592 1094,-592.1 1094,-592.1 1094,-592.1 1094,-191.2 1094,-138.731 1085.82,-76.9624 1081.54,-48.2243"/>
<polygon fill="black" stroke="black" points="1084.96,-47.4072 1079.98,-38.0536 1078.04,-48.4688 1084.96,-47.4072"/>
</g>
<!-- WHITENED_strain_data_outflow -->
<g id="node47" class="node"><title>WHITENED_strain_data_outflow</title>
<ellipse fill="none" stroke="black" cx="887" cy="-31" rx="7" ry="7"/>
</g>
<!-- WHITENED_strain_data&#45;&gt;WHITENED_strain_data_outflow -->
<g id="edge61" class="edge"><title>WHITENED_strain_data&#45;&gt;WHITENED_strain_data_outflow</title>
<path fill="none" stroke="black" d="M527.873,-257.398C588.246,-220.111 732.479,-131.785 856,-62 862.578,-58.2835 865.3,-58.9591 871,-54 873.623,-51.7178 876.061,-48.9286 878.203,-46.1128"/>
<polygon fill="black" stroke="black" points="881.243,-47.8645 883.905,-37.6097 875.429,-43.9659 881.243,-47.8645"/>
</g>
<!-- spectrogram_outflow -->
<g id="node48" class="node"><title>spectrogram_outflow</title>
<ellipse fill="none" stroke="black" cx="1111" cy="-31" rx="7" ry="7"/>
</g>
<!-- spectrogram&#45;&gt;spectrogram_outflow -->
<g id="edge62" class="edge"><title>spectrogram&#45;&gt;spectrogram_outflow</title>
<path fill="none" stroke="black" d="M602.883,-724.229C610.933,-721.971 619.104,-719.949 627,-718.4 679.592,-708.083 1066.76,-716.633 1108,-682.4 1139.95,-655.875 1132,-633.627 1132,-592.1 1132,-592.1 1132,-592.1 1132,-191.2 1132,-138.51 1120.55,-76.8466 1114.56,-48.1788"/>
<polygon fill="black" stroke="black" points="1117.9,-47.0741 1112.38,-38.0351 1111.06,-48.5479 1117.9,-47.0741"/>
</g>
<!-- spectrogram_whitened_outflow -->
<g id="node49" class="node"><title>spectrogram_whitened_outflow</title>
<ellipse fill="none" stroke="black" cx="951" cy="-31" rx="7" ry="7"/>
</g>
<!-- spectrogram_whitened&#45;&gt;spectrogram_whitened_outflow -->
<g id="edge63" class="edge"><title>spectrogram_whitened&#45;&gt;spectrogram_whitened_outflow</title>
<path fill="none" stroke="black" d="M500.202,-415.757C503.163,-415.28 506.1,-414.826 509,-414.4 554.683,-407.689 888.774,-409.394 923,-378.4 956.889,-347.711 942,-323.02 942,-277.3 942,-277.3 942,-277.3 942,-191.2 942,-138.879 946.906,-77.0398 949.473,-48.2547"/>
<polygon fill="black" stroke="black" points="952.98,-48.3444 950.409,-38.066 946.009,-47.7038 952.98,-48.3444"/>
</g>
<!-- filtered_white_noise_data_outflow -->
<g id="node50" class="node"><title>filtered_white_noise_data_outflow</title>
<ellipse fill="none" stroke="black" cx="1047" cy="-31" rx="7" ry="7"/>
</g>
<!-- filtered_white_noise_data&#45;&gt;filtered_white_noise_data_outflow -->
<g id="edge64" class="edge"><title>filtered_white_noise_data&#45;&gt;filtered_white_noise_data_outflow</title>
<path fill="none" stroke="black" d="M904.456,-572.285C973.193,-552.871 1056,-514.122 1056,-440.1 1056,-440.1 1056,-440.1 1056,-191.2 1056,-138.879 1051.09,-77.0398 1048.53,-48.2547"/>
<polygon fill="black" stroke="black" points="1051.99,-47.7038 1047.59,-38.066 1045.02,-48.3444 1051.99,-47.7038"/>
</g>
<!-- H1_strain_filtered_outflow -->
<g id="node51" class="node"><title>H1_strain_filtered_outflow</title>
<ellipse fill="none" stroke="black" cx="983" cy="-31" rx="7" ry="7"/>
</g>
<!-- H1_strain_filtered&#45;&gt;H1_strain_filtered_outflow -->
<g id="edge65" class="edge"><title>H1_strain_filtered&#45;&gt;H1_strain_filtered_outflow</title>
<path fill="none" stroke="black" d="M682.664,-420.274C692.17,-418.17 701.8,-416.152 711,-414.4 765.058,-404.105 915.43,-415.579 956,-378.4 990.048,-347.198 980,-323.482 980,-277.3 980,-277.3 980,-277.3 980,-191.2 980,-138.953 981.635,-77.0787 982.491,-48.2699"/>
<polygon fill="black" stroke="black" points="985.996,-48.1746 982.803,-38.0722 978.999,-47.9605 985.996,-48.1746"/>
</g>
<!-- H1_strain_unfiltered_outflow -->
<g id="node52" class="node"><title>H1_strain_unfiltered_outflow</title>
<ellipse fill="none" stroke="black" cx="1015" cy="-31" rx="7" ry="7"/>
</g>
<!-- H1_strain_unfiltered&#45;&gt;H1_strain_unfiltered_outflow -->
<g id="edge66" class="edge"><title>H1_strain_unfiltered&#45;&gt;H1_strain_unfiltered_outflow</title>
<path fill="none" stroke="black" d="M914.336,-423.976C943.516,-415.257 973.243,-401.166 994,-378.4 1025.12,-344.274 1018,-323.482 1018,-277.3 1018,-277.3 1018,-277.3 1018,-191.2 1018,-138.953 1016.36,-77.0787 1015.51,-48.2699"/>
<polygon fill="black" stroke="black" points="1019,-47.9605 1015.2,-38.0722 1012,-48.1746 1019,-47.9605"/>
</g>
<!-- whitened_bandpass_wavefile_outflow -->
<g id="node53" class="node"><title>whitened_bandpass_wavefile_outflow</title>
<ellipse fill="none" stroke="black" cx="919" cy="-31" rx="7" ry="7"/>
</g>
<!-- whitened_bandpass_wavefile&#45;&gt;whitened_bandpass_wavefile_outflow -->
<g id="edge67" class="edge"><title>whitened_bandpass_wavefile&#45;&gt;whitened_bandpass_wavefile_outflow</title>
<path fill="none" stroke="black" d="M798.254,-246.435C827.667,-194.199 888.723,-85.769 910.805,-46.5531"/>
<polygon fill="black" stroke="black" points="914.085,-47.8627 915.941,-37.4318 907.985,-44.4281 914.085,-47.8627"/>
</g>
<!-- shifted_wavefile_outflow -->
<g id="node54" class="node"><title>shifted_wavefile_outflow</title>
<ellipse fill="none" stroke="black" cx="855" cy="-31" rx="7" ry="7"/>
</g>
<!-- shifted_wavefile&#45;&gt;shifted_wavefile_outflow -->
<g id="edge68" class="edge"><title>shifted_wavefile&#45;&gt;shifted_wavefile_outflow</title>
<path fill="none" stroke="black" d="M440.579,-88.7636C480.132,-79.6832 529.471,-69.1606 574,-62 673.392,-46.0168 793.977,-36.3824 837.93,-33.1875"/>
<polygon fill="black" stroke="black" points="838.285,-36.6712 848.012,-32.4712 837.789,-29.6888 838.285,-36.6712"/>
</g>
<!-- H1_ASD_SamplingRate_outflow -->
<g id="node55" class="node"><title>H1_ASD_SamplingRate_outflow</title>
<ellipse fill="none" stroke="black" cx="1143" cy="-31" rx="7" ry="7"/>
</g>
<!-- H1_ASD_SamplingRate&#45;&gt;H1_ASD_SamplingRate_outflow -->
<g id="edge69" class="edge"><title>H1_ASD_SamplingRate&#45;&gt;H1_ASD_SamplingRate_outflow</title>
<path fill="none" stroke="black" d="M914.161,-739.895C997.236,-731.003 1113.09,-713.398 1146,-682.4 1176.23,-653.925 1170,-633.627 1170,-592.1 1170,-592.1 1170,-592.1 1170,-191.2 1170,-137.98 1155.15,-76.1436 1147.48,-47.7378"/>
<polygon fill="black" stroke="black" points="1150.82,-46.7067 1144.77,-38.0106 1144.08,-48.5828 1150.82,-46.7067"/>
</g>
<!-- fs -->
<g id="node42" class="node"><title>fs</title>
<path fill="#ffffff" stroke="black" d="M509,-922.6C509,-922.6 479,-922.6 479,-922.6 473,-922.6 467,-916.6 467,-910.6 467,-910.6 467,-898.6 467,-898.6 467,-892.6 473,-886.6 479,-886.6 479,-886.6 509,-886.6 509,-886.6 515,-886.6 521,-892.6 521,-898.6 521,-898.6 521,-910.6 521,-910.6 521,-916.6 515,-922.6 509,-922.6"/>
<text text-anchor="middle" x="494" y="-901.9" font-family="Helvetica,sans-Serif" font-size="9.00">fs</text>
</g>
<!-- fs&#45;&gt;AMPLITUDE_SPECTRAL_DENSITY -->
<g id="edge11" class="edge"><title>fs&#45;&gt;AMPLITUDE_SPECTRAL_DENSITY</title>
<path fill="none" stroke="black" d="M466.937,-897.449C423.584,-887.596 336.767,-867.865 271.055,-852.931"/>
<polygon fill="black" stroke="black" points="271.638,-849.474 261.111,-850.671 270.087,-856.3 271.638,-849.474"/>
</g>
<!-- fs&#45;&gt;SPECTROGRAMS_FOR_STRAIN_DATA -->
<g id="edge12" class="edge"><title>fs&#45;&gt;SPECTROGRAMS_FOR_STRAIN_DATA</title>
<path fill="none" stroke="black" d="M487.326,-886.297C484.285,-878.413 480.617,-868.904 477.239,-860.146"/>
<polygon fill="black" stroke="black" points="480.462,-858.775 473.597,-850.704 473.931,-861.294 480.462,-858.775"/>
</g>
<!-- fs&#45;&gt;SPECTROGRAMS_FOR_WHITEND_DATA -->
<g id="edge13" class="edge"><title>fs&#45;&gt;SPECTROGRAMS_FOR_WHITEND_DATA</title>
<path fill="none" stroke="black" d="M521.201,-898.678C547.028,-892.403 584.436,-878.784 602,-850.6 610.462,-837.021 611.952,-827.128 602,-814.6 558.011,-759.223 498.57,-826.997 447,-778.6 380.477,-716.17 369.968,-599.456 368.792,-546.362"/>
<polygon fill="black" stroke="black" points="372.288,-545.997 368.666,-536.041 365.288,-546.083 372.288,-545.997"/>
</g>
<!-- fs&#45;&gt;FILTER_COEFS -->
<g id="edge14" class="edge"><title>fs&#45;&gt;FILTER_COEFS</title>
<path fill="none" stroke="black" d="M521.114,-893.867C549.645,-883.625 595.395,-867.202 631.936,-854.085"/>
<polygon fill="black" stroke="black" points="633.263,-857.327 641.492,-850.654 630.898,-850.739 633.263,-857.327"/>
</g>
<!-- fs_inflow -->
<g id="node43" class="node"><title>fs_inflow</title>
<ellipse fill="none" stroke="black" cx="401" cy="-1127" rx="7" ry="7"/>
</g>
<!-- fs_inflow&#45;&gt;fs -->
<g id="edge57" class="edge"><title>fs_inflow&#45;&gt;fs</title>
<path fill="none" stroke="black" d="M408.141,-1125.46C423.28,-1123.9 458.552,-1117.97 475,-1096 511.014,-1047.89 505.615,-972.688 499.35,-932.714"/>
<polygon fill="black" stroke="black" points="502.766,-931.925 497.636,-922.655 495.865,-933.101 502.766,-931.925"/>
</g>
<!-- FN_Detector_inflow -->
<g id="node44" class="node"><title>FN_Detector_inflow</title>
<ellipse fill="none" stroke="black" cx="369" cy="-1127" rx="7" ry="7"/>
</g>
<!-- FN_Detector_inflow&#45;&gt;FN_Detector -->
<g id="edge58" class="edge"><title>FN_Detector_inflow&#45;&gt;FN_Detector</title>
<path fill="none" stroke="black" d="M369,-1119.57C369,-1112.65 369,-1101.12 369,-1089.78"/>
<polygon fill="black" stroke="black" points="372.5,-1089.56 369,-1079.56 365.5,-1089.56 372.5,-1089.56"/>
</g>
<!-- FN_Sampling_rate_inflow -->
<g id="node45" class="node"><title>FN_Sampling_rate_inflow</title>
<ellipse fill="none" stroke="black" cx="337" cy="-1127" rx="7" ry="7"/>
</g>
<!-- FN_Sampling_rate_inflow&#45;&gt;FN_Sampling_rate -->
<g id="edge59" class="edge"><title>FN_Sampling_rate_inflow&#45;&gt;FN_Sampling_rate</title>
<path fill="none" stroke="black" d="M330.487,-1123.52C313.475,-1117.04 266.156,-1099.02 224.794,-1083.26"/>
<polygon fill="black" stroke="black" points="225.845,-1079.92 215.254,-1079.63 223.354,-1086.46 225.845,-1079.92"/>
</g>
</g>
</svg>
