<?xml version="1.0" encoding="UTF-8" standalone="no"?>
<!DOCTYPE svg PUBLIC "-//W3C//DTD SVG 1.1//EN"
 "http://www.w3.org/Graphics/SVG/1.1/DTD/svg11.dtd">
<!-- Generated by graphviz version 2.38.0 (20140413.2041)
 -->
<!-- Title: yw_data_view Pages: 1 -->
<svg width="468pt" height="987pt"
 viewBox="0.00 0.00 468.00 987.20" xmlns="http://www.w3.org/2000/svg" xmlns:xlink="http://www.w3.org/1999/xlink">
<g id="graph0" class="graph" transform="scale(1 1) rotate(0) translate(4 983.2)">
<title>yw_data_view</title>
<polygon fill="white" stroke="none" points="-4,4 -4,-983.2 464,-983.2 464,4 -4,4"/>
<text text-anchor="middle" x="230" y="-959" font-family="Courier,monospace" font-size="18.00">GRAVITATIONAL_WAVE_DETECTION</text>
<g id="clust1" class="cluster"><title>cluster_workflow</title>
<polygon fill="none" stroke="black" stroke-width="2" points="8,-62 8,-887.6 452,-887.6 452,-62 8,-62"/>
</g>
<g id="clust2" class="cluster"><title>cluster_workflow_inner</title>
<polygon fill="none" stroke="white" stroke-width="2" points="16,-70 16,-879.6 444,-879.6 444,-70 16,-70"/>
</g>
<g id="clust3" class="cluster"><title>cluster_inflows</title>
<polygon fill="none" stroke="white" stroke-width="2" points="284,-895.6 284,-941.6 394,-941.6 394,-895.6 284,-895.6"/>
</g>
<g id="clust4" class="cluster"><title>cluster_inflows_inner</title>
<polygon fill="none" stroke="white" stroke-width="2" points="292,-903.6 292,-933.6 386,-933.6 386,-903.6 292,-903.6"/>
</g>
<g id="clust5" class="cluster"><title>cluster_outflows</title>
<polygon fill="none" stroke="white" stroke-width="2" points="207,-8 207,-54 253,-54 253,-8 207,-8"/>
</g>
<g id="clust6" class="cluster"><title>cluster_outflows_inner</title>
<polygon fill="none" stroke="white" stroke-width="2" points="215,-16 215,-46 245,-46 245,-16 215,-16"/>
</g>
<!-- BANDPASSING -->
<g id="node1" class="node"><title>BANDPASSING</title>
<polygon fill="#ccffcc" stroke="black" points="264.385,-354.2 155.615,-354.2 155.615,-318.2 264.385,-318.2 264.385,-354.2"/>
<text text-anchor="middle" x="210" y="-332" font-family="Courier,monospace" font-size="14.00">BANDPASSING</text>
</g>
<!-- strain_H1_whitenbp -->
<g id="node12" class="node"><title>strain_H1_whitenbp</title>
<path fill="#ffffcc" stroke="black" d="M197.695,-282.2C197.695,-282.2 82.3055,-282.2 82.3055,-282.2 76.3055,-282.2 70.3055,-276.2 70.3055,-270.2 70.3055,-270.2 70.3055,-258.2 70.3055,-258.2 70.3055,-252.2 76.3055,-246.2 82.3055,-246.2 82.3055,-246.2 197.695,-246.2 197.695,-246.2 203.695,-246.2 209.695,-252.2 209.695,-258.2 209.695,-258.2 209.695,-270.2 209.695,-270.2 209.695,-276.2 203.695,-282.2 197.695,-282.2"/>
<text text-anchor="middle" x="140" y="-260" font-family="Helvetica,sans-Serif" font-size="14.00">strain_H1_whitenbp</text>
</g>
<!-- BANDPASSING&#45;&gt;strain_H1_whitenbp -->
<g id="edge18" class="edge"><title>BANDPASSING&#45;&gt;strain_H1_whitenbp</title>
<path fill="none" stroke="black" d="M192.697,-317.897C184.135,-309.335 173.656,-298.856 164.304,-289.504"/>
<polygon fill="black" stroke="black" points="166.65,-286.901 157.104,-282.304 161.701,-291.85 166.65,-286.901"/>
</g>
<!-- strain_L1_whitenbp -->
<g id="node13" class="node"><title>strain_L1_whitenbp</title>
<path fill="#ffffcc" stroke="black" d="M353.871,-282.2C353.871,-282.2 240.129,-282.2 240.129,-282.2 234.129,-282.2 228.129,-276.2 228.129,-270.2 228.129,-270.2 228.129,-258.2 228.129,-258.2 228.129,-252.2 234.129,-246.2 240.129,-246.2 240.129,-246.2 353.871,-246.2 353.871,-246.2 359.871,-246.2 365.871,-252.2 365.871,-258.2 365.871,-258.2 365.871,-270.2 365.871,-270.2 365.871,-276.2 359.871,-282.2 353.871,-282.2"/>
<text text-anchor="middle" x="297" y="-260" font-family="Helvetica,sans-Serif" font-size="14.00">strain_L1_whitenbp</text>
</g>
<!-- BANDPASSING&#45;&gt;strain_L1_whitenbp -->
<g id="edge19" class="edge"><title>BANDPASSING&#45;&gt;strain_L1_whitenbp</title>
<path fill="none" stroke="black" d="M231.506,-317.897C242.463,-309.081 255.946,-298.232 267.825,-288.674"/>
<polygon fill="black" stroke="black" points="270.145,-291.3 275.742,-282.304 265.756,-285.846 270.145,-291.3"/>
</g>
<!-- WHITENING -->
<g id="node2" class="node"><title>WHITENING</title>
<polygon fill="#ccffcc" stroke="black" points="279.588,-498.2 188.412,-498.2 188.412,-462.2 279.588,-462.2 279.588,-498.2"/>
<text text-anchor="middle" x="234" y="-476" font-family="Courier,monospace" font-size="14.00">WHITENING</text>
</g>
<!-- strain_H1_whiten -->
<g id="node10" class="node"><title>strain_H1_whiten</title>
<path fill="#ffffcc" stroke="black" d="M225.129,-426.2C225.129,-426.2 124.871,-426.2 124.871,-426.2 118.871,-426.2 112.871,-420.2 112.871,-414.2 112.871,-414.2 112.871,-402.2 112.871,-402.2 112.871,-396.2 118.871,-390.2 124.871,-390.2 124.871,-390.2 225.129,-390.2 225.129,-390.2 231.129,-390.2 237.129,-396.2 237.129,-402.2 237.129,-402.2 237.129,-414.2 237.129,-414.2 237.129,-420.2 231.129,-426.2 225.129,-426.2"/>
<text text-anchor="middle" x="175" y="-404" font-family="Helvetica,sans-Serif" font-size="14.00">strain_H1_whiten</text>
</g>
<!-- WHITENING&#45;&gt;strain_H1_whiten -->
<g id="edge16" class="edge"><title>WHITENING&#45;&gt;strain_H1_whiten</title>
<path fill="none" stroke="black" d="M219.416,-461.897C212.342,-453.505 203.717,-443.27 195.955,-434.061"/>
<polygon fill="black" stroke="black" points="198.537,-431.695 189.417,-426.304 193.185,-436.206 198.537,-431.695"/>
</g>
<!-- strain_L1_whiten -->
<g id="node11" class="node"><title>strain_L1_whiten</title>
<path fill="#ffffcc" stroke="black" d="M364.805,-426.2C364.805,-426.2 267.195,-426.2 267.195,-426.2 261.195,-426.2 255.195,-420.2 255.195,-414.2 255.195,-414.2 255.195,-402.2 255.195,-402.2 255.195,-396.2 261.195,-390.2 267.195,-390.2 267.195,-390.2 364.805,-390.2 364.805,-390.2 370.805,-390.2 376.805,-396.2 376.805,-402.2 376.805,-402.2 376.805,-414.2 376.805,-414.2 376.805,-420.2 370.805,-426.2 364.805,-426.2"/>
<text text-anchor="middle" x="316" y="-404" font-family="Helvetica,sans-Serif" font-size="14.00">strain_L1_whiten</text>
</g>
<!-- WHITENING&#45;&gt;strain_L1_whiten -->
<g id="edge17" class="edge"><title>WHITENING&#45;&gt;strain_L1_whiten</title>
<path fill="none" stroke="black" d="M254.27,-461.897C264.498,-453.165 277.061,-442.44 288.178,-432.95"/>
<polygon fill="black" stroke="black" points="290.63,-435.459 295.963,-426.304 286.085,-430.135 290.63,-435.459"/>
</g>
<!-- AMPLITUDE_SPECTRAL_DENSITY -->
<g id="node3" class="node"><title>AMPLITUDE_SPECTRAL_DENSITY</title>
<polygon fill="#ccffcc" stroke="black" points="436.364,-642.2 201.636,-642.2 201.636,-606.2 436.364,-606.2 436.364,-642.2"/>
<text text-anchor="middle" x="319" y="-620" font-family="Courier,monospace" font-size="14.00">AMPLITUDE_SPECTRAL_DENSITY</text>
</g>
<!-- PSD_H1 -->
<g id="node8" class="node"><title>PSD_H1</title>
<path fill="#ffffcc" stroke="black" d="M256.453,-570.2C256.453,-570.2 209.547,-570.2 209.547,-570.2 203.547,-570.2 197.547,-564.2 197.547,-558.2 197.547,-558.2 197.547,-546.2 197.547,-546.2 197.547,-540.2 203.547,-534.2 209.547,-534.2 209.547,-534.2 256.453,-534.2 256.453,-534.2 262.453,-534.2 268.453,-540.2 268.453,-546.2 268.453,-546.2 268.453,-558.2 268.453,-558.2 268.453,-564.2 262.453,-570.2 256.453,-570.2"/>
<text text-anchor="middle" x="233" y="-548" font-family="Helvetica,sans-Serif" font-size="14.00">PSD_H1</text>
</g>
<!-- AMPLITUDE_SPECTRAL_DENSITY&#45;&gt;PSD_H1 -->
<g id="edge14" class="edge"><title>AMPLITUDE_SPECTRAL_DENSITY&#45;&gt;PSD_H1</title>
<path fill="none" stroke="black" d="M297.742,-605.897C286.911,-597.081 273.582,-586.232 261.84,-576.674"/>
<polygon fill="black" stroke="black" points="263.979,-573.903 254.014,-570.304 259.56,-579.332 263.979,-573.903"/>
</g>
<!-- PSD_L1 -->
<g id="node9" class="node"><title>PSD_L1</title>
<path fill="#ffffcc" stroke="black" d="M342.128,-570.2C342.128,-570.2 297.872,-570.2 297.872,-570.2 291.872,-570.2 285.872,-564.2 285.872,-558.2 285.872,-558.2 285.872,-546.2 285.872,-546.2 285.872,-540.2 291.872,-534.2 297.872,-534.2 297.872,-534.2 342.128,-534.2 342.128,-534.2 348.128,-534.2 354.128,-540.2 354.128,-546.2 354.128,-546.2 354.128,-558.2 354.128,-558.2 354.128,-564.2 348.128,-570.2 342.128,-570.2"/>
<text text-anchor="middle" x="320" y="-548" font-family="Helvetica,sans-Serif" font-size="14.00">PSD_L1</text>
</g>
<!-- AMPLITUDE_SPECTRAL_DENSITY&#45;&gt;PSD_L1 -->
<g id="edge15" class="edge"><title>AMPLITUDE_SPECTRAL_DENSITY&#45;&gt;PSD_L1</title>
<path fill="none" stroke="black" d="M319.247,-605.897C319.357,-598.183 319.49,-588.912 319.613,-580.312"/>
<polygon fill="black" stroke="black" points="323.112,-580.353 319.756,-570.304 316.113,-580.253 323.112,-580.353"/>
</g>
<!-- LOAD_DATA -->
<g id="node4" class="node"><title>LOAD_DATA</title>
<polygon fill="#ccffcc" stroke="black" points="319.588,-786.2 228.412,-786.2 228.412,-750.2 319.588,-750.2 319.588,-786.2"/>
<text text-anchor="middle" x="274" y="-764" font-family="Courier,monospace" font-size="14.00">LOAD_DATA</text>
</g>
<!-- strain_H1 -->
<g id="node6" class="node"><title>strain_H1</title>
<path fill="#ffffcc" stroke="black" d="M253.895,-714.2C253.895,-714.2 202.105,-714.2 202.105,-714.2 196.105,-714.2 190.105,-708.2 190.105,-702.2 190.105,-702.2 190.105,-690.2 190.105,-690.2 190.105,-684.2 196.105,-678.2 202.105,-678.2 202.105,-678.2 253.895,-678.2 253.895,-678.2 259.895,-678.2 265.895,-684.2 265.895,-690.2 265.895,-690.2 265.895,-702.2 265.895,-702.2 265.895,-708.2 259.895,-714.2 253.895,-714.2"/>
<text text-anchor="middle" x="228" y="-692" font-family="Helvetica,sans-Serif" font-size="14.00">strain_H1</text>
</g>
<!-- LOAD_DATA&#45;&gt;strain_H1 -->
<g id="edge12" class="edge"><title>LOAD_DATA&#45;&gt;strain_H1</title>
<path fill="none" stroke="black" d="M262.629,-749.897C257.282,-741.759 250.796,-731.889 244.889,-722.901"/>
<polygon fill="black" stroke="black" points="247.657,-720.739 239.24,-714.304 241.807,-724.584 247.657,-720.739"/>
</g>
<!-- strain_L1 -->
<g id="node7" class="node"><title>strain_L1</title>
<path fill="#ffffcc" stroke="black" d="M345.572,-714.2C345.572,-714.2 296.428,-714.2 296.428,-714.2 290.428,-714.2 284.428,-708.2 284.428,-702.2 284.428,-702.2 284.428,-690.2 284.428,-690.2 284.428,-684.2 290.428,-678.2 296.428,-678.2 296.428,-678.2 345.572,-678.2 345.572,-678.2 351.572,-678.2 357.572,-684.2 357.572,-690.2 357.572,-690.2 357.572,-702.2 357.572,-702.2 357.572,-708.2 351.572,-714.2 345.572,-714.2"/>
<text text-anchor="middle" x="321" y="-692" font-family="Helvetica,sans-Serif" font-size="14.00">strain_L1</text>
</g>
<!-- LOAD_DATA&#45;&gt;strain_L1 -->
<g id="edge13" class="edge"><title>LOAD_DATA&#45;&gt;strain_L1</title>
<path fill="none" stroke="black" d="M285.618,-749.897C291.139,-741.674 297.847,-731.683 303.932,-722.621"/>
<polygon fill="black" stroke="black" points="306.847,-724.558 309.516,-714.304 301.035,-720.656 306.847,-724.558"/>
</g>
<!-- WAVE_FILE_GENERATOR_FOR_WHITENED_DATA -->
<g id="node5" class="node"><title>WAVE_FILE_GENERATOR_FOR_WHITENED_DATA</title>
<polygon fill="#ccffcc" stroke="black" points="393.248,-210.2 66.7517,-210.2 66.7517,-174.2 393.248,-174.2 393.248,-210.2"/>
<text text-anchor="middle" x="230" y="-188" font-family="Courier,monospace" font-size="14.00">WAVE_FILE_GENERATOR_FOR_WHITENED_DATA</text>
</g>
<!-- whitened_bandpass_wavefile -->
<g id="node16" class="node"><title>whitened_bandpass_wavefile</title>
<path fill="#ffe4b5" stroke="black" d="M139.516,-78.5C139.516,-78.5 320.484,-78.5 320.484,-78.5 326.484,-78.5 332.484,-84.5 332.484,-90.5 332.484,-90.5 332.484,-125.7 332.484,-125.7 332.484,-131.7 326.484,-137.7 320.484,-137.7 320.484,-137.7 139.516,-137.7 139.516,-137.7 133.516,-137.7 127.516,-131.7 127.516,-125.7 127.516,-125.7 127.516,-90.5 127.516,-90.5 127.516,-84.5 133.516,-78.5 139.516,-78.5"/>
<text text-anchor="middle" x="230" y="-125.6" font-family="Courier,monospace" font-weight="bold" font-size="9.00">[data37] whitened_bandpass_wavefile</text>
<polyline fill="none" stroke="black" points="127.516,-118.9 332.484,-118.9 "/>
<text text-anchor="start" x="135.516" y="-106.8" font-family="Courier,monospace" font-weight="bold" font-size="9.00">GW150914_NR_whitenbp.wav</text>
<text text-anchor="start" x="135.516" y="-96" font-family="Courier,monospace" font-weight="bold" font-size="9.00">GW150914_L1_whitenbp.wav</text>
<text text-anchor="start" x="135.516" y="-85.2" font-family="Courier,monospace" font-weight="bold" font-size="9.00">GW150914_H1_whitenbp.wav</text>
</g>
<!-- WAVE_FILE_GENERATOR_FOR_WHITENED_DATA&#45;&gt;whitened_bandpass_wavefile -->
<g id="edge20" class="edge"><title>WAVE_FILE_GENERATOR_FOR_WHITENED_DATA&#45;&gt;whitened_bandpass_wavefile</title>
<path fill="none" stroke="black" d="M230,-174.189C230,-166.545 230,-157.184 230,-147.969"/>
<polygon fill="black" stroke="black" points="233.5,-147.728 230,-137.728 226.5,-147.728 233.5,-147.728"/>
</g>
<!-- strain_H1&#45;&gt;AMPLITUDE_SPECTRAL_DENSITY -->
<g id="edge6" class="edge"><title>strain_H1&#45;&gt;AMPLITUDE_SPECTRAL_DENSITY</title>
<path fill="none" stroke="black" d="M250.494,-677.897C261.955,-669.081 276.058,-658.232 288.484,-648.674"/>
<polygon fill="black" stroke="black" points="290.972,-651.176 296.764,-642.304 286.704,-645.627 290.972,-651.176"/>
</g>
<!-- strain_L1&#45;&gt;AMPLITUDE_SPECTRAL_DENSITY -->
<g id="edge8" class="edge"><title>strain_L1&#45;&gt;AMPLITUDE_SPECTRAL_DENSITY</title>
<path fill="none" stroke="black" d="M320.506,-677.897C320.285,-670.183 320.02,-660.912 319.775,-652.312"/>
<polygon fill="black" stroke="black" points="323.273,-652.2 319.489,-642.304 316.276,-652.4 323.273,-652.2"/>
</g>
<!-- PSD_H1&#45;&gt;WHITENING -->
<g id="edge3" class="edge"><title>PSD_H1&#45;&gt;WHITENING</title>
<path fill="none" stroke="black" d="M233.247,-533.897C233.357,-526.183 233.49,-516.912 233.613,-508.312"/>
<polygon fill="black" stroke="black" points="237.112,-508.353 233.756,-498.304 230.113,-508.253 237.112,-508.353"/>
</g>
<!-- PSD_L1&#45;&gt;WHITENING -->
<g id="edge4" class="edge"><title>PSD_L1&#45;&gt;WHITENING</title>
<path fill="none" stroke="black" d="M298.742,-533.897C287.911,-525.081 274.582,-514.232 262.84,-504.674"/>
<polygon fill="black" stroke="black" points="264.979,-501.903 255.014,-498.304 260.56,-507.332 264.979,-501.903"/>
</g>
<!-- strain_H1_whiten&#45;&gt;BANDPASSING -->
<g id="edge7" class="edge"><title>strain_H1_whiten&#45;&gt;BANDPASSING</title>
<path fill="none" stroke="black" d="M183.652,-389.897C187.636,-381.928 192.45,-372.3 196.868,-363.464"/>
<polygon fill="black" stroke="black" points="200.106,-364.814 201.448,-354.304 193.845,-361.683 200.106,-364.814"/>
</g>
<!-- strain_L1_whiten&#45;&gt;BANDPASSING -->
<g id="edge9" class="edge"><title>strain_L1_whiten&#45;&gt;BANDPASSING</title>
<path fill="none" stroke="black" d="M290.069,-390.076C276.338,-381.008 259.294,-369.752 244.464,-359.959"/>
<polygon fill="black" stroke="black" points="246.304,-356.98 236.03,-354.39 242.446,-362.821 246.304,-356.98"/>
</g>
<!-- strain_H1_whitenbp&#45;&gt;WAVE_FILE_GENERATOR_FOR_WHITENED_DATA -->
<g id="edge10" class="edge"><title>strain_H1_whitenbp&#45;&gt;WAVE_FILE_GENERATOR_FOR_WHITENED_DATA</title>
<path fill="none" stroke="black" d="M162.247,-245.897C173.582,-237.081 187.53,-226.232 199.819,-216.674"/>
<polygon fill="black" stroke="black" points="202.264,-219.207 208.009,-210.304 197.966,-213.681 202.264,-219.207"/>
</g>
<!-- strain_L1_whitenbp&#45;&gt;WAVE_FILE_GENERATOR_FOR_WHITENED_DATA -->
<g id="edge1" class="edge"><title>strain_L1_whitenbp&#45;&gt;WAVE_FILE_GENERATOR_FOR_WHITENED_DATA</title>
<path fill="none" stroke="black" d="M280.438,-245.897C272.325,-237.42 262.412,-227.064 253.529,-217.783"/>
<polygon fill="black" stroke="black" points="255.814,-215.108 246.371,-210.304 250.757,-219.949 255.814,-215.108"/>
</g>
<!-- FN_Detector -->
<g id="node14" class="node"><title>FN_Detector</title>
<path fill="#ffe4b5" stroke="black" d="M253.915,-822.7C253.915,-822.7 424.085,-822.7 424.085,-822.7 430.085,-822.7 436.085,-828.7 436.085,-834.7 436.085,-834.7 436.085,-859.1 436.085,-859.1 436.085,-865.1 430.085,-871.1 424.085,-871.1 424.085,-871.1 253.915,-871.1 253.915,-871.1 247.915,-871.1 241.915,-865.1 241.915,-859.1 241.915,-859.1 241.915,-834.7 241.915,-834.7 241.915,-828.7 247.915,-822.7 253.915,-822.7"/>
<text text-anchor="middle" x="339" y="-859" font-family="Courier,monospace" font-weight="bold" font-size="9.00">[data14] FN_Detector</text>
<polyline fill="none" stroke="black" points="241.915,-852.3 436.085,-852.3 "/>
<text text-anchor="start" x="249.915" y="-840.2" font-family="Courier,monospace" font-weight="bold" font-size="9.00">L&#45;L1_LOSC_4_V1&#45;1126259446&#45;32.hdf5</text>
<text text-anchor="start" x="249.915" y="-829.4" font-family="Courier,monospace" font-weight="bold" font-size="9.00">H&#45;H1_LOSC_4_V1&#45;1126259446&#45;32.hdf5</text>
</g>
<!-- FN_Detector&#45;&gt;LOAD_DATA -->
<g id="edge11" class="edge"><title>FN_Detector&#45;&gt;LOAD_DATA</title>
<path fill="none" stroke="black" d="M319.145,-822.471C311.521,-813.475 302.799,-803.182 295.065,-794.057"/>
<polygon fill="black" stroke="black" points="297.713,-791.767 288.577,-786.401 292.372,-796.293 297.713,-791.767"/>
</g>
<!-- FN_Sampling_rate -->
<g id="node15" class="node"><title>FN_Sampling_rate</title>
<path fill="#ffe4b5" stroke="black" d="M36.2153,-822.7C36.2153,-822.7 211.785,-822.7 211.785,-822.7 217.785,-822.7 223.785,-828.7 223.785,-834.7 223.785,-834.7 223.785,-859.1 223.785,-859.1 223.785,-865.1 217.785,-871.1 211.785,-871.1 211.785,-871.1 36.2153,-871.1 36.2153,-871.1 30.2153,-871.1 24.2153,-865.1 24.2153,-859.1 24.2153,-859.1 24.2153,-834.7 24.2153,-834.7 24.2153,-828.7 30.2153,-822.7 36.2153,-822.7"/>
<text text-anchor="middle" x="124" y="-859" font-family="Courier,monospace" font-weight="bold" font-size="9.00">[data15] FN_Sampling_rate</text>
<polyline fill="none" stroke="black" points="24.2153,-852.3 223.785,-852.3 "/>
<text text-anchor="start" x="32.2153" y="-840.2" font-family="Courier,monospace" font-weight="bold" font-size="9.00">H&#45;H1_LOSC_4_V1&#45;1126259446&#45;32.hdf5</text>
<text text-anchor="start" x="32.2153" y="-829.4" font-family="Courier,monospace" font-weight="bold" font-size="9.00">H&#45;H1_LOSC_16_V1&#45;1126259446&#45;32.hdf5</text>
</g>
<!-- FN_Sampling_rate&#45;&gt;LOAD_DATA -->
<g id="edge2" class="edge"><title>FN_Sampling_rate&#45;&gt;LOAD_DATA</title>
<path fill="none" stroke="black" d="M169.412,-822.679C189.213,-812.554 212.291,-800.754 231.723,-790.818"/>
<polygon fill="black" stroke="black" points="233.343,-793.92 240.653,-786.251 230.156,-787.688 233.343,-793.92"/>
</g>
<!-- whitened_bandpass_wavefile_outflow -->
<g id="node21" class="node"><title>whitened_bandpass_wavefile_outflow</title>
<ellipse fill="none" stroke="black" cx="230" cy="-31" rx="7" ry="7"/>
</g>
<!-- whitened_bandpass_wavefile&#45;&gt;whitened_bandpass_wavefile_outflow -->
<g id="edge24" class="edge"><title>whitened_bandpass_wavefile&#45;&gt;whitened_bandpass_wavefile_outflow</title>
<path fill="none" stroke="black" d="M230,-78.2792C230,-68.1552 230,-57.1351 230,-48.3889"/>
<polygon fill="black" stroke="black" points="233.5,-48.1696 230,-38.1697 226.5,-48.1697 233.5,-48.1696"/>
</g>
<!-- fs -->
<g id="node17" class="node"><title>fs</title>
<path fill="#ffffff" stroke="black" d="M422,-714.2C422,-714.2 392,-714.2 392,-714.2 386,-714.2 380,-708.2 380,-702.2 380,-702.2 380,-690.2 380,-690.2 380,-684.2 386,-678.2 392,-678.2 392,-678.2 422,-678.2 422,-678.2 428,-678.2 434,-684.2 434,-690.2 434,-690.2 434,-702.2 434,-702.2 434,-708.2 428,-714.2 422,-714.2"/>
<text text-anchor="middle" x="407" y="-693.5" font-family="Helvetica,sans-Serif" font-size="9.00">fs</text>
</g>
<!-- fs&#45;&gt;AMPLITUDE_SPECTRAL_DENSITY -->
<g id="edge5" class="edge"><title>fs&#45;&gt;AMPLITUDE_SPECTRAL_DENSITY</title>
<path fill="none" stroke="black" d="M385.247,-677.897C374.164,-669.081 360.526,-658.232 348.51,-648.674"/>
<polygon fill="black" stroke="black" points="350.507,-645.79 340.503,-642.304 346.15,-651.269 350.507,-645.79"/>
</g>
<!-- fs_inflow -->
<g id="node18" class="node"><title>fs_inflow</title>
<ellipse fill="none" stroke="black" cx="371" cy="-918.6" rx="7" ry="7"/>
</g>
<!-- fs_inflow&#45;&gt;fs -->
<g id="edge21" class="edge"><title>fs_inflow&#45;&gt;fs</title>
<path fill="none" stroke="black" d="M378.313,-917.184C393.784,-915.861 429.665,-910.365 445,-887.6 479.259,-836.744 445.64,-762.02 423.313,-723.03"/>
<polygon fill="black" stroke="black" points="426.299,-721.204 418.201,-714.373 420.271,-724.763 426.299,-721.204"/>
</g>
<!-- FN_Detector_inflow -->
<g id="node19" class="node"><title>FN_Detector_inflow</title>
<ellipse fill="none" stroke="black" cx="339" cy="-918.6" rx="7" ry="7"/>
</g>
<!-- FN_Detector_inflow&#45;&gt;FN_Detector -->
<g id="edge22" class="edge"><title>FN_Detector_inflow&#45;&gt;FN_Detector</title>
<path fill="none" stroke="black" d="M339,-911.168C339,-904.253 339,-892.719 339,-881.379"/>
<polygon fill="black" stroke="black" points="342.5,-881.157 339,-871.158 335.5,-881.158 342.5,-881.157"/>
</g>
<!-- FN_Sampling_rate_inflow -->
<g id="node20" class="node"><title>FN_Sampling_rate_inflow</title>
<ellipse fill="none" stroke="black" cx="307" cy="-918.6" rx="7" ry="7"/>
</g>
<!-- FN_Sampling_rate_inflow&#45;&gt;FN_Sampling_rate -->
<g id="edge23" class="edge"><title>FN_Sampling_rate_inflow&#45;&gt;FN_Sampling_rate</title>
<path fill="none" stroke="black" d="M300.487,-915.119C283.475,-908.64 236.156,-890.617 194.794,-874.864"/>
<polygon fill="black" stroke="black" points="195.845,-871.519 185.254,-871.23 193.354,-878.06 195.845,-871.519"/>
</g>
</g>
</svg>
