<?xml version="1.0" encoding="UTF-8" standalone="no"?>
<!DOCTYPE svg PUBLIC "-//W3C//DTD SVG 1.1//EN"
 "http://www.w3.org/Graphics/SVG/1.1/DTD/svg11.dtd">
<!-- Generated by graphviz version 2.38.0 (20140413.2041)
 -->
<!-- Title: yw_data_view Pages: 1 -->
<svg width="374pt" height="1094pt"
 viewBox="0.00 0.00 374.00 1093.60" xmlns="http://www.w3.org/2000/svg" xmlns:xlink="http://www.w3.org/1999/xlink">
<g id="graph0" class="graph" transform="scale(1 1) rotate(0) translate(4 1089.6)">
<title>yw_data_view</title>
<polygon fill="white" stroke="none" points="-4,4 -4,-1089.6 370,-1089.6 370,4 -4,4"/>
<text text-anchor="middle" x="183" y="-1065.4" font-family="Courier,monospace" font-size="18.00">GRAVITATIONAL_WAVE_DETECTION</text>
<g id="clust1" class="cluster"><title>cluster_workflow</title>
<polygon fill="none" stroke="black" stroke-width="2" points="8,-62 8,-994 358,-994 358,-62 8,-62"/>
</g>
<g id="clust2" class="cluster"><title>cluster_workflow_inner</title>
<polygon fill="none" stroke="white" stroke-width="2" points="16,-70 16,-986 350,-986 350,-70 16,-70"/>
</g>
<g id="clust3" class="cluster"><title>cluster_inflows</title>
<polygon fill="none" stroke="white" stroke-width="2" points="171,-1002 171,-1048 281,-1048 281,-1002 171,-1002"/>
</g>
<g id="clust4" class="cluster"><title>cluster_inflows_inner</title>
<polygon fill="none" stroke="white" stroke-width="2" points="179,-1010 179,-1040 273,-1040 273,-1010 179,-1010"/>
</g>
<g id="clust5" class="cluster"><title>cluster_outflows</title>
<polygon fill="none" stroke="white" stroke-width="2" points="160,-8 160,-54 206,-54 206,-8 160,-8"/>
</g>
<g id="clust6" class="cluster"><title>cluster_outflows_inner</title>
<polygon fill="none" stroke="white" stroke-width="2" points="168,-16 168,-46 198,-46 198,-16 168,-16"/>
</g>
<!-- SHIFT_FREQUENCY_BANDPASSED -->
<g id="node1" class="node"><title>SHIFT_FREQUENCY_BANDPASSED</title>
<polygon fill="#ccffcc" stroke="black" points="300.364,-330 65.6361,-330 65.6361,-294 300.364,-294 300.364,-330"/>
<text text-anchor="middle" x="183" y="-307.8" font-family="Courier,monospace" font-size="14.00">SHIFT_FREQUENCY_BANDPASSED</text>
</g>
<!-- strain_H1_shifted -->
<g id="node17" class="node"><title>strain_H1_shifted</title>
<path fill="#ffffcc" stroke="black" d="M162.413,-258C162.413,-258 61.587,-258 61.587,-258 55.587,-258 49.587,-252 49.587,-246 49.587,-246 49.587,-234 49.587,-234 49.587,-228 55.587,-222 61.587,-222 61.587,-222 162.413,-222 162.413,-222 168.413,-222 174.413,-228 174.413,-234 174.413,-234 174.413,-246 174.413,-246 174.413,-252 168.413,-258 162.413,-258"/>
<text text-anchor="middle" x="112" y="-235.8" font-family="Helvetica,sans-Serif" font-size="14.00">strain_H1_shifted</text>
</g>
<!-- SHIFT_FREQUENCY_BANDPASSED&#45;&gt;strain_H1_shifted -->
<g id="edge22" class="edge"><title>SHIFT_FREQUENCY_BANDPASSED&#45;&gt;strain_H1_shifted</title>
<path fill="none" stroke="black" d="M165.449,-293.697C156.766,-285.135 146.137,-274.656 136.652,-265.304"/>
<polygon fill="black" stroke="black" points="138.927,-262.633 129.349,-258.104 134.012,-267.617 138.927,-262.633"/>
</g>
<!-- strain_L1_shifted -->
<g id="node18" class="node"><title>strain_L1_shifted</title>
<path fill="#ffffcc" stroke="black" d="M303.09,-258C303.09,-258 204.91,-258 204.91,-258 198.91,-258 192.91,-252 192.91,-246 192.91,-246 192.91,-234 192.91,-234 192.91,-228 198.91,-222 204.91,-222 204.91,-222 303.09,-222 303.09,-222 309.09,-222 315.09,-228 315.09,-234 315.09,-234 315.09,-246 315.09,-246 315.09,-252 309.09,-258 303.09,-258"/>
<text text-anchor="middle" x="254" y="-235.8" font-family="Helvetica,sans-Serif" font-size="14.00">strain_L1_shifted</text>
</g>
<!-- SHIFT_FREQUENCY_BANDPASSED&#45;&gt;strain_L1_shifted -->
<g id="edge23" class="edge"><title>SHIFT_FREQUENCY_BANDPASSED&#45;&gt;strain_L1_shifted</title>
<path fill="none" stroke="black" d="M200.551,-293.697C209.234,-285.135 219.863,-274.656 229.348,-265.304"/>
<polygon fill="black" stroke="black" points="231.988,-267.617 236.651,-258.104 227.073,-262.633 231.988,-267.617"/>
</g>
<!-- BANDPASSING -->
<g id="node2" class="node"><title>BANDPASSING</title>
<polygon fill="#ccffcc" stroke="black" points="182.385,-474 73.6147,-474 73.6147,-438 182.385,-438 182.385,-474"/>
<text text-anchor="middle" x="128" y="-451.8" font-family="Courier,monospace" font-size="14.00">BANDPASSING</text>
</g>
<!-- strain_H1_whitenbp -->
<g id="node15" class="node"><title>strain_H1_whitenbp</title>
<path fill="#ffffcc" stroke="black" d="M162.695,-402C162.695,-402 47.3055,-402 47.3055,-402 41.3055,-402 35.3055,-396 35.3055,-390 35.3055,-390 35.3055,-378 35.3055,-378 35.3055,-372 41.3055,-366 47.3055,-366 47.3055,-366 162.695,-366 162.695,-366 168.695,-366 174.695,-372 174.695,-378 174.695,-378 174.695,-390 174.695,-390 174.695,-396 168.695,-402 162.695,-402"/>
<text text-anchor="middle" x="105" y="-379.8" font-family="Helvetica,sans-Serif" font-size="14.00">strain_H1_whitenbp</text>
</g>
<!-- BANDPASSING&#45;&gt;strain_H1_whitenbp -->
<g id="edge20" class="edge"><title>BANDPASSING&#45;&gt;strain_H1_whitenbp</title>
<path fill="none" stroke="black" d="M122.315,-437.697C119.752,-429.898 116.667,-420.509 113.815,-411.829"/>
<polygon fill="black" stroke="black" points="117.067,-410.512 110.62,-402.104 110.416,-412.697 117.067,-410.512"/>
</g>
<!-- strain_L1_whitenbp -->
<g id="node16" class="node"><title>strain_L1_whitenbp</title>
<path fill="#ffffcc" stroke="black" d="M318.871,-402C318.871,-402 205.129,-402 205.129,-402 199.129,-402 193.129,-396 193.129,-390 193.129,-390 193.129,-378 193.129,-378 193.129,-372 199.129,-366 205.129,-366 205.129,-366 318.871,-366 318.871,-366 324.871,-366 330.871,-372 330.871,-378 330.871,-378 330.871,-390 330.871,-390 330.871,-396 324.871,-402 318.871,-402"/>
<text text-anchor="middle" x="262" y="-379.8" font-family="Helvetica,sans-Serif" font-size="14.00">strain_L1_whitenbp</text>
</g>
<!-- BANDPASSING&#45;&gt;strain_L1_whitenbp -->
<g id="edge21" class="edge"><title>BANDPASSING&#45;&gt;strain_L1_whitenbp</title>
<path fill="none" stroke="black" d="M160.78,-437.876C178.625,-428.554 200.897,-416.919 220.003,-406.939"/>
<polygon fill="black" stroke="black" points="221.851,-409.922 229.094,-402.19 218.61,-403.718 221.851,-409.922"/>
</g>
<!-- WHITENING -->
<g id="node3" class="node"><title>WHITENING</title>
<polygon fill="#ccffcc" stroke="black" points="250.588,-618 159.412,-618 159.412,-582 250.588,-582 250.588,-618"/>
<text text-anchor="middle" x="205" y="-595.8" font-family="Courier,monospace" font-size="14.00">WHITENING</text>
</g>
<!-- strain_H1_whiten -->
<g id="node13" class="node"><title>strain_H1_whiten</title>
<path fill="#ffffcc" stroke="black" d="M163.129,-546C163.129,-546 62.8709,-546 62.8709,-546 56.8709,-546 50.8709,-540 50.8709,-534 50.8709,-534 50.8709,-522 50.8709,-522 50.8709,-516 56.8709,-510 62.8709,-510 62.8709,-510 163.129,-510 163.129,-510 169.129,-510 175.129,-516 175.129,-522 175.129,-522 175.129,-534 175.129,-534 175.129,-540 169.129,-546 163.129,-546"/>
<text text-anchor="middle" x="113" y="-523.8" font-family="Helvetica,sans-Serif" font-size="14.00">strain_H1_whiten</text>
</g>
<!-- WHITENING&#45;&gt;strain_H1_whiten -->
<g id="edge18" class="edge"><title>WHITENING&#45;&gt;strain_H1_whiten</title>
<path fill="none" stroke="black" d="M182.258,-581.697C170.56,-572.796 156.139,-561.823 143.49,-552.199"/>
<polygon fill="black" stroke="black" points="145.558,-549.374 135.48,-546.104 141.319,-554.945 145.558,-549.374"/>
</g>
<!-- strain_L1_whiten -->
<g id="node14" class="node"><title>strain_L1_whiten</title>
<path fill="#ffffcc" stroke="black" d="M302.805,-546C302.805,-546 205.195,-546 205.195,-546 199.195,-546 193.195,-540 193.195,-534 193.195,-534 193.195,-522 193.195,-522 193.195,-516 199.195,-510 205.195,-510 205.195,-510 302.805,-510 302.805,-510 308.805,-510 314.805,-516 314.805,-522 314.805,-522 314.805,-534 314.805,-534 314.805,-540 308.805,-546 302.805,-546"/>
<text text-anchor="middle" x="254" y="-523.8" font-family="Helvetica,sans-Serif" font-size="14.00">strain_L1_whiten</text>
</g>
<!-- WHITENING&#45;&gt;strain_L1_whiten -->
<g id="edge19" class="edge"><title>WHITENING&#45;&gt;strain_L1_whiten</title>
<path fill="none" stroke="black" d="M217.112,-581.697C222.868,-573.474 229.862,-563.483 236.206,-554.421"/>
<polygon fill="black" stroke="black" points="239.16,-556.304 242.027,-546.104 233.425,-552.29 239.16,-556.304"/>
</g>
<!-- AMPLITUDE_SPECTRAL_DENSITY -->
<g id="node4" class="node"><title>AMPLITUDE_SPECTRAL_DENSITY</title>
<polygon fill="#ccffcc" stroke="black" points="337.364,-762 102.636,-762 102.636,-726 337.364,-726 337.364,-762"/>
<text text-anchor="middle" x="220" y="-739.8" font-family="Courier,monospace" font-size="14.00">AMPLITUDE_SPECTRAL_DENSITY</text>
</g>
<!-- PSD_H1 -->
<g id="node11" class="node"><title>PSD_H1</title>
<path fill="#ffffcc" stroke="black" d="M185.453,-690C185.453,-690 138.547,-690 138.547,-690 132.547,-690 126.547,-684 126.547,-678 126.547,-678 126.547,-666 126.547,-666 126.547,-660 132.547,-654 138.547,-654 138.547,-654 185.453,-654 185.453,-654 191.453,-654 197.453,-660 197.453,-666 197.453,-666 197.453,-678 197.453,-678 197.453,-684 191.453,-690 185.453,-690"/>
<text text-anchor="middle" x="162" y="-667.8" font-family="Helvetica,sans-Serif" font-size="14.00">PSD_H1</text>
</g>
<!-- AMPLITUDE_SPECTRAL_DENSITY&#45;&gt;PSD_H1 -->
<g id="edge16" class="edge"><title>AMPLITUDE_SPECTRAL_DENSITY&#45;&gt;PSD_H1</title>
<path fill="none" stroke="black" d="M205.663,-725.697C198.709,-717.305 190.23,-707.07 182.599,-697.861"/>
<polygon fill="black" stroke="black" points="185.247,-695.571 176.172,-690.104 179.857,-700.038 185.247,-695.571"/>
</g>
<!-- PSD_L1 -->
<g id="node12" class="node"><title>PSD_L1</title>
<path fill="#ffffcc" stroke="black" d="M271.128,-690C271.128,-690 226.872,-690 226.872,-690 220.872,-690 214.872,-684 214.872,-678 214.872,-678 214.872,-666 214.872,-666 214.872,-660 220.872,-654 226.872,-654 226.872,-654 271.128,-654 271.128,-654 277.128,-654 283.128,-660 283.128,-666 283.128,-666 283.128,-678 283.128,-678 283.128,-684 277.128,-690 271.128,-690"/>
<text text-anchor="middle" x="249" y="-667.8" font-family="Helvetica,sans-Serif" font-size="14.00">PSD_L1</text>
</g>
<!-- AMPLITUDE_SPECTRAL_DENSITY&#45;&gt;PSD_L1 -->
<g id="edge17" class="edge"><title>AMPLITUDE_SPECTRAL_DENSITY&#45;&gt;PSD_L1</title>
<path fill="none" stroke="black" d="M227.169,-725.697C230.435,-717.813 234.374,-708.304 238.002,-699.546"/>
<polygon fill="black" stroke="black" points="241.32,-700.683 241.914,-690.104 234.853,-698.003 241.32,-700.683"/>
</g>
<!-- LOAD_DATA -->
<g id="node5" class="node"><title>LOAD_DATA</title>
<polygon fill="#ccffcc" stroke="black" points="218.588,-906 127.412,-906 127.412,-870 218.588,-870 218.588,-906"/>
<text text-anchor="middle" x="173" y="-883.8" font-family="Courier,monospace" font-size="14.00">LOAD_DATA</text>
</g>
<!-- strain_H1 -->
<g id="node9" class="node"><title>strain_H1</title>
<path fill="#ffffcc" stroke="black" d="M152.895,-834C152.895,-834 101.105,-834 101.105,-834 95.1051,-834 89.1051,-828 89.1051,-822 89.1051,-822 89.1051,-810 89.1051,-810 89.1051,-804 95.1051,-798 101.105,-798 101.105,-798 152.895,-798 152.895,-798 158.895,-798 164.895,-804 164.895,-810 164.895,-810 164.895,-822 164.895,-822 164.895,-828 158.895,-834 152.895,-834"/>
<text text-anchor="middle" x="127" y="-811.8" font-family="Helvetica,sans-Serif" font-size="14.00">strain_H1</text>
</g>
<!-- LOAD_DATA&#45;&gt;strain_H1 -->
<g id="edge14" class="edge"><title>LOAD_DATA&#45;&gt;strain_H1</title>
<path fill="none" stroke="black" d="M161.629,-869.697C156.282,-861.559 149.796,-851.689 143.889,-842.701"/>
<polygon fill="black" stroke="black" points="146.657,-840.539 138.24,-834.104 140.807,-844.384 146.657,-840.539"/>
</g>
<!-- strain_L1 -->
<g id="node10" class="node"><title>strain_L1</title>
<path fill="#ffffcc" stroke="black" d="M244.572,-834C244.572,-834 195.428,-834 195.428,-834 189.428,-834 183.428,-828 183.428,-822 183.428,-822 183.428,-810 183.428,-810 183.428,-804 189.428,-798 195.428,-798 195.428,-798 244.572,-798 244.572,-798 250.572,-798 256.572,-804 256.572,-810 256.572,-810 256.572,-822 256.572,-822 256.572,-828 250.572,-834 244.572,-834"/>
<text text-anchor="middle" x="220" y="-811.8" font-family="Helvetica,sans-Serif" font-size="14.00">strain_L1</text>
</g>
<!-- LOAD_DATA&#45;&gt;strain_L1 -->
<g id="edge15" class="edge"><title>LOAD_DATA&#45;&gt;strain_L1</title>
<path fill="none" stroke="black" d="M184.618,-869.697C190.139,-861.474 196.847,-851.483 202.932,-842.421"/>
<polygon fill="black" stroke="black" points="205.847,-844.358 208.516,-834.104 200.035,-840.456 205.847,-844.358"/>
</g>
<!-- WAVE_FILE_GENERATOR_FOR_SHIFTED_DATA -->
<g id="node6" class="node"><title>WAVE_FILE_GENERATOR_FOR_SHIFTED_DATA</title>
<polygon fill="#ccffcc" stroke="black" points="342.35,-186 23.6502,-186 23.6502,-150 342.35,-150 342.35,-186"/>
<text text-anchor="middle" x="183" y="-163.8" font-family="Courier,monospace" font-size="14.00">WAVE_FILE_GENERATOR_FOR_SHIFTED_DATA</text>
</g>
<!-- shifted_wavefile -->
<g id="node19" class="node"><title>shifted_wavefile</title>
<path fill="#ffffcc" stroke="black" d="M228.577,-114C228.577,-114 137.423,-114 137.423,-114 131.423,-114 125.423,-108 125.423,-102 125.423,-102 125.423,-90 125.423,-90 125.423,-84 131.423,-78 137.423,-78 137.423,-78 228.577,-78 228.577,-78 234.577,-78 240.577,-84 240.577,-90 240.577,-90 240.577,-102 240.577,-102 240.577,-108 234.577,-114 228.577,-114"/>
<text text-anchor="middle" x="183" y="-91.8" font-family="Helvetica,sans-Serif" font-size="14.00">shifted_wavefile</text>
</g>
<!-- WAVE_FILE_GENERATOR_FOR_SHIFTED_DATA&#45;&gt;shifted_wavefile -->
<g id="edge24" class="edge"><title>WAVE_FILE_GENERATOR_FOR_SHIFTED_DATA&#45;&gt;shifted_wavefile</title>
<path fill="none" stroke="black" d="M183,-149.697C183,-141.983 183,-132.712 183,-124.112"/>
<polygon fill="black" stroke="black" points="186.5,-124.104 183,-114.104 179.5,-124.104 186.5,-124.104"/>
</g>
<!-- FN_Detector -->
<g id="node7" class="node"><title>FN_Detector</title>
<path fill="#ffffcc" stroke="black" d="M261.839,-978C261.839,-978 190.161,-978 190.161,-978 184.161,-978 178.161,-972 178.161,-966 178.161,-966 178.161,-954 178.161,-954 178.161,-948 184.161,-942 190.161,-942 190.161,-942 261.839,-942 261.839,-942 267.839,-942 273.839,-948 273.839,-954 273.839,-954 273.839,-966 273.839,-966 273.839,-972 267.839,-978 261.839,-978"/>
<text text-anchor="middle" x="226" y="-955.8" font-family="Helvetica,sans-Serif" font-size="14.00">FN_Detector</text>
</g>
<!-- FN_Detector&#45;&gt;LOAD_DATA -->
<g id="edge12" class="edge"><title>FN_Detector&#45;&gt;LOAD_DATA</title>
<path fill="none" stroke="black" d="M212.899,-941.697C206.609,-933.389 198.953,-923.277 192.035,-914.141"/>
<polygon fill="black" stroke="black" points="194.777,-911.964 185.95,-906.104 189.196,-916.19 194.777,-911.964"/>
</g>
<!-- FN_Sampling_rate -->
<g id="node8" class="node"><title>FN_Sampling_rate</title>
<path fill="#ffffcc" stroke="black" d="M148.182,-978C148.182,-978 39.818,-978 39.818,-978 33.818,-978 27.818,-972 27.818,-966 27.818,-966 27.818,-954 27.818,-954 27.818,-948 33.818,-942 39.818,-942 39.818,-942 148.182,-942 148.182,-942 154.182,-942 160.182,-948 160.182,-954 160.182,-954 160.182,-966 160.182,-966 160.182,-972 154.182,-978 148.182,-978"/>
<text text-anchor="middle" x="94" y="-955.8" font-family="Helvetica,sans-Serif" font-size="14.00">FN_Sampling_rate</text>
</g>
<!-- FN_Sampling_rate&#45;&gt;LOAD_DATA -->
<g id="edge1" class="edge"><title>FN_Sampling_rate&#45;&gt;LOAD_DATA</title>
<path fill="none" stroke="black" d="M113.528,-941.697C123.382,-932.965 135.486,-922.24 146.196,-912.75"/>
<polygon fill="black" stroke="black" points="148.533,-915.356 153.697,-906.104 143.891,-910.117 148.533,-915.356"/>
</g>
<!-- strain_H1&#45;&gt;AMPLITUDE_SPECTRAL_DENSITY -->
<g id="edge5" class="edge"><title>strain_H1&#45;&gt;AMPLITUDE_SPECTRAL_DENSITY</title>
<path fill="none" stroke="black" d="M149.989,-797.697C161.814,-788.796 176.392,-777.823 189.179,-768.199"/>
<polygon fill="black" stroke="black" points="191.391,-770.915 197.276,-762.104 187.181,-765.322 191.391,-770.915"/>
</g>
<!-- strain_L1&#45;&gt;AMPLITUDE_SPECTRAL_DENSITY -->
<g id="edge7" class="edge"><title>strain_L1&#45;&gt;AMPLITUDE_SPECTRAL_DENSITY</title>
<path fill="none" stroke="black" d="M220,-797.697C220,-789.983 220,-780.712 220,-772.112"/>
<polygon fill="black" stroke="black" points="223.5,-772.104 220,-762.104 216.5,-772.104 223.5,-772.104"/>
</g>
<!-- PSD_H1&#45;&gt;WHITENING -->
<g id="edge2" class="edge"><title>PSD_H1&#45;&gt;WHITENING</title>
<path fill="none" stroke="black" d="M172.629,-653.697C177.628,-645.559 183.691,-635.689 189.212,-626.701"/>
<polygon fill="black" stroke="black" points="192.241,-628.457 194.493,-618.104 186.277,-624.793 192.241,-628.457"/>
</g>
<!-- PSD_L1&#45;&gt;WHITENING -->
<g id="edge3" class="edge"><title>PSD_L1&#45;&gt;WHITENING</title>
<path fill="none" stroke="black" d="M238.124,-653.697C233.008,-645.559 226.805,-635.689 221.155,-626.701"/>
<polygon fill="black" stroke="black" points="224.036,-624.708 215.751,-618.104 218.11,-628.433 224.036,-624.708"/>
</g>
<!-- strain_H1_whiten&#45;&gt;BANDPASSING -->
<g id="edge6" class="edge"><title>strain_H1_whiten&#45;&gt;BANDPASSING</title>
<path fill="none" stroke="black" d="M116.708,-509.697C118.361,-501.983 120.347,-492.712 122.19,-484.112"/>
<polygon fill="black" stroke="black" points="125.662,-484.616 124.335,-474.104 118.817,-483.149 125.662,-484.616"/>
</g>
<!-- strain_L1_whiten&#45;&gt;BANDPASSING -->
<g id="edge8" class="edge"><title>strain_L1_whiten&#45;&gt;BANDPASSING</title>
<path fill="none" stroke="black" d="M223.177,-509.876C206.55,-500.639 185.835,-489.131 167.981,-479.212"/>
<polygon fill="black" stroke="black" points="169.383,-475.987 158.942,-474.19 165.983,-482.106 169.383,-475.987"/>
</g>
<!-- strain_H1_whitenbp&#45;&gt;SHIFT_FREQUENCY_BANDPASSED -->
<g id="edge10" class="edge"><title>strain_H1_whitenbp&#45;&gt;SHIFT_FREQUENCY_BANDPASSED</title>
<path fill="none" stroke="black" d="M124.281,-365.697C133.915,-357.05 145.729,-346.449 156.227,-337.027"/>
<polygon fill="black" stroke="black" points="158.836,-339.388 163.941,-330.104 154.161,-334.179 158.836,-339.388"/>
</g>
<!-- strain_L1_whitenbp&#45;&gt;SHIFT_FREQUENCY_BANDPASSED -->
<g id="edge13" class="edge"><title>strain_L1_whitenbp&#45;&gt;SHIFT_FREQUENCY_BANDPASSED</title>
<path fill="none" stroke="black" d="M242.472,-365.697C232.618,-356.965 220.514,-346.24 209.804,-336.75"/>
<polygon fill="black" stroke="black" points="212.109,-334.117 202.303,-330.104 207.467,-339.356 212.109,-334.117"/>
</g>
<!-- strain_H1_shifted&#45;&gt;WAVE_FILE_GENERATOR_FOR_SHIFTED_DATA -->
<g id="edge9" class="edge"><title>strain_H1_shifted&#45;&gt;WAVE_FILE_GENERATOR_FOR_SHIFTED_DATA</title>
<path fill="none" stroke="black" d="M129.551,-221.697C138.234,-213.135 148.863,-202.656 158.348,-193.304"/>
<polygon fill="black" stroke="black" points="160.988,-195.617 165.651,-186.104 156.073,-190.633 160.988,-195.617"/>
</g>
<!-- strain_L1_shifted&#45;&gt;WAVE_FILE_GENERATOR_FOR_SHIFTED_DATA -->
<g id="edge11" class="edge"><title>strain_L1_shifted&#45;&gt;WAVE_FILE_GENERATOR_FOR_SHIFTED_DATA</title>
<path fill="none" stroke="black" d="M236.449,-221.697C227.766,-213.135 217.137,-202.656 207.652,-193.304"/>
<polygon fill="black" stroke="black" points="209.927,-190.633 200.349,-186.104 205.012,-195.617 209.927,-190.633"/>
</g>
<!-- shifted_wavefile_outflow -->
<g id="node24" class="node"><title>shifted_wavefile_outflow</title>
<ellipse fill="none" stroke="black" cx="183" cy="-31" rx="7" ry="7"/>
</g>
<!-- shifted_wavefile&#45;&gt;shifted_wavefile_outflow -->
<g id="edge28" class="edge"><title>shifted_wavefile&#45;&gt;shifted_wavefile_outflow</title>
<path fill="none" stroke="black" d="M183,-77.785C183,-68.6656 183,-57.5197 183,-48.5085"/>
<polygon fill="black" stroke="black" points="186.5,-48.242 183,-38.242 179.5,-48.2421 186.5,-48.242"/>
</g>
<!-- fs -->
<g id="node20" class="node"><title>fs</title>
<path fill="#ffffff" stroke="black" d="M317,-834C317,-834 287,-834 287,-834 281,-834 275,-828 275,-822 275,-822 275,-810 275,-810 275,-804 281,-798 287,-798 287,-798 317,-798 317,-798 323,-798 329,-804 329,-810 329,-810 329,-822 329,-822 329,-828 323,-834 317,-834"/>
<text text-anchor="middle" x="302" y="-811.8" font-family="Helvetica,sans-Serif" font-size="14.00">fs</text>
</g>
<!-- fs&#45;&gt;AMPLITUDE_SPECTRAL_DENSITY -->
<g id="edge4" class="edge"><title>fs&#45;&gt;AMPLITUDE_SPECTRAL_DENSITY</title>
<path fill="none" stroke="black" d="M281.73,-797.697C271.502,-788.965 258.939,-778.24 247.822,-768.75"/>
<polygon fill="black" stroke="black" points="249.915,-765.935 240.037,-762.104 245.37,-771.259 249.915,-765.935"/>
</g>
<!-- fs_inflow -->
<g id="node21" class="node"><title>fs_inflow</title>
<ellipse fill="none" stroke="black" cx="258" cy="-1025" rx="7" ry="7"/>
</g>
<!-- fs_inflow&#45;&gt;fs -->
<g id="edge25" class="edge"><title>fs_inflow&#45;&gt;fs</title>
<path fill="none" stroke="black" d="M262.839,-1019.9C268.729,-1014.59 278.45,-1004.74 283,-994 304.037,-944.358 305.226,-880.178 303.848,-844.327"/>
<polygon fill="black" stroke="black" points="307.336,-843.977 303.358,-834.157 300.344,-844.314 307.336,-843.977"/>
</g>
<!-- FN_Detector_inflow -->
<g id="node22" class="node"><title>FN_Detector_inflow</title>
<ellipse fill="none" stroke="black" cx="226" cy="-1025" rx="7" ry="7"/>
</g>
<!-- FN_Detector_inflow&#45;&gt;FN_Detector -->
<g id="edge26" class="edge"><title>FN_Detector_inflow&#45;&gt;FN_Detector</title>
<path fill="none" stroke="black" d="M226,-1017.73C226,-1010.79 226,-999.154 226,-988.215"/>
<polygon fill="black" stroke="black" points="229.5,-988.119 226,-978.119 222.5,-988.119 229.5,-988.119"/>
</g>
<!-- FN_Sampling_rate_inflow -->
<g id="node23" class="node"><title>FN_Sampling_rate_inflow</title>
<ellipse fill="none" stroke="black" cx="194" cy="-1025" rx="7" ry="7"/>
</g>
<!-- FN_Sampling_rate_inflow&#45;&gt;FN_Sampling_rate -->
<g id="edge27" class="edge"><title>FN_Sampling_rate_inflow&#45;&gt;FN_Sampling_rate</title>
<path fill="none" stroke="black" d="M188.337,-1020.43C177.225,-1013.43 151.757,-997.387 130.081,-983.731"/>
<polygon fill="black" stroke="black" points="131.712,-980.622 121.385,-978.253 127.981,-986.545 131.712,-980.622"/>
</g>
</g>
</svg>
