<?xml version="1.0" encoding="UTF-8" standalone="no"?>
<!DOCTYPE svg PUBLIC "-//W3C//DTD SVG 1.1//EN"
 "http://www.w3.org/Graphics/SVG/1.1/DTD/svg11.dtd">
<!-- Generated by graphviz version 2.38.0 (20140413.2041)
 -->
<!-- Title: yw_data_view Pages: 1 -->
<svg width="326pt" height="518pt"
 viewBox="0.00 0.00 326.35 517.60" xmlns="http://www.w3.org/2000/svg" xmlns:xlink="http://www.w3.org/1999/xlink">
<g id="graph0" class="graph" transform="scale(1 1) rotate(0) translate(4 513.6)">
<title>yw_data_view</title>
<polygon fill="white" stroke="none" points="-4,4 -4,-513.6 322.35,-513.6 322.35,4 -4,4"/>
<text text-anchor="middle" x="159.175" y="-489.4" font-family="Courier,monospace" font-size="18.00">GRAVITATIONAL_WAVE_DETECTION</text>
<g id="clust1" class="cluster"><title>cluster_workflow</title>
<polygon fill="none" stroke="black" stroke-width="2" points="17.1748,-62 17.1748,-418 301.175,-418 301.175,-62 17.1748,-62"/>
</g>
<g id="clust2" class="cluster"><title>cluster_workflow_inner</title>
<polygon fill="none" stroke="white" stroke-width="2" points="25.1748,-70 25.1748,-410 293.175,-410 293.175,-70 25.1748,-70"/>
</g>
<g id="clust3" class="cluster"><title>cluster_inflows</title>
<polygon fill="none" stroke="white" stroke-width="2" points="176.175,-426 176.175,-472 286.175,-472 286.175,-426 176.175,-426"/>
</g>
<g id="clust4" class="cluster"><title>cluster_inflows_inner</title>
<polygon fill="none" stroke="white" stroke-width="2" points="184.175,-434 184.175,-464 278.175,-464 278.175,-434 184.175,-434"/>
</g>
<g id="clust5" class="cluster"><title>cluster_outflows</title>
<polygon fill="none" stroke="white" stroke-width="2" points="136.175,-8 136.175,-54 182.175,-54 182.175,-8 136.175,-8"/>
</g>
<g id="clust6" class="cluster"><title>cluster_outflows_inner</title>
<polygon fill="none" stroke="white" stroke-width="2" points="144.175,-16 144.175,-46 174.175,-46 174.175,-16 144.175,-16"/>
</g>
<!-- LOAD_DATA -->
<g id="node1" class="node"><title>LOAD_DATA</title>
<polygon fill="#ccffcc" stroke="black" points="176.763,-330 85.5865,-330 85.5865,-294 176.763,-294 176.763,-330"/>
<text text-anchor="middle" x="131.175" y="-307.8" font-family="Courier,monospace" font-size="14.00">LOAD_DATA</text>
</g>
<!-- strain_H1 -->
<g id="node5" class="node"><title>strain_H1</title>
<path fill="#ffffcc" stroke="black" d="M103.07,-258C103.07,-258 51.2799,-258 51.2799,-258 45.2799,-258 39.2799,-252 39.2799,-246 39.2799,-246 39.2799,-234 39.2799,-234 39.2799,-228 45.2799,-222 51.2799,-222 51.2799,-222 103.07,-222 103.07,-222 109.07,-222 115.07,-228 115.07,-234 115.07,-234 115.07,-246 115.07,-246 115.07,-252 109.07,-258 103.07,-258"/>
<text text-anchor="middle" x="77.1748" y="-235.8" font-family="Helvetica,sans-Serif" font-size="14.00">strain_H1</text>
</g>
<!-- LOAD_DATA&#45;&gt;strain_H1 -->
<g id="edge6" class="edge"><title>LOAD_DATA&#45;&gt;strain_H1</title>
<path fill="none" stroke="black" d="M117.826,-293.697C111.418,-285.389 103.617,-275.277 96.5691,-266.141"/>
<polygon fill="black" stroke="black" points="99.2489,-263.884 90.3696,-258.104 93.7064,-268.16 99.2489,-263.884"/>
</g>
<!-- strain_L1 -->
<g id="node6" class="node"><title>strain_L1</title>
<path fill="#ffffcc" stroke="black" d="M194.747,-258C194.747,-258 145.603,-258 145.603,-258 139.603,-258 133.603,-252 133.603,-246 133.603,-246 133.603,-234 133.603,-234 133.603,-228 139.603,-222 145.603,-222 145.603,-222 194.747,-222 194.747,-222 200.747,-222 206.747,-228 206.747,-234 206.747,-234 206.747,-246 206.747,-246 206.747,-252 200.747,-258 194.747,-258"/>
<text text-anchor="middle" x="170.175" y="-235.8" font-family="Helvetica,sans-Serif" font-size="14.00">strain_L1</text>
</g>
<!-- LOAD_DATA&#45;&gt;strain_L1 -->
<g id="edge7" class="edge"><title>LOAD_DATA&#45;&gt;strain_L1</title>
<path fill="none" stroke="black" d="M140.815,-293.697C145.302,-285.644 150.734,-275.894 155.699,-266.982"/>
<polygon fill="black" stroke="black" points="158.836,-268.544 160.645,-258.104 152.721,-265.137 158.836,-268.544"/>
</g>
<!-- SPECTROGRAMS_FOR_STRAIN_DATA -->
<g id="node2" class="node"><title>SPECTROGRAMS_FOR_STRAIN_DATA</title>
<polygon fill="#ccffcc" stroke="black" points="284.836,-186 33.5139,-186 33.5139,-150 284.836,-150 284.836,-186"/>
<text text-anchor="middle" x="159.175" y="-163.8" font-family="Courier,monospace" font-size="14.00">SPECTROGRAMS_FOR_STRAIN_DATA</text>
</g>
<!-- spectrogram -->
<g id="node7" class="node"><title>spectrogram</title>
<path fill="#ffffcc" stroke="black" d="M193.96,-114C193.96,-114 124.389,-114 124.389,-114 118.389,-114 112.389,-108 112.389,-102 112.389,-102 112.389,-90 112.389,-90 112.389,-84 118.389,-78 124.389,-78 124.389,-78 193.96,-78 193.96,-78 199.96,-78 205.96,-84 205.96,-90 205.96,-90 205.96,-102 205.96,-102 205.96,-108 199.96,-114 193.96,-114"/>
<text text-anchor="middle" x="159.175" y="-91.8" font-family="Helvetica,sans-Serif" font-size="14.00">spectrogram</text>
</g>
<!-- SPECTROGRAMS_FOR_STRAIN_DATA&#45;&gt;spectrogram -->
<g id="edge8" class="edge"><title>SPECTROGRAMS_FOR_STRAIN_DATA&#45;&gt;spectrogram</title>
<path fill="none" stroke="black" d="M159.175,-149.697C159.175,-141.983 159.175,-132.712 159.175,-124.112"/>
<polygon fill="black" stroke="black" points="162.675,-124.104 159.175,-114.104 155.675,-124.104 162.675,-124.104"/>
</g>
<!-- FN_Detector -->
<g id="node3" class="node"><title>FN_Detector</title>
<path fill="#ffffcc" stroke="black" d="M267.013,-402C267.013,-402 195.336,-402 195.336,-402 189.336,-402 183.336,-396 183.336,-390 183.336,-390 183.336,-378 183.336,-378 183.336,-372 189.336,-366 195.336,-366 195.336,-366 267.013,-366 267.013,-366 273.013,-366 279.013,-372 279.013,-378 279.013,-378 279.013,-390 279.013,-390 279.013,-396 273.013,-402 267.013,-402"/>
<text text-anchor="middle" x="231.175" y="-379.8" font-family="Helvetica,sans-Serif" font-size="14.00">FN_Detector</text>
</g>
<!-- FN_Detector&#45;&gt;LOAD_DATA -->
<g id="edge5" class="edge"><title>FN_Detector&#45;&gt;LOAD_DATA</title>
<path fill="none" stroke="black" d="M206.712,-365.876C193.879,-356.893 177.978,-345.763 164.081,-336.034"/>
<polygon fill="black" stroke="black" points="165.931,-333.057 155.732,-330.19 161.917,-338.792 165.931,-333.057"/>
</g>
<!-- FN_Sampling_rate -->
<g id="node4" class="node"><title>FN_Sampling_rate</title>
<path fill="#ffffcc" stroke="black" d="M153.357,-402C153.357,-402 44.9928,-402 44.9928,-402 38.9928,-402 32.9928,-396 32.9928,-390 32.9928,-390 32.9928,-378 32.9928,-378 32.9928,-372 38.9928,-366 44.9928,-366 44.9928,-366 153.357,-366 153.357,-366 159.357,-366 165.357,-372 165.357,-378 165.357,-378 165.357,-390 165.357,-390 165.357,-396 159.357,-402 153.357,-402"/>
<text text-anchor="middle" x="99.1748" y="-379.8" font-family="Helvetica,sans-Serif" font-size="14.00">FN_Sampling_rate</text>
</g>
<!-- FN_Sampling_rate&#45;&gt;LOAD_DATA -->
<g id="edge4" class="edge"><title>FN_Sampling_rate&#45;&gt;LOAD_DATA</title>
<path fill="none" stroke="black" d="M107.085,-365.697C110.728,-357.728 115.129,-348.1 119.168,-339.264"/>
<polygon fill="black" stroke="black" points="122.381,-340.654 123.356,-330.104 116.015,-337.744 122.381,-340.654"/>
</g>
<!-- strain_H1&#45;&gt;SPECTROGRAMS_FOR_STRAIN_DATA -->
<g id="edge3" class="edge"><title>strain_H1&#45;&gt;SPECTROGRAMS_FOR_STRAIN_DATA</title>
<path fill="none" stroke="black" d="M97.4445,-221.697C107.672,-212.965 120.236,-202.24 131.353,-192.75"/>
<polygon fill="black" stroke="black" points="133.805,-195.259 139.138,-186.104 129.26,-189.935 133.805,-195.259"/>
</g>
<!-- strain_L1&#45;&gt;SPECTROGRAMS_FOR_STRAIN_DATA -->
<g id="edge2" class="edge"><title>strain_L1&#45;&gt;SPECTROGRAMS_FOR_STRAIN_DATA</title>
<path fill="none" stroke="black" d="M167.456,-221.697C166.244,-213.983 164.787,-204.712 163.435,-196.112"/>
<polygon fill="black" stroke="black" points="166.873,-195.44 161.863,-186.104 159.958,-196.526 166.873,-195.44"/>
</g>
<!-- spectrogram_outflow -->
<g id="node12" class="node"><title>spectrogram_outflow</title>
<ellipse fill="none" stroke="black" cx="159.175" cy="-31" rx="7" ry="7"/>
</g>
<!-- spectrogram&#45;&gt;spectrogram_outflow -->
<g id="edge12" class="edge"><title>spectrogram&#45;&gt;spectrogram_outflow</title>
<path fill="none" stroke="black" d="M159.175,-77.785C159.175,-68.6656 159.175,-57.5197 159.175,-48.5085"/>
<polygon fill="black" stroke="black" points="162.675,-48.242 159.175,-38.242 155.675,-48.2421 162.675,-48.242"/>
</g>
<!-- fs -->
<g id="node8" class="node"><title>fs</title>
<path fill="#ffffff" stroke="black" d="M270.175,-258C270.175,-258 240.175,-258 240.175,-258 234.175,-258 228.175,-252 228.175,-246 228.175,-246 228.175,-234 228.175,-234 228.175,-228 234.175,-222 240.175,-222 240.175,-222 270.175,-222 270.175,-222 276.175,-222 282.175,-228 282.175,-234 282.175,-234 282.175,-246 282.175,-246 282.175,-252 276.175,-258 270.175,-258"/>
<text text-anchor="middle" x="255.175" y="-235.8" font-family="Helvetica,sans-Serif" font-size="14.00">fs</text>
</g>
<!-- fs&#45;&gt;SPECTROGRAMS_FOR_STRAIN_DATA -->
<g id="edge1" class="edge"><title>fs&#45;&gt;SPECTROGRAMS_FOR_STRAIN_DATA</title>
<path fill="none" stroke="black" d="M231.444,-221.697C219.238,-212.796 204.19,-201.823 190.99,-192.199"/>
<polygon fill="black" stroke="black" points="192.774,-189.168 182.632,-186.104 188.65,-194.824 192.774,-189.168"/>
</g>
<!-- fs_inflow -->
<g id="node9" class="node"><title>fs_inflow</title>
<ellipse fill="none" stroke="black" cx="263.175" cy="-449" rx="7" ry="7"/>
</g>
<!-- fs_inflow&#45;&gt;fs -->
<g id="edge9" class="edge"><title>fs_inflow&#45;&gt;fs</title>
<path fill="none" stroke="black" d="M268.201,-443.971C274.284,-438.738 284.205,-428.965 288.175,-418 306.85,-366.418 284.411,-302.374 268.452,-267.197"/>
<polygon fill="black" stroke="black" points="271.585,-265.635 264.162,-258.075 265.25,-268.614 271.585,-265.635"/>
</g>
<!-- FN_Detector_inflow -->
<g id="node10" class="node"><title>FN_Detector_inflow</title>
<ellipse fill="none" stroke="black" cx="231.175" cy="-449" rx="7" ry="7"/>
</g>
<!-- FN_Detector_inflow&#45;&gt;FN_Detector -->
<g id="edge10" class="edge"><title>FN_Detector_inflow&#45;&gt;FN_Detector</title>
<path fill="none" stroke="black" d="M231.175,-441.729C231.175,-434.795 231.175,-423.154 231.175,-412.215"/>
<polygon fill="black" stroke="black" points="234.675,-412.119 231.175,-402.119 227.675,-412.119 234.675,-412.119"/>
</g>
<!-- FN_Sampling_rate_inflow -->
<g id="node11" class="node"><title>FN_Sampling_rate_inflow</title>
<ellipse fill="none" stroke="black" cx="199.175" cy="-449" rx="7" ry="7"/>
</g>
<!-- FN_Sampling_rate_inflow&#45;&gt;FN_Sampling_rate -->
<g id="edge11" class="edge"><title>FN_Sampling_rate_inflow&#45;&gt;FN_Sampling_rate</title>
<path fill="none" stroke="black" d="M193.512,-444.432C182.4,-437.432 156.932,-421.387 135.256,-407.731"/>
<polygon fill="black" stroke="black" points="136.887,-404.622 126.56,-402.253 133.155,-410.545 136.887,-404.622"/>
</g>
</g>
</svg>
