<?xml version="1.0" encoding="UTF-8" standalone="no"?>
<!DOCTYPE svg PUBLIC "-//W3C//DTD SVG 1.1//EN"
 "http://www.w3.org/Graphics/SVG/1.1/DTD/svg11.dtd">
<!-- Generated by graphviz version 2.38.0 (20140413.2041)
 -->
<!-- Title: yw_data_view Pages: 1 -->
<svg width="326pt" height="176pt"
 viewBox="0.00 0.00 326.35 175.60" xmlns="http://www.w3.org/2000/svg" xmlns:xlink="http://www.w3.org/1999/xlink">
<g id="graph0" class="graph" transform="scale(1 1) rotate(0) translate(4 171.6)">
<title>yw_data_view</title>
<polygon fill="white" stroke="none" points="-4,4 -4,-171.6 322.35,-171.6 322.35,4 -4,4"/>
<text text-anchor="middle" x="159.175" y="-147.4" font-family="Courier,monospace" font-size="18.00">GRAVITATIONAL_WAVE_DETECTION</text>
<g id="clust1" class="cluster"><title>cluster_workflow</title>
<polygon fill="none" stroke="black" stroke-width="2" points="95.1748,-8 95.1748,-76 223.175,-76 223.175,-8 95.1748,-8"/>
</g>
<g id="clust2" class="cluster"><title>cluster_workflow_inner</title>
<polygon fill="none" stroke="white" stroke-width="2" points="103.175,-16 103.175,-68 215.175,-68 215.175,-16 103.175,-16"/>
</g>
<g id="clust3" class="cluster"><title>cluster_inflows</title>
<polygon fill="none" stroke="white" stroke-width="2" points="136.175,-84 136.175,-130 182.175,-130 182.175,-84 136.175,-84"/>
</g>
<g id="clust4" class="cluster"><title>cluster_inflows_inner</title>
<polygon fill="none" stroke="white" stroke-width="2" points="144.175,-92 144.175,-122 174.175,-122 174.175,-92 144.175,-92"/>
</g>
<!-- FN_Detector -->
<g id="node1" class="node"><title>FN_Detector</title>
<path fill="#ffffcc" stroke="black" d="M195.013,-60C195.013,-60 123.336,-60 123.336,-60 117.336,-60 111.336,-54 111.336,-48 111.336,-48 111.336,-36 111.336,-36 111.336,-30 117.336,-24 123.336,-24 123.336,-24 195.013,-24 195.013,-24 201.013,-24 207.013,-30 207.013,-36 207.013,-36 207.013,-48 207.013,-48 207.013,-54 201.013,-60 195.013,-60"/>
<text text-anchor="middle" x="159.175" y="-37.8" font-family="Helvetica,sans-Serif" font-size="14.00">FN_Detector</text>
</g>
<!-- FN_Detector_inflow -->
<g id="node2" class="node"><title>FN_Detector_inflow</title>
<ellipse fill="none" stroke="black" cx="159.175" cy="-107" rx="7" ry="7"/>
</g>
<!-- FN_Detector_inflow&#45;&gt;FN_Detector -->
<g id="edge1" class="edge"><title>FN_Detector_inflow&#45;&gt;FN_Detector</title>
<path fill="none" stroke="black" d="M159.175,-99.729C159.175,-92.7948 159.175,-81.1535 159.175,-70.2147"/>
<polygon fill="black" stroke="black" points="162.675,-70.1188 159.175,-60.1188 155.675,-70.1189 162.675,-70.1188"/>
</g>
</g>
</svg>
