<?xml version="1.0" encoding="UTF-8" standalone="no"?>
<!DOCTYPE svg PUBLIC "-//W3C//DTD SVG 1.1//EN"
 "http://www.w3.org/Graphics/SVG/1.1/DTD/svg11.dtd">
<!-- Generated by graphviz version 2.38.0 (20140413.2041)
 -->
<!-- Title: yw_data_view Pages: 1 -->
<svg width="374pt" height="518pt"
 viewBox="0.00 0.00 374.00 517.60" xmlns="http://www.w3.org/2000/svg" xmlns:xlink="http://www.w3.org/1999/xlink">
<g id="graph0" class="graph" transform="scale(1 1) rotate(0) translate(4 513.6)">
<title>yw_data_view</title>
<polygon fill="white" stroke="none" points="-4,4 -4,-513.6 370,-513.6 370,4 -4,4"/>
<text text-anchor="middle" x="183" y="-489.4" font-family="Courier,monospace" font-size="18.00">GRAVITATIONAL_WAVE_DETECTION</text>
<g id="clust1" class="cluster"><title>cluster_workflow</title>
<polygon fill="none" stroke="black" stroke-width="2" points="8,-62 8,-418 358,-418 358,-62 8,-62"/>
</g>
<g id="clust2" class="cluster"><title>cluster_workflow_inner</title>
<polygon fill="none" stroke="white" stroke-width="2" points="16,-70 16,-410 350,-410 350,-70 16,-70"/>
</g>
<g id="clust3" class="cluster"><title>cluster_inflows</title>
<polygon fill="none" stroke="white" stroke-width="2" points="107,-426 107,-472 217,-472 217,-426 107,-426"/>
</g>
<g id="clust4" class="cluster"><title>cluster_inflows_inner</title>
<polygon fill="none" stroke="white" stroke-width="2" points="115,-434 115,-464 209,-464 209,-434 115,-434"/>
</g>
<g id="clust5" class="cluster"><title>cluster_outflows</title>
<polygon fill="none" stroke="white" stroke-width="2" points="175,-8 175,-54 221,-54 221,-8 175,-8"/>
</g>
<g id="clust6" class="cluster"><title>cluster_outflows_inner</title>
<polygon fill="none" stroke="white" stroke-width="2" points="183,-16 183,-46 213,-46 213,-16 183,-16"/>
</g>
<!-- FILTER_COEFS -->
<g id="node1" class="node"><title>FILTER_COEFS</title>
<polygon fill="#ccffcc" stroke="black" points="140.283,-330 23.7166,-330 23.7166,-294 140.283,-294 140.283,-330"/>
<text text-anchor="middle" x="82" y="-307.8" font-family="Courier,monospace" font-size="14.00">FILTER_COEFS</text>
</g>
<!-- COEFFICIENTS -->
<g id="node8" class="node"><title>COEFFICIENTS</title>
<path fill="#ffffcc" stroke="black" d="M130.16,-258C130.16,-258 35.8403,-258 35.8403,-258 29.8403,-258 23.8403,-252 23.8403,-246 23.8403,-246 23.8403,-234 23.8403,-234 23.8403,-228 29.8403,-222 35.8403,-222 35.8403,-222 130.16,-222 130.16,-222 136.16,-222 142.16,-228 142.16,-234 142.16,-234 142.16,-246 142.16,-246 142.16,-252 136.16,-258 130.16,-258"/>
<text text-anchor="middle" x="83" y="-235.8" font-family="Helvetica,sans-Serif" font-size="14.00">COEFFICIENTS</text>
</g>
<!-- FILTER_COEFS&#45;&gt;COEFFICIENTS -->
<g id="edge9" class="edge"><title>FILTER_COEFS&#45;&gt;COEFFICIENTS</title>
<path fill="none" stroke="black" d="M82.2472,-293.697C82.3574,-285.983 82.4898,-276.712 82.6127,-268.112"/>
<polygon fill="black" stroke="black" points="86.1124,-268.153 82.7557,-258.104 79.1131,-268.053 86.1124,-268.153"/>
</g>
<!-- LOAD_DATA -->
<g id="node2" class="node"><title>LOAD_DATA</title>
<polygon fill="#ccffcc" stroke="black" points="292.588,-330 201.412,-330 201.412,-294 292.588,-294 292.588,-330"/>
<text text-anchor="middle" x="247" y="-307.8" font-family="Courier,monospace" font-size="14.00">LOAD_DATA</text>
</g>
<!-- strain_H1 -->
<g id="node6" class="node"><title>strain_H1</title>
<path fill="#ffffcc" stroke="black" d="M223.895,-258C223.895,-258 172.105,-258 172.105,-258 166.105,-258 160.105,-252 160.105,-246 160.105,-246 160.105,-234 160.105,-234 160.105,-228 166.105,-222 172.105,-222 172.105,-222 223.895,-222 223.895,-222 229.895,-222 235.895,-228 235.895,-234 235.895,-234 235.895,-246 235.895,-246 235.895,-252 229.895,-258 223.895,-258"/>
<text text-anchor="middle" x="198" y="-235.8" font-family="Helvetica,sans-Serif" font-size="14.00">strain_H1</text>
</g>
<!-- LOAD_DATA&#45;&gt;strain_H1 -->
<g id="edge7" class="edge"><title>LOAD_DATA&#45;&gt;strain_H1</title>
<path fill="none" stroke="black" d="M234.888,-293.697C229.132,-285.474 222.138,-275.483 215.794,-266.421"/>
<polygon fill="black" stroke="black" points="218.575,-264.29 209.973,-258.104 212.84,-268.304 218.575,-264.29"/>
</g>
<!-- strain_L1 -->
<g id="node7" class="node"><title>strain_L1</title>
<path fill="#ffffcc" stroke="black" d="M315.572,-258C315.572,-258 266.428,-258 266.428,-258 260.428,-258 254.428,-252 254.428,-246 254.428,-246 254.428,-234 254.428,-234 254.428,-228 260.428,-222 266.428,-222 266.428,-222 315.572,-222 315.572,-222 321.572,-222 327.572,-228 327.572,-234 327.572,-234 327.572,-246 327.572,-246 327.572,-252 321.572,-258 315.572,-258"/>
<text text-anchor="middle" x="291" y="-235.8" font-family="Helvetica,sans-Serif" font-size="14.00">strain_L1</text>
</g>
<!-- LOAD_DATA&#45;&gt;strain_L1 -->
<g id="edge8" class="edge"><title>LOAD_DATA&#45;&gt;strain_L1</title>
<path fill="none" stroke="black" d="M257.876,-293.697C262.992,-285.559 269.195,-275.689 274.845,-266.701"/>
<polygon fill="black" stroke="black" points="277.89,-268.433 280.249,-258.104 271.964,-264.708 277.89,-268.433"/>
</g>
<!-- FILTER_DATA -->
<g id="node3" class="node"><title>FILTER_DATA</title>
<polygon fill="#ccffcc" stroke="black" points="252.385,-186 143.615,-186 143.615,-150 252.385,-150 252.385,-186"/>
<text text-anchor="middle" x="198" y="-163.8" font-family="Courier,monospace" font-size="14.00">FILTER_DATA</text>
</g>
<!-- filtered_white_noise_data -->
<g id="node9" class="node"><title>filtered_white_noise_data</title>
<path fill="#ffffcc" stroke="black" d="M273.213,-114C273.213,-114 122.787,-114 122.787,-114 116.787,-114 110.787,-108 110.787,-102 110.787,-102 110.787,-90 110.787,-90 110.787,-84 116.787,-78 122.787,-78 122.787,-78 273.213,-78 273.213,-78 279.213,-78 285.213,-84 285.213,-90 285.213,-90 285.213,-102 285.213,-102 285.213,-108 279.213,-114 273.213,-114"/>
<text text-anchor="middle" x="198" y="-91.8" font-family="Helvetica,sans-Serif" font-size="14.00">filtered_white_noise_data</text>
</g>
<!-- FILTER_DATA&#45;&gt;filtered_white_noise_data -->
<g id="edge10" class="edge"><title>FILTER_DATA&#45;&gt;filtered_white_noise_data</title>
<path fill="none" stroke="black" d="M198,-149.697C198,-141.983 198,-132.712 198,-124.112"/>
<polygon fill="black" stroke="black" points="201.5,-124.104 198,-114.104 194.5,-124.104 201.5,-124.104"/>
</g>
<!-- FN_Detector -->
<g id="node4" class="node"><title>FN_Detector</title>
<path fill="#ffffcc" stroke="black" d="M329.839,-402C329.839,-402 258.161,-402 258.161,-402 252.161,-402 246.161,-396 246.161,-390 246.161,-390 246.161,-378 246.161,-378 246.161,-372 252.161,-366 258.161,-366 258.161,-366 329.839,-366 329.839,-366 335.839,-366 341.839,-372 341.839,-378 341.839,-378 341.839,-390 341.839,-390 341.839,-396 335.839,-402 329.839,-402"/>
<text text-anchor="middle" x="294" y="-379.8" font-family="Helvetica,sans-Serif" font-size="14.00">FN_Detector</text>
</g>
<!-- FN_Detector&#45;&gt;LOAD_DATA -->
<g id="edge6" class="edge"><title>FN_Detector&#45;&gt;LOAD_DATA</title>
<path fill="none" stroke="black" d="M282.382,-365.697C276.861,-357.474 270.153,-347.483 264.068,-338.421"/>
<polygon fill="black" stroke="black" points="266.965,-336.456 258.484,-330.104 261.153,-340.358 266.965,-336.456"/>
</g>
<!-- FN_Sampling_rate -->
<g id="node5" class="node"><title>FN_Sampling_rate</title>
<path fill="#ffffcc" stroke="black" d="M216.182,-402C216.182,-402 107.818,-402 107.818,-402 101.818,-402 95.818,-396 95.818,-390 95.818,-390 95.818,-378 95.818,-378 95.818,-372 101.818,-366 107.818,-366 107.818,-366 216.182,-366 216.182,-366 222.182,-366 228.182,-372 228.182,-378 228.182,-378 228.182,-390 228.182,-390 228.182,-396 222.182,-402 216.182,-402"/>
<text text-anchor="middle" x="162" y="-379.8" font-family="Helvetica,sans-Serif" font-size="14.00">FN_Sampling_rate</text>
</g>
<!-- FN_Sampling_rate&#45;&gt;LOAD_DATA -->
<g id="edge5" class="edge"><title>FN_Sampling_rate&#45;&gt;LOAD_DATA</title>
<path fill="none" stroke="black" d="M183.011,-365.697C193.716,-356.881 206.89,-346.032 218.496,-336.474"/>
<polygon fill="black" stroke="black" points="220.736,-339.163 226.23,-330.104 216.286,-333.76 220.736,-339.163"/>
</g>
<!-- strain_H1&#45;&gt;FILTER_DATA -->
<g id="edge4" class="edge"><title>strain_H1&#45;&gt;FILTER_DATA</title>
<path fill="none" stroke="black" d="M198,-221.697C198,-213.983 198,-204.712 198,-196.112"/>
<polygon fill="black" stroke="black" points="201.5,-196.104 198,-186.104 194.5,-196.104 201.5,-196.104"/>
</g>
<!-- strain_L1&#45;&gt;FILTER_DATA -->
<g id="edge3" class="edge"><title>strain_L1&#45;&gt;FILTER_DATA</title>
<path fill="none" stroke="black" d="M268.011,-221.697C256.186,-212.796 241.608,-201.823 228.821,-192.199"/>
<polygon fill="black" stroke="black" points="230.819,-189.322 220.724,-186.104 226.609,-194.915 230.819,-189.322"/>
</g>
<!-- COEFFICIENTS&#45;&gt;FILTER_DATA -->
<g id="edge1" class="edge"><title>COEFFICIENTS&#45;&gt;FILTER_DATA</title>
<path fill="none" stroke="black" d="M111.132,-221.876C126.168,-212.724 144.867,-201.342 161.06,-191.485"/>
<polygon fill="black" stroke="black" points="163.038,-194.379 169.76,-186.19 159.398,-188.4 163.038,-194.379"/>
</g>
<!-- filtered_white_noise_data_outflow -->
<g id="node14" class="node"><title>filtered_white_noise_data_outflow</title>
<ellipse fill="none" stroke="black" cx="198" cy="-31" rx="7" ry="7"/>
</g>
<!-- filtered_white_noise_data&#45;&gt;filtered_white_noise_data_outflow -->
<g id="edge14" class="edge"><title>filtered_white_noise_data&#45;&gt;filtered_white_noise_data_outflow</title>
<path fill="none" stroke="black" d="M198,-77.785C198,-68.6656 198,-57.5197 198,-48.5085"/>
<polygon fill="black" stroke="black" points="201.5,-48.242 198,-38.242 194.5,-48.2421 201.5,-48.242"/>
</g>
<!-- fs -->
<g id="node10" class="node"><title>fs</title>
<path fill="#ffffff" stroke="black" d="M66,-402C66,-402 36,-402 36,-402 30,-402 24,-396 24,-390 24,-390 24,-378 24,-378 24,-372 30,-366 36,-366 36,-366 66,-366 66,-366 72,-366 78,-372 78,-378 78,-378 78,-390 78,-390 78,-396 72,-402 66,-402"/>
<text text-anchor="middle" x="51" y="-379.8" font-family="Helvetica,sans-Serif" font-size="14.00">fs</text>
</g>
<!-- fs&#45;&gt;FILTER_COEFS -->
<g id="edge2" class="edge"><title>fs&#45;&gt;FILTER_COEFS</title>
<path fill="none" stroke="black" d="M58.6629,-365.697C62.1917,-357.728 66.4559,-348.1 70.3687,-339.264"/>
<polygon fill="black" stroke="black" points="73.5761,-340.665 74.4252,-330.104 67.1757,-337.831 73.5761,-340.665"/>
</g>
<!-- fs_inflow -->
<g id="node11" class="node"><title>fs_inflow</title>
<ellipse fill="none" stroke="black" cx="130" cy="-449" rx="7" ry="7"/>
</g>
<!-- fs_inflow&#45;&gt;fs -->
<g id="edge11" class="edge"><title>fs_inflow&#45;&gt;fs</title>
<path fill="none" stroke="black" d="M124.539,-444.526C116.208,-439.152 99.928,-428.36 87,-418 83.4809,-415.18 79.8702,-412.107 76.3577,-409.009"/>
<polygon fill="black" stroke="black" points="78.6662,-406.378 68.8992,-402.272 73.9741,-411.572 78.6662,-406.378"/>
</g>
<!-- FN_Detector_inflow -->
<g id="node12" class="node"><title>FN_Detector_inflow</title>
<ellipse fill="none" stroke="black" cx="194" cy="-449" rx="7" ry="7"/>
</g>
<!-- FN_Detector_inflow&#45;&gt;FN_Detector -->
<g id="edge12" class="edge"><title>FN_Detector_inflow&#45;&gt;FN_Detector</title>
<path fill="none" stroke="black" d="M199.663,-444.432C210.775,-437.432 236.243,-421.387 257.919,-407.731"/>
<polygon fill="black" stroke="black" points="260.019,-410.545 266.615,-402.253 256.288,-404.622 260.019,-410.545"/>
</g>
<!-- FN_Sampling_rate_inflow -->
<g id="node13" class="node"><title>FN_Sampling_rate_inflow</title>
<ellipse fill="none" stroke="black" cx="162" cy="-449" rx="7" ry="7"/>
</g>
<!-- FN_Sampling_rate_inflow&#45;&gt;FN_Sampling_rate -->
<g id="edge13" class="edge"><title>FN_Sampling_rate_inflow&#45;&gt;FN_Sampling_rate</title>
<path fill="none" stroke="black" d="M162,-441.729C162,-434.795 162,-423.154 162,-412.215"/>
<polygon fill="black" stroke="black" points="165.5,-412.119 162,-402.119 158.5,-412.119 165.5,-412.119"/>
</g>
</g>
</svg>
