<?xml version="1.0" encoding="UTF-8" standalone="no"?>
<!DOCTYPE svg PUBLIC "-//W3C//DTD SVG 1.1//EN"
 "http://www.w3.org/Graphics/SVG/1.1/DTD/svg11.dtd">
<!-- Generated by graphviz version 2.38.0 (20140413.2041)
 -->
<!-- Title: yw_data_view Pages: 1 -->
<svg width="382pt" height="950pt"
 viewBox="0.00 0.00 382.00 949.60" xmlns="http://www.w3.org/2000/svg" xmlns:xlink="http://www.w3.org/1999/xlink">
<g id="graph0" class="graph" transform="scale(1 1) rotate(0) translate(4 945.6)">
<title>yw_data_view</title>
<polygon fill="white" stroke="none" points="-4,4 -4,-945.6 378,-945.6 378,4 -4,4"/>
<text text-anchor="middle" x="187" y="-921.4" font-family="Courier,monospace" font-size="18.00">GRAVITATIONAL_WAVE_DETECTION</text>
<g id="clust1" class="cluster"><title>cluster_workflow</title>
<polygon fill="none" stroke="black" stroke-width="2" points="8,-62 8,-850 366,-850 366,-62 8,-62"/>
</g>
<g id="clust2" class="cluster"><title>cluster_workflow_inner</title>
<polygon fill="none" stroke="white" stroke-width="2" points="16,-70 16,-842 358,-842 358,-70 16,-70"/>
</g>
<g id="clust3" class="cluster"><title>cluster_inflows</title>
<polygon fill="none" stroke="white" stroke-width="2" points="175,-858 175,-904 285,-904 285,-858 175,-858"/>
</g>
<g id="clust4" class="cluster"><title>cluster_inflows_inner</title>
<polygon fill="none" stroke="white" stroke-width="2" points="183,-866 183,-896 277,-896 277,-866 183,-866"/>
</g>
<g id="clust5" class="cluster"><title>cluster_outflows</title>
<polygon fill="none" stroke="white" stroke-width="2" points="164,-8 164,-54 210,-54 210,-8 164,-8"/>
</g>
<g id="clust6" class="cluster"><title>cluster_outflows_inner</title>
<polygon fill="none" stroke="white" stroke-width="2" points="172,-16 172,-46 202,-46 202,-16 172,-16"/>
</g>
<!-- BANDPASSING -->
<g id="node1" class="node"><title>BANDPASSING</title>
<polygon fill="#ccffcc" stroke="black" points="190.385,-330 81.6147,-330 81.6147,-294 190.385,-294 190.385,-330"/>
<text text-anchor="middle" x="136" y="-307.8" font-family="Courier,monospace" font-size="14.00">BANDPASSING</text>
</g>
<!-- strain_H1_whitenbp -->
<g id="node14" class="node"><title>strain_H1_whitenbp</title>
<path fill="#ffffcc" stroke="black" d="M166.695,-258C166.695,-258 51.3055,-258 51.3055,-258 45.3055,-258 39.3055,-252 39.3055,-246 39.3055,-246 39.3055,-234 39.3055,-234 39.3055,-228 45.3055,-222 51.3055,-222 51.3055,-222 166.695,-222 166.695,-222 172.695,-222 178.695,-228 178.695,-234 178.695,-234 178.695,-246 178.695,-246 178.695,-252 172.695,-258 166.695,-258"/>
<text text-anchor="middle" x="109" y="-235.8" font-family="Helvetica,sans-Serif" font-size="14.00">strain_H1_whitenbp</text>
</g>
<!-- BANDPASSING&#45;&gt;strain_H1_whitenbp -->
<g id="edge18" class="edge"><title>BANDPASSING&#45;&gt;strain_H1_whitenbp</title>
<path fill="none" stroke="black" d="M129.326,-293.697C126.285,-285.813 122.617,-276.304 119.239,-267.546"/>
<polygon fill="black" stroke="black" points="122.462,-266.175 115.597,-258.104 115.931,-268.694 122.462,-266.175"/>
</g>
<!-- strain_L1_whitenbp -->
<g id="node15" class="node"><title>strain_L1_whitenbp</title>
<path fill="#ffffcc" stroke="black" d="M322.871,-258C322.871,-258 209.129,-258 209.129,-258 203.129,-258 197.129,-252 197.129,-246 197.129,-246 197.129,-234 197.129,-234 197.129,-228 203.129,-222 209.129,-222 209.129,-222 322.871,-222 322.871,-222 328.871,-222 334.871,-228 334.871,-234 334.871,-234 334.871,-246 334.871,-246 334.871,-252 328.871,-258 322.871,-258"/>
<text text-anchor="middle" x="266" y="-235.8" font-family="Helvetica,sans-Serif" font-size="14.00">strain_L1_whitenbp</text>
</g>
<!-- BANDPASSING&#45;&gt;strain_L1_whitenbp -->
<g id="edge19" class="edge"><title>BANDPASSING&#45;&gt;strain_L1_whitenbp</title>
<path fill="none" stroke="black" d="M167.802,-293.876C185.114,-284.554 206.721,-272.919 225.256,-262.939"/>
<polygon fill="black" stroke="black" points="226.931,-266.012 234.076,-258.19 223.612,-259.849 226.931,-266.012"/>
</g>
<!-- WHITENING -->
<g id="node2" class="node"><title>WHITENING</title>
<polygon fill="#ccffcc" stroke="black" points="252.588,-474 161.412,-474 161.412,-438 252.588,-438 252.588,-474"/>
<text text-anchor="middle" x="207" y="-451.8" font-family="Courier,monospace" font-size="14.00">WHITENING</text>
</g>
<!-- strain_H1_whiten -->
<g id="node12" class="node"><title>strain_H1_whiten</title>
<path fill="#ffffcc" stroke="black" d="M169.129,-402C169.129,-402 68.8709,-402 68.8709,-402 62.8709,-402 56.8709,-396 56.8709,-390 56.8709,-390 56.8709,-378 56.8709,-378 56.8709,-372 62.8709,-366 68.8709,-366 68.8709,-366 169.129,-366 169.129,-366 175.129,-366 181.129,-372 181.129,-378 181.129,-378 181.129,-390 181.129,-390 181.129,-396 175.129,-402 169.129,-402"/>
<text text-anchor="middle" x="119" y="-379.8" font-family="Helvetica,sans-Serif" font-size="14.00">strain_H1_whiten</text>
</g>
<!-- WHITENING&#45;&gt;strain_H1_whiten -->
<g id="edge16" class="edge"><title>WHITENING&#45;&gt;strain_H1_whiten</title>
<path fill="none" stroke="black" d="M185.247,-437.697C174.164,-428.881 160.526,-418.032 148.51,-408.474"/>
<polygon fill="black" stroke="black" points="150.507,-405.59 140.503,-402.104 146.15,-411.069 150.507,-405.59"/>
</g>
<!-- strain_L1_whiten -->
<g id="node13" class="node"><title>strain_L1_whiten</title>
<path fill="#ffffcc" stroke="black" d="M308.805,-402C308.805,-402 211.195,-402 211.195,-402 205.195,-402 199.195,-396 199.195,-390 199.195,-390 199.195,-378 199.195,-378 199.195,-372 205.195,-366 211.195,-366 211.195,-366 308.805,-366 308.805,-366 314.805,-366 320.805,-372 320.805,-378 320.805,-378 320.805,-390 320.805,-390 320.805,-396 314.805,-402 308.805,-402"/>
<text text-anchor="middle" x="260" y="-379.8" font-family="Helvetica,sans-Serif" font-size="14.00">strain_L1_whiten</text>
</g>
<!-- WHITENING&#45;&gt;strain_L1_whiten -->
<g id="edge17" class="edge"><title>WHITENING&#45;&gt;strain_L1_whiten</title>
<path fill="none" stroke="black" d="M220.101,-437.697C226.391,-429.389 234.047,-419.277 240.965,-410.141"/>
<polygon fill="black" stroke="black" points="243.804,-412.19 247.05,-402.104 238.223,-407.964 243.804,-412.19"/>
</g>
<!-- AMPLITUDE_SPECTRAL_DENSITY -->
<g id="node3" class="node"><title>AMPLITUDE_SPECTRAL_DENSITY</title>
<polygon fill="#ccffcc" stroke="black" points="341.364,-618 106.636,-618 106.636,-582 341.364,-582 341.364,-618"/>
<text text-anchor="middle" x="224" y="-595.8" font-family="Courier,monospace" font-size="14.00">AMPLITUDE_SPECTRAL_DENSITY</text>
</g>
<!-- PSD_H1 -->
<g id="node10" class="node"><title>PSD_H1</title>
<path fill="#ffffcc" stroke="black" d="M187.453,-546C187.453,-546 140.547,-546 140.547,-546 134.547,-546 128.547,-540 128.547,-534 128.547,-534 128.547,-522 128.547,-522 128.547,-516 134.547,-510 140.547,-510 140.547,-510 187.453,-510 187.453,-510 193.453,-510 199.453,-516 199.453,-522 199.453,-522 199.453,-534 199.453,-534 199.453,-540 193.453,-546 187.453,-546"/>
<text text-anchor="middle" x="164" y="-523.8" font-family="Helvetica,sans-Serif" font-size="14.00">PSD_H1</text>
</g>
<!-- AMPLITUDE_SPECTRAL_DENSITY&#45;&gt;PSD_H1 -->
<g id="edge14" class="edge"><title>AMPLITUDE_SPECTRAL_DENSITY&#45;&gt;PSD_H1</title>
<path fill="none" stroke="black" d="M209.169,-581.697C201.975,-573.305 193.203,-563.07 185.31,-553.861"/>
<polygon fill="black" stroke="black" points="187.826,-551.419 178.661,-546.104 182.511,-555.975 187.826,-551.419"/>
</g>
<!-- PSD_L1 -->
<g id="node11" class="node"><title>PSD_L1</title>
<path fill="#ffffcc" stroke="black" d="M273.128,-546C273.128,-546 228.872,-546 228.872,-546 222.872,-546 216.872,-540 216.872,-534 216.872,-534 216.872,-522 216.872,-522 216.872,-516 222.872,-510 228.872,-510 228.872,-510 273.128,-510 273.128,-510 279.128,-510 285.128,-516 285.128,-522 285.128,-522 285.128,-534 285.128,-534 285.128,-540 279.128,-546 273.128,-546"/>
<text text-anchor="middle" x="251" y="-523.8" font-family="Helvetica,sans-Serif" font-size="14.00">PSD_L1</text>
</g>
<!-- AMPLITUDE_SPECTRAL_DENSITY&#45;&gt;PSD_L1 -->
<g id="edge15" class="edge"><title>AMPLITUDE_SPECTRAL_DENSITY&#45;&gt;PSD_L1</title>
<path fill="none" stroke="black" d="M230.674,-581.697C233.715,-573.813 237.383,-564.304 240.761,-555.546"/>
<polygon fill="black" stroke="black" points="244.069,-556.694 244.403,-546.104 237.538,-554.175 244.069,-556.694"/>
</g>
<!-- LOAD_DATA -->
<g id="node4" class="node"><title>LOAD_DATA</title>
<polygon fill="#ccffcc" stroke="black" points="222.588,-762 131.412,-762 131.412,-726 222.588,-726 222.588,-762"/>
<text text-anchor="middle" x="177" y="-739.8" font-family="Courier,monospace" font-size="14.00">LOAD_DATA</text>
</g>
<!-- strain_H1 -->
<g id="node8" class="node"><title>strain_H1</title>
<path fill="#ffffcc" stroke="black" d="M156.895,-690C156.895,-690 105.105,-690 105.105,-690 99.1051,-690 93.1051,-684 93.1051,-678 93.1051,-678 93.1051,-666 93.1051,-666 93.1051,-660 99.1051,-654 105.105,-654 105.105,-654 156.895,-654 156.895,-654 162.895,-654 168.895,-660 168.895,-666 168.895,-666 168.895,-678 168.895,-678 168.895,-684 162.895,-690 156.895,-690"/>
<text text-anchor="middle" x="131" y="-667.8" font-family="Helvetica,sans-Serif" font-size="14.00">strain_H1</text>
</g>
<!-- LOAD_DATA&#45;&gt;strain_H1 -->
<g id="edge12" class="edge"><title>LOAD_DATA&#45;&gt;strain_H1</title>
<path fill="none" stroke="black" d="M165.629,-725.697C160.282,-717.559 153.796,-707.689 147.889,-698.701"/>
<polygon fill="black" stroke="black" points="150.657,-696.539 142.24,-690.104 144.807,-700.384 150.657,-696.539"/>
</g>
<!-- strain_L1 -->
<g id="node9" class="node"><title>strain_L1</title>
<path fill="#ffffcc" stroke="black" d="M248.572,-690C248.572,-690 199.428,-690 199.428,-690 193.428,-690 187.428,-684 187.428,-678 187.428,-678 187.428,-666 187.428,-666 187.428,-660 193.428,-654 199.428,-654 199.428,-654 248.572,-654 248.572,-654 254.572,-654 260.572,-660 260.572,-666 260.572,-666 260.572,-678 260.572,-678 260.572,-684 254.572,-690 248.572,-690"/>
<text text-anchor="middle" x="224" y="-667.8" font-family="Helvetica,sans-Serif" font-size="14.00">strain_L1</text>
</g>
<!-- LOAD_DATA&#45;&gt;strain_L1 -->
<g id="edge13" class="edge"><title>LOAD_DATA&#45;&gt;strain_L1</title>
<path fill="none" stroke="black" d="M188.618,-725.697C194.139,-717.474 200.847,-707.483 206.932,-698.421"/>
<polygon fill="black" stroke="black" points="209.847,-700.358 212.516,-690.104 204.035,-696.456 209.847,-700.358"/>
</g>
<!-- WAVE_FILE_GENERATOR_FOR_WHITENED_DATA -->
<g id="node5" class="node"><title>WAVE_FILE_GENERATOR_FOR_WHITENED_DATA</title>
<polygon fill="#ccffcc" stroke="black" points="350.248,-186 23.7517,-186 23.7517,-150 350.248,-150 350.248,-186"/>
<text text-anchor="middle" x="187" y="-163.8" font-family="Courier,monospace" font-size="14.00">WAVE_FILE_GENERATOR_FOR_WHITENED_DATA</text>
</g>
<!-- whitened_bandpass_wavefile -->
<g id="node16" class="node"><title>whitened_bandpass_wavefile</title>
<path fill="#ffffcc" stroke="black" d="M274.336,-114C274.336,-114 99.6641,-114 99.6641,-114 93.6641,-114 87.6641,-108 87.6641,-102 87.6641,-102 87.6641,-90 87.6641,-90 87.6641,-84 93.6641,-78 99.6641,-78 99.6641,-78 274.336,-78 274.336,-78 280.336,-78 286.336,-84 286.336,-90 286.336,-90 286.336,-102 286.336,-102 286.336,-108 280.336,-114 274.336,-114"/>
<text text-anchor="middle" x="187" y="-91.8" font-family="Helvetica,sans-Serif" font-size="14.00">whitened_bandpass_wavefile</text>
</g>
<!-- WAVE_FILE_GENERATOR_FOR_WHITENED_DATA&#45;&gt;whitened_bandpass_wavefile -->
<g id="edge20" class="edge"><title>WAVE_FILE_GENERATOR_FOR_WHITENED_DATA&#45;&gt;whitened_bandpass_wavefile</title>
<path fill="none" stroke="black" d="M187,-149.697C187,-141.983 187,-132.712 187,-124.112"/>
<polygon fill="black" stroke="black" points="190.5,-124.104 187,-114.104 183.5,-124.104 190.5,-124.104"/>
</g>
<!-- FN_Detector -->
<g id="node6" class="node"><title>FN_Detector</title>
<path fill="#ffffcc" stroke="black" d="M265.839,-834C265.839,-834 194.161,-834 194.161,-834 188.161,-834 182.161,-828 182.161,-822 182.161,-822 182.161,-810 182.161,-810 182.161,-804 188.161,-798 194.161,-798 194.161,-798 265.839,-798 265.839,-798 271.839,-798 277.839,-804 277.839,-810 277.839,-810 277.839,-822 277.839,-822 277.839,-828 271.839,-834 265.839,-834"/>
<text text-anchor="middle" x="230" y="-811.8" font-family="Helvetica,sans-Serif" font-size="14.00">FN_Detector</text>
</g>
<!-- FN_Detector&#45;&gt;LOAD_DATA -->
<g id="edge1" class="edge"><title>FN_Detector&#45;&gt;LOAD_DATA</title>
<path fill="none" stroke="black" d="M216.899,-797.697C210.609,-789.389 202.953,-779.277 196.035,-770.141"/>
<polygon fill="black" stroke="black" points="198.777,-767.964 189.95,-762.104 193.196,-772.19 198.777,-767.964"/>
</g>
<!-- FN_Sampling_rate -->
<g id="node7" class="node"><title>FN_Sampling_rate</title>
<path fill="#ffffcc" stroke="black" d="M152.182,-834C152.182,-834 43.818,-834 43.818,-834 37.818,-834 31.818,-828 31.818,-822 31.818,-822 31.818,-810 31.818,-810 31.818,-804 37.818,-798 43.818,-798 43.818,-798 152.182,-798 152.182,-798 158.182,-798 164.182,-804 164.182,-810 164.182,-810 164.182,-822 164.182,-822 164.182,-828 158.182,-834 152.182,-834"/>
<text text-anchor="middle" x="98" y="-811.8" font-family="Helvetica,sans-Serif" font-size="14.00">FN_Sampling_rate</text>
</g>
<!-- FN_Sampling_rate&#45;&gt;LOAD_DATA -->
<g id="edge3" class="edge"><title>FN_Sampling_rate&#45;&gt;LOAD_DATA</title>
<path fill="none" stroke="black" d="M117.528,-797.697C127.382,-788.965 139.486,-778.24 150.196,-768.75"/>
<polygon fill="black" stroke="black" points="152.533,-771.356 157.697,-762.104 147.891,-766.117 152.533,-771.356"/>
</g>
<!-- strain_H1&#45;&gt;AMPLITUDE_SPECTRAL_DENSITY -->
<g id="edge7" class="edge"><title>strain_H1&#45;&gt;AMPLITUDE_SPECTRAL_DENSITY</title>
<path fill="none" stroke="black" d="M153.989,-653.697C165.814,-644.796 180.392,-633.823 193.179,-624.199"/>
<polygon fill="black" stroke="black" points="195.391,-626.915 201.276,-618.104 191.181,-621.322 195.391,-626.915"/>
</g>
<!-- strain_L1&#45;&gt;AMPLITUDE_SPECTRAL_DENSITY -->
<g id="edge9" class="edge"><title>strain_L1&#45;&gt;AMPLITUDE_SPECTRAL_DENSITY</title>
<path fill="none" stroke="black" d="M224,-653.697C224,-645.983 224,-636.712 224,-628.112"/>
<polygon fill="black" stroke="black" points="227.5,-628.104 224,-618.104 220.5,-628.104 227.5,-628.104"/>
</g>
<!-- PSD_H1&#45;&gt;WHITENING -->
<g id="edge4" class="edge"><title>PSD_H1&#45;&gt;WHITENING</title>
<path fill="none" stroke="black" d="M174.629,-509.697C179.628,-501.559 185.691,-491.689 191.212,-482.701"/>
<polygon fill="black" stroke="black" points="194.241,-484.457 196.493,-474.104 188.277,-480.793 194.241,-484.457"/>
</g>
<!-- PSD_L1&#45;&gt;WHITENING -->
<g id="edge5" class="edge"><title>PSD_L1&#45;&gt;WHITENING</title>
<path fill="none" stroke="black" d="M240.124,-509.697C235.008,-501.559 228.805,-491.689 223.155,-482.701"/>
<polygon fill="black" stroke="black" points="226.036,-480.708 217.751,-474.104 220.11,-484.433 226.036,-480.708"/>
</g>
<!-- strain_H1_whiten&#45;&gt;BANDPASSING -->
<g id="edge8" class="edge"><title>strain_H1_whiten&#45;&gt;BANDPASSING</title>
<path fill="none" stroke="black" d="M123.202,-365.697C125.096,-357.898 127.377,-348.509 129.484,-339.829"/>
<polygon fill="black" stroke="black" points="132.887,-340.648 131.846,-330.104 126.085,-338.996 132.887,-340.648"/>
</g>
<!-- strain_L1_whiten&#45;&gt;BANDPASSING -->
<g id="edge10" class="edge"><title>strain_L1_whiten&#45;&gt;BANDPASSING</title>
<path fill="none" stroke="black" d="M229.666,-365.876C213.303,-356.639 192.917,-345.131 175.346,-335.212"/>
<polygon fill="black" stroke="black" points="176.879,-332.058 166.45,-330.19 173.438,-338.154 176.879,-332.058"/>
</g>
<!-- strain_H1_whitenbp&#45;&gt;WAVE_FILE_GENERATOR_FOR_WHITENED_DATA -->
<g id="edge11" class="edge"><title>strain_H1_whitenbp&#45;&gt;WAVE_FILE_GENERATOR_FOR_WHITENED_DATA</title>
<path fill="none" stroke="black" d="M128.281,-221.697C137.915,-213.05 149.729,-202.449 160.227,-193.027"/>
<polygon fill="black" stroke="black" points="162.836,-195.388 167.941,-186.104 158.161,-190.179 162.836,-195.388"/>
</g>
<!-- strain_L1_whitenbp&#45;&gt;WAVE_FILE_GENERATOR_FOR_WHITENED_DATA -->
<g id="edge2" class="edge"><title>strain_L1_whitenbp&#45;&gt;WAVE_FILE_GENERATOR_FOR_WHITENED_DATA</title>
<path fill="none" stroke="black" d="M246.472,-221.697C236.618,-212.965 224.514,-202.24 213.804,-192.75"/>
<polygon fill="black" stroke="black" points="216.109,-190.117 206.303,-186.104 211.467,-195.356 216.109,-190.117"/>
</g>
<!-- whitened_bandpass_wavefile_outflow -->
<g id="node21" class="node"><title>whitened_bandpass_wavefile_outflow</title>
<ellipse fill="none" stroke="black" cx="187" cy="-31" rx="7" ry="7"/>
</g>
<!-- whitened_bandpass_wavefile&#45;&gt;whitened_bandpass_wavefile_outflow -->
<g id="edge24" class="edge"><title>whitened_bandpass_wavefile&#45;&gt;whitened_bandpass_wavefile_outflow</title>
<path fill="none" stroke="black" d="M187,-77.785C187,-68.6656 187,-57.5197 187,-48.5085"/>
<polygon fill="black" stroke="black" points="190.5,-48.242 187,-38.242 183.5,-48.2421 190.5,-48.242"/>
</g>
<!-- fs -->
<g id="node17" class="node"><title>fs</title>
<path fill="#ffffff" stroke="black" d="M321,-690C321,-690 291,-690 291,-690 285,-690 279,-684 279,-678 279,-678 279,-666 279,-666 279,-660 285,-654 291,-654 291,-654 321,-654 321,-654 327,-654 333,-660 333,-666 333,-666 333,-678 333,-678 333,-684 327,-690 321,-690"/>
<text text-anchor="middle" x="306" y="-667.8" font-family="Helvetica,sans-Serif" font-size="14.00">fs</text>
</g>
<!-- fs&#45;&gt;AMPLITUDE_SPECTRAL_DENSITY -->
<g id="edge6" class="edge"><title>fs&#45;&gt;AMPLITUDE_SPECTRAL_DENSITY</title>
<path fill="none" stroke="black" d="M285.73,-653.697C275.502,-644.965 262.939,-634.24 251.822,-624.75"/>
<polygon fill="black" stroke="black" points="253.915,-621.935 244.037,-618.104 249.37,-627.259 253.915,-621.935"/>
</g>
<!-- fs_inflow -->
<g id="node18" class="node"><title>fs_inflow</title>
<ellipse fill="none" stroke="black" cx="262" cy="-881" rx="7" ry="7"/>
</g>
<!-- fs_inflow&#45;&gt;fs -->
<g id="edge21" class="edge"><title>fs_inflow&#45;&gt;fs</title>
<path fill="none" stroke="black" d="M266.839,-875.898C272.729,-870.589 282.45,-860.737 287,-850 308.037,-800.358 309.226,-736.178 307.848,-700.327"/>
<polygon fill="black" stroke="black" points="311.336,-699.977 307.358,-690.157 304.344,-700.314 311.336,-699.977"/>
</g>
<!-- FN_Detector_inflow -->
<g id="node19" class="node"><title>FN_Detector_inflow</title>
<ellipse fill="none" stroke="black" cx="230" cy="-881" rx="7" ry="7"/>
</g>
<!-- FN_Detector_inflow&#45;&gt;FN_Detector -->
<g id="edge22" class="edge"><title>FN_Detector_inflow&#45;&gt;FN_Detector</title>
<path fill="none" stroke="black" d="M230,-873.729C230,-866.795 230,-855.154 230,-844.215"/>
<polygon fill="black" stroke="black" points="233.5,-844.119 230,-834.119 226.5,-844.119 233.5,-844.119"/>
</g>
<!-- FN_Sampling_rate_inflow -->
<g id="node20" class="node"><title>FN_Sampling_rate_inflow</title>
<ellipse fill="none" stroke="black" cx="198" cy="-881" rx="7" ry="7"/>
</g>
<!-- FN_Sampling_rate_inflow&#45;&gt;FN_Sampling_rate -->
<g id="edge23" class="edge"><title>FN_Sampling_rate_inflow&#45;&gt;FN_Sampling_rate</title>
<path fill="none" stroke="black" d="M192.337,-876.432C181.225,-869.432 155.757,-853.387 134.081,-839.731"/>
<polygon fill="black" stroke="black" points="135.712,-836.622 125.385,-834.253 131.981,-842.545 135.712,-836.622"/>
</g>
</g>
</svg>
