<?xml version="1.0" encoding="UTF-8" standalone="no"?>
<!DOCTYPE svg PUBLIC "-//W3C//DTD SVG 1.1//EN"
 "http://www.w3.org/Graphics/SVG/1.1/DTD/svg11.dtd">
<!-- Generated by graphviz version 2.38.0 (20140413.2041)
 -->
<!-- Title: yw_data_view Pages: 1 -->
<svg width="326pt" height="518pt"
 viewBox="0.00 0.00 326.35 517.60" xmlns="http://www.w3.org/2000/svg" xmlns:xlink="http://www.w3.org/1999/xlink">
<g id="graph0" class="graph" transform="scale(1 1) rotate(0) translate(4 513.6)">
<title>yw_data_view</title>
<polygon fill="white" stroke="none" points="-4,4 -4,-513.6 322.35,-513.6 322.35,4 -4,4"/>
<text text-anchor="middle" x="159.175" y="-489.4" font-family="Courier,monospace" font-size="18.00">GRAVITATIONAL_WAVE_DETECTION</text>
<g id="clust1" class="cluster"><title>cluster_workflow</title>
<polygon fill="none" stroke="black" stroke-width="2" points="20.1748,-62 20.1748,-418 298.175,-418 298.175,-62 20.1748,-62"/>
</g>
<g id="clust2" class="cluster"><title>cluster_workflow_inner</title>
<polygon fill="none" stroke="white" stroke-width="2" points="28.1748,-70 28.1748,-410 290.175,-410 290.175,-70 28.1748,-70"/>
</g>
<g id="clust3" class="cluster"><title>cluster_inflows</title>
<polygon fill="none" stroke="white" stroke-width="2" points="129.175,-426 129.175,-472 207.175,-472 207.175,-426 129.175,-426"/>
</g>
<g id="clust4" class="cluster"><title>cluster_inflows_inner</title>
<polygon fill="none" stroke="white" stroke-width="2" points="137.175,-434 137.175,-464 199.175,-464 199.175,-434 137.175,-434"/>
</g>
<g id="clust5" class="cluster"><title>cluster_outflows</title>
<polygon fill="none" stroke="white" stroke-width="2" points="128.175,-8 128.175,-54 174.175,-54 174.175,-8 128.175,-8"/>
</g>
<g id="clust6" class="cluster"><title>cluster_outflows_inner</title>
<polygon fill="none" stroke="white" stroke-width="2" points="136.175,-16 136.175,-46 166.175,-46 166.175,-16 136.175,-16"/>
</g>
<!-- LOAD_DATA -->
<g id="node1" class="node"><title>LOAD_DATA</title>
<polygon fill="#ccffcc" stroke="black" points="176.763,-330 85.5865,-330 85.5865,-294 176.763,-294 176.763,-330"/>
<text text-anchor="middle" x="131.175" y="-307.8" font-family="Courier,monospace" font-size="14.00">LOAD_DATA</text>
</g>
<!-- strain_16 -->
<g id="node5" class="node"><title>strain_16</title>
<path fill="#ffffcc" stroke="black" d="M120.747,-258C120.747,-258 71.6028,-258 71.6028,-258 65.6028,-258 59.6028,-252 59.6028,-246 59.6028,-246 59.6028,-234 59.6028,-234 59.6028,-228 65.6028,-222 71.6028,-222 71.6028,-222 120.747,-222 120.747,-222 126.747,-222 132.747,-228 132.747,-234 132.747,-234 132.747,-246 132.747,-246 132.747,-252 126.747,-258 120.747,-258"/>
<text text-anchor="middle" x="96.1748" y="-235.8" font-family="Helvetica,sans-Serif" font-size="14.00">strain_16</text>
</g>
<!-- LOAD_DATA&#45;&gt;strain_16 -->
<g id="edge5" class="edge"><title>LOAD_DATA&#45;&gt;strain_16</title>
<path fill="none" stroke="black" d="M122.523,-293.697C118.539,-285.728 113.725,-276.1 109.307,-267.264"/>
<polygon fill="black" stroke="black" points="112.33,-265.483 104.727,-258.104 106.069,-268.614 112.33,-265.483"/>
</g>
<!-- strain_4 -->
<g id="node6" class="node"><title>strain_4</title>
<path fill="#ffffcc" stroke="black" d="M204.963,-258C204.963,-258 163.386,-258 163.386,-258 157.386,-258 151.386,-252 151.386,-246 151.386,-246 151.386,-234 151.386,-234 151.386,-228 157.386,-222 163.386,-222 163.386,-222 204.963,-222 204.963,-222 210.963,-222 216.963,-228 216.963,-234 216.963,-234 216.963,-246 216.963,-246 216.963,-252 210.963,-258 204.963,-258"/>
<text text-anchor="middle" x="184.175" y="-235.8" font-family="Helvetica,sans-Serif" font-size="14.00">strain_4</text>
</g>
<!-- LOAD_DATA&#45;&gt;strain_4 -->
<g id="edge6" class="edge"><title>LOAD_DATA&#45;&gt;strain_4</title>
<path fill="none" stroke="black" d="M144.276,-293.697C150.566,-285.389 158.222,-275.277 165.14,-266.141"/>
<polygon fill="black" stroke="black" points="167.978,-268.19 171.224,-258.104 162.398,-263.964 167.978,-268.19"/>
</g>
<!-- DOWNSAMPLING -->
<g id="node2" class="node"><title>DOWNSAMPLING</title>
<polygon fill="#ccffcc" stroke="black" points="209.458,-186 92.8914,-186 92.8914,-150 209.458,-150 209.458,-186"/>
<text text-anchor="middle" x="151.175" y="-163.8" font-family="Courier,monospace" font-size="14.00">DOWNSAMPLING</text>
</g>
<!-- H1_ASD_SamplingRate -->
<g id="node7" class="node"><title>H1_ASD_SamplingRate</title>
<path fill="#ffffcc" stroke="black" d="M222.312,-114C222.312,-114 80.0373,-114 80.0373,-114 74.0373,-114 68.0373,-108 68.0373,-102 68.0373,-102 68.0373,-90 68.0373,-90 68.0373,-84 74.0373,-78 80.0373,-78 80.0373,-78 222.312,-78 222.312,-78 228.312,-78 234.312,-84 234.312,-90 234.312,-90 234.312,-102 234.312,-102 234.312,-108 228.312,-114 222.312,-114"/>
<text text-anchor="middle" x="151.175" y="-91.8" font-family="Helvetica,sans-Serif" font-size="14.00">H1_ASD_SamplingRate</text>
</g>
<!-- DOWNSAMPLING&#45;&gt;H1_ASD_SamplingRate -->
<g id="edge7" class="edge"><title>DOWNSAMPLING&#45;&gt;H1_ASD_SamplingRate</title>
<path fill="none" stroke="black" d="M151.175,-149.697C151.175,-141.983 151.175,-132.712 151.175,-124.112"/>
<polygon fill="black" stroke="black" points="154.675,-124.104 151.175,-114.104 147.675,-124.104 154.675,-124.104"/>
</g>
<!-- FN_Detector -->
<g id="node3" class="node"><title>FN_Detector</title>
<path fill="#ffffcc" stroke="black" d="M270.013,-402C270.013,-402 198.336,-402 198.336,-402 192.336,-402 186.336,-396 186.336,-390 186.336,-390 186.336,-378 186.336,-378 186.336,-372 192.336,-366 198.336,-366 198.336,-366 270.013,-366 270.013,-366 276.013,-366 282.013,-372 282.013,-378 282.013,-378 282.013,-390 282.013,-390 282.013,-396 276.013,-402 270.013,-402"/>
<text text-anchor="middle" x="234.175" y="-379.8" font-family="Helvetica,sans-Serif" font-size="14.00">FN_Detector</text>
</g>
<!-- FN_Detector&#45;&gt;LOAD_DATA -->
<g id="edge4" class="edge"><title>FN_Detector&#45;&gt;LOAD_DATA</title>
<path fill="none" stroke="black" d="M208.978,-365.876C195.76,-356.893 179.383,-345.763 165.068,-336.034"/>
<polygon fill="black" stroke="black" points="166.706,-332.916 156.468,-330.19 162.772,-338.705 166.706,-332.916"/>
</g>
<!-- FN_Sampling_rate -->
<g id="node4" class="node"><title>FN_Sampling_rate</title>
<path fill="#ffffcc" stroke="black" d="M156.357,-402C156.357,-402 47.9928,-402 47.9928,-402 41.9928,-402 35.9928,-396 35.9928,-390 35.9928,-390 35.9928,-378 35.9928,-378 35.9928,-372 41.9928,-366 47.9928,-366 47.9928,-366 156.357,-366 156.357,-366 162.357,-366 168.357,-372 168.357,-378 168.357,-378 168.357,-390 168.357,-390 168.357,-396 162.357,-402 156.357,-402"/>
<text text-anchor="middle" x="102.175" y="-379.8" font-family="Helvetica,sans-Serif" font-size="14.00">FN_Sampling_rate</text>
</g>
<!-- FN_Sampling_rate&#45;&gt;LOAD_DATA -->
<g id="edge3" class="edge"><title>FN_Sampling_rate&#45;&gt;LOAD_DATA</title>
<path fill="none" stroke="black" d="M109.343,-365.697C112.609,-357.813 116.549,-348.304 120.177,-339.546"/>
<polygon fill="black" stroke="black" points="123.495,-340.683 124.089,-330.104 117.028,-338.003 123.495,-340.683"/>
</g>
<!-- strain_16&#45;&gt;DOWNSAMPLING -->
<g id="edge2" class="edge"><title>strain_16&#45;&gt;DOWNSAMPLING</title>
<path fill="none" stroke="black" d="M109.77,-221.697C116.297,-213.389 124.243,-203.277 131.421,-194.141"/>
<polygon fill="black" stroke="black" points="134.31,-196.13 137.736,-186.104 128.805,-191.805 134.31,-196.13"/>
</g>
<!-- strain_4&#45;&gt;DOWNSAMPLING -->
<g id="edge1" class="edge"><title>strain_4&#45;&gt;DOWNSAMPLING</title>
<path fill="none" stroke="black" d="M176.017,-221.697C172.261,-213.728 167.722,-204.1 163.556,-195.264"/>
<polygon fill="black" stroke="black" points="166.668,-193.657 159.238,-186.104 160.337,-196.642 166.668,-193.657"/>
</g>
<!-- H1_ASD_SamplingRate_outflow -->
<g id="node10" class="node"><title>H1_ASD_SamplingRate_outflow</title>
<ellipse fill="none" stroke="black" cx="151.175" cy="-31" rx="7" ry="7"/>
</g>
<!-- H1_ASD_SamplingRate&#45;&gt;H1_ASD_SamplingRate_outflow -->
<g id="edge10" class="edge"><title>H1_ASD_SamplingRate&#45;&gt;H1_ASD_SamplingRate_outflow</title>
<path fill="none" stroke="black" d="M151.175,-77.785C151.175,-68.6656 151.175,-57.5197 151.175,-48.5085"/>
<polygon fill="black" stroke="black" points="154.675,-48.242 151.175,-38.242 147.675,-48.2421 154.675,-48.242"/>
</g>
<!-- FN_Detector_inflow -->
<g id="node8" class="node"><title>FN_Detector_inflow</title>
<ellipse fill="none" stroke="black" cx="184.175" cy="-449" rx="7" ry="7"/>
</g>
<!-- FN_Detector_inflow&#45;&gt;FN_Detector -->
<g id="edge8" class="edge"><title>FN_Detector_inflow&#45;&gt;FN_Detector</title>
<path fill="none" stroke="black" d="M188.098,-443.056C193.71,-435.986 204.421,-422.489 214.105,-410.288"/>
<polygon fill="black" stroke="black" points="217.095,-412.151 220.57,-402.142 211.612,-407.799 217.095,-412.151"/>
</g>
<!-- FN_Sampling_rate_inflow -->
<g id="node9" class="node"><title>FN_Sampling_rate_inflow</title>
<ellipse fill="none" stroke="black" cx="152.175" cy="-449" rx="7" ry="7"/>
</g>
<!-- FN_Sampling_rate_inflow&#45;&gt;FN_Sampling_rate -->
<g id="edge9" class="edge"><title>FN_Sampling_rate_inflow&#45;&gt;FN_Sampling_rate</title>
<path fill="none" stroke="black" d="M148.251,-443.056C142.64,-435.986 131.928,-422.489 122.244,-410.288"/>
<polygon fill="black" stroke="black" points="124.738,-407.799 115.78,-402.142 119.255,-412.151 124.738,-407.799"/>
</g>
</g>
</svg>
