<?xml version="1.0" encoding="UTF-8" standalone="no"?>
<!DOCTYPE svg PUBLIC "-//W3C//DTD SVG 1.1//EN"
 "http://www.w3.org/Graphics/SVG/1.1/DTD/svg11.dtd">
<!-- Generated by graphviz version 2.38.0 (20140413.2041)
 -->
<!-- Title: yw_data_view Pages: 1 -->
<svg width="340pt" height="806pt"
 viewBox="0.00 0.00 340.00 805.60" xmlns="http://www.w3.org/2000/svg" xmlns:xlink="http://www.w3.org/1999/xlink">
<g id="graph0" class="graph" transform="scale(1 1) rotate(0) translate(4 801.6)">
<title>yw_data_view</title>
<polygon fill="white" stroke="none" points="-4,4 -4,-801.6 336,-801.6 336,4 -4,4"/>
<text text-anchor="middle" x="166" y="-777.4" font-family="Courier,monospace" font-size="18.00">GRAVITATIONAL_WAVE_DETECTION</text>
<g id="clust1" class="cluster"><title>cluster_workflow</title>
<polygon fill="none" stroke="black" stroke-width="2" points="8,-62 8,-706 324,-706 324,-62 8,-62"/>
</g>
<g id="clust2" class="cluster"><title>cluster_workflow_inner</title>
<polygon fill="none" stroke="white" stroke-width="2" points="16,-70 16,-698 316,-698 316,-70 16,-70"/>
</g>
<g id="clust3" class="cluster"><title>cluster_inflows</title>
<polygon fill="none" stroke="white" stroke-width="2" points="167,-714 167,-760 277,-760 277,-714 167,-714"/>
</g>
<g id="clust4" class="cluster"><title>cluster_inflows_inner</title>
<polygon fill="none" stroke="white" stroke-width="2" points="175,-722 175,-752 269,-752 269,-722 175,-722"/>
</g>
<g id="clust5" class="cluster"><title>cluster_outflows</title>
<polygon fill="none" stroke="white" stroke-width="2" points="155,-8 155,-54 201,-54 201,-8 155,-8"/>
</g>
<g id="clust6" class="cluster"><title>cluster_outflows_inner</title>
<polygon fill="none" stroke="white" stroke-width="2" points="163,-16 163,-46 193,-46 193,-16 163,-16"/>
</g>
<!-- WHITENING -->
<g id="node1" class="node"><title>WHITENING</title>
<polygon fill="#ccffcc" stroke="black" points="170.588,-330 79.4117,-330 79.4117,-294 170.588,-294 170.588,-330"/>
<text text-anchor="middle" x="125" y="-307.8" font-family="Courier,monospace" font-size="14.00">WHITENING</text>
</g>
<!-- strain_H1_whiten -->
<g id="node11" class="node"><title>strain_H1_whiten</title>
<path fill="#ffffcc" stroke="black" d="M276.129,-258C276.129,-258 175.871,-258 175.871,-258 169.871,-258 163.871,-252 163.871,-246 163.871,-246 163.871,-234 163.871,-234 163.871,-228 169.871,-222 175.871,-222 175.871,-222 276.129,-222 276.129,-222 282.129,-222 288.129,-228 288.129,-234 288.129,-234 288.129,-246 288.129,-246 288.129,-252 282.129,-258 276.129,-258"/>
<text text-anchor="middle" x="226" y="-235.8" font-family="Helvetica,sans-Serif" font-size="14.00">strain_H1_whiten</text>
</g>
<!-- WHITENING&#45;&gt;strain_H1_whiten -->
<g id="edge15" class="edge"><title>WHITENING&#45;&gt;strain_H1_whiten</title>
<path fill="none" stroke="black" d="M149.707,-293.876C162.669,-284.893 178.728,-273.763 192.765,-264.034"/>
<polygon fill="black" stroke="black" points="194.972,-266.763 201.198,-258.19 190.985,-261.009 194.972,-266.763"/>
</g>
<!-- strain_L1_whiten -->
<g id="node12" class="node"><title>strain_L1_whiten</title>
<path fill="#ffffcc" stroke="black" d="M133.805,-258C133.805,-258 36.1948,-258 36.1948,-258 30.1948,-258 24.1948,-252 24.1948,-246 24.1948,-246 24.1948,-234 24.1948,-234 24.1948,-228 30.1948,-222 36.1948,-222 36.1948,-222 133.805,-222 133.805,-222 139.805,-222 145.805,-228 145.805,-234 145.805,-234 145.805,-246 145.805,-246 145.805,-252 139.805,-258 133.805,-258"/>
<text text-anchor="middle" x="85" y="-235.8" font-family="Helvetica,sans-Serif" font-size="14.00">strain_L1_whiten</text>
</g>
<!-- WHITENING&#45;&gt;strain_L1_whiten -->
<g id="edge16" class="edge"><title>WHITENING&#45;&gt;strain_L1_whiten</title>
<path fill="none" stroke="black" d="M115.112,-293.697C110.511,-285.644 104.94,-275.894 99.8471,-266.982"/>
<polygon fill="black" stroke="black" points="102.774,-265.05 94.7739,-258.104 96.6965,-268.523 102.774,-265.05"/>
</g>
<!-- AMPLITUDE_SPECTRAL_DENSITY -->
<g id="node2" class="node"><title>AMPLITUDE_SPECTRAL_DENSITY</title>
<polygon fill="#ccffcc" stroke="black" points="288.364,-474 53.6361,-474 53.6361,-438 288.364,-438 288.364,-474"/>
<text text-anchor="middle" x="171" y="-451.8" font-family="Courier,monospace" font-size="14.00">AMPLITUDE_SPECTRAL_DENSITY</text>
</g>
<!-- PSD_H1 -->
<g id="node9" class="node"><title>PSD_H1</title>
<path fill="#ffffcc" stroke="black" d="M235.453,-402C235.453,-402 188.547,-402 188.547,-402 182.547,-402 176.547,-396 176.547,-390 176.547,-390 176.547,-378 176.547,-378 176.547,-372 182.547,-366 188.547,-366 188.547,-366 235.453,-366 235.453,-366 241.453,-366 247.453,-372 247.453,-378 247.453,-378 247.453,-390 247.453,-390 247.453,-396 241.453,-402 235.453,-402"/>
<text text-anchor="middle" x="212" y="-379.8" font-family="Helvetica,sans-Serif" font-size="14.00">PSD_H1</text>
</g>
<!-- AMPLITUDE_SPECTRAL_DENSITY&#45;&gt;PSD_H1 -->
<g id="edge13" class="edge"><title>AMPLITUDE_SPECTRAL_DENSITY&#45;&gt;PSD_H1</title>
<path fill="none" stroke="black" d="M181.135,-437.697C185.852,-429.644 191.562,-419.894 196.782,-410.982"/>
<polygon fill="black" stroke="black" points="199.948,-412.502 201.982,-402.104 193.908,-408.964 199.948,-412.502"/>
</g>
<!-- PSD_L1 -->
<g id="node10" class="node"><title>PSD_L1</title>
<path fill="#ffffcc" stroke="black" d="M147.128,-402C147.128,-402 102.872,-402 102.872,-402 96.8723,-402 90.8723,-396 90.8723,-390 90.8723,-390 90.8723,-378 90.8723,-378 90.8723,-372 96.8723,-366 102.872,-366 102.872,-366 147.128,-366 147.128,-366 153.128,-366 159.128,-372 159.128,-378 159.128,-378 159.128,-390 159.128,-390 159.128,-396 153.128,-402 147.128,-402"/>
<text text-anchor="middle" x="125" y="-379.8" font-family="Helvetica,sans-Serif" font-size="14.00">PSD_L1</text>
</g>
<!-- AMPLITUDE_SPECTRAL_DENSITY&#45;&gt;PSD_L1 -->
<g id="edge14" class="edge"><title>AMPLITUDE_SPECTRAL_DENSITY&#45;&gt;PSD_L1</title>
<path fill="none" stroke="black" d="M159.629,-437.697C154.282,-429.559 147.796,-419.689 141.889,-410.701"/>
<polygon fill="black" stroke="black" points="144.657,-408.539 136.24,-402.104 138.807,-412.384 144.657,-408.539"/>
</g>
<!-- LOAD_DATA -->
<g id="node3" class="node"><title>LOAD_DATA</title>
<polygon fill="#ccffcc" stroke="black" points="183.588,-618 92.4117,-618 92.4117,-582 183.588,-582 183.588,-618"/>
<text text-anchor="middle" x="138" y="-595.8" font-family="Courier,monospace" font-size="14.00">LOAD_DATA</text>
</g>
<!-- strain_H1 -->
<g id="node7" class="node"><title>strain_H1</title>
<path fill="#ffffcc" stroke="black" d="M117.895,-546C117.895,-546 66.1051,-546 66.1051,-546 60.1051,-546 54.1051,-540 54.1051,-534 54.1051,-534 54.1051,-522 54.1051,-522 54.1051,-516 60.1051,-510 66.1051,-510 66.1051,-510 117.895,-510 117.895,-510 123.895,-510 129.895,-516 129.895,-522 129.895,-522 129.895,-534 129.895,-534 129.895,-540 123.895,-546 117.895,-546"/>
<text text-anchor="middle" x="92" y="-523.8" font-family="Helvetica,sans-Serif" font-size="14.00">strain_H1</text>
</g>
<!-- LOAD_DATA&#45;&gt;strain_H1 -->
<g id="edge11" class="edge"><title>LOAD_DATA&#45;&gt;strain_H1</title>
<path fill="none" stroke="black" d="M126.629,-581.697C121.282,-573.559 114.796,-563.689 108.889,-554.701"/>
<polygon fill="black" stroke="black" points="111.657,-552.539 103.24,-546.104 105.807,-556.384 111.657,-552.539"/>
</g>
<!-- strain_L1 -->
<g id="node8" class="node"><title>strain_L1</title>
<path fill="#ffffcc" stroke="black" d="M209.572,-546C209.572,-546 160.428,-546 160.428,-546 154.428,-546 148.428,-540 148.428,-534 148.428,-534 148.428,-522 148.428,-522 148.428,-516 154.428,-510 160.428,-510 160.428,-510 209.572,-510 209.572,-510 215.572,-510 221.572,-516 221.572,-522 221.572,-522 221.572,-534 221.572,-534 221.572,-540 215.572,-546 209.572,-546"/>
<text text-anchor="middle" x="185" y="-523.8" font-family="Helvetica,sans-Serif" font-size="14.00">strain_L1</text>
</g>
<!-- LOAD_DATA&#45;&gt;strain_L1 -->
<g id="edge12" class="edge"><title>LOAD_DATA&#45;&gt;strain_L1</title>
<path fill="none" stroke="black" d="M149.618,-581.697C155.139,-573.474 161.847,-563.483 167.932,-554.421"/>
<polygon fill="black" stroke="black" points="170.847,-556.358 173.516,-546.104 165.035,-552.456 170.847,-556.358"/>
</g>
<!-- SPECTROGRAMS_FOR_WHITEND_DATA -->
<g id="node4" class="node"><title>SPECTROGRAMS_FOR_WHITEND_DATA</title>
<polygon fill="#ccffcc" stroke="black" points="307.56,-186 48.4402,-186 48.4402,-150 307.56,-150 307.56,-186"/>
<text text-anchor="middle" x="178" y="-163.8" font-family="Courier,monospace" font-size="14.00">SPECTROGRAMS_FOR_WHITEND_DATA</text>
</g>
<!-- spectrogram_whitened -->
<g id="node13" class="node"><title>spectrogram_whitened</title>
<path fill="#ffffcc" stroke="black" d="M244.585,-114C244.585,-114 111.415,-114 111.415,-114 105.415,-114 99.4147,-108 99.4147,-102 99.4147,-102 99.4147,-90 99.4147,-90 99.4147,-84 105.415,-78 111.415,-78 111.415,-78 244.585,-78 244.585,-78 250.585,-78 256.585,-84 256.585,-90 256.585,-90 256.585,-102 256.585,-102 256.585,-108 250.585,-114 244.585,-114"/>
<text text-anchor="middle" x="178" y="-91.8" font-family="Helvetica,sans-Serif" font-size="14.00">spectrogram_whitened</text>
</g>
<!-- SPECTROGRAMS_FOR_WHITEND_DATA&#45;&gt;spectrogram_whitened -->
<g id="edge17" class="edge"><title>SPECTROGRAMS_FOR_WHITEND_DATA&#45;&gt;spectrogram_whitened</title>
<path fill="none" stroke="black" d="M178,-149.697C178,-141.983 178,-132.712 178,-124.112"/>
<polygon fill="black" stroke="black" points="181.5,-124.104 178,-114.104 174.5,-124.104 181.5,-124.104"/>
</g>
<!-- FN_Detector -->
<g id="node5" class="node"><title>FN_Detector</title>
<path fill="#ffffcc" stroke="black" d="M257.839,-690C257.839,-690 186.161,-690 186.161,-690 180.161,-690 174.161,-684 174.161,-678 174.161,-678 174.161,-666 174.161,-666 174.161,-660 180.161,-654 186.161,-654 186.161,-654 257.839,-654 257.839,-654 263.839,-654 269.839,-660 269.839,-666 269.839,-666 269.839,-678 269.839,-678 269.839,-684 263.839,-690 257.839,-690"/>
<text text-anchor="middle" x="222" y="-667.8" font-family="Helvetica,sans-Serif" font-size="14.00">FN_Detector</text>
</g>
<!-- FN_Detector&#45;&gt;LOAD_DATA -->
<g id="edge8" class="edge"><title>FN_Detector&#45;&gt;LOAD_DATA</title>
<path fill="none" stroke="black" d="M201.236,-653.697C190.759,-644.965 177.889,-634.24 166.5,-624.75"/>
<polygon fill="black" stroke="black" points="168.448,-621.817 158.525,-618.104 163.967,-627.195 168.448,-621.817"/>
</g>
<!-- FN_Sampling_rate -->
<g id="node6" class="node"><title>FN_Sampling_rate</title>
<path fill="#ffffcc" stroke="black" d="M144.182,-690C144.182,-690 35.818,-690 35.818,-690 29.818,-690 23.818,-684 23.818,-678 23.818,-678 23.818,-666 23.818,-666 23.818,-660 29.818,-654 35.818,-654 35.818,-654 144.182,-654 144.182,-654 150.182,-654 156.182,-660 156.182,-666 156.182,-666 156.182,-678 156.182,-678 156.182,-684 150.182,-690 144.182,-690"/>
<text text-anchor="middle" x="90" y="-667.8" font-family="Helvetica,sans-Serif" font-size="14.00">FN_Sampling_rate</text>
</g>
<!-- FN_Sampling_rate&#45;&gt;LOAD_DATA -->
<g id="edge9" class="edge"><title>FN_Sampling_rate&#45;&gt;LOAD_DATA</title>
<path fill="none" stroke="black" d="M101.865,-653.697C107.503,-645.474 114.354,-635.483 120.569,-626.421"/>
<polygon fill="black" stroke="black" points="123.503,-628.331 126.271,-618.104 117.729,-624.372 123.503,-628.331"/>
</g>
<!-- strain_H1&#45;&gt;AMPLITUDE_SPECTRAL_DENSITY -->
<g id="edge4" class="edge"><title>strain_H1&#45;&gt;AMPLITUDE_SPECTRAL_DENSITY</title>
<path fill="none" stroke="black" d="M111.528,-509.697C121.382,-500.965 133.486,-490.24 144.196,-480.75"/>
<polygon fill="black" stroke="black" points="146.533,-483.356 151.697,-474.104 141.891,-478.117 146.533,-483.356"/>
</g>
<!-- strain_L1&#45;&gt;AMPLITUDE_SPECTRAL_DENSITY -->
<g id="edge6" class="edge"><title>strain_L1&#45;&gt;AMPLITUDE_SPECTRAL_DENSITY</title>
<path fill="none" stroke="black" d="M181.539,-509.697C179.997,-501.983 178.142,-492.712 176.422,-484.112"/>
<polygon fill="black" stroke="black" points="179.814,-483.224 174.421,-474.104 172.95,-484.597 179.814,-483.224"/>
</g>
<!-- PSD_H1&#45;&gt;WHITENING -->
<g id="edge10" class="edge"><title>PSD_H1&#45;&gt;WHITENING</title>
<path fill="none" stroke="black" d="M190.494,-365.697C179.537,-356.881 166.054,-346.032 154.175,-336.474"/>
<polygon fill="black" stroke="black" points="156.244,-333.646 146.258,-330.104 151.855,-339.1 156.244,-333.646"/>
</g>
<!-- PSD_L1&#45;&gt;WHITENING -->
<g id="edge1" class="edge"><title>PSD_L1&#45;&gt;WHITENING</title>
<path fill="none" stroke="black" d="M125,-365.697C125,-357.983 125,-348.712 125,-340.112"/>
<polygon fill="black" stroke="black" points="128.5,-340.104 125,-330.104 121.5,-340.104 128.5,-340.104"/>
</g>
<!-- strain_H1_whiten&#45;&gt;SPECTROGRAMS_FOR_WHITEND_DATA -->
<g id="edge5" class="edge"><title>strain_H1_whiten&#45;&gt;SPECTROGRAMS_FOR_WHITEND_DATA</title>
<path fill="none" stroke="black" d="M214.135,-221.697C208.497,-213.474 201.646,-203.483 195.431,-194.421"/>
<polygon fill="black" stroke="black" points="198.271,-192.372 189.729,-186.104 192.497,-196.331 198.271,-192.372"/>
</g>
<!-- strain_L1_whiten&#45;&gt;SPECTROGRAMS_FOR_WHITEND_DATA -->
<g id="edge7" class="edge"><title>strain_L1_whiten&#45;&gt;SPECTROGRAMS_FOR_WHITEND_DATA</title>
<path fill="none" stroke="black" d="M107.989,-221.697C119.814,-212.796 134.392,-201.823 147.179,-192.199"/>
<polygon fill="black" stroke="black" points="149.391,-194.915 155.276,-186.104 145.181,-189.322 149.391,-194.915"/>
</g>
<!-- spectrogram_whitened_outflow -->
<g id="node18" class="node"><title>spectrogram_whitened_outflow</title>
<ellipse fill="none" stroke="black" cx="178" cy="-31" rx="7" ry="7"/>
</g>
<!-- spectrogram_whitened&#45;&gt;spectrogram_whitened_outflow -->
<g id="edge21" class="edge"><title>spectrogram_whitened&#45;&gt;spectrogram_whitened_outflow</title>
<path fill="none" stroke="black" d="M178,-77.785C178,-68.6656 178,-57.5197 178,-48.5085"/>
<polygon fill="black" stroke="black" points="181.5,-48.242 178,-38.242 174.5,-48.2421 181.5,-48.242"/>
</g>
<!-- fs -->
<g id="node14" class="node"><title>fs</title>
<path fill="#ffffff" stroke="black" d="M296,-546C296,-546 266,-546 266,-546 260,-546 254,-540 254,-534 254,-534 254,-522 254,-522 254,-516 260,-510 266,-510 266,-510 296,-510 296,-510 302,-510 308,-516 308,-522 308,-522 308,-534 308,-534 308,-540 302,-546 296,-546"/>
<text text-anchor="middle" x="281" y="-523.8" font-family="Helvetica,sans-Serif" font-size="14.00">fs</text>
</g>
<!-- fs&#45;&gt;AMPLITUDE_SPECTRAL_DENSITY -->
<g id="edge3" class="edge"><title>fs&#45;&gt;AMPLITUDE_SPECTRAL_DENSITY</title>
<path fill="none" stroke="black" d="M254.091,-509.876C239.842,-500.808 222.154,-489.552 206.764,-479.759"/>
<polygon fill="black" stroke="black" points="208.328,-476.606 198.012,-474.19 204.57,-482.511 208.328,-476.606"/>
</g>
<!-- fs&#45;&gt;SPECTROGRAMS_FOR_WHITEND_DATA -->
<g id="edge2" class="edge"><title>fs&#45;&gt;SPECTROGRAMS_FOR_WHITEND_DATA</title>
<path fill="none" stroke="black" d="M287.144,-509.538C290.525,-499.301 294.525,-486.051 297,-474 305.007,-435.009 307,-424.804 307,-385 307,-385 307,-385 307,-311 307,-271.196 320.51,-254.12 297,-222 286.895,-208.194 272.369,-197.919 256.919,-190.294"/>
<polygon fill="black" stroke="black" points="258.293,-187.073 247.742,-186.104 255.385,-193.441 258.293,-187.073"/>
</g>
<!-- fs_inflow -->
<g id="node15" class="node"><title>fs_inflow</title>
<ellipse fill="none" stroke="black" cx="254" cy="-737" rx="7" ry="7"/>
</g>
<!-- fs_inflow&#45;&gt;fs -->
<g id="edge18" class="edge"><title>fs_inflow&#45;&gt;fs</title>
<path fill="none" stroke="black" d="M259.006,-731.964C265.069,-726.723 274.968,-716.942 279,-706 297.487,-655.825 291.767,-592.087 286.206,-556.403"/>
<polygon fill="black" stroke="black" points="289.614,-555.561 284.512,-546.275 282.71,-556.716 289.614,-555.561"/>
</g>
<!-- FN_Detector_inflow -->
<g id="node16" class="node"><title>FN_Detector_inflow</title>
<ellipse fill="none" stroke="black" cx="222" cy="-737" rx="7" ry="7"/>
</g>
<!-- FN_Detector_inflow&#45;&gt;FN_Detector -->
<g id="edge19" class="edge"><title>FN_Detector_inflow&#45;&gt;FN_Detector</title>
<path fill="none" stroke="black" d="M222,-729.729C222,-722.795 222,-711.154 222,-700.215"/>
<polygon fill="black" stroke="black" points="225.5,-700.119 222,-690.119 218.5,-700.119 225.5,-700.119"/>
</g>
<!-- FN_Sampling_rate_inflow -->
<g id="node17" class="node"><title>FN_Sampling_rate_inflow</title>
<ellipse fill="none" stroke="black" cx="190" cy="-737" rx="7" ry="7"/>
</g>
<!-- FN_Sampling_rate_inflow&#45;&gt;FN_Sampling_rate -->
<g id="edge20" class="edge"><title>FN_Sampling_rate_inflow&#45;&gt;FN_Sampling_rate</title>
<path fill="none" stroke="black" d="M184.337,-732.432C173.225,-725.432 147.757,-709.387 126.081,-695.731"/>
<polygon fill="black" stroke="black" points="127.712,-692.622 117.385,-690.253 123.981,-698.545 127.712,-692.622"/>
</g>
</g>
</svg>
