<?xml version="1.0" encoding="UTF-8" standalone="no"?>
<!DOCTYPE svg PUBLIC "-//W3C//DTD SVG 1.1//EN"
 "http://www.w3.org/Graphics/SVG/1.1/DTD/svg11.dtd">
<!-- Generated by graphviz version 2.38.0 (20140413.2041)
 -->
<!-- Title: yw_data_view Pages: 1 -->
<svg width="326pt" height="518pt"
 viewBox="0.00 0.00 326.35 517.60" xmlns="http://www.w3.org/2000/svg" xmlns:xlink="http://www.w3.org/1999/xlink">
<g id="graph0" class="graph" transform="scale(1 1) rotate(0) translate(4 513.6)">
<title>yw_data_view</title>
<polygon fill="white" stroke="none" points="-4,4 -4,-513.6 322.35,-513.6 322.35,4 -4,4"/>
<text text-anchor="middle" x="159.175" y="-489.4" font-family="Courier,monospace" font-size="18.00">GRAVITATIONAL_WAVE_DETECTION</text>
<g id="clust1" class="cluster"><title>cluster_workflow</title>
<polygon fill="none" stroke="black" stroke-width="2" points="20.1748,-62 20.1748,-418 298.175,-418 298.175,-62 20.1748,-62"/>
</g>
<g id="clust2" class="cluster"><title>cluster_workflow_inner</title>
<polygon fill="none" stroke="white" stroke-width="2" points="28.1748,-70 28.1748,-410 290.175,-410 290.175,-70 28.1748,-70"/>
</g>
<g id="clust3" class="cluster"><title>cluster_inflows</title>
<polygon fill="none" stroke="white" stroke-width="2" points="179.175,-426 179.175,-472 289.175,-472 289.175,-426 179.175,-426"/>
</g>
<g id="clust4" class="cluster"><title>cluster_inflows_inner</title>
<polygon fill="none" stroke="white" stroke-width="2" points="187.175,-434 187.175,-464 281.175,-464 281.175,-434 187.175,-434"/>
</g>
<g id="clust5" class="cluster"><title>cluster_outflows</title>
<polygon fill="none" stroke="white" stroke-width="2" points="142.175,-8 142.175,-54 188.175,-54 188.175,-8 142.175,-8"/>
</g>
<g id="clust6" class="cluster"><title>cluster_outflows_inner</title>
<polygon fill="none" stroke="white" stroke-width="2" points="150.175,-16 150.175,-46 180.175,-46 180.175,-16 150.175,-16"/>
</g>
<!-- LOAD_DATA -->
<g id="node1" class="node"><title>LOAD_DATA</title>
<polygon fill="#ccffcc" stroke="black" points="179.763,-330 88.5865,-330 88.5865,-294 179.763,-294 179.763,-330"/>
<text text-anchor="middle" x="134.175" y="-307.8" font-family="Courier,monospace" font-size="14.00">LOAD_DATA</text>
</g>
<!-- strain_H1 -->
<g id="node5" class="node"><title>strain_H1</title>
<path fill="#ffffcc" stroke="black" d="M103.07,-258C103.07,-258 51.2799,-258 51.2799,-258 45.2799,-258 39.2799,-252 39.2799,-246 39.2799,-246 39.2799,-234 39.2799,-234 39.2799,-228 45.2799,-222 51.2799,-222 51.2799,-222 103.07,-222 103.07,-222 109.07,-222 115.07,-228 115.07,-234 115.07,-234 115.07,-246 115.07,-246 115.07,-252 109.07,-258 103.07,-258"/>
<text text-anchor="middle" x="77.1748" y="-235.8" font-family="Helvetica,sans-Serif" font-size="14.00">strain_H1</text>
</g>
<!-- LOAD_DATA&#45;&gt;strain_H1 -->
<g id="edge6" class="edge"><title>LOAD_DATA&#45;&gt;strain_H1</title>
<path fill="none" stroke="black" d="M120.085,-293.697C113.251,-285.305 104.918,-275.07 97.419,-265.861"/>
<polygon fill="black" stroke="black" points="100.131,-263.649 91.1026,-258.104 94.7029,-268.069 100.131,-263.649"/>
</g>
<!-- strain_L1 -->
<g id="node6" class="node"><title>strain_L1</title>
<path fill="#ffffcc" stroke="black" d="M194.747,-258C194.747,-258 145.603,-258 145.603,-258 139.603,-258 133.603,-252 133.603,-246 133.603,-246 133.603,-234 133.603,-234 133.603,-228 139.603,-222 145.603,-222 145.603,-222 194.747,-222 194.747,-222 200.747,-222 206.747,-228 206.747,-234 206.747,-234 206.747,-246 206.747,-246 206.747,-252 200.747,-258 194.747,-258"/>
<text text-anchor="middle" x="170.175" y="-235.8" font-family="Helvetica,sans-Serif" font-size="14.00">strain_L1</text>
</g>
<!-- LOAD_DATA&#45;&gt;strain_L1 -->
<g id="edge7" class="edge"><title>LOAD_DATA&#45;&gt;strain_L1</title>
<path fill="none" stroke="black" d="M143.074,-293.697C147.172,-285.728 152.124,-276.1 156.668,-267.264"/>
<polygon fill="black" stroke="black" points="159.917,-268.598 161.378,-258.104 153.692,-265.396 159.917,-268.598"/>
</g>
<!-- AMPLITUDE_SPECTRAL_DENSITY -->
<g id="node2" class="node"><title>AMPLITUDE_SPECTRAL_DENSITY</title>
<polygon fill="#ccffcc" stroke="black" points="282.539,-186 47.8109,-186 47.8109,-150 282.539,-150 282.539,-186"/>
<text text-anchor="middle" x="165.175" y="-163.8" font-family="Courier,monospace" font-size="14.00">AMPLITUDE_SPECTRAL_DENSITY</text>
</g>
<!-- ASDs -->
<g id="node7" class="node"><title>ASDs</title>
<path fill="#ffffcc" stroke="black" d="M180.175,-114C180.175,-114 150.175,-114 150.175,-114 144.175,-114 138.175,-108 138.175,-102 138.175,-102 138.175,-90 138.175,-90 138.175,-84 144.175,-78 150.175,-78 150.175,-78 180.175,-78 180.175,-78 186.175,-78 192.175,-84 192.175,-90 192.175,-90 192.175,-102 192.175,-102 192.175,-108 186.175,-114 180.175,-114"/>
<text text-anchor="middle" x="165.175" y="-91.8" font-family="Helvetica,sans-Serif" font-size="14.00">ASDs</text>
</g>
<!-- AMPLITUDE_SPECTRAL_DENSITY&#45;&gt;ASDs -->
<g id="edge8" class="edge"><title>AMPLITUDE_SPECTRAL_DENSITY&#45;&gt;ASDs</title>
<path fill="none" stroke="black" d="M165.175,-149.697C165.175,-141.983 165.175,-132.712 165.175,-124.112"/>
<polygon fill="black" stroke="black" points="168.675,-124.104 165.175,-114.104 161.675,-124.104 168.675,-124.104"/>
</g>
<!-- FN_Detector -->
<g id="node3" class="node"><title>FN_Detector</title>
<path fill="#ffffcc" stroke="black" d="M270.013,-402C270.013,-402 198.336,-402 198.336,-402 192.336,-402 186.336,-396 186.336,-390 186.336,-390 186.336,-378 186.336,-378 186.336,-372 192.336,-366 198.336,-366 198.336,-366 270.013,-366 270.013,-366 276.013,-366 282.013,-372 282.013,-378 282.013,-378 282.013,-390 282.013,-390 282.013,-396 276.013,-402 270.013,-402"/>
<text text-anchor="middle" x="234.175" y="-379.8" font-family="Helvetica,sans-Serif" font-size="14.00">FN_Detector</text>
</g>
<!-- FN_Detector&#45;&gt;LOAD_DATA -->
<g id="edge5" class="edge"><title>FN_Detector&#45;&gt;LOAD_DATA</title>
<path fill="none" stroke="black" d="M209.712,-365.876C196.879,-356.893 180.978,-345.763 167.081,-336.034"/>
<polygon fill="black" stroke="black" points="168.931,-333.057 158.732,-330.19 164.917,-338.792 168.931,-333.057"/>
</g>
<!-- FN_Sampling_rate -->
<g id="node4" class="node"><title>FN_Sampling_rate</title>
<path fill="#ffffcc" stroke="black" d="M156.357,-402C156.357,-402 47.9928,-402 47.9928,-402 41.9928,-402 35.9928,-396 35.9928,-390 35.9928,-390 35.9928,-378 35.9928,-378 35.9928,-372 41.9928,-366 47.9928,-366 47.9928,-366 156.357,-366 156.357,-366 162.357,-366 168.357,-372 168.357,-378 168.357,-378 168.357,-390 168.357,-390 168.357,-396 162.357,-402 156.357,-402"/>
<text text-anchor="middle" x="102.175" y="-379.8" font-family="Helvetica,sans-Serif" font-size="14.00">FN_Sampling_rate</text>
</g>
<!-- FN_Sampling_rate&#45;&gt;LOAD_DATA -->
<g id="edge4" class="edge"><title>FN_Sampling_rate&#45;&gt;LOAD_DATA</title>
<path fill="none" stroke="black" d="M110.085,-365.697C113.728,-357.728 118.129,-348.1 122.168,-339.264"/>
<polygon fill="black" stroke="black" points="125.381,-340.654 126.356,-330.104 119.015,-337.744 125.381,-340.654"/>
</g>
<!-- strain_H1&#45;&gt;AMPLITUDE_SPECTRAL_DENSITY -->
<g id="edge3" class="edge"><title>strain_H1&#45;&gt;AMPLITUDE_SPECTRAL_DENSITY</title>
<path fill="none" stroke="black" d="M98.9276,-221.697C110.01,-212.881 123.649,-202.032 135.664,-192.474"/>
<polygon fill="black" stroke="black" points="138.025,-195.069 143.672,-186.104 133.667,-189.59 138.025,-195.069"/>
</g>
<!-- strain_L1&#45;&gt;AMPLITUDE_SPECTRAL_DENSITY -->
<g id="edge2" class="edge"><title>strain_L1&#45;&gt;AMPLITUDE_SPECTRAL_DENSITY</title>
<path fill="none" stroke="black" d="M168.939,-221.697C168.388,-213.983 167.726,-204.712 167.111,-196.112"/>
<polygon fill="black" stroke="black" points="170.6,-195.83 166.397,-186.104 163.618,-196.328 170.6,-195.83"/>
</g>
<!-- ASDs_outflow -->
<g id="node12" class="node"><title>ASDs_outflow</title>
<ellipse fill="none" stroke="black" cx="165.175" cy="-31" rx="7" ry="7"/>
</g>
<!-- ASDs&#45;&gt;ASDs_outflow -->
<g id="edge12" class="edge"><title>ASDs&#45;&gt;ASDs_outflow</title>
<path fill="none" stroke="black" d="M165.175,-77.785C165.175,-68.6656 165.175,-57.5197 165.175,-48.5085"/>
<polygon fill="black" stroke="black" points="168.675,-48.242 165.175,-38.242 161.675,-48.2421 168.675,-48.242"/>
</g>
<!-- fs -->
<g id="node8" class="node"><title>fs</title>
<path fill="#ffffff" stroke="black" d="M268.175,-258C268.175,-258 238.175,-258 238.175,-258 232.175,-258 226.175,-252 226.175,-246 226.175,-246 226.175,-234 226.175,-234 226.175,-228 232.175,-222 238.175,-222 238.175,-222 268.175,-222 268.175,-222 274.175,-222 280.175,-228 280.175,-234 280.175,-234 280.175,-246 280.175,-246 280.175,-252 274.175,-258 268.175,-258"/>
<text text-anchor="middle" x="253.175" y="-235.8" font-family="Helvetica,sans-Serif" font-size="14.00">fs</text>
</g>
<!-- fs&#45;&gt;AMPLITUDE_SPECTRAL_DENSITY -->
<g id="edge1" class="edge"><title>fs&#45;&gt;AMPLITUDE_SPECTRAL_DENSITY</title>
<path fill="none" stroke="black" d="M231.422,-221.697C220.339,-212.881 206.701,-202.032 194.685,-192.474"/>
<polygon fill="black" stroke="black" points="196.682,-189.59 186.677,-186.104 192.325,-195.069 196.682,-189.59"/>
</g>
<!-- fs_inflow -->
<g id="node9" class="node"><title>fs_inflow</title>
<ellipse fill="none" stroke="black" cx="266.175" cy="-449" rx="7" ry="7"/>
</g>
<!-- fs_inflow&#45;&gt;fs -->
<g id="edge9" class="edge"><title>fs_inflow&#45;&gt;fs</title>
<path fill="none" stroke="black" d="M271.201,-443.971C277.284,-438.738 287.205,-428.965 291.175,-418 299.042,-396.269 294.573,-388.86 291.175,-366 285.987,-331.098 273.072,-292.455 263.736,-267.506"/>
<polygon fill="black" stroke="black" points="266.95,-266.111 260.111,-258.019 260.411,-268.61 266.95,-266.111"/>
</g>
<!-- FN_Detector_inflow -->
<g id="node10" class="node"><title>FN_Detector_inflow</title>
<ellipse fill="none" stroke="black" cx="234.175" cy="-449" rx="7" ry="7"/>
</g>
<!-- FN_Detector_inflow&#45;&gt;FN_Detector -->
<g id="edge10" class="edge"><title>FN_Detector_inflow&#45;&gt;FN_Detector</title>
<path fill="none" stroke="black" d="M234.175,-441.729C234.175,-434.795 234.175,-423.154 234.175,-412.215"/>
<polygon fill="black" stroke="black" points="237.675,-412.119 234.175,-402.119 230.675,-412.119 237.675,-412.119"/>
</g>
<!-- FN_Sampling_rate_inflow -->
<g id="node11" class="node"><title>FN_Sampling_rate_inflow</title>
<ellipse fill="none" stroke="black" cx="202.175" cy="-449" rx="7" ry="7"/>
</g>
<!-- FN_Sampling_rate_inflow&#45;&gt;FN_Sampling_rate -->
<g id="edge11" class="edge"><title>FN_Sampling_rate_inflow&#45;&gt;FN_Sampling_rate</title>
<path fill="none" stroke="black" d="M196.512,-444.432C185.4,-437.432 159.932,-421.387 138.256,-407.731"/>
<polygon fill="black" stroke="black" points="139.887,-404.622 129.56,-402.253 136.155,-410.545 139.887,-404.622"/>
</g>
</g>
</svg>
