<?xml version="1.0" encoding="UTF-8" standalone="no"?>
<!DOCTYPE svg PUBLIC "-//W3C//DTD SVG 1.1//EN"
 "http://www.w3.org/Graphics/SVG/1.1/DTD/svg11.dtd">
<!-- Generated by graphviz version 2.38.0 (20140413.2041)
 -->
<!-- Title: yw_data_view Pages: 1 -->
<svg width="352pt" height="950pt"
 viewBox="0.00 0.00 352.00 949.60" xmlns="http://www.w3.org/2000/svg" xmlns:xlink="http://www.w3.org/1999/xlink">
<g id="graph0" class="graph" transform="scale(1 1) rotate(0) translate(4 945.6)">
<title>yw_data_view</title>
<polygon fill="white" stroke="none" points="-4,4 -4,-945.6 348,-945.6 348,4 -4,4"/>
<text text-anchor="middle" x="172" y="-921.4" font-family="Courier,monospace" font-size="18.00">GRAVITATIONAL_WAVE_DETECTION</text>
<g id="clust1" class="cluster"><title>cluster_workflow</title>
<polygon fill="none" stroke="black" stroke-width="2" points="8,-62 8,-850 336,-850 336,-62 8,-62"/>
</g>
<g id="clust2" class="cluster"><title>cluster_workflow_inner</title>
<polygon fill="none" stroke="white" stroke-width="2" points="16,-70 16,-842 328,-842 328,-70 16,-70"/>
</g>
<g id="clust3" class="cluster"><title>cluster_inflows</title>
<polygon fill="none" stroke="white" stroke-width="2" points="167,-858 167,-904 277,-904 277,-858 167,-858"/>
</g>
<g id="clust4" class="cluster"><title>cluster_inflows_inner</title>
<polygon fill="none" stroke="white" stroke-width="2" points="175,-866 175,-896 269,-896 269,-866 175,-866"/>
</g>
<g id="clust5" class="cluster"><title>cluster_outflows</title>
<polygon fill="none" stroke="white" stroke-width="2" points="149,-8 149,-54 195,-54 195,-8 149,-8"/>
</g>
<g id="clust6" class="cluster"><title>cluster_outflows_inner</title>
<polygon fill="none" stroke="white" stroke-width="2" points="157,-16 157,-46 187,-46 187,-16 157,-16"/>
</g>
<!-- BANDPASSING -->
<g id="node1" class="node"><title>BANDPASSING</title>
<polygon fill="#ccffcc" stroke="black" points="160.385,-330 51.6147,-330 51.6147,-294 160.385,-294 160.385,-330"/>
<text text-anchor="middle" x="106" y="-307.8" font-family="Courier,monospace" font-size="14.00">BANDPASSING</text>
</g>
<!-- strain_H1_whitenbp -->
<g id="node14" class="node"><title>strain_H1_whitenbp</title>
<path fill="#ffffcc" stroke="black" d="M151.695,-258C151.695,-258 36.3055,-258 36.3055,-258 30.3055,-258 24.3055,-252 24.3055,-246 24.3055,-246 24.3055,-234 24.3055,-234 24.3055,-228 30.3055,-222 36.3055,-222 36.3055,-222 151.695,-222 151.695,-222 157.695,-222 163.695,-228 163.695,-234 163.695,-234 163.695,-246 163.695,-246 163.695,-252 157.695,-258 151.695,-258"/>
<text text-anchor="middle" x="94" y="-235.8" font-family="Helvetica,sans-Serif" font-size="14.00">strain_H1_whitenbp</text>
</g>
<!-- BANDPASSING&#45;&gt;strain_H1_whitenbp -->
<g id="edge18" class="edge"><title>BANDPASSING&#45;&gt;strain_H1_whitenbp</title>
<path fill="none" stroke="black" d="M103.034,-293.697C101.711,-285.983 100.122,-276.712 98.6478,-268.112"/>
<polygon fill="black" stroke="black" points="102.072,-267.369 96.9322,-258.104 95.1722,-268.552 102.072,-267.369"/>
</g>
<!-- strain_L1_whitenbp -->
<g id="node15" class="node"><title>strain_L1_whitenbp</title>
<path fill="#ffffcc" stroke="black" d="M307.871,-258C307.871,-258 194.129,-258 194.129,-258 188.129,-258 182.129,-252 182.129,-246 182.129,-246 182.129,-234 182.129,-234 182.129,-228 188.129,-222 194.129,-222 194.129,-222 307.871,-222 307.871,-222 313.871,-222 319.871,-228 319.871,-234 319.871,-234 319.871,-246 319.871,-246 319.871,-252 313.871,-258 307.871,-258"/>
<text text-anchor="middle" x="251" y="-235.8" font-family="Helvetica,sans-Serif" font-size="14.00">strain_L1_whitenbp</text>
</g>
<!-- BANDPASSING&#45;&gt;strain_L1_whitenbp -->
<g id="edge19" class="edge"><title>BANDPASSING&#45;&gt;strain_L1_whitenbp</title>
<path fill="none" stroke="black" d="M141.471,-293.876C161.117,-284.392 185.722,-272.513 206.632,-262.419"/>
<polygon fill="black" stroke="black" points="208.16,-265.568 215.644,-258.068 205.117,-259.264 208.16,-265.568"/>
</g>
<!-- WHITENING -->
<g id="node2" class="node"><title>WHITENING</title>
<polygon fill="#ccffcc" stroke="black" points="242.588,-474 151.412,-474 151.412,-438 242.588,-438 242.588,-474"/>
<text text-anchor="middle" x="197" y="-451.8" font-family="Courier,monospace" font-size="14.00">WHITENING</text>
</g>
<!-- strain_H1_whiten -->
<g id="node12" class="node"><title>strain_H1_whiten</title>
<path fill="#ffffcc" stroke="black" d="M146.129,-402C146.129,-402 45.8709,-402 45.8709,-402 39.8709,-402 33.8709,-396 33.8709,-390 33.8709,-390 33.8709,-378 33.8709,-378 33.8709,-372 39.8709,-366 45.8709,-366 45.8709,-366 146.129,-366 146.129,-366 152.129,-366 158.129,-372 158.129,-378 158.129,-378 158.129,-390 158.129,-390 158.129,-396 152.129,-402 146.129,-402"/>
<text text-anchor="middle" x="96" y="-379.8" font-family="Helvetica,sans-Serif" font-size="14.00">strain_H1_whiten</text>
</g>
<!-- WHITENING&#45;&gt;strain_H1_whiten -->
<g id="edge16" class="edge"><title>WHITENING&#45;&gt;strain_H1_whiten</title>
<path fill="none" stroke="black" d="M172.293,-437.876C159.331,-428.893 143.272,-417.763 129.235,-408.034"/>
<polygon fill="black" stroke="black" points="131.015,-405.009 120.802,-402.19 127.028,-410.763 131.015,-405.009"/>
</g>
<!-- strain_L1_whiten -->
<g id="node13" class="node"><title>strain_L1_whiten</title>
<path fill="#ffffcc" stroke="black" d="M285.805,-402C285.805,-402 188.195,-402 188.195,-402 182.195,-402 176.195,-396 176.195,-390 176.195,-390 176.195,-378 176.195,-378 176.195,-372 182.195,-366 188.195,-366 188.195,-366 285.805,-366 285.805,-366 291.805,-366 297.805,-372 297.805,-378 297.805,-378 297.805,-390 297.805,-390 297.805,-396 291.805,-402 285.805,-402"/>
<text text-anchor="middle" x="237" y="-379.8" font-family="Helvetica,sans-Serif" font-size="14.00">strain_L1_whiten</text>
</g>
<!-- WHITENING&#45;&gt;strain_L1_whiten -->
<g id="edge17" class="edge"><title>WHITENING&#45;&gt;strain_L1_whiten</title>
<path fill="none" stroke="black" d="M206.888,-437.697C211.489,-429.644 217.06,-419.894 222.153,-410.982"/>
<polygon fill="black" stroke="black" points="225.304,-412.523 227.226,-402.104 219.226,-409.05 225.304,-412.523"/>
</g>
<!-- AMPLITUDE_SPECTRAL_DENSITY -->
<g id="node3" class="node"><title>AMPLITUDE_SPECTRAL_DENSITY</title>
<polygon fill="#ccffcc" stroke="black" points="320.364,-618 85.6361,-618 85.6361,-582 320.364,-582 320.364,-618"/>
<text text-anchor="middle" x="203" y="-595.8" font-family="Courier,monospace" font-size="14.00">AMPLITUDE_SPECTRAL_DENSITY</text>
</g>
<!-- PSD_H1 -->
<g id="node10" class="node"><title>PSD_H1</title>
<path fill="#ffffcc" stroke="black" d="M177.453,-546C177.453,-546 130.547,-546 130.547,-546 124.547,-546 118.547,-540 118.547,-534 118.547,-534 118.547,-522 118.547,-522 118.547,-516 124.547,-510 130.547,-510 130.547,-510 177.453,-510 177.453,-510 183.453,-510 189.453,-516 189.453,-522 189.453,-522 189.453,-534 189.453,-534 189.453,-540 183.453,-546 177.453,-546"/>
<text text-anchor="middle" x="154" y="-523.8" font-family="Helvetica,sans-Serif" font-size="14.00">PSD_H1</text>
</g>
<!-- AMPLITUDE_SPECTRAL_DENSITY&#45;&gt;PSD_H1 -->
<g id="edge14" class="edge"><title>AMPLITUDE_SPECTRAL_DENSITY&#45;&gt;PSD_H1</title>
<path fill="none" stroke="black" d="M190.888,-581.697C185.132,-573.474 178.138,-563.483 171.794,-554.421"/>
<polygon fill="black" stroke="black" points="174.575,-552.29 165.973,-546.104 168.84,-556.304 174.575,-552.29"/>
</g>
<!-- PSD_L1 -->
<g id="node11" class="node"><title>PSD_L1</title>
<path fill="#ffffcc" stroke="black" d="M263.128,-546C263.128,-546 218.872,-546 218.872,-546 212.872,-546 206.872,-540 206.872,-534 206.872,-534 206.872,-522 206.872,-522 206.872,-516 212.872,-510 218.872,-510 218.872,-510 263.128,-510 263.128,-510 269.128,-510 275.128,-516 275.128,-522 275.128,-522 275.128,-534 275.128,-534 275.128,-540 269.128,-546 263.128,-546"/>
<text text-anchor="middle" x="241" y="-523.8" font-family="Helvetica,sans-Serif" font-size="14.00">PSD_L1</text>
</g>
<!-- AMPLITUDE_SPECTRAL_DENSITY&#45;&gt;PSD_L1 -->
<g id="edge15" class="edge"><title>AMPLITUDE_SPECTRAL_DENSITY&#45;&gt;PSD_L1</title>
<path fill="none" stroke="black" d="M212.393,-581.697C216.765,-573.644 222.057,-563.894 226.895,-554.982"/>
<polygon fill="black" stroke="black" points="230.02,-556.563 231.715,-546.104 223.868,-553.223 230.02,-556.563"/>
</g>
<!-- LOAD_DATA -->
<g id="node4" class="node"><title>LOAD_DATA</title>
<polygon fill="#ccffcc" stroke="black" points="203.588,-762 112.412,-762 112.412,-726 203.588,-726 203.588,-762"/>
<text text-anchor="middle" x="158" y="-739.8" font-family="Courier,monospace" font-size="14.00">LOAD_DATA</text>
</g>
<!-- strain_H1 -->
<g id="node8" class="node"><title>strain_H1</title>
<path fill="#ffffcc" stroke="black" d="M137.895,-690C137.895,-690 86.1051,-690 86.1051,-690 80.1051,-690 74.1051,-684 74.1051,-678 74.1051,-678 74.1051,-666 74.1051,-666 74.1051,-660 80.1051,-654 86.1051,-654 86.1051,-654 137.895,-654 137.895,-654 143.895,-654 149.895,-660 149.895,-666 149.895,-666 149.895,-678 149.895,-678 149.895,-684 143.895,-690 137.895,-690"/>
<text text-anchor="middle" x="112" y="-667.8" font-family="Helvetica,sans-Serif" font-size="14.00">strain_H1</text>
</g>
<!-- LOAD_DATA&#45;&gt;strain_H1 -->
<g id="edge12" class="edge"><title>LOAD_DATA&#45;&gt;strain_H1</title>
<path fill="none" stroke="black" d="M146.629,-725.697C141.282,-717.559 134.796,-707.689 128.889,-698.701"/>
<polygon fill="black" stroke="black" points="131.657,-696.539 123.24,-690.104 125.807,-700.384 131.657,-696.539"/>
</g>
<!-- strain_L1 -->
<g id="node9" class="node"><title>strain_L1</title>
<path fill="#ffffcc" stroke="black" d="M229.572,-690C229.572,-690 180.428,-690 180.428,-690 174.428,-690 168.428,-684 168.428,-678 168.428,-678 168.428,-666 168.428,-666 168.428,-660 174.428,-654 180.428,-654 180.428,-654 229.572,-654 229.572,-654 235.572,-654 241.572,-660 241.572,-666 241.572,-666 241.572,-678 241.572,-678 241.572,-684 235.572,-690 229.572,-690"/>
<text text-anchor="middle" x="205" y="-667.8" font-family="Helvetica,sans-Serif" font-size="14.00">strain_L1</text>
</g>
<!-- LOAD_DATA&#45;&gt;strain_L1 -->
<g id="edge13" class="edge"><title>LOAD_DATA&#45;&gt;strain_L1</title>
<path fill="none" stroke="black" d="M169.618,-725.697C175.139,-717.474 181.847,-707.483 187.932,-698.421"/>
<polygon fill="black" stroke="black" points="190.847,-700.358 193.516,-690.104 185.035,-696.456 190.847,-700.358"/>
</g>
<!-- STRAIN_WAVEFORM_FOR_WHITENED_DATA -->
<g id="node5" class="node"><title>STRAIN_WAVEFORM_FOR_WHITENED_DATA</title>
<polygon fill="#ccffcc" stroke="black" points="318.654,-186 25.3462,-186 25.3462,-150 318.654,-150 318.654,-186"/>
<text text-anchor="middle" x="172" y="-163.8" font-family="Courier,monospace" font-size="14.00">STRAIN_WAVEFORM_FOR_WHITENED_DATA</text>
</g>
<!-- WHITENED_strain_data -->
<g id="node16" class="node"><title>WHITENED_strain_data</title>
<path fill="#ffffcc" stroke="black" d="M243.678,-114C243.678,-114 100.322,-114 100.322,-114 94.3223,-114 88.3223,-108 88.3223,-102 88.3223,-102 88.3223,-90 88.3223,-90 88.3223,-84 94.3223,-78 100.322,-78 100.322,-78 243.678,-78 243.678,-78 249.678,-78 255.678,-84 255.678,-90 255.678,-90 255.678,-102 255.678,-102 255.678,-108 249.678,-114 243.678,-114"/>
<text text-anchor="middle" x="172" y="-91.8" font-family="Helvetica,sans-Serif" font-size="14.00">WHITENED_strain_data</text>
</g>
<!-- STRAIN_WAVEFORM_FOR_WHITENED_DATA&#45;&gt;WHITENED_strain_data -->
<g id="edge20" class="edge"><title>STRAIN_WAVEFORM_FOR_WHITENED_DATA&#45;&gt;WHITENED_strain_data</title>
<path fill="none" stroke="black" d="M172,-149.697C172,-141.983 172,-132.712 172,-124.112"/>
<polygon fill="black" stroke="black" points="175.5,-124.104 172,-114.104 168.5,-124.104 175.5,-124.104"/>
</g>
<!-- FN_Detector -->
<g id="node6" class="node"><title>FN_Detector</title>
<path fill="#ffffcc" stroke="black" d="M257.839,-834C257.839,-834 186.161,-834 186.161,-834 180.161,-834 174.161,-828 174.161,-822 174.161,-822 174.161,-810 174.161,-810 174.161,-804 180.161,-798 186.161,-798 186.161,-798 257.839,-798 257.839,-798 263.839,-798 269.839,-804 269.839,-810 269.839,-810 269.839,-822 269.839,-822 269.839,-828 263.839,-834 257.839,-834"/>
<text text-anchor="middle" x="222" y="-811.8" font-family="Helvetica,sans-Serif" font-size="14.00">FN_Detector</text>
</g>
<!-- FN_Detector&#45;&gt;LOAD_DATA -->
<g id="edge2" class="edge"><title>FN_Detector&#45;&gt;LOAD_DATA</title>
<path fill="none" stroke="black" d="M206.18,-797.697C198.43,-789.22 188.961,-778.864 180.476,-769.583"/>
<polygon fill="black" stroke="black" points="182.969,-767.123 173.638,-762.104 177.803,-771.846 182.969,-767.123"/>
</g>
<!-- FN_Sampling_rate -->
<g id="node7" class="node"><title>FN_Sampling_rate</title>
<path fill="#ffffcc" stroke="black" d="M144.182,-834C144.182,-834 35.818,-834 35.818,-834 29.818,-834 23.818,-828 23.818,-822 23.818,-822 23.818,-810 23.818,-810 23.818,-804 29.818,-798 35.818,-798 35.818,-798 144.182,-798 144.182,-798 150.182,-798 156.182,-804 156.182,-810 156.182,-810 156.182,-822 156.182,-822 156.182,-828 150.182,-834 144.182,-834"/>
<text text-anchor="middle" x="90" y="-811.8" font-family="Helvetica,sans-Serif" font-size="14.00">FN_Sampling_rate</text>
</g>
<!-- FN_Sampling_rate&#45;&gt;LOAD_DATA -->
<g id="edge4" class="edge"><title>FN_Sampling_rate&#45;&gt;LOAD_DATA</title>
<path fill="none" stroke="black" d="M106.809,-797.697C115.126,-789.135 125.305,-778.656 134.39,-769.304"/>
<polygon fill="black" stroke="black" points="136.927,-771.716 141.384,-762.104 131.906,-766.838 136.927,-771.716"/>
</g>
<!-- strain_H1&#45;&gt;AMPLITUDE_SPECTRAL_DENSITY -->
<g id="edge8" class="edge"><title>strain_H1&#45;&gt;AMPLITUDE_SPECTRAL_DENSITY</title>
<path fill="none" stroke="black" d="M134.494,-653.697C145.955,-644.881 160.058,-634.032 172.484,-624.474"/>
<polygon fill="black" stroke="black" points="174.972,-626.976 180.764,-618.104 170.704,-621.427 174.972,-626.976"/>
</g>
<!-- strain_L1&#45;&gt;AMPLITUDE_SPECTRAL_DENSITY -->
<g id="edge10" class="edge"><title>strain_L1&#45;&gt;AMPLITUDE_SPECTRAL_DENSITY</title>
<path fill="none" stroke="black" d="M204.506,-653.697C204.285,-645.983 204.02,-636.712 203.775,-628.112"/>
<polygon fill="black" stroke="black" points="207.273,-628 203.489,-618.104 200.276,-628.2 207.273,-628"/>
</g>
<!-- PSD_H1&#45;&gt;WHITENING -->
<g id="edge5" class="edge"><title>PSD_H1&#45;&gt;WHITENING</title>
<path fill="none" stroke="black" d="M164.629,-509.697C169.628,-501.559 175.691,-491.689 181.212,-482.701"/>
<polygon fill="black" stroke="black" points="184.241,-484.457 186.493,-474.104 178.277,-480.793 184.241,-484.457"/>
</g>
<!-- PSD_L1&#45;&gt;WHITENING -->
<g id="edge6" class="edge"><title>PSD_L1&#45;&gt;WHITENING</title>
<path fill="none" stroke="black" d="M230.124,-509.697C225.008,-501.559 218.805,-491.689 213.155,-482.701"/>
<polygon fill="black" stroke="black" points="216.036,-480.708 207.751,-474.104 210.11,-484.433 216.036,-480.708"/>
</g>
<!-- strain_H1_whiten&#45;&gt;BANDPASSING -->
<g id="edge9" class="edge"><title>strain_H1_whiten&#45;&gt;BANDPASSING</title>
<path fill="none" stroke="black" d="M98.4719,-365.697C99.5739,-357.983 100.898,-348.712 102.127,-340.112"/>
<polygon fill="black" stroke="black" points="105.607,-340.499 103.557,-330.104 98.6774,-339.509 105.607,-340.499"/>
</g>
<!-- strain_L1_whiten&#45;&gt;BANDPASSING -->
<g id="edge11" class="edge"><title>strain_L1_whiten&#45;&gt;BANDPASSING</title>
<path fill="none" stroke="black" d="M204.954,-365.876C187.508,-356.554 165.735,-344.919 147.057,-334.939"/>
<polygon fill="black" stroke="black" points="148.639,-331.816 138.169,-330.19 145.34,-337.99 148.639,-331.816"/>
</g>
<!-- strain_H1_whitenbp&#45;&gt;STRAIN_WAVEFORM_FOR_WHITENED_DATA -->
<g id="edge1" class="edge"><title>strain_H1_whitenbp&#45;&gt;STRAIN_WAVEFORM_FOR_WHITENED_DATA</title>
<path fill="none" stroke="black" d="M113.281,-221.697C122.915,-213.05 134.729,-202.449 145.227,-193.027"/>
<polygon fill="black" stroke="black" points="147.836,-195.388 152.941,-186.104 143.161,-190.179 147.836,-195.388"/>
</g>
<!-- strain_L1_whitenbp&#45;&gt;STRAIN_WAVEFORM_FOR_WHITENED_DATA -->
<g id="edge3" class="edge"><title>strain_L1_whitenbp&#45;&gt;STRAIN_WAVEFORM_FOR_WHITENED_DATA</title>
<path fill="none" stroke="black" d="M231.472,-221.697C221.618,-212.965 209.514,-202.24 198.804,-192.75"/>
<polygon fill="black" stroke="black" points="201.109,-190.117 191.303,-186.104 196.467,-195.356 201.109,-190.117"/>
</g>
<!-- WHITENED_strain_data_outflow -->
<g id="node21" class="node"><title>WHITENED_strain_data_outflow</title>
<ellipse fill="none" stroke="black" cx="172" cy="-31" rx="7" ry="7"/>
</g>
<!-- WHITENED_strain_data&#45;&gt;WHITENED_strain_data_outflow -->
<g id="edge24" class="edge"><title>WHITENED_strain_data&#45;&gt;WHITENED_strain_data_outflow</title>
<path fill="none" stroke="black" d="M172,-77.785C172,-68.6656 172,-57.5197 172,-48.5085"/>
<polygon fill="black" stroke="black" points="175.5,-48.242 172,-38.242 168.5,-48.2421 175.5,-48.242"/>
</g>
<!-- fs -->
<g id="node17" class="node"><title>fs</title>
<path fill="#ffffff" stroke="black" d="M306,-690C306,-690 276,-690 276,-690 270,-690 264,-684 264,-678 264,-678 264,-666 264,-666 264,-660 270,-654 276,-654 276,-654 306,-654 306,-654 312,-654 318,-660 318,-666 318,-666 318,-678 318,-678 318,-684 312,-690 306,-690"/>
<text text-anchor="middle" x="291" y="-667.8" font-family="Helvetica,sans-Serif" font-size="14.00">fs</text>
</g>
<!-- fs&#45;&gt;AMPLITUDE_SPECTRAL_DENSITY -->
<g id="edge7" class="edge"><title>fs&#45;&gt;AMPLITUDE_SPECTRAL_DENSITY</title>
<path fill="none" stroke="black" d="M269.247,-653.697C258.164,-644.881 244.526,-634.032 232.51,-624.474"/>
<polygon fill="black" stroke="black" points="234.507,-621.59 224.503,-618.104 230.15,-627.069 234.507,-621.59"/>
</g>
<!-- fs_inflow -->
<g id="node18" class="node"><title>fs_inflow</title>
<ellipse fill="none" stroke="black" cx="254" cy="-881" rx="7" ry="7"/>
</g>
<!-- fs_inflow&#45;&gt;fs -->
<g id="edge21" class="edge"><title>fs_inflow&#45;&gt;fs</title>
<path fill="none" stroke="black" d="M258.907,-875.926C264.867,-870.646 274.661,-860.824 279,-850 298.991,-800.126 297.308,-736.03 294.208,-700.256"/>
<polygon fill="black" stroke="black" points="297.673,-699.725 293.223,-690.11 290.706,-700.402 297.673,-699.725"/>
</g>
<!-- FN_Detector_inflow -->
<g id="node19" class="node"><title>FN_Detector_inflow</title>
<ellipse fill="none" stroke="black" cx="222" cy="-881" rx="7" ry="7"/>
</g>
<!-- FN_Detector_inflow&#45;&gt;FN_Detector -->
<g id="edge22" class="edge"><title>FN_Detector_inflow&#45;&gt;FN_Detector</title>
<path fill="none" stroke="black" d="M222,-873.729C222,-866.795 222,-855.154 222,-844.215"/>
<polygon fill="black" stroke="black" points="225.5,-844.119 222,-834.119 218.5,-844.119 225.5,-844.119"/>
</g>
<!-- FN_Sampling_rate_inflow -->
<g id="node20" class="node"><title>FN_Sampling_rate_inflow</title>
<ellipse fill="none" stroke="black" cx="190" cy="-881" rx="7" ry="7"/>
</g>
<!-- FN_Sampling_rate_inflow&#45;&gt;FN_Sampling_rate -->
<g id="edge23" class="edge"><title>FN_Sampling_rate_inflow&#45;&gt;FN_Sampling_rate</title>
<path fill="none" stroke="black" d="M184.337,-876.432C173.225,-869.432 147.757,-853.387 126.081,-839.731"/>
<polygon fill="black" stroke="black" points="127.712,-836.622 117.385,-834.253 123.981,-842.545 127.712,-836.622"/>
</g>
</g>
</svg>
