<?xml version="1.0" encoding="UTF-8" standalone="no"?>
<!DOCTYPE svg PUBLIC "-//W3C//DTD SVG 1.1//EN"
 "http://www.w3.org/Graphics/SVG/1.1/DTD/svg11.dtd">
<!-- Generated by graphviz version 2.38.0 (20140413.2041)
 -->
<!-- Title: yw_data_view Pages: 1 -->
<svg width="326pt" height="176pt"
 viewBox="0.00 0.00 326.35 175.60" xmlns="http://www.w3.org/2000/svg" xmlns:xlink="http://www.w3.org/1999/xlink">
<g id="graph0" class="graph" transform="scale(1 1) rotate(0) translate(4 171.6)">
<title>yw_data_view</title>
<polygon fill="white" stroke="none" points="-4,4 -4,-171.6 322.35,-171.6 322.35,4 -4,4"/>
<text text-anchor="middle" x="159.175" y="-147.4" font-family="Courier,monospace" font-size="18.00">GRAVITATIONAL_WAVE_DETECTION</text>
<g id="clust1" class="cluster"><title>cluster_workflow</title>
<polygon fill="none" stroke="black" stroke-width="2" points="77.1748,-8 77.1748,-76 241.175,-76 241.175,-8 77.1748,-8"/>
</g>
<g id="clust2" class="cluster"><title>cluster_workflow_inner</title>
<polygon fill="none" stroke="white" stroke-width="2" points="85.1748,-16 85.1748,-68 233.175,-68 233.175,-16 85.1748,-16"/>
</g>
<g id="clust3" class="cluster"><title>cluster_inflows</title>
<polygon fill="none" stroke="white" stroke-width="2" points="136.175,-84 136.175,-130 182.175,-130 182.175,-84 136.175,-84"/>
</g>
<g id="clust4" class="cluster"><title>cluster_inflows_inner</title>
<polygon fill="none" stroke="white" stroke-width="2" points="144.175,-92 144.175,-122 174.175,-122 174.175,-92 144.175,-92"/>
</g>
<!-- FN_Sampling_rate -->
<g id="node1" class="node"><title>FN_Sampling_rate</title>
<path fill="#ffffcc" stroke="black" d="M213.357,-60C213.357,-60 104.993,-60 104.993,-60 98.9928,-60 92.9928,-54 92.9928,-48 92.9928,-48 92.9928,-36 92.9928,-36 92.9928,-30 98.9928,-24 104.993,-24 104.993,-24 213.357,-24 213.357,-24 219.357,-24 225.357,-30 225.357,-36 225.357,-36 225.357,-48 225.357,-48 225.357,-54 219.357,-60 213.357,-60"/>
<text text-anchor="middle" x="159.175" y="-37.8" font-family="Helvetica,sans-Serif" font-size="14.00">FN_Sampling_rate</text>
</g>
<!-- FN_Sampling_rate_inflow -->
<g id="node2" class="node"><title>FN_Sampling_rate_inflow</title>
<ellipse fill="none" stroke="black" cx="159.175" cy="-107" rx="7" ry="7"/>
</g>
<!-- FN_Sampling_rate_inflow&#45;&gt;FN_Sampling_rate -->
<g id="edge1" class="edge"><title>FN_Sampling_rate_inflow&#45;&gt;FN_Sampling_rate</title>
<path fill="none" stroke="black" d="M159.175,-99.729C159.175,-92.7948 159.175,-81.1535 159.175,-70.2147"/>
<polygon fill="black" stroke="black" points="162.675,-70.1188 159.175,-60.1188 155.675,-70.1189 162.675,-70.1188"/>
</g>
</g>
</svg>
