<?xml version="1.0" encoding="UTF-8" standalone="no"?>
<!DOCTYPE svg PUBLIC "-//W3C//DTD SVG 1.1//EN"
 "http://www.w3.org/Graphics/SVG/1.1/DTD/svg11.dtd">
<!-- Generated by graphviz version 2.38.0 (20140413.2041)
 -->
<!-- Title: yw_data_view Pages: 1 -->
<svg width="326pt" height="320pt"
 viewBox="0.00 0.00 326.35 319.60" xmlns="http://www.w3.org/2000/svg" xmlns:xlink="http://www.w3.org/1999/xlink">
<g id="graph0" class="graph" transform="scale(1 1) rotate(0) translate(4 315.6)">
<title>yw_data_view</title>
<polygon fill="white" stroke="none" points="-4,4 -4,-315.6 322.35,-315.6 322.35,4 -4,4"/>
<text text-anchor="middle" x="159.175" y="-291.4" font-family="Courier,monospace" font-size="18.00">GRAVITATIONAL_WAVE_DETECTION</text>
<g id="clust1" class="cluster"><title>cluster_workflow</title>
<polygon fill="none" stroke="black" stroke-width="2" points="84.1748,-8 84.1748,-220 234.175,-220 234.175,-8 84.1748,-8"/>
</g>
<g id="clust2" class="cluster"><title>cluster_workflow_inner</title>
<polygon fill="none" stroke="white" stroke-width="2" points="92.1748,-16 92.1748,-212 226.175,-212 226.175,-16 92.1748,-16"/>
</g>
<g id="clust3" class="cluster"><title>cluster_inflows</title>
<polygon fill="none" stroke="white" stroke-width="2" points="136.175,-228 136.175,-274 182.175,-274 182.175,-228 136.175,-228"/>
</g>
<g id="clust4" class="cluster"><title>cluster_inflows_inner</title>
<polygon fill="none" stroke="white" stroke-width="2" points="144.175,-236 144.175,-266 174.175,-266 174.175,-236 144.175,-236"/>
</g>
<!-- FILTER_COEFS -->
<g id="node1" class="node"><title>FILTER_COEFS</title>
<polygon fill="#ccffcc" stroke="black" points="217.458,-132 100.891,-132 100.891,-96 217.458,-96 217.458,-132"/>
<text text-anchor="middle" x="159.175" y="-109.8" font-family="Courier,monospace" font-size="14.00">FILTER_COEFS</text>
</g>
<!-- COEFFICIENTS -->
<g id="node2" class="node"><title>COEFFICIENTS</title>
<path fill="#ffffcc" stroke="black" d="M206.334,-60C206.334,-60 112.015,-60 112.015,-60 106.015,-60 100.015,-54 100.015,-48 100.015,-48 100.015,-36 100.015,-36 100.015,-30 106.015,-24 112.015,-24 112.015,-24 206.334,-24 206.334,-24 212.334,-24 218.334,-30 218.334,-36 218.334,-36 218.334,-48 218.334,-48 218.334,-54 212.334,-60 206.334,-60"/>
<text text-anchor="middle" x="159.175" y="-37.8" font-family="Helvetica,sans-Serif" font-size="14.00">COEFFICIENTS</text>
</g>
<!-- FILTER_COEFS&#45;&gt;COEFFICIENTS -->
<g id="edge2" class="edge"><title>FILTER_COEFS&#45;&gt;COEFFICIENTS</title>
<path fill="none" stroke="black" d="M159.175,-95.6966C159.175,-87.9827 159.175,-78.7125 159.175,-70.1124"/>
<polygon fill="black" stroke="black" points="162.675,-70.1043 159.175,-60.1043 155.675,-70.1044 162.675,-70.1043"/>
</g>
<!-- fs -->
<g id="node3" class="node"><title>fs</title>
<path fill="#ffffff" stroke="black" d="M174.175,-204C174.175,-204 144.175,-204 144.175,-204 138.175,-204 132.175,-198 132.175,-192 132.175,-192 132.175,-180 132.175,-180 132.175,-174 138.175,-168 144.175,-168 144.175,-168 174.175,-168 174.175,-168 180.175,-168 186.175,-174 186.175,-180 186.175,-180 186.175,-192 186.175,-192 186.175,-198 180.175,-204 174.175,-204"/>
<text text-anchor="middle" x="159.175" y="-181.8" font-family="Helvetica,sans-Serif" font-size="14.00">fs</text>
</g>
<!-- fs&#45;&gt;FILTER_COEFS -->
<g id="edge1" class="edge"><title>fs&#45;&gt;FILTER_COEFS</title>
<path fill="none" stroke="black" d="M159.175,-167.697C159.175,-159.983 159.175,-150.712 159.175,-142.112"/>
<polygon fill="black" stroke="black" points="162.675,-142.104 159.175,-132.104 155.675,-142.104 162.675,-142.104"/>
</g>
<!-- fs_inflow -->
<g id="node4" class="node"><title>fs_inflow</title>
<ellipse fill="none" stroke="black" cx="159.175" cy="-251" rx="7" ry="7"/>
</g>
<!-- fs_inflow&#45;&gt;fs -->
<g id="edge3" class="edge"><title>fs_inflow&#45;&gt;fs</title>
<path fill="none" stroke="black" d="M159.175,-243.729C159.175,-236.795 159.175,-225.154 159.175,-214.215"/>
<polygon fill="black" stroke="black" points="162.675,-214.119 159.175,-204.119 155.675,-214.119 162.675,-214.119"/>
</g>
</g>
</svg>
